<?xml version="1.0" encoding="UTF-8"?>
<svg xmlns="http://www.w3.org/2000/svg" xmlns:xlink="http://www.w3.org/1999/xlink" width="800pt" height="500pt" viewBox="0 0 800 500" version="1.1">
<g id="surface715">
<rect x="0" y="0" width="800" height="500" style="fill:rgb(100%,100%,100%);fill-opacity:1;stroke:none;"/>
<path style=" stroke:none;fill-rule:nonzero;fill:rgb(9.803922%,9.803922%,43.921569%);fill-opacity:1;" d="M 433.785156 285.722656 C 606.082031 467.90625 447.484375 578.707031 407.785156 303.886719 C 403.503906 274.25 387.347656 278.296875 371.882812 312.886719 C 220.046875 652.472656 220.046875 472.226562 371.882812 284.722656 C 392.96875 258.679688 385.332031 246.082031 341.332031 234.332031 C 106.667969 171.667969 239.414062 19.71875 367.882812 203.945312 C 379.125 220.0625 393.421875 220.605469 389.882812 204.78125 C 367.625 105.296875 479.308594 79.699219 424.785156 196.78125 C 413.632812 220.730469 425.179688 224.667969 445.785156 203.945312 C 496.148438 153.28125 476.300781 259.101562 436.332031 254.332031 C 412.714844 251.515625 411.824219 262.503906 433.785156 285.722656 "/>
<path style=" stroke:none;fill-rule:nonzero;fill:rgb(9.803922%,9.803922%,43.921569%);fill-opacity:1;" d="M 287.199219 285 C 287.199219 288.425781 284.425781 291.199219 281 291.199219 C 277.574219 291.199219 274.800781 288.425781 274.800781 285 C 274.800781 281.574219 277.574219 278.800781 281 278.800781 C 284.425781 278.800781 287.199219 281.574219 287.199219 285 "/>
<path style=" stroke:none;fill-rule:nonzero;fill:rgb(9.803922%,9.803922%,43.921569%);fill-opacity:1;" d="M 303.199219 402 C 303.199219 408.1875 298.1875 413.199219 292 413.199219 C 285.8125 413.199219 280.800781 408.1875 280.800781 402 C 280.800781 395.8125 285.8125 390.800781 292 390.800781 C 298.1875 390.800781 303.199219 395.8125 303.199219 402 "/>
<path style=" stroke:none;fill-rule:nonzero;fill:rgb(9.803922%,9.803922%,43.921569%);fill-opacity:1;" d="M 279.300781 369 C 279.300781 374.734375 270.699219 374.734375 270.699219 369 C 270.699219 363.265625 279.300781 363.265625 279.300781 369 "/>
<path style=" stroke:none;fill-rule:nonzero;fill:rgb(9.803922%,9.803922%,43.921569%);fill-opacity:1;" d="M 571.101562 54 C 571.101562 58.132812 564.898438 58.132812 564.898438 54 C 564.898438 49.867188 571.101562 49.867188 571.101562 54 "/>
<path style=" stroke:none;fill-rule:nonzero;fill:rgb(9.803922%,9.803922%,43.921569%);fill-opacity:1;" d="M 370.800781 186 C 370.800781 191.414062 366.414062 195.800781 361 195.800781 C 355.585938 195.800781 351.199219 191.414062 351.199219 186 C 351.199219 180.585938 355.585938 176.199219 361 176.199219 C 366.414062 176.199219 370.800781 180.585938 370.800781 186 "/>
<path style=" stroke:none;fill-rule:nonzero;fill:rgb(9.803922%,9.803922%,43.921569%);fill-opacity:1;" d="M 217.101562 351 C 217.101562 353.800781 212.898438 353.800781 212.898438 351 C 212.898438 348.199219 217.101562 348.199219 217.101562 351 "/>
<path style=" stroke:none;fill-rule:nonzero;fill:rgb(9.803922%,9.803922%,43.921569%);fill-opacity:1;" d="M 328 71 C 328 74.3125 325.3125 77 322 77 C 318.6875 77 316 74.3125 316 71 C 316 67.6875 318.6875 65 322 65 C 325.3125 65 328 67.6875 328 71 "/>
<path style=" stroke:none;fill-rule:nonzero;fill:rgb(9.803922%,9.803922%,43.921569%);fill-opacity:1;" d="M 263.101562 116 C 263.101562 121.027344 259.027344 125.101562 254 125.101562 C 248.972656 125.101562 244.898438 121.027344 244.898438 116 C 244.898438 110.972656 248.972656 106.898438 254 106.898438 C 259.027344 106.898438 263.101562 110.972656 263.101562 116 "/>
<path style=" stroke:none;fill-rule:nonzero;fill:rgb(9.803922%,9.803922%,43.921569%);fill-opacity:1;" d="M 401.699219 87 C 401.699219 89.265625 398.300781 89.265625 398.300781 87 C 398.300781 84.734375 401.699219 84.734375 401.699219 87 "/>
<path style=" stroke:none;fill-rule:nonzero;fill:rgb(9.803922%,9.803922%,43.921569%);fill-opacity:1;" d="M 598.101562 417 C 598.101562 422.578125 593.578125 427.101562 588 427.101562 C 582.421875 427.101562 577.898438 422.578125 577.898438 417 C 577.898438 411.421875 582.421875 406.898438 588 406.898438 C 593.578125 406.898438 598.101562 411.421875 598.101562 417 "/>
<path style=" stroke:none;fill-rule:nonzero;fill:rgb(9.803922%,9.803922%,43.921569%);fill-opacity:1;" d="M 550.800781 329 C 550.800781 337.171875 544.171875 343.800781 536 343.800781 C 527.828125 343.800781 521.199219 337.171875 521.199219 329 C 521.199219 320.828125 527.828125 314.199219 536 314.199219 C 544.171875 314.199219 550.800781 320.828125 550.800781 329 "/>
<path style=" stroke:none;fill-rule:nonzero;fill:rgb(9.803922%,9.803922%,43.921569%);fill-opacity:1;" d="M 218.699219 291 C 218.699219 296.910156 213.910156 301.699219 208 301.699219 C 202.089844 301.699219 197.300781 296.910156 197.300781 291 C 197.300781 285.089844 202.089844 280.300781 208 280.300781 C 213.910156 280.300781 218.699219 285.089844 218.699219 291 "/>
<path style=" stroke:none;fill-rule:nonzero;fill:rgb(9.803922%,9.803922%,43.921569%);fill-opacity:1;" d="M 576.101562 66 C 576.101562 71.027344 572.027344 75.101562 567 75.101562 C 561.972656 75.101562 557.898438 71.027344 557.898438 66 C 557.898438 60.972656 561.972656 56.898438 567 56.898438 C 572.027344 56.898438 576.101562 60.972656 576.101562 66 "/>
<path style=" stroke:none;fill-rule:nonzero;fill:rgb(9.803922%,9.803922%,43.921569%);fill-opacity:1;" d="M 246.101562 205 C 246.101562 209.132812 239.898438 209.132812 239.898438 205 C 239.898438 200.867188 246.101562 200.867188 246.101562 205 "/>
<path style=" stroke:none;fill-rule:nonzero;fill:rgb(9.803922%,9.803922%,43.921569%);fill-opacity:1;" d="M 250.398438 234 C 250.398438 239.867188 241.601562 239.867188 241.601562 234 C 241.601562 228.132812 250.398438 228.132812 250.398438 234 "/>
</g>
</svg>
