<?xml version="1.0" encoding="UTF-8"?>
<svg xmlns="http://www.w3.org/2000/svg" xmlns:xlink="http://www.w3.org/1999/xlink" width="800pt" height="600pt" viewBox="0 0 800 600" version="1.1">
<g id="surface736">
<rect x="0" y="0" width="800" height="600" style="fill:rgb(20%,20%,20%);fill-opacity:1;stroke:none;"/>
<path style=" stroke:none;fill-rule:nonzero;fill:rgb(100%,100%,94.117647%);fill-opacity:0.7;" d="M 619.203125 415.601562 C 619.203125 415.605469 619.226562 415.621094 619.226562 415.625 "/>
<path style=" stroke:none;fill-rule:nonzero;fill:rgb(100%,100%,94.117647%);fill-opacity:0.4;" d="M 619.226562 415.625 C 616.613281 419.488281 544.113281 499.84375 539.878906 505.1875 "/>
<path style=" stroke:none;fill-rule:nonzero;fill:rgb(100%,100%,94.117647%);fill-opacity:0.8;" d="M 539.878906 505.1875 C 539.878906 505.1875 539.859375 505.167969 539.855469 505.167969 "/>
<path style=" stroke:none;fill-rule:nonzero;fill:rgb(100%,100%,94.117647%);fill-opacity:0.3;" d="M 539.855469 505.167969 C 539.855469 505.167969 539.835938 505.148438 539.832031 505.148438 "/>
<path style=" stroke:none;fill-rule:nonzero;fill:rgb(100%,100%,94.117647%);fill-opacity:0.6;" d="M 539.832031 505.148438 C 542.429688 501.269531 615.726562 420.171875 619.179688 415.582031 "/>
<path style=" stroke:none;fill-rule:nonzero;fill:rgb(100%,100%,94.117647%);fill-opacity:0.7;" d="M 619.179688 415.582031 C 619.183594 415.582031 619.203125 415.601562 619.203125 415.601562 "/>
<path style=" stroke:none;fill-rule:nonzero;fill:rgb(100%,100%,94.117647%);fill-opacity:0.8;" d="M 624.144531 416.691406 C 617.363281 422.699219 442.214844 541.339844 432.917969 548.6875 "/>
<path style=" stroke:none;fill-rule:nonzero;fill:rgb(100%,100%,94.117647%);fill-opacity:0.9;" d="M 432.917969 548.6875 C 440.222656 542.21875 616.640625 422.929688 624.144531 416.691406 "/>
<path style=" stroke:none;fill-rule:nonzero;fill:rgb(100%,100%,94.117647%);fill-opacity:0.5;" d="M 622.878906 414.535156 C 611.578125 420.820312 323.601562 526.898438 312.863281 532.109375 "/>
<path style=" stroke:none;fill-rule:nonzero;fill:rgb(100%,100%,94.117647%);fill-opacity:0.7;" d="M 312.863281 532.109375 C 329.769531 523.660156 613.828125 418.65625 622.878906 414.535156 "/>
<path style=" stroke:none;fill-rule:nonzero;fill:rgb(100%,100%,94.117647%);fill-opacity:0.9;" d="M 621.363281 416.179688 C 605.859375 420.324219 231.039062 462.1875 212.871094 465.78125 "/>
<path style=" stroke:none;fill-rule:nonzero;fill:rgb(100%,100%,94.117647%);fill-opacity:0.7;" d="M 212.871094 465.78125 C 228.355469 461.5625 597.191406 421.210938 621.363281 416.179688 "/>
<path style=" stroke:none;fill-rule:nonzero;fill:rgb(100%,100%,94.117647%);fill-opacity:0.8;" d="M 619.136719 417.929688 C 595.292969 417.925781 183.0625 362.742188 155.039062 361.578125 "/>
<path style=" stroke:none;fill-rule:nonzero;fill:rgb(100%,100%,94.117647%);fill-opacity:0.4;" d="M 155.039062 361.566406 C 169.0625 361.707031 599.507812 417.492188 619.136719 417.917969 "/>
<path style=" stroke:none;fill-rule:nonzero;fill:rgb(100%,100%,94.117647%);fill-opacity:0.8;" d="M 622.878906 417.824219 C 622.878906 417.828125 622.867188 417.859375 622.863281 417.863281 "/>
<path style=" stroke:none;fill-rule:nonzero;fill:rgb(100%,100%,94.117647%);fill-opacity:0.8;" d="M 622.863281 417.863281 C 595.238281 411.761719 175.769531 247.347656 158.765625 241.851562 "/>
<path style=" stroke:none;fill-rule:nonzero;fill:rgb(100%,100%,94.117647%);fill-opacity:0.6;" d="M 158.765625 241.851562 C 158.765625 241.851562 158.78125 241.816406 158.78125 241.816406 "/>
<path style=" stroke:none;fill-rule:nonzero;fill:rgb(100%,100%,94.117647%);fill-opacity:0.4;" d="M 158.78125 241.816406 C 158.78125 241.8125 158.792969 241.78125 158.792969 241.777344 "/>
<path style=" stroke:none;fill-rule:nonzero;fill:rgb(100%,100%,94.117647%);fill-opacity:0.3;" d="M 158.792969 241.777344 C 184.785156 248.324219 600.015625 411.132812 622.894531 417.789062 "/>
<path style=" stroke:none;fill-rule:nonzero;fill:rgb(100%,100%,94.117647%);fill-opacity:0.8;" d="M 622.894531 417.789062 C 622.894531 417.789062 622.878906 417.824219 622.878906 417.824219 "/>
<path style=" stroke:none;fill-rule:nonzero;fill:rgb(100%,100%,94.117647%);fill-opacity:0.6;" d="M 621.617188 417.570312 C 621.617188 417.574219 621.605469 417.59375 621.605469 417.59375 "/>
<path style=" stroke:none;fill-rule:nonzero;fill:rgb(100%,100%,94.117647%);fill-opacity:0.3;" d="M 621.605469 417.59375 C 604.378906 408.761719 225.8125 143.40625 213.113281 135.632812 "/>
<path style=" stroke:none;fill-rule:nonzero;fill:rgb(100%,100%,94.117647%);fill-opacity:0.8;" d="M 213.113281 135.632812 C 213.113281 135.628906 213.125 135.613281 213.128906 135.609375 "/>
<path style=" stroke:none;fill-rule:nonzero;fill:rgb(100%,100%,94.117647%);fill-opacity:0.5;" d="M 213.128906 135.609375 C 213.128906 135.609375 213.140625 135.589844 213.140625 135.589844 "/>
<path style=" stroke:none;fill-rule:nonzero;fill:rgb(100%,100%,94.117647%);fill-opacity:0.6;" d="M 213.140625 135.589844 C 232.96875 145.878906 597.359375 403.019531 621.632812 417.550781 "/>
<path style=" stroke:none;fill-rule:nonzero;fill:rgb(100%,100%,94.117647%);fill-opacity:0.7;" d="M 621.632812 417.550781 C 621.632812 417.550781 621.621094 417.570312 621.617188 417.570312 "/>
<path style=" stroke:none;fill-rule:nonzero;fill:rgb(100%,100%,94.117647%);fill-opacity:0.3;" d="M 623.4375 417.015625 C 623.4375 417.015625 623.417969 417.035156 623.414062 417.035156 "/>
<path style=" stroke:none;fill-rule:nonzero;fill:rgb(100%,100%,94.117647%);fill-opacity:0.9;" d="M 623.414062 417.035156 C 604.039062 400.851562 327.34375 80.925781 313.402344 67.101562 "/>
<path style=" stroke:none;fill-rule:nonzero;fill:rgb(100%,100%,94.117647%);fill-opacity:0.9;" d="M 313.402344 67.101562 C 313.402344 67.097656 313.421875 67.082031 313.421875 67.078125 "/>
<path style=" stroke:none;fill-rule:nonzero;fill:rgb(100%,100%,94.117647%);fill-opacity:0.3;" d="M 313.421875 67.078125 C 313.425781 67.078125 313.445312 67.0625 313.445312 67.058594 "/>
<path style=" stroke:none;fill-rule:nonzero;fill:rgb(100%,100%,94.117647%);fill-opacity:0.5;" d="M 313.445312 67.058594 C 326.042969 78.222656 610.578125 404.09375 623.460938 416.996094 "/>
<path style=" stroke:none;fill-rule:nonzero;fill:rgb(100%,100%,94.117647%);fill-opacity:0.6;" d="M 623.460938 416.996094 C 623.460938 416.996094 623.441406 417.015625 623.4375 417.015625 "/>
<path style=" stroke:none;fill-rule:nonzero;fill:rgb(100%,100%,94.117647%);fill-opacity:0.5;" d="M 622.25 415.714844 C 613.777344 403.5625 440.667969 67.164062 431.019531 51.359375 "/>
<path style=" stroke:none;fill-rule:nonzero;fill:rgb(100%,100%,94.117647%);fill-opacity:0.6;" d="M 431.019531 51.359375 C 439.492188 63.511719 614.285156 403.226562 622.25 415.714844 "/>
<path style=" stroke:none;fill-rule:nonzero;fill:rgb(100%,100%,94.117647%);fill-opacity:0.9;" d="M 619.914062 414.476562 C 613.816406 397.644531 544.222656 102.863281 540.566406 92.550781 "/>
<path style=" stroke:none;fill-rule:nonzero;fill:rgb(100%,100%,94.117647%);fill-opacity:0.9;" d="M 540.566406 92.550781 C 546.910156 109.292969 615 400.390625 619.914062 414.476562 "/>
<path style=" stroke:none;fill-rule:nonzero;fill:rgb(100%,100%,94.117647%);fill-opacity:0.4;" d="M 623.363281 418.179688 C 622.054688 407.808594 623.988281 196.257812 623.363281 185.820312 "/>
<path style=" stroke:none;fill-rule:nonzero;fill:rgb(100%,100%,94.117647%);fill-opacity:0.3;" d="M 623.363281 185.820312 C 624.847656 197.578125 622.191406 406.386719 623.363281 418.179688 "/>
<path style=" stroke:none;fill-rule:nonzero;fill:rgb(100%,100%,94.117647%);fill-opacity:0.6;" d="M 621.363281 416.179688 C 621.945312 411.914062 649.1875 304.960938 650 300 "/>
<path style=" stroke:none;fill-rule:nonzero;fill:rgb(100%,100%,94.117647%);fill-opacity:0.9;" d="M 650 300 C 649.605469 304.289062 622.078125 412.296875 621.363281 416.179688 "/>
<path style=" stroke:none;fill-rule:nonzero;fill:rgb(100%,100%,94.117647%);fill-opacity:0.3;" d="M 539.792969 505.519531 C 535.386719 507.941406 434.472656 545.042969 427.910156 547.953125 "/>
<path style=" stroke:none;fill-rule:nonzero;fill:rgb(100%,100%,94.117647%);fill-opacity:0.9;" d="M 427.910156 547.953125 C 432.011719 545.722656 534.648438 508.078125 539.792969 505.519531 "/>
<path style=" stroke:none;fill-rule:nonzero;fill:rgb(100%,100%,94.117647%);fill-opacity:0.9;" d="M 540.78125 503.882812 C 534.023438 505.582031 323.054688 529.0625 310.113281 531.890625 "/>
<path style=" stroke:none;fill-rule:nonzero;fill:rgb(100%,100%,94.117647%);fill-opacity:0.8;" d="M 310.113281 531.890625 C 316.859375 530.125 529.136719 506.066406 540.78125 503.882812 "/>
<path style=" stroke:none;fill-rule:nonzero;fill:rgb(100%,100%,94.117647%);fill-opacity:0.3;" d="M 541.265625 503.640625 C 541.265625 503.644531 541.257812 503.6875 541.257812 503.691406 "/>
<path style=" stroke:none;fill-rule:nonzero;fill:rgb(100%,100%,94.117647%);fill-opacity:0.9;" d="M 541.257812 503.691406 C 530.320312 503.472656 231.964844 465.035156 212.113281 463.722656 "/>
<path style=" stroke:none;fill-rule:nonzero;fill:rgb(100%,100%,94.117647%);fill-opacity:0.3;" d="M 212.113281 463.722656 C 212.113281 463.722656 212.121094 463.675781 212.121094 463.675781 "/>
<path style=" stroke:none;fill-rule:nonzero;fill:rgb(100%,100%,94.117647%);fill-opacity:0.6;" d="M 212.121094 463.675781 C 212.121094 463.671875 212.125 463.625 212.125 463.625 "/>
<path style=" stroke:none;fill-rule:nonzero;fill:rgb(100%,100%,94.117647%);fill-opacity:0.9;" d="M 212.125 463.625 C 232.019531 463.53125 529.34375 503.097656 541.269531 503.589844 "/>
<path style=" stroke:none;fill-rule:nonzero;fill:rgb(100%,100%,94.117647%);fill-opacity:0.5;" d="M 541.269531 503.589844 C 541.269531 503.59375 541.265625 503.636719 541.265625 503.640625 "/>
<path style=" stroke:none;fill-rule:nonzero;fill:rgb(100%,100%,94.117647%);fill-opacity:0.7;" d="M 540.5 504.101562 C 526.050781 500.835938 179.421875 365.199219 155.75 358.1875 "/>
<path style=" stroke:none;fill-rule:nonzero;fill:rgb(100%,100%,94.117647%);fill-opacity:0.5;" d="M 155.75 358.183594 C 174.972656 362.726562 522.722656 498.929688 540.5 504.101562 "/>
<path style=" stroke:none;fill-rule:nonzero;fill:rgb(100%,100%,94.117647%);fill-opacity:0.3;" d="M 541.761719 504.355469 C 526.636719 496.972656 175.21875 249.320312 157.007812 238.78125 "/>
<path style=" stroke:none;fill-rule:nonzero;fill:rgb(100%,100%,94.117647%);fill-opacity:0.3;" d="M 157.007812 238.78125 C 179.472656 250.296875 528.640625 496.238281 541.761719 504.355469 "/>
<path style=" stroke:none;fill-rule:nonzero;fill:rgb(100%,100%,94.117647%);fill-opacity:0.7;" d="M 541.4375 503.585938 C 541.4375 503.585938 541.410156 503.613281 541.410156 503.613281 "/>
<path style=" stroke:none;fill-rule:nonzero;fill:rgb(100%,100%,94.117647%);fill-opacity:0.8;" d="M 541.410156 503.613281 C 523.347656 488.074219 223.726562 143.789062 212.265625 132.085938 "/>
<path style=" stroke:none;fill-rule:nonzero;fill:rgb(100%,100%,94.117647%);fill-opacity:0.4;" d="M 212.265625 132.085938 C 212.265625 132.085938 212.292969 132.0625 212.292969 132.058594 "/>
<path style=" stroke:none;fill-rule:nonzero;fill:rgb(100%,100%,94.117647%);fill-opacity:0.9;" d="M 212.292969 132.058594 C 212.296875 132.058594 212.324219 132.035156 212.324219 132.03125 "/>
<path style=" stroke:none;fill-rule:nonzero;fill:rgb(100%,100%,94.117647%);fill-opacity:0.9;" d="M 212.324219 132.03125 C 225.925781 143.621094 523.40625 485.824219 541.46875 503.558594 "/>
<path style=" stroke:none;fill-rule:nonzero;fill:rgb(100%,100%,94.117647%);fill-opacity:0.4;" d="M 541.46875 503.558594 C 541.46875 503.5625 541.441406 503.585938 541.4375 503.585938 "/>
<path style=" stroke:none;fill-rule:nonzero;fill:rgb(100%,100%,94.117647%);fill-opacity:0.3;" d="M 541.128906 506.210938 C 531.632812 492.867188 325.730469 92.28125 310.464844 66.710938 "/>
<path style=" stroke:none;fill-rule:nonzero;fill:rgb(100%,100%,94.117647%);fill-opacity:0.4;" d="M 310.464844 66.710938 C 322.964844 85.21875 527.3125 485 541.128906 506.210938 "/>
<path style=" stroke:none;fill-rule:nonzero;fill:rgb(100%,100%,94.117647%);fill-opacity:0.9;" d="M 543.71875 504.296875 C 533.136719 478.316406 440.425781 77.074219 431.835938 50.375 "/>
<path style=" stroke:none;fill-rule:nonzero;fill:rgb(100%,100%,94.117647%);fill-opacity:0.4;" d="M 431.835938 50.375 C 436.550781 63.582031 535.0625 479.09375 543.71875 504.296875 "/>
<path style=" stroke:none;fill-rule:nonzero;fill:rgb(100%,100%,94.117647%);fill-opacity:0.5;" d="M 543.015625 507.746094 C 540.285156 483.207031 544.523438 112.230469 543.015625 96.253906 "/>
<path style=" stroke:none;fill-rule:nonzero;fill:rgb(100%,100%,94.117647%);fill-opacity:0.8;" d="M 543.015625 96.253906 C 545.234375 117.121094 541.625 492.996094 543.015625 507.746094 "/>
<path style=" stroke:none;fill-rule:nonzero;fill:rgb(100%,100%,94.117647%);fill-opacity:0.6;" d="M 540.074219 505.265625 C 540.070312 505.265625 540.035156 505.257812 540.035156 505.257812 "/>
<path style=" stroke:none;fill-rule:nonzero;fill:rgb(100%,100%,94.117647%);fill-opacity:0.8;" d="M 540.035156 505.257812 C 541.910156 490.457031 617.617188 194.128906 619.382812 183.332031 "/>
<path style=" stroke:none;fill-rule:nonzero;fill:rgb(100%,100%,94.117647%);fill-opacity:0.7;" d="M 619.382812 183.332031 C 619.386719 183.332031 619.421875 183.339844 619.421875 183.339844 "/>
<path style=" stroke:none;fill-rule:nonzero;fill:rgb(100%,100%,94.117647%);fill-opacity:0.5;" d="M 619.421875 183.339844 C 619.425781 183.339844 619.460938 183.351562 619.460938 183.351562 "/>
<path style=" stroke:none;fill-rule:nonzero;fill:rgb(100%,100%,94.117647%);fill-opacity:0.5;" d="M 619.460938 183.351562 C 617.441406 198.132812 541.953125 492.476562 540.113281 505.277344 "/>
<path style=" stroke:none;fill-rule:nonzero;fill:rgb(100%,100%,94.117647%);fill-opacity:0.7;" d="M 540.113281 505.277344 C 540.113281 505.277344 540.078125 505.269531 540.074219 505.265625 "/>
<path style=" stroke:none;fill-rule:nonzero;fill:rgb(100%,100%,94.117647%);fill-opacity:0.9;" d="M 541.128906 505.28125 C 543.640625 498.035156 644.5625 310.476562 649.113281 299.535156 "/>
<path style=" stroke:none;fill-rule:nonzero;fill:rgb(100%,100%,94.117647%);fill-opacity:0.4;" d="M 649.113281 299.535156 C 645.054688 309.921875 546.097656 493.003906 541.128906 505.28125 "/>
<path style=" stroke:none;fill-rule:nonzero;fill:rgb(100%,100%,94.117647%);fill-opacity:0.6;" d="M 429.261719 547.0625 C 424.957031 547.191406 317.292969 532.921875 310.476562 532.640625 "/>
<path style=" stroke:none;fill-rule:nonzero;fill:rgb(100%,100%,94.117647%);fill-opacity:0.5;" d="M 310.476562 532.640625 C 317.296875 532.640625 422.449219 546.714844 429.261719 547.0625 "/>
<path style=" stroke:none;fill-rule:nonzero;fill:rgb(100%,100%,94.117647%);fill-opacity:0.8;" d="M 430.84375 546.308594 C 430.84375 546.308594 430.839844 546.3125 430.839844 546.3125 "/>
<path style=" stroke:none;fill-rule:nonzero;fill:rgb(100%,100%,94.117647%);fill-opacity:0.8;" d="M 430.839844 546.3125 C 419.988281 543.746094 223.621094 466.835938 213.578125 463.917969 "/>
<path style=" stroke:none;fill-rule:nonzero;fill:rgb(100%,100%,94.117647%);fill-opacity:0.8;" d="M 213.578125 463.917969 C 213.578125 463.914062 213.582031 463.910156 213.582031 463.910156 "/>
<path style=" stroke:none;fill-rule:nonzero;fill:rgb(100%,100%,94.117647%);fill-opacity:0.9;" d="M 213.582031 463.90625 C 224.386719 466.683594 417.441406 542.472656 430.84375 546.300781 "/>
<path style=" stroke:none;fill-rule:nonzero;fill:rgb(100%,100%,94.117647%);fill-opacity:0.9;" d="M 431.269531 546.53125 C 415.296875 538.441406 172.136719 366.222656 158.402344 358.183594 "/>
<path style=" stroke:none;fill-rule:nonzero;fill:rgb(100%,100%,94.117647%);fill-opacity:0.8;" d="M 158.402344 358.183594 C 170.664062 364.777344 415.773438 537.5625 431.269531 546.53125 "/>
<path style=" stroke:none;fill-rule:nonzero;fill:rgb(100%,100%,94.117647%);fill-opacity:0.7;" d="M 430.304688 545.355469 C 430.304688 545.355469 430.296875 545.359375 430.296875 545.359375 "/>
<path style=" stroke:none;fill-rule:nonzero;fill:rgb(100%,100%,94.117647%);fill-opacity:0.3;" d="M 430.296875 545.359375 C 419.066406 535.699219 173.921875 254.03125 157.425781 237.355469 "/>
<path style=" stroke:none;fill-rule:nonzero;fill:rgb(100%,100%,94.117647%);fill-opacity:0.8;" d="M 157.425781 237.355469 C 157.425781 237.355469 157.433594 237.347656 157.433594 237.347656 "/>
<path style=" stroke:none;fill-rule:nonzero;fill:rgb(100%,100%,94.117647%);fill-opacity:0.9;" d="M 157.433594 237.347656 C 157.4375 237.347656 157.441406 237.339844 157.445312 237.339844 "/>
<path style=" stroke:none;fill-rule:nonzero;fill:rgb(100%,100%,94.117647%);fill-opacity:0.4;" d="M 157.445312 237.339844 C 168.480469 247.222656 421.417969 536.785156 430.3125 545.347656 "/>
<path style=" stroke:none;fill-rule:nonzero;fill:rgb(100%,100%,94.117647%);fill-opacity:0.3;" d="M 430.3125 545.347656 C 430.3125 545.347656 430.304688 545.355469 430.304688 545.355469 "/>
<path style=" stroke:none;fill-rule:nonzero;fill:rgb(100%,100%,94.117647%);fill-opacity:0.6;" d="M 427.898438 548.222656 C 418.273438 534.414062 224 155.683594 210.636719 134.261719 "/>
<path style=" stroke:none;fill-rule:nonzero;fill:rgb(100%,100%,94.117647%);fill-opacity:0.7;" d="M 210.636719 134.261719 C 223.648438 152.546875 420.183594 536.507812 427.898438 548.222656 "/>
<path style=" stroke:none;fill-rule:nonzero;fill:rgb(100%,100%,94.117647%);fill-opacity:0.4;" d="M 429.640625 550.359375 C 419.222656 522.457031 317.90625 89.621094 310.855469 68.425781 "/>
<path style=" stroke:none;fill-rule:nonzero;fill:rgb(100%,100%,94.117647%);fill-opacity:0.4;" d="M 310.855469 68.425781 C 316.660156 83.742188 421.808594 524.726562 429.640625 550.359375 "/>
<path style=" stroke:none;fill-rule:nonzero;fill:rgb(100%,100%,94.117647%);fill-opacity:0.4;" d="M 431.132812 548.175781 C 429.03125 527.4375 432.324219 75.617188 431.132812 51.824219 "/>
<path style=" stroke:none;fill-rule:nonzero;fill:rgb(100%,100%,94.117647%);fill-opacity:0.7;" d="M 431.132812 51.824219 C 434.304688 76.9375 429.003906 522.953125 431.132812 548.175781 "/>
<path style=" stroke:none;fill-rule:nonzero;fill:rgb(100%,100%,94.117647%);fill-opacity:0.5;" d="M 431.597656 550.597656 C 433.292969 536.675781 540.023438 116.003906 543.480469 96.675781 "/>
<path style=" stroke:none;fill-rule:nonzero;fill:rgb(100%,100%,94.117647%);fill-opacity:0.9;" d="M 543.480469 96.675781 C 540.429688 121.734375 436.023438 527.167969 431.597656 550.597656 "/>
<path style=" stroke:none;fill-rule:nonzero;fill:rgb(100%,100%,94.117647%);fill-opacity:0.9;" d="M 431.019531 548.640625 C 431.015625 548.640625 430.980469 548.621094 430.980469 548.621094 "/>
<path style=" stroke:none;fill-rule:nonzero;fill:rgb(100%,100%,94.117647%);fill-opacity:0.5;" d="M 430.980469 548.621094 C 435.859375 535.949219 613.308594 205.964844 622.210938 184.261719 "/>
<path style=" stroke:none;fill-rule:nonzero;fill:rgb(100%,100%,94.117647%);fill-opacity:0.7;" d="M 622.210938 184.261719 C 622.210938 184.265625 622.246094 184.28125 622.25 184.285156 "/>
<path style=" stroke:none;fill-rule:nonzero;fill:rgb(100%,100%,94.117647%);fill-opacity:0.8;" d="M 622.25 184.285156 C 622.253906 184.285156 622.289062 184.304688 622.289062 184.304688 "/>
<path style=" stroke:none;fill-rule:nonzero;fill:rgb(100%,100%,94.117647%);fill-opacity:0.7;" d="M 622.289062 184.304688 C 614.507812 206.429688 440.382812 527.140625 431.058594 548.664062 "/>
<path style=" stroke:none;fill-rule:nonzero;fill:rgb(100%,100%,94.117647%);fill-opacity:0.8;" d="M 431.058594 548.664062 C 431.058594 548.664062 431.023438 548.644531 431.019531 548.640625 "/>
<path style=" stroke:none;fill-rule:nonzero;fill:rgb(100%,100%,94.117647%);fill-opacity:0.5;" d="M 429.386719 547.515625 C 434.875 539.21875 643.265625 307.28125 649.25 299.335938 "/>
<path style=" stroke:none;fill-rule:nonzero;fill:rgb(100%,100%,94.117647%);fill-opacity:0.4;" d="M 649.25 299.335938 C 640.535156 311.445312 436.011719 538.808594 429.386719 547.515625 "/>
<path style=" stroke:none;fill-rule:nonzero;fill:rgb(100%,100%,94.117647%);fill-opacity:0.5;" d="M 310.210938 535.398438 C 306.671875 533.648438 214.824219 469.253906 211.734375 467.425781 "/>
<path style=" stroke:none;fill-rule:nonzero;fill:rgb(100%,100%,94.117647%);fill-opacity:0.7;" d="M 211.734375 467.425781 C 214.960938 469 306.824219 533.371094 310.210938 535.398438 "/>
<path style=" stroke:none;fill-rule:nonzero;fill:rgb(100%,100%,94.117647%);fill-opacity:0.3;" d="M 309.9375 533.667969 C 300.347656 525.578125 164.351562 368.003906 155.851562 359.742188 "/>
<path style=" stroke:none;fill-rule:nonzero;fill:rgb(100%,100%,94.117647%);fill-opacity:0.9;" d="M 155.851562 359.742188 C 164.757812 367.558594 302.40625 526.417969 309.9375 533.667969 "/>
<path style=" stroke:none;fill-rule:nonzero;fill:rgb(100%,100%,94.117647%);fill-opacity:0.5;" d="M 314.050781 534.59375 C 306.5 524.097656 165.527344 250.433594 159.964844 241.011719 "/>
<path style=" stroke:none;fill-rule:nonzero;fill:rgb(100%,100%,94.117647%);fill-opacity:0.4;" d="M 159.964844 241.011719 C 165.8125 249.058594 304.945312 519.175781 314.050781 534.59375 "/>
<path style=" stroke:none;fill-rule:nonzero;fill:rgb(100%,100%,94.117647%);fill-opacity:0.9;" d="M 312.8125 531.332031 C 312.8125 531.332031 312.78125 531.339844 312.777344 531.34375 "/>
<path style=" stroke:none;fill-rule:nonzero;fill:rgb(100%,100%,94.117647%);fill-opacity:0.5;" d="M 312.777344 531.34375 C 306.972656 515.0625 219.140625 147.109375 214.300781 131.808594 "/>
<path style=" stroke:none;fill-rule:nonzero;fill:rgb(100%,100%,94.117647%);fill-opacity:0.3;" d="M 214.300781 131.808594 C 214.300781 131.808594 214.332031 131.800781 214.335938 131.796875 "/>
<path style=" stroke:none;fill-rule:nonzero;fill:rgb(100%,100%,94.117647%);fill-opacity:0.7;" d="M 214.335938 131.796875 C 214.335938 131.796875 214.367188 131.789062 214.371094 131.789062 "/>
<path style=" stroke:none;fill-rule:nonzero;fill:rgb(100%,100%,94.117647%);fill-opacity:0.8;" d="M 214.371094 131.789062 C 221.9375 152.683594 305.628906 510.308594 312.847656 531.324219 "/>
<path style=" stroke:none;fill-rule:nonzero;fill:rgb(100%,100%,94.117647%);fill-opacity:0.9;" d="M 312.847656 531.324219 C 312.84375 531.324219 312.8125 531.332031 312.8125 531.332031 "/>
<path style=" stroke:none;fill-rule:nonzero;fill:rgb(100%,100%,94.117647%);fill-opacity:0.7;" d="M 311.347656 533.753906 C 309.523438 519.847656 313.023438 94.246094 311.347656 66.246094 "/>
<path style=" stroke:none;fill-rule:nonzero;fill:rgb(100%,100%,94.117647%);fill-opacity:0.8;" d="M 311.347656 66.246094 C 313.539062 82.933594 310.039062 509.945312 311.347656 533.753906 "/>
<path style=" stroke:none;fill-rule:nonzero;fill:rgb(100%,100%,94.117647%);fill-opacity:0.9;" d="M 311.347656 533.753906 C 311.347656 533.753906 311.300781 533.742188 311.300781 533.742188 "/>
<path style=" stroke:none;fill-rule:nonzero;fill:rgb(100%,100%,94.117647%);fill-opacity:0.4;" d="M 311.300781 533.742188 C 313.070312 514.464844 425.367188 78.195312 430.085938 51.8125 "/>
<path style=" stroke:none;fill-rule:nonzero;fill:rgb(100%,100%,94.117647%);fill-opacity:0.4;" d="M 430.085938 51.8125 C 430.089844 51.8125 430.132812 51.824219 430.132812 51.824219 "/>
<path style=" stroke:none;fill-rule:nonzero;fill:rgb(100%,100%,94.117647%);fill-opacity:0.7;" d="M 430.132812 51.824219 C 430.136719 51.824219 430.179688 51.835938 430.183594 51.835938 "/>
<path style=" stroke:none;fill-rule:nonzero;fill:rgb(100%,100%,94.117647%);fill-opacity:0.9;" d="M 430.183594 51.835938 C 427.886719 68.050781 315.730469 508.824219 311.398438 533.765625 "/>
<path style=" stroke:none;fill-rule:nonzero;fill:rgb(100%,100%,94.117647%);fill-opacity:0.8;" d="M 311.398438 533.765625 C 311.394531 533.765625 311.351562 533.753906 311.347656 533.753906 "/>
<path style=" stroke:none;fill-rule:nonzero;fill:rgb(100%,100%,94.117647%);fill-opacity:0.9;" d="M 310.882812 534.640625 C 310.882812 534.640625 310.875 534.632812 310.875 534.632812 "/>
<path style=" stroke:none;fill-rule:nonzero;fill:rgb(100%,100%,94.117647%);fill-opacity:0.7;" d="M 310.875 534.632812 C 319.972656 511.011719 533.167969 115.839844 541.542969 95.132812 "/>
<path style=" stroke:none;fill-rule:nonzero;fill:rgb(100%,100%,94.117647%);fill-opacity:0.4;" d="M 541.542969 95.132812 C 541.542969 95.132812 541.550781 95.140625 541.550781 95.140625 "/>
<path style=" stroke:none;fill-rule:nonzero;fill:rgb(100%,100%,94.117647%);fill-opacity:0.6;" d="M 541.550781 95.140625 C 541.550781 95.140625 541.558594 95.144531 541.5625 95.144531 "/>
<path style=" stroke:none;fill-rule:nonzero;fill:rgb(100%,100%,94.117647%);fill-opacity:0.7;" d="M 541.5625 95.144531 C 533.535156 115.988281 317.625 519.710938 310.894531 534.644531 "/>
<path style=" stroke:none;fill-rule:nonzero;fill:rgb(100%,100%,94.117647%);fill-opacity:0.7;" d="M 310.894531 534.644531 C 310.894531 534.644531 310.882812 534.640625 310.882812 534.640625 "/>
<path style=" stroke:none;fill-rule:nonzero;fill:rgb(100%,100%,94.117647%);fill-opacity:0.5;" d="M 310.6875 534.503906 C 310.683594 534.5 310.652344 534.472656 310.652344 534.472656 "/>
<path style=" stroke:none;fill-rule:nonzero;fill:rgb(100%,100%,94.117647%);fill-opacity:0.9;" d="M 310.652344 534.472656 C 321.410156 518.046875 611.628906 197.039062 620.667969 184.539062 "/>
<path style=" stroke:none;fill-rule:nonzero;fill:rgb(100%,100%,94.117647%);fill-opacity:0.5;" d="M 620.667969 184.539062 C 620.667969 184.539062 620.699219 184.566406 620.699219 184.566406 "/>
<path style=" stroke:none;fill-rule:nonzero;fill:rgb(100%,100%,94.117647%);fill-opacity:0.6;" d="M 620.699219 184.566406 C 620.703125 184.570312 620.734375 184.597656 620.734375 184.597656 "/>
<path style=" stroke:none;fill-rule:nonzero;fill:rgb(100%,100%,94.117647%);fill-opacity:0.5;" d="M 620.734375 184.597656 C 605.25 207.988281 325.710938 514.21875 310.71875 534.53125 "/>
<path style=" stroke:none;fill-rule:nonzero;fill:rgb(100%,100%,94.117647%);fill-opacity:0.9;" d="M 310.71875 534.53125 C 310.71875 534.53125 310.6875 534.503906 310.6875 534.503906 "/>
<path style=" stroke:none;fill-rule:nonzero;fill:rgb(100%,100%,94.117647%);fill-opacity:0.6;" d="M 311.859375 530.972656 C 311.859375 530.972656 311.847656 530.957031 311.847656 530.953125 "/>
<path style=" stroke:none;fill-rule:nonzero;fill:rgb(100%,100%,94.117647%);fill-opacity:0.8;" d="M 311.847656 530.953125 C 323.082031 521.296875 637.261719 308.3125 650.5 297.199219 "/>
<path style=" stroke:none;fill-rule:nonzero;fill:rgb(100%,100%,94.117647%);fill-opacity:0.9;" d="M 650.5 297.199219 C 650.5 297.203125 650.507812 297.21875 650.511719 297.21875 "/>
<path style=" stroke:none;fill-rule:nonzero;fill:rgb(100%,100%,94.117647%);fill-opacity:0.9;" d="M 650.511719 297.21875 C 650.511719 297.21875 650.519531 297.234375 650.523438 297.234375 "/>
<path style=" stroke:none;fill-rule:nonzero;fill:rgb(100%,100%,94.117647%);fill-opacity:0.8;" d="M 650.523438 297.234375 C 632.199219 313.78125 321.480469 523.238281 311.871094 530.988281 "/>
<path style=" stroke:none;fill-rule:nonzero;fill:rgb(100%,100%,94.117647%);fill-opacity:0.3;" d="M 311.871094 530.988281 C 311.871094 530.988281 311.859375 530.972656 311.859375 530.972656 "/>
<path style=" stroke:none;fill-rule:nonzero;fill:rgb(100%,100%,94.117647%);fill-opacity:0.5;" d="M 215.109375 465.738281 C 215.109375 465.738281 215.097656 465.742188 215.097656 465.742188 "/>
<path style=" stroke:none;fill-rule:nonzero;fill:rgb(100%,100%,94.117647%);fill-opacity:0.9;" d="M 215.097656 465.742188 C 211.535156 460.351562 161.804688 363.421875 159.492188 359.789062 "/>
<path style=" stroke:none;fill-rule:nonzero;fill:rgb(100%,100%,94.117647%);fill-opacity:0.6;" d="M 159.492188 359.789062 C 159.492188 359.789062 159.5 359.785156 159.5 359.785156 "/>
<path style=" stroke:none;fill-rule:nonzero;fill:rgb(100%,100%,94.117647%);fill-opacity:0.5;" d="M 159.5 359.785156 C 159.5 359.785156 159.507812 359.78125 159.507812 359.78125 "/>
<path style=" stroke:none;fill-rule:nonzero;fill:rgb(100%,100%,94.117647%);fill-opacity:0.7;" d="M 159.507812 359.78125 C 161.992188 363.300781 211.507812 459.945312 215.117188 465.730469 "/>
<path style=" stroke:none;fill-rule:nonzero;fill:rgb(100%,100%,94.117647%);fill-opacity:0.3;" d="M 215.117188 465.730469 C 215.117188 465.730469 215.109375 465.738281 215.109375 465.738281 "/>
<path style=" stroke:none;fill-rule:nonzero;fill:rgb(100%,100%,94.117647%);fill-opacity:0.7;" d="M 212.140625 466.992188 C 208.289062 456.523438 160.957031 253.863281 156.53125 241.382812 "/>
<path style=" stroke:none;fill-rule:nonzero;fill:rgb(100%,100%,94.117647%);fill-opacity:0.3;" d="M 156.53125 241.382812 C 160.238281 251.160156 209.734375 458.980469 212.140625 466.992188 "/>
<path style=" stroke:none;fill-rule:nonzero;fill:rgb(100%,100%,94.117647%);fill-opacity:0.7;" d="M 211.835938 465.78125 C 209.824219 450.996094 213.058594 153.078125 211.835938 134.21875 "/>
<path style=" stroke:none;fill-rule:nonzero;fill:rgb(100%,100%,94.117647%);fill-opacity:0.9;" d="M 211.90625 134.21875 C 214.132812 149.976562 210.410156 446.941406 211.90625 465.78125 "/>
<path style=" stroke:none;fill-rule:nonzero;fill:rgb(100%,100%,94.117647%);fill-opacity:0.8;" d="M 215.292969 464.316406 C 217.316406 443.429688 311.511719 78.171875 313.769531 64.78125 "/>
<path style=" stroke:none;fill-rule:nonzero;fill:rgb(100%,100%,94.117647%);fill-opacity:0.6;" d="M 313.769531 64.78125 C 311.765625 79.460938 217.421875 450.90625 215.292969 464.316406 "/>
<path style=" stroke:none;fill-rule:nonzero;fill:rgb(100%,100%,94.117647%);fill-opacity:0.8;" d="M 211.988281 465.316406 C 218.683594 446.859375 420.308594 73.460938 429.25 51.359375 "/>
<path style=" stroke:none;fill-rule:nonzero;fill:rgb(100%,100%,94.117647%);fill-opacity:0.8;" d="M 429.25 51.359375 C 422.445312 68.273438 219.152344 448.550781 211.988281 465.316406 "/>
<path style=" stroke:none;fill-rule:nonzero;fill:rgb(100%,100%,94.117647%);fill-opacity:0.6;" d="M 212.703125 462.957031 C 228.363281 441.207031 527.886719 110.738281 541.84375 91.429688 "/>
<path style=" stroke:none;fill-rule:nonzero;fill:rgb(100%,100%,94.117647%);fill-opacity:0.5;" d="M 541.84375 91.429688 C 525.429688 114.472656 231.3125 439.707031 212.703125 462.957031 "/>
<path style=" stroke:none;fill-rule:nonzero;fill:rgb(100%,100%,94.117647%);fill-opacity:0.8;" d="M 213.949219 463.820312 C 213.949219 463.820312 213.9375 463.804688 213.9375 463.804688 "/>
<path style=" stroke:none;fill-rule:nonzero;fill:rgb(100%,100%,94.117647%);fill-opacity:0.8;" d="M 213.9375 463.804688 C 227.023438 451.632812 603.8125 196.707031 622.429688 181.84375 "/>
<path style=" stroke:none;fill-rule:nonzero;fill:rgb(100%,100%,94.117647%);fill-opacity:0.4;" d="M 622.429688 181.84375 C 622.429688 181.84375 622.441406 181.859375 622.441406 181.859375 "/>
<path style=" stroke:none;fill-rule:nonzero;fill:rgb(100%,100%,94.117647%);fill-opacity:0.7;" d="M 622.441406 181.859375 C 622.441406 181.859375 622.453125 181.875 622.453125 181.878906 "/>
<path style=" stroke:none;fill-rule:nonzero;fill:rgb(100%,100%,94.117647%);fill-opacity:0.4;" d="M 622.453125 181.878906 C 609.074219 193.722656 236.773438 444.691406 213.960938 463.839844 "/>
<path style=" stroke:none;fill-rule:nonzero;fill:rgb(100%,100%,94.117647%);fill-opacity:0.4;" d="M 213.960938 463.839844 C 213.960938 463.835938 213.949219 463.824219 213.949219 463.820312 "/>
<path style=" stroke:none;fill-rule:nonzero;fill:rgb(100%,100%,94.117647%);fill-opacity:0.6;" d="M 212.292969 467.070312 C 232.316406 456.941406 630.316406 310.101562 649.417969 301.289062 "/>
<path style=" stroke:none;fill-rule:nonzero;fill:rgb(100%,100%,94.117647%);fill-opacity:0.8;" d="M 649.417969 301.289062 C 627.179688 313.234375 236.324219 455.554688 212.292969 467.070312 "/>
<path style=" stroke:none;fill-rule:nonzero;fill:rgb(100%,100%,94.117647%);fill-opacity:0.5;" d="M 156.265625 358.828125 C 155.789062 354.546875 156.714844 245.617188 156.265625 239.171875 "/>
<path style=" stroke:none;fill-rule:nonzero;fill:rgb(100%,100%,94.117647%);fill-opacity:0.4;" d="M 156.265625 239.171875 C 157.019531 245.949219 155.75 352.746094 156.265625 358.828125 "/>
<path style=" stroke:none;fill-rule:nonzero;fill:rgb(100%,100%,94.117647%);fill-opacity:0.4;" d="M 156.773438 357.648438 C 157.792969 346.542969 210.539062 142.332031 212.378906 132.039062 "/>
<path style=" stroke:none;fill-rule:nonzero;fill:rgb(100%,100%,94.117647%);fill-opacity:0.4;" d="M 212.378906 132.039062 C 210.621094 144.460938 158.101562 350.804688 156.773438 357.648438 "/>
<path style=" stroke:none;fill-rule:nonzero;fill:rgb(100%,100%,94.117647%);fill-opacity:0.5;" d="M 155.957031 358.015625 C 161.027344 345.042969 303.359375 78.875 310.042969 64.429688 "/>
<path style=" stroke:none;fill-rule:nonzero;fill:rgb(100%,100%,94.117647%);fill-opacity:0.4;" d="M 310.042969 64.429688 C 306.210938 74.679688 163.300781 340.601562 155.957031 358.015625 "/>
<path style=" stroke:none;fill-rule:nonzero;fill:rgb(100%,100%,94.117647%);fill-opacity:0.9;" d="M 156.429688 357.753906 C 156.429688 357.753906 156.40625 357.730469 156.402344 357.730469 "/>
<path style=" stroke:none;fill-rule:nonzero;fill:rgb(100%,100%,94.117647%);fill-opacity:0.5;" d="M 156.402344 357.730469 C 165.71875 344.660156 414.707031 68.109375 429.273438 49.726562 "/>
<path style=" stroke:none;fill-rule:nonzero;fill:rgb(100%,100%,94.117647%);fill-opacity:0.3;" d="M 429.273438 49.726562 C 429.277344 49.726562 429.300781 49.746094 429.300781 49.746094 "/>
<path style=" stroke:none;fill-rule:nonzero;fill:rgb(100%,100%,94.117647%);fill-opacity:0.3;" d="M 429.300781 49.746094 C 429.300781 49.75 429.324219 49.769531 429.328125 49.769531 "/>
<path style=" stroke:none;fill-rule:nonzero;fill:rgb(100%,100%,94.117647%);fill-opacity:0.4;" d="M 429.328125 49.769531 C 420.46875 63.152344 170.257812 340.363281 156.457031 357.777344 "/>
<path style=" stroke:none;fill-rule:nonzero;fill:rgb(100%,100%,94.117647%);fill-opacity:0.7;" d="M 156.457031 357.777344 C 156.457031 357.777344 156.433594 357.753906 156.429688 357.753906 "/>
<path style=" stroke:none;fill-rule:nonzero;fill:rgb(100%,100%,94.117647%);fill-opacity:0.9;" d="M 159.222656 360.90625 C 175.949219 345.949219 527.859375 108.855469 543.976562 95.332031 "/>
<path style=" stroke:none;fill-rule:nonzero;fill:rgb(100%,100%,94.117647%);fill-opacity:0.5;" d="M 543.976562 95.332031 C 528.089844 109.125 177.410156 345.488281 159.222656 360.90625 "/>
<path style=" stroke:none;fill-rule:nonzero;fill:rgb(100%,100%,94.117647%);fill-opacity:0.5;" d="M 159.488281 360.054688 C 159.488281 360.054688 159.484375 360.039062 159.484375 360.039062 "/>
<path style=" stroke:none;fill-rule:nonzero;fill:rgb(100%,100%,94.117647%);fill-opacity:0.8;" d="M 159.484375 360.039062 C 179.261719 349.664062 600.648438 194.742188 623.582031 184.03125 "/>
<path style=" stroke:none;fill-rule:nonzero;fill:rgb(100%,100%,94.117647%);fill-opacity:0.6;" d="M 623.582031 184.03125 C 623.582031 184.03125 623.589844 184.042969 623.589844 184.046875 "/>
<path style=" stroke:none;fill-rule:nonzero;fill:rgb(100%,100%,94.117647%);fill-opacity:0.9;" d="M 623.589844 184.046875 C 623.589844 184.046875 623.59375 184.058594 623.59375 184.058594 "/>
<path style=" stroke:none;fill-rule:nonzero;fill:rgb(100%,100%,94.117647%);fill-opacity:0.3;" d="M 623.59375 184.058594 C 601.175781 195.820312 175.609375 352.347656 159.496094 360.070312 "/>
<path style=" stroke:none;fill-rule:nonzero;fill:rgb(100%,100%,94.117647%);fill-opacity:0.7;" d="M 159.496094 360.070312 C 159.496094 360.070312 159.488281 360.054688 159.488281 360.054688 "/>
<path style=" stroke:none;fill-rule:nonzero;fill:rgb(100%,100%,94.117647%);fill-opacity:0.8;" d="M 155.160156 359.078125 C 155.160156 359.078125 155.15625 359.066406 155.15625 359.066406 "/>
<path style=" stroke:none;fill-rule:nonzero;fill:rgb(100%,100%,94.117647%);fill-opacity:0.6;" d="M 155.15625 359.066406 C 169.632812 355.578125 621.527344 304.054688 647.894531 299.238281 "/>
<path style=" stroke:none;fill-rule:nonzero;fill:rgb(100%,100%,94.117647%);fill-opacity:0.6;" d="M 647.894531 299.257812 C 626.15625 304.386719 178.53125 354.464844 155.160156 359.089844 "/>
<path style=" stroke:none;fill-rule:nonzero;fill:rgb(100%,100%,94.117647%);fill-opacity:0.8;" d="M 158.105469 242.871094 C 158.105469 242.871094 158.074219 242.855469 158.074219 242.855469 "/>
<path style=" stroke:none;fill-rule:nonzero;fill:rgb(100%,100%,94.117647%);fill-opacity:0.6;" d="M 158.074219 242.855469 C 160.011719 237.832031 212.113281 140.527344 213.683594 136.902344 "/>
<path style=" stroke:none;fill-rule:nonzero;fill:rgb(100%,100%,94.117647%);fill-opacity:0.3;" d="M 213.683594 136.902344 C 213.683594 136.902344 213.710938 136.917969 213.714844 136.917969 "/>
<path style=" stroke:none;fill-rule:nonzero;fill:rgb(100%,100%,94.117647%);fill-opacity:0.9;" d="M 213.714844 136.917969 C 213.714844 136.921875 213.742188 136.933594 213.746094 136.9375 "/>
<path style=" stroke:none;fill-rule:nonzero;fill:rgb(100%,100%,94.117647%);fill-opacity:0.4;" d="M 213.746094 136.9375 C 211.542969 143.011719 159.832031 238.925781 158.136719 242.886719 "/>
<path style=" stroke:none;fill-rule:nonzero;fill:rgb(100%,100%,94.117647%);fill-opacity:0.4;" d="M 158.136719 242.886719 C 158.136719 242.886719 158.109375 242.871094 158.105469 242.871094 "/>
<path style=" stroke:none;fill-rule:nonzero;fill:rgb(100%,100%,94.117647%);fill-opacity:0.4;" d="M 157.84375 238.011719 C 163.785156 229.40625 306.332031 71.214844 311.925781 64.085938 "/>
<path style=" stroke:none;fill-rule:nonzero;fill:rgb(100%,100%,94.117647%);fill-opacity:0.6;" d="M 311.925781 64.085938 C 308.078125 69.898438 162.457031 231.886719 157.84375 238.011719 "/>
<path style=" stroke:none;fill-rule:nonzero;fill:rgb(100%,100%,94.117647%);fill-opacity:0.3;" d="M 155.875 239.917969 C 155.875 239.917969 155.871094 239.914062 155.871094 239.914062 "/>
<path style=" stroke:none;fill-rule:nonzero;fill:rgb(100%,100%,94.117647%);fill-opacity:0.3;" d="M 155.871094 239.914062 C 165.636719 231.4375 418.675781 59.683594 428.742188 51.566406 "/>
<path style=" stroke:none;fill-rule:nonzero;fill:rgb(100%,100%,94.117647%);fill-opacity:0.5;" d="M 428.742188 51.570312 C 418.898438 59.949219 164.425781 233.089844 155.875 239.917969 "/>
<path style=" stroke:none;fill-rule:nonzero;fill:rgb(100%,100%,94.117647%);fill-opacity:0.8;" d="M 158.78125 238.527344 C 158.78125 238.527344 158.773438 238.503906 158.769531 238.503906 "/>
<path style=" stroke:none;fill-rule:nonzero;fill:rgb(100%,100%,94.117647%);fill-opacity:0.8;" d="M 158.769531 238.503906 C 180.289062 226.398438 528.984375 99.378906 543.523438 92.585938 "/>
<path style=" stroke:none;fill-rule:nonzero;fill:rgb(100%,100%,94.117647%);fill-opacity:0.4;" d="M 543.523438 92.585938 C 543.523438 92.585938 543.53125 92.609375 543.53125 92.609375 "/>
<path style=" stroke:none;fill-rule:nonzero;fill:rgb(100%,100%,94.117647%);fill-opacity:0.4;" d="M 543.53125 92.609375 C 543.53125 92.609375 543.539062 92.632812 543.539062 92.632812 "/>
<path style=" stroke:none;fill-rule:nonzero;fill:rgb(100%,100%,94.117647%);fill-opacity:0.3;" d="M 543.539062 92.632812 C 529.476562 100.367188 178.828125 228.949219 158.789062 238.550781 "/>
<path style=" stroke:none;fill-rule:nonzero;fill:rgb(100%,100%,94.117647%);fill-opacity:0.3;" d="M 158.789062 238.550781 C 158.789062 238.550781 158.78125 238.527344 158.78125 238.527344 "/>
<path style=" stroke:none;fill-rule:nonzero;fill:rgb(100%,100%,94.117647%);fill-opacity:0.7;" d="M 158.015625 238.066406 C 185.1875 231.09375 598.660156 185.996094 622.117188 181.714844 "/>
<path style=" stroke:none;fill-rule:nonzero;fill:rgb(100%,100%,94.117647%);fill-opacity:0.3;" d="M 622.117188 181.714844 C 607.171875 185.546875 173.179688 235.21875 158.015625 238.066406 "/>
<path style=" stroke:none;fill-rule:nonzero;fill:rgb(100%,100%,94.117647%);fill-opacity:0.7;" d="M 159.371094 239.417969 C 174.257812 239.714844 637.21875 298.851562 652.105469 299.25 "/>
<path style=" stroke:none;fill-rule:nonzero;fill:rgb(100%,100%,94.117647%);fill-opacity:0.5;" d="M 652.105469 299.25 C 634.238281 298.980469 189.113281 240.945312 159.371094 239.417969 "/>
<path style=" stroke:none;fill-rule:nonzero;fill:rgb(100%,100%,94.117647%);fill-opacity:0.3;" d="M 212.304688 133.394531 C 212.304688 133.394531 212.296875 133.382812 212.296875 133.382812 "/>
<path style=" stroke:none;fill-rule:nonzero;fill:rgb(100%,100%,94.117647%);fill-opacity:0.4;" d="M 212.296875 133.382812 C 214.921875 130.9375 306.890625 68.601562 310.773438 65.410156 "/>
<path style=" stroke:none;fill-rule:nonzero;fill:rgb(100%,100%,94.117647%);fill-opacity:0.4;" d="M 310.773438 65.410156 C 310.773438 65.410156 310.78125 65.421875 310.78125 65.421875 "/>
<path style=" stroke:none;fill-rule:nonzero;fill:rgb(100%,100%,94.117647%);fill-opacity:0.4;" d="M 310.78125 65.421875 C 310.78125 65.421875 310.789062 65.433594 310.789062 65.4375 "/>
<path style=" stroke:none;fill-rule:nonzero;fill:rgb(100%,100%,94.117647%);fill-opacity:0.8;" d="M 310.789062 65.4375 C 307.386719 68.632812 217.136719 129.671875 212.3125 133.410156 "/>
<path style=" stroke:none;fill-rule:nonzero;fill:rgb(100%,100%,94.117647%);fill-opacity:0.4;" d="M 212.3125 133.410156 C 212.3125 133.410156 212.304688 133.398438 212.304688 133.394531 "/>
<path style=" stroke:none;fill-rule:nonzero;fill:rgb(100%,100%,94.117647%);fill-opacity:0.6;" d="M 214.03125 131.640625 C 223.363281 126.917969 423.785156 52.929688 431.296875 49.242188 "/>
<path style=" stroke:none;fill-rule:nonzero;fill:rgb(100%,100%,94.117647%);fill-opacity:0.3;" d="M 431.296875 49.242188 C 422.011719 54.054688 224.183594 127.019531 214.03125 131.640625 "/>
<path style=" stroke:none;fill-rule:nonzero;fill:rgb(100%,100%,94.117647%);fill-opacity:0.7;" d="M 210.644531 132.476562 C 229.8125 127.152344 529.078125 94.738281 539.789062 92.507812 "/>
<path style=" stroke:none;fill-rule:nonzero;fill:rgb(100%,100%,94.117647%);fill-opacity:0.8;" d="M 539.789062 92.507812 C 522.46875 97.046875 223.277344 129.71875 210.644531 132.476562 "/>
<path style=" stroke:none;fill-rule:nonzero;fill:rgb(100%,100%,94.117647%);fill-opacity:0.3;" d="M 211.128906 131.992188 C 211.128906 131.992188 211.132812 131.953125 211.132812 131.953125 "/>
<path style=" stroke:none;fill-rule:nonzero;fill:rgb(100%,100%,94.117647%);fill-opacity:0.7;" d="M 211.132812 131.953125 C 235.824219 131.957031 594.941406 181.015625 619.625 181.554688 "/>
<path style=" stroke:none;fill-rule:nonzero;fill:rgb(100%,100%,94.117647%);fill-opacity:0.5;" d="M 619.625 181.554688 C 619.625 181.554688 619.621094 181.589844 619.621094 181.59375 "/>
<path style=" stroke:none;fill-rule:nonzero;fill:rgb(100%,100%,94.117647%);fill-opacity:0.7;" d="M 619.621094 181.59375 C 619.621094 181.59375 619.613281 181.628906 619.613281 181.632812 "/>
<path style=" stroke:none;fill-rule:nonzero;fill:rgb(100%,100%,94.117647%);fill-opacity:0.4;" d="M 619.613281 181.632812 C 603.570312 181.945312 232.070312 133.3125 211.125 132.03125 "/>
<path style=" stroke:none;fill-rule:nonzero;fill:rgb(100%,100%,94.117647%);fill-opacity:0.5;" d="M 211.125 132.03125 C 211.125 132.03125 211.128906 131.996094 211.128906 131.992188 "/>
<path style=" stroke:none;fill-rule:nonzero;fill:rgb(100%,100%,94.117647%);fill-opacity:0.9;" d="M 213.453125 135.503906 C 231.277344 139.347656 634.375 296.742188 650.582031 301.285156 "/>
<path style=" stroke:none;fill-rule:nonzero;fill:rgb(100%,100%,94.117647%);fill-opacity:0.7;" d="M 650.582031 301.289062 C 650.582031 301.289062 650.578125 301.296875 650.578125 301.296875 "/>
<path style=" stroke:none;fill-rule:nonzero;fill:rgb(100%,100%,94.117647%);fill-opacity:0.5;" d="M 650.578125 301.296875 C 635.675781 297.308594 232.277344 141.089844 213.449219 135.515625 "/>
<path style=" stroke:none;fill-rule:nonzero;fill:rgb(100%,100%,94.117647%);fill-opacity:0.3;" d="M 213.449219 135.515625 C 213.449219 135.515625 213.453125 135.507812 213.453125 135.507812 "/>
<path style=" stroke:none;fill-rule:nonzero;fill:rgb(100%,100%,94.117647%);fill-opacity:0.5;" d="M 311.226562 65.253906 C 311.226562 65.25 311.222656 65.207031 311.222656 65.203125 "/>
<path style=" stroke:none;fill-rule:nonzero;fill:rgb(100%,100%,94.117647%);fill-opacity:0.7;" d="M 311.222656 65.203125 C 316.070312 63.882812 426.480469 51.441406 430.007812 50.78125 "/>
<path style=" stroke:none;fill-rule:nonzero;fill:rgb(100%,100%,94.117647%);fill-opacity:0.8;" d="M 430.007812 50.78125 C 430.007812 50.78125 430.011719 50.828125 430.011719 50.828125 "/>
<path style=" stroke:none;fill-rule:nonzero;fill:rgb(100%,100%,94.117647%);fill-opacity:0.3;" d="M 430.011719 50.828125 C 430.015625 50.832031 430.019531 50.878906 430.019531 50.878906 "/>
<path style=" stroke:none;fill-rule:nonzero;fill:rgb(100%,100%,94.117647%);fill-opacity:0.8;" d="M 430.019531 50.878906 C 423.367188 52.378906 317.578125 64.078125 311.234375 65.304688 "/>
<path style=" stroke:none;fill-rule:nonzero;fill:rgb(100%,100%,94.117647%);fill-opacity:0.3;" d="M 311.234375 65.304688 C 311.234375 65.300781 311.230469 65.253906 311.226562 65.253906 "/>
<path style=" stroke:none;fill-rule:nonzero;fill:rgb(100%,100%,94.117647%);fill-opacity:0.9;" d="M 310.355469 66.125 C 320.808594 65.820312 527.804688 93.324219 541.023438 94.132812 "/>
<path style=" stroke:none;fill-rule:nonzero;fill:rgb(100%,100%,94.117647%);fill-opacity:0.7;" d="M 541.023438 94.132812 C 527.082031 94.199219 322.179688 66.90625 310.355469 66.125 "/>
<path style=" stroke:none;fill-rule:nonzero;fill:rgb(100%,100%,94.117647%);fill-opacity:0.7;" d="M 313.21875 66.957031 C 326.816406 69.957031 608.949219 180.21875 623.234375 184.527344 "/>
<path style=" stroke:none;fill-rule:nonzero;fill:rgb(100%,100%,94.117647%);fill-opacity:0.5;" d="M 623.234375 184.527344 C 609.730469 181.125 323.695312 70.113281 313.21875 66.957031 "/>
<path style=" stroke:none;fill-rule:nonzero;fill:rgb(100%,100%,94.117647%);fill-opacity:0.5;" d="M 312.738281 65.992188 C 312.742188 65.988281 312.75 65.980469 312.75 65.976562 "/>
<path style=" stroke:none;fill-rule:nonzero;fill:rgb(100%,100%,94.117647%);fill-opacity:0.9;" d="M 312.75 65.976562 C 329.226562 74.425781 634.257812 289.921875 651.398438 299.730469 "/>
<path style=" stroke:none;fill-rule:nonzero;fill:rgb(100%,100%,94.117647%);fill-opacity:0.7;" d="M 651.398438 299.730469 C 651.398438 299.734375 651.390625 299.746094 651.390625 299.746094 "/>
<path style=" stroke:none;fill-rule:nonzero;fill:rgb(100%,100%,94.117647%);fill-opacity:0.4;" d="M 651.390625 299.746094 C 651.390625 299.746094 651.382812 299.757812 651.382812 299.757812 "/>
<path style=" stroke:none;fill-rule:nonzero;fill:rgb(100%,100%,94.117647%);fill-opacity:0.5;" d="M 651.382812 299.757812 C 636.082031 291.722656 323.503906 72.03125 312.730469 66.003906 "/>
<path style=" stroke:none;fill-rule:nonzero;fill:rgb(100%,100%,94.117647%);fill-opacity:0.8;" d="M 312.730469 66.003906 C 312.730469 66.003906 312.738281 65.992188 312.738281 65.992188 "/>
<path style=" stroke:none;fill-rule:nonzero;fill:rgb(100%,100%,94.117647%);fill-opacity:0.9;" d="M 428.488281 53.339844 C 432.328125 54.265625 535.574219 94.269531 540.371094 95.769531 "/>
<path style=" stroke:none;fill-rule:nonzero;fill:rgb(100%,100%,94.117647%);fill-opacity:0.5;" d="M 540.371094 95.769531 C 535.164062 94.402344 434.980469 55.433594 428.488281 53.339844 "/>
<path style=" stroke:none;fill-rule:nonzero;fill:rgb(100%,100%,94.117647%);fill-opacity:0.4;" d="M 432.09375 50.746094 C 432.09375 50.742188 432.109375 50.722656 432.109375 50.71875 "/>
<path style=" stroke:none;fill-rule:nonzero;fill:rgb(100%,100%,94.117647%);fill-opacity:0.8;" d="M 432.109375 50.71875 C 438.375 53.777344 614.847656 177.910156 623.339844 182.714844 "/>
<path style=" stroke:none;fill-rule:nonzero;fill:rgb(100%,100%,94.117647%);fill-opacity:0.6;" d="M 623.339844 182.714844 C 623.339844 182.71875 623.324219 182.742188 623.324219 182.742188 "/>
<path style=" stroke:none;fill-rule:nonzero;fill:rgb(100%,100%,94.117647%);fill-opacity:0.5;" d="M 623.324219 182.742188 C 623.324219 182.742188 623.308594 182.765625 623.304688 182.765625 "/>
<path style=" stroke:none;fill-rule:nonzero;fill:rgb(100%,100%,94.117647%);fill-opacity:0.6;" d="M 623.304688 182.765625 C 611.671875 176.4375 439.875 55.386719 432.074219 50.769531 "/>
<path style=" stroke:none;fill-rule:nonzero;fill:rgb(100%,100%,94.117647%);fill-opacity:0.3;" d="M 432.074219 50.769531 C 432.078125 50.769531 432.09375 50.746094 432.09375 50.746094 "/>
<path style=" stroke:none;fill-rule:nonzero;fill:rgb(100%,100%,94.117647%);fill-opacity:0.8;" d="M 430.046875 53.234375 C 430.050781 53.234375 430.085938 53.203125 430.085938 53.203125 "/>
<path style=" stroke:none;fill-rule:nonzero;fill:rgb(100%,100%,94.117647%);fill-opacity:0.8;" d="M 430.085938 53.203125 C 444.777344 66.613281 641.515625 292.933594 649.953125 301.378906 "/>
<path style=" stroke:none;fill-rule:nonzero;fill:rgb(100%,100%,94.117647%);fill-opacity:0.3;" d="M 649.953125 301.378906 C 649.949219 301.378906 649.917969 301.410156 649.914062 301.410156 "/>
<path style=" stroke:none;fill-rule:nonzero;fill:rgb(100%,100%,94.117647%);fill-opacity:0.4;" d="M 649.914062 301.410156 C 649.914062 301.414062 649.878906 301.445312 649.878906 301.445312 "/>
<path style=" stroke:none;fill-rule:nonzero;fill:rgb(100%,100%,94.117647%);fill-opacity:0.7;" d="M 649.878906 301.445312 C 637.167969 290.289062 444.207031 67.203125 430.011719 53.265625 "/>
<path style=" stroke:none;fill-rule:nonzero;fill:rgb(100%,100%,94.117647%);fill-opacity:0.5;" d="M 430.011719 53.265625 C 430.011719 53.265625 430.046875 53.234375 430.046875 53.234375 "/>
<path style=" stroke:none;fill-rule:nonzero;fill:rgb(100%,100%,94.117647%);fill-opacity:0.9;" d="M 542.765625 93.589844 C 542.765625 93.589844 542.800781 93.558594 542.800781 93.558594 "/>
<path style=" stroke:none;fill-rule:nonzero;fill:rgb(100%,100%,94.117647%);fill-opacity:0.6;" d="M 542.800781 93.558594 C 548.105469 98.398438 619.277344 180.414062 622.148438 183.121094 "/>
<path style=" stroke:none;fill-rule:nonzero;fill:rgb(100%,100%,94.117647%);fill-opacity:0.5;" d="M 622.148438 183.121094 C 622.148438 183.125 622.113281 183.15625 622.113281 183.15625 "/>
<path style=" stroke:none;fill-rule:nonzero;fill:rgb(100%,100%,94.117647%);fill-opacity:0.5;" d="M 622.113281 183.15625 C 622.109375 183.15625 622.078125 183.1875 622.074219 183.1875 "/>
<path style=" stroke:none;fill-rule:nonzero;fill:rgb(100%,100%,94.117647%);fill-opacity:0.8;" d="M 622.074219 183.1875 C 617.15625 179 545.816406 96.625 542.726562 93.625 "/>
<path style=" stroke:none;fill-rule:nonzero;fill:rgb(100%,100%,94.117647%);fill-opacity:0.8;" d="M 542.726562 93.625 C 542.730469 93.621094 542.761719 93.59375 542.765625 93.589844 "/>
<path style=" stroke:none;fill-rule:nonzero;fill:rgb(100%,100%,94.117647%);fill-opacity:0.3;" d="M 542.902344 93.789062 C 550.179688 104.011719 643.875 288.296875 650.886719 299.535156 "/>
<path style=" stroke:none;fill-rule:nonzero;fill:rgb(100%,100%,94.117647%);fill-opacity:0.8;" d="M 650.886719 299.535156 C 645.933594 292.792969 547.363281 100.863281 542.902344 93.789062 "/>
<path style=" stroke:none;fill-rule:nonzero;fill:rgb(100%,100%,94.117647%);fill-opacity:0.5;" d="M 618.945312 182.355469 C 618.945312 182.355469 618.976562 182.347656 618.976562 182.347656 "/>
<path style=" stroke:none;fill-rule:nonzero;fill:rgb(100%,100%,94.117647%);fill-opacity:0.6;" d="M 618.976562 182.347656 C 620.859375 187.390625 645.933594 293.792969 647.613281 298.527344 "/>
<path style=" stroke:none;fill-rule:nonzero;fill:rgb(100%,100%,94.117647%);fill-opacity:0.9;" d="M 647.613281 298.527344 C 647.613281 298.527344 647.582031 298.535156 647.578125 298.535156 "/>
<path style=" stroke:none;fill-rule:nonzero;fill:rgb(100%,100%,94.117647%);fill-opacity:0.6;" d="M 647.578125 298.535156 C 647.578125 298.539062 647.546875 298.542969 647.546875 298.546875 "/>
<path style=" stroke:none;fill-rule:nonzero;fill:rgb(100%,100%,94.117647%);fill-opacity:0.9;" d="M 647.546875 298.546875 C 645.515625 293.558594 620.542969 187.117188 618.910156 182.363281 "/>
<path style=" stroke:none;fill-rule:nonzero;fill:rgb(100%,100%,94.117647%);fill-opacity:0.4;" d="M 618.910156 182.363281 C 618.910156 182.363281 618.941406 182.355469 618.945312 182.355469 "/>
</g>
</svg>
