<?xml version="1.0" encoding="UTF-8"?>
<svg xmlns="http://www.w3.org/2000/svg" xmlns:xlink="http://www.w3.org/1999/xlink" width="800pt" height="200pt" viewBox="0 0 800 200" version="1.1">
<defs>
<g>
<symbol overflow="visible" id="glyphONEHNRsughur0-0">
<path style="stroke:none;" d="M 1.289062 0 L 1.289062 -52.929688 L 55.898438 -52.929688 L 55.898438 0 Z M 48.710938 -7.1875 L 48.710938 -45.742188 L 8.476562 -45.742188 L 8.476562 -7.1875 Z M 48.710938 -7.1875 "/>
</symbol>
<symbol overflow="visible" id="glyphONEHNRsughur0-1">
<path style="stroke:none;" d="M 23.671875 -53.671875 C 23.777344 -53.542969 23.835938 -53.445312 23.847656 -53.378906 C 23.859375 -53.3125 23.867188 -53.164062 23.867188 -52.929688 L 23.867188 -5.898438 C 23.867188 -3.894531 24.402344 -2.617188 25.46875 -2.070312 C 26.535156 -1.523438 28.527344 -1.199219 31.445312 -1.09375 L 31.445312 0 L 9.414062 0 L 9.414062 -1.171875 C 12.566406 -1.328125 14.621094 -1.757812 15.585938 -2.460938 C 16.550781 -3.164062 17.03125 -4.6875 17.03125 -7.03125 L 17.03125 -43.203125 C 17.03125 -44.453125 16.875 -45.402344 16.5625 -46.054688 C 16.25 -46.707031 15.574219 -47.03125 14.53125 -47.03125 C 13.855469 -47.03125 12.976562 -46.84375 11.894531 -46.464844 C 10.8125 -46.085938 9.804688 -45.691406 8.867188 -45.273438 L 8.867188 -46.367188 L 23.203125 -53.671875 Z M 23.671875 -53.671875 "/>
</symbol>
<symbol overflow="visible" id="glyphONEHNRsughur0-2">
<g>
</g>
</symbol>
<symbol overflow="visible" id="glyphONEHNRsughur0-3">
<path style="stroke:none;" d="M 41.757812 -4.882812 L 37.851562 -1.015625 L 22.460938 -16.289062 L 7.1875 -1.015625 L 3.320312 -4.882812 L 18.59375 -20.273438 L 3.320312 -35.546875 L 7.1875 -39.414062 L 22.460938 -24.140625 L 37.851562 -39.414062 L 41.757812 -35.546875 L 26.367188 -20.273438 Z M 41.757812 -4.882812 "/>
</symbol>
<symbol overflow="visible" id="glyphONEHNRsughur0-4">
<path style="stroke:none;" d="M 2.382812 -22.929688 L 42.773438 -22.929688 L 42.773438 -17.460938 L 2.382812 -17.460938 Z M 2.382812 -22.929688 "/>
</symbol>
<symbol overflow="visible" id="glyphONEHNRsughur0-5">
<path style="stroke:none;" d="M 2.382812 -0.898438 C 11.914062 -10.792969 18.386719 -18.058594 21.796875 -22.695312 C 25.207031 -27.332031 26.914062 -31.847656 26.914062 -36.25 C 26.914062 -40.105469 25.871094 -43.039062 23.789062 -45.058594 C 21.707031 -47.078125 19.21875 -48.085938 16.328125 -48.085938 C 12.761719 -48.085938 9.871094 -46.785156 7.65625 -44.179688 C 6.433594 -42.746094 5.261719 -40.546875 4.140625 -37.578125 L 2.460938 -37.929688 C 3.761719 -43.917969 5.96875 -48.078125 9.082031 -50.410156 C 12.195312 -52.742188 15.535156 -53.90625 19.101562 -53.90625 C 23.503906 -53.90625 27.0625 -52.519531 29.785156 -49.746094 C 32.507812 -46.972656 33.867188 -43.582031 33.867188 -39.570312 C 33.867188 -35.300781 32.394531 -31.183594 29.453125 -27.226562 C 26.511719 -23.269531 20.117188 -16.222656 10.273438 -6.09375 L 28.203125 -6.09375 C 30.703125 -6.09375 32.460938 -6.394531 33.476562 -6.992188 C 34.492188 -7.589844 35.636719 -9.050781 36.914062 -11.367188 L 37.929688 -10.898438 L 33.59375 0 L 2.382812 0 Z M 2.382812 -0.898438 "/>
</symbol>
<symbol overflow="visible" id="glyphONEHNRsughur0-6">
<path style="stroke:none;" d="M 42.773438 -14.882812 L 42.773438 -9.414062 L 2.382812 -9.414062 L 2.382812 -14.882812 Z M 42.773438 -31.015625 L 42.773438 -25.546875 L 2.382812 -25.546875 L 2.382812 -31.015625 Z M 42.773438 -31.015625 "/>
</symbol>
<symbol overflow="visible" id="glyphONEHNRsughur0-7">
<path style="stroke:none;" d="M 23.320312 -45.625 L 4.140625 -18.515625 L 23.320312 -18.515625 Z M 25.898438 -53.671875 L 29.609375 -53.671875 L 29.609375 -18.515625 L 37.773438 -18.515625 L 37.773438 -13.320312 L 29.609375 -13.320312 L 29.609375 0 L 23.398438 0 L 23.398438 -13.320312 L 0.898438 -13.320312 L 0.898438 -18.515625 Z M 25.898438 -53.671875 "/>
</symbol>
<symbol overflow="visible" id="glyphONEHNRsughur0-8">
<path style="stroke:none;" d="M 22.03125 -10.15625 C 23.230469 -10.15625 24.25 -9.726562 25.097656 -8.867188 C 25.945312 -8.007812 26.367188 -6.992188 26.367188 -5.820312 C 26.367188 -4.621094 25.945312 -3.59375 25.097656 -2.734375 C 24.25 -1.875 23.230469 -1.445312 22.03125 -1.445312 C 20.832031 -1.445312 19.804688 -1.875 18.945312 -2.734375 C 18.085938 -3.59375 17.65625 -4.621094 17.65625 -5.820312 C 17.65625 -6.992188 18.078125 -8.007812 18.925781 -8.867188 C 19.773438 -9.726562 20.808594 -10.15625 22.03125 -10.15625 Z M 42.1875 -22.929688 L 42.1875 -17.460938 L 1.835938 -17.460938 L 1.835938 -22.929688 Z M 22.03125 -38.945312 C 23.230469 -38.945312 24.25 -38.515625 25.097656 -37.65625 C 25.945312 -36.796875 26.367188 -35.78125 26.367188 -34.609375 C 26.367188 -33.410156 25.945312 -32.390625 25.097656 -31.542969 C 24.25 -30.695312 23.230469 -30.273438 22.03125 -30.273438 C 20.808594 -30.273438 19.773438 -30.695312 18.925781 -31.542969 C 18.078125 -32.390625 17.65625 -33.410156 17.65625 -34.609375 C 17.65625 -35.78125 18.078125 -36.796875 18.925781 -37.65625 C 19.773438 -38.515625 20.808594 -38.945312 22.03125 -38.945312 Z M 22.03125 -38.945312 "/>
</symbol>
</g>
</defs>
<g id="surface218">
<rect x="0" y="0" width="800" height="200" style="fill:rgb(92.941176%,92.941176%,92.941176%);fill-opacity:1;stroke:none;"/>
<g style="fill:rgb(0%,0%,0%);fill-opacity:1;">
  <use xlink:href="#glyphONEHNRsughur0-1" x="125.253906" y="140"/>
  <use xlink:href="#glyphONEHNRsughur0-2" x="165.253906" y="140"/>
  <use xlink:href="#glyphONEHNRsughur0-3" x="185.253906" y="140"/>
  <use xlink:href="#glyphONEHNRsughur0-2" x="230.371094" y="140"/>
  <use xlink:href="#glyphONEHNRsughur0-4" x="250.371094" y="140"/>
  <use xlink:href="#glyphONEHNRsughur0-5" x="295.488281" y="140"/>
  <use xlink:href="#glyphONEHNRsughur0-2" x="335.488281" y="140"/>
  <use xlink:href="#glyphONEHNRsughur0-6" x="355.488281" y="140"/>
  <use xlink:href="#glyphONEHNRsughur0-6" x="400.605469" y="140"/>
  <use xlink:href="#glyphONEHNRsughur0-2" x="445.722656" y="140"/>
  <use xlink:href="#glyphONEHNRsughur0-4" x="465.722656" y="140"/>
  <use xlink:href="#glyphONEHNRsughur0-7" x="510.839844" y="140"/>
  <use xlink:href="#glyphONEHNRsughur0-2" x="550.839844" y="140"/>
  <use xlink:href="#glyphONEHNRsughur0-8" x="570.839844" y="140"/>
  <use xlink:href="#glyphONEHNRsughur0-2" x="614.746094" y="140"/>
  <use xlink:href="#glyphONEHNRsughur0-5" x="634.746094" y="140"/>
</g>
</g>
</svg>
