<?xml version="1.0" encoding="UTF-8"?>
<svg xmlns="http://www.w3.org/2000/svg" xmlns:xlink="http://www.w3.org/1999/xlink" width="300pt" height="300pt" viewBox="0 0 300 300" version="1.1">
<g id="surface1046">
<rect x="0" y="0" width="300" height="300" style="fill:rgb(100%,100%,100%);fill-opacity:1;stroke:none;"/>
<path style=" stroke:none;fill-rule:nonzero;fill:rgb(30.196078%,30.196078%,30.196078%);fill-opacity:1;" d="M 292.589844 150 L 292.546875 260.546875 L 292.414062 268.445312 L 292.191406 273.285156 L 291.875 276.789062 L 291.464844 279.53125 L 290.953125 281.761719 L 290.335938 283.628906 L 289.601562 285.210938 L 288.738281 286.566406 L 287.734375 287.734375 L 286.566406 288.738281 L 285.210938 289.601562 L 283.628906 290.335938 L 281.761719 290.953125 L 279.53125 291.464844 L 276.789062 291.875 L 273.285156 292.191406 L 268.445312 292.414062 L 260.546875 292.546875 L 153.410156 292.589844 L 39.453125 292.546875 L 31.554688 292.414062 L 26.714844 292.191406 L 23.210938 291.875 L 20.46875 291.464844 L 18.238281 290.953125 L 16.371094 290.335938 L 14.789062 289.601562 L 13.433594 288.738281 L 12.265625 287.734375 L 11.261719 286.566406 L 10.398438 285.210938 L 9.664062 283.628906 L 9.046875 281.761719 L 8.535156 279.53125 L 8.125 276.789062 L 7.808594 273.285156 L 7.585938 268.445312 L 7.453125 260.546875 L 7.410156 153.65625 L 7.453125 39.453125 L 7.585938 31.554688 L 7.808594 26.714844 L 8.125 23.210938 L 8.535156 20.46875 L 9.046875 18.238281 L 9.664062 16.371094 L 10.398438 14.789062 L 11.261719 13.433594 L 12.265625 12.265625 L 13.433594 11.261719 L 14.789062 10.398438 L 16.371094 9.664062 L 18.238281 9.046875 L 20.46875 8.535156 L 23.210938 8.125 L 26.714844 7.808594 L 31.554688 7.585938 L 39.453125 7.453125 L 146.195312 7.410156 L 260.546875 7.453125 L 268.445312 7.585938 L 273.285156 7.808594 L 276.789062 8.125 L 279.53125 8.535156 L 281.761719 9.046875 L 283.628906 9.664062 L 285.210938 10.398438 L 286.566406 11.261719 L 287.734375 12.265625 L 288.738281 13.433594 L 289.601562 14.789062 L 290.335938 16.371094 L 290.953125 18.238281 L 291.464844 20.46875 L 291.875 23.210938 L 292.191406 26.714844 L 292.414062 31.554688 L 292.546875 39.453125 L 292.589844 146.082031 Z M 32.144531 20.503906 L 32.144531 15.65625 L 27.296875 15.65625 L 27.296875 20.503906 Z M 52.515625 20.503906 L 52.515625 15.65625 L 47.664062 15.65625 L 47.664062 20.503906 Z M 72.886719 20.503906 L 72.886719 15.65625 L 68.035156 15.65625 L 68.035156 20.503906 Z M 86.464844 20.503906 L 86.464844 15.65625 L 81.613281 15.65625 L 81.613281 20.503906 Z M 93.253906 20.503906 L 93.253906 15.65625 L 88.40625 15.65625 L 88.40625 20.503906 Z M 113.625 20.503906 L 113.625 15.65625 L 108.773438 15.65625 L 108.773438 20.503906 Z M 120.414062 20.503906 L 120.414062 15.65625 L 115.566406 15.65625 L 115.566406 20.503906 Z M 127.203125 20.503906 L 127.203125 15.65625 L 122.355469 15.65625 L 122.355469 20.503906 Z M 147.574219 20.503906 L 147.574219 15.65625 L 142.726562 15.65625 L 142.726562 20.503906 Z M 161.15625 20.503906 L 161.15625 15.65625 L 156.304688 15.65625 L 156.304688 20.503906 Z M 167.945312 20.503906 L 167.945312 15.65625 L 163.09375 15.65625 L 163.09375 20.503906 Z M 174.734375 20.503906 L 174.734375 15.65625 L 169.886719 15.65625 L 169.886719 20.503906 Z M 201.894531 20.503906 L 201.894531 15.65625 L 197.046875 15.65625 L 197.046875 20.503906 Z M 208.683594 20.503906 L 208.683594 15.65625 L 203.835938 15.65625 L 203.835938 20.503906 Z M 215.476562 20.503906 L 215.476562 15.65625 L 210.625 15.65625 L 210.625 20.503906 Z M 222.265625 20.503906 L 222.265625 15.65625 L 217.414062 15.65625 L 217.414062 20.503906 Z M 229.054688 20.503906 L 229.054688 15.65625 L 224.203125 15.65625 L 224.203125 20.503906 Z M 235.84375 20.503906 L 235.84375 15.65625 L 230.996094 15.65625 L 230.996094 20.503906 Z M 242.636719 20.503906 L 242.636719 15.65625 L 237.785156 15.65625 L 237.785156 20.503906 Z M 256.214844 20.503906 L 256.214844 15.65625 L 251.363281 15.65625 L 251.363281 20.503906 Z M 276.585938 20.503906 L 276.585938 15.65625 L 271.734375 15.65625 L 271.734375 20.503906 Z M 283.375 20.503906 L 283.375 15.65625 L 278.523438 15.65625 L 278.523438 20.503906 Z M 25.355469 27.296875 L 25.355469 22.445312 L 20.503906 22.445312 L 20.503906 27.296875 Z M 32.144531 27.296875 L 32.144531 22.445312 L 27.296875 22.445312 L 27.296875 27.296875 Z M 45.726562 27.296875 L 45.726562 22.445312 L 40.875 22.445312 L 40.875 27.296875 Z M 52.515625 27.296875 L 52.515625 22.445312 L 47.664062 22.445312 L 47.664062 27.296875 Z M 66.09375 27.296875 L 66.09375 22.445312 L 61.246094 22.445312 L 61.246094 27.296875 Z M 72.886719 27.296875 L 72.886719 22.445312 L 68.035156 22.445312 L 68.035156 27.296875 Z M 79.675781 27.296875 L 79.675781 22.445312 L 74.824219 22.445312 L 74.824219 27.296875 Z M 86.464844 27.296875 L 86.464844 22.445312 L 81.613281 22.445312 L 81.613281 27.296875 Z M 93.253906 27.296875 L 93.253906 22.445312 L 88.40625 22.445312 L 88.40625 27.296875 Z M 106.835938 27.296875 L 106.835938 22.445312 L 101.984375 22.445312 L 101.984375 27.296875 Z M 113.625 27.296875 L 113.625 22.445312 L 108.773438 22.445312 L 108.773438 27.296875 Z M 127.203125 27.296875 L 127.203125 22.445312 L 122.355469 22.445312 L 122.355469 27.296875 Z M 140.785156 27.296875 L 140.785156 22.445312 L 135.933594 22.445312 L 135.933594 27.296875 Z M 147.574219 27.296875 L 147.574219 22.445312 L 142.726562 22.445312 L 142.726562 27.296875 Z M 154.363281 27.296875 L 154.363281 22.445312 L 149.515625 22.445312 L 149.515625 27.296875 Z M 161.15625 27.296875 L 161.15625 22.445312 L 156.304688 22.445312 L 156.304688 27.296875 Z M 174.734375 27.296875 L 174.734375 22.445312 L 169.886719 22.445312 L 169.886719 27.296875 Z M 195.105469 27.296875 L 195.105469 22.445312 L 190.253906 22.445312 L 190.253906 27.296875 Z M 201.894531 27.296875 L 201.894531 22.445312 L 197.046875 22.445312 L 197.046875 27.296875 Z M 242.636719 27.296875 L 242.636719 22.445312 L 237.785156 22.445312 L 237.785156 27.296875 Z M 249.425781 27.296875 L 249.425781 22.445312 L 244.574219 22.445312 L 244.574219 27.296875 Z M 256.214844 27.296875 L 256.214844 22.445312 L 251.363281 22.445312 L 251.363281 27.296875 Z M 269.796875 27.296875 L 269.796875 22.445312 L 264.945312 22.445312 L 264.945312 27.296875 Z M 276.585938 27.296875 L 276.585938 22.445312 L 271.734375 22.445312 L 271.734375 27.296875 Z M 283.375 27.296875 L 283.375 22.445312 L 278.523438 22.445312 L 278.523438 27.296875 Z M 18.566406 34.085938 L 18.566406 29.234375 L 13.714844 29.234375 L 13.714844 34.085938 Z M 25.355469 34.085938 L 25.355469 29.234375 L 20.503906 29.234375 L 20.503906 34.085938 Z M 32.144531 34.085938 L 32.144531 29.234375 L 27.296875 29.234375 L 27.296875 34.085938 Z M 38.933594 34.085938 L 38.933594 29.234375 L 34.085938 29.234375 L 34.085938 34.085938 Z M 45.726562 34.085938 L 45.726562 29.234375 L 40.875 29.234375 L 40.875 34.085938 Z M 52.515625 34.085938 L 52.515625 29.234375 L 47.664062 29.234375 L 47.664062 34.085938 Z M 59.304688 34.085938 L 59.304688 29.234375 L 54.453125 29.234375 L 54.453125 34.085938 Z M 66.09375 34.085938 L 66.09375 29.234375 L 61.246094 29.234375 L 61.246094 34.085938 Z M 93.253906 34.085938 L 93.253906 29.234375 L 88.40625 29.234375 L 88.40625 34.085938 Z M 100.046875 34.085938 L 100.046875 29.234375 L 95.195312 29.234375 L 95.195312 34.085938 Z M 106.835938 34.085938 L 106.835938 29.234375 L 101.984375 29.234375 L 101.984375 34.085938 Z M 113.625 34.085938 L 113.625 29.234375 L 108.773438 29.234375 L 108.773438 34.085938 Z M 120.414062 34.085938 L 120.414062 29.234375 L 115.566406 29.234375 L 115.566406 34.085938 Z M 127.203125 34.085938 L 127.203125 29.234375 L 122.355469 29.234375 L 122.355469 34.085938 Z M 133.996094 34.085938 L 133.996094 29.234375 L 129.144531 29.234375 L 129.144531 34.085938 Z M 140.785156 34.085938 L 140.785156 29.234375 L 135.933594 29.234375 L 135.933594 34.085938 Z M 161.15625 34.085938 L 161.15625 29.234375 L 156.304688 29.234375 L 156.304688 34.085938 Z M 167.945312 34.085938 L 167.945312 29.234375 L 163.09375 29.234375 L 163.09375 34.085938 Z M 174.734375 34.085938 L 174.734375 29.234375 L 169.886719 29.234375 L 169.886719 34.085938 Z M 188.316406 34.085938 L 188.316406 29.234375 L 183.464844 29.234375 L 183.464844 34.085938 Z M 195.105469 34.085938 L 195.105469 29.234375 L 190.253906 29.234375 L 190.253906 34.085938 Z M 201.894531 34.085938 L 201.894531 29.234375 L 197.046875 29.234375 L 197.046875 34.085938 Z M 235.84375 34.085938 L 235.84375 29.234375 L 230.996094 29.234375 L 230.996094 34.085938 Z M 242.636719 34.085938 L 242.636719 29.234375 L 237.785156 29.234375 L 237.785156 34.085938 Z M 256.214844 34.085938 L 256.214844 29.234375 L 251.363281 29.234375 L 251.363281 34.085938 Z M 263.003906 34.085938 L 263.003906 29.234375 L 258.15625 29.234375 L 258.15625 34.085938 Z M 269.796875 34.085938 L 269.796875 29.234375 L 264.945312 29.234375 L 264.945312 34.085938 Z M 283.375 34.085938 L 283.375 29.234375 L 278.523438 29.234375 L 278.523438 34.085938 Z M 66.09375 40.875 L 66.09375 36.023438 L 61.246094 36.023438 L 61.246094 40.875 Z M 86.464844 40.875 L 86.464844 36.023438 L 81.613281 36.023438 L 81.613281 40.875 Z M 93.253906 40.875 L 93.253906 36.023438 L 88.40625 36.023438 L 88.40625 40.875 Z M 140.785156 40.875 L 140.785156 36.023438 L 135.933594 36.023438 L 135.933594 40.875 Z M 154.363281 40.875 L 154.363281 36.023438 L 149.515625 36.023438 L 149.515625 40.875 Z M 161.15625 40.875 L 161.15625 36.023438 L 156.304688 36.023438 L 156.304688 40.875 Z M 174.734375 40.875 L 174.734375 36.023438 L 169.886719 36.023438 L 169.886719 40.875 Z M 181.523438 40.875 L 181.523438 36.023438 L 176.675781 36.023438 L 176.675781 40.875 Z M 188.316406 40.875 L 188.316406 36.023438 L 183.464844 36.023438 L 183.464844 40.875 Z M 201.894531 40.875 L 201.894531 36.023438 L 197.046875 36.023438 L 197.046875 40.875 Z M 229.054688 40.875 L 229.054688 36.023438 L 224.203125 36.023438 L 224.203125 40.875 Z M 235.84375 40.875 L 235.84375 36.023438 L 230.996094 36.023438 L 230.996094 40.875 Z M 242.636719 40.875 L 242.636719 36.023438 L 237.785156 36.023438 L 237.785156 40.875 Z M 249.425781 40.875 L 249.425781 36.023438 L 244.574219 36.023438 L 244.574219 40.875 Z M 256.214844 40.875 L 256.214844 36.023438 L 251.363281 36.023438 L 251.363281 40.875 Z M 269.796875 40.875 L 269.796875 36.023438 L 264.945312 36.023438 L 264.945312 40.875 Z M 276.585938 40.875 L 276.585938 36.023438 L 271.734375 36.023438 L 271.734375 40.875 Z M 283.375 40.875 L 283.375 36.023438 L 278.523438 36.023438 L 278.523438 40.875 Z M 59.304688 47.664062 L 59.304688 42.816406 L 54.453125 42.816406 L 54.453125 47.664062 Z M 66.09375 47.664062 L 66.09375 42.816406 L 61.246094 42.816406 L 61.246094 47.664062 Z M 79.675781 47.664062 L 79.675781 42.816406 L 74.824219 42.816406 L 74.824219 47.664062 Z M 86.464844 47.664062 L 86.464844 42.816406 L 81.613281 42.816406 L 81.613281 47.664062 Z M 93.253906 47.664062 L 93.253906 42.816406 L 88.40625 42.816406 L 88.40625 47.664062 Z M 133.996094 47.664062 L 133.996094 42.816406 L 129.144531 42.816406 L 129.144531 47.664062 Z M 140.785156 47.664062 L 140.785156 42.816406 L 135.933594 42.816406 L 135.933594 47.664062 Z M 147.574219 47.664062 L 147.574219 42.816406 L 142.726562 42.816406 L 142.726562 47.664062 Z M 154.363281 47.664062 L 154.363281 42.816406 L 149.515625 42.816406 L 149.515625 47.664062 Z M 161.15625 47.664062 L 161.15625 42.816406 L 156.304688 42.816406 L 156.304688 47.664062 Z M 167.945312 47.664062 L 167.945312 42.816406 L 163.09375 42.816406 L 163.09375 47.664062 Z M 174.734375 47.664062 L 174.734375 42.816406 L 169.886719 42.816406 L 169.886719 47.664062 Z M 188.316406 47.664062 L 188.316406 42.816406 L 183.464844 42.816406 L 183.464844 47.664062 Z M 195.105469 47.664062 L 195.105469 42.816406 L 190.253906 42.816406 L 190.253906 47.664062 Z M 201.894531 47.664062 L 201.894531 42.816406 L 197.046875 42.816406 L 197.046875 47.664062 Z M 222.265625 47.664062 L 222.265625 42.816406 L 217.414062 42.816406 L 217.414062 47.664062 Z M 229.054688 47.664062 L 229.054688 42.816406 L 224.203125 42.816406 L 224.203125 47.664062 Z M 256.214844 47.664062 L 256.214844 42.816406 L 251.363281 42.816406 L 251.363281 47.664062 Z M 263.003906 47.664062 L 263.003906 42.816406 L 258.15625 42.816406 L 258.15625 47.664062 Z M 269.796875 47.664062 L 269.796875 42.816406 L 264.945312 42.816406 L 264.945312 47.664062 Z M 283.375 47.664062 L 283.375 42.816406 L 278.523438 42.816406 L 278.523438 47.664062 Z M 52.515625 54.453125 L 52.515625 49.605469 L 47.664062 49.605469 L 47.664062 54.453125 Z M 59.304688 54.453125 L 59.304688 49.605469 L 54.453125 49.605469 L 54.453125 54.453125 Z M 66.09375 54.453125 L 66.09375 49.605469 L 61.246094 49.605469 L 61.246094 54.453125 Z M 72.886719 54.453125 L 72.886719 49.605469 L 68.035156 49.605469 L 68.035156 54.453125 Z M 79.675781 54.453125 L 79.675781 49.605469 L 74.824219 49.605469 L 74.824219 54.453125 Z M 93.253906 54.453125 L 93.253906 49.605469 L 88.40625 49.605469 L 88.40625 54.453125 Z M 127.203125 54.453125 L 127.203125 49.605469 L 122.355469 49.605469 L 122.355469 54.453125 Z M 133.996094 54.453125 L 133.996094 49.605469 L 129.144531 49.605469 L 129.144531 54.453125 Z M 174.734375 54.453125 L 174.734375 49.605469 L 169.886719 49.605469 L 169.886719 54.453125 Z M 181.523438 54.453125 L 181.523438 49.605469 L 176.675781 49.605469 L 176.675781 54.453125 Z M 188.316406 54.453125 L 188.316406 49.605469 L 183.464844 49.605469 L 183.464844 54.453125 Z M 201.894531 54.453125 L 201.894531 49.605469 L 197.046875 49.605469 L 197.046875 54.453125 Z M 215.476562 54.453125 L 215.476562 49.605469 L 210.625 49.605469 L 210.625 54.453125 Z M 222.265625 54.453125 L 222.265625 49.605469 L 217.414062 49.605469 L 217.414062 54.453125 Z M 229.054688 54.453125 L 229.054688 49.605469 L 224.203125 49.605469 L 224.203125 54.453125 Z M 249.425781 54.453125 L 249.425781 49.605469 L 244.574219 49.605469 L 244.574219 54.453125 Z M 256.214844 54.453125 L 256.214844 49.605469 L 251.363281 49.605469 L 251.363281 54.453125 Z M 269.796875 54.453125 L 269.796875 49.605469 L 264.945312 49.605469 L 264.945312 54.453125 Z M 276.585938 54.453125 L 276.585938 49.605469 L 271.734375 49.605469 L 271.734375 54.453125 Z M 283.375 54.453125 L 283.375 49.605469 L 278.523438 49.605469 L 278.523438 54.453125 Z M 45.726562 61.246094 L 45.726562 56.394531 L 40.875 56.394531 L 40.875 61.246094 Z M 52.515625 61.246094 L 52.515625 56.394531 L 47.664062 56.394531 L 47.664062 61.246094 Z M 79.675781 61.246094 L 79.675781 56.394531 L 74.824219 56.394531 L 74.824219 61.246094 Z M 86.464844 61.246094 L 86.464844 56.394531 L 81.613281 56.394531 L 81.613281 61.246094 Z M 93.253906 61.246094 L 93.253906 56.394531 L 88.40625 56.394531 L 88.40625 61.246094 Z M 120.414062 61.246094 L 120.414062 56.394531 L 115.566406 56.394531 L 115.566406 61.246094 Z M 127.203125 61.246094 L 127.203125 56.394531 L 122.355469 56.394531 L 122.355469 61.246094 Z M 133.996094 61.246094 L 133.996094 56.394531 L 129.144531 56.394531 L 129.144531 61.246094 Z M 167.945312 61.246094 L 167.945312 56.394531 L 163.09375 56.394531 L 163.09375 61.246094 Z M 174.734375 61.246094 L 174.734375 56.394531 L 169.886719 56.394531 L 169.886719 61.246094 Z M 188.316406 61.246094 L 188.316406 56.394531 L 183.464844 56.394531 L 183.464844 61.246094 Z M 195.105469 61.246094 L 195.105469 56.394531 L 190.253906 56.394531 L 190.253906 61.246094 Z M 201.894531 61.246094 L 201.894531 56.394531 L 197.046875 56.394531 L 197.046875 61.246094 Z M 208.683594 61.246094 L 208.683594 56.394531 L 203.835938 56.394531 L 203.835938 61.246094 Z M 215.476562 61.246094 L 215.476562 56.394531 L 210.625 56.394531 L 210.625 61.246094 Z M 229.054688 61.246094 L 229.054688 56.394531 L 224.203125 56.394531 L 224.203125 61.246094 Z M 242.636719 61.246094 L 242.636719 56.394531 L 237.785156 56.394531 L 237.785156 61.246094 Z M 249.425781 61.246094 L 249.425781 56.394531 L 244.574219 56.394531 L 244.574219 61.246094 Z M 256.214844 61.246094 L 256.214844 56.394531 L 251.363281 56.394531 L 251.363281 61.246094 Z M 263.003906 61.246094 L 263.003906 56.394531 L 258.15625 56.394531 L 258.15625 61.246094 Z M 269.796875 61.246094 L 269.796875 56.394531 L 264.945312 56.394531 L 264.945312 61.246094 Z M 283.375 61.246094 L 283.375 56.394531 L 278.523438 56.394531 L 278.523438 61.246094 Z M 38.933594 68.035156 L 38.933594 63.183594 L 34.085938 63.183594 L 34.085938 68.035156 Z M 45.726562 68.035156 L 45.726562 63.183594 L 40.875 63.183594 L 40.875 68.035156 Z M 52.515625 68.035156 L 52.515625 63.183594 L 47.664062 63.183594 L 47.664062 68.035156 Z M 72.886719 68.035156 L 72.886719 63.183594 L 68.035156 63.183594 L 68.035156 68.035156 Z M 79.675781 68.035156 L 79.675781 63.183594 L 74.824219 63.183594 L 74.824219 68.035156 Z M 93.253906 68.035156 L 93.253906 63.183594 L 88.40625 63.183594 L 88.40625 68.035156 Z M 113.625 68.035156 L 113.625 63.183594 L 108.773438 63.183594 L 108.773438 68.035156 Z M 120.414062 68.035156 L 120.414062 63.183594 L 115.566406 63.183594 L 115.566406 68.035156 Z M 133.996094 68.035156 L 133.996094 63.183594 L 129.144531 63.183594 L 129.144531 68.035156 Z M 161.15625 68.035156 L 161.15625 63.183594 L 156.304688 63.183594 L 156.304688 68.035156 Z M 167.945312 68.035156 L 167.945312 63.183594 L 163.09375 63.183594 L 163.09375 68.035156 Z M 174.734375 68.035156 L 174.734375 63.183594 L 169.886719 63.183594 L 169.886719 68.035156 Z M 181.523438 68.035156 L 181.523438 63.183594 L 176.675781 63.183594 L 176.675781 68.035156 Z M 188.316406 68.035156 L 188.316406 63.183594 L 183.464844 63.183594 L 183.464844 68.035156 Z M 215.476562 68.035156 L 215.476562 63.183594 L 210.625 63.183594 L 210.625 68.035156 Z M 222.265625 68.035156 L 222.265625 63.183594 L 217.414062 63.183594 L 217.414062 68.035156 Z M 229.054688 68.035156 L 229.054688 63.183594 L 224.203125 63.183594 L 224.203125 68.035156 Z M 235.84375 68.035156 L 235.84375 63.183594 L 230.996094 63.183594 L 230.996094 68.035156 Z M 242.636719 68.035156 L 242.636719 63.183594 L 237.785156 63.183594 L 237.785156 68.035156 Z M 269.796875 68.035156 L 269.796875 63.183594 L 264.945312 63.183594 L 264.945312 68.035156 Z M 276.585938 68.035156 L 276.585938 63.183594 L 271.734375 63.183594 L 271.734375 68.035156 Z M 283.375 68.035156 L 283.375 63.183594 L 278.523438 63.183594 L 278.523438 68.035156 Z M 32.144531 74.824219 L 32.144531 69.976562 L 27.296875 69.976562 L 27.296875 74.824219 Z M 38.933594 74.824219 L 38.933594 69.976562 L 34.085938 69.976562 L 34.085938 74.824219 Z M 52.515625 74.824219 L 52.515625 69.976562 L 47.664062 69.976562 L 47.664062 74.824219 Z M 66.09375 74.824219 L 66.09375 69.976562 L 61.246094 69.976562 L 61.246094 74.824219 Z M 72.886719 74.824219 L 72.886719 69.976562 L 68.035156 69.976562 L 68.035156 74.824219 Z M 79.675781 74.824219 L 79.675781 69.976562 L 74.824219 69.976562 L 74.824219 74.824219 Z M 86.464844 74.824219 L 86.464844 69.976562 L 81.613281 69.976562 L 81.613281 74.824219 Z M 93.253906 74.824219 L 93.253906 69.976562 L 88.40625 69.976562 L 88.40625 74.824219 Z M 106.835938 74.824219 L 106.835938 69.976562 L 101.984375 69.976562 L 101.984375 74.824219 Z M 113.625 74.824219 L 113.625 69.976562 L 108.773438 69.976562 L 108.773438 74.824219 Z M 120.414062 74.824219 L 120.414062 69.976562 L 115.566406 69.976562 L 115.566406 74.824219 Z M 127.203125 74.824219 L 127.203125 69.976562 L 122.355469 69.976562 L 122.355469 74.824219 Z M 133.996094 74.824219 L 133.996094 69.976562 L 129.144531 69.976562 L 129.144531 74.824219 Z M 154.363281 74.824219 L 154.363281 69.976562 L 149.515625 69.976562 L 149.515625 74.824219 Z M 161.15625 74.824219 L 161.15625 69.976562 L 156.304688 69.976562 L 156.304688 74.824219 Z M 188.316406 74.824219 L 188.316406 69.976562 L 183.464844 69.976562 L 183.464844 74.824219 Z M 208.683594 74.824219 L 208.683594 69.976562 L 203.835938 69.976562 L 203.835938 74.824219 Z M 215.476562 74.824219 L 215.476562 69.976562 L 210.625 69.976562 L 210.625 74.824219 Z M 242.636719 74.824219 L 242.636719 69.976562 L 237.785156 69.976562 L 237.785156 74.824219 Z M 263.003906 74.824219 L 263.003906 69.976562 L 258.15625 69.976562 L 258.15625 74.824219 Z M 269.796875 74.824219 L 269.796875 69.976562 L 264.945312 69.976562 L 264.945312 74.824219 Z M 283.375 74.824219 L 283.375 69.976562 L 278.523438 69.976562 L 278.523438 74.824219 Z M 25.355469 81.613281 L 25.355469 76.765625 L 20.503906 76.765625 L 20.503906 81.613281 Z M 32.144531 81.613281 L 32.144531 76.765625 L 27.296875 76.765625 L 27.296875 81.613281 Z M 38.933594 81.613281 L 38.933594 76.765625 L 34.085938 76.765625 L 34.085938 81.613281 Z M 45.726562 81.613281 L 45.726562 76.765625 L 40.875 76.765625 L 40.875 81.613281 Z M 52.515625 81.613281 L 52.515625 76.765625 L 47.664062 76.765625 L 47.664062 81.613281 Z M 59.304688 81.613281 L 59.304688 76.765625 L 54.453125 76.765625 L 54.453125 81.613281 Z M 66.09375 81.613281 L 66.09375 76.765625 L 61.246094 76.765625 L 61.246094 81.613281 Z M 93.253906 81.613281 L 93.253906 76.765625 L 88.40625 76.765625 L 88.40625 81.613281 Z M 100.046875 81.613281 L 100.046875 76.765625 L 95.195312 76.765625 L 95.195312 81.613281 Z M 106.835938 81.613281 L 106.835938 76.765625 L 101.984375 76.765625 L 101.984375 81.613281 Z M 133.996094 81.613281 L 133.996094 76.765625 L 129.144531 76.765625 L 129.144531 81.613281 Z M 147.574219 81.613281 L 147.574219 76.765625 L 142.726562 76.765625 L 142.726562 81.613281 Z M 154.363281 81.613281 L 154.363281 76.765625 L 149.515625 76.765625 L 149.515625 81.613281 Z M 161.15625 81.613281 L 161.15625 76.765625 L 156.304688 76.765625 L 156.304688 81.613281 Z M 181.523438 81.613281 L 181.523438 76.765625 L 176.675781 76.765625 L 176.675781 81.613281 Z M 188.316406 81.613281 L 188.316406 76.765625 L 183.464844 76.765625 L 183.464844 81.613281 Z M 201.894531 81.613281 L 201.894531 76.765625 L 197.046875 76.765625 L 197.046875 81.613281 Z M 208.683594 81.613281 L 208.683594 76.765625 L 203.835938 76.765625 L 203.835938 81.613281 Z M 215.476562 81.613281 L 215.476562 76.765625 L 210.625 76.765625 L 210.625 81.613281 Z M 235.84375 81.613281 L 235.84375 76.765625 L 230.996094 76.765625 L 230.996094 81.613281 Z M 242.636719 81.613281 L 242.636719 76.765625 L 237.785156 76.765625 L 237.785156 81.613281 Z M 256.214844 81.613281 L 256.214844 76.765625 L 251.363281 76.765625 L 251.363281 81.613281 Z M 263.003906 81.613281 L 263.003906 76.765625 L 258.15625 76.765625 L 258.15625 81.613281 Z M 269.796875 81.613281 L 269.796875 76.765625 L 264.945312 76.765625 L 264.945312 81.613281 Z M 276.585938 81.613281 L 276.585938 76.765625 L 271.734375 76.765625 L 271.734375 81.613281 Z M 283.375 81.613281 L 283.375 76.765625 L 278.523438 76.765625 L 278.523438 81.613281 Z M 18.566406 88.40625 L 18.566406 83.554688 L 13.714844 83.554688 L 13.714844 88.40625 Z M 25.355469 88.40625 L 25.355469 83.554688 L 20.503906 83.554688 L 20.503906 88.40625 Z M 66.09375 88.40625 L 66.09375 83.554688 L 61.246094 83.554688 L 61.246094 88.40625 Z M 86.464844 88.40625 L 86.464844 83.554688 L 81.613281 83.554688 L 81.613281 88.40625 Z M 93.253906 88.40625 L 93.253906 83.554688 L 88.40625 83.554688 L 88.40625 88.40625 Z M 106.835938 88.40625 L 106.835938 83.554688 L 101.984375 83.554688 L 101.984375 88.40625 Z M 127.203125 88.40625 L 127.203125 83.554688 L 122.355469 83.554688 L 122.355469 88.40625 Z M 133.996094 88.40625 L 133.996094 83.554688 L 129.144531 83.554688 L 129.144531 88.40625 Z M 140.785156 88.40625 L 140.785156 83.554688 L 135.933594 83.554688 L 135.933594 88.40625 Z M 147.574219 88.40625 L 147.574219 83.554688 L 142.726562 83.554688 L 142.726562 88.40625 Z M 161.15625 88.40625 L 161.15625 83.554688 L 156.304688 83.554688 L 156.304688 88.40625 Z M 174.734375 88.40625 L 174.734375 83.554688 L 169.886719 83.554688 L 169.886719 88.40625 Z M 181.523438 88.40625 L 181.523438 83.554688 L 176.675781 83.554688 L 176.675781 88.40625 Z M 188.316406 88.40625 L 188.316406 83.554688 L 183.464844 83.554688 L 183.464844 88.40625 Z M 195.105469 88.40625 L 195.105469 83.554688 L 190.253906 83.554688 L 190.253906 88.40625 Z M 201.894531 88.40625 L 201.894531 83.554688 L 197.046875 83.554688 L 197.046875 88.40625 Z M 215.476562 88.40625 L 215.476562 83.554688 L 210.625 83.554688 L 210.625 88.40625 Z M 229.054688 88.40625 L 229.054688 83.554688 L 224.203125 83.554688 L 224.203125 88.40625 Z M 235.84375 88.40625 L 235.84375 83.554688 L 230.996094 83.554688 L 230.996094 88.40625 Z M 242.636719 88.40625 L 242.636719 83.554688 L 237.785156 83.554688 L 237.785156 88.40625 Z M 249.425781 88.40625 L 249.425781 83.554688 L 244.574219 83.554688 L 244.574219 88.40625 Z M 256.214844 88.40625 L 256.214844 83.554688 L 251.363281 83.554688 L 251.363281 88.40625 Z M 283.375 88.40625 L 283.375 83.554688 L 278.523438 83.554688 L 278.523438 88.40625 Z M 25.355469 95.195312 L 25.355469 90.34375 L 20.503906 90.34375 L 20.503906 95.195312 Z M 59.304688 95.195312 L 59.304688 90.34375 L 54.453125 90.34375 L 54.453125 95.195312 Z M 66.09375 95.195312 L 66.09375 90.34375 L 61.246094 90.34375 L 61.246094 95.195312 Z M 79.675781 95.195312 L 79.675781 90.34375 L 74.824219 90.34375 L 74.824219 95.195312 Z M 86.464844 95.195312 L 86.464844 90.34375 L 81.613281 90.34375 L 81.613281 95.195312 Z M 93.253906 95.195312 L 93.253906 90.34375 L 88.40625 90.34375 L 88.40625 95.195312 Z M 100.046875 95.195312 L 100.046875 90.34375 L 95.195312 90.34375 L 95.195312 95.195312 Z M 106.835938 95.195312 L 106.835938 90.34375 L 101.984375 90.34375 L 101.984375 95.195312 Z M 120.414062 95.195312 L 120.414062 90.34375 L 115.566406 90.34375 L 115.566406 95.195312 Z M 127.203125 95.195312 L 127.203125 90.34375 L 122.355469 90.34375 L 122.355469 95.195312 Z M 147.574219 95.195312 L 147.574219 90.34375 L 142.726562 90.34375 L 142.726562 95.195312 Z M 154.363281 95.195312 L 154.363281 90.34375 L 149.515625 90.34375 L 149.515625 95.195312 Z M 161.15625 95.195312 L 161.15625 90.34375 L 156.304688 90.34375 L 156.304688 95.195312 Z M 167.945312 95.195312 L 167.945312 90.34375 L 163.09375 90.34375 L 163.09375 95.195312 Z M 174.734375 95.195312 L 174.734375 90.34375 L 169.886719 90.34375 L 169.886719 95.195312 Z M 201.894531 95.195312 L 201.894531 90.34375 L 197.046875 90.34375 L 197.046875 95.195312 Z M 208.683594 95.195312 L 208.683594 90.34375 L 203.835938 90.34375 L 203.835938 95.195312 Z M 215.476562 95.195312 L 215.476562 90.34375 L 210.625 90.34375 L 210.625 95.195312 Z M 222.265625 95.195312 L 222.265625 90.34375 L 217.414062 90.34375 L 217.414062 95.195312 Z M 229.054688 95.195312 L 229.054688 90.34375 L 224.203125 90.34375 L 224.203125 95.195312 Z M 256.214844 95.195312 L 256.214844 90.34375 L 251.363281 90.34375 L 251.363281 95.195312 Z M 276.585938 95.195312 L 276.585938 90.34375 L 271.734375 90.34375 L 271.734375 95.195312 Z M 283.375 95.195312 L 283.375 90.34375 L 278.523438 90.34375 L 278.523438 95.195312 Z M 18.566406 101.984375 L 18.566406 97.136719 L 13.714844 97.136719 L 13.714844 101.984375 Z M 25.355469 101.984375 L 25.355469 97.136719 L 20.503906 97.136719 L 20.503906 101.984375 Z M 52.515625 101.984375 L 52.515625 97.136719 L 47.664062 97.136719 L 47.664062 101.984375 Z M 59.304688 101.984375 L 59.304688 97.136719 L 54.453125 97.136719 L 54.453125 101.984375 Z M 66.09375 101.984375 L 66.09375 97.136719 L 61.246094 97.136719 L 61.246094 101.984375 Z M 72.886719 101.984375 L 72.886719 97.136719 L 68.035156 97.136719 L 68.035156 101.984375 Z M 79.675781 101.984375 L 79.675781 97.136719 L 74.824219 97.136719 L 74.824219 101.984375 Z M 106.835938 101.984375 L 106.835938 97.136719 L 101.984375 97.136719 L 101.984375 101.984375 Z M 113.625 101.984375 L 113.625 97.136719 L 108.773438 97.136719 L 108.773438 101.984375 Z M 120.414062 101.984375 L 120.414062 97.136719 L 115.566406 97.136719 L 115.566406 101.984375 Z M 127.203125 101.984375 L 127.203125 97.136719 L 122.355469 97.136719 L 122.355469 101.984375 Z M 140.785156 101.984375 L 140.785156 97.136719 L 135.933594 97.136719 L 135.933594 101.984375 Z M 147.574219 101.984375 L 147.574219 97.136719 L 142.726562 97.136719 L 142.726562 101.984375 Z M 174.734375 101.984375 L 174.734375 97.136719 L 169.886719 97.136719 L 169.886719 101.984375 Z M 195.105469 101.984375 L 195.105469 97.136719 L 190.253906 97.136719 L 190.253906 101.984375 Z M 201.894531 101.984375 L 201.894531 97.136719 L 197.046875 97.136719 L 197.046875 101.984375 Z M 229.054688 101.984375 L 229.054688 97.136719 L 224.203125 97.136719 L 224.203125 101.984375 Z M 249.425781 101.984375 L 249.425781 97.136719 L 244.574219 97.136719 L 244.574219 101.984375 Z M 256.214844 101.984375 L 256.214844 97.136719 L 251.363281 97.136719 L 251.363281 101.984375 Z M 269.796875 101.984375 L 269.796875 97.136719 L 264.945312 97.136719 L 264.945312 101.984375 Z M 276.585938 101.984375 L 276.585938 97.136719 L 271.734375 97.136719 L 271.734375 101.984375 Z M 283.375 101.984375 L 283.375 97.136719 L 278.523438 97.136719 L 278.523438 101.984375 Z M 25.355469 108.773438 L 25.355469 103.925781 L 20.503906 103.925781 L 20.503906 108.773438 Z M 45.726562 108.773438 L 45.726562 103.925781 L 40.875 103.925781 L 40.875 108.773438 Z M 52.515625 108.773438 L 52.515625 103.925781 L 47.664062 103.925781 L 47.664062 108.773438 Z M 79.675781 108.773438 L 79.675781 103.925781 L 74.824219 103.925781 L 74.824219 108.773438 Z M 100.046875 108.773438 L 100.046875 103.925781 L 95.195312 103.925781 L 95.195312 108.773438 Z M 106.835938 108.773438 L 106.835938 103.925781 L 101.984375 103.925781 L 101.984375 108.773438 Z M 127.203125 108.773438 L 127.203125 103.925781 L 122.355469 103.925781 L 122.355469 108.773438 Z M 133.996094 108.773438 L 133.996094 103.925781 L 129.144531 103.925781 L 129.144531 108.773438 Z M 140.785156 108.773438 L 140.785156 103.925781 L 135.933594 103.925781 L 135.933594 108.773438 Z M 147.574219 108.773438 L 147.574219 103.925781 L 142.726562 103.925781 L 142.726562 108.773438 Z M 167.945312 108.773438 L 167.945312 103.925781 L 163.09375 103.925781 L 163.09375 108.773438 Z M 174.734375 108.773438 L 174.734375 103.925781 L 169.886719 103.925781 L 169.886719 108.773438 Z M 188.316406 108.773438 L 188.316406 103.925781 L 183.464844 103.925781 L 183.464844 108.773438 Z M 195.105469 108.773438 L 195.105469 103.925781 L 190.253906 103.925781 L 190.253906 108.773438 Z M 201.894531 108.773438 L 201.894531 103.925781 L 197.046875 103.925781 L 197.046875 108.773438 Z M 222.265625 108.773438 L 222.265625 103.925781 L 217.414062 103.925781 L 217.414062 108.773438 Z M 229.054688 108.773438 L 229.054688 103.925781 L 224.203125 103.925781 L 224.203125 108.773438 Z M 242.636719 108.773438 L 242.636719 103.925781 L 237.785156 103.925781 L 237.785156 108.773438 Z M 249.425781 108.773438 L 249.425781 103.925781 L 244.574219 103.925781 L 244.574219 108.773438 Z M 256.214844 108.773438 L 256.214844 103.925781 L 251.363281 103.925781 L 251.363281 108.773438 Z M 263.003906 108.773438 L 263.003906 103.925781 L 258.15625 103.925781 L 258.15625 108.773438 Z M 269.796875 108.773438 L 269.796875 103.925781 L 264.945312 103.925781 L 264.945312 108.773438 Z M 18.566406 115.566406 L 18.566406 110.714844 L 13.714844 110.714844 L 13.714844 115.566406 Z M 25.355469 115.566406 L 25.355469 110.714844 L 20.503906 110.714844 L 20.503906 115.566406 Z M 38.933594 115.566406 L 38.933594 110.714844 L 34.085938 110.714844 L 34.085938 115.566406 Z M 45.726562 115.566406 L 45.726562 110.714844 L 40.875 110.714844 L 40.875 115.566406 Z M 52.515625 115.566406 L 52.515625 110.714844 L 47.664062 110.714844 L 47.664062 115.566406 Z M 72.886719 115.566406 L 72.886719 110.714844 L 68.035156 110.714844 L 68.035156 115.566406 Z M 79.675781 115.566406 L 79.675781 110.714844 L 74.824219 110.714844 L 74.824219 115.566406 Z M 93.253906 115.566406 L 93.253906 110.714844 L 88.40625 110.714844 L 88.40625 115.566406 Z M 100.046875 115.566406 L 100.046875 110.714844 L 95.195312 110.714844 L 95.195312 115.566406 Z M 106.835938 115.566406 L 106.835938 110.714844 L 101.984375 110.714844 L 101.984375 115.566406 Z M 120.414062 115.566406 L 120.414062 110.714844 L 115.566406 110.714844 L 115.566406 115.566406 Z M 127.203125 115.566406 L 127.203125 110.714844 L 122.355469 110.714844 L 122.355469 115.566406 Z M 147.574219 115.566406 L 147.574219 110.714844 L 142.726562 110.714844 L 142.726562 115.566406 Z M 161.15625 115.566406 L 161.15625 110.714844 L 156.304688 110.714844 L 156.304688 115.566406 Z M 167.945312 115.566406 L 167.945312 110.714844 L 163.09375 110.714844 L 163.09375 115.566406 Z M 174.734375 115.566406 L 174.734375 110.714844 L 169.886719 110.714844 L 169.886719 115.566406 Z M 181.523438 115.566406 L 181.523438 110.714844 L 176.675781 110.714844 L 176.675781 115.566406 Z M 188.316406 115.566406 L 188.316406 110.714844 L 183.464844 110.714844 L 183.464844 115.566406 Z M 201.894531 115.566406 L 201.894531 110.714844 L 197.046875 110.714844 L 197.046875 115.566406 Z M 215.476562 115.566406 L 215.476562 110.714844 L 210.625 110.714844 L 210.625 115.566406 Z M 222.265625 115.566406 L 222.265625 110.714844 L 217.414062 110.714844 L 217.414062 115.566406 Z M 229.054688 115.566406 L 229.054688 110.714844 L 224.203125 110.714844 L 224.203125 115.566406 Z M 235.84375 115.566406 L 235.84375 110.714844 L 230.996094 110.714844 L 230.996094 115.566406 Z M 242.636719 115.566406 L 242.636719 110.714844 L 237.785156 110.714844 L 237.785156 115.566406 Z M 269.796875 115.566406 L 269.796875 110.714844 L 264.945312 110.714844 L 264.945312 115.566406 Z M 18.566406 122.355469 L 18.566406 117.503906 L 13.714844 117.503906 L 13.714844 122.355469 Z M 25.355469 122.355469 L 25.355469 117.503906 L 20.503906 117.503906 L 20.503906 122.355469 Z M 32.144531 122.355469 L 32.144531 117.503906 L 27.296875 117.503906 L 27.296875 122.355469 Z M 38.933594 122.355469 L 38.933594 117.503906 L 34.085938 117.503906 L 34.085938 122.355469 Z M 52.515625 122.355469 L 52.515625 117.503906 L 47.664062 117.503906 L 47.664062 122.355469 Z M 66.09375 122.355469 L 66.09375 117.503906 L 61.246094 117.503906 L 61.246094 122.355469 Z M 72.886719 122.355469 L 72.886719 117.503906 L 68.035156 117.503906 L 68.035156 122.355469 Z M 79.675781 122.355469 L 79.675781 117.503906 L 74.824219 117.503906 L 74.824219 122.355469 Z M 86.464844 122.355469 L 86.464844 117.503906 L 81.613281 117.503906 L 81.613281 122.355469 Z M 93.253906 122.355469 L 93.253906 117.503906 L 88.40625 117.503906 L 88.40625 122.355469 Z M 106.835938 122.355469 L 106.835938 117.503906 L 101.984375 117.503906 L 101.984375 122.355469 Z M 113.625 122.355469 L 113.625 117.503906 L 108.773438 117.503906 L 108.773438 122.355469 Z M 120.414062 122.355469 L 120.414062 117.503906 L 115.566406 117.503906 L 115.566406 122.355469 Z M 127.203125 122.355469 L 127.203125 117.503906 L 122.355469 117.503906 L 122.355469 122.355469 Z M 140.785156 122.355469 L 140.785156 117.503906 L 135.933594 117.503906 L 135.933594 122.355469 Z M 147.574219 122.355469 L 147.574219 117.503906 L 142.726562 117.503906 L 142.726562 122.355469 Z M 154.363281 122.355469 L 154.363281 117.503906 L 149.515625 117.503906 L 149.515625 122.355469 Z M 161.15625 122.355469 L 161.15625 117.503906 L 156.304688 117.503906 L 156.304688 122.355469 Z M 188.316406 122.355469 L 188.316406 117.503906 L 183.464844 117.503906 L 183.464844 122.355469 Z M 195.105469 122.355469 L 195.105469 117.503906 L 190.253906 117.503906 L 190.253906 122.355469 Z M 201.894531 122.355469 L 201.894531 117.503906 L 197.046875 117.503906 L 197.046875 122.355469 Z M 208.683594 122.355469 L 208.683594 117.503906 L 203.835938 117.503906 L 203.835938 122.355469 Z M 215.476562 122.355469 L 215.476562 117.503906 L 210.625 117.503906 L 210.625 122.355469 Z M 242.636719 122.355469 L 242.636719 117.503906 L 237.785156 117.503906 L 237.785156 122.355469 Z M 263.003906 122.355469 L 263.003906 117.503906 L 258.15625 117.503906 L 258.15625 122.355469 Z M 269.796875 122.355469 L 269.796875 117.503906 L 264.945312 117.503906 L 264.945312 122.355469 Z M 283.375 122.355469 L 283.375 117.503906 L 278.523438 117.503906 L 278.523438 122.355469 Z M 38.933594 129.144531 L 38.933594 124.296875 L 34.085938 124.296875 L 34.085938 129.144531 Z M 45.726562 129.144531 L 45.726562 124.296875 L 40.875 124.296875 L 40.875 129.144531 Z M 52.515625 129.144531 L 52.515625 124.296875 L 47.664062 124.296875 L 47.664062 129.144531 Z M 59.304688 129.144531 L 59.304688 124.296875 L 54.453125 124.296875 L 54.453125 129.144531 Z M 66.09375 129.144531 L 66.09375 124.296875 L 61.246094 124.296875 L 61.246094 129.144531 Z M 93.253906 129.144531 L 93.253906 124.296875 L 88.40625 124.296875 L 88.40625 129.144531 Z M 100.046875 129.144531 L 100.046875 124.296875 L 95.195312 124.296875 L 95.195312 129.144531 Z M 106.835938 129.144531 L 106.835938 124.296875 L 101.984375 124.296875 L 101.984375 129.144531 Z M 127.203125 129.144531 L 127.203125 124.296875 L 122.355469 124.296875 L 122.355469 129.144531 Z M 133.996094 129.144531 L 133.996094 124.296875 L 129.144531 124.296875 L 129.144531 129.144531 Z M 140.785156 129.144531 L 140.785156 124.296875 L 135.933594 124.296875 L 135.933594 129.144531 Z M 161.15625 129.144531 L 161.15625 124.296875 L 156.304688 124.296875 L 156.304688 129.144531 Z M 181.523438 129.144531 L 181.523438 124.296875 L 176.675781 124.296875 L 176.675781 129.144531 Z M 188.316406 129.144531 L 188.316406 124.296875 L 183.464844 124.296875 L 183.464844 129.144531 Z M 215.476562 129.144531 L 215.476562 124.296875 L 210.625 124.296875 L 210.625 129.144531 Z M 235.84375 129.144531 L 235.84375 124.296875 L 230.996094 124.296875 L 230.996094 129.144531 Z M 242.636719 129.144531 L 242.636719 124.296875 L 237.785156 124.296875 L 237.785156 129.144531 Z M 256.214844 129.144531 L 256.214844 124.296875 L 251.363281 124.296875 L 251.363281 129.144531 Z M 263.003906 129.144531 L 263.003906 124.296875 L 258.15625 124.296875 L 258.15625 129.144531 Z M 269.796875 129.144531 L 269.796875 124.296875 L 264.945312 124.296875 L 264.945312 129.144531 Z M 276.585938 129.144531 L 276.585938 124.296875 L 271.734375 124.296875 L 271.734375 129.144531 Z M 283.375 129.144531 L 283.375 124.296875 L 278.523438 124.296875 L 278.523438 129.144531 Z M 32.144531 135.933594 L 32.144531 131.085938 L 27.296875 131.085938 L 27.296875 135.933594 Z M 38.933594 135.933594 L 38.933594 131.085938 L 34.085938 131.085938 L 34.085938 135.933594 Z M 66.09375 135.933594 L 66.09375 131.085938 L 61.246094 131.085938 L 61.246094 135.933594 Z M 86.464844 135.933594 L 86.464844 131.085938 L 81.613281 131.085938 L 81.613281 135.933594 Z M 93.253906 135.933594 L 93.253906 131.085938 L 88.40625 131.085938 L 88.40625 135.933594 Z M 106.835938 135.933594 L 106.835938 131.085938 L 101.984375 131.085938 L 101.984375 135.933594 Z M 120.414062 135.933594 L 120.414062 131.085938 L 115.566406 131.085938 L 115.566406 135.933594 Z M 127.203125 135.933594 L 127.203125 131.085938 L 122.355469 131.085938 L 122.355469 135.933594 Z M 140.785156 135.933594 L 140.785156 131.085938 L 135.933594 131.085938 L 135.933594 135.933594 Z M 154.363281 135.933594 L 154.363281 131.085938 L 149.515625 131.085938 L 149.515625 135.933594 Z M 161.15625 135.933594 L 161.15625 131.085938 L 156.304688 131.085938 L 156.304688 135.933594 Z M 174.734375 135.933594 L 174.734375 131.085938 L 169.886719 131.085938 L 169.886719 135.933594 Z M 181.523438 135.933594 L 181.523438 131.085938 L 176.675781 131.085938 L 176.675781 135.933594 Z M 188.316406 135.933594 L 188.316406 131.085938 L 183.464844 131.085938 L 183.464844 135.933594 Z M 208.683594 135.933594 L 208.683594 131.085938 L 203.835938 131.085938 L 203.835938 135.933594 Z M 215.476562 135.933594 L 215.476562 131.085938 L 210.625 131.085938 L 210.625 135.933594 Z M 229.054688 135.933594 L 229.054688 131.085938 L 224.203125 131.085938 L 224.203125 135.933594 Z M 235.84375 135.933594 L 235.84375 131.085938 L 230.996094 131.085938 L 230.996094 135.933594 Z M 242.636719 135.933594 L 242.636719 131.085938 L 237.785156 131.085938 L 237.785156 135.933594 Z M 249.425781 135.933594 L 249.425781 131.085938 L 244.574219 131.085938 L 244.574219 135.933594 Z M 256.214844 135.933594 L 256.214844 131.085938 L 251.363281 131.085938 L 251.363281 135.933594 Z M 283.375 135.933594 L 283.375 131.085938 L 278.523438 131.085938 L 278.523438 135.933594 Z M 25.355469 142.726562 L 25.355469 137.875 L 20.503906 137.875 L 20.503906 142.726562 Z M 32.144531 142.726562 L 32.144531 137.875 L 27.296875 137.875 L 27.296875 142.726562 Z M 38.933594 142.726562 L 38.933594 137.875 L 34.085938 137.875 L 34.085938 142.726562 Z M 59.304688 142.726562 L 59.304688 137.875 L 54.453125 137.875 L 54.453125 142.726562 Z M 66.09375 142.726562 L 66.09375 137.875 L 61.246094 137.875 L 61.246094 142.726562 Z M 79.675781 142.726562 L 79.675781 137.875 L 74.824219 137.875 L 74.824219 142.726562 Z M 86.464844 142.726562 L 86.464844 137.875 L 81.613281 137.875 L 81.613281 142.726562 Z M 93.253906 142.726562 L 93.253906 137.875 L 88.40625 137.875 L 88.40625 142.726562 Z M 100.046875 142.726562 L 100.046875 137.875 L 95.195312 137.875 L 95.195312 142.726562 Z M 106.835938 142.726562 L 106.835938 137.875 L 101.984375 137.875 L 101.984375 142.726562 Z M 113.625 142.726562 L 113.625 137.875 L 108.773438 137.875 L 108.773438 142.726562 Z M 120.414062 142.726562 L 120.414062 137.875 L 115.566406 137.875 L 115.566406 142.726562 Z M 127.203125 142.726562 L 127.203125 137.875 L 122.355469 137.875 L 122.355469 142.726562 Z M 133.996094 142.726562 L 133.996094 137.875 L 129.144531 137.875 L 129.144531 142.726562 Z M 140.785156 142.726562 L 140.785156 137.875 L 135.933594 137.875 L 135.933594 142.726562 Z M 147.574219 142.726562 L 147.574219 137.875 L 142.726562 137.875 L 142.726562 142.726562 Z M 154.363281 142.726562 L 154.363281 137.875 L 149.515625 137.875 L 149.515625 142.726562 Z M 161.15625 142.726562 L 161.15625 137.875 L 156.304688 137.875 L 156.304688 142.726562 Z M 167.945312 142.726562 L 167.945312 137.875 L 163.09375 137.875 L 163.09375 142.726562 Z M 174.734375 142.726562 L 174.734375 137.875 L 169.886719 137.875 L 169.886719 142.726562 Z M 188.316406 142.726562 L 188.316406 137.875 L 183.464844 137.875 L 183.464844 142.726562 Z M 201.894531 142.726562 L 201.894531 137.875 L 197.046875 137.875 L 197.046875 142.726562 Z M 208.683594 142.726562 L 208.683594 137.875 L 203.835938 137.875 L 203.835938 142.726562 Z M 215.476562 142.726562 L 215.476562 137.875 L 210.625 137.875 L 210.625 142.726562 Z M 222.265625 142.726562 L 222.265625 137.875 L 217.414062 137.875 L 217.414062 142.726562 Z M 229.054688 142.726562 L 229.054688 137.875 L 224.203125 137.875 L 224.203125 142.726562 Z M 256.214844 142.726562 L 256.214844 137.875 L 251.363281 137.875 L 251.363281 142.726562 Z M 276.585938 142.726562 L 276.585938 137.875 L 271.734375 137.875 L 271.734375 142.726562 Z M 283.375 142.726562 L 283.375 137.875 L 278.523438 137.875 L 278.523438 142.726562 Z M 18.566406 149.515625 L 18.566406 144.664062 L 13.714844 144.664062 L 13.714844 149.515625 Z M 25.355469 149.515625 L 25.355469 144.664062 L 20.503906 144.664062 L 20.503906 149.515625 Z M 38.933594 149.515625 L 38.933594 144.664062 L 34.085938 144.664062 L 34.085938 149.515625 Z M 52.515625 149.515625 L 52.515625 144.664062 L 47.664062 144.664062 L 47.664062 149.515625 Z M 59.304688 149.515625 L 59.304688 144.664062 L 54.453125 144.664062 L 54.453125 149.515625 Z M 66.09375 149.515625 L 66.09375 144.664062 L 61.246094 144.664062 L 61.246094 149.515625 Z M 72.886719 149.515625 L 72.886719 144.664062 L 68.035156 144.664062 L 68.035156 149.515625 Z M 79.675781 149.515625 L 79.675781 144.664062 L 74.824219 144.664062 L 74.824219 149.515625 Z M 174.734375 149.515625 L 174.734375 144.664062 L 169.886719 144.664062 L 169.886719 149.515625 Z M 181.523438 149.515625 L 181.523438 144.664062 L 176.675781 144.664062 L 176.675781 149.515625 Z M 188.316406 149.515625 L 188.316406 144.664062 L 183.464844 144.664062 L 183.464844 149.515625 Z M 195.105469 149.515625 L 195.105469 144.664062 L 190.253906 144.664062 L 190.253906 149.515625 Z M 201.894531 149.515625 L 201.894531 144.664062 L 197.046875 144.664062 L 197.046875 149.515625 Z M 229.054688 149.515625 L 229.054688 144.664062 L 224.203125 144.664062 L 224.203125 149.515625 Z M 249.425781 149.515625 L 249.425781 144.664062 L 244.574219 144.664062 L 244.574219 149.515625 Z M 256.214844 149.515625 L 256.214844 144.664062 L 251.363281 144.664062 L 251.363281 149.515625 Z M 269.796875 149.515625 L 269.796875 144.664062 L 264.945312 144.664062 L 264.945312 149.515625 Z M 276.585938 149.515625 L 276.585938 144.664062 L 271.734375 144.664062 L 271.734375 149.515625 Z M 283.375 149.515625 L 283.375 144.664062 L 278.523438 144.664062 L 278.523438 149.515625 Z M 25.355469 156.304688 L 25.355469 151.453125 L 20.503906 151.453125 L 20.503906 156.304688 Z M 32.144531 156.304688 L 32.144531 151.453125 L 27.296875 151.453125 L 27.296875 156.304688 Z M 38.933594 156.304688 L 38.933594 151.453125 L 34.085938 151.453125 L 34.085938 156.304688 Z M 45.726562 156.304688 L 45.726562 151.453125 L 40.875 151.453125 L 40.875 156.304688 Z M 52.515625 156.304688 L 52.515625 151.453125 L 47.664062 151.453125 L 47.664062 156.304688 Z M 79.675781 156.304688 L 79.675781 151.453125 L 74.824219 151.453125 L 74.824219 156.304688 Z M 167.945312 156.304688 L 167.945312 151.453125 L 163.09375 151.453125 L 163.09375 156.304688 Z M 174.734375 156.304688 L 174.734375 151.453125 L 169.886719 151.453125 L 169.886719 156.304688 Z M 201.894531 156.304688 L 201.894531 151.453125 L 197.046875 151.453125 L 197.046875 156.304688 Z M 222.265625 156.304688 L 222.265625 151.453125 L 217.414062 151.453125 L 217.414062 156.304688 Z M 229.054688 156.304688 L 229.054688 151.453125 L 224.203125 151.453125 L 224.203125 156.304688 Z M 242.636719 156.304688 L 242.636719 151.453125 L 237.785156 151.453125 L 237.785156 156.304688 Z M 249.425781 156.304688 L 249.425781 151.453125 L 244.574219 151.453125 L 244.574219 156.304688 Z M 256.214844 156.304688 L 256.214844 151.453125 L 251.363281 151.453125 L 251.363281 156.304688 Z M 263.003906 156.304688 L 263.003906 151.453125 L 258.15625 151.453125 L 258.15625 156.304688 Z M 269.796875 156.304688 L 269.796875 151.453125 L 264.945312 151.453125 L 264.945312 156.304688 Z M 18.566406 163.09375 L 18.566406 158.246094 L 13.714844 158.246094 L 13.714844 163.09375 Z M 25.355469 163.09375 L 25.355469 158.246094 L 20.503906 158.246094 L 20.503906 163.09375 Z M 52.515625 163.09375 L 52.515625 158.246094 L 47.664062 158.246094 L 47.664062 163.09375 Z M 72.886719 163.09375 L 72.886719 158.246094 L 68.035156 158.246094 L 68.035156 163.09375 Z M 79.675781 163.09375 L 79.675781 158.246094 L 74.824219 158.246094 L 74.824219 163.09375 Z M 161.15625 163.09375 L 161.15625 158.246094 L 156.304688 158.246094 L 156.304688 163.09375 Z M 167.945312 163.09375 L 167.945312 158.246094 L 163.09375 158.246094 L 163.09375 163.09375 Z M 174.734375 163.09375 L 174.734375 158.246094 L 169.886719 158.246094 L 169.886719 163.09375 Z M 195.105469 163.09375 L 195.105469 158.246094 L 190.253906 158.246094 L 190.253906 163.09375 Z M 201.894531 163.09375 L 201.894531 158.246094 L 197.046875 158.246094 L 197.046875 163.09375 Z M 215.476562 163.09375 L 215.476562 158.246094 L 210.625 158.246094 L 210.625 163.09375 Z M 222.265625 163.09375 L 222.265625 158.246094 L 217.414062 158.246094 L 217.414062 163.09375 Z M 229.054688 163.09375 L 229.054688 158.246094 L 224.203125 158.246094 L 224.203125 163.09375 Z M 235.84375 163.09375 L 235.84375 158.246094 L 230.996094 158.246094 L 230.996094 163.09375 Z M 242.636719 163.09375 L 242.636719 158.246094 L 237.785156 158.246094 L 237.785156 163.09375 Z M 269.796875 163.09375 L 269.796875 158.246094 L 264.945312 158.246094 L 264.945312 163.09375 Z M 18.566406 169.886719 L 18.566406 165.035156 L 13.714844 165.035156 L 13.714844 169.886719 Z M 25.355469 169.886719 L 25.355469 165.035156 L 20.503906 165.035156 L 20.503906 169.886719 Z M 45.726562 169.886719 L 45.726562 165.035156 L 40.875 165.035156 L 40.875 169.886719 Z M 52.515625 169.886719 L 52.515625 165.035156 L 47.664062 165.035156 L 47.664062 169.886719 Z M 66.09375 169.886719 L 66.09375 165.035156 L 61.246094 165.035156 L 61.246094 169.886719 Z M 72.886719 169.886719 L 72.886719 165.035156 L 68.035156 165.035156 L 68.035156 169.886719 Z M 79.675781 169.886719 L 79.675781 165.035156 L 74.824219 165.035156 L 74.824219 169.886719 Z M 154.363281 169.886719 L 154.363281 165.035156 L 149.515625 165.035156 L 149.515625 169.886719 Z M 161.15625 169.886719 L 161.15625 165.035156 L 156.304688 165.035156 L 156.304688 169.886719 Z M 174.734375 169.886719 L 174.734375 165.035156 L 169.886719 165.035156 L 169.886719 169.886719 Z M 188.316406 169.886719 L 188.316406 165.035156 L 183.464844 165.035156 L 183.464844 169.886719 Z M 195.105469 169.886719 L 195.105469 165.035156 L 190.253906 165.035156 L 190.253906 169.886719 Z M 201.894531 169.886719 L 201.894531 165.035156 L 197.046875 165.035156 L 197.046875 169.886719 Z M 208.683594 169.886719 L 208.683594 165.035156 L 203.835938 165.035156 L 203.835938 169.886719 Z M 215.476562 169.886719 L 215.476562 165.035156 L 210.625 165.035156 L 210.625 169.886719 Z M 242.636719 169.886719 L 242.636719 165.035156 L 237.785156 165.035156 L 237.785156 169.886719 Z M 263.003906 169.886719 L 263.003906 165.035156 L 258.15625 165.035156 L 258.15625 169.886719 Z M 269.796875 169.886719 L 269.796875 165.035156 L 264.945312 165.035156 L 264.945312 169.886719 Z M 283.375 169.886719 L 283.375 165.035156 L 278.523438 165.035156 L 278.523438 169.886719 Z M 25.355469 176.675781 L 25.355469 171.824219 L 20.503906 171.824219 L 20.503906 176.675781 Z M 38.933594 176.675781 L 38.933594 171.824219 L 34.085938 171.824219 L 34.085938 176.675781 Z M 45.726562 176.675781 L 45.726562 171.824219 L 40.875 171.824219 L 40.875 176.675781 Z M 52.515625 176.675781 L 52.515625 171.824219 L 47.664062 171.824219 L 47.664062 176.675781 Z M 59.304688 176.675781 L 59.304688 171.824219 L 54.453125 171.824219 L 54.453125 176.675781 Z M 66.09375 176.675781 L 66.09375 171.824219 L 61.246094 171.824219 L 61.246094 176.675781 Z M 79.675781 176.675781 L 79.675781 171.824219 L 74.824219 171.824219 L 74.824219 176.675781 Z M 147.574219 176.675781 L 147.574219 171.824219 L 142.726562 171.824219 L 142.726562 176.675781 Z M 154.363281 176.675781 L 154.363281 171.824219 L 149.515625 171.824219 L 149.515625 176.675781 Z M 161.15625 176.675781 L 161.15625 171.824219 L 156.304688 171.824219 L 156.304688 176.675781 Z M 167.945312 176.675781 L 167.945312 171.824219 L 163.09375 171.824219 L 163.09375 176.675781 Z M 174.734375 176.675781 L 174.734375 171.824219 L 169.886719 171.824219 L 169.886719 176.675781 Z M 181.523438 176.675781 L 181.523438 171.824219 L 176.675781 171.824219 L 176.675781 176.675781 Z M 188.316406 176.675781 L 188.316406 171.824219 L 183.464844 171.824219 L 183.464844 176.675781 Z M 215.476562 176.675781 L 215.476562 171.824219 L 210.625 171.824219 L 210.625 176.675781 Z M 235.84375 176.675781 L 235.84375 171.824219 L 230.996094 171.824219 L 230.996094 176.675781 Z M 242.636719 176.675781 L 242.636719 171.824219 L 237.785156 171.824219 L 237.785156 176.675781 Z M 256.214844 176.675781 L 256.214844 171.824219 L 251.363281 171.824219 L 251.363281 176.675781 Z M 263.003906 176.675781 L 263.003906 171.824219 L 258.15625 171.824219 L 258.15625 176.675781 Z M 269.796875 176.675781 L 269.796875 171.824219 L 264.945312 171.824219 L 264.945312 176.675781 Z M 276.585938 176.675781 L 276.585938 171.824219 L 271.734375 171.824219 L 271.734375 176.675781 Z M 283.375 176.675781 L 283.375 171.824219 L 278.523438 171.824219 L 278.523438 176.675781 Z M 18.566406 183.464844 L 18.566406 178.613281 L 13.714844 178.613281 L 13.714844 183.464844 Z M 25.355469 183.464844 L 25.355469 178.613281 L 20.503906 178.613281 L 20.503906 183.464844 Z M 32.144531 183.464844 L 32.144531 178.613281 L 27.296875 178.613281 L 27.296875 183.464844 Z M 38.933594 183.464844 L 38.933594 178.613281 L 34.085938 178.613281 L 34.085938 183.464844 Z M 66.09375 183.464844 L 66.09375 178.613281 L 61.246094 178.613281 L 61.246094 183.464844 Z M 72.886719 183.464844 L 72.886719 178.613281 L 68.035156 178.613281 L 68.035156 183.464844 Z M 79.675781 183.464844 L 79.675781 178.613281 L 74.824219 178.613281 L 74.824219 183.464844 Z M 140.785156 183.464844 L 140.785156 178.613281 L 135.933594 178.613281 L 135.933594 183.464844 Z M 147.574219 183.464844 L 147.574219 178.613281 L 142.726562 178.613281 L 142.726562 183.464844 Z M 188.316406 183.464844 L 188.316406 178.613281 L 183.464844 178.613281 L 183.464844 183.464844 Z M 208.683594 183.464844 L 208.683594 178.613281 L 203.835938 178.613281 L 203.835938 183.464844 Z M 215.476562 183.464844 L 215.476562 178.613281 L 210.625 178.613281 L 210.625 183.464844 Z M 229.054688 183.464844 L 229.054688 178.613281 L 224.203125 178.613281 L 224.203125 183.464844 Z M 235.84375 183.464844 L 235.84375 178.613281 L 230.996094 178.613281 L 230.996094 183.464844 Z M 242.636719 183.464844 L 242.636719 178.613281 L 237.785156 178.613281 L 237.785156 183.464844 Z M 249.425781 183.464844 L 249.425781 178.613281 L 244.574219 178.613281 L 244.574219 183.464844 Z M 256.214844 183.464844 L 256.214844 178.613281 L 251.363281 178.613281 L 251.363281 183.464844 Z M 283.375 183.464844 L 283.375 178.613281 L 278.523438 178.613281 L 278.523438 183.464844 Z M 38.933594 190.253906 L 38.933594 185.40625 L 34.085938 185.40625 L 34.085938 190.253906 Z M 59.304688 190.253906 L 59.304688 185.40625 L 54.453125 185.40625 L 54.453125 190.253906 Z M 66.09375 190.253906 L 66.09375 185.40625 L 61.246094 185.40625 L 61.246094 190.253906 Z M 79.675781 190.253906 L 79.675781 185.40625 L 74.824219 185.40625 L 74.824219 190.253906 Z M 133.996094 190.253906 L 133.996094 185.40625 L 129.144531 185.40625 L 129.144531 190.253906 Z M 140.785156 190.253906 L 140.785156 185.40625 L 135.933594 185.40625 L 135.933594 190.253906 Z M 147.574219 190.253906 L 147.574219 185.40625 L 142.726562 185.40625 L 142.726562 190.253906 Z M 181.523438 190.253906 L 181.523438 185.40625 L 176.675781 185.40625 L 176.675781 190.253906 Z M 188.316406 190.253906 L 188.316406 185.40625 L 183.464844 185.40625 L 183.464844 190.253906 Z M 201.894531 190.253906 L 201.894531 185.40625 L 197.046875 185.40625 L 197.046875 190.253906 Z M 208.683594 190.253906 L 208.683594 185.40625 L 203.835938 185.40625 L 203.835938 190.253906 Z M 215.476562 190.253906 L 215.476562 185.40625 L 210.625 185.40625 L 210.625 190.253906 Z M 222.265625 190.253906 L 222.265625 185.40625 L 217.414062 185.40625 L 217.414062 190.253906 Z M 229.054688 190.253906 L 229.054688 185.40625 L 224.203125 185.40625 L 224.203125 190.253906 Z M 256.214844 190.253906 L 256.214844 185.40625 L 251.363281 185.40625 L 251.363281 190.253906 Z M 276.585938 190.253906 L 276.585938 185.40625 L 271.734375 185.40625 L 271.734375 190.253906 Z M 283.375 190.253906 L 283.375 185.40625 L 278.523438 185.40625 L 278.523438 190.253906 Z M 32.144531 197.046875 L 32.144531 192.195312 L 27.296875 192.195312 L 27.296875 197.046875 Z M 38.933594 197.046875 L 38.933594 192.195312 L 34.085938 192.195312 L 34.085938 197.046875 Z M 52.515625 197.046875 L 52.515625 192.195312 L 47.664062 192.195312 L 47.664062 197.046875 Z M 59.304688 197.046875 L 59.304688 192.195312 L 54.453125 192.195312 L 54.453125 197.046875 Z M 66.09375 197.046875 L 66.09375 192.195312 L 61.246094 192.195312 L 61.246094 197.046875 Z M 72.886719 197.046875 L 72.886719 192.195312 L 68.035156 192.195312 L 68.035156 197.046875 Z M 79.675781 197.046875 L 79.675781 192.195312 L 74.824219 192.195312 L 74.824219 197.046875 Z M 127.203125 197.046875 L 127.203125 192.195312 L 122.355469 192.195312 L 122.355469 197.046875 Z M 133.996094 197.046875 L 133.996094 192.195312 L 129.144531 192.195312 L 129.144531 197.046875 Z M 147.574219 197.046875 L 147.574219 192.195312 L 142.726562 192.195312 L 142.726562 197.046875 Z M 174.734375 197.046875 L 174.734375 192.195312 L 169.886719 192.195312 L 169.886719 197.046875 Z M 181.523438 197.046875 L 181.523438 192.195312 L 176.675781 192.195312 L 176.675781 197.046875 Z M 188.316406 197.046875 L 188.316406 192.195312 L 183.464844 192.195312 L 183.464844 197.046875 Z M 195.105469 197.046875 L 195.105469 192.195312 L 190.253906 192.195312 L 190.253906 197.046875 Z M 201.894531 197.046875 L 201.894531 192.195312 L 197.046875 192.195312 L 197.046875 197.046875 Z M 229.054688 197.046875 L 229.054688 192.195312 L 224.203125 192.195312 L 224.203125 197.046875 Z M 249.425781 197.046875 L 249.425781 192.195312 L 244.574219 192.195312 L 244.574219 197.046875 Z M 256.214844 197.046875 L 256.214844 192.195312 L 251.363281 192.195312 L 251.363281 197.046875 Z M 269.796875 197.046875 L 269.796875 192.195312 L 264.945312 192.195312 L 264.945312 197.046875 Z M 276.585938 197.046875 L 276.585938 192.195312 L 271.734375 192.195312 L 271.734375 197.046875 Z M 283.375 197.046875 L 283.375 192.195312 L 278.523438 192.195312 L 278.523438 197.046875 Z M 25.355469 203.835938 L 25.355469 198.984375 L 20.503906 198.984375 L 20.503906 203.835938 Z M 32.144531 203.835938 L 32.144531 198.984375 L 27.296875 198.984375 L 27.296875 203.835938 Z M 38.933594 203.835938 L 38.933594 198.984375 L 34.085938 198.984375 L 34.085938 203.835938 Z M 45.726562 203.835938 L 45.726562 198.984375 L 40.875 198.984375 L 40.875 203.835938 Z M 52.515625 203.835938 L 52.515625 198.984375 L 47.664062 198.984375 L 47.664062 203.835938 Z M 79.675781 203.835938 L 79.675781 198.984375 L 74.824219 198.984375 L 74.824219 203.835938 Z M 120.414062 203.835938 L 120.414062 198.984375 L 115.566406 198.984375 L 115.566406 203.835938 Z M 127.203125 203.835938 L 127.203125 198.984375 L 122.355469 198.984375 L 122.355469 203.835938 Z M 133.996094 203.835938 L 133.996094 198.984375 L 129.144531 198.984375 L 129.144531 203.835938 Z M 140.785156 203.835938 L 140.785156 198.984375 L 135.933594 198.984375 L 135.933594 203.835938 Z M 147.574219 203.835938 L 147.574219 198.984375 L 142.726562 198.984375 L 142.726562 203.835938 Z M 167.945312 203.835938 L 167.945312 198.984375 L 163.09375 198.984375 L 163.09375 203.835938 Z M 174.734375 203.835938 L 174.734375 198.984375 L 169.886719 198.984375 L 169.886719 203.835938 Z M 201.894531 203.835938 L 201.894531 198.984375 L 197.046875 198.984375 L 197.046875 203.835938 Z M 222.265625 203.835938 L 222.265625 198.984375 L 217.414062 198.984375 L 217.414062 203.835938 Z M 229.054688 203.835938 L 229.054688 198.984375 L 224.203125 198.984375 L 224.203125 203.835938 Z M 242.636719 203.835938 L 242.636719 198.984375 L 237.785156 198.984375 L 237.785156 203.835938 Z M 249.425781 203.835938 L 249.425781 198.984375 L 244.574219 198.984375 L 244.574219 203.835938 Z M 256.214844 203.835938 L 256.214844 198.984375 L 251.363281 198.984375 L 251.363281 203.835938 Z M 263.003906 203.835938 L 263.003906 198.984375 L 258.15625 198.984375 L 258.15625 203.835938 Z M 269.796875 203.835938 L 269.796875 198.984375 L 264.945312 198.984375 L 264.945312 203.835938 Z M 283.375 203.835938 L 283.375 198.984375 L 278.523438 198.984375 L 278.523438 203.835938 Z M 18.566406 210.625 L 18.566406 205.773438 L 13.714844 205.773438 L 13.714844 210.625 Z M 25.355469 210.625 L 25.355469 205.773438 L 20.503906 205.773438 L 20.503906 210.625 Z M 52.515625 210.625 L 52.515625 205.773438 L 47.664062 205.773438 L 47.664062 210.625 Z M 72.886719 210.625 L 72.886719 205.773438 L 68.035156 205.773438 L 68.035156 210.625 Z M 79.675781 210.625 L 79.675781 205.773438 L 74.824219 205.773438 L 74.824219 210.625 Z M 113.625 210.625 L 113.625 205.773438 L 108.773438 205.773438 L 108.773438 210.625 Z M 120.414062 210.625 L 120.414062 205.773438 L 115.566406 205.773438 L 115.566406 210.625 Z M 147.574219 210.625 L 147.574219 205.773438 L 142.726562 205.773438 L 142.726562 210.625 Z M 161.15625 210.625 L 161.15625 205.773438 L 156.304688 205.773438 L 156.304688 210.625 Z M 167.945312 210.625 L 167.945312 205.773438 L 163.09375 205.773438 L 163.09375 210.625 Z M 174.734375 210.625 L 174.734375 205.773438 L 169.886719 205.773438 L 169.886719 210.625 Z M 195.105469 210.625 L 195.105469 205.773438 L 190.253906 205.773438 L 190.253906 210.625 Z M 201.894531 210.625 L 201.894531 205.773438 L 197.046875 205.773438 L 197.046875 210.625 Z M 215.476562 210.625 L 215.476562 205.773438 L 210.625 205.773438 L 210.625 210.625 Z M 222.265625 210.625 L 222.265625 205.773438 L 217.414062 205.773438 L 217.414062 210.625 Z M 229.054688 210.625 L 229.054688 205.773438 L 224.203125 205.773438 L 224.203125 210.625 Z M 235.84375 210.625 L 235.84375 205.773438 L 230.996094 205.773438 L 230.996094 210.625 Z M 242.636719 210.625 L 242.636719 205.773438 L 237.785156 205.773438 L 237.785156 210.625 Z M 269.796875 210.625 L 269.796875 205.773438 L 264.945312 205.773438 L 264.945312 210.625 Z M 276.585938 210.625 L 276.585938 205.773438 L 271.734375 205.773438 L 271.734375 210.625 Z M 283.375 210.625 L 283.375 205.773438 L 278.523438 205.773438 L 278.523438 210.625 Z M 25.355469 217.414062 L 25.355469 212.566406 L 20.503906 212.566406 L 20.503906 217.414062 Z M 45.726562 217.414062 L 45.726562 212.566406 L 40.875 212.566406 L 40.875 217.414062 Z M 52.515625 217.414062 L 52.515625 212.566406 L 47.664062 212.566406 L 47.664062 217.414062 Z M 66.09375 217.414062 L 66.09375 212.566406 L 61.246094 212.566406 L 61.246094 217.414062 Z M 72.886719 217.414062 L 72.886719 212.566406 L 68.035156 212.566406 L 68.035156 217.414062 Z M 79.675781 217.414062 L 79.675781 212.566406 L 74.824219 212.566406 L 74.824219 217.414062 Z M 106.835938 217.414062 L 106.835938 212.566406 L 101.984375 212.566406 L 101.984375 217.414062 Z M 113.625 217.414062 L 113.625 212.566406 L 108.773438 212.566406 L 108.773438 217.414062 Z M 120.414062 217.414062 L 120.414062 212.566406 L 115.566406 212.566406 L 115.566406 217.414062 Z M 140.785156 217.414062 L 140.785156 212.566406 L 135.933594 212.566406 L 135.933594 217.414062 Z M 147.574219 217.414062 L 147.574219 212.566406 L 142.726562 212.566406 L 142.726562 217.414062 Z M 154.363281 217.414062 L 154.363281 212.566406 L 149.515625 212.566406 L 149.515625 217.414062 Z M 161.15625 217.414062 L 161.15625 212.566406 L 156.304688 212.566406 L 156.304688 217.414062 Z M 174.734375 217.414062 L 174.734375 212.566406 L 169.886719 212.566406 L 169.886719 217.414062 Z M 188.316406 217.414062 L 188.316406 212.566406 L 183.464844 212.566406 L 183.464844 217.414062 Z M 195.105469 217.414062 L 195.105469 212.566406 L 190.253906 212.566406 L 190.253906 217.414062 Z M 201.894531 217.414062 L 201.894531 212.566406 L 197.046875 212.566406 L 197.046875 217.414062 Z M 208.683594 217.414062 L 208.683594 212.566406 L 203.835938 212.566406 L 203.835938 217.414062 Z M 215.476562 217.414062 L 215.476562 212.566406 L 210.625 212.566406 L 210.625 217.414062 Z M 242.636719 217.414062 L 242.636719 212.566406 L 237.785156 212.566406 L 237.785156 217.414062 Z M 263.003906 217.414062 L 263.003906 212.566406 L 258.15625 212.566406 L 258.15625 217.414062 Z M 269.796875 217.414062 L 269.796875 212.566406 L 264.945312 212.566406 L 264.945312 217.414062 Z M 18.566406 224.203125 L 18.566406 219.355469 L 13.714844 219.355469 L 13.714844 224.203125 Z M 25.355469 224.203125 L 25.355469 219.355469 L 20.503906 219.355469 L 20.503906 224.203125 Z M 38.933594 224.203125 L 38.933594 219.355469 L 34.085938 219.355469 L 34.085938 224.203125 Z M 45.726562 224.203125 L 45.726562 219.355469 L 40.875 219.355469 L 40.875 224.203125 Z M 52.515625 224.203125 L 52.515625 219.355469 L 47.664062 219.355469 L 47.664062 224.203125 Z M 59.304688 224.203125 L 59.304688 219.355469 L 54.453125 219.355469 L 54.453125 224.203125 Z M 66.09375 224.203125 L 66.09375 219.355469 L 61.246094 219.355469 L 61.246094 224.203125 Z M 79.675781 224.203125 L 79.675781 219.355469 L 74.824219 219.355469 L 74.824219 224.203125 Z M 100.046875 224.203125 L 100.046875 219.355469 L 95.195312 219.355469 L 95.195312 224.203125 Z M 106.835938 224.203125 L 106.835938 219.355469 L 101.984375 219.355469 L 101.984375 224.203125 Z M 120.414062 224.203125 L 120.414062 219.355469 L 115.566406 219.355469 L 115.566406 224.203125 Z M 133.996094 224.203125 L 133.996094 219.355469 L 129.144531 219.355469 L 129.144531 224.203125 Z M 140.785156 224.203125 L 140.785156 219.355469 L 135.933594 219.355469 L 135.933594 224.203125 Z M 161.15625 224.203125 L 161.15625 219.355469 L 156.304688 219.355469 L 156.304688 224.203125 Z M 167.945312 224.203125 L 167.945312 219.355469 L 163.09375 219.355469 L 163.09375 224.203125 Z M 174.734375 224.203125 L 174.734375 219.355469 L 169.886719 219.355469 L 169.886719 224.203125 Z M 181.523438 224.203125 L 181.523438 219.355469 L 176.675781 219.355469 L 176.675781 224.203125 Z M 188.316406 224.203125 L 188.316406 219.355469 L 183.464844 219.355469 L 183.464844 224.203125 Z M 215.476562 224.203125 L 215.476562 219.355469 L 210.625 219.355469 L 210.625 224.203125 Z M 235.84375 224.203125 L 235.84375 219.355469 L 230.996094 219.355469 L 230.996094 224.203125 Z M 242.636719 224.203125 L 242.636719 219.355469 L 237.785156 219.355469 L 237.785156 224.203125 Z M 256.214844 224.203125 L 256.214844 219.355469 L 251.363281 219.355469 L 251.363281 224.203125 Z M 263.003906 224.203125 L 263.003906 219.355469 L 258.15625 219.355469 L 258.15625 224.203125 Z M 269.796875 224.203125 L 269.796875 219.355469 L 264.945312 219.355469 L 264.945312 224.203125 Z M 18.566406 230.996094 L 18.566406 226.144531 L 13.714844 226.144531 L 13.714844 230.996094 Z M 25.355469 230.996094 L 25.355469 226.144531 L 20.503906 226.144531 L 20.503906 230.996094 Z M 32.144531 230.996094 L 32.144531 226.144531 L 27.296875 226.144531 L 27.296875 230.996094 Z M 38.933594 230.996094 L 38.933594 226.144531 L 34.085938 226.144531 L 34.085938 230.996094 Z M 66.09375 230.996094 L 66.09375 226.144531 L 61.246094 226.144531 L 61.246094 230.996094 Z M 72.886719 230.996094 L 72.886719 226.144531 L 68.035156 226.144531 L 68.035156 230.996094 Z M 79.675781 230.996094 L 79.675781 226.144531 L 74.824219 226.144531 L 74.824219 230.996094 Z M 93.253906 230.996094 L 93.253906 226.144531 L 88.40625 226.144531 L 88.40625 230.996094 Z M 100.046875 230.996094 L 100.046875 226.144531 L 95.195312 226.144531 L 95.195312 230.996094 Z M 106.835938 230.996094 L 106.835938 226.144531 L 101.984375 226.144531 L 101.984375 230.996094 Z M 113.625 230.996094 L 113.625 226.144531 L 108.773438 226.144531 L 108.773438 230.996094 Z M 120.414062 230.996094 L 120.414062 226.144531 L 115.566406 226.144531 L 115.566406 230.996094 Z M 127.203125 230.996094 L 127.203125 226.144531 L 122.355469 226.144531 L 122.355469 230.996094 Z M 133.996094 230.996094 L 133.996094 226.144531 L 129.144531 226.144531 L 129.144531 230.996094 Z M 140.785156 230.996094 L 140.785156 226.144531 L 135.933594 226.144531 L 135.933594 230.996094 Z M 154.363281 230.996094 L 154.363281 226.144531 L 149.515625 226.144531 L 149.515625 230.996094 Z M 161.15625 230.996094 L 161.15625 226.144531 L 156.304688 226.144531 L 156.304688 230.996094 Z M 188.316406 230.996094 L 188.316406 226.144531 L 183.464844 226.144531 L 183.464844 230.996094 Z M 208.683594 230.996094 L 208.683594 226.144531 L 203.835938 226.144531 L 203.835938 230.996094 Z M 215.476562 230.996094 L 215.476562 226.144531 L 210.625 226.144531 L 210.625 230.996094 Z M 229.054688 230.996094 L 229.054688 226.144531 L 224.203125 226.144531 L 224.203125 230.996094 Z M 235.84375 230.996094 L 235.84375 226.144531 L 230.996094 226.144531 L 230.996094 230.996094 Z M 242.636719 230.996094 L 242.636719 226.144531 L 237.785156 226.144531 L 237.785156 230.996094 Z M 249.425781 230.996094 L 249.425781 226.144531 L 244.574219 226.144531 L 244.574219 230.996094 Z M 256.214844 230.996094 L 256.214844 226.144531 L 251.363281 226.144531 L 251.363281 230.996094 Z M 269.796875 230.996094 L 269.796875 226.144531 L 264.945312 226.144531 L 264.945312 230.996094 Z M 283.375 230.996094 L 283.375 226.144531 L 278.523438 226.144531 L 278.523438 230.996094 Z M 38.933594 237.785156 L 38.933594 232.933594 L 34.085938 232.933594 L 34.085938 237.785156 Z M 59.304688 237.785156 L 59.304688 232.933594 L 54.453125 232.933594 L 54.453125 237.785156 Z M 66.09375 237.785156 L 66.09375 232.933594 L 61.246094 232.933594 L 61.246094 237.785156 Z M 79.675781 237.785156 L 79.675781 232.933594 L 74.824219 232.933594 L 74.824219 237.785156 Z M 86.464844 237.785156 L 86.464844 232.933594 L 81.613281 232.933594 L 81.613281 237.785156 Z M 93.253906 237.785156 L 93.253906 232.933594 L 88.40625 232.933594 L 88.40625 237.785156 Z M 140.785156 237.785156 L 140.785156 232.933594 L 135.933594 232.933594 L 135.933594 237.785156 Z M 147.574219 237.785156 L 147.574219 232.933594 L 142.726562 232.933594 L 142.726562 237.785156 Z M 154.363281 237.785156 L 154.363281 232.933594 L 149.515625 232.933594 L 149.515625 237.785156 Z M 161.15625 237.785156 L 161.15625 232.933594 L 156.304688 232.933594 L 156.304688 237.785156 Z M 181.523438 237.785156 L 181.523438 232.933594 L 176.675781 232.933594 L 176.675781 237.785156 Z M 188.316406 237.785156 L 188.316406 232.933594 L 183.464844 232.933594 L 183.464844 237.785156 Z M 201.894531 237.785156 L 201.894531 232.933594 L 197.046875 232.933594 L 197.046875 237.785156 Z M 208.683594 237.785156 L 208.683594 232.933594 L 203.835938 232.933594 L 203.835938 237.785156 Z M 215.476562 237.785156 L 215.476562 232.933594 L 210.625 232.933594 L 210.625 237.785156 Z M 222.265625 237.785156 L 222.265625 232.933594 L 217.414062 232.933594 L 217.414062 237.785156 Z M 229.054688 237.785156 L 229.054688 232.933594 L 224.203125 232.933594 L 224.203125 237.785156 Z M 256.214844 237.785156 L 256.214844 232.933594 L 251.363281 232.933594 L 251.363281 237.785156 Z M 263.003906 237.785156 L 263.003906 232.933594 L 258.15625 232.933594 L 258.15625 237.785156 Z M 269.796875 237.785156 L 269.796875 232.933594 L 264.945312 232.933594 L 264.945312 237.785156 Z M 276.585938 237.785156 L 276.585938 232.933594 L 271.734375 232.933594 L 271.734375 237.785156 Z M 283.375 237.785156 L 283.375 232.933594 L 278.523438 232.933594 L 278.523438 237.785156 Z M 32.144531 244.574219 L 32.144531 239.726562 L 27.296875 239.726562 L 27.296875 244.574219 Z M 38.933594 244.574219 L 38.933594 239.726562 L 34.085938 239.726562 L 34.085938 244.574219 Z M 52.515625 244.574219 L 52.515625 239.726562 L 47.664062 239.726562 L 47.664062 244.574219 Z M 59.304688 244.574219 L 59.304688 239.726562 L 54.453125 239.726562 L 54.453125 244.574219 Z M 66.09375 244.574219 L 66.09375 239.726562 L 61.246094 239.726562 L 61.246094 244.574219 Z M 72.886719 244.574219 L 72.886719 239.726562 L 68.035156 239.726562 L 68.035156 244.574219 Z M 79.675781 244.574219 L 79.675781 239.726562 L 74.824219 239.726562 L 74.824219 244.574219 Z M 93.253906 244.574219 L 93.253906 239.726562 L 88.40625 239.726562 L 88.40625 244.574219 Z M 133.996094 244.574219 L 133.996094 239.726562 L 129.144531 239.726562 L 129.144531 244.574219 Z M 140.785156 244.574219 L 140.785156 239.726562 L 135.933594 239.726562 L 135.933594 244.574219 Z M 161.15625 244.574219 L 161.15625 239.726562 L 156.304688 239.726562 L 156.304688 244.574219 Z M 174.734375 244.574219 L 174.734375 239.726562 L 169.886719 239.726562 L 169.886719 244.574219 Z M 181.523438 244.574219 L 181.523438 239.726562 L 176.675781 239.726562 L 176.675781 244.574219 Z M 188.316406 244.574219 L 188.316406 239.726562 L 183.464844 239.726562 L 183.464844 244.574219 Z M 195.105469 244.574219 L 195.105469 239.726562 L 190.253906 239.726562 L 190.253906 244.574219 Z M 201.894531 244.574219 L 201.894531 239.726562 L 197.046875 239.726562 L 197.046875 244.574219 Z M 229.054688 244.574219 L 229.054688 239.726562 L 224.203125 239.726562 L 224.203125 244.574219 Z M 249.425781 244.574219 L 249.425781 239.726562 L 244.574219 239.726562 L 244.574219 244.574219 Z M 256.214844 244.574219 L 256.214844 239.726562 L 251.363281 239.726562 L 251.363281 244.574219 Z M 283.375 244.574219 L 283.375 239.726562 L 278.523438 239.726562 L 278.523438 244.574219 Z M 25.355469 251.363281 L 25.355469 246.515625 L 20.503906 246.515625 L 20.503906 251.363281 Z M 32.144531 251.363281 L 32.144531 246.515625 L 27.296875 246.515625 L 27.296875 251.363281 Z M 38.933594 251.363281 L 38.933594 246.515625 L 34.085938 246.515625 L 34.085938 251.363281 Z M 45.726562 251.363281 L 45.726562 246.515625 L 40.875 246.515625 L 40.875 251.363281 Z M 52.515625 251.363281 L 52.515625 246.515625 L 47.664062 246.515625 L 47.664062 251.363281 Z M 79.675781 251.363281 L 79.675781 246.515625 L 74.824219 246.515625 L 74.824219 251.363281 Z M 86.464844 251.363281 L 86.464844 246.515625 L 81.613281 246.515625 L 81.613281 251.363281 Z M 93.253906 251.363281 L 93.253906 246.515625 L 88.40625 246.515625 L 88.40625 251.363281 Z M 127.203125 251.363281 L 127.203125 246.515625 L 122.355469 246.515625 L 122.355469 251.363281 Z M 133.996094 251.363281 L 133.996094 246.515625 L 129.144531 246.515625 L 129.144531 251.363281 Z M 140.785156 251.363281 L 140.785156 246.515625 L 135.933594 246.515625 L 135.933594 251.363281 Z M 154.363281 251.363281 L 154.363281 246.515625 L 149.515625 246.515625 L 149.515625 251.363281 Z M 161.15625 251.363281 L 161.15625 246.515625 L 156.304688 246.515625 L 156.304688 251.363281 Z M 167.945312 251.363281 L 167.945312 246.515625 L 163.09375 246.515625 L 163.09375 251.363281 Z M 174.734375 251.363281 L 174.734375 246.515625 L 169.886719 246.515625 L 169.886719 251.363281 Z M 201.894531 251.363281 L 201.894531 246.515625 L 197.046875 246.515625 L 197.046875 251.363281 Z M 222.265625 251.363281 L 222.265625 246.515625 L 217.414062 246.515625 L 217.414062 251.363281 Z M 229.054688 251.363281 L 229.054688 246.515625 L 224.203125 246.515625 L 224.203125 251.363281 Z M 242.636719 251.363281 L 242.636719 246.515625 L 237.785156 246.515625 L 237.785156 251.363281 Z M 249.425781 251.363281 L 249.425781 246.515625 L 244.574219 246.515625 L 244.574219 251.363281 Z M 256.214844 251.363281 L 256.214844 246.515625 L 251.363281 246.515625 L 251.363281 251.363281 Z M 276.585938 251.363281 L 276.585938 246.515625 L 271.734375 246.515625 L 271.734375 251.363281 Z M 283.375 251.363281 L 283.375 246.515625 L 278.523438 246.515625 L 278.523438 251.363281 Z M 18.566406 258.15625 L 18.566406 253.304688 L 13.714844 253.304688 L 13.714844 258.15625 Z M 25.355469 258.15625 L 25.355469 253.304688 L 20.503906 253.304688 L 20.503906 258.15625 Z M 52.515625 258.15625 L 52.515625 253.304688 L 47.664062 253.304688 L 47.664062 258.15625 Z M 72.886719 258.15625 L 72.886719 253.304688 L 68.035156 253.304688 L 68.035156 258.15625 Z M 79.675781 258.15625 L 79.675781 253.304688 L 74.824219 253.304688 L 74.824219 258.15625 Z M 93.253906 258.15625 L 93.253906 253.304688 L 88.40625 253.304688 L 88.40625 258.15625 Z M 120.414062 258.15625 L 120.414062 253.304688 L 115.566406 253.304688 L 115.566406 258.15625 Z M 127.203125 258.15625 L 127.203125 253.304688 L 122.355469 253.304688 L 122.355469 258.15625 Z M 140.785156 258.15625 L 140.785156 253.304688 L 135.933594 253.304688 L 135.933594 258.15625 Z M 147.574219 258.15625 L 147.574219 253.304688 L 142.726562 253.304688 L 142.726562 258.15625 Z M 154.363281 258.15625 L 154.363281 253.304688 L 149.515625 253.304688 L 149.515625 258.15625 Z M 174.734375 258.15625 L 174.734375 253.304688 L 169.886719 253.304688 L 169.886719 258.15625 Z M 195.105469 258.15625 L 195.105469 253.304688 L 190.253906 253.304688 L 190.253906 258.15625 Z M 201.894531 258.15625 L 201.894531 253.304688 L 197.046875 253.304688 L 197.046875 258.15625 Z M 215.476562 258.15625 L 215.476562 253.304688 L 210.625 253.304688 L 210.625 258.15625 Z M 222.265625 258.15625 L 222.265625 253.304688 L 217.414062 253.304688 L 217.414062 258.15625 Z M 229.054688 258.15625 L 229.054688 253.304688 L 224.203125 253.304688 L 224.203125 258.15625 Z M 235.84375 258.15625 L 235.84375 253.304688 L 230.996094 253.304688 L 230.996094 258.15625 Z M 242.636719 258.15625 L 242.636719 253.304688 L 237.785156 253.304688 L 237.785156 258.15625 Z M 256.214844 258.15625 L 256.214844 253.304688 L 251.363281 253.304688 L 251.363281 258.15625 Z M 269.796875 258.15625 L 269.796875 253.304688 L 264.945312 253.304688 L 264.945312 258.15625 Z M 276.585938 258.15625 L 276.585938 253.304688 L 271.734375 253.304688 L 271.734375 258.15625 Z M 283.375 258.15625 L 283.375 253.304688 L 278.523438 253.304688 L 278.523438 258.15625 Z M 25.355469 264.945312 L 25.355469 260.09375 L 20.503906 260.09375 L 20.503906 264.945312 Z M 45.726562 264.945312 L 45.726562 260.09375 L 40.875 260.09375 L 40.875 264.945312 Z M 52.515625 264.945312 L 52.515625 260.09375 L 47.664062 260.09375 L 47.664062 264.945312 Z M 66.09375 264.945312 L 66.09375 260.09375 L 61.246094 260.09375 L 61.246094 264.945312 Z M 72.886719 264.945312 L 72.886719 260.09375 L 68.035156 260.09375 L 68.035156 264.945312 Z M 79.675781 264.945312 L 79.675781 260.09375 L 74.824219 260.09375 L 74.824219 264.945312 Z M 86.464844 264.945312 L 86.464844 260.09375 L 81.613281 260.09375 L 81.613281 264.945312 Z M 93.253906 264.945312 L 93.253906 260.09375 L 88.40625 260.09375 L 88.40625 264.945312 Z M 113.625 264.945312 L 113.625 260.09375 L 108.773438 260.09375 L 108.773438 264.945312 Z M 120.414062 264.945312 L 120.414062 260.09375 L 115.566406 260.09375 L 115.566406 264.945312 Z M 127.203125 264.945312 L 127.203125 260.09375 L 122.355469 260.09375 L 122.355469 264.945312 Z M 133.996094 264.945312 L 133.996094 260.09375 L 129.144531 260.09375 L 129.144531 264.945312 Z M 140.785156 264.945312 L 140.785156 260.09375 L 135.933594 260.09375 L 135.933594 264.945312 Z M 154.363281 264.945312 L 154.363281 260.09375 L 149.515625 260.09375 L 149.515625 264.945312 Z M 167.945312 264.945312 L 167.945312 260.09375 L 163.09375 260.09375 L 163.09375 264.945312 Z M 174.734375 264.945312 L 174.734375 260.09375 L 169.886719 260.09375 L 169.886719 264.945312 Z M 188.316406 264.945312 L 188.316406 260.09375 L 183.464844 260.09375 L 183.464844 264.945312 Z M 195.105469 264.945312 L 195.105469 260.09375 L 190.253906 260.09375 L 190.253906 264.945312 Z M 201.894531 264.945312 L 201.894531 260.09375 L 197.046875 260.09375 L 197.046875 264.945312 Z M 208.683594 264.945312 L 208.683594 260.09375 L 203.835938 260.09375 L 203.835938 264.945312 Z M 215.476562 264.945312 L 215.476562 260.09375 L 210.625 260.09375 L 210.625 264.945312 Z M 242.636719 264.945312 L 242.636719 260.09375 L 237.785156 260.09375 L 237.785156 264.945312 Z M 249.425781 264.945312 L 249.425781 260.09375 L 244.574219 260.09375 L 244.574219 264.945312 Z M 256.214844 264.945312 L 256.214844 260.09375 L 251.363281 260.09375 L 251.363281 264.945312 Z M 263.003906 264.945312 L 263.003906 260.09375 L 258.15625 260.09375 L 258.15625 264.945312 Z M 269.796875 264.945312 L 269.796875 260.09375 L 264.945312 260.09375 L 264.945312 264.945312 Z M 18.566406 271.734375 L 18.566406 266.886719 L 13.714844 266.886719 L 13.714844 271.734375 Z M 25.355469 271.734375 L 25.355469 266.886719 L 20.503906 266.886719 L 20.503906 271.734375 Z M 38.933594 271.734375 L 38.933594 266.886719 L 34.085938 266.886719 L 34.085938 271.734375 Z M 45.726562 271.734375 L 45.726562 266.886719 L 40.875 266.886719 L 40.875 271.734375 Z M 52.515625 271.734375 L 52.515625 266.886719 L 47.664062 266.886719 L 47.664062 271.734375 Z M 59.304688 271.734375 L 59.304688 266.886719 L 54.453125 266.886719 L 54.453125 271.734375 Z M 66.09375 271.734375 L 66.09375 266.886719 L 61.246094 266.886719 L 61.246094 271.734375 Z M 93.253906 271.734375 L 93.253906 266.886719 L 88.40625 266.886719 L 88.40625 271.734375 Z M 106.835938 271.734375 L 106.835938 266.886719 L 101.984375 266.886719 L 101.984375 271.734375 Z M 113.625 271.734375 L 113.625 266.886719 L 108.773438 266.886719 L 108.773438 271.734375 Z M 140.785156 271.734375 L 140.785156 266.886719 L 135.933594 266.886719 L 135.933594 271.734375 Z M 147.574219 271.734375 L 147.574219 266.886719 L 142.726562 266.886719 L 142.726562 271.734375 Z M 154.363281 271.734375 L 154.363281 266.886719 L 149.515625 266.886719 L 149.515625 271.734375 Z M 161.15625 271.734375 L 161.15625 266.886719 L 156.304688 266.886719 L 156.304688 271.734375 Z M 167.945312 271.734375 L 167.945312 266.886719 L 163.09375 266.886719 L 163.09375 271.734375 Z M 174.734375 271.734375 L 174.734375 266.886719 L 169.886719 266.886719 L 169.886719 271.734375 Z M 181.523438 271.734375 L 181.523438 266.886719 L 176.675781 266.886719 L 176.675781 271.734375 Z M 188.316406 271.734375 L 188.316406 266.886719 L 183.464844 266.886719 L 183.464844 271.734375 Z M 215.476562 271.734375 L 215.476562 266.886719 L 210.625 266.886719 L 210.625 271.734375 Z M 235.84375 271.734375 L 235.84375 266.886719 L 230.996094 266.886719 L 230.996094 271.734375 Z M 242.636719 271.734375 L 242.636719 266.886719 L 237.785156 266.886719 L 237.785156 271.734375 Z M 269.796875 271.734375 L 269.796875 266.886719 L 264.945312 266.886719 L 264.945312 271.734375 Z M 18.566406 278.523438 L 18.566406 273.675781 L 13.714844 273.675781 L 13.714844 278.523438 Z M 25.355469 278.523438 L 25.355469 273.675781 L 20.503906 273.675781 L 20.503906 278.523438 Z M 32.144531 278.523438 L 32.144531 273.675781 L 27.296875 273.675781 L 27.296875 278.523438 Z M 38.933594 278.523438 L 38.933594 273.675781 L 34.085938 273.675781 L 34.085938 278.523438 Z M 66.09375 278.523438 L 66.09375 273.675781 L 61.246094 273.675781 L 61.246094 278.523438 Z M 86.464844 278.523438 L 86.464844 273.675781 L 81.613281 273.675781 L 81.613281 278.523438 Z M 93.253906 278.523438 L 93.253906 273.675781 L 88.40625 273.675781 L 88.40625 278.523438 Z M 100.046875 278.523438 L 100.046875 273.675781 L 95.195312 273.675781 L 95.195312 278.523438 Z M 106.835938 278.523438 L 106.835938 273.675781 L 101.984375 273.675781 L 101.984375 278.523438 Z M 113.625 278.523438 L 113.625 273.675781 L 108.773438 273.675781 L 108.773438 278.523438 Z M 133.996094 278.523438 L 133.996094 273.675781 L 129.144531 273.675781 L 129.144531 278.523438 Z M 140.785156 278.523438 L 140.785156 273.675781 L 135.933594 273.675781 L 135.933594 278.523438 Z M 188.316406 278.523438 L 188.316406 273.675781 L 183.464844 273.675781 L 183.464844 278.523438 Z M 208.683594 278.523438 L 208.683594 273.675781 L 203.835938 273.675781 L 203.835938 278.523438 Z M 215.476562 278.523438 L 215.476562 273.675781 L 210.625 273.675781 L 210.625 278.523438 Z M 229.054688 278.523438 L 229.054688 273.675781 L 224.203125 273.675781 L 224.203125 278.523438 Z M 235.84375 278.523438 L 235.84375 273.675781 L 230.996094 273.675781 L 230.996094 278.523438 Z M 242.636719 278.523438 L 242.636719 273.675781 L 237.785156 273.675781 L 237.785156 278.523438 Z M 263.003906 278.523438 L 263.003906 273.675781 L 258.15625 273.675781 L 258.15625 278.523438 Z M 269.796875 278.523438 L 269.796875 273.675781 L 264.945312 273.675781 L 264.945312 278.523438 Z M 283.375 278.523438 L 283.375 273.675781 L 278.523438 273.675781 L 278.523438 278.523438 Z M 38.933594 285.316406 L 38.933594 280.464844 L 34.085938 280.464844 L 34.085938 285.316406 Z M 59.304688 285.316406 L 59.304688 280.464844 L 54.453125 280.464844 L 54.453125 285.316406 Z M 66.09375 285.316406 L 66.09375 280.464844 L 61.246094 280.464844 L 61.246094 285.316406 Z M 79.675781 285.316406 L 79.675781 280.464844 L 74.824219 280.464844 L 74.824219 285.316406 Z M 86.464844 285.316406 L 86.464844 280.464844 L 81.613281 280.464844 L 81.613281 285.316406 Z M 113.625 285.316406 L 113.625 280.464844 L 108.773438 280.464844 L 108.773438 285.316406 Z M 127.203125 285.316406 L 127.203125 280.464844 L 122.355469 280.464844 L 122.355469 285.316406 Z M 133.996094 285.316406 L 133.996094 280.464844 L 129.144531 280.464844 L 129.144531 285.316406 Z M 140.785156 285.316406 L 140.785156 280.464844 L 135.933594 280.464844 L 135.933594 285.316406 Z M 181.523438 285.316406 L 181.523438 280.464844 L 176.675781 280.464844 L 176.675781 285.316406 Z M 188.316406 285.316406 L 188.316406 280.464844 L 183.464844 280.464844 L 183.464844 285.316406 Z M 201.894531 285.316406 L 201.894531 280.464844 L 197.046875 280.464844 L 197.046875 285.316406 Z M 208.683594 285.316406 L 208.683594 280.464844 L 203.835938 280.464844 L 203.835938 285.316406 Z M 215.476562 285.316406 L 215.476562 280.464844 L 210.625 280.464844 L 210.625 285.316406 Z M 222.265625 285.316406 L 222.265625 280.464844 L 217.414062 280.464844 L 217.414062 285.316406 Z M 229.054688 285.316406 L 229.054688 280.464844 L 224.203125 280.464844 L 224.203125 285.316406 Z M 242.636719 285.316406 L 242.636719 280.464844 L 237.785156 280.464844 L 237.785156 285.316406 Z M 256.214844 285.316406 L 256.214844 280.464844 L 251.363281 280.464844 L 251.363281 285.316406 Z M 263.003906 285.316406 L 263.003906 280.464844 L 258.15625 280.464844 L 258.15625 285.316406 Z M 269.796875 285.316406 L 269.796875 280.464844 L 264.945312 280.464844 L 264.945312 285.316406 Z M 276.585938 285.316406 L 276.585938 280.464844 L 271.734375 280.464844 L 271.734375 285.316406 Z M 283.375 285.316406 L 283.375 280.464844 L 278.523438 280.464844 L 278.523438 285.316406 Z M 283.375 285.316406 "/>
</g>
</svg>
