<?xml version="1.0" encoding="utf-8"?>
<!-- Generator: Adobe Illustrator 18.0.0, SVG Export Plug-In . SVG Version: 6.00 Build 0)  -->
<!DOCTYPE svg PUBLIC "-//W3C//DTD SVG 1.1//EN" "http://www.w3.org/Graphics/SVG/1.1/DTD/svg11.dtd">
<svg version="1.1" id="Layer_1" xmlns="http://www.w3.org/2000/svg" xmlns:xlink="http://www.w3.org/1999/xlink" x="0px" y="0px"
	 viewBox="0 0 1446.299 1622.1713" enable-background="new 0 0 1446.299 1622.1713" xml:space="preserve">
<g>
	<path d="M931.6844,1591.6248c-96.2568-72.0687-204.6358-115.4795-319.8943-143.9055
		c53.3345-12.535,106.2665-10.9116,159.0049,2.1063c52.6495,12.9961,100.8176,35.756,144.8532,67.5259
		c63.8676-77.7518,134.9056-143.8893,239.8486-159.266c-0.5873,0.6334-1.0546,1.515-1.7788,1.8647
		c-49.991,24.1436-89.4408,61.3585-125.9972,102.028c-34.7126,38.6183-65.1024,80.5095-92.6285,124.5039
		C934.1383,1588.0068,933.1067,1589.4832,931.6844,1591.6248z"/>
	<path d="M328.5834,770.7637c2.1381-11.6906,4.0813-23.4207,6.4482-35.0647c9.8894-48.6505,30.3413-92.5996,57.6577-133.9316
		c15.8581-23.9948,27.4933-50.4039,29.5084-79.7712c2.5544-37.2261-5.2144-71.0817-31.631-99.5524
		c-31.8066-34.2799-68.7428-62.0324-107.6311-87.3898c-44.3468-28.9167-90.3919-54.9045-140.0688-73.5314
		c-18.3605-6.8845-37.8302-11.0822-57.0611-15.2821c-13.6803-2.9877-23.3469,3.7159-29.6628,16.1373
		c-10.2508,20.16-14.0736,41.8553-15.7898,64.0024c-3.7027,47.78,2.7931,94.5779,14.9072,140.6812
		c26.4105,100.512,75.8544,189.4523,137.5235,272.1613c11.4705,15.3839,23.4708,30.3728,34.2312,46.4628
		c-8.8922-9.6028-18.0184-19.0005-26.6401-28.8403c-78.4296-89.509-133.6994-191.1713-160.4716-307.5978
		c-10.6186-46.1779-15.7466-92.917-10.7315-140.3091c2.2275-21.0495,6.5419-41.6628,16.5918-60.6333
		c1.0953-2.0676,2.2277-4.1258,3.4944-6.0907c12.3226-19.1154,21.7774-23.1264,44.0459-18.3871
		c31.8131,6.7705,61.4396,19.6137,90.5938,33.5042c75.3517,35.9013,147.5263,77.2821,215.162,126.3377
		c8.2072,5.9526,15.8939,12.6222,23.8325,18.9461c21.2728,16.9461,30.4082,39.5856,31.2191,66.2037
		c1.1209,36.7972-9.1323,70.9973-23.8637,104.1213c-11.0608,24.8705-25.7182,47.4583-42.8423,68.6793
		c-23.4135,29.0153-37.1395,63.0634-48.1946,98.2675c-3.2438,10.3297-6.023,20.8052-9.015,31.2139
		C329.658,770.9885,329.1207,770.8761,328.5834,770.7637z"/>
	<path d="M810.8553,739.9228c-23.1588,84.3187-59.4107,160.8885-129.1545,219.0423c28.8398,14.0898,58.8798,20.9268,90.2051,23.0953
		c0.1656,0.7017,0.3313,1.4034,0.4968,2.105c-8.876,3.97-17.5845,8.3807-26.6579,11.8322
		c-35.451,13.4859-72.4479,20.8221-109.7632,26.6628c-57.918,9.0654-116.238,13.9813-174.789,16.3511
		c-2.2117,0.0895-4.4302,0.0115-7.0777-1.6646c7.147-3.3444,14.3351-6.6039,21.4347-10.046
		c92.9168-45.0488,178.5798-100.5635,251.2581-174.6954c31.8602-32.4973,59.3688-68.3157,81.2485-108.3297
		C808.8818,742.766,809.9174,741.3712,810.8553,739.9228z"/>
	<path d="M399.382,754.6046c0.3923-61.0403,14.5392-118.0516,51.9341-167.5806c37.347-49.4656,87.4487-79.8052,148.3572-96.3181
		c-32.1989-33.0612-71.6675-42.223-114.8042-42.7249c27.0436-15.7205,118.3389-18.2356,167.5995-5.9499
		c64.9755,16.205,121.0463,51.9697,147.9951,80.1111c-58.6433-34.2298-121.193-57.2003-188.906-65.9894
		c21.2073,14.7408,40.971,30.735,56.3817,52.3424c-15.0251,6.3706-29.5016,12.081-43.6203,18.5698
		c-57.9232,26.6213-111.3677,59.9554-155.7804,106.3225c-32.3906,33.8158-56.8838,72.3192-67.8723,118.4814
		C400.438,752.8283,399.8188,753.6948,399.382,754.6046z"/>
	<path d="M794.7624,692.1484c-3.8134,5.668-7.3009,11.047-10.9809,16.2911c-34.5099,49.1783-72.073,95.6906-118.7213,134.0887
		c-26.5145,21.8251-55.0851,40.203-88.4811,49.9249c-13.8123,4.0209-27.799,5.9348-42.4211,3.3445
		c55.2908-18.3696,97.1374-52.9611,128.467-104.7369c-9.56,0.5725-17.2192,0.2871-24.5937,1.6008
		c-32.8115,5.8454-59.7682,23.5242-85.3376,43.5945c-29.4097,23.0848-55.2472,49.8516-79.3022,78.3892
		c-1.6537,1.962-3.3423,3.8947-6.5387,5.2068c2.3784-7.0721,4.3891-14.2938,7.1931-21.1931
		c23.0131-56.6252,61.9566-100.082,112.1026-133.9114c57.8613-39.0344,122.6495-59.8634,190.9065-71.2089
		c4.8732-0.8099,9.7631-1.5253,14.6578-2.1931C792.3832,691.2541,793.1266,691.6973,794.7624,692.1484z"/>
	<path d="M514.783,1279.0485c17.6343-0.964,35.3008-1.5333,52.8969-2.9675c48.8199-3.9791,97.5432-9.0886,144.2961-24.7262
		c14.1885-4.7457,27.5859-11.9972,41.0466-18.7017c4.7331-2.3575,8.5712-6.5117,14.7781-11.3844
		c-6.4902-2.9951-11.038-6.375-15.9955-7.1567c-20.0034-3.1543-40.0801-7.1532-60.2277-7.803
		c-38.4719-1.2405-77.0109-0.4045-115.522-0.4301c-3.0077-0.0021-6.0154-0.0004-9.0231-0.0004
		c-0.1938-0.7067-0.3875-1.4135-0.5813-2.1202c10.965-4.2466,21.7721-8.9711,32.9235-12.6527
		c38.748-12.7926,78.8939-16.3939,119.3752-16.6851c48.1558-0.3463,96.3172,0.1169,144.4744-0.1135
		c13.7208-0.0657,27.436-1.3243,42.9353-0.3667c-6.562,9.448-12.4177,19.4938-19.8163,28.2334
		c-23.5756,27.8486-54.5334,44.615-88.3706,56.5535c-47.3319,16.6998-96.4722,23.1943-146.3463,25.6145
		c-44.8212,2.175-89.5159,0.5659-134.157-3.5474c-1.016-0.0936-2.0184-0.3346-3.0272-0.5067
		C514.5558,1279.8745,514.6694,1279.4615,514.783,1279.0485z"/>
	<path d="M427.1779,1231.6309c3.0467,5.2449,5.7894,10.6962,9.1888,15.7015c24.3742,35.8883,58.0157,60.739,96.3391,79.6998
		c53.9647,26.6992,111.701,39.8004,171.3044,43.9891c41.4565,2.9136,83.1163,2.9346,124.9297,3.3116
		c-6.5726,1.0773-13.1382,2.1991-19.7198,3.2194c-6.9409,1.076-13.8776,2.2167-20.8494,3.0507
		c-54.1052,6.4728-108.2846,10.3109-162.7648,4.9532c-53.3954-5.2511-104.8944-16.9396-150.8658-46.0604
		c-56.2278-35.6178-88.4987-86.6877-96.3233-152.947c-0.5742-4.8622-0.6006-9.7889-1.0091-16.9078
		c31.4503,22.4138,64.5854,37.4313,99.5229,48.4938c34.8603,11.0378,70.7177,17.179,107.6676,20.5396
		c-9.7368,5.431-46.941,8.3927-78.4583,6.6293C479.5793,1243.8176,453.7186,1238.5707,427.1779,1231.6309z"/>
	<path d="M1386.9055,1029.8298c16.2749,94.3921-22.0659,166.3849-91.8169,225.8341c46.751-11.1176,86.0157-36.0426,123.9755-65.3135
		c-2.5072,4.5149-4.7538,9.1997-7.5645,13.5171c-18.2552,28.0428-44.9729,45.8907-74.1976,60.3401
		c-56.5986,27.9835-117.3378,42.1525-179.1694,52.2357c-22.3303,3.6416-44.8524,6.1116-67.2936,9.0656
		c-2.5315,0.3333-5.1064,0.3364-8.0834-0.8311c3.0173-1.1833,6.0179-2.4116,9.0544-3.5435
		c72.7115-27.0986,139.1589-64.6385,195.6687-118.411c43.1912-41.0992,75.5798-89.1967,92.5951-146.8676
		C1382.6108,1047.2572,1384.6409,1038.5089,1386.9055,1029.8298z"/>
	<path d="M551.9632,646.0881c-3.4048,10.3287-7.3438,20.5175-10.0939,31.0175c-4.5643,17.4268-3.9808,17.6462,13.5477,17.8134
		c45.5462,0.4344,91.0906,1.062,136.6354,1.6281c1.6723,0.0208,3.3425,0.2067,5.2258,1.6617
		c-10.0613,3.0718-20.1714,5.9928-30.1756,9.2404c-57.5411,18.679-111.9616,43.6558-160.3613,80.4976
		c-39.1985,29.838-71.0384,65.5993-88.8479,112.4034c-0.2593,0.6814-0.9388,1.2028-3.0063,3.7521
		c2.48-10.7953,4.3301-19.4045,6.4416-27.9491c13.3283-53.9361,29.5713-106.8425,56.5197-155.8167
		c13.636-24.7811,29.4419-47.9906,52.742-64.8884c6.1456-4.4569,13.2521-7.589,19.9173-11.3294
		C550.993,644.7752,551.478,645.4316,551.9632,646.0881z"/>
	<path d="M1019.8624,1187.1801c3.9236,30.5294,5.3274,60.7793,2.2513,91.1616c-2.9697,29.332-9.2729,57.6697-25.9255,82.5425
		c-22.6539,33.8368-55.2603,46.5507-95.0109,43.0479c-1.1824-0.1042-2.3203-0.7152-5.1026-1.6154
		c32.3746-13.9303,54.6641-36.1992,68.1647-67.0618c8.938-20.4327,13.3886-41.8284,13.655-65.7662
		c-53.7452,35.7075-112.8189,42.9432-173.77,41.8988c-0.1931-0.6337-0.3862-1.2673-0.5793-1.901
		c6.3488-2.1287,12.6982-4.2559,19.0464-6.3865c6.6574-2.2345,13.3599-4.345,19.9633-6.7294
		c45.1097-16.2887,89.3443-34.4517,129.2776-61.5837C990.6772,1221.9829,1007.7012,1207.2711,1019.8624,1187.1801z"/>
	<path d="M302.653,1012.7724c46.3562-75.4593,75.5273-157.7995,107.6643-238.9528
		c-9.5944,66.8014-16.3128,134.1265-40.8498,198.7998c3.2632,0.226,6.973,0.6844,10.6858,0.7088
		c34.7898,0.2284,68.1856-7.7916,100.8954-18.4592c25.6827-8.3757,50.8028-18.4764,76.1738-27.8082
		c2.1539-0.7923,4.3159-1.5624,6.8185-2.4673C538.8119,976.2694,387.5956,1027.348,302.653,1012.7724z"/>
	<path d="M1340.3677,1082.353c-7.6692,0.3514-15.3372,0.9722-23.0078,1.0067c-28.6222,0.129-57.3041-1.1013-85.8545,0.3395
		c-46.3826,2.3408-89.3867,16.2708-128.145,42.369c-1.2081,0.8135-2.5691,1.3998-3.8589,2.0919
		c-0.5111-0.5281-1.0223-1.0562-1.5336-1.5841c11.1915-12.408,22.0593-25.1281,33.6481-37.1533
		c18.9052-19.6167,40.4913-36.2043,64.1086-49.4922c47.3239-26.6263,74.4164-67.6027,88.1284-118.8135
		c4.3574-16.2739,8.6207-32.5731,13.4819-50.9586c12.011,35.2789,15.2015,68.8024,4.3505,102.8726
		c-10.8241,33.9852-32.793,59.5858-63.5945,80.9084c31.1248-0.0734,59.5226,2.1036,85.7539,15.2627
		c5.953,2.9863,11.4546,6.8721,17.1641,10.344C1340.7952,1080.4817,1340.5814,1081.4174,1340.3677,1082.353z"/>
	<path d="M748.8087,1094.8372c-16.2188,11.9618-34.3555,19.6832-53.0197,26.1559
		c-52.4287,18.1815-106.8207,26.9714-161.7313,33.0742c-17.8118,1.9796-35.6724,3.519-53.7823,4.3579
		c29.7052-12.8811,60.945-22.2334,87.5997-40.7545c-36.0652-6.7435-71.9036-12.4015-107.2285-20.3433
		c-35.3192-7.9406-69.1467-20.4991-99.3974-41.34c63.0559,16.957,127.3923,25.9495,192.2548,30.1445
		C618.2889,1090.322,683.2353,1092.0178,748.8087,1094.8372z"/>
	<path d="M900.3273,464.4321c-50.2281-24.9384-99.7283-46.841-155.9062-45.9222c34.0054,23.3696,67.5925,46.4518,101.1795,69.5338
		c-0.4961,0.7666-0.9922,1.5331-1.4883,2.2997c-36.1872-16.9518-72.171-34.3567-108.6186-50.7286
		c-36.791-16.5262-74.2438-31.4622-114.0841-42.1322c8.4035-1.9758,16.7166-4.5604,25.2258-5.8238
		c40.8602-6.0668,81.2407-1.1136,120.8095,8.5493c35.5746,8.6876,70.4457,20.2552,105.6276,30.5515
		c1.7083,0.4999,3.4188,0.9914,7.0359,2.0396c0-30.8655,0-60.8014,0-91.6098c13.8892,1.6366,23.9935,7.255,33.3388,14.3093
		c16.1337,12.1786,27.4471,28.3465,36.7352,46.0122c12.0471,22.9137,20.1604,47.2329,25.1501,72.7729
		c-21.8343-33.578-41.8494-68.5199-75.0052-95.4257C900.3273,408.1313,900.3273,435.4903,900.3273,464.4321z"/>
	<path d="M1128.5446,1239.3348c29.1245-12.6543,59.3684-19.0692,91.0957-19.9513c-46.6124,33.3591-99.0303,55.2046-152.4519,78.2083
		c-0.496-17.8599,2.1552-33.6167,6.7595-49.0029c14.7533-49.3003,46.7485-83.2512,93.6416-103.4077
		c43.7969-18.8257,89.9742-22.2943,137.16-20.0089C1232.2313,1142.012,1170.2842,1174.9983,1128.5446,1239.3348z"/>
	<path d="M809.0112,272.5189c8.6763,4.8878,16.343,9.835,24.5285,13.677c13.6284,6.3966,18.8809,3.8351,24.1479-10.0775
		c23.4188-61.8592,48.6317-122.9452,82.5048-179.9613c9.3908-15.8069,20.5504-30.6786,32.0244-45.0823
		c5.5306-6.9426,13.4938-12.0405,20.6909-17.5343c6.3471-4.8449,12.3086-3.5209,18.0835,1.8948
		c13.4675,12.6298,21.5817,28.5702,28.4072,45.2554c16.1479,39.4732,26.2312,80.7291,32.6293,122.6805
		c8.5077,55.7855,15.1558,111.8548,22.5499,167.8092c0.4286,3.2437,0.3828,6.5501-0.892,9.9942
		c-3.7899-21.4209-7.3649-42.8825-11.41-64.255c-11.9515-63.1472-24.0616-126.3006-43.5327-187.6609
		c-6.0243-18.9846-13.7596-37.647-22.8032-55.391c-9.1476-17.948-17.6279-18.6398-32.8696-5.3512
		c-20.1048,17.5287-32.2783,40.6269-43.5769,64.112c-24.1148,50.1253-40.7697,102.9593-55.6931,156.3834
		c-2.7872,9.9771-5.3989,20.0031-8.0471,29.8417C851.8533,319.5539,818.6246,296.5898,809.0112,272.5189z"/>
	<path d="M302.9726,1235.7996c3.4644,8.3904,5.785,15.5085,9.2123,22.0465c13.3192,25.4082,33.6436,44.8365,55.2443,62.9961
		c30.9893,26.0526,64.9532,47.7719,100.098,67.7168c1.9392,1.1005,3.8052,2.3302,5.7053,3.4996
		c-0.0939,0.7847-0.1879,1.5693-0.2818,2.354c-8.681,0-17.3619,0.0052-26.0428-0.0009
		c-47.8317-0.0338-95.167-4.1385-141.2173-17.9808c-29.4435-8.8505-56.9537-21.4889-79.8097-42.7263
		c-1.1412-1.0603-2.2546-2.1571-3.3005-3.3098c-0.3096-0.3412-0.3434-0.9327-0.9951-2.8737
		c38.5337,13.9076,77.566,20.3652,119.6197,22.0431C307.1048,1318.151,287.0943,1283.6556,302.9726,1235.7996z"/>
	<path d="M1151.884,640.4181c69.131,12.5977,151.6449,115.6019,143.8392,180.5481c-6.9474-21.5834-16.6534-39.7562-29.9543-55.908
		c-1.6187-1.9656-3.4116-3.7877-5.9761-5.5388c9.3505,33.7475,5.0854,65.7876-10.6582,96.372
		c-15.4452,30.0046-38.6173,53.1769-66.7035,72.2522c1.5491-2.4193,3.0437-4.8755,4.6555-7.2522
		c29.0164-42.7909,44.3213-89.2527,37.3353-141.4819c-5.7472-42.9677-24.3976-80.3096-50.9884-113.9771
		C1166.8585,657.1075,1159.593,649.3278,1151.884,640.4181z"/>
	<path d="M1270.8582,708.5491c-37.1161-43.3746-78.0551-80.4981-135.3556-97.7133c2.8361-2.6208,5.3179-4.6321,7.4698-6.9498
		c12.1865-13.1243,24.353-26.2682,36.4022-39.5185c5.5647-6.1195,6.0743-12.9329,3.7587-20.9632
		c-11.3331-39.3013-31.9224-73.238-58.7671-103.6866c-1.375-1.5597-2.7583-3.1145-4.0605-4.7336
		c-0.2445-0.3041-0.1218-0.9037-0.3204-2.8715c63.0143,40.7807,107.8295,93.3384,123.546,168.2301
		c-12.9573,4.4763-25.3788,8.7676-39.4734,13.6368c27.5781,19.275,46.3278,43.7247,58.9075,72.9302
		C1265.9977,693.9501,1268.2482,701.327,1270.8582,708.5491z"/>
	<path d="M843.8519,664.0463c-12.3069-2.9249-24.6143-5.8481-36.9193-8.7812c-0.5039-0.1202-0.9874-0.3285-1.4772-0.5048
		c-9.9609-3.5856-18.6172-2.8442-28.6051,2.6812c-33.2369,18.3875-68.99,27.6674-107.3387,23.5717
		c-35.3076-3.7709-64.9819-19.4293-90.0697-44.102c-1.6749-1.6472-2.7828-5.9104-1.8546-7.8647
		c20.2514-42.6413,49.8253-74.8631,99.1323-81.4512c39.2462-5.2438,73.5433,6.6877,101.269,35.6542
		c2.1463,2.2423,4.4894,4.6315,5.6713,7.4078c8.8436,20.7726,26.1042,34.6808,40.8703,50.6127
		c6.6451,7.1698,13.5203,14.1263,20.2911,21.1796C844.4982,662.9818,844.175,663.514,843.8519,664.0463z M696.3056,673.1435
		c5.3587-0.5077,13.4583-0.7751,21.3724-2.1281c16.9969-2.9056,32.9962-8.4265,43.7321-23.0031
		c5.8678-7.967,11.4958-17.0447,7.1047-27.3631c-3.7186-8.7381-8.1071-17.7624-14.3332-24.7618
		c-25.4265-28.5848-57.9398-34.8513-93.8525-26.4683c-26.8918,6.2773-47.9521,20.9476-59.8955,46.7116
		c-8.8784,19.1524-6.471,26.9582,12.11,37.4355C637.6553,667.726,665.2037,672.2448,696.3056,673.1435z"/>
	<path d="M298.5561,1035.5348c44.7895,51.5206,92.0367,96.5699,167.2895,98.5458c-10.5901,6.3057-20.344,8.374-30.1943,9.3503
		c-34.8493,3.4542-68.3112-4.106-101.4891-13.5271c-3.1877-0.9052-6.3772-1.8041-11.1368-3.15
		c1.2372,37.8655,8.0139,72.6261,32.1456,104.1339c-15.2514-4.3448-25.7712-12.2452-34.3072-23.0039
		c-14.0303-17.6836-20.2741-38.6039-23.8155-60.3414c-5.7826-35.4945-4.2448-71.0818,0.1493-106.613
		C297.3834,1039.4279,297.9311,1037.9711,298.5561,1035.5348z"/>
	<path d="M259.0782,1181.5771c-28.2696-65.151-20.7058-131.4225-5.1282-199.5969c-16.0235,8.8852-27.5818,20.7388-39.1352,32.8577
		c1.4609-14.5756,8.1078-26.8185,15.9221-38.4572c21.2863-31.7039,49.2789-56.9798,78.4691-81.0526
		c7.0958-5.8519,14.464-11.3734,22.9024-15.8942c-6.8833,15.0125-14.0347,29.9086-20.602,45.0581
		c-24.1006,55.5956-43.3827,112.6786-51.6281,172.9905C256.0557,1125.4437,255.7228,1153.4982,259.0782,1181.5771z"/>
	<path d="M840.4865,328.6168c-2.4255,17.5147-4.6902,33.8693-7.0474,50.8909c-90.4171-19.8042-179.8218-24.7693-268.0695,7.9344
		C649.0938,332.3409,741.9839,320.6003,840.4865,328.6168z"/>
	<path d="M1062.0146,601.7228c3.4353,3.2341,6.1145,5.0394,7.762,7.5276c1.3893,2.0983,2.9225,6.3664,2.0227,7.2436
		c-1.8787,1.8314-5.7224,3.3636-8.0348,2.6553c-4.0693-1.2465-8.1755-3.6634-11.2598-6.6349
		c-30.8759-29.7473-48.218-66.5255-54.7607-108.72c1.6293,4.5493,3.0543,9.1854,4.9417,13.6251
		c2.1328,5.0175,4.2787,10.1116,7.1672,14.7016c2.6349,4.1873,6.2707,7.7449,8.9299,10.9373
		c5.1049-13.9671,8.3543-27.8189,14.9575-39.8266c11.5045-20.9207,29.9961-32.9492,54.4496-33.7617
		c25.4716-0.8463,43.3325,15.5341,44.5104,41.05c0.3221,6.9798,1.8497,12.5578,7.0486,17.2045
		c1.7147,1.5326,2.9673,3.6151,4.2996,5.5373c12.6749,18.2898,9.7491,36.4023-8.0295,49.8971
		C1117.3176,597.354,1091.2255,604.1021,1062.0146,601.7228z M1134.0077,544.892c0.5931-30.6315-17.8748-47.6535-40.0469-51.6697
		c-26.4761-4.7959-54.5405,16.3736-60.0927,45.0199c-2.3604,12.1776-3.4066,24.7689,3.3939,35.6648
		c11.882,19.0369,38.4491,27.717,60.7135,20.9964C1120.1011,588.2247,1134.0582,568.8528,1134.0077,544.892z"/>
	<path d="M399.5629,505.1823c-53.7231,6.6585-106.1972,13.1622-160.2207,19.8579c37.8939-17.2309,74.9686-32.4102,118.069-37.5808
		c-5.7906-6.7211-9.8495-12.6659-15.0811-17.2813c-18.175-16.0339-39.8135-26.4536-61.6865-36.2507
		c-15.5817-6.9792-31.5062-13.193-47.0422-21.1274c9.3828,1.2414,18.8244,2.1486,28.1378,3.785
		c31.9079,5.6063,63.1802,13.4123,91.6379,29.6114c21.1413,12.0344,38.7342,27.3589,44.9452,52.317
		C398.9335,500.9697,399.255,503.4978,399.5629,505.1823z"/>
	<path d="M832.3934,1088.9252c29.3055,2.2821,58.5839,5.0393,87.9235,6.7296c39.506,2.2761,79.0315,3.9449,118.5716-0.4175
		c20.2124-2.2301,35.6565-11.2677,47.5199-27.749c20.2579-28.1437,34.3748-59.4042,47.3568-91.2448
		c7.6382-18.7343,14.4679-37.7984,22.8375-56.554c-1.7775,9.9835-3.2532,20.0317-5.3851,29.9388
		c-8.7374,40.603-19.9213,80.3798-41.915,116.1758c-4.4763,7.2855-9.993,13.9402-15.1392,20.804
		c-14.9419,19.9288-36.7327,23.8416-59.5569,25.5348c-40.524,3.0065-80.6448-1.2891-120.5948-7.1215
		c-25.4714-3.7186-50.7208-8.9614-76.0632-13.5573c-1.9944-0.3617-3.9371-1.0092-5.9038-1.5236
		C832.161,1089.6021,832.2772,1089.2635,832.3934,1088.9252z"/>
	<path d="M1112.7203,453.7357c-31.7858-24.6679-63.813-48.62-101.6502-66.4738c8.1997,27.5703,2.9578,52.2692-6.7382,76.7642
		c-4.0524-26.9654-10.3659-52.9891-25.4929-76.0668c-15.2842-23.3177-36.2284-39.1585-62.8179-49.0764
		c2.8278-0.1996,5.6542-0.5477,8.4839-0.5765c39.4796-0.4017,74.4449,13.3523,106.7683,34.7352
		c31.6349,20.9275,57.4807,47.9215,79.9691,78.2697C1111.8038,452.0685,1112.2307,452.9253,1112.7203,453.7357z"/>
	<path d="M842.0851,985.5229c19.15-4.5358,37.3437-8.6224,55.4168-13.1867c19.1324-4.8318,35.306-14.8272,49.17-28.877
		c26.8665-27.2266,53.4927-54.7157,81.1185-81.1556c12.1097-11.5899,26.5035-20.7777,39.6615-31.3047
		c1.9409-1.5529,3.6021-4.3563,3.986-6.8019c1.8522-11.7972,3.2228-23.67,6.2633-35.994
		c3.3907,8.158,7.1034,16.2009,10.0758,24.5085c2.6296,7.3495,6.9148,12.6835,13.16,17.6093
		c8.9219,7.0368,16.4036,15.8815,24.6461,23.8022c10.0551,9.6621,20.2611,19.1666,30.7582,29.0756
		c-4.0237-0.9918-9.2167-1.1256-13.0914-3.4536c-9.5414-5.7325-18.8928-11.9537-27.5764-18.9081
		c-23.8842-19.1275-31.4769-21.1179-55.804-2.9058c-24.271,18.17-46.2789,39.3887-69.0285,59.5536
		c-10.5084,9.3145-20.761,18.9716-30.5374,29.048c-26.0598,26.8599-58.5923,37.5637-94.9837,38.949
		C857.8891,985.7648,850.4381,985.5229,842.0851,985.5229z"/>
	<path d="M823.4991,515.5778c7.7693,3.8041,15.4809,7.2874,22.9213,11.2767c24.4653,13.1173,47.2382,28.5251,65.0436,50.2396
		c13.9854,17.0558,22.3904,36.2051,20.742,58.8259c-1.6179,22.2038-19.6865,37.8577-39.6585,34.3895
		c-14.8397-2.577-18.8405-10.2747-12.3589-23.7556c2.9258-6.0853,6.6612-11.931,8.5851-18.3202
		c5.5511-18.4343,4.6144-36.7125-8.4974-51.6053c-16.6187-18.876-34.6619-36.4985-52.1168-54.6364
		c-1.5966-1.6591-3.3886-3.1296-5.0616-4.7174C823.0118,517.193,823.193,516.8298,823.4991,515.5778z"/>
	<path d="M226.576,937.436c10.3209-31.6573,21.6009-62.7473,38.5008-90.1068c-12.5056-3.6166-25.126-6.2784-36.9462-10.9604
		c-12.027-4.764-22.2001-12.9138-30.8351-23.0713c49.2769,12.1869,98.0229,11.5439,146.8823-2.793
		C296.582,845.1359,258.0352,887.9012,226.576,937.436z"/>
	<path d="M362.7975,566.9852c-30.6926-2.0496-60.1069-4.0137-89.5212-5.978c-0.0014-0.7164-0.0028-1.4328-0.0042-2.1492
		c39.6148-15.2858,80.0739-22.0735,123.3546-11.4168c-5.4521,19.36-13.5612,36.3594-29.3913,48.673
		c-5.3138,4.1334-11.099,7.7635-17.0053,11.0118c-15.1994,8.3591-28.8991,18.4491-39.219,32.7348
		c-0.7123-0.4112-1.4247-0.8224-2.137-1.2336c4.2602-8.733,7.8515-17.8833,12.9671-26.0828
		c5.2-8.3348,11.4682-16.1244,18.0676-23.431C346.6602,581.6384,354.3813,575.0392,362.7975,566.9852z"/>
	<path d="M980.6053,222.4239c-5.4075,6.3206-12.3139,14.0599-18.8439,22.1048c-9.5444,11.7587-15.704,25.0014-17.3217,40.2907
		c-0.67,6.333,0.8811,8.678,7.7563,10.1073c14.3942,2.9924,28.5965,7.2692,42.4837,12.1417
		c4.809,1.6873,8.4517,6.6988,12.0115,11.2585c-31.0072-9.516-62.1549-10.0797-93.4882-5.9912
		C908.2991,274.2363,929.6035,227.6653,980.6053,222.4239z"/>
	<path d="M1111.4814,667.8531c-15.0059-9.3929-30.9824-11.47-47.1001-8.5529c-22.8285,4.1316-44.9421,11.1066-64.8213,23.6019
		c-4.1066,2.5813-7.8435,6.0543-10.9985,9.7573c-2.9227,3.4304-6.3654,7.6286-1.9119,12.3616
		c3.626,3.8536,13.5775,4.8688,17.321,2.0198c1.651-1.2565,3.0674-2.8423,4.786-3.9847c4.359-2.8976,9.514-5.004,13.4489-0.5634
		c2.9512,3.3305,6.5218,9.2824,5.3395,12.3312c-1.6071,4.1449-7.2503,8.967-11.5716,9.398
		c-13.1429,1.3108-25.8035-2.2322-37.3015-8.9529c-7.8558-4.5919-10.4301-10.0318-5.5626-17.5349
		c5.0549-7.7919,12.1206-14.7042,19.5344-20.4049c5.8109-4.4681,13.2527-7.2991,20.3929-9.4586
		c17.6415-5.3354,35.4045-10.388,53.3495-14.563c15.3545-3.5724,30.553-1.9993,44.6798,5.7247
		c10.392,5.6819,11.4679,8.9781,5.8387,19.2684c-3.7384,6.8339-7.1102,14.1974-12.2982,19.7916
		c-3.3522,3.6145-9.7336,6.0756-14.6749,5.9441c-3.0034-0.08-7.0547-5.6304-8.5022-9.5176
		c-2.5968-6.9738,2.1671-13.4626,9.3923-12.1822C1102.8167,684.4622,1107.0135,677.2744,1111.4814,667.8531z"/>
	<path d="M587.8188,406.9279c-24.0119,10.3205-48.4391,18.4713-74.7643,19.0673c-12.447,0.2819-24.3681-2.1401-34.9927-8.9723
		c-18.4465-11.8621-25.2658-30.6472-29.911-51.1194C487.3434,405.2103,536.7607,408.4763,587.8188,406.9279z"/>
	<path d="M1059.3157,699.2041c11.0226,18.0388,12.7386,36.8707,17.4979,54.6494c0.9873,0.2169,1.9747,0.4337,2.9622,0.6505
		c4.6406-9.2347,9.2813-18.4694,13.922-27.7041c-2.8937,16.3793-5.9529,32.6891-15.285,46.923
		c-2.9971,4.5714-7.2395,4.924-11.5806,2.2433c-13.843-8.5486-23.9172-20.9473-33.4603-34.0747
		c7.4421,4.5082,14.7526,9.2594,22.3962,13.395c2.7356,1.4802,6.276,1.4727,9.449,2.1443
		c-0.0135-3.2079,0.3689-6.4763-0.1099-9.6132c-1.9948-13.0704-4.3291-26.089-6.3334-39.1581
		C1058.4122,706.302,1059.0168,703.7965,1059.3157,699.2041z"/>
	<path d="M743.7657,292.436c26.7003-11.5267,69.5256-0.5762,91.9638,23.8366C803.6901,311.555,774.4617,302.4195,743.7657,292.436z"
		/>
	<path d="M720.3278,627.2767c-0.0003,17.2214-7.2838,27.7697-19.592,30.7979c-12.3513,3.0388-25.0753-3.19-31.4139-16.1153
		c-7.077-14.4308-7.3351-29.1652,0.6475-43.3656c7.7017-13.7008,21.2264-16.064,33.3535-5.9777
		C714.8391,602.194,719.694,615.0292,720.3278,627.2767z"/>
	<path d="M1101.5724,556.8627c-0.04,10.9759-4.0563,18.15-11.697,20.8945c-9.7565,3.5044-20.3334,0.9178-26.5242-7.668
		c-9.8236-13.6239-11.786-28.6313-5.0529-44.2139c3.7589-8.6989,10.8462-11.256,19.9371-8.0498
		C1091.6799,522.5672,1101.6368,539.2227,1101.5724,556.8627z"/>
</g>
</svg>
