<?xml version="1.0" encoding="UTF-8"?>
<svg xmlns="http://www.w3.org/2000/svg" xmlns:xlink="http://www.w3.org/1999/xlink" width="800pt" height="500pt" viewBox="0 0 800 500" version="1.1">
<g id="surface5380">
<rect x="0" y="0" width="800" height="500" style="fill:rgb(100%,100%,100%);fill-opacity:1;stroke:none;"/>
<path style=" stroke:none;fill-rule:nonzero;fill:rgb(9.803922%,9.803922%,43.921569%);fill-opacity:1;" d="M 448.785156 287.722656 C 648.800781 442.386719 557 529.917969 430.785156 304.886719 C 413.851562 274.699219 391.398438 267.5 380.882812 288.886719 C 294.855469 463.875 157.355469 385.972656 355.882812 274.722656 C 375.734375 263.597656 374.882812 249.632812 354.332031 249.332031 C 116.867188 245.867188 45.871094 63.652344 342.882812 219.945312 C 380.007812 239.480469 399.957031 234.171875 399.882812 204.78125 C 399.246094 -39.40625 507.417969 -45.804688 416.785156 203.78125 C 405.875 233.824219 415.675781 239.128906 444.785156 218.945312 C 673.183594 60.558594 670.433594 178.832031 444.332031 238.332031 C 424.382812 243.582031 426.832031 270.746094 448.785156 287.722656 "/>
<path style=" stroke:none;fill-rule:nonzero;fill:rgb(9.803922%,9.803922%,43.921569%);fill-opacity:1;" d="M 386.898438 372 C 386.898438 374.535156 383.101562 374.535156 383.101562 372 C 383.101562 369.464844 386.898438 369.464844 386.898438 372 "/>
<path style=" stroke:none;fill-rule:nonzero;fill:rgb(9.803922%,9.803922%,43.921569%);fill-opacity:1;" d="M 241.300781 305 C 241.300781 308.066406 236.699219 308.066406 236.699219 305 C 236.699219 301.933594 241.300781 301.933594 241.300781 305 "/>
<path style=" stroke:none;fill-rule:nonzero;fill:rgb(9.803922%,9.803922%,43.921569%);fill-opacity:1;" d="M 289.699219 111 C 289.699219 115.933594 282.300781 115.933594 282.300781 111 C 282.300781 106.066406 289.699219 106.066406 289.699219 111 "/>
<path style=" stroke:none;fill-rule:nonzero;fill:rgb(9.803922%,9.803922%,43.921569%);fill-opacity:1;" d="M 492.199219 395 C 492.199219 401.738281 486.738281 407.199219 480 407.199219 C 473.261719 407.199219 467.800781 401.738281 467.800781 395 C 467.800781 388.261719 473.261719 382.800781 480 382.800781 C 486.738281 382.800781 492.199219 388.261719 492.199219 395 "/>
<path style=" stroke:none;fill-rule:nonzero;fill:rgb(9.803922%,9.803922%,43.921569%);fill-opacity:1;" d="M 332.800781 432 C 332.800781 438.515625 327.515625 443.800781 321 443.800781 C 314.484375 443.800781 309.199219 438.515625 309.199219 432 C 309.199219 425.484375 314.484375 420.199219 321 420.199219 C 327.515625 420.199219 332.800781 425.484375 332.800781 432 "/>
<path style=" stroke:none;fill-rule:nonzero;fill:rgb(9.803922%,9.803922%,43.921569%);fill-opacity:1;" d="M 266.5 432 C 266.5 437.800781 261.800781 442.5 256 442.5 C 250.199219 442.5 245.5 437.800781 245.5 432 C 245.5 426.199219 250.199219 421.5 256 421.5 C 261.800781 421.5 266.5 426.199219 266.5 432 "/>
<path style=" stroke:none;fill-rule:nonzero;fill:rgb(9.803922%,9.803922%,43.921569%);fill-opacity:1;" d="M 271.898438 316 C 271.898438 322.535156 262.101562 322.535156 262.101562 316 C 262.101562 309.464844 271.898438 309.464844 271.898438 316 "/>
<path style=" stroke:none;fill-rule:nonzero;fill:rgb(9.803922%,9.803922%,43.921569%);fill-opacity:1;" d="M 239.800781 163 C 239.800781 166.734375 234.199219 166.734375 234.199219 163 C 234.199219 159.265625 239.800781 159.265625 239.800781 163 "/>
<path style=" stroke:none;fill-rule:nonzero;fill:rgb(9.803922%,9.803922%,43.921569%);fill-opacity:1;" d="M 383.5 250 C 383.5 257.457031 377.457031 263.5 370 263.5 C 362.542969 263.5 356.5 257.457031 356.5 250 C 356.5 242.542969 362.542969 236.5 370 236.5 C 377.457031 236.5 383.5 242.542969 383.5 250 "/>
<path style=" stroke:none;fill-rule:nonzero;fill:rgb(9.803922%,9.803922%,43.921569%);fill-opacity:1;" d="M 330.398438 345 C 330.398438 348.199219 325.601562 348.199219 325.601562 345 C 325.601562 341.800781 330.398438 341.800781 330.398438 345 "/>
<path style=" stroke:none;fill-rule:nonzero;fill:rgb(9.803922%,9.803922%,43.921569%);fill-opacity:1;" d="M 524.601562 174 C 524.601562 179.300781 520.300781 183.601562 515 183.601562 C 509.699219 183.601562 505.398438 179.300781 505.398438 174 C 505.398438 168.699219 509.699219 164.398438 515 164.398438 C 520.300781 164.398438 524.601562 168.699219 524.601562 174 "/>
<path style=" stroke:none;fill-rule:nonzero;fill:rgb(9.803922%,9.803922%,43.921569%);fill-opacity:1;" d="M 574.800781 425 C 574.800781 433.171875 568.171875 439.800781 560 439.800781 C 551.828125 439.800781 545.199219 433.171875 545.199219 425 C 545.199219 416.828125 551.828125 410.199219 560 410.199219 C 568.171875 410.199219 574.800781 416.828125 574.800781 425 "/>
<path style=" stroke:none;fill-rule:nonzero;fill:rgb(9.803922%,9.803922%,43.921569%);fill-opacity:1;" d="M 224 75 C 224 81.628906 218.628906 87 212 87 C 205.371094 87 200 81.628906 200 75 C 200 68.371094 205.371094 63 212 63 C 218.628906 63 224 68.371094 224 75 "/>
<path style=" stroke:none;fill-rule:nonzero;fill:rgb(9.803922%,9.803922%,43.921569%);fill-opacity:1;" d="M 525.601562 374 C 525.601562 380.40625 520.40625 385.601562 514 385.601562 C 507.59375 385.601562 502.398438 380.40625 502.398438 374 C 502.398438 367.59375 507.59375 362.398438 514 362.398438 C 520.40625 362.398438 525.601562 367.59375 525.601562 374 "/>
<path style=" stroke:none;fill-rule:nonzero;fill:rgb(9.803922%,9.803922%,43.921569%);fill-opacity:1;" d="M 570.398438 51 C 570.398438 58.199219 559.601562 58.199219 559.601562 51 C 559.601562 43.800781 570.398438 43.800781 570.398438 51 "/>
</g>
</svg>
