<?xml version="1.0" encoding="UTF-8"?>
<svg xmlns="http://www.w3.org/2000/svg" xmlns:xlink="http://www.w3.org/1999/xlink" width="800pt" height="50pt" viewBox="0 0 800 50" version="1.1">
<g id="surface5397">
<rect x="0" y="0" width="800" height="50" style="fill:rgb(100%,100%,100%);fill-opacity:1;stroke:none;"/>
<path style=" stroke:none;fill-rule:nonzero;fill:rgb(0%,0%,0%);fill-opacity:0.7;" d="M 147.5 26.5 C 246.460938 23.726562 588.304688 36.296875 647.5 26.5 "/>
<path style=" stroke:none;fill-rule:nonzero;fill:rgb(0%,0%,0%);fill-opacity:0.7;" d="M 647.5 26.5 C 601.03125 28.171875 192.878906 16.351562 147.5 26.5 "/>
<path style=" stroke:none;fill-rule:nonzero;fill:rgb(0%,0%,0%);fill-opacity:0.7;" d="M 149.5 22.480469 C 224.453125 19.78125 598.175781 33.527344 649.5 22.480469 "/>
<path style=" stroke:none;fill-rule:nonzero;fill:rgb(0%,0%,0%);fill-opacity:0.9;" d="M 649.5 22.519531 C 553.539062 25.207031 214.132812 9.148438 149.5 22.519531 "/>
<path style=" stroke:none;fill-rule:nonzero;fill:rgb(0%,0%,0%);fill-opacity:0.5;" d="M 151.5 23.476562 C 238.464844 21.042969 568.417969 35.863281 651.5 23.476562 "/>
<path style=" stroke:none;fill-rule:nonzero;fill:rgb(0%,0%,0%);fill-opacity:0.4;" d="M 651.5 23.523438 C 587 23.78125 253.328125 4.992188 151.5 23.523438 "/>
<path style=" stroke:none;fill-rule:nonzero;fill:rgb(0%,0%,0%);fill-opacity:0.6;" d="M 151.5 22.472656 C 202.449219 20.230469 567.773438 39.792969 651.5 22.472656 "/>
<path style=" stroke:none;fill-rule:nonzero;fill:rgb(0%,0%,0%);fill-opacity:0.5;" d="M 651.5 22.527344 C 599.011719 23.578125 210.054688 9.433594 151.5 22.527344 "/>
<path style=" stroke:none;fill-rule:nonzero;fill:rgb(0%,0%,0%);fill-opacity:0.6;" d="M 150.5 25.5 C 220.875 21.273438 597.027344 33.035156 650.5 25.5 "/>
<path style=" stroke:none;fill-rule:nonzero;fill:rgb(0%,0%,0%);fill-opacity:0.4;" d="M 650.5 25.5 C 583.121094 29.546875 198.03125 18.800781 150.5 25.5 "/>
<path style=" stroke:none;fill-rule:nonzero;fill:rgb(0%,0%,0%);fill-opacity:0.9;" d="M 151.5 22.488281 C 224.996094 21.605469 585.511719 36.691406 651.5 22.488281 "/>
<path style=" stroke:none;fill-rule:nonzero;fill:rgb(0%,0%,0%);fill-opacity:0.8;" d="M 651.5 22.511719 C 557.128906 27.421875 215.046875 11.472656 151.5 22.511719 "/>
<path style=" stroke:none;fill-rule:nonzero;fill:rgb(0%,0%,0%);fill-opacity:0.4;" d="M 147.5 24.5 C 245 24.109375 591.777344 36.492188 647.5 24.5 "/>
<path style=" stroke:none;fill-rule:nonzero;fill:rgb(0%,0%,0%);fill-opacity:0.4;" d="M 647.5 24.5 C 584.5 24.246094 243.5625 7.8125 147.5 24.5 "/>
<path style=" stroke:none;fill-rule:nonzero;fill:rgb(0%,0%,0%);fill-opacity:0.7;" d="M 152.5 26.472656 C 233.449219 23.554688 601.265625 37.929688 652.5 26.472656 "/>
<path style=" stroke:none;fill-rule:nonzero;fill:rgb(0%,0%,0%);fill-opacity:0.8;" d="M 652.5 26.527344 C 582.003906 25.683594 206.664062 14.417969 152.5 26.527344 "/>
<path style=" stroke:none;fill-rule:nonzero;fill:rgb(0%,0%,0%);fill-opacity:0.9;" d="M 151.5 22.484375 C 202.480469 21.054688 567.914062 40.472656 651.5 22.484375 "/>
<path style=" stroke:none;fill-rule:nonzero;fill:rgb(0%,0%,0%);fill-opacity:0.3;" d="M 651.5 22.515625 C 546.507812 23.777344 250.902344 7.695312 151.5 22.515625 "/>
<path style=" stroke:none;fill-rule:nonzero;fill:rgb(0%,0%,0%);fill-opacity:0.3;" d="M 150.5 23.472656 C 198.492188 22.515625 570.484375 36.058594 650.5 23.472656 "/>
<path style=" stroke:none;fill-rule:nonzero;fill:rgb(0%,0%,0%);fill-opacity:0.7;" d="M 650.5 23.527344 C 592.011719 24.695312 199.457031 16.226562 150.5 23.527344 "/>
<path style=" stroke:none;fill-rule:nonzero;fill:rgb(0%,0%,0%);fill-opacity:0.8;" d="M 147.5 25.5 C 195.496094 26.074219 553.492188 44.949219 647.5 25.5 "/>
<path style=" stroke:none;fill-rule:nonzero;fill:rgb(0%,0%,0%);fill-opacity:0.7;" d="M 647.5 25.5 C 581.542969 27.875 243.132812 6.511719 147.5 25.5 "/>
<path style=" stroke:none;fill-rule:nonzero;fill:rgb(0%,0%,0%);fill-opacity:0.4;" d="M 147.5 27.484375 C 193.996094 28.042969 562.933594 40.09375 647.5 27.484375 "/>
<path style=" stroke:none;fill-rule:nonzero;fill:rgb(0%,0%,0%);fill-opacity:0.6;" d="M 647.5 27.515625 C 562.117188 31.957031 205.054688 17.039062 147.5 27.515625 "/>
<path style=" stroke:none;fill-rule:nonzero;fill:rgb(0%,0%,0%);fill-opacity:0.4;" d="M 147.5 23.5 C 246.492188 24.6875 570.261719 34.382812 647.5 23.5 "/>
<path style=" stroke:none;fill-rule:nonzero;fill:rgb(0%,0%,0%);fill-opacity:0.9;" d="M 647.5 23.5 C 580 23.230469 200.628906 13.832031 147.5 23.5 "/>
<path style=" stroke:none;fill-rule:nonzero;fill:rgb(0%,0%,0%);fill-opacity:0.7;" d="M 151.5 23.472656 C 220.375 19.335938 601.324219 32.601562 651.5 23.472656 "/>
<path style=" stroke:none;fill-rule:nonzero;fill:rgb(0%,0%,0%);fill-opacity:0.5;" d="M 651.5 23.527344 C 572.050781 26.390625 247.5625 6.839844 151.5 23.527344 "/>
<path style=" stroke:none;fill-rule:nonzero;fill:rgb(0%,0%,0%);fill-opacity:0.6;" d="M 148.5 27.480469 C 234 27.136719 580.425781 38.746094 648.5 27.480469 "/>
<path style=" stroke:none;fill-rule:nonzero;fill:rgb(0%,0%,0%);fill-opacity:0.8;" d="M 648.5 27.519531 C 545.007812 28.761719 205.691406 15.210938 148.5 27.519531 "/>
</g>
</svg>
