<?xml version="1.0" encoding="UTF-8"?>
<svg xmlns="http://www.w3.org/2000/svg" xmlns:xlink="http://www.w3.org/1999/xlink" width="800pt" height="300pt" viewBox="0 0 800 300" version="1.1">
<g id="surface5389">
<rect x="0" y="0" width="800" height="300" style="fill:rgb(100%,100%,100%);fill-opacity:1;stroke:none;"/>
<path style="fill:none;stroke-width:2;stroke-linecap:butt;stroke-linejoin:miter;stroke:rgb(0%,0%,0%);stroke-opacity:1;stroke-miterlimit:10;" d="M 220 70 L 380 70 L 380 230 L 220 230 Z M 220 70 "/>
<path style=" stroke:none;fill-rule:nonzero;fill:rgb(0%,0%,0%);fill-opacity:0.3;" d="M 419.472656 230.5 C 416.648438 206.667969 420.964844 90.125 419.472656 70.5 "/>
<path style=" stroke:none;fill-rule:nonzero;fill:rgb(0%,0%,0%);fill-opacity:0.9;" d="M 419.527344 70.5 C 421.746094 88.605469 418.292969 216.152344 419.527344 230.5 "/>
<path style=" stroke:none;fill-rule:nonzero;fill:rgb(0%,0%,0%);fill-opacity:0.6;" d="M 419.5 230.5 C 417.320312 213.839844 420.847656 87.726562 419.5 70.5 "/>
<path style=" stroke:none;fill-rule:nonzero;fill:rgb(0%,0%,0%);fill-opacity:0.7;" d="M 419.5 70.5 C 422.976562 101.988281 417.070312 199.394531 419.5 230.5 "/>
<path style=" stroke:none;fill-rule:nonzero;fill:rgb(0%,0%,0%);fill-opacity:0.4;" d="M 421.476562 228.5 C 419.652344 212.28125 422.789062 86.691406 421.476562 68.5 "/>
<path style=" stroke:none;fill-rule:nonzero;fill:rgb(0%,0%,0%);fill-opacity:0.3;" d="M 421.523438 68.5 C 423.542969 84.695312 419.675781 206.015625 421.523438 228.5 "/>
<path style=" stroke:none;fill-rule:nonzero;fill:rgb(0%,0%,0%);fill-opacity:0.7;" d="M 420.488281 229.5 C 418 210.460938 423.25 100.09375 420.488281 69.5 "/>
<path style=" stroke:none;fill-rule:nonzero;fill:rgb(0%,0%,0%);fill-opacity:0.6;" d="M 420.511719 69.5 C 423.269531 92.375 418.742188 209.898438 420.511719 229.5 "/>
<path style=" stroke:none;fill-rule:nonzero;fill:rgb(0%,0%,0%);fill-opacity:0.6;" d="M 418.5 229.5 C 416.066406 209.972656 419.992188 87.679688 418.5 69.5 "/>
<path style=" stroke:none;fill-rule:nonzero;fill:rgb(0%,0%,0%);fill-opacity:0.4;" d="M 418.5 69.5 C 421.167969 92.386719 415.738281 198.90625 418.5 229.5 "/>
<path style=" stroke:none;fill-rule:nonzero;fill:rgb(0%,0%,0%);fill-opacity:0.7;" d="M 420.5 228.5 C 418.023438 206.078125 422.644531 93.367188 420.5 68.5 "/>
<path style=" stroke:none;fill-rule:nonzero;fill:rgb(0%,0%,0%);fill-opacity:0.7;" d="M 420.5 68.5 C 424.417969 99.9375 419.492188 214.136719 420.5 228.5 "/>
<path style=" stroke:none;fill-rule:nonzero;fill:rgb(0%,0%,0%);fill-opacity:0.7;" d="M 420.5 229.5 C 418.011719 208.527344 422.84375 101.09375 420.5 69.5 "/>
<path style=" stroke:none;fill-rule:nonzero;fill:rgb(0%,0%,0%);fill-opacity:0.5;" d="M 420.5 69.5 C 422.875 88.550781 418.851562 210.371094 420.5 229.5 "/>
<path style=" stroke:none;fill-rule:nonzero;fill:rgb(0%,0%,0%);fill-opacity:0.9;" d="M 418.472656 230.5 C 415.386719 205.730469 420.964844 101.601562 418.472656 70.5 "/>
<path style=" stroke:none;fill-rule:nonzero;fill:rgb(0%,0%,0%);fill-opacity:0.9;" d="M 418.527344 70.5 C 421.367188 95.296875 416.316406 199.859375 418.527344 230.5 "/>
<path style=" stroke:none;fill-rule:nonzero;fill:rgb(0%,0%,0%);fill-opacity:0.3;" d="M 418.5 231.5 C 416.152344 210.992188 420.613281 99.257812 418.5 71.5 "/>
<path style=" stroke:none;fill-rule:nonzero;fill:rgb(0%,0%,0%);fill-opacity:0.9;" d="M 418.5 71.5 C 421.746094 96.730469 416.890625 212.367188 418.5 231.5 "/>
<path style=" stroke:none;fill-rule:nonzero;fill:rgb(0%,0%,0%);fill-opacity:0.9;" d="M 421.480469 228.5 C 418.535156 202.75 424.015625 100.078125 421.480469 68.5 "/>
<path style=" stroke:none;fill-rule:nonzero;fill:rgb(0%,0%,0%);fill-opacity:0.4;" d="M 421.519531 68.5 C 424.773438 94.214844 419.722656 205.53125 421.519531 228.5 "/>
<path style=" stroke:none;fill-rule:nonzero;fill:rgb(0%,0%,0%);fill-opacity:0.9;" d="M 418.5 69.5 C 441.867188 66.824219 548.378906 72.15625 578.5 69.5 "/>
<path style=" stroke:none;fill-rule:nonzero;fill:rgb(0%,0%,0%);fill-opacity:0.7;" d="M 578.5 69.5 C 553.273438 72.796875 441.960938 67.808594 418.5 69.5 "/>
<path style=" stroke:none;fill-rule:nonzero;fill:rgb(0%,0%,0%);fill-opacity:0.4;" d="M 421.5 70.5 C 446.308594 67.761719 562.824219 71.808594 581.5 70.5 "/>
<path style=" stroke:none;fill-rule:nonzero;fill:rgb(0%,0%,0%);fill-opacity:0.6;" d="M 581.5 70.5 C 548.617188 74.464844 451.183594 68.359375 421.5 70.5 "/>
<path style=" stroke:none;fill-rule:nonzero;fill:rgb(0%,0%,0%);fill-opacity:0.3;" d="M 418.5 68.476562 C 439.960938 66.019531 544.992188 70.960938 578.5 68.476562 "/>
<path style=" stroke:none;fill-rule:nonzero;fill:rgb(0%,0%,0%);fill-opacity:0.9;" d="M 578.5 68.523438 C 546.546875 72.179688 445.789062 66.554688 418.5 68.523438 "/>
<path style=" stroke:none;fill-rule:nonzero;fill:rgb(0%,0%,0%);fill-opacity:0.8;" d="M 420.5 68.5 C 443.863281 65.777344 547.476562 71.015625 580.5 68.5 "/>
<path style=" stroke:none;fill-rule:nonzero;fill:rgb(0%,0%,0%);fill-opacity:0.8;" d="M 580.5 68.5 C 562.859375 70.554688 447.78125 66.421875 420.5 68.5 "/>
<path style=" stroke:none;fill-rule:nonzero;fill:rgb(0%,0%,0%);fill-opacity:0.5;" d="M 418.5 71.472656 C 446.164062 68.359375 556 73.140625 578.5 71.472656 "/>
<path style=" stroke:none;fill-rule:nonzero;fill:rgb(0%,0%,0%);fill-opacity:0.3;" d="M 578.5 71.527344 C 563.730469 73.339844 447.21875 69.339844 418.5 71.527344 "/>
<path style=" stroke:none;fill-rule:nonzero;fill:rgb(0%,0%,0%);fill-opacity:0.5;" d="M 420.5 70.5 C 441 68.109375 565.183594 71.636719 580.5 70.5 "/>
<path style=" stroke:none;fill-rule:nonzero;fill:rgb(0%,0%,0%);fill-opacity:0.8;" d="M 580.5 70.5 C 553.792969 73.558594 442.039062 68.859375 420.5 70.5 "/>
<path style=" stroke:none;fill-rule:nonzero;fill:rgb(0%,0%,0%);fill-opacity:0.5;" d="M 420.5 69.476562 C 441.015625 67.210938 555.628906 71.570312 580.5 69.476562 "/>
<path style=" stroke:none;fill-rule:nonzero;fill:rgb(0%,0%,0%);fill-opacity:0.6;" d="M 580.5 69.523438 C 549.507812 73.132812 439.621094 67.796875 420.5 69.523438 "/>
<path style=" stroke:none;fill-rule:nonzero;fill:rgb(0%,0%,0%);fill-opacity:0.3;" d="M 418.5 71.472656 C 434.691406 69.421875 548.824219 73.734375 578.5 71.472656 "/>
<path style=" stroke:none;fill-rule:nonzero;fill:rgb(0%,0%,0%);fill-opacity:0.6;" d="M 578.5 71.527344 C 559.894531 73.582031 445.28125 69.21875 418.5 71.527344 "/>
<path style=" stroke:none;fill-rule:nonzero;fill:rgb(0%,0%,0%);fill-opacity:0.8;" d="M 419.5 70.480469 C 436.179688 68.472656 551.273438 72.800781 579.5 70.480469 "/>
<path style=" stroke:none;fill-rule:nonzero;fill:rgb(0%,0%,0%);fill-opacity:0.8;" d="M 579.5 70.519531 C 558.992188 72.867188 437.671875 68.953125 419.5 70.519531 "/>
<path style=" stroke:none;fill-rule:nonzero;fill:rgb(0%,0%,0%);fill-opacity:0.9;" d="M 418.5 70.5 C 442.355469 67.867188 552.664062 72.570312 578.5 70.5 "/>
<path style=" stroke:none;fill-rule:nonzero;fill:rgb(0%,0%,0%);fill-opacity:0.3;" d="M 578.5 70.5 C 556.601562 73.320312 444.339844 68.480469 418.5 70.5 "/>
<path style=" stroke:none;fill-rule:nonzero;fill:rgb(0%,0%,0%);fill-opacity:0.3;" d="M 581.5 70.5 C 584.34375 96.261719 579.132812 199.390625 581.5 230.5 "/>
<path style=" stroke:none;fill-rule:nonzero;fill:rgb(0%,0%,0%);fill-opacity:0.4;" d="M 581.5 230.5 C 578 200.464844 583.726562 98.25 581.5 70.5 "/>
<path style=" stroke:none;fill-rule:nonzero;fill:rgb(0%,0%,0%);fill-opacity:0.7;" d="M 579.527344 70.5 C 581.511719 88.148438 577.023438 202.773438 579.527344 230.5 "/>
<path style=" stroke:none;fill-rule:nonzero;fill:rgb(0%,0%,0%);fill-opacity:0.6;" d="M 579.472656 230.5 C 576.035156 203.355469 581.449219 93.9375 579.472656 70.5 "/>
<path style=" stroke:none;fill-rule:nonzero;fill:rgb(0%,0%,0%);fill-opacity:0.4;" d="M 581.53125 71.5 C 585.429688 104.390625 580.070312 212.355469 581.53125 231.5 "/>
<path style=" stroke:none;fill-rule:nonzero;fill:rgb(0%,0%,0%);fill-opacity:0.3;" d="M 581.46875 231.5 C 578.789062 207.648438 583.65625 96.847656 581.46875 71.5 "/>
<path style=" stroke:none;fill-rule:nonzero;fill:rgb(0%,0%,0%);fill-opacity:0.5;" d="M 578.511719 69.5 C 582.304688 98.53125 576.4375 203.664062 578.511719 229.5 "/>
<path style=" stroke:none;fill-rule:nonzero;fill:rgb(0%,0%,0%);fill-opacity:0.7;" d="M 578.488281 229.5 C 576.078125 210.453125 580.324219 92.949219 578.488281 69.5 "/>
<path style=" stroke:none;fill-rule:nonzero;fill:rgb(0%,0%,0%);fill-opacity:0.3;" d="M 580.5 68.5 C 582.109375 82.808594 577.910156 199.816406 580.5 228.5 "/>
<path style=" stroke:none;fill-rule:nonzero;fill:rgb(0%,0%,0%);fill-opacity:0.6;" d="M 580.5 228.5 C 577.171875 201.34375 582.851562 95.757812 580.5 68.5 "/>
<path style=" stroke:none;fill-rule:nonzero;fill:rgb(0%,0%,0%);fill-opacity:0.5;" d="M 581.5 70.5 C 584.871094 96.683594 579.96875 210.398438 581.5 230.5 "/>
<path style=" stroke:none;fill-rule:nonzero;fill:rgb(0%,0%,0%);fill-opacity:0.3;" d="M 581.5 230.5 C 577.332031 198.613281 583.304688 92.988281 581.5 70.5 "/>
<path style=" stroke:none;fill-rule:nonzero;fill:rgb(0%,0%,0%);fill-opacity:0.3;" d="M 580.5 68.5 C 583.222656 91.863281 579.042969 209.835938 580.5 228.5 "/>
<path style=" stroke:none;fill-rule:nonzero;fill:rgb(0%,0%,0%);fill-opacity:0.4;" d="M 580.5 228.5 C 578.296875 209.910156 581.777344 86.214844 580.5 68.5 "/>
<path style=" stroke:none;fill-rule:nonzero;fill:rgb(0%,0%,0%);fill-opacity:0.5;" d="M 581.511719 71.5 C 583.714844 90.089844 579.976562 212.363281 581.511719 231.5 "/>
<path style=" stroke:none;fill-rule:nonzero;fill:rgb(0%,0%,0%);fill-opacity:0.7;" d="M 581.488281 231.5 C 578.039062 202.90625 583.90625 100.199219 581.488281 71.5 "/>
<path style=" stroke:none;fill-rule:nonzero;fill:rgb(0%,0%,0%);fill-opacity:0.9;" d="M 579.511719 69.5 C 582.039062 92.402344 577.863281 210.851562 579.511719 229.5 "/>
<path style=" stroke:none;fill-rule:nonzero;fill:rgb(0%,0%,0%);fill-opacity:0.4;" d="M 579.488281 229.5 C 575.800781 196.101562 581.496094 95.824219 579.488281 69.5 "/>
<path style=" stroke:none;fill-rule:nonzero;fill:rgb(0%,0%,0%);fill-opacity:0.4;" d="M 580.53125 71.5 C 583.363281 93.882812 579.289062 213.785156 580.53125 231.5 "/>
<path style=" stroke:none;fill-rule:nonzero;fill:rgb(0%,0%,0%);fill-opacity:0.4;" d="M 580.46875 231.5 C 577.425781 206.242188 582.472656 97.824219 580.46875 71.5 "/>
<path style=" stroke:none;fill-rule:nonzero;fill:rgb(0%,0%,0%);fill-opacity:0.4;" d="M 581.5 228.515625 C 554.828125 231.839844 440.164062 227.058594 421.5 228.515625 "/>
<path style=" stroke:none;fill-rule:nonzero;fill:rgb(0%,0%,0%);fill-opacity:0.4;" d="M 421.5 228.484375 C 443.425781 225.882812 553.273438 230.804688 581.5 228.484375 "/>
<path style=" stroke:none;fill-rule:nonzero;fill:rgb(0%,0%,0%);fill-opacity:0.6;" d="M 578.5 228.515625 C 549.398438 231.730469 447.695312 226.292969 418.5 228.515625 "/>
<path style=" stroke:none;fill-rule:nonzero;fill:rgb(0%,0%,0%);fill-opacity:0.5;" d="M 418.5 228.484375 C 440.394531 225.621094 560.3125 229.867188 578.5 228.484375 "/>
<path style=" stroke:none;fill-rule:nonzero;fill:rgb(0%,0%,0%);fill-opacity:0.7;" d="M 581.5 231.515625 C 563.871094 233.675781 454.019531 228.710938 421.5 231.515625 "/>
<path style=" stroke:none;fill-rule:nonzero;fill:rgb(0%,0%,0%);fill-opacity:0.8;" d="M 421.5 231.484375 C 435.804688 229.847656 553.253906 233.519531 581.5 231.484375 "/>
<path style=" stroke:none;fill-rule:nonzero;fill:rgb(0%,0%,0%);fill-opacity:0.6;" d="M 580.5 230.527344 C 557.179688 233.578125 448.710938 228.039062 420.5 230.527344 "/>
<path style=" stroke:none;fill-rule:nonzero;fill:rgb(0%,0%,0%);fill-opacity:0.3;" d="M 420.5 230.472656 C 440.535156 228.21875 564.230469 231.777344 580.5 230.472656 "/>
<path style=" stroke:none;fill-rule:nonzero;fill:rgb(0%,0%,0%);fill-opacity:0.6;" d="M 579.5 230.53125 C 562.363281 232.734375 440.089844 229.085938 419.5 230.53125 "/>
<path style=" stroke:none;fill-rule:nonzero;fill:rgb(0%,0%,0%);fill-opacity:0.9;" d="M 419.5 230.46875 C 437.136719 228.378906 563.222656 231.644531 579.5 230.46875 "/>
<path style=" stroke:none;fill-rule:nonzero;fill:rgb(0%,0%,0%);fill-opacity:0.4;" d="M 579.5 231.511719 C 553.796875 234.871094 437.214844 230.269531 419.5 231.511719 "/>
<path style=" stroke:none;fill-rule:nonzero;fill:rgb(0%,0%,0%);fill-opacity:0.9;" d="M 419.5 231.488281 C 446.667969 228.265625 560.832031 232.871094 579.5 231.488281 "/>
<path style=" stroke:none;fill-rule:nonzero;fill:rgb(0%,0%,0%);fill-opacity:0.3;" d="M 581.5 230.5 C 561.484375 232.914062 450.1875 227.96875 421.5 230.5 "/>
<path style=" stroke:none;fill-rule:nonzero;fill:rgb(0%,0%,0%);fill-opacity:0.4;" d="M 421.5 230.5 C 449.132812 227.113281 550.394531 232.929688 581.5 230.5 "/>
<path style=" stroke:none;fill-rule:nonzero;fill:rgb(0%,0%,0%);fill-opacity:0.8;" d="M 579.5 231.511719 C 560.417969 233.621094 435.296875 230.339844 419.5 231.511719 "/>
<path style=" stroke:none;fill-rule:nonzero;fill:rgb(0%,0%,0%);fill-opacity:0.4;" d="M 419.5 231.488281 C 433.789062 229.707031 545.980469 233.839844 579.5 231.488281 "/>
<path style=" stroke:none;fill-rule:nonzero;fill:rgb(0%,0%,0%);fill-opacity:0.4;" d="M 580.5 230.5 C 551.402344 233.773438 445.847656 228.316406 420.5 230.5 "/>
<path style=" stroke:none;fill-rule:nonzero;fill:rgb(0%,0%,0%);fill-opacity:0.6;" d="M 420.5 230.5 C 443.867188 227.824219 547.507812 233.410156 580.5 230.5 "/>
<path style=" stroke:none;fill-rule:nonzero;fill:rgb(0%,0%,0%);fill-opacity:0.4;" d="M 580.5 231.5 C 555.21875 234.34375 440.585938 229.769531 420.5 231.5 "/>
<path style=" stroke:none;fill-rule:nonzero;fill:rgb(0%,0%,0%);fill-opacity:0.8;" d="M 420.5 231.5 C 440.964844 228.824219 553.699219 233.539062 580.5 231.5 "/>
</g>
</svg>
