<?xml version="1.0" encoding="UTF-8"?>
<svg xmlns="http://www.w3.org/2000/svg" xmlns:xlink="http://www.w3.org/1999/xlink" width="800pt" height="50pt" viewBox="0 0 800 50" version="1.1">
<g id="surface732">
<rect x="0" y="0" width="800" height="50" style="fill:rgb(100%,100%,100%);fill-opacity:1;stroke:none;"/>
<path style=" stroke:none;fill-rule:nonzero;fill:rgb(0%,0%,0%);fill-opacity:0.7;" d="M 148.5 22.5 C 241.332031 16.921875 602.453125 28.988281 648.5 22.5 "/>
<path style=" stroke:none;fill-rule:nonzero;fill:rgb(0%,0%,0%);fill-opacity:0.3;" d="M 648.5 22.5 C 588.511719 21.300781 212.367188 13.5 148.5 22.5 "/>
<path style=" stroke:none;fill-rule:nonzero;fill:rgb(0%,0%,0%);fill-opacity:0.3;" d="M 147.5 24.5 C 195.414062 21.621094 570.761719 38.464844 647.5 24.5 "/>
<path style=" stroke:none;fill-rule:nonzero;fill:rgb(0%,0%,0%);fill-opacity:0.8;" d="M 647.5 24.5 C 571.101562 28.476562 224.238281 10.535156 147.5 24.5 "/>
<path style=" stroke:none;fill-rule:nonzero;fill:rgb(0%,0%,0%);fill-opacity:0.4;" d="M 152.5 25.480469 C 255.992188 24.238281 606.964844 34.898438 652.5 25.480469 "/>
<path style=" stroke:none;fill-rule:nonzero;fill:rgb(0%,0%,0%);fill-opacity:0.8;" d="M 652.5 25.519531 C 607.5625 27.859375 220.386719 13.167969 152.5 25.519531 "/>
<path style=" stroke:none;fill-rule:nonzero;fill:rgb(0%,0%,0%);fill-opacity:0.4;" d="M 152.5 23.480469 C 210.921875 20.441406 556.4375 40.167969 652.5 23.480469 "/>
<path style=" stroke:none;fill-rule:nonzero;fill:rgb(0%,0%,0%);fill-opacity:0.6;" d="M 652.5 23.519531 C 561.007812 24.617188 254.742188 7.4375 152.5 23.519531 "/>
<path style=" stroke:none;fill-rule:nonzero;fill:rgb(0%,0%,0%);fill-opacity:0.4;" d="M 152.5 27.46875 C 207.945312 25.027344 549.195312 46.269531 652.5 27.46875 "/>
<path style=" stroke:none;fill-rule:nonzero;fill:rgb(0%,0%,0%);fill-opacity:0.6;" d="M 652.5 27.53125 C 570.007812 26.539062 250.917969 7.167969 152.5 27.53125 "/>
<path style=" stroke:none;fill-rule:nonzero;fill:rgb(0%,0%,0%);fill-opacity:0.6;" d="M 150.5 23.484375 C 201.46875 21.648438 589.746094 33.039062 650.5 23.484375 "/>
<path style=" stroke:none;fill-rule:nonzero;fill:rgb(0%,0%,0%);fill-opacity:0.6;" d="M 650.5 23.515625 C 548.507812 22.292969 230.515625 10.929688 150.5 23.515625 "/>
<path style=" stroke:none;fill-rule:nonzero;fill:rgb(0%,0%,0%);fill-opacity:0.3;" d="M 149.5 24.5 C 197.480469 23.15625 590.304688 34.296875 649.5 24.5 "/>
<path style=" stroke:none;fill-rule:nonzero;fill:rgb(0%,0%,0%);fill-opacity:0.6;" d="M 649.5 24.5 C 556.519531 26.359375 244.449219 10.34375 149.5 24.5 "/>
<path style=" stroke:none;fill-rule:nonzero;fill:rgb(0%,0%,0%);fill-opacity:0.8;" d="M 149.5 27.5 C 219.90625 23.835938 575.320312 38.558594 649.5 27.5 "/>
<path style=" stroke:none;fill-rule:nonzero;fill:rgb(0%,0%,0%);fill-opacity:0.9;" d="M 649.5 27.5 C 546.019531 25.429688 193.414062 17.679688 149.5 27.5 "/>
<path style=" stroke:none;fill-rule:nonzero;fill:rgb(0%,0%,0%);fill-opacity:0.8;" d="M 150.5 24.488281 C 240.492188 23.410156 591.46875 35.230469 650.5 24.488281 "/>
<path style=" stroke:none;fill-rule:nonzero;fill:rgb(0%,0%,0%);fill-opacity:0.3;" d="M 650.5 24.511719 C 586 24.253906 240.25 6.691406 150.5 24.511719 "/>
<path style=" stroke:none;fill-rule:nonzero;fill:rgb(0%,0%,0%);fill-opacity:0.5;" d="M 150.5 26.5 C 223.953125 23.855469 598.703125 35.070312 650.5 26.5 "/>
<path style=" stroke:none;fill-rule:nonzero;fill:rgb(0%,0%,0%);fill-opacity:0.3;" d="M 650.5 26.5 C 599.570312 29.152344 233.679688 14.777344 150.5 26.5 "/>
<path style=" stroke:none;fill-rule:nonzero;fill:rgb(0%,0%,0%);fill-opacity:0.8;" d="M 152.5 23.476562 C 240.878906 18.875 590.34375 33.761719 652.5 23.476562 "/>
<path style=" stroke:none;fill-rule:nonzero;fill:rgb(0%,0%,0%);fill-opacity:0.8;" d="M 652.5 23.523438 C 571.53125 25.792969 253.683594 1.746094 152.5 23.523438 "/>
<path style=" stroke:none;fill-rule:nonzero;fill:rgb(0%,0%,0%);fill-opacity:0.5;" d="M 150.5 24.5 C 247.992188 25.671875 553.554688 44.554688 650.5 24.5 "/>
<path style=" stroke:none;fill-rule:nonzero;fill:rgb(0%,0%,0%);fill-opacity:0.5;" d="M 650.5 24.5 C 578.5 24.210938 249.074219 4.929688 150.5 24.5 "/>
<path style=" stroke:none;fill-rule:nonzero;fill:rgb(0%,0%,0%);fill-opacity:0.8;" d="M 150.5 27.472656 C 244.910156 23.316406 585.222656 37.207031 650.5 27.472656 "/>
<path style=" stroke:none;fill-rule:nonzero;fill:rgb(0%,0%,0%);fill-opacity:0.5;" d="M 650.5 27.527344 C 560.5 27.164062 243.730469 12.097656 150.5 27.527344 "/>
<path style=" stroke:none;fill-rule:nonzero;fill:rgb(0%,0%,0%);fill-opacity:0.4;" d="M 151.5 26.5 C 229.449219 23.691406 576.234375 40.195312 651.5 26.5 "/>
<path style=" stroke:none;fill-rule:nonzero;fill:rgb(0%,0%,0%);fill-opacity:0.5;" d="M 651.5 26.5 C 587.023438 28.304688 241.25 8.679688 151.5 26.5 "/>
<path style=" stroke:none;fill-rule:nonzero;fill:rgb(0%,0%,0%);fill-opacity:0.3;" d="M 147.5 27.484375 C 220.953125 24.839844 567.484375 40.070312 647.5 27.484375 "/>
<path style=" stroke:none;fill-rule:nonzero;fill:rgb(0%,0%,0%);fill-opacity:0.3;" d="M 647.5 27.515625 C 553.171875 33.183594 247.386719 6.851562 147.5 27.515625 "/>
</g>
</svg>
