<?xml version="1.0" encoding="UTF-8"?>
<svg xmlns="http://www.w3.org/2000/svg" xmlns:xlink="http://www.w3.org/1999/xlink" width="800pt" height="300pt" viewBox="0 0 800 300" version="1.1">
<g id="surface724">
<rect x="0" y="0" width="800" height="300" style="fill:rgb(100%,100%,100%);fill-opacity:1;stroke:none;"/>
<path style="fill:none;stroke-width:2;stroke-linecap:butt;stroke-linejoin:miter;stroke:rgb(0%,0%,0%);stroke-opacity:1;stroke-miterlimit:10;" d="M 220 70 L 380 70 L 380 230 L 220 230 Z M 220 70 "/>
<path style=" stroke:none;fill-rule:nonzero;fill:rgb(0%,0%,0%);fill-opacity:0.6;" d="M 420.5 231.5 C 416.410156 198.148438 422.820312 97.796875 420.5 71.5 "/>
<path style=" stroke:none;fill-rule:nonzero;fill:rgb(0%,0%,0%);fill-opacity:0.7;" d="M 420.5 71.5 C 422.390625 87.710938 418.96875 211.398438 420.5 231.5 "/>
<path style=" stroke:none;fill-rule:nonzero;fill:rgb(0%,0%,0%);fill-opacity:0.9;" d="M 418.484375 231.5 C 415.707031 207.660156 420.667969 102.625 418.484375 71.5 "/>
<path style=" stroke:none;fill-rule:nonzero;fill:rgb(0%,0%,0%);fill-opacity:0.6;" d="M 418.515625 71.5 C 421.789062 98.179688 416.457031 205.179688 418.515625 231.5 "/>
<path style=" stroke:none;fill-rule:nonzero;fill:rgb(0%,0%,0%);fill-opacity:0.3;" d="M 419.5 228.5 C 416.511719 203.71875 420.671875 84.296875 419.5 68.5 "/>
<path style=" stroke:none;fill-rule:nonzero;fill:rgb(0%,0%,0%);fill-opacity:0.5;" d="M 419.5 68.5 C 423.050781 99.496094 417.199219 199.792969 419.5 228.5 "/>
<path style=" stroke:none;fill-rule:nonzero;fill:rgb(0%,0%,0%);fill-opacity:0.6;" d="M 419.5 229.5 C 416.957031 208.050781 422.089844 98.183594 419.5 69.5 "/>
<path style=" stroke:none;fill-rule:nonzero;fill:rgb(0%,0%,0%);fill-opacity:0.9;" d="M 419.5 69.5 C 423.121094 98.070312 417.574219 206.058594 419.5 229.5 "/>
<path style=" stroke:none;fill-rule:nonzero;fill:rgb(0%,0%,0%);fill-opacity:0.9;" d="M 421.5 228.5 C 419.007812 208.496094 423.519531 94.339844 421.5 68.5 "/>
<path style=" stroke:none;fill-rule:nonzero;fill:rgb(0%,0%,0%);fill-opacity:0.6;" d="M 421.5 68.5 C 423.589844 86.136719 420.15625 209.347656 421.5 228.5 "/>
<path style=" stroke:none;fill-rule:nonzero;fill:rgb(0%,0%,0%);fill-opacity:0.8;" d="M 421.5 230.5 C 418.605469 205.226562 422.804688 86.769531 421.5 70.5 "/>
<path style=" stroke:none;fill-rule:nonzero;fill:rgb(0%,0%,0%);fill-opacity:0.5;" d="M 421.5 70.5 C 424.011719 90.019531 419.566406 207.542969 421.5 230.5 "/>
<path style=" stroke:none;fill-rule:nonzero;fill:rgb(0%,0%,0%);fill-opacity:0.3;" d="M 418.480469 230.5 C 415.601562 208.125 420.390625 94.90625 418.480469 70.5 "/>
<path style=" stroke:none;fill-rule:nonzero;fill:rgb(0%,0%,0%);fill-opacity:0.7;" d="M 418.519531 70.5 C 420.535156 86.695312 416.28125 205.160156 418.519531 230.5 "/>
<path style=" stroke:none;fill-rule:nonzero;fill:rgb(0%,0%,0%);fill-opacity:0.8;" d="M 418.484375 231.5 C 415.75 207.171875 419.796875 89.691406 418.484375 71.5 "/>
<path style=" stroke:none;fill-rule:nonzero;fill:rgb(0%,0%,0%);fill-opacity:0.9;" d="M 418.515625 71.5 C 421.902344 99.132812 417.132812 214.273438 418.515625 231.5 "/>
<path style=" stroke:none;fill-rule:nonzero;fill:rgb(0%,0%,0%);fill-opacity:0.8;" d="M 418.5 231.5 C 415.332031 204.324219 420.011719 93.046875 418.5 71.5 "/>
<path style=" stroke:none;fill-rule:nonzero;fill:rgb(0%,0%,0%);fill-opacity:0.3;" d="M 418.5 71.5 C 421.527344 95.792969 415.882812 200.410156 418.5 231.5 "/>
<path style=" stroke:none;fill-rule:nonzero;fill:rgb(0%,0%,0%);fill-opacity:0.3;" d="M 420.480469 231.5 C 417.53125 205.75 422.671875 96.363281 420.480469 71.5 "/>
<path style=" stroke:none;fill-rule:nonzero;fill:rgb(0%,0%,0%);fill-opacity:0.4;" d="M 420.519531 71.5 C 424.378906 101.976562 417.652344 198.984375 420.519531 231.5 "/>
<path style=" stroke:none;fill-rule:nonzero;fill:rgb(0%,0%,0%);fill-opacity:0.4;" d="M 420.5 70.5 C 447.1875 67.28125 558.496094 72.351562 580.5 70.5 "/>
<path style=" stroke:none;fill-rule:nonzero;fill:rgb(0%,0%,0%);fill-opacity:0.4;" d="M 580.5 70.5 C 564.765625 72.332031 450.65625 68.265625 420.5 70.5 "/>
<path style=" stroke:none;fill-rule:nonzero;fill:rgb(0%,0%,0%);fill-opacity:0.3;" d="M 418.5 70.488281 C 441.839844 67.582031 545.464844 72.871094 578.5 70.488281 "/>
<path style=" stroke:none;fill-rule:nonzero;fill:rgb(0%,0%,0%);fill-opacity:0.6;" d="M 578.5 70.511719 C 547.496094 73.996094 451.523438 67.996094 418.5 70.511719 "/>
<path style=" stroke:none;fill-rule:nonzero;fill:rgb(0%,0%,0%);fill-opacity:0.7;" d="M 421.5 70.484375 C 450.597656 67.210938 561.40625 72.136719 581.5 70.484375 "/>
<path style=" stroke:none;fill-rule:nonzero;fill:rgb(0%,0%,0%);fill-opacity:0.7;" d="M 581.5 70.515625 C 564.34375 72.585938 447.316406 68.1875 421.5 70.515625 "/>
<path style=" stroke:none;fill-rule:nonzero;fill:rgb(0%,0%,0%);fill-opacity:0.3;" d="M 418.5 71.5 C 439.929688 68.785156 563.65625 72.539062 578.5 71.5 "/>
<path style=" stroke:none;fill-rule:nonzero;fill:rgb(0%,0%,0%);fill-opacity:0.5;" d="M 578.5 71.5 C 563.746094 73.429688 440.015625 69.601562 418.5 71.5 "/>
<path style=" stroke:none;fill-rule:nonzero;fill:rgb(0%,0%,0%);fill-opacity:0.3;" d="M 420.5 69.5 C 434.796875 67.777344 553.226562 71.6875 580.5 69.5 "/>
<path style=" stroke:none;fill-rule:nonzero;fill:rgb(0%,0%,0%);fill-opacity:0.3;" d="M 580.5 69.5 C 549.039062 73.230469 446.324219 67.273438 420.5 69.5 "/>
<path style=" stroke:none;fill-rule:nonzero;fill:rgb(0%,0%,0%);fill-opacity:0.6;" d="M 418.5 69.488281 C 441.375 66.730469 551.226562 71.675781 578.5 69.488281 "/>
<path style=" stroke:none;fill-rule:nonzero;fill:rgb(0%,0%,0%);fill-opacity:0.4;" d="M 578.5 69.511719 C 551.820312 72.785156 434.773438 68.273438 418.5 69.511719 "/>
<path style=" stroke:none;fill-rule:nonzero;fill:rgb(0%,0%,0%);fill-opacity:0.4;" d="M 420.5 68.5 C 446.246094 65.5 558.980469 70.355469 580.5 68.5 "/>
<path style=" stroke:none;fill-rule:nonzero;fill:rgb(0%,0%,0%);fill-opacity:0.4;" d="M 580.5 68.5 C 557.597656 71.027344 451.621094 66.253906 420.5 68.5 "/>
<path style=" stroke:none;fill-rule:nonzero;fill:rgb(0%,0%,0%);fill-opacity:0.4;" d="M 420.5 71.46875 C 451.929688 67.488281 550.367188 74.007812 580.5 71.46875 "/>
<path style=" stroke:none;fill-rule:nonzero;fill:rgb(0%,0%,0%);fill-opacity:0.8;" d="M 580.5 71.53125 C 555.261719 74.726562 451.574219 68.726562 420.5 71.53125 "/>
<path style=" stroke:none;fill-rule:nonzero;fill:rgb(0%,0%,0%);fill-opacity:0.4;" d="M 420.5 71.5 C 444.832031 68.8125 562.789062 72.8125 580.5 71.5 "/>
<path style=" stroke:none;fill-rule:nonzero;fill:rgb(0%,0%,0%);fill-opacity:0.4;" d="M 580.5 71.5 C 563.8125 73.445312 439.625 69.8125 420.5 71.5 "/>
<path style=" stroke:none;fill-rule:nonzero;fill:rgb(0%,0%,0%);fill-opacity:0.3;" d="M 420.5 69.5 C 445.785156 66.707031 563.757812 70.910156 580.5 69.5 "/>
<path style=" stroke:none;fill-rule:nonzero;fill:rgb(0%,0%,0%);fill-opacity:0.7;" d="M 580.5 69.5 C 561.421875 71.644531 449.199219 67.082031 420.5 69.5 "/>
<path style=" stroke:none;fill-rule:nonzero;fill:rgb(0%,0%,0%);fill-opacity:0.7;" d="M 578.5 69.5 C 581.773438 96.664062 576.644531 208.945312 578.5 229.5 "/>
<path style=" stroke:none;fill-rule:nonzero;fill:rgb(0%,0%,0%);fill-opacity:0.9;" d="M 578.5 229.5 C 575.335938 201.359375 580.769531 100.136719 578.5 69.5 "/>
<path style=" stroke:none;fill-rule:nonzero;fill:rgb(0%,0%,0%);fill-opacity:0.6;" d="M 578.5 68.5 C 580.808594 89.011719 576.894531 207.441406 578.5 228.5 "/>
<path style=" stroke:none;fill-rule:nonzero;fill:rgb(0%,0%,0%);fill-opacity:0.6;" d="M 578.5 228.5 C 576.222656 209.917969 580.332031 91.949219 578.5 68.5 "/>
<path style=" stroke:none;fill-rule:nonzero;fill:rgb(0%,0%,0%);fill-opacity:0.5;" d="M 578.5 71.5 C 580.660156 91.0625 576.144531 201.351562 578.5 231.5 "/>
<path style=" stroke:none;fill-rule:nonzero;fill:rgb(0%,0%,0%);fill-opacity:0.5;" d="M 578.5 231.5 C 574.777344 199.554688 580.226562 90.621094 578.5 71.5 "/>
<path style=" stroke:none;fill-rule:nonzero;fill:rgb(0%,0%,0%);fill-opacity:0.8;" d="M 579.5 68.5 C 581.863281 86.585938 577.082031 198.355469 579.5 228.5 "/>
<path style=" stroke:none;fill-rule:nonzero;fill:rgb(0%,0%,0%);fill-opacity:0.8;" d="M 579.5 228.5 C 576.925781 208.503906 582.285156 100.058594 579.5 68.5 "/>
<path style=" stroke:none;fill-rule:nonzero;fill:rgb(0%,0%,0%);fill-opacity:0.5;" d="M 579.5 68.5 C 582.449219 94.734375 577.117188 195.464844 579.5 228.5 "/>
<path style=" stroke:none;fill-rule:nonzero;fill:rgb(0%,0%,0%);fill-opacity:0.7;" d="M 579.5 228.5 C 577.425781 210.378906 581.140625 86.667969 579.5 68.5 "/>
<path style=" stroke:none;fill-rule:nonzero;fill:rgb(0%,0%,0%);fill-opacity:0.6;" d="M 580.5 71.5 C 583.15625 93.902344 579.097656 215.242188 580.5 231.5 "/>
<path style=" stroke:none;fill-rule:nonzero;fill:rgb(0%,0%,0%);fill-opacity:0.3;" d="M 580.5 231.5 C 577.761719 206.691406 582.527344 93.96875 580.5 71.5 "/>
<path style=" stroke:none;fill-rule:nonzero;fill:rgb(0%,0%,0%);fill-opacity:0.3;" d="M 578.5 70.5 C 581.074219 93.394531 576.222656 198.902344 578.5 230.5 "/>
<path style=" stroke:none;fill-rule:nonzero;fill:rgb(0%,0%,0%);fill-opacity:0.5;" d="M 578.5 230.5 C 575.253906 205.269531 579.707031 86.773438 578.5 70.5 "/>
<path style=" stroke:none;fill-rule:nonzero;fill:rgb(0%,0%,0%);fill-opacity:0.3;" d="M 579.5 68.5 C 582.070312 89.464844 578.234375 214.15625 579.5 228.5 "/>
<path style=" stroke:none;fill-rule:nonzero;fill:rgb(0%,0%,0%);fill-opacity:0.8;" d="M 579.5 228.5 C 577.476562 212.789062 582.074219 97.667969 579.5 68.5 "/>
<path style=" stroke:none;fill-rule:nonzero;fill:rgb(0%,0%,0%);fill-opacity:0.6;" d="M 580.511719 71.5 C 583.496094 94.34375 578.828125 209.964844 580.511719 231.5 "/>
<path style=" stroke:none;fill-rule:nonzero;fill:rgb(0%,0%,0%);fill-opacity:0.9;" d="M 580.488281 231.5 C 576.996094 204.363281 581.648438 86.335938 580.488281 71.5 "/>
<path style=" stroke:none;fill-rule:nonzero;fill:rgb(0%,0%,0%);fill-opacity:0.3;" d="M 580.5 68.5 C 583.289062 90.886719 579.042969 210.316406 580.5 228.5 "/>
<path style=" stroke:none;fill-rule:nonzero;fill:rgb(0%,0%,0%);fill-opacity:0.3;" d="M 580.5 228.5 C 578.375 210.867188 581.882812 87.167969 580.5 68.5 "/>
<path style=" stroke:none;fill-rule:nonzero;fill:rgb(0%,0%,0%);fill-opacity:0.6;" d="M 581.5 229.5 C 555.324219 232.921875 449.246094 227.21875 421.5 229.5 "/>
<path style=" stroke:none;fill-rule:nonzero;fill:rgb(0%,0%,0%);fill-opacity:0.5;" d="M 421.5 229.5 C 446.285156 226.5625 561.894531 231.230469 581.5 229.5 "/>
<path style=" stroke:none;fill-rule:nonzero;fill:rgb(0%,0%,0%);fill-opacity:0.4;" d="M 578.5 229.511719 C 552.277344 232.566406 434.773438 228.304688 418.5 229.511719 "/>
<path style=" stroke:none;fill-rule:nonzero;fill:rgb(0%,0%,0%);fill-opacity:0.5;" d="M 418.5 229.488281 C 448.023438 225.75 562.707031 230.722656 578.5 229.488281 "/>
<path style=" stroke:none;fill-rule:nonzero;fill:rgb(0%,0%,0%);fill-opacity:0.8;" d="M 580.5 228.5 C 550.515625 232.421875 447.757812 226.148438 420.5 228.5 "/>
<path style=" stroke:none;fill-rule:nonzero;fill:rgb(0%,0%,0%);fill-opacity:0.4;" d="M 420.5 228.5 C 437.660156 226.464844 562.792969 229.847656 580.5 228.5 "/>
<path style=" stroke:none;fill-rule:nonzero;fill:rgb(0%,0%,0%);fill-opacity:0.7;" d="M 579.5 229.5 C 549.03125 233.421875 440.566406 228.023438 419.5 229.5 "/>
<path style=" stroke:none;fill-rule:nonzero;fill:rgb(0%,0%,0%);fill-opacity:0.9;" d="M 419.5 229.5 C 452.84375 225.34375 554.640625 231.742188 579.5 229.5 "/>
<path style=" stroke:none;fill-rule:nonzero;fill:rgb(0%,0%,0%);fill-opacity:0.4;" d="M 579.5 229.5 C 551.417969 233.171875 441.5 227.601562 419.5 229.5 "/>
<path style=" stroke:none;fill-rule:nonzero;fill:rgb(0%,0%,0%);fill-opacity:0.5;" d="M 419.5 229.5 C 439.5 226.964844 556.519531 231.15625 579.5 229.5 "/>
<path style=" stroke:none;fill-rule:nonzero;fill:rgb(0%,0%,0%);fill-opacity:0.4;" d="M 580.5 228.5 C 558.125 231.378906 444.917969 226.738281 420.5 228.5 "/>
<path style=" stroke:none;fill-rule:nonzero;fill:rgb(0%,0%,0%);fill-opacity:0.4;" d="M 420.5 228.5 C 435.273438 226.71875 554.191406 230.714844 580.5 228.5 "/>
<path style=" stroke:none;fill-rule:nonzero;fill:rgb(0%,0%,0%);fill-opacity:0.3;" d="M 579.5 229.5 C 558.054688 232.085938 437.207031 228.117188 419.5 229.5 "/>
<path style=" stroke:none;fill-rule:nonzero;fill:rgb(0%,0%,0%);fill-opacity:0.3;" d="M 419.5 229.5 C 442.871094 226.871094 555.597656 231.65625 579.5 229.5 "/>
<path style=" stroke:none;fill-rule:nonzero;fill:rgb(0%,0%,0%);fill-opacity:0.3;" d="M 578.5 230.523438 C 557.527344 233.007812 445.289062 228.320312 418.5 230.523438 "/>
<path style=" stroke:none;fill-rule:nonzero;fill:rgb(0%,0%,0%);fill-opacity:0.7;" d="M 418.5 230.476562 C 438.023438 228.003906 552.675781 232.703125 578.5 230.476562 "/>
<path style=" stroke:none;fill-rule:nonzero;fill:rgb(0%,0%,0%);fill-opacity:0.9;" d="M 578.5 229.5 C 564.21875 231.339844 441 227.832031 418.5 229.5 "/>
<path style=" stroke:none;fill-rule:nonzero;fill:rgb(0%,0%,0%);fill-opacity:0.3;" d="M 418.5 229.5 C 440.871094 226.574219 563.671875 230.75 578.5 229.5 "/>
<path style=" stroke:none;fill-rule:nonzero;fill:rgb(0%,0%,0%);fill-opacity:0.9;" d="M 578.5 229.511719 C 546.136719 233.742188 450.074219 226.917969 418.5 229.511719 "/>
<path style=" stroke:none;fill-rule:nonzero;fill:rgb(0%,0%,0%);fill-opacity:0.5;" d="M 418.5 229.488281 C 449.511719 226.0625 555.050781 231.320312 578.5 229.488281 "/>
</g>
</svg>
