<?xml version="1.0" encoding="utf-8"?>
<svg xmlns="http://www.w3.org/2000/svg" xmlns:xlink="http://www.w3.org/1999/xlink" width="600" height="400" viewBox="0 0 2400 1600">
<defs>
  <clipPath id="clip4700">
    <rect x="0" y="0" width="2400" height="1600"/>
  </clipPath>
</defs>
<polygon clip-path="url(#clip4700)" points="
0,1600 2400,1600 2400,0 0,0 
  " fill="#ffffff" fill-rule="evenodd" fill-opacity="1"/>
<defs>
  <clipPath id="clip4701">
    <rect x="480" y="0" width="1681" height="1600"/>
  </clipPath>
</defs>
<polygon clip-path="url(#clip4700)" points="
180.66,1487.47 2352.76,1487.47 2352.76,47.2441 180.66,47.2441 
  " fill="#ffffff" fill-rule="evenodd" fill-opacity="1"/>
<defs>
  <clipPath id="clip4702">
    <rect x="180" y="47" width="2173" height="1441"/>
  </clipPath>
</defs>
<polyline clip-path="url(#clip4702)" style="stroke:#000000; stroke-width:2; stroke-opacity:0.1; fill:none" points="
  242.135,1487.47 242.135,47.2441 
  "/>
<polyline clip-path="url(#clip4702)" style="stroke:#000000; stroke-width:2; stroke-opacity:0.1; fill:none" points="
  754.421,1487.47 754.421,47.2441 
  "/>
<polyline clip-path="url(#clip4702)" style="stroke:#000000; stroke-width:2; stroke-opacity:0.1; fill:none" points="
  1266.71,1487.47 1266.71,47.2441 
  "/>
<polyline clip-path="url(#clip4702)" style="stroke:#000000; stroke-width:2; stroke-opacity:0.1; fill:none" points="
  1778.99,1487.47 1778.99,47.2441 
  "/>
<polyline clip-path="url(#clip4702)" style="stroke:#000000; stroke-width:2; stroke-opacity:0.1; fill:none" points="
  2291.28,1487.47 2291.28,47.2441 
  "/>
<polyline clip-path="url(#clip4702)" style="stroke:#000000; stroke-width:2; stroke-opacity:0.1; fill:none" points="
  180.66,1446.71 2352.76,1446.71 
  "/>
<polyline clip-path="url(#clip4702)" style="stroke:#000000; stroke-width:2; stroke-opacity:0.1; fill:none" points="
  180.66,1107.04 2352.76,1107.04 
  "/>
<polyline clip-path="url(#clip4702)" style="stroke:#000000; stroke-width:2; stroke-opacity:0.1; fill:none" points="
  180.66,767.359 2352.76,767.359 
  "/>
<polyline clip-path="url(#clip4702)" style="stroke:#000000; stroke-width:2; stroke-opacity:0.1; fill:none" points="
  180.66,427.682 2352.76,427.682 
  "/>
<polyline clip-path="url(#clip4702)" style="stroke:#000000; stroke-width:2; stroke-opacity:0.1; fill:none" points="
  180.66,88.0053 2352.76,88.0053 
  "/>
<polyline clip-path="url(#clip4700)" style="stroke:#000000; stroke-width:4; stroke-opacity:1; fill:none" points="
  180.66,1487.47 2352.76,1487.47 
  "/>
<polyline clip-path="url(#clip4700)" style="stroke:#000000; stroke-width:4; stroke-opacity:1; fill:none" points="
  180.66,1487.47 180.66,47.2441 
  "/>
<polyline clip-path="url(#clip4700)" style="stroke:#000000; stroke-width:4; stroke-opacity:1; fill:none" points="
  242.135,1487.47 242.135,1465.87 
  "/>
<polyline clip-path="url(#clip4700)" style="stroke:#000000; stroke-width:4; stroke-opacity:1; fill:none" points="
  754.421,1487.47 754.421,1465.87 
  "/>
<polyline clip-path="url(#clip4700)" style="stroke:#000000; stroke-width:4; stroke-opacity:1; fill:none" points="
  1266.71,1487.47 1266.71,1465.87 
  "/>
<polyline clip-path="url(#clip4700)" style="stroke:#000000; stroke-width:4; stroke-opacity:1; fill:none" points="
  1778.99,1487.47 1778.99,1465.87 
  "/>
<polyline clip-path="url(#clip4700)" style="stroke:#000000; stroke-width:4; stroke-opacity:1; fill:none" points="
  2291.28,1487.47 2291.28,1465.87 
  "/>
<polyline clip-path="url(#clip4700)" style="stroke:#000000; stroke-width:4; stroke-opacity:1; fill:none" points="
  180.66,1446.71 213.242,1446.71 
  "/>
<polyline clip-path="url(#clip4700)" style="stroke:#000000; stroke-width:4; stroke-opacity:1; fill:none" points="
  180.66,1107.04 213.242,1107.04 
  "/>
<polyline clip-path="url(#clip4700)" style="stroke:#000000; stroke-width:4; stroke-opacity:1; fill:none" points="
  180.66,767.359 213.242,767.359 
  "/>
<polyline clip-path="url(#clip4700)" style="stroke:#000000; stroke-width:4; stroke-opacity:1; fill:none" points="
  180.66,427.682 213.242,427.682 
  "/>
<polyline clip-path="url(#clip4700)" style="stroke:#000000; stroke-width:4; stroke-opacity:1; fill:none" points="
  180.66,88.0053 213.242,88.0053 
  "/>
<g clip-path="url(#clip4700)">
<text style="fill:#000000; fill-opacity:1; font-family:Arial,Helvetica Neue,Helvetica,sans-serif; font-size:48px; text-anchor:middle;" transform="rotate(0, 242.135, 1541.47)" x="242.135" y="1541.47">0.00</text>
</g>
<g clip-path="url(#clip4700)">
<text style="fill:#000000; fill-opacity:1; font-family:Arial,Helvetica Neue,Helvetica,sans-serif; font-size:48px; text-anchor:middle;" transform="rotate(0, 754.421, 1541.47)" x="754.421" y="1541.47">0.25</text>
</g>
<g clip-path="url(#clip4700)">
<text style="fill:#000000; fill-opacity:1; font-family:Arial,Helvetica Neue,Helvetica,sans-serif; font-size:48px; text-anchor:middle;" transform="rotate(0, 1266.71, 1541.47)" x="1266.71" y="1541.47">0.50</text>
</g>
<g clip-path="url(#clip4700)">
<text style="fill:#000000; fill-opacity:1; font-family:Arial,Helvetica Neue,Helvetica,sans-serif; font-size:48px; text-anchor:middle;" transform="rotate(0, 1778.99, 1541.47)" x="1778.99" y="1541.47">0.75</text>
</g>
<g clip-path="url(#clip4700)">
<text style="fill:#000000; fill-opacity:1; font-family:Arial,Helvetica Neue,Helvetica,sans-serif; font-size:48px; text-anchor:middle;" transform="rotate(0, 2291.28, 1541.47)" x="2291.28" y="1541.47">1.00</text>
</g>
<g clip-path="url(#clip4700)">
<text style="fill:#000000; fill-opacity:1; font-family:Arial,Helvetica Neue,Helvetica,sans-serif; font-size:48px; text-anchor:end;" transform="rotate(0, 156.66, 1464.21)" x="156.66" y="1464.21">0.00</text>
</g>
<g clip-path="url(#clip4700)">
<text style="fill:#000000; fill-opacity:1; font-family:Arial,Helvetica Neue,Helvetica,sans-serif; font-size:48px; text-anchor:end;" transform="rotate(0, 156.66, 1124.54)" x="156.66" y="1124.54">0.25</text>
</g>
<g clip-path="url(#clip4700)">
<text style="fill:#000000; fill-opacity:1; font-family:Arial,Helvetica Neue,Helvetica,sans-serif; font-size:48px; text-anchor:end;" transform="rotate(0, 156.66, 784.859)" x="156.66" y="784.859">0.50</text>
</g>
<g clip-path="url(#clip4700)">
<text style="fill:#000000; fill-opacity:1; font-family:Arial,Helvetica Neue,Helvetica,sans-serif; font-size:48px; text-anchor:end;" transform="rotate(0, 156.66, 445.182)" x="156.66" y="445.182">0.75</text>
</g>
<g clip-path="url(#clip4700)">
<text style="fill:#000000; fill-opacity:1; font-family:Arial,Helvetica Neue,Helvetica,sans-serif; font-size:48px; text-anchor:end;" transform="rotate(0, 156.66, 105.505)" x="156.66" y="105.505">1.00</text>
</g>
<polyline clip-path="url(#clip4702)" style="stroke:#009af9; stroke-width:4; stroke-opacity:1; fill:none" points="
  242.135,88.0053 252.38,88.0053 262.626,88.0053 272.872,88.0053 283.118,88.0053 293.363,88.0053 303.609,88.0053 313.855,88.0053 324.101,88.0053 334.346,88.0053 
  344.592,88.0053 354.838,88.0053 365.084,88.0053 375.329,88.0053 385.575,88.0053 395.821,88.0053 406.066,88.0053 416.312,88.0053 426.558,88.0053 436.804,88.0053 
  447.049,88.0053 457.295,88.0053 467.541,88.0053 477.787,88.0053 488.032,88.0053 498.278,88.0053 508.524,88.0053 518.77,88.0053 529.015,88.0053 539.261,88.0053 
  549.507,88.0053 559.752,88.0053 569.998,88.0053 580.244,88.0053 590.49,88.0053 600.735,88.0053 610.981,88.0053 621.227,88.0053 631.473,88.0053 641.718,88.0053 
  651.964,88.0053 662.21,88.0053 672.456,88.0053 682.701,88.0053 692.947,88.0053 703.193,88.0053 713.438,88.0053 723.684,88.0053 733.93,88.0053 744.176,88.0053 
  754.421,88.0053 764.667,300.554 774.913,507.869 785.159,704.846 795.404,886.634 805.65,1048.76 815.896,1187.22 826.142,1298.62 836.387,1380.21 846.633,1429.99 
  856.879,1446.71 867.124,1429.99 877.37,1380.21 887.616,1298.62 897.862,1187.22 908.107,1048.76 918.353,886.634 928.599,704.846 938.845,507.869 949.09,300.554 
  959.336,88.0053 969.582,88.0053 979.828,88.0053 990.073,88.0053 1000.32,88.0053 1010.56,88.0053 1020.81,88.0053 1031.06,88.0053 1041.3,88.0053 1051.55,88.0053 
  1061.79,88.0053 1072.04,88.0053 1082.28,88.0053 1092.53,88.0053 1102.78,88.0053 1113.02,88.0053 1123.27,88.0053 1133.51,88.0053 1143.76,88.0053 1154.01,88.0053 
  1164.25,88.0053 1174.5,88.0053 1184.74,88.0053 1194.99,88.0053 1205.23,88.0053 1215.48,88.0053 1225.73,88.0053 1235.97,88.0053 1246.22,88.0053 1256.46,88.0053 
  1266.71,88.0053 1276.95,88.0053 1287.2,88.0053 1297.45,88.0053 1307.69,88.0053 1317.94,88.0053 1328.18,88.0053 1338.43,88.0053 1348.67,88.0053 1358.92,88.0053 
  1369.17,88.0053 1379.41,88.0053 1389.66,88.0053 1399.9,88.0053 1410.15,88.0053 1420.39,88.0053 1430.64,88.0053 1440.89,88.0053 1451.13,88.0053 1461.38,88.0053 
  1471.62,88.0053 1481.87,88.0053 1492.11,88.0053 1502.36,88.0053 1512.61,88.0053 1522.85,88.0053 1533.1,88.0053 1543.34,88.0053 1553.59,88.0053 1563.83,88.0053 
  1574.08,88.0053 1584.33,88.0053 1594.57,88.0053 1604.82,88.0053 1615.06,88.0053 1625.31,88.0053 1635.55,88.0053 1645.8,88.0053 1656.05,88.0053 1666.29,88.0053 
  1676.54,88.0053 1686.78,88.0053 1697.03,88.0053 1707.27,88.0053 1717.52,88.0053 1727.77,88.0053 1738.01,88.0053 1748.26,88.0053 1758.5,88.0053 1768.75,88.0053 
  1778.99,88.0053 1789.24,88.0053 1799.49,88.0053 1809.73,88.0053 1819.98,88.0053 1830.22,88.0053 1840.47,88.0053 1850.71,88.0053 1860.96,88.0053 1871.21,88.0053 
  1881.45,88.0053 1891.7,88.0053 1901.94,88.0053 1912.19,88.0053 1922.44,88.0053 1932.68,88.0053 1942.93,88.0053 1953.17,88.0053 1963.42,88.0053 1973.66,88.0053 
  1983.91,88.0053 1994.16,88.0053 2004.4,88.0053 2014.65,88.0053 2024.89,88.0053 2035.14,88.0053 2045.38,88.0053 2055.63,88.0053 2065.88,88.0053 2076.12,88.0053 
  2086.37,88.0053 2096.61,88.0053 2106.86,88.0053 2117.1,88.0053 2127.35,88.0053 2137.6,88.0053 2147.84,88.0053 2158.09,88.0053 2168.33,88.0053 2178.58,88.0053 
  2188.82,88.0053 2199.07,88.0053 2209.32,88.0053 2219.56,88.0053 2229.81,88.0053 2240.05,88.0053 2250.3,88.0053 2260.54,88.0053 2270.79,88.0053 2281.04,88.0053 
  2291.28,88.0053 
  "/>
<polygon clip-path="url(#clip4700)" points="
1989.93,251.724 2280.76,251.724 2280.76,130.764 1989.93,130.764 
  " fill="#ffffff" fill-rule="evenodd" fill-opacity="1"/>
<polyline clip-path="url(#clip4700)" style="stroke:#000000; stroke-width:4; stroke-opacity:1; fill:none" points="
  1989.93,251.724 2280.76,251.724 2280.76,130.764 1989.93,130.764 1989.93,251.724 
  "/>
<polyline clip-path="url(#clip4700)" style="stroke:#009af9; stroke-width:4; stroke-opacity:1; fill:none" points="
  2013.93,191.244 2157.93,191.244 
  "/>
<g clip-path="url(#clip4700)">
<text style="fill:#000000; fill-opacity:1; font-family:Arial,Helvetica Neue,Helvetica,sans-serif; font-size:48px; text-anchor:start;" transform="rotate(0, 2181.93, 208.744)" x="2181.93" y="208.744">y1</text>
</g>
</svg>
