<?xml version="1.0" encoding="UTF-8"?>
<svg xmlns="http://www.w3.org/2000/svg" xmlns:xlink="http://www.w3.org/1999/xlink" width="600pt" height="300pt" viewBox="0 0 600 300" version="1.1">
<g id="surface6">
<rect x="0" y="0" width="600" height="300" style="fill:rgb(100%,100%,100%);fill-opacity:1;stroke:none;"/>
<path style=" stroke:none;fill-rule:nonzero;fill:rgb(79.6%,23.5%,20%);fill-opacity:1;" d="M 337.5 200 C 337.5 220.710938 320.710938 237.5 300 237.5 C 279.289062 237.5 262.5 220.710938 262.5 200 C 262.5 179.289062 279.289062 162.5 300 162.5 C 320.710938 162.5 337.5 179.289062 337.5 200 "/>
<path style=" stroke:none;fill-rule:nonzero;fill:rgb(58.4%,34.5%,69.8%);fill-opacity:1;" d="M 337.5 150 C 337.5 170.710938 320.710938 187.5 300 187.5 C 279.289062 187.5 262.5 170.710938 262.5 150 C 262.5 129.289062 279.289062 112.5 300 112.5 C 320.710938 112.5 337.5 129.289062 337.5 150 "/>
<path style=" stroke:none;fill-rule:nonzero;fill:rgb(22%,59.6%,14.9%);fill-opacity:1;" d="M 337.5 100 C 337.5 120.710938 320.710938 137.5 300 137.5 C 279.289062 137.5 262.5 120.710938 262.5 100 C 262.5 79.289062 279.289062 62.5 300 62.5 C 320.710938 62.5 337.5 79.289062 337.5 100 "/>
</g>
</svg>
