<?xml version="1.0" encoding="UTF-8"?>
<svg xmlns="http://www.w3.org/2000/svg" xmlns:xlink="http://www.w3.org/1999/xlink" width="300pt" height="300pt" viewBox="0 0 300 300" version="1.1">
<g id="surface1026">
<rect x="0" y="0" width="300" height="300" style="fill:rgb(0%,0%,0%);fill-opacity:1;stroke:none;"/>
<path style=" stroke:none;fill-rule:nonzero;fill:rgb(80%,80%,80%);fill-opacity:1;" d="M 297 150 L 296.953125 263.96875 L 296.816406 272.109375 L 296.589844 277.097656 L 296.265625 280.710938 L 295.839844 283.535156 L 295.3125 285.839844 L 294.675781 287.761719 L 293.917969 289.390625 L 293.027344 290.789062 L 291.992188 291.992188 L 290.789062 293.027344 L 289.390625 293.917969 L 287.761719 294.675781 L 285.839844 295.3125 L 283.535156 295.839844 L 280.710938 296.265625 L 277.097656 296.589844 L 272.109375 296.816406 L 263.96875 296.953125 L 153.515625 297 L 36.03125 296.953125 L 27.890625 296.816406 L 22.902344 296.589844 L 19.289062 296.265625 L 16.464844 295.839844 L 14.160156 295.3125 L 12.238281 294.675781 L 10.609375 293.917969 L 9.210938 293.027344 L 8.007812 291.992188 L 6.972656 290.789062 L 6.082031 289.390625 L 5.324219 287.761719 L 4.6875 285.839844 L 4.160156 283.535156 L 3.734375 280.710938 L 3.410156 277.097656 L 3.183594 272.109375 L 3.046875 263.96875 L 3 153.769531 L 3.046875 36.03125 L 3.183594 27.890625 L 3.410156 22.902344 L 3.734375 19.289062 L 4.160156 16.464844 L 4.6875 14.160156 L 5.324219 12.238281 L 6.082031 10.609375 L 6.972656 9.210938 L 8.007812 8.007812 L 9.210938 6.972656 L 10.609375 6.082031 L 12.238281 5.324219 L 14.160156 4.6875 L 16.464844 4.160156 L 19.289062 3.734375 L 22.902344 3.410156 L 27.890625 3.183594 L 36.03125 3.046875 L 146.074219 3 L 263.96875 3.046875 L 272.109375 3.183594 L 277.097656 3.410156 L 280.710938 3.734375 L 283.535156 4.160156 L 285.839844 4.6875 L 287.761719 5.324219 L 289.390625 6.082031 L 290.789062 6.972656 L 291.992188 8.007812 L 293.027344 9.210938 L 293.917969 10.609375 L 294.675781 12.238281 L 295.3125 14.160156 L 295.839844 16.464844 L 296.265625 19.289062 L 296.589844 22.902344 L 296.816406 27.890625 L 296.953125 36.03125 L 297 145.960938 Z M 21.5 16.5 L 21.5 11.5 L 16.5 11.5 L 16.5 16.5 Z M 42.5 16.5 L 42.5 11.5 L 37.5 11.5 L 37.5 16.5 Z M 70.5 16.5 L 70.5 11.5 L 65.5 11.5 L 65.5 16.5 Z M 84.5 16.5 L 84.5 11.5 L 79.5 11.5 L 79.5 16.5 Z M 105.5 16.5 L 105.5 11.5 L 100.5 11.5 L 100.5 16.5 Z M 119.5 16.5 L 119.5 11.5 L 114.5 11.5 L 114.5 16.5 Z M 140.5 16.5 L 140.5 11.5 L 135.5 11.5 L 135.5 16.5 Z M 147.5 16.5 L 147.5 11.5 L 142.5 11.5 L 142.5 16.5 Z M 161.5 16.5 L 161.5 11.5 L 156.5 11.5 L 156.5 16.5 Z M 175.5 16.5 L 175.5 11.5 L 170.5 11.5 L 170.5 16.5 Z M 196.5 16.5 L 196.5 11.5 L 191.5 11.5 L 191.5 16.5 Z M 210.5 16.5 L 210.5 11.5 L 205.5 11.5 L 205.5 16.5 Z M 224.5 16.5 L 224.5 11.5 L 219.5 11.5 L 219.5 16.5 Z M 238.5 16.5 L 238.5 11.5 L 233.5 11.5 L 233.5 16.5 Z M 245.5 16.5 L 245.5 11.5 L 240.5 11.5 L 240.5 16.5 Z M 273.5 16.5 L 273.5 11.5 L 268.5 11.5 L 268.5 16.5 Z M 287.5 16.5 L 287.5 11.5 L 282.5 11.5 L 282.5 16.5 Z M 14.5 23.5 L 14.5 18.5 L 9.5 18.5 L 9.5 23.5 Z M 21.5 23.5 L 21.5 18.5 L 16.5 18.5 L 16.5 23.5 Z M 35.5 23.5 L 35.5 18.5 L 30.5 18.5 L 30.5 23.5 Z M 42.5 23.5 L 42.5 18.5 L 37.5 18.5 L 37.5 23.5 Z M 63.5 23.5 L 63.5 18.5 L 58.5 18.5 L 58.5 23.5 Z M 70.5 23.5 L 70.5 18.5 L 65.5 18.5 L 65.5 23.5 Z M 77.5 23.5 L 77.5 18.5 L 72.5 18.5 L 72.5 23.5 Z M 84.5 23.5 L 84.5 18.5 L 79.5 18.5 L 79.5 23.5 Z M 98.5 23.5 L 98.5 18.5 L 93.5 18.5 L 93.5 23.5 Z M 105.5 23.5 L 105.5 18.5 L 100.5 18.5 L 100.5 23.5 Z M 112.5 23.5 L 112.5 18.5 L 107.5 18.5 L 107.5 23.5 Z M 119.5 23.5 L 119.5 18.5 L 114.5 18.5 L 114.5 23.5 Z M 133.5 23.5 L 133.5 18.5 L 128.5 18.5 L 128.5 23.5 Z M 140.5 23.5 L 140.5 18.5 L 135.5 18.5 L 135.5 23.5 Z M 147.5 23.5 L 147.5 18.5 L 142.5 18.5 L 142.5 23.5 Z M 154.5 23.5 L 154.5 18.5 L 149.5 18.5 L 149.5 23.5 Z M 161.5 23.5 L 161.5 18.5 L 156.5 18.5 L 156.5 23.5 Z M 168.5 23.5 L 168.5 18.5 L 163.5 18.5 L 163.5 23.5 Z M 175.5 23.5 L 175.5 18.5 L 170.5 18.5 L 170.5 23.5 Z M 189.5 23.5 L 189.5 18.5 L 184.5 18.5 L 184.5 23.5 Z M 196.5 23.5 L 196.5 18.5 L 191.5 18.5 L 191.5 23.5 Z M 203.5 23.5 L 203.5 18.5 L 198.5 18.5 L 198.5 23.5 Z M 210.5 23.5 L 210.5 18.5 L 205.5 18.5 L 205.5 23.5 Z M 217.5 23.5 L 217.5 18.5 L 212.5 18.5 L 212.5 23.5 Z M 224.5 23.5 L 224.5 18.5 L 219.5 18.5 L 219.5 23.5 Z M 231.5 23.5 L 231.5 18.5 L 226.5 18.5 L 226.5 23.5 Z M 238.5 23.5 L 238.5 18.5 L 233.5 18.5 L 233.5 23.5 Z M 245.5 23.5 L 245.5 18.5 L 240.5 18.5 L 240.5 23.5 Z M 266.5 23.5 L 266.5 18.5 L 261.5 18.5 L 261.5 23.5 Z M 273.5 23.5 L 273.5 18.5 L 268.5 18.5 L 268.5 23.5 Z M 280.5 23.5 L 280.5 18.5 L 275.5 18.5 L 275.5 23.5 Z M 287.5 23.5 L 287.5 18.5 L 282.5 18.5 L 282.5 23.5 Z M 21.5 30.5 L 21.5 25.5 L 16.5 25.5 L 16.5 30.5 Z M 28.5 30.5 L 28.5 25.5 L 23.5 25.5 L 23.5 30.5 Z M 35.5 30.5 L 35.5 25.5 L 30.5 25.5 L 30.5 30.5 Z M 42.5 30.5 L 42.5 25.5 L 37.5 25.5 L 37.5 30.5 Z M 56.5 30.5 L 56.5 25.5 L 51.5 25.5 L 51.5 30.5 Z M 63.5 30.5 L 63.5 25.5 L 58.5 25.5 L 58.5 30.5 Z M 84.5 30.5 L 84.5 25.5 L 79.5 25.5 L 79.5 30.5 Z M 91.5 30.5 L 91.5 25.5 L 86.5 25.5 L 86.5 30.5 Z M 98.5 30.5 L 98.5 25.5 L 93.5 25.5 L 93.5 30.5 Z M 119.5 30.5 L 119.5 25.5 L 114.5 25.5 L 114.5 30.5 Z M 126.5 30.5 L 126.5 25.5 L 121.5 25.5 L 121.5 30.5 Z M 133.5 30.5 L 133.5 25.5 L 128.5 25.5 L 128.5 30.5 Z M 175.5 30.5 L 175.5 25.5 L 170.5 25.5 L 170.5 30.5 Z M 182.5 30.5 L 182.5 25.5 L 177.5 25.5 L 177.5 30.5 Z M 189.5 30.5 L 189.5 25.5 L 184.5 25.5 L 184.5 30.5 Z M 245.5 30.5 L 245.5 25.5 L 240.5 25.5 L 240.5 30.5 Z M 259.5 30.5 L 259.5 25.5 L 254.5 25.5 L 254.5 30.5 Z M 266.5 30.5 L 266.5 25.5 L 261.5 25.5 L 261.5 30.5 Z M 14.5 37.5 L 14.5 32.5 L 9.5 32.5 L 9.5 37.5 Z M 21.5 37.5 L 21.5 32.5 L 16.5 32.5 L 16.5 37.5 Z M 42.5 37.5 L 42.5 32.5 L 37.5 32.5 L 37.5 37.5 Z M 49.5 37.5 L 49.5 32.5 L 44.5 32.5 L 44.5 37.5 Z M 56.5 37.5 L 56.5 32.5 L 51.5 32.5 L 51.5 37.5 Z M 63.5 37.5 L 63.5 32.5 L 58.5 32.5 L 58.5 37.5 Z M 77.5 37.5 L 77.5 32.5 L 72.5 32.5 L 72.5 37.5 Z M 84.5 37.5 L 84.5 32.5 L 79.5 32.5 L 79.5 37.5 Z M 98.5 37.5 L 98.5 32.5 L 93.5 32.5 L 93.5 37.5 Z M 112.5 37.5 L 112.5 32.5 L 107.5 32.5 L 107.5 37.5 Z M 119.5 37.5 L 119.5 32.5 L 114.5 32.5 L 114.5 37.5 Z M 133.5 37.5 L 133.5 32.5 L 128.5 32.5 L 128.5 37.5 Z M 168.5 37.5 L 168.5 32.5 L 163.5 32.5 L 163.5 37.5 Z M 175.5 37.5 L 175.5 32.5 L 170.5 32.5 L 170.5 37.5 Z M 189.5 37.5 L 189.5 32.5 L 184.5 32.5 L 184.5 37.5 Z M 238.5 37.5 L 238.5 32.5 L 233.5 32.5 L 233.5 37.5 Z M 245.5 37.5 L 245.5 32.5 L 240.5 32.5 L 240.5 37.5 Z M 252.5 37.5 L 252.5 32.5 L 247.5 32.5 L 247.5 37.5 Z M 259.5 37.5 L 259.5 32.5 L 254.5 32.5 L 254.5 37.5 Z M 266.5 37.5 L 266.5 32.5 L 261.5 32.5 L 261.5 37.5 Z M 14.5 44.5 L 14.5 39.5 L 9.5 39.5 L 9.5 44.5 Z M 21.5 44.5 L 21.5 39.5 L 16.5 39.5 L 16.5 44.5 Z M 35.5 44.5 L 35.5 39.5 L 30.5 39.5 L 30.5 44.5 Z M 42.5 44.5 L 42.5 39.5 L 37.5 39.5 L 37.5 44.5 Z M 63.5 44.5 L 63.5 39.5 L 58.5 39.5 L 58.5 44.5 Z M 70.5 44.5 L 70.5 39.5 L 65.5 39.5 L 65.5 44.5 Z M 77.5 44.5 L 77.5 39.5 L 72.5 39.5 L 72.5 44.5 Z M 84.5 44.5 L 84.5 39.5 L 79.5 39.5 L 79.5 44.5 Z M 91.5 44.5 L 91.5 39.5 L 86.5 39.5 L 86.5 44.5 Z M 98.5 44.5 L 98.5 39.5 L 93.5 39.5 L 93.5 44.5 Z M 105.5 44.5 L 105.5 39.5 L 100.5 39.5 L 100.5 44.5 Z M 112.5 44.5 L 112.5 39.5 L 107.5 39.5 L 107.5 44.5 Z M 119.5 44.5 L 119.5 39.5 L 114.5 39.5 L 114.5 44.5 Z M 126.5 44.5 L 126.5 39.5 L 121.5 39.5 L 121.5 44.5 Z M 133.5 44.5 L 133.5 39.5 L 128.5 39.5 L 128.5 44.5 Z M 161.5 44.5 L 161.5 39.5 L 156.5 39.5 L 156.5 44.5 Z M 168.5 44.5 L 168.5 39.5 L 163.5 39.5 L 163.5 44.5 Z M 175.5 44.5 L 175.5 39.5 L 170.5 39.5 L 170.5 44.5 Z M 182.5 44.5 L 182.5 39.5 L 177.5 39.5 L 177.5 44.5 Z M 189.5 44.5 L 189.5 39.5 L 184.5 39.5 L 184.5 44.5 Z M 231.5 44.5 L 231.5 39.5 L 226.5 39.5 L 226.5 44.5 Z M 238.5 44.5 L 238.5 39.5 L 233.5 39.5 L 233.5 44.5 Z M 266.5 44.5 L 266.5 39.5 L 261.5 39.5 L 261.5 44.5 Z M 287.5 44.5 L 287.5 39.5 L 282.5 39.5 L 282.5 44.5 Z M 21.5 51.5 L 21.5 46.5 L 16.5 46.5 L 16.5 51.5 Z M 28.5 51.5 L 28.5 46.5 L 23.5 46.5 L 23.5 51.5 Z M 35.5 51.5 L 35.5 46.5 L 30.5 46.5 L 30.5 51.5 Z M 42.5 51.5 L 42.5 46.5 L 37.5 46.5 L 37.5 51.5 Z M 56.5 51.5 L 56.5 46.5 L 51.5 46.5 L 51.5 51.5 Z M 63.5 51.5 L 63.5 46.5 L 58.5 46.5 L 58.5 51.5 Z M 133.5 51.5 L 133.5 46.5 L 128.5 46.5 L 128.5 51.5 Z M 154.5 51.5 L 154.5 46.5 L 149.5 46.5 L 149.5 51.5 Z M 161.5 51.5 L 161.5 46.5 L 156.5 46.5 L 156.5 51.5 Z M 189.5 51.5 L 189.5 46.5 L 184.5 46.5 L 184.5 51.5 Z M 224.5 51.5 L 224.5 46.5 L 219.5 46.5 L 219.5 51.5 Z M 231.5 51.5 L 231.5 46.5 L 226.5 46.5 L 226.5 51.5 Z M 238.5 51.5 L 238.5 46.5 L 233.5 46.5 L 233.5 51.5 Z M 259.5 51.5 L 259.5 46.5 L 254.5 46.5 L 254.5 51.5 Z M 266.5 51.5 L 266.5 46.5 L 261.5 46.5 L 261.5 51.5 Z M 280.5 51.5 L 280.5 46.5 L 275.5 46.5 L 275.5 51.5 Z M 287.5 51.5 L 287.5 46.5 L 282.5 46.5 L 282.5 51.5 Z M 14.5 58.5 L 14.5 53.5 L 9.5 53.5 L 9.5 58.5 Z M 21.5 58.5 L 21.5 53.5 L 16.5 53.5 L 16.5 58.5 Z M 42.5 58.5 L 42.5 53.5 L 37.5 53.5 L 37.5 58.5 Z M 49.5 58.5 L 49.5 53.5 L 44.5 53.5 L 44.5 58.5 Z M 56.5 58.5 L 56.5 53.5 L 51.5 53.5 L 51.5 58.5 Z M 63.5 58.5 L 63.5 53.5 L 58.5 53.5 L 58.5 58.5 Z M 126.5 58.5 L 126.5 53.5 L 121.5 53.5 L 121.5 58.5 Z M 133.5 58.5 L 133.5 53.5 L 128.5 53.5 L 128.5 58.5 Z M 147.5 58.5 L 147.5 53.5 L 142.5 53.5 L 142.5 58.5 Z M 154.5 58.5 L 154.5 53.5 L 149.5 53.5 L 149.5 58.5 Z M 161.5 58.5 L 161.5 53.5 L 156.5 53.5 L 156.5 58.5 Z M 182.5 58.5 L 182.5 53.5 L 177.5 53.5 L 177.5 58.5 Z M 189.5 58.5 L 189.5 53.5 L 184.5 53.5 L 184.5 58.5 Z M 217.5 58.5 L 217.5 53.5 L 212.5 53.5 L 212.5 58.5 Z M 224.5 58.5 L 224.5 53.5 L 219.5 53.5 L 219.5 58.5 Z M 238.5 58.5 L 238.5 53.5 L 233.5 53.5 L 233.5 58.5 Z M 252.5 58.5 L 252.5 53.5 L 247.5 53.5 L 247.5 58.5 Z M 259.5 58.5 L 259.5 53.5 L 254.5 53.5 L 254.5 58.5 Z M 266.5 58.5 L 266.5 53.5 L 261.5 53.5 L 261.5 58.5 Z M 273.5 58.5 L 273.5 53.5 L 268.5 53.5 L 268.5 58.5 Z M 280.5 58.5 L 280.5 53.5 L 275.5 53.5 L 275.5 58.5 Z M 287.5 58.5 L 287.5 53.5 L 282.5 53.5 L 282.5 58.5 Z M 21.5 65.5 L 21.5 60.5 L 16.5 60.5 L 16.5 65.5 Z M 35.5 65.5 L 35.5 60.5 L 30.5 60.5 L 30.5 65.5 Z M 42.5 65.5 L 42.5 60.5 L 37.5 60.5 L 37.5 65.5 Z M 63.5 65.5 L 63.5 60.5 L 58.5 60.5 L 58.5 65.5 Z M 119.5 65.5 L 119.5 60.5 L 114.5 60.5 L 114.5 65.5 Z M 126.5 65.5 L 126.5 60.5 L 121.5 60.5 L 121.5 65.5 Z M 133.5 65.5 L 133.5 60.5 L 128.5 60.5 L 128.5 65.5 Z M 140.5 65.5 L 140.5 60.5 L 135.5 60.5 L 135.5 65.5 Z M 147.5 65.5 L 147.5 60.5 L 142.5 60.5 L 142.5 65.5 Z M 161.5 65.5 L 161.5 60.5 L 156.5 60.5 L 156.5 65.5 Z M 175.5 65.5 L 175.5 60.5 L 170.5 60.5 L 170.5 65.5 Z M 182.5 65.5 L 182.5 60.5 L 177.5 60.5 L 177.5 65.5 Z M 189.5 65.5 L 189.5 60.5 L 184.5 60.5 L 184.5 65.5 Z M 210.5 65.5 L 210.5 60.5 L 205.5 60.5 L 205.5 65.5 Z M 217.5 65.5 L 217.5 60.5 L 212.5 60.5 L 212.5 65.5 Z M 224.5 65.5 L 224.5 60.5 L 219.5 60.5 L 219.5 65.5 Z M 231.5 65.5 L 231.5 60.5 L 226.5 60.5 L 226.5 65.5 Z M 238.5 65.5 L 238.5 60.5 L 233.5 60.5 L 233.5 65.5 Z M 245.5 65.5 L 245.5 60.5 L 240.5 60.5 L 240.5 65.5 Z M 252.5 65.5 L 252.5 60.5 L 247.5 60.5 L 247.5 65.5 Z M 14.5 72.5 L 14.5 67.5 L 9.5 67.5 L 9.5 72.5 Z M 21.5 72.5 L 21.5 67.5 L 16.5 67.5 L 16.5 72.5 Z M 28.5 72.5 L 28.5 67.5 L 23.5 67.5 L 23.5 72.5 Z M 35.5 72.5 L 35.5 67.5 L 30.5 67.5 L 30.5 72.5 Z M 42.5 72.5 L 42.5 67.5 L 37.5 67.5 L 37.5 72.5 Z M 56.5 72.5 L 56.5 67.5 L 51.5 67.5 L 51.5 72.5 Z M 63.5 72.5 L 63.5 67.5 L 58.5 67.5 L 58.5 72.5 Z M 112.5 72.5 L 112.5 67.5 L 107.5 67.5 L 107.5 72.5 Z M 119.5 72.5 L 119.5 67.5 L 114.5 67.5 L 114.5 72.5 Z M 147.5 72.5 L 147.5 67.5 L 142.5 67.5 L 142.5 72.5 Z M 154.5 72.5 L 154.5 67.5 L 149.5 67.5 L 149.5 72.5 Z M 161.5 72.5 L 161.5 67.5 L 156.5 67.5 L 156.5 72.5 Z M 168.5 72.5 L 168.5 67.5 L 163.5 67.5 L 163.5 72.5 Z M 175.5 72.5 L 175.5 67.5 L 170.5 67.5 L 170.5 72.5 Z M 189.5 72.5 L 189.5 67.5 L 184.5 67.5 L 184.5 72.5 Z M 203.5 72.5 L 203.5 67.5 L 198.5 67.5 L 198.5 72.5 Z M 210.5 72.5 L 210.5 67.5 L 205.5 67.5 L 205.5 72.5 Z M 252.5 72.5 L 252.5 67.5 L 247.5 67.5 L 247.5 72.5 Z M 14.5 79.5 L 14.5 74.5 L 9.5 74.5 L 9.5 79.5 Z M 42.5 79.5 L 42.5 74.5 L 37.5 74.5 L 37.5 79.5 Z M 49.5 79.5 L 49.5 74.5 L 44.5 74.5 L 44.5 79.5 Z M 56.5 79.5 L 56.5 74.5 L 51.5 74.5 L 51.5 79.5 Z M 63.5 79.5 L 63.5 74.5 L 58.5 74.5 L 58.5 79.5 Z M 105.5 79.5 L 105.5 74.5 L 100.5 74.5 L 100.5 79.5 Z M 112.5 79.5 L 112.5 74.5 L 107.5 74.5 L 107.5 79.5 Z M 119.5 79.5 L 119.5 74.5 L 114.5 74.5 L 114.5 79.5 Z M 140.5 79.5 L 140.5 74.5 L 135.5 74.5 L 135.5 79.5 Z M 147.5 79.5 L 147.5 74.5 L 142.5 74.5 L 142.5 79.5 Z M 175.5 79.5 L 175.5 74.5 L 170.5 74.5 L 170.5 79.5 Z M 182.5 79.5 L 182.5 74.5 L 177.5 74.5 L 177.5 79.5 Z M 189.5 79.5 L 189.5 74.5 L 184.5 74.5 L 184.5 79.5 Z M 196.5 79.5 L 196.5 74.5 L 191.5 74.5 L 191.5 79.5 Z M 203.5 79.5 L 203.5 74.5 L 198.5 74.5 L 198.5 79.5 Z M 210.5 79.5 L 210.5 74.5 L 205.5 74.5 L 205.5 79.5 Z M 245.5 79.5 L 245.5 74.5 L 240.5 74.5 L 240.5 79.5 Z M 252.5 79.5 L 252.5 74.5 L 247.5 74.5 L 247.5 79.5 Z M 287.5 79.5 L 287.5 74.5 L 282.5 74.5 L 282.5 79.5 Z M 14.5 86.5 L 14.5 81.5 L 9.5 81.5 L 9.5 86.5 Z M 35.5 86.5 L 35.5 81.5 L 30.5 81.5 L 30.5 86.5 Z M 42.5 86.5 L 42.5 81.5 L 37.5 81.5 L 37.5 86.5 Z M 63.5 86.5 L 63.5 81.5 L 58.5 81.5 L 58.5 86.5 Z M 98.5 86.5 L 98.5 81.5 L 93.5 81.5 L 93.5 86.5 Z M 105.5 86.5 L 105.5 81.5 L 100.5 81.5 L 100.5 86.5 Z M 119.5 86.5 L 119.5 81.5 L 114.5 81.5 L 114.5 86.5 Z M 133.5 86.5 L 133.5 81.5 L 128.5 81.5 L 128.5 86.5 Z M 140.5 86.5 L 140.5 81.5 L 135.5 81.5 L 135.5 86.5 Z M 147.5 86.5 L 147.5 81.5 L 142.5 81.5 L 142.5 86.5 Z M 168.5 86.5 L 168.5 81.5 L 163.5 81.5 L 163.5 86.5 Z M 175.5 86.5 L 175.5 81.5 L 170.5 81.5 L 170.5 86.5 Z M 210.5 86.5 L 210.5 81.5 L 205.5 81.5 L 205.5 86.5 Z M 238.5 86.5 L 238.5 81.5 L 233.5 81.5 L 233.5 86.5 Z M 245.5 86.5 L 245.5 81.5 L 240.5 81.5 L 240.5 86.5 Z M 252.5 86.5 L 252.5 81.5 L 247.5 81.5 L 247.5 86.5 Z M 280.5 86.5 L 280.5 81.5 L 275.5 81.5 L 275.5 86.5 Z M 287.5 86.5 L 287.5 81.5 L 282.5 81.5 L 282.5 86.5 Z M 14.5 93.5 L 14.5 88.5 L 9.5 88.5 L 9.5 93.5 Z M 28.5 93.5 L 28.5 88.5 L 23.5 88.5 L 23.5 93.5 Z M 35.5 93.5 L 35.5 88.5 L 30.5 88.5 L 30.5 93.5 Z M 42.5 93.5 L 42.5 88.5 L 37.5 88.5 L 37.5 93.5 Z M 56.5 93.5 L 56.5 88.5 L 51.5 88.5 L 51.5 93.5 Z M 63.5 93.5 L 63.5 88.5 L 58.5 88.5 L 58.5 93.5 Z M 91.5 93.5 L 91.5 88.5 L 86.5 88.5 L 86.5 93.5 Z M 98.5 93.5 L 98.5 88.5 L 93.5 88.5 L 93.5 93.5 Z M 105.5 93.5 L 105.5 88.5 L 100.5 88.5 L 100.5 93.5 Z M 112.5 93.5 L 112.5 88.5 L 107.5 88.5 L 107.5 93.5 Z M 119.5 93.5 L 119.5 88.5 L 114.5 88.5 L 114.5 93.5 Z M 126.5 93.5 L 126.5 88.5 L 121.5 88.5 L 121.5 93.5 Z M 133.5 93.5 L 133.5 88.5 L 128.5 88.5 L 128.5 93.5 Z M 147.5 93.5 L 147.5 88.5 L 142.5 88.5 L 142.5 93.5 Z M 161.5 93.5 L 161.5 88.5 L 156.5 88.5 L 156.5 93.5 Z M 168.5 93.5 L 168.5 88.5 L 163.5 88.5 L 163.5 93.5 Z M 175.5 93.5 L 175.5 88.5 L 170.5 88.5 L 170.5 93.5 Z M 203.5 93.5 L 203.5 88.5 L 198.5 88.5 L 198.5 93.5 Z M 210.5 93.5 L 210.5 88.5 L 205.5 88.5 L 205.5 93.5 Z M 231.5 93.5 L 231.5 88.5 L 226.5 88.5 L 226.5 93.5 Z M 238.5 93.5 L 238.5 88.5 L 233.5 88.5 L 233.5 93.5 Z M 252.5 93.5 L 252.5 88.5 L 247.5 88.5 L 247.5 93.5 Z M 273.5 93.5 L 273.5 88.5 L 268.5 88.5 L 268.5 93.5 Z M 280.5 93.5 L 280.5 88.5 L 275.5 88.5 L 275.5 93.5 Z M 14.5 100.5 L 14.5 95.5 L 9.5 95.5 L 9.5 100.5 Z M 21.5 100.5 L 21.5 95.5 L 16.5 95.5 L 16.5 100.5 Z M 28.5 100.5 L 28.5 95.5 L 23.5 95.5 L 23.5 100.5 Z M 42.5 100.5 L 42.5 95.5 L 37.5 95.5 L 37.5 100.5 Z M 49.5 100.5 L 49.5 95.5 L 44.5 95.5 L 44.5 100.5 Z M 56.5 100.5 L 56.5 95.5 L 51.5 95.5 L 51.5 100.5 Z M 63.5 100.5 L 63.5 95.5 L 58.5 95.5 L 58.5 100.5 Z M 84.5 100.5 L 84.5 95.5 L 79.5 95.5 L 79.5 100.5 Z M 91.5 100.5 L 91.5 95.5 L 86.5 95.5 L 86.5 100.5 Z M 133.5 100.5 L 133.5 95.5 L 128.5 95.5 L 128.5 100.5 Z M 140.5 100.5 L 140.5 95.5 L 135.5 95.5 L 135.5 100.5 Z M 147.5 100.5 L 147.5 95.5 L 142.5 95.5 L 142.5 100.5 Z M 154.5 100.5 L 154.5 95.5 L 149.5 95.5 L 149.5 100.5 Z M 161.5 100.5 L 161.5 95.5 L 156.5 95.5 L 156.5 100.5 Z M 175.5 100.5 L 175.5 95.5 L 170.5 95.5 L 170.5 100.5 Z M 196.5 100.5 L 196.5 95.5 L 191.5 95.5 L 191.5 100.5 Z M 203.5 100.5 L 203.5 95.5 L 198.5 95.5 L 198.5 100.5 Z M 210.5 100.5 L 210.5 95.5 L 205.5 95.5 L 205.5 100.5 Z M 224.5 100.5 L 224.5 95.5 L 219.5 95.5 L 219.5 100.5 Z M 231.5 100.5 L 231.5 95.5 L 226.5 95.5 L 226.5 100.5 Z M 238.5 100.5 L 238.5 95.5 L 233.5 95.5 L 233.5 100.5 Z M 245.5 100.5 L 245.5 95.5 L 240.5 95.5 L 240.5 100.5 Z M 252.5 100.5 L 252.5 95.5 L 247.5 95.5 L 247.5 100.5 Z M 266.5 100.5 L 266.5 95.5 L 261.5 95.5 L 261.5 100.5 Z M 273.5 100.5 L 273.5 95.5 L 268.5 95.5 L 268.5 100.5 Z M 280.5 100.5 L 280.5 95.5 L 275.5 95.5 L 275.5 100.5 Z M 287.5 100.5 L 287.5 95.5 L 282.5 95.5 L 282.5 100.5 Z M 28.5 107.5 L 28.5 102.5 L 23.5 102.5 L 23.5 107.5 Z M 35.5 107.5 L 35.5 102.5 L 30.5 102.5 L 30.5 107.5 Z M 42.5 107.5 L 42.5 102.5 L 37.5 102.5 L 37.5 107.5 Z M 63.5 107.5 L 63.5 102.5 L 58.5 102.5 L 58.5 107.5 Z M 77.5 107.5 L 77.5 102.5 L 72.5 102.5 L 72.5 107.5 Z M 84.5 107.5 L 84.5 102.5 L 79.5 102.5 L 79.5 107.5 Z M 91.5 107.5 L 91.5 102.5 L 86.5 102.5 L 86.5 107.5 Z M 126.5 107.5 L 126.5 102.5 L 121.5 102.5 L 121.5 107.5 Z M 133.5 107.5 L 133.5 102.5 L 128.5 102.5 L 128.5 107.5 Z M 161.5 107.5 L 161.5 102.5 L 156.5 102.5 L 156.5 107.5 Z M 168.5 107.5 L 168.5 102.5 L 163.5 102.5 L 163.5 107.5 Z M 175.5 107.5 L 175.5 102.5 L 170.5 102.5 L 170.5 107.5 Z M 189.5 107.5 L 189.5 102.5 L 184.5 102.5 L 184.5 107.5 Z M 196.5 107.5 L 196.5 102.5 L 191.5 102.5 L 191.5 107.5 Z M 210.5 107.5 L 210.5 102.5 L 205.5 102.5 L 205.5 107.5 Z M 217.5 107.5 L 217.5 102.5 L 212.5 102.5 L 212.5 107.5 Z M 224.5 107.5 L 224.5 102.5 L 219.5 102.5 L 219.5 107.5 Z M 252.5 107.5 L 252.5 102.5 L 247.5 102.5 L 247.5 107.5 Z M 259.5 107.5 L 259.5 102.5 L 254.5 102.5 L 254.5 107.5 Z M 266.5 107.5 L 266.5 102.5 L 261.5 102.5 L 261.5 107.5 Z M 21.5 114.5 L 21.5 109.5 L 16.5 109.5 L 16.5 114.5 Z M 28.5 114.5 L 28.5 109.5 L 23.5 109.5 L 23.5 114.5 Z M 42.5 114.5 L 42.5 109.5 L 37.5 109.5 L 37.5 114.5 Z M 56.5 114.5 L 56.5 109.5 L 51.5 109.5 L 51.5 114.5 Z M 63.5 114.5 L 63.5 109.5 L 58.5 109.5 L 58.5 114.5 Z M 70.5 114.5 L 70.5 109.5 L 65.5 109.5 L 65.5 114.5 Z M 77.5 114.5 L 77.5 109.5 L 72.5 109.5 L 72.5 114.5 Z M 91.5 114.5 L 91.5 109.5 L 86.5 109.5 L 86.5 114.5 Z M 119.5 114.5 L 119.5 109.5 L 114.5 109.5 L 114.5 114.5 Z M 126.5 114.5 L 126.5 109.5 L 121.5 109.5 L 121.5 114.5 Z M 133.5 114.5 L 133.5 109.5 L 128.5 109.5 L 128.5 114.5 Z M 154.5 114.5 L 154.5 109.5 L 149.5 109.5 L 149.5 114.5 Z M 161.5 114.5 L 161.5 109.5 L 156.5 109.5 L 156.5 114.5 Z M 175.5 114.5 L 175.5 109.5 L 170.5 109.5 L 170.5 114.5 Z M 182.5 114.5 L 182.5 109.5 L 177.5 109.5 L 177.5 114.5 Z M 189.5 114.5 L 189.5 109.5 L 184.5 109.5 L 184.5 114.5 Z M 196.5 114.5 L 196.5 109.5 L 191.5 109.5 L 191.5 114.5 Z M 203.5 114.5 L 203.5 109.5 L 198.5 109.5 L 198.5 114.5 Z M 210.5 114.5 L 210.5 109.5 L 205.5 109.5 L 205.5 114.5 Z M 224.5 114.5 L 224.5 109.5 L 219.5 109.5 L 219.5 114.5 Z M 245.5 114.5 L 245.5 109.5 L 240.5 109.5 L 240.5 114.5 Z M 252.5 114.5 L 252.5 109.5 L 247.5 109.5 L 247.5 114.5 Z M 266.5 114.5 L 266.5 109.5 L 261.5 109.5 L 261.5 114.5 Z M 14.5 121.5 L 14.5 116.5 L 9.5 116.5 L 9.5 121.5 Z M 21.5 121.5 L 21.5 116.5 L 16.5 116.5 L 16.5 121.5 Z M 28.5 121.5 L 28.5 116.5 L 23.5 116.5 L 23.5 121.5 Z M 35.5 121.5 L 35.5 116.5 L 30.5 116.5 L 30.5 121.5 Z M 42.5 121.5 L 42.5 116.5 L 37.5 116.5 L 37.5 121.5 Z M 49.5 121.5 L 49.5 116.5 L 44.5 116.5 L 44.5 121.5 Z M 56.5 121.5 L 56.5 116.5 L 51.5 116.5 L 51.5 121.5 Z M 77.5 121.5 L 77.5 116.5 L 72.5 116.5 L 72.5 121.5 Z M 84.5 121.5 L 84.5 116.5 L 79.5 116.5 L 79.5 121.5 Z M 91.5 121.5 L 91.5 116.5 L 86.5 116.5 L 86.5 121.5 Z M 112.5 121.5 L 112.5 116.5 L 107.5 116.5 L 107.5 121.5 Z M 119.5 121.5 L 119.5 116.5 L 114.5 116.5 L 114.5 121.5 Z M 133.5 121.5 L 133.5 116.5 L 128.5 116.5 L 128.5 121.5 Z M 147.5 121.5 L 147.5 116.5 L 142.5 116.5 L 142.5 121.5 Z M 154.5 121.5 L 154.5 116.5 L 149.5 116.5 L 149.5 121.5 Z M 161.5 121.5 L 161.5 116.5 L 156.5 116.5 L 156.5 121.5 Z M 168.5 121.5 L 168.5 116.5 L 163.5 116.5 L 163.5 121.5 Z M 175.5 121.5 L 175.5 116.5 L 170.5 116.5 L 170.5 121.5 Z M 210.5 121.5 L 210.5 116.5 L 205.5 116.5 L 205.5 121.5 Z M 217.5 121.5 L 217.5 116.5 L 212.5 116.5 L 212.5 121.5 Z M 224.5 121.5 L 224.5 116.5 L 219.5 116.5 L 219.5 121.5 Z M 238.5 121.5 L 238.5 116.5 L 233.5 116.5 L 233.5 121.5 Z M 245.5 121.5 L 245.5 116.5 L 240.5 116.5 L 240.5 121.5 Z M 252.5 121.5 L 252.5 116.5 L 247.5 116.5 L 247.5 121.5 Z M 259.5 121.5 L 259.5 116.5 L 254.5 116.5 L 254.5 121.5 Z M 266.5 121.5 L 266.5 116.5 L 261.5 116.5 L 261.5 121.5 Z M 14.5 128.5 L 14.5 123.5 L 9.5 123.5 L 9.5 128.5 Z M 56.5 128.5 L 56.5 123.5 L 51.5 123.5 L 51.5 128.5 Z M 70.5 128.5 L 70.5 123.5 L 65.5 123.5 L 65.5 128.5 Z M 77.5 128.5 L 77.5 123.5 L 72.5 123.5 L 72.5 128.5 Z M 91.5 128.5 L 91.5 123.5 L 86.5 123.5 L 86.5 128.5 Z M 105.5 128.5 L 105.5 123.5 L 100.5 123.5 L 100.5 128.5 Z M 112.5 128.5 L 112.5 123.5 L 107.5 123.5 L 107.5 128.5 Z M 119.5 128.5 L 119.5 123.5 L 114.5 123.5 L 114.5 128.5 Z M 126.5 128.5 L 126.5 123.5 L 121.5 123.5 L 121.5 128.5 Z M 133.5 128.5 L 133.5 123.5 L 128.5 123.5 L 128.5 128.5 Z M 140.5 128.5 L 140.5 123.5 L 135.5 123.5 L 135.5 128.5 Z M 147.5 128.5 L 147.5 123.5 L 142.5 123.5 L 142.5 128.5 Z M 175.5 128.5 L 175.5 123.5 L 170.5 123.5 L 170.5 128.5 Z M 203.5 128.5 L 203.5 123.5 L 198.5 123.5 L 198.5 128.5 Z M 210.5 128.5 L 210.5 123.5 L 205.5 123.5 L 205.5 128.5 Z M 224.5 128.5 L 224.5 123.5 L 219.5 123.5 L 219.5 128.5 Z M 231.5 128.5 L 231.5 123.5 L 226.5 123.5 L 226.5 128.5 Z M 238.5 128.5 L 238.5 123.5 L 233.5 123.5 L 233.5 128.5 Z M 266.5 128.5 L 266.5 123.5 L 261.5 123.5 L 261.5 128.5 Z M 287.5 128.5 L 287.5 123.5 L 282.5 123.5 L 282.5 128.5 Z M 14.5 135.5 L 14.5 130.5 L 9.5 130.5 L 9.5 135.5 Z M 49.5 135.5 L 49.5 130.5 L 44.5 130.5 L 44.5 135.5 Z M 56.5 135.5 L 56.5 130.5 L 51.5 130.5 L 51.5 135.5 Z M 63.5 135.5 L 63.5 130.5 L 58.5 130.5 L 58.5 135.5 Z M 70.5 135.5 L 70.5 130.5 L 65.5 130.5 L 65.5 135.5 Z M 77.5 135.5 L 77.5 130.5 L 72.5 130.5 L 72.5 135.5 Z M 84.5 135.5 L 84.5 130.5 L 79.5 130.5 L 79.5 135.5 Z M 91.5 135.5 L 91.5 130.5 L 86.5 130.5 L 86.5 135.5 Z M 98.5 135.5 L 98.5 130.5 L 93.5 130.5 L 93.5 135.5 Z M 105.5 135.5 L 105.5 130.5 L 100.5 130.5 L 100.5 135.5 Z M 147.5 135.5 L 147.5 130.5 L 142.5 130.5 L 142.5 135.5 Z M 168.5 135.5 L 168.5 130.5 L 163.5 130.5 L 163.5 135.5 Z M 175.5 135.5 L 175.5 130.5 L 170.5 130.5 L 170.5 135.5 Z M 196.5 135.5 L 196.5 130.5 L 191.5 130.5 L 191.5 135.5 Z M 203.5 135.5 L 203.5 130.5 L 198.5 130.5 L 198.5 135.5 Z M 210.5 135.5 L 210.5 130.5 L 205.5 130.5 L 205.5 135.5 Z M 217.5 135.5 L 217.5 130.5 L 212.5 130.5 L 212.5 135.5 Z M 224.5 135.5 L 224.5 130.5 L 219.5 130.5 L 219.5 135.5 Z M 238.5 135.5 L 238.5 130.5 L 233.5 130.5 L 233.5 135.5 Z M 259.5 135.5 L 259.5 130.5 L 254.5 130.5 L 254.5 135.5 Z M 266.5 135.5 L 266.5 130.5 L 261.5 130.5 L 261.5 135.5 Z M 280.5 135.5 L 280.5 130.5 L 275.5 130.5 L 275.5 135.5 Z M 287.5 135.5 L 287.5 130.5 L 282.5 130.5 L 282.5 135.5 Z M 14.5 142.5 L 14.5 137.5 L 9.5 137.5 L 9.5 142.5 Z M 42.5 142.5 L 42.5 137.5 L 37.5 137.5 L 37.5 142.5 Z M 49.5 142.5 L 49.5 137.5 L 44.5 137.5 L 44.5 142.5 Z M 105.5 142.5 L 105.5 137.5 L 100.5 137.5 L 100.5 142.5 Z M 140.5 142.5 L 140.5 137.5 L 135.5 137.5 L 135.5 142.5 Z M 147.5 142.5 L 147.5 137.5 L 142.5 137.5 L 142.5 142.5 Z M 161.5 142.5 L 161.5 137.5 L 156.5 137.5 L 156.5 142.5 Z M 168.5 142.5 L 168.5 137.5 L 163.5 137.5 L 163.5 142.5 Z M 175.5 142.5 L 175.5 137.5 L 170.5 137.5 L 170.5 142.5 Z M 189.5 142.5 L 189.5 137.5 L 184.5 137.5 L 184.5 142.5 Z M 196.5 142.5 L 196.5 137.5 L 191.5 137.5 L 191.5 142.5 Z M 224.5 142.5 L 224.5 137.5 L 219.5 137.5 L 219.5 142.5 Z M 231.5 142.5 L 231.5 137.5 L 226.5 137.5 L 226.5 142.5 Z M 238.5 142.5 L 238.5 137.5 L 233.5 137.5 L 233.5 142.5 Z M 252.5 142.5 L 252.5 137.5 L 247.5 137.5 L 247.5 142.5 Z M 259.5 142.5 L 259.5 137.5 L 254.5 137.5 L 254.5 142.5 Z M 266.5 142.5 L 266.5 137.5 L 261.5 137.5 L 261.5 142.5 Z M 273.5 142.5 L 273.5 137.5 L 268.5 137.5 L 268.5 142.5 Z M 280.5 142.5 L 280.5 137.5 L 275.5 137.5 L 275.5 142.5 Z M 14.5 149.5 L 14.5 144.5 L 9.5 144.5 L 9.5 149.5 Z M 35.5 149.5 L 35.5 144.5 L 30.5 144.5 L 30.5 149.5 Z M 42.5 149.5 L 42.5 144.5 L 37.5 144.5 L 37.5 149.5 Z M 49.5 149.5 L 49.5 144.5 L 44.5 144.5 L 44.5 149.5 Z M 98.5 149.5 L 98.5 144.5 L 93.5 144.5 L 93.5 149.5 Z M 105.5 149.5 L 105.5 144.5 L 100.5 144.5 L 100.5 149.5 Z M 133.5 149.5 L 133.5 144.5 L 128.5 144.5 L 128.5 149.5 Z M 140.5 149.5 L 140.5 144.5 L 135.5 144.5 L 135.5 149.5 Z M 147.5 149.5 L 147.5 144.5 L 142.5 144.5 L 142.5 149.5 Z M 154.5 149.5 L 154.5 144.5 L 149.5 144.5 L 149.5 149.5 Z M 161.5 149.5 L 161.5 144.5 L 156.5 144.5 L 156.5 149.5 Z M 175.5 149.5 L 175.5 144.5 L 170.5 144.5 L 170.5 149.5 Z M 182.5 149.5 L 182.5 144.5 L 177.5 144.5 L 177.5 149.5 Z M 189.5 149.5 L 189.5 144.5 L 184.5 144.5 L 184.5 149.5 Z M 196.5 149.5 L 196.5 144.5 L 191.5 144.5 L 191.5 149.5 Z M 217.5 149.5 L 217.5 144.5 L 212.5 144.5 L 212.5 149.5 Z M 224.5 149.5 L 224.5 144.5 L 219.5 144.5 L 219.5 149.5 Z M 238.5 149.5 L 238.5 144.5 L 233.5 144.5 L 233.5 149.5 Z M 245.5 149.5 L 245.5 144.5 L 240.5 144.5 L 240.5 149.5 Z M 252.5 149.5 L 252.5 144.5 L 247.5 144.5 L 247.5 149.5 Z M 280.5 149.5 L 280.5 144.5 L 275.5 144.5 L 275.5 149.5 Z M 287.5 149.5 L 287.5 144.5 L 282.5 144.5 L 282.5 149.5 Z M 14.5 156.5 L 14.5 151.5 L 9.5 151.5 L 9.5 156.5 Z M 28.5 156.5 L 28.5 151.5 L 23.5 151.5 L 23.5 156.5 Z M 35.5 156.5 L 35.5 151.5 L 30.5 151.5 L 30.5 156.5 Z M 49.5 156.5 L 49.5 151.5 L 44.5 151.5 L 44.5 156.5 Z M 91.5 156.5 L 91.5 151.5 L 86.5 151.5 L 86.5 156.5 Z M 98.5 156.5 L 98.5 151.5 L 93.5 151.5 L 93.5 156.5 Z M 105.5 156.5 L 105.5 151.5 L 100.5 151.5 L 100.5 156.5 Z M 126.5 156.5 L 126.5 151.5 L 121.5 151.5 L 121.5 156.5 Z M 133.5 156.5 L 133.5 151.5 L 128.5 151.5 L 128.5 156.5 Z M 161.5 156.5 L 161.5 151.5 L 156.5 151.5 L 156.5 156.5 Z M 168.5 156.5 L 168.5 151.5 L 163.5 151.5 L 163.5 156.5 Z M 175.5 156.5 L 175.5 151.5 L 170.5 151.5 L 170.5 156.5 Z M 196.5 156.5 L 196.5 151.5 L 191.5 151.5 L 191.5 156.5 Z M 210.5 156.5 L 210.5 151.5 L 205.5 151.5 L 205.5 156.5 Z M 217.5 156.5 L 217.5 151.5 L 212.5 151.5 L 212.5 156.5 Z M 224.5 156.5 L 224.5 151.5 L 219.5 151.5 L 219.5 156.5 Z M 231.5 156.5 L 231.5 151.5 L 226.5 151.5 L 226.5 156.5 Z M 238.5 156.5 L 238.5 151.5 L 233.5 151.5 L 233.5 156.5 Z M 252.5 156.5 L 252.5 151.5 L 247.5 151.5 L 247.5 156.5 Z M 273.5 156.5 L 273.5 151.5 L 268.5 151.5 L 268.5 156.5 Z M 280.5 156.5 L 280.5 151.5 L 275.5 151.5 L 275.5 156.5 Z M 14.5 163.5 L 14.5 158.5 L 9.5 158.5 L 9.5 163.5 Z M 21.5 163.5 L 21.5 158.5 L 16.5 158.5 L 16.5 163.5 Z M 28.5 163.5 L 28.5 158.5 L 23.5 158.5 L 23.5 163.5 Z M 35.5 163.5 L 35.5 158.5 L 30.5 158.5 L 30.5 163.5 Z M 42.5 163.5 L 42.5 158.5 L 37.5 158.5 L 37.5 163.5 Z M 49.5 163.5 L 49.5 158.5 L 44.5 158.5 L 44.5 163.5 Z M 84.5 163.5 L 84.5 158.5 L 79.5 158.5 L 79.5 163.5 Z M 91.5 163.5 L 91.5 158.5 L 86.5 158.5 L 86.5 163.5 Z M 105.5 163.5 L 105.5 158.5 L 100.5 158.5 L 100.5 163.5 Z M 119.5 163.5 L 119.5 158.5 L 114.5 158.5 L 114.5 163.5 Z M 126.5 163.5 L 126.5 158.5 L 121.5 158.5 L 121.5 163.5 Z M 133.5 163.5 L 133.5 158.5 L 128.5 158.5 L 128.5 163.5 Z M 154.5 163.5 L 154.5 158.5 L 149.5 158.5 L 149.5 163.5 Z M 161.5 163.5 L 161.5 158.5 L 156.5 158.5 L 156.5 163.5 Z M 175.5 163.5 L 175.5 158.5 L 170.5 158.5 L 170.5 163.5 Z M 189.5 163.5 L 189.5 158.5 L 184.5 158.5 L 184.5 163.5 Z M 196.5 163.5 L 196.5 158.5 L 191.5 158.5 L 191.5 163.5 Z M 203.5 163.5 L 203.5 158.5 L 198.5 158.5 L 198.5 163.5 Z M 210.5 163.5 L 210.5 158.5 L 205.5 158.5 L 205.5 163.5 Z M 238.5 163.5 L 238.5 158.5 L 233.5 158.5 L 233.5 163.5 Z M 245.5 163.5 L 245.5 158.5 L 240.5 158.5 L 240.5 163.5 Z M 252.5 163.5 L 252.5 158.5 L 247.5 158.5 L 247.5 163.5 Z M 266.5 163.5 L 266.5 158.5 L 261.5 158.5 L 261.5 163.5 Z M 273.5 163.5 L 273.5 158.5 L 268.5 158.5 L 268.5 163.5 Z M 280.5 163.5 L 280.5 158.5 L 275.5 158.5 L 275.5 163.5 Z M 287.5 163.5 L 287.5 158.5 L 282.5 158.5 L 282.5 163.5 Z M 49.5 170.5 L 49.5 165.5 L 44.5 165.5 L 44.5 170.5 Z M 77.5 170.5 L 77.5 165.5 L 72.5 165.5 L 72.5 170.5 Z M 84.5 170.5 L 84.5 165.5 L 79.5 165.5 L 79.5 170.5 Z M 91.5 170.5 L 91.5 165.5 L 86.5 165.5 L 86.5 170.5 Z M 98.5 170.5 L 98.5 165.5 L 93.5 165.5 L 93.5 170.5 Z M 105.5 170.5 L 105.5 165.5 L 100.5 165.5 L 100.5 170.5 Z M 112.5 170.5 L 112.5 165.5 L 107.5 165.5 L 107.5 170.5 Z M 119.5 170.5 L 119.5 165.5 L 114.5 165.5 L 114.5 170.5 Z M 133.5 170.5 L 133.5 165.5 L 128.5 165.5 L 128.5 170.5 Z M 147.5 170.5 L 147.5 165.5 L 142.5 165.5 L 142.5 170.5 Z M 154.5 170.5 L 154.5 165.5 L 149.5 165.5 L 149.5 170.5 Z M 161.5 170.5 L 161.5 165.5 L 156.5 165.5 L 156.5 170.5 Z M 168.5 170.5 L 168.5 165.5 L 163.5 165.5 L 163.5 170.5 Z M 175.5 170.5 L 175.5 165.5 L 170.5 165.5 L 170.5 170.5 Z M 182.5 170.5 L 182.5 165.5 L 177.5 165.5 L 177.5 170.5 Z M 189.5 170.5 L 189.5 165.5 L 184.5 165.5 L 184.5 170.5 Z M 210.5 170.5 L 210.5 165.5 L 205.5 165.5 L 205.5 170.5 Z M 231.5 170.5 L 231.5 165.5 L 226.5 165.5 L 226.5 170.5 Z M 238.5 170.5 L 238.5 165.5 L 233.5 165.5 L 233.5 170.5 Z M 252.5 170.5 L 252.5 165.5 L 247.5 165.5 L 247.5 170.5 Z M 259.5 170.5 L 259.5 165.5 L 254.5 165.5 L 254.5 170.5 Z M 266.5 170.5 L 266.5 165.5 L 261.5 165.5 L 261.5 170.5 Z M 42.5 177.5 L 42.5 172.5 L 37.5 172.5 L 37.5 177.5 Z M 49.5 177.5 L 49.5 172.5 L 44.5 172.5 L 44.5 177.5 Z M 70.5 177.5 L 70.5 172.5 L 65.5 172.5 L 65.5 177.5 Z M 77.5 177.5 L 77.5 172.5 L 72.5 172.5 L 72.5 177.5 Z M 119.5 177.5 L 119.5 172.5 L 114.5 172.5 L 114.5 177.5 Z M 126.5 177.5 L 126.5 172.5 L 121.5 172.5 L 121.5 177.5 Z M 133.5 177.5 L 133.5 172.5 L 128.5 172.5 L 128.5 177.5 Z M 140.5 177.5 L 140.5 172.5 L 135.5 172.5 L 135.5 177.5 Z M 147.5 177.5 L 147.5 172.5 L 142.5 172.5 L 142.5 177.5 Z M 189.5 177.5 L 189.5 172.5 L 184.5 172.5 L 184.5 177.5 Z M 203.5 177.5 L 203.5 172.5 L 198.5 172.5 L 198.5 177.5 Z M 210.5 177.5 L 210.5 172.5 L 205.5 172.5 L 205.5 177.5 Z M 224.5 177.5 L 224.5 172.5 L 219.5 172.5 L 219.5 177.5 Z M 231.5 177.5 L 231.5 172.5 L 226.5 172.5 L 226.5 177.5 Z M 238.5 177.5 L 238.5 172.5 L 233.5 172.5 L 233.5 177.5 Z M 245.5 177.5 L 245.5 172.5 L 240.5 172.5 L 240.5 177.5 Z M 252.5 177.5 L 252.5 172.5 L 247.5 172.5 L 247.5 177.5 Z M 266.5 177.5 L 266.5 172.5 L 261.5 172.5 L 261.5 177.5 Z M 35.5 184.5 L 35.5 179.5 L 30.5 179.5 L 30.5 184.5 Z M 42.5 184.5 L 42.5 179.5 L 37.5 179.5 L 37.5 184.5 Z M 49.5 184.5 L 49.5 179.5 L 44.5 179.5 L 44.5 184.5 Z M 63.5 184.5 L 63.5 179.5 L 58.5 179.5 L 58.5 184.5 Z M 70.5 184.5 L 70.5 179.5 L 65.5 179.5 L 65.5 184.5 Z M 77.5 184.5 L 77.5 179.5 L 72.5 179.5 L 72.5 184.5 Z M 112.5 184.5 L 112.5 179.5 L 107.5 179.5 L 107.5 184.5 Z M 119.5 184.5 L 119.5 179.5 L 114.5 179.5 L 114.5 184.5 Z M 147.5 184.5 L 147.5 179.5 L 142.5 179.5 L 142.5 184.5 Z M 182.5 184.5 L 182.5 179.5 L 177.5 179.5 L 177.5 184.5 Z M 189.5 184.5 L 189.5 179.5 L 184.5 179.5 L 184.5 184.5 Z M 196.5 184.5 L 196.5 179.5 L 191.5 179.5 L 191.5 184.5 Z M 203.5 184.5 L 203.5 179.5 L 198.5 179.5 L 198.5 184.5 Z M 210.5 184.5 L 210.5 179.5 L 205.5 179.5 L 205.5 184.5 Z M 217.5 184.5 L 217.5 179.5 L 212.5 179.5 L 212.5 184.5 Z M 224.5 184.5 L 224.5 179.5 L 219.5 179.5 L 219.5 184.5 Z M 252.5 184.5 L 252.5 179.5 L 247.5 179.5 L 247.5 184.5 Z M 259.5 184.5 L 259.5 179.5 L 254.5 179.5 L 254.5 184.5 Z M 266.5 184.5 L 266.5 179.5 L 261.5 179.5 L 261.5 184.5 Z M 28.5 191.5 L 28.5 186.5 L 23.5 186.5 L 23.5 191.5 Z M 35.5 191.5 L 35.5 186.5 L 30.5 186.5 L 30.5 191.5 Z M 49.5 191.5 L 49.5 186.5 L 44.5 186.5 L 44.5 191.5 Z M 56.5 191.5 L 56.5 186.5 L 51.5 186.5 L 51.5 191.5 Z M 63.5 191.5 L 63.5 186.5 L 58.5 186.5 L 58.5 191.5 Z M 77.5 191.5 L 77.5 186.5 L 72.5 186.5 L 72.5 191.5 Z M 105.5 191.5 L 105.5 186.5 L 100.5 186.5 L 100.5 191.5 Z M 112.5 191.5 L 112.5 186.5 L 107.5 186.5 L 107.5 191.5 Z M 119.5 191.5 L 119.5 186.5 L 114.5 186.5 L 114.5 191.5 Z M 140.5 191.5 L 140.5 186.5 L 135.5 186.5 L 135.5 191.5 Z M 147.5 191.5 L 147.5 186.5 L 142.5 186.5 L 142.5 191.5 Z M 175.5 191.5 L 175.5 186.5 L 170.5 186.5 L 170.5 191.5 Z M 182.5 191.5 L 182.5 186.5 L 177.5 186.5 L 177.5 191.5 Z M 224.5 191.5 L 224.5 186.5 L 219.5 186.5 L 219.5 191.5 Z M 245.5 191.5 L 245.5 186.5 L 240.5 186.5 L 240.5 191.5 Z M 252.5 191.5 L 252.5 186.5 L 247.5 186.5 L 247.5 191.5 Z M 266.5 191.5 L 266.5 186.5 L 261.5 186.5 L 261.5 191.5 Z M 21.5 198.5 L 21.5 193.5 L 16.5 193.5 L 16.5 198.5 Z M 28.5 198.5 L 28.5 193.5 L 23.5 193.5 L 23.5 198.5 Z M 35.5 198.5 L 35.5 193.5 L 30.5 193.5 L 30.5 198.5 Z M 42.5 198.5 L 42.5 193.5 L 37.5 193.5 L 37.5 198.5 Z M 49.5 198.5 L 49.5 193.5 L 44.5 193.5 L 44.5 198.5 Z M 63.5 198.5 L 63.5 193.5 L 58.5 193.5 L 58.5 198.5 Z M 70.5 198.5 L 70.5 193.5 L 65.5 193.5 L 65.5 198.5 Z M 77.5 198.5 L 77.5 193.5 L 72.5 193.5 L 72.5 198.5 Z M 98.5 198.5 L 98.5 193.5 L 93.5 193.5 L 93.5 198.5 Z M 105.5 198.5 L 105.5 193.5 L 100.5 193.5 L 100.5 198.5 Z M 119.5 198.5 L 119.5 193.5 L 114.5 193.5 L 114.5 198.5 Z M 133.5 198.5 L 133.5 193.5 L 128.5 193.5 L 128.5 198.5 Z M 140.5 198.5 L 140.5 193.5 L 135.5 193.5 L 135.5 198.5 Z M 147.5 198.5 L 147.5 193.5 L 142.5 193.5 L 142.5 198.5 Z M 168.5 198.5 L 168.5 193.5 L 163.5 193.5 L 163.5 198.5 Z M 175.5 198.5 L 175.5 193.5 L 170.5 193.5 L 170.5 198.5 Z M 182.5 198.5 L 182.5 193.5 L 177.5 193.5 L 177.5 198.5 Z M 217.5 198.5 L 217.5 193.5 L 212.5 193.5 L 212.5 198.5 Z M 224.5 198.5 L 224.5 193.5 L 219.5 193.5 L 219.5 198.5 Z M 238.5 198.5 L 238.5 193.5 L 233.5 193.5 L 233.5 198.5 Z M 245.5 198.5 L 245.5 193.5 L 240.5 193.5 L 240.5 198.5 Z M 252.5 198.5 L 252.5 193.5 L 247.5 193.5 L 247.5 198.5 Z M 259.5 198.5 L 259.5 193.5 L 254.5 193.5 L 254.5 198.5 Z M 266.5 198.5 L 266.5 193.5 L 261.5 193.5 L 261.5 198.5 Z M 14.5 205.5 L 14.5 200.5 L 9.5 200.5 L 9.5 205.5 Z M 21.5 205.5 L 21.5 200.5 L 16.5 200.5 L 16.5 205.5 Z M 49.5 205.5 L 49.5 200.5 L 44.5 200.5 L 44.5 205.5 Z M 56.5 205.5 L 56.5 200.5 L 51.5 200.5 L 51.5 205.5 Z M 63.5 205.5 L 63.5 200.5 L 58.5 200.5 L 58.5 205.5 Z M 77.5 205.5 L 77.5 200.5 L 72.5 200.5 L 72.5 205.5 Z M 91.5 205.5 L 91.5 200.5 L 86.5 200.5 L 86.5 205.5 Z M 98.5 205.5 L 98.5 200.5 L 93.5 200.5 L 93.5 205.5 Z M 105.5 205.5 L 105.5 200.5 L 100.5 200.5 L 100.5 205.5 Z M 112.5 205.5 L 112.5 200.5 L 107.5 200.5 L 107.5 205.5 Z M 119.5 205.5 L 119.5 200.5 L 114.5 200.5 L 114.5 205.5 Z M 126.5 205.5 L 126.5 200.5 L 121.5 200.5 L 121.5 205.5 Z M 133.5 205.5 L 133.5 200.5 L 128.5 200.5 L 128.5 205.5 Z M 147.5 205.5 L 147.5 200.5 L 142.5 200.5 L 142.5 205.5 Z M 161.5 205.5 L 161.5 200.5 L 156.5 200.5 L 156.5 205.5 Z M 168.5 205.5 L 168.5 200.5 L 163.5 200.5 L 163.5 205.5 Z M 182.5 205.5 L 182.5 200.5 L 177.5 200.5 L 177.5 205.5 Z M 210.5 205.5 L 210.5 200.5 L 205.5 200.5 L 205.5 205.5 Z M 217.5 205.5 L 217.5 200.5 L 212.5 200.5 L 212.5 205.5 Z M 224.5 205.5 L 224.5 200.5 L 219.5 200.5 L 219.5 205.5 Z M 231.5 205.5 L 231.5 200.5 L 226.5 200.5 L 226.5 205.5 Z M 238.5 205.5 L 238.5 200.5 L 233.5 200.5 L 233.5 205.5 Z M 266.5 205.5 L 266.5 200.5 L 261.5 200.5 L 261.5 205.5 Z M 14.5 212.5 L 14.5 207.5 L 9.5 207.5 L 9.5 212.5 Z M 21.5 212.5 L 21.5 207.5 L 16.5 207.5 L 16.5 212.5 Z M 42.5 212.5 L 42.5 207.5 L 37.5 207.5 L 37.5 212.5 Z M 49.5 212.5 L 49.5 207.5 L 44.5 207.5 L 44.5 212.5 Z M 63.5 212.5 L 63.5 207.5 L 58.5 207.5 L 58.5 212.5 Z M 70.5 212.5 L 70.5 207.5 L 65.5 207.5 L 65.5 212.5 Z M 77.5 212.5 L 77.5 207.5 L 72.5 207.5 L 72.5 212.5 Z M 84.5 212.5 L 84.5 207.5 L 79.5 207.5 L 79.5 212.5 Z M 91.5 212.5 L 91.5 207.5 L 86.5 207.5 L 86.5 212.5 Z M 133.5 212.5 L 133.5 207.5 L 128.5 207.5 L 128.5 212.5 Z M 140.5 212.5 L 140.5 207.5 L 135.5 207.5 L 135.5 212.5 Z M 147.5 212.5 L 147.5 207.5 L 142.5 207.5 L 142.5 212.5 Z M 154.5 212.5 L 154.5 207.5 L 149.5 207.5 L 149.5 212.5 Z M 161.5 212.5 L 161.5 207.5 L 156.5 207.5 L 156.5 212.5 Z M 168.5 212.5 L 168.5 207.5 L 163.5 207.5 L 163.5 212.5 Z M 175.5 212.5 L 175.5 207.5 L 170.5 207.5 L 170.5 212.5 Z M 182.5 212.5 L 182.5 207.5 L 177.5 207.5 L 177.5 212.5 Z M 203.5 212.5 L 203.5 207.5 L 198.5 207.5 L 198.5 212.5 Z M 210.5 212.5 L 210.5 207.5 L 205.5 207.5 L 205.5 212.5 Z M 238.5 212.5 L 238.5 207.5 L 233.5 207.5 L 233.5 212.5 Z M 259.5 212.5 L 259.5 207.5 L 254.5 207.5 L 254.5 212.5 Z M 266.5 212.5 L 266.5 207.5 L 261.5 207.5 L 261.5 212.5 Z M 287.5 212.5 L 287.5 207.5 L 282.5 207.5 L 282.5 212.5 Z M 21.5 219.5 L 21.5 214.5 L 16.5 214.5 L 16.5 219.5 Z M 35.5 219.5 L 35.5 214.5 L 30.5 214.5 L 30.5 219.5 Z M 42.5 219.5 L 42.5 214.5 L 37.5 214.5 L 37.5 219.5 Z M 49.5 219.5 L 49.5 214.5 L 44.5 214.5 L 44.5 219.5 Z M 56.5 219.5 L 56.5 214.5 L 51.5 214.5 L 51.5 219.5 Z M 63.5 219.5 L 63.5 214.5 L 58.5 214.5 L 58.5 219.5 Z M 91.5 219.5 L 91.5 214.5 L 86.5 214.5 L 86.5 219.5 Z M 126.5 219.5 L 126.5 214.5 L 121.5 214.5 L 121.5 219.5 Z M 133.5 219.5 L 133.5 214.5 L 128.5 214.5 L 128.5 219.5 Z M 182.5 219.5 L 182.5 214.5 L 177.5 214.5 L 177.5 219.5 Z M 196.5 219.5 L 196.5 214.5 L 191.5 214.5 L 191.5 219.5 Z M 203.5 219.5 L 203.5 214.5 L 198.5 214.5 L 198.5 219.5 Z M 210.5 219.5 L 210.5 214.5 L 205.5 214.5 L 205.5 219.5 Z M 231.5 219.5 L 231.5 214.5 L 226.5 214.5 L 226.5 219.5 Z M 238.5 219.5 L 238.5 214.5 L 233.5 214.5 L 233.5 219.5 Z M 252.5 219.5 L 252.5 214.5 L 247.5 214.5 L 247.5 219.5 Z M 259.5 219.5 L 259.5 214.5 L 254.5 214.5 L 254.5 219.5 Z M 266.5 219.5 L 266.5 214.5 L 261.5 214.5 L 261.5 219.5 Z M 280.5 219.5 L 280.5 214.5 L 275.5 214.5 L 275.5 219.5 Z M 287.5 219.5 L 287.5 214.5 L 282.5 214.5 L 282.5 219.5 Z M 14.5 226.5 L 14.5 221.5 L 9.5 221.5 L 9.5 226.5 Z M 21.5 226.5 L 21.5 221.5 L 16.5 221.5 L 16.5 226.5 Z M 28.5 226.5 L 28.5 221.5 L 23.5 221.5 L 23.5 226.5 Z M 35.5 226.5 L 35.5 221.5 L 30.5 221.5 L 30.5 226.5 Z M 63.5 226.5 L 63.5 221.5 L 58.5 221.5 L 58.5 226.5 Z M 84.5 226.5 L 84.5 221.5 L 79.5 221.5 L 79.5 226.5 Z M 91.5 226.5 L 91.5 221.5 L 86.5 221.5 L 86.5 226.5 Z M 119.5 226.5 L 119.5 221.5 L 114.5 221.5 L 114.5 226.5 Z M 126.5 226.5 L 126.5 221.5 L 121.5 221.5 L 121.5 226.5 Z M 133.5 226.5 L 133.5 221.5 L 128.5 221.5 L 128.5 226.5 Z M 175.5 226.5 L 175.5 221.5 L 170.5 221.5 L 170.5 226.5 Z M 182.5 226.5 L 182.5 221.5 L 177.5 221.5 L 177.5 226.5 Z M 189.5 226.5 L 189.5 221.5 L 184.5 221.5 L 184.5 226.5 Z M 196.5 226.5 L 196.5 221.5 L 191.5 221.5 L 191.5 226.5 Z M 210.5 226.5 L 210.5 221.5 L 205.5 221.5 L 205.5 226.5 Z M 224.5 226.5 L 224.5 221.5 L 219.5 221.5 L 219.5 226.5 Z M 231.5 226.5 L 231.5 221.5 L 226.5 221.5 L 226.5 226.5 Z M 238.5 226.5 L 238.5 221.5 L 233.5 221.5 L 233.5 226.5 Z M 245.5 226.5 L 245.5 221.5 L 240.5 221.5 L 240.5 226.5 Z M 252.5 226.5 L 252.5 221.5 L 247.5 221.5 L 247.5 226.5 Z M 266.5 226.5 L 266.5 221.5 L 261.5 221.5 L 261.5 226.5 Z M 273.5 226.5 L 273.5 221.5 L 268.5 221.5 L 268.5 226.5 Z M 280.5 226.5 L 280.5 221.5 L 275.5 221.5 L 275.5 226.5 Z M 287.5 226.5 L 287.5 221.5 L 282.5 221.5 L 282.5 226.5 Z M 35.5 233.5 L 35.5 228.5 L 30.5 228.5 L 30.5 233.5 Z M 56.5 233.5 L 56.5 228.5 L 51.5 228.5 L 51.5 233.5 Z M 63.5 233.5 L 63.5 228.5 L 58.5 228.5 L 58.5 233.5 Z M 77.5 233.5 L 77.5 228.5 L 72.5 228.5 L 72.5 233.5 Z M 84.5 233.5 L 84.5 228.5 L 79.5 228.5 L 79.5 233.5 Z M 91.5 233.5 L 91.5 228.5 L 86.5 228.5 L 86.5 233.5 Z M 112.5 233.5 L 112.5 228.5 L 107.5 228.5 L 107.5 233.5 Z M 119.5 233.5 L 119.5 228.5 L 114.5 228.5 L 114.5 233.5 Z M 133.5 233.5 L 133.5 228.5 L 128.5 228.5 L 128.5 233.5 Z M 168.5 233.5 L 168.5 228.5 L 163.5 228.5 L 163.5 233.5 Z M 175.5 233.5 L 175.5 228.5 L 170.5 228.5 L 170.5 233.5 Z M 196.5 233.5 L 196.5 228.5 L 191.5 228.5 L 191.5 233.5 Z M 203.5 233.5 L 203.5 228.5 L 198.5 228.5 L 198.5 233.5 Z M 210.5 233.5 L 210.5 228.5 L 205.5 228.5 L 205.5 233.5 Z M 217.5 233.5 L 217.5 228.5 L 212.5 228.5 L 212.5 233.5 Z M 224.5 233.5 L 224.5 228.5 L 219.5 228.5 L 219.5 233.5 Z M 252.5 233.5 L 252.5 228.5 L 247.5 228.5 L 247.5 233.5 Z M 259.5 233.5 L 259.5 228.5 L 254.5 228.5 L 254.5 233.5 Z M 266.5 233.5 L 266.5 228.5 L 261.5 228.5 L 261.5 233.5 Z M 28.5 240.5 L 28.5 235.5 L 23.5 235.5 L 23.5 240.5 Z M 35.5 240.5 L 35.5 235.5 L 30.5 235.5 L 30.5 240.5 Z M 49.5 240.5 L 49.5 235.5 L 44.5 235.5 L 44.5 240.5 Z M 56.5 240.5 L 56.5 235.5 L 51.5 235.5 L 51.5 240.5 Z M 63.5 240.5 L 63.5 235.5 L 58.5 235.5 L 58.5 240.5 Z M 70.5 240.5 L 70.5 235.5 L 65.5 235.5 L 65.5 240.5 Z M 77.5 240.5 L 77.5 235.5 L 72.5 235.5 L 72.5 240.5 Z M 91.5 240.5 L 91.5 235.5 L 86.5 235.5 L 86.5 240.5 Z M 105.5 240.5 L 105.5 235.5 L 100.5 235.5 L 100.5 240.5 Z M 112.5 240.5 L 112.5 235.5 L 107.5 235.5 L 107.5 240.5 Z M 119.5 240.5 L 119.5 235.5 L 114.5 235.5 L 114.5 240.5 Z M 126.5 240.5 L 126.5 235.5 L 121.5 235.5 L 121.5 240.5 Z M 133.5 240.5 L 133.5 235.5 L 128.5 235.5 L 128.5 240.5 Z M 161.5 240.5 L 161.5 235.5 L 156.5 235.5 L 156.5 240.5 Z M 168.5 240.5 L 168.5 235.5 L 163.5 235.5 L 163.5 240.5 Z M 175.5 240.5 L 175.5 235.5 L 170.5 235.5 L 170.5 240.5 Z M 189.5 240.5 L 189.5 235.5 L 184.5 235.5 L 184.5 240.5 Z M 196.5 240.5 L 196.5 235.5 L 191.5 235.5 L 191.5 240.5 Z M 224.5 240.5 L 224.5 235.5 L 219.5 235.5 L 219.5 240.5 Z M 245.5 240.5 L 245.5 235.5 L 240.5 235.5 L 240.5 240.5 Z M 252.5 240.5 L 252.5 235.5 L 247.5 235.5 L 247.5 240.5 Z M 266.5 240.5 L 266.5 235.5 L 261.5 235.5 L 261.5 240.5 Z M 21.5 247.5 L 21.5 242.5 L 16.5 242.5 L 16.5 247.5 Z M 28.5 247.5 L 28.5 242.5 L 23.5 242.5 L 23.5 247.5 Z M 35.5 247.5 L 35.5 242.5 L 30.5 242.5 L 30.5 247.5 Z M 42.5 247.5 L 42.5 242.5 L 37.5 242.5 L 37.5 247.5 Z M 49.5 247.5 L 49.5 242.5 L 44.5 242.5 L 44.5 247.5 Z M 77.5 247.5 L 77.5 242.5 L 72.5 242.5 L 72.5 247.5 Z M 84.5 247.5 L 84.5 242.5 L 79.5 242.5 L 79.5 247.5 Z M 91.5 247.5 L 91.5 242.5 L 86.5 242.5 L 86.5 247.5 Z M 98.5 247.5 L 98.5 242.5 L 93.5 242.5 L 93.5 247.5 Z M 105.5 247.5 L 105.5 242.5 L 100.5 242.5 L 100.5 247.5 Z M 133.5 247.5 L 133.5 242.5 L 128.5 242.5 L 128.5 247.5 Z M 154.5 247.5 L 154.5 242.5 L 149.5 242.5 L 149.5 247.5 Z M 161.5 247.5 L 161.5 242.5 L 156.5 242.5 L 156.5 247.5 Z M 175.5 247.5 L 175.5 242.5 L 170.5 242.5 L 170.5 247.5 Z M 182.5 247.5 L 182.5 242.5 L 177.5 242.5 L 177.5 247.5 Z M 189.5 247.5 L 189.5 242.5 L 184.5 242.5 L 184.5 247.5 Z M 196.5 247.5 L 196.5 242.5 L 191.5 242.5 L 191.5 247.5 Z M 217.5 247.5 L 217.5 242.5 L 212.5 242.5 L 212.5 247.5 Z M 224.5 247.5 L 224.5 242.5 L 219.5 242.5 L 219.5 247.5 Z M 238.5 247.5 L 238.5 242.5 L 233.5 242.5 L 233.5 247.5 Z M 245.5 247.5 L 245.5 242.5 L 240.5 242.5 L 240.5 247.5 Z M 252.5 247.5 L 252.5 242.5 L 247.5 242.5 L 247.5 247.5 Z M 259.5 247.5 L 259.5 242.5 L 254.5 242.5 L 254.5 247.5 Z M 266.5 247.5 L 266.5 242.5 L 261.5 242.5 L 261.5 247.5 Z M 14.5 254.5 L 14.5 249.5 L 9.5 249.5 L 9.5 254.5 Z M 21.5 254.5 L 21.5 249.5 L 16.5 249.5 L 16.5 254.5 Z M 49.5 254.5 L 49.5 249.5 L 44.5 249.5 L 44.5 254.5 Z M 70.5 254.5 L 70.5 249.5 L 65.5 249.5 L 65.5 254.5 Z M 77.5 254.5 L 77.5 249.5 L 72.5 249.5 L 72.5 254.5 Z M 105.5 254.5 L 105.5 249.5 L 100.5 249.5 L 100.5 254.5 Z M 126.5 254.5 L 126.5 249.5 L 121.5 249.5 L 121.5 254.5 Z M 133.5 254.5 L 133.5 249.5 L 128.5 249.5 L 128.5 254.5 Z M 147.5 254.5 L 147.5 249.5 L 142.5 249.5 L 142.5 254.5 Z M 154.5 254.5 L 154.5 249.5 L 149.5 249.5 L 149.5 254.5 Z M 161.5 254.5 L 161.5 249.5 L 156.5 249.5 L 156.5 254.5 Z M 168.5 254.5 L 168.5 249.5 L 163.5 249.5 L 163.5 254.5 Z M 175.5 254.5 L 175.5 249.5 L 170.5 249.5 L 170.5 254.5 Z M 196.5 254.5 L 196.5 249.5 L 191.5 249.5 L 191.5 254.5 Z M 210.5 254.5 L 210.5 249.5 L 205.5 249.5 L 205.5 254.5 Z M 217.5 254.5 L 217.5 249.5 L 212.5 249.5 L 212.5 254.5 Z M 224.5 254.5 L 224.5 249.5 L 219.5 249.5 L 219.5 254.5 Z M 231.5 254.5 L 231.5 249.5 L 226.5 249.5 L 226.5 254.5 Z M 238.5 254.5 L 238.5 249.5 L 233.5 249.5 L 233.5 254.5 Z M 266.5 254.5 L 266.5 249.5 L 261.5 249.5 L 261.5 254.5 Z M 14.5 261.5 L 14.5 256.5 L 9.5 256.5 L 9.5 261.5 Z M 21.5 261.5 L 21.5 256.5 L 16.5 256.5 L 16.5 261.5 Z M 42.5 261.5 L 42.5 256.5 L 37.5 256.5 L 37.5 261.5 Z M 49.5 261.5 L 49.5 256.5 L 44.5 256.5 L 44.5 261.5 Z M 63.5 261.5 L 63.5 256.5 L 58.5 256.5 L 58.5 261.5 Z M 70.5 261.5 L 70.5 256.5 L 65.5 256.5 L 65.5 261.5 Z M 77.5 261.5 L 77.5 256.5 L 72.5 256.5 L 72.5 261.5 Z M 98.5 261.5 L 98.5 256.5 L 93.5 256.5 L 93.5 261.5 Z M 105.5 261.5 L 105.5 256.5 L 100.5 256.5 L 100.5 261.5 Z M 119.5 261.5 L 119.5 256.5 L 114.5 256.5 L 114.5 261.5 Z M 126.5 261.5 L 126.5 256.5 L 121.5 256.5 L 121.5 261.5 Z M 133.5 261.5 L 133.5 256.5 L 128.5 256.5 L 128.5 261.5 Z M 140.5 261.5 L 140.5 256.5 L 135.5 256.5 L 135.5 261.5 Z M 147.5 261.5 L 147.5 256.5 L 142.5 256.5 L 142.5 261.5 Z M 175.5 261.5 L 175.5 256.5 L 170.5 256.5 L 170.5 261.5 Z M 189.5 261.5 L 189.5 256.5 L 184.5 256.5 L 184.5 261.5 Z M 196.5 261.5 L 196.5 256.5 L 191.5 256.5 L 191.5 261.5 Z M 203.5 261.5 L 203.5 256.5 L 198.5 256.5 L 198.5 261.5 Z M 210.5 261.5 L 210.5 256.5 L 205.5 256.5 L 205.5 261.5 Z M 238.5 261.5 L 238.5 256.5 L 233.5 256.5 L 233.5 261.5 Z M 259.5 261.5 L 259.5 256.5 L 254.5 256.5 L 254.5 261.5 Z M 266.5 261.5 L 266.5 256.5 L 261.5 256.5 L 261.5 261.5 Z M 287.5 261.5 L 287.5 256.5 L 282.5 256.5 L 282.5 261.5 Z M 21.5 268.5 L 21.5 263.5 L 16.5 263.5 L 16.5 268.5 Z M 35.5 268.5 L 35.5 263.5 L 30.5 263.5 L 30.5 268.5 Z M 42.5 268.5 L 42.5 263.5 L 37.5 263.5 L 37.5 268.5 Z M 49.5 268.5 L 49.5 263.5 L 44.5 263.5 L 44.5 268.5 Z M 56.5 268.5 L 56.5 263.5 L 51.5 263.5 L 51.5 268.5 Z M 63.5 268.5 L 63.5 263.5 L 58.5 263.5 L 58.5 268.5 Z M 77.5 268.5 L 77.5 263.5 L 72.5 263.5 L 72.5 268.5 Z M 91.5 268.5 L 91.5 263.5 L 86.5 263.5 L 86.5 268.5 Z M 98.5 268.5 L 98.5 263.5 L 93.5 263.5 L 93.5 268.5 Z M 105.5 268.5 L 105.5 263.5 L 100.5 263.5 L 100.5 268.5 Z M 112.5 268.5 L 112.5 263.5 L 107.5 263.5 L 107.5 268.5 Z M 119.5 268.5 L 119.5 263.5 L 114.5 263.5 L 114.5 268.5 Z M 147.5 268.5 L 147.5 263.5 L 142.5 263.5 L 142.5 268.5 Z M 168.5 268.5 L 168.5 263.5 L 163.5 263.5 L 163.5 268.5 Z M 175.5 268.5 L 175.5 263.5 L 170.5 263.5 L 170.5 268.5 Z M 182.5 268.5 L 182.5 263.5 L 177.5 263.5 L 177.5 268.5 Z M 189.5 268.5 L 189.5 263.5 L 184.5 263.5 L 184.5 268.5 Z M 210.5 268.5 L 210.5 263.5 L 205.5 263.5 L 205.5 268.5 Z M 231.5 268.5 L 231.5 263.5 L 226.5 263.5 L 226.5 268.5 Z M 238.5 268.5 L 238.5 263.5 L 233.5 263.5 L 233.5 268.5 Z M 252.5 268.5 L 252.5 263.5 L 247.5 263.5 L 247.5 268.5 Z M 259.5 268.5 L 259.5 263.5 L 254.5 263.5 L 254.5 268.5 Z M 266.5 268.5 L 266.5 263.5 L 261.5 263.5 L 261.5 268.5 Z M 280.5 268.5 L 280.5 263.5 L 275.5 263.5 L 275.5 268.5 Z M 287.5 268.5 L 287.5 263.5 L 282.5 263.5 L 282.5 268.5 Z M 14.5 275.5 L 14.5 270.5 L 9.5 270.5 L 9.5 275.5 Z M 21.5 275.5 L 21.5 270.5 L 16.5 270.5 L 16.5 275.5 Z M 28.5 275.5 L 28.5 270.5 L 23.5 270.5 L 23.5 275.5 Z M 35.5 275.5 L 35.5 270.5 L 30.5 270.5 L 30.5 275.5 Z M 63.5 275.5 L 63.5 270.5 L 58.5 270.5 L 58.5 275.5 Z M 70.5 275.5 L 70.5 270.5 L 65.5 270.5 L 65.5 275.5 Z M 77.5 275.5 L 77.5 270.5 L 72.5 270.5 L 72.5 275.5 Z M 84.5 275.5 L 84.5 270.5 L 79.5 270.5 L 79.5 275.5 Z M 91.5 275.5 L 91.5 270.5 L 86.5 270.5 L 86.5 275.5 Z M 119.5 275.5 L 119.5 270.5 L 114.5 270.5 L 114.5 275.5 Z M 140.5 275.5 L 140.5 270.5 L 135.5 270.5 L 135.5 275.5 Z M 147.5 275.5 L 147.5 270.5 L 142.5 270.5 L 142.5 275.5 Z M 161.5 275.5 L 161.5 270.5 L 156.5 270.5 L 156.5 275.5 Z M 168.5 275.5 L 168.5 270.5 L 163.5 270.5 L 163.5 275.5 Z M 189.5 275.5 L 189.5 270.5 L 184.5 270.5 L 184.5 275.5 Z M 203.5 275.5 L 203.5 270.5 L 198.5 270.5 L 198.5 275.5 Z M 210.5 275.5 L 210.5 270.5 L 205.5 270.5 L 205.5 275.5 Z M 224.5 275.5 L 224.5 270.5 L 219.5 270.5 L 219.5 275.5 Z M 231.5 275.5 L 231.5 270.5 L 226.5 270.5 L 226.5 275.5 Z M 238.5 275.5 L 238.5 270.5 L 233.5 270.5 L 233.5 275.5 Z M 245.5 275.5 L 245.5 270.5 L 240.5 270.5 L 240.5 275.5 Z M 252.5 275.5 L 252.5 270.5 L 247.5 270.5 L 247.5 275.5 Z M 266.5 275.5 L 266.5 270.5 L 261.5 270.5 L 261.5 275.5 Z M 273.5 275.5 L 273.5 270.5 L 268.5 270.5 L 268.5 275.5 Z M 280.5 275.5 L 280.5 270.5 L 275.5 270.5 L 275.5 275.5 Z M 287.5 275.5 L 287.5 270.5 L 282.5 270.5 L 282.5 275.5 Z M 35.5 282.5 L 35.5 277.5 L 30.5 277.5 L 30.5 282.5 Z M 56.5 282.5 L 56.5 277.5 L 51.5 277.5 L 51.5 282.5 Z M 63.5 282.5 L 63.5 277.5 L 58.5 277.5 L 58.5 282.5 Z M 91.5 282.5 L 91.5 277.5 L 86.5 277.5 L 86.5 282.5 Z M 112.5 282.5 L 112.5 277.5 L 107.5 277.5 L 107.5 282.5 Z M 119.5 282.5 L 119.5 277.5 L 114.5 277.5 L 114.5 282.5 Z M 133.5 282.5 L 133.5 277.5 L 128.5 277.5 L 128.5 282.5 Z M 140.5 282.5 L 140.5 277.5 L 135.5 277.5 L 135.5 282.5 Z M 147.5 282.5 L 147.5 277.5 L 142.5 277.5 L 142.5 282.5 Z M 154.5 282.5 L 154.5 277.5 L 149.5 277.5 L 149.5 282.5 Z M 161.5 282.5 L 161.5 277.5 L 156.5 277.5 L 156.5 282.5 Z M 168.5 282.5 L 168.5 277.5 L 163.5 277.5 L 163.5 282.5 Z M 182.5 282.5 L 182.5 277.5 L 177.5 277.5 L 177.5 282.5 Z M 189.5 282.5 L 189.5 277.5 L 184.5 277.5 L 184.5 282.5 Z M 196.5 282.5 L 196.5 277.5 L 191.5 277.5 L 191.5 282.5 Z M 203.5 282.5 L 203.5 277.5 L 198.5 277.5 L 198.5 282.5 Z M 210.5 282.5 L 210.5 277.5 L 205.5 277.5 L 205.5 282.5 Z M 217.5 282.5 L 217.5 277.5 L 212.5 277.5 L 212.5 282.5 Z M 224.5 282.5 L 224.5 277.5 L 219.5 277.5 L 219.5 282.5 Z M 252.5 282.5 L 252.5 277.5 L 247.5 277.5 L 247.5 282.5 Z M 259.5 282.5 L 259.5 277.5 L 254.5 277.5 L 254.5 282.5 Z M 266.5 282.5 L 266.5 277.5 L 261.5 277.5 L 261.5 282.5 Z M 28.5 289.5 L 28.5 284.5 L 23.5 284.5 L 23.5 289.5 Z M 35.5 289.5 L 35.5 284.5 L 30.5 284.5 L 30.5 289.5 Z M 49.5 289.5 L 49.5 284.5 L 44.5 284.5 L 44.5 289.5 Z M 56.5 289.5 L 56.5 284.5 L 51.5 284.5 L 51.5 289.5 Z M 63.5 289.5 L 63.5 284.5 L 58.5 284.5 L 58.5 289.5 Z M 84.5 289.5 L 84.5 284.5 L 79.5 284.5 L 79.5 289.5 Z M 91.5 289.5 L 91.5 284.5 L 86.5 284.5 L 86.5 289.5 Z M 105.5 289.5 L 105.5 284.5 L 100.5 284.5 L 100.5 289.5 Z M 112.5 289.5 L 112.5 284.5 L 107.5 284.5 L 107.5 289.5 Z M 119.5 289.5 L 119.5 284.5 L 114.5 284.5 L 114.5 289.5 Z M 126.5 289.5 L 126.5 284.5 L 121.5 284.5 L 121.5 289.5 Z M 133.5 289.5 L 133.5 284.5 L 128.5 284.5 L 128.5 289.5 Z M 168.5 289.5 L 168.5 284.5 L 163.5 284.5 L 163.5 289.5 Z M 175.5 289.5 L 175.5 284.5 L 170.5 284.5 L 170.5 289.5 Z M 182.5 289.5 L 182.5 284.5 L 177.5 284.5 L 177.5 289.5 Z M 224.5 289.5 L 224.5 284.5 L 219.5 284.5 L 219.5 289.5 Z M 245.5 289.5 L 245.5 284.5 L 240.5 284.5 L 240.5 289.5 Z M 252.5 289.5 L 252.5 284.5 L 247.5 284.5 L 247.5 289.5 Z M 266.5 289.5 L 266.5 284.5 L 261.5 284.5 L 261.5 289.5 Z M 266.5 289.5 "/>
</g>
</svg>
