<?xml version="1.0" encoding="UTF-8"?>
<svg xmlns="http://www.w3.org/2000/svg" xmlns:xlink="http://www.w3.org/1999/xlink" width="800" height="600" viewBox="0 0 800 600">
<path fill-rule="nonzero" fill="rgb(100%, 100%, 100%)" fill-opacity="1" d="M 220.800781 44 L 579.199219 44 C 621.617188 44 656 78.382812 656 120.800781 L 656 479.199219 C 656 521.617188 621.617188 556 579.199219 556 L 220.800781 556 C 178.382812 556 144 521.617188 144 479.199219 L 144 120.800781 C 144 78.382812 178.382812 44 220.800781 44 Z M 220.800781 44 "/>
<path fill-rule="nonzero" fill="rgb(21.960784%, 59.607846%, 14.901961%)" fill-opacity="1" d="M 483 181 C 483 226.839844 445.839844 264 400 264 C 354.160156 264 317 226.839844 317 181 C 317 135.160156 354.160156 98 400 98 C 445.839844 98 483 135.160156 483 181 Z M 483 181 "/>
<path fill-rule="nonzero" fill="rgb(79.607844%, 23.529412%, 20%)" fill-opacity="1" d="M 372 373 C 372 418.839844 334.839844 456 289 456 C 243.160156 456 206 418.839844 206 373 C 206 327.160156 243.160156 290 289 290 C 334.839844 290 372 327.160156 372 373 Z M 372 373 "/>
<path fill-rule="nonzero" fill="rgb(58.431375%, 34.509805%, 69.803923%)" fill-opacity="1" d="M 594 373 C 594 418.839844 556.839844 456 511 456 C 465.160156 456 428 418.839844 428 373 C 428 327.160156 465.160156 290 511 290 C 556.839844 290 594 327.160156 594 373 Z M 594 373 "/>
</svg>
