<?xml version="1.0" encoding="UTF-8"?>
<svg xmlns="http://www.w3.org/2000/svg" xmlns:xlink="http://www.w3.org/1999/xlink" width="1446" height="1622" viewBox="0 0 1446 1622">
<path fill-rule="nonzero" fill="rgb(0%, 0%, 0%)" fill-opacity="1" d="M 931.492188 1591.378906 C 835.253906 1519.324219 726.898438 1475.921875 611.664062 1447.503906 C 664.988281 1434.96875 717.90625 1436.59375 770.636719 1449.609375 C 823.273438 1462.601562 871.433594 1485.355469 915.457031 1517.121094 C 979.3125 1439.382812 1050.335938 1373.261719 1155.257812 1357.886719 C 1154.671875 1358.519531 1154.203125 1359.402344 1153.480469 1359.75 C 1103.5 1383.890625 1064.058594 1421.097656 1027.507812 1461.757812 C 992.804688 1500.367188 962.417969 1542.25 934.898438 1586.234375 C 933.945312 1587.761719 932.914062 1589.238281 931.492188 1591.378906 Z M 931.492188 1591.378906 "/>
<path fill-rule="nonzero" fill="rgb(0%, 0%, 0%)" fill-opacity="1" d="M 328.515625 770.6875 C 330.652344 759 332.597656 747.269531 334.960938 735.628906 C 344.851562 686.988281 365.296875 643.046875 392.609375 601.726562 C 408.464844 577.734375 420.097656 551.332031 422.109375 521.96875 C 424.664062 484.75 416.898438 450.902344 390.484375 422.4375 C 358.6875 388.164062 321.757812 360.417969 282.878906 335.066406 C 238.539062 306.15625 192.503906 280.171875 142.835938 261.550781 C 124.480469 254.667969 105.015625 250.46875 85.789062 246.273438 C 72.109375 243.285156 62.445312 249.988281 56.132812 262.40625 C 45.882812 282.5625 42.0625 304.253906 40.34375 326.394531 C 36.644531 374.164062 43.136719 420.953125 55.25 467.046875 C 81.652344 567.539062 131.085938 656.460938 192.742188 739.152344 C 204.210938 754.53125 216.210938 769.519531 226.96875 785.605469 C 218.078125 776.003906 208.953125 766.609375 200.332031 756.769531 C 121.921875 667.28125 66.660156 565.640625 39.894531 449.238281 C 29.277344 403.066406 24.152344 356.339844 29.164062 308.957031 C 31.394531 287.910156 35.707031 267.300781 45.753906 248.335938 C 46.847656 246.269531 47.980469 244.210938 49.246094 242.246094 C 61.566406 223.136719 71.019531 219.125 93.285156 223.863281 C 125.089844 230.632812 154.710938 243.472656 183.859375 257.359375 C 259.195312 293.253906 331.355469 334.625 398.976562 383.671875 C 407.183594 389.625 414.867188 396.292969 422.804688 402.613281 C 444.074219 419.554688 453.207031 442.191406 454.015625 468.804688 C 455.136719 505.59375 444.886719 539.785156 430.160156 572.902344 C 419.101562 597.769531 404.445312 620.351562 387.324219 641.570312 C 363.917969 670.578125 350.195312 704.621094 339.140625 739.816406 C 335.898438 750.144531 333.117188 760.617188 330.128906 771.023438 C 329.589844 770.910156 329.050781 770.796875 328.515625 770.6875 Z M 328.515625 770.6875 "/>
<path fill-rule="nonzero" fill="rgb(0%, 0%, 0%)" fill-opacity="1" d="M 810.6875 739.851562 C 787.535156 824.152344 751.289062 900.707031 681.558594 958.847656 C 710.394531 972.9375 740.425781 979.769531 771.746094 981.9375 C 771.910156 982.640625 772.078125 983.34375 772.242188 984.042969 C 763.367188 988.011719 754.664062 992.421875 745.589844 995.875 C 710.148438 1009.355469 673.15625 1016.691406 635.851562 1022.53125 C 577.945312 1031.59375 519.636719 1036.507812 461.097656 1038.878906 C 458.886719 1038.96875 456.667969 1038.890625 454.019531 1037.214844 C 461.167969 1033.871094 468.351562 1030.613281 475.453125 1027.171875 C 568.347656 982.132812 653.996094 926.628906 726.65625 852.511719 C 758.511719 820.019531 786.015625 784.210938 807.890625 744.203125 C 808.714844 742.695312 809.75 741.300781 810.6875 739.851562 Z M 810.6875 739.851562 "/>
<path fill-rule="nonzero" fill="rgb(0%, 0%, 0%)" fill-opacity="1" d="M 399.300781 754.53125 C 399.691406 693.503906 413.835938 636.503906 451.222656 586.984375 C 488.5625 537.53125 538.652344 507.195312 599.550781 490.6875 C 567.355469 457.632812 527.898438 448.472656 484.769531 447.96875 C 511.808594 432.253906 603.082031 429.738281 652.332031 442.023438 C 717.296875 458.222656 773.355469 493.980469 800.296875 522.117188 C 741.667969 487.894531 679.128906 464.929688 611.429688 456.140625 C 632.632812 470.878906 652.394531 486.871094 667.800781 508.472656 C 652.78125 514.839844 638.304688 520.550781 624.191406 527.039062 C 566.277344 553.652344 512.84375 586.980469 468.441406 633.339844 C 436.058594 667.148438 411.570312 705.644531 400.582031 751.796875 C 400.355469 752.753906 399.734375 753.621094 399.300781 754.53125 Z M 399.300781 754.53125 "/>
<path fill-rule="nonzero" fill="rgb(0%, 0%, 0%)" fill-opacity="1" d="M 794.597656 692.085938 C 790.785156 697.753906 787.296875 703.132812 783.621094 708.375 C 749.117188 757.542969 711.5625 804.046875 664.921875 842.4375 C 638.414062 864.257812 609.847656 882.628906 576.460938 892.351562 C 562.652344 896.371094 548.667969 898.285156 534.046875 895.695312 C 589.328125 877.328125 631.164062 842.746094 662.488281 790.980469 C 652.929688 791.550781 645.273438 791.265625 637.898438 792.578125 C 605.09375 798.425781 578.144531 816.097656 552.578125 836.164062 C 523.175781 859.246094 497.34375 886.007812 473.292969 914.539062 C 471.640625 916.5 469.953125 918.433594 466.757812 919.742188 C 469.132812 912.671875 471.144531 905.453125 473.949219 898.554688 C 496.957031 841.941406 535.890625 798.492188 586.027344 764.671875 C 643.875 725.644531 708.652344 704.820312 776.894531 693.476562 C 781.765625 692.667969 786.65625 691.953125 791.550781 691.285156 C 792.21875 691.191406 792.960938 691.636719 794.597656 692.085938 Z M 794.597656 692.085938 "/>
<path fill-rule="nonzero" fill="rgb(0%, 0%, 0%)" fill-opacity="1" d="M 514.675781 1278.867188 C 532.308594 1277.902344 549.96875 1277.332031 567.5625 1275.898438 C 616.371094 1271.921875 665.085938 1266.8125 711.828125 1251.179688 C 726.015625 1246.433594 739.410156 1239.183594 752.867188 1232.480469 C 757.597656 1230.125 761.4375 1225.96875 767.640625 1221.097656 C 761.152344 1218.105469 756.605469 1214.722656 751.648438 1213.941406 C 731.652344 1210.789062 711.578125 1206.792969 691.433594 1206.140625 C 652.96875 1204.902344 614.441406 1205.738281 575.9375 1205.710938 C 572.929688 1205.710938 569.921875 1205.710938 566.914062 1205.710938 C 566.722656 1205.003906 566.527344 1204.296875 566.335938 1203.589844 C 577.296875 1199.347656 588.101562 1194.621094 599.25 1190.941406 C 637.992188 1178.152344 678.128906 1174.550781 718.601562 1174.261719 C 766.746094 1173.914062 814.898438 1174.375 863.046875 1174.144531 C 876.765625 1174.082031 890.476562 1172.820312 905.972656 1173.78125 C 899.410156 1183.226562 893.558594 1193.269531 886.160156 1202.007812 C 862.589844 1229.851562 831.636719 1246.613281 797.808594 1258.550781 C 750.484375 1275.246094 701.355469 1281.738281 651.492188 1284.160156 C 606.679688 1286.332031 561.996094 1284.722656 517.363281 1280.613281 C 516.347656 1280.519531 515.34375 1280.277344 514.335938 1280.105469 C 514.449219 1279.691406 514.5625 1279.277344 514.675781 1278.867188 Z M 514.675781 1278.867188 "/>
<path fill-rule="nonzero" fill="rgb(0%, 0%, 0%)" fill-opacity="1" d="M 427.089844 1231.457031 C 430.136719 1236.703125 432.878906 1242.152344 436.277344 1247.15625 C 460.644531 1283.039062 494.28125 1307.882812 532.59375 1326.839844 C 586.550781 1353.535156 644.273438 1366.632812 703.863281 1370.820312 C 745.3125 1373.734375 786.964844 1373.753906 828.769531 1374.128906 C 822.199219 1375.207031 815.632812 1376.328125 809.054688 1377.347656 C 802.113281 1378.425781 795.179688 1379.566406 788.207031 1380.398438 C 734.113281 1386.871094 679.945312 1390.707031 625.476562 1385.351562 C 572.09375 1380.101562 520.605469 1368.414062 474.640625 1339.300781 C 418.425781 1303.691406 386.160156 1252.632812 378.339844 1186.386719 C 377.765625 1181.523438 377.738281 1176.597656 377.328125 1169.480469 C 408.773438 1191.890625 441.902344 1206.90625 476.832031 1217.964844 C 511.683594 1229 547.535156 1235.140625 584.476562 1238.5 C 574.742188 1243.929688 537.546875 1246.890625 506.035156 1245.128906 C 479.480469 1243.640625 453.625 1238.398438 427.089844 1231.457031 Z M 427.089844 1231.457031 "/>
<path fill-rule="nonzero" fill="rgb(0%, 0%, 0%)" fill-opacity="1" d="M 1386.617188 1029.699219 C 1402.890625 1124.070312 1364.558594 1196.050781 1294.820312 1255.488281 C 1341.5625 1244.371094 1380.820312 1219.453125 1418.769531 1190.1875 C 1416.265625 1194.699219 1414.019531 1199.382812 1411.207031 1203.699219 C 1392.957031 1231.738281 1366.246094 1249.582031 1337.027344 1264.027344 C 1280.4375 1292.007812 1219.710938 1306.171875 1157.894531 1316.253906 C 1135.566406 1319.894531 1113.050781 1322.363281 1090.613281 1325.316406 C 1088.082031 1325.648438 1085.507812 1325.652344 1082.53125 1324.484375 C 1085.546875 1323.304688 1088.546875 1322.074219 1091.585938 1320.941406 C 1164.28125 1293.851562 1230.714844 1256.316406 1287.210938 1202.558594 C 1330.394531 1161.464844 1362.777344 1113.378906 1379.789062 1055.71875 C 1382.324219 1047.121094 1384.355469 1038.375 1386.617188 1029.699219 Z M 1386.617188 1029.699219 "/>
<path fill-rule="nonzero" fill="rgb(0%, 0%, 0%)" fill-opacity="1" d="M 551.847656 646.035156 C 548.445312 656.363281 544.507812 666.550781 541.757812 677.046875 C 537.195312 694.472656 537.777344 694.691406 555.300781 694.855469 C 600.839844 695.292969 646.375 695.917969 691.910156 696.484375 C 693.582031 696.507812 695.25 696.691406 697.132812 698.148438 C 687.074219 701.21875 676.96875 704.136719 666.964844 707.386719 C 609.433594 726.058594 555.027344 751.03125 506.636719 787.867188 C 467.445312 817.699219 435.613281 853.453125 417.808594 900.246094 C 417.546875 900.925781 416.867188 901.449219 414.800781 903.996094 C 417.28125 893.203125 419.128906 884.597656 421.242188 876.054688 C 434.566406 822.128906 450.808594 769.234375 477.75 720.269531 C 491.382812 695.492188 507.183594 672.289062 530.480469 655.394531 C 536.625 650.9375 543.730469 647.808594 550.394531 644.066406 C 550.878906 644.722656 551.363281 645.378906 551.847656 646.035156 Z M 551.847656 646.035156 "/>
<path fill-rule="nonzero" fill="rgb(0%, 0%, 0%)" fill-opacity="1" d="M 1019.652344 1187.015625 C 1023.574219 1217.539062 1024.976562 1247.785156 1021.902344 1278.160156 C 1018.933594 1307.484375 1012.632812 1335.816406 995.980469 1360.683594 C 973.332031 1394.515625 940.734375 1407.226562 900.992188 1403.722656 C 899.808594 1403.621094 898.671875 1403.007812 895.890625 1402.109375 C 928.257812 1388.179688 950.542969 1365.917969 964.039062 1335.0625 C 972.976562 1314.632812 977.425781 1293.242188 977.691406 1269.308594 C 923.957031 1305.007812 864.898438 1312.242188 803.957031 1311.199219 C 803.765625 1310.566406 803.570312 1309.929688 803.378906 1309.296875 C 809.726562 1307.167969 816.074219 1305.042969 822.421875 1302.914062 C 829.078125 1300.679688 835.777344 1298.570312 842.378906 1296.183594 C 887.480469 1279.898438 931.707031 1261.738281 971.632812 1234.613281 C 990.472656 1221.8125 1007.492188 1207.105469 1019.652344 1187.015625 Z M 1019.652344 1187.015625 "/>
<path fill-rule="nonzero" fill="rgb(0%, 0%, 0%)" fill-opacity="1" d="M 302.589844 1012.644531 C 348.9375 937.203125 378.101562 854.878906 410.234375 773.742188 C 400.640625 840.527344 393.921875 907.839844 369.390625 972.5 C 372.652344 972.726562 376.363281 973.183594 380.074219 973.210938 C 414.855469 973.4375 448.246094 965.417969 480.949219 954.753906 C 506.625 946.378906 531.742188 936.28125 557.105469 926.953125 C 559.261719 926.160156 561.421875 925.390625 563.925781 924.484375 C 538.699219 976.148438 387.515625 1027.21875 302.589844 1012.644531 Z M 302.589844 1012.644531 "/>
<path fill-rule="nonzero" fill="rgb(0%, 0%, 0%)" fill-opacity="1" d="M 1340.089844 1082.210938 C 1332.421875 1082.5625 1324.757812 1083.183594 1317.085938 1083.21875 C 1288.472656 1083.347656 1259.796875 1082.117188 1231.25 1083.558594 C 1184.878906 1085.898438 1141.882812 1099.824219 1103.132812 1125.917969 C 1101.925781 1126.730469 1100.5625 1127.316406 1099.273438 1128.007812 C 1098.761719 1127.480469 1098.253906 1126.953125 1097.742188 1126.425781 C 1108.929688 1114.019531 1119.796875 1101.300781 1131.382812 1089.28125 C 1150.285156 1069.667969 1171.863281 1053.082031 1195.476562 1039.796875 C 1242.792969 1013.175781 1269.878906 972.207031 1283.585938 921.007812 C 1287.945312 904.738281 1292.207031 888.441406 1297.066406 870.0625 C 1309.074219 905.332031 1312.265625 938.847656 1301.417969 972.910156 C 1290.59375 1006.890625 1268.628906 1032.484375 1237.835938 1053.804688 C 1268.953125 1053.730469 1297.34375 1055.90625 1323.570312 1069.0625 C 1329.523438 1072.046875 1335.023438 1075.933594 1340.730469 1079.40625 C 1340.519531 1080.339844 1340.304688 1081.277344 1340.089844 1082.210938 Z M 1340.089844 1082.210938 "/>
<path fill-rule="nonzero" fill="rgb(0%, 0%, 0%)" fill-opacity="1" d="M 748.652344 1094.691406 C 732.4375 1106.652344 714.304688 1114.371094 695.644531 1120.84375 C 643.226562 1139.019531 588.847656 1147.808594 533.949219 1153.910156 C 516.140625 1155.890625 498.28125 1157.429688 480.175781 1158.269531 C 509.875 1145.390625 541.109375 1136.039062 567.757812 1117.523438 C 531.699219 1110.78125 495.867188 1105.121094 460.550781 1097.183594 C 425.238281 1089.242188 391.417969 1076.6875 361.175781 1055.851562 C 424.21875 1072.804688 488.539062 1081.796875 553.390625 1085.988281 C 618.160156 1090.179688 683.09375 1091.875 748.652344 1094.691406 Z M 748.652344 1094.691406 "/>
<path fill-rule="nonzero" fill="rgb(0%, 0%, 0%)" fill-opacity="1" d="M 900.140625 464.417969 C 849.921875 439.484375 800.433594 417.585938 744.265625 418.503906 C 778.265625 441.871094 811.847656 464.949219 845.425781 488.023438 C 844.929688 488.792969 844.433594 489.558594 843.9375 490.324219 C 807.757812 473.375 771.78125 455.972656 735.339844 439.605469 C 698.558594 423.082031 661.113281 408.148438 621.28125 397.484375 C 629.683594 395.507812 637.996094 392.921875 646.5 391.660156 C 687.351562 385.59375 727.726562 390.546875 767.285156 400.207031 C 802.855469 408.894531 837.71875 420.457031 872.890625 430.753906 C 874.601562 431.253906 876.308594 431.742188 879.925781 432.792969 C 879.925781 401.933594 879.925781 372.003906 879.925781 341.199219 C 893.8125 342.835938 903.914062 348.453125 913.257812 355.507812 C 929.390625 367.683594 940.699219 383.847656 949.984375 401.511719 C 962.03125 424.417969 970.140625 448.734375 975.132812 474.269531 C 953.300781 440.695312 933.289062 405.761719 900.140625 378.863281 C 900.140625 408.128906 900.140625 435.480469 900.140625 464.417969 Z M 900.140625 464.417969 "/>
<path fill-rule="nonzero" fill="rgb(0%, 0%, 0%)" fill-opacity="1" d="M 1128.3125 1239.160156 C 1157.429688 1226.507812 1187.667969 1220.09375 1219.386719 1219.214844 C 1172.785156 1252.566406 1120.378906 1274.40625 1066.96875 1297.40625 C 1066.472656 1279.550781 1069.121094 1263.796875 1073.726562 1248.414062 C 1088.476562 1199.121094 1120.464844 1165.179688 1167.347656 1145.027344 C 1211.136719 1126.203125 1257.304688 1122.738281 1304.480469 1125.023438 C 1231.976562 1141.859375 1170.042969 1174.835938 1128.3125 1239.160156 Z M 1128.3125 1239.160156 "/>
<path fill-rule="nonzero" fill="rgb(0%, 0%, 0%)" fill-opacity="1" d="M 808.84375 272.542969 C 817.519531 277.429688 825.183594 282.378906 833.367188 286.21875 C 846.992188 292.613281 852.246094 290.054688 857.511719 276.144531 C 880.925781 214.296875 906.132812 153.222656 940 96.21875 C 949.386719 80.414062 960.542969 65.546875 972.015625 51.144531 C 977.546875 44.207031 985.507812 39.109375 992.703125 33.617188 C 999.046875 28.773438 1005.007812 30.09375 1010.78125 35.511719 C 1024.246094 48.136719 1032.359375 64.074219 1039.183594 80.757812 C 1055.328125 120.222656 1065.410156 161.46875 1071.804688 203.410156 C 1080.3125 259.183594 1086.957031 315.242188 1094.351562 371.1875 C 1094.78125 374.429688 1094.734375 377.734375 1093.460938 381.179688 C 1089.671875 359.761719 1086.097656 338.304688 1082.050781 316.9375 C 1070.101562 253.800781 1057.996094 190.660156 1038.527344 129.3125 C 1032.503906 110.332031 1024.769531 91.675781 1015.730469 73.933594 C 1006.585938 55.988281 998.105469 55.296875 982.867188 68.585938 C 962.765625 86.109375 950.59375 109.203125 939.300781 132.683594 C 915.1875 182.796875 898.539062 235.621094 883.617188 289.035156 C 880.832031 299.007812 878.21875 309.03125 875.570312 318.871094 C 851.675781 319.570312 818.457031 296.609375 808.84375 272.542969 Z M 808.84375 272.542969 "/>
<path fill-rule="nonzero" fill="rgb(0%, 0%, 0%)" fill-opacity="1" d="M 302.910156 1235.625 C 306.375 1244.015625 308.695312 1251.132812 312.121094 1257.667969 C 325.4375 1283.070312 345.757812 1302.496094 367.351562 1320.652344 C 398.335938 1346.699219 432.292969 1368.414062 467.429688 1388.355469 C 469.371094 1389.453125 471.234375 1390.683594 473.132812 1391.851562 C 473.039062 1392.636719 472.945312 1393.421875 472.851562 1394.207031 C 464.171875 1394.207031 455.496094 1394.210938 446.816406 1394.207031 C 398.992188 1394.171875 351.667969 1390.066406 305.628906 1376.226562 C 276.191406 1367.378906 248.683594 1354.742188 225.835938 1333.511719 C 224.691406 1332.449219 223.578125 1331.355469 222.535156 1330.203125 C 222.226562 1329.859375 222.191406 1329.269531 221.539062 1327.328125 C 260.066406 1341.234375 299.089844 1347.691406 341.132812 1349.367188 C 307.042969 1317.960938 287.035156 1283.472656 302.910156 1235.625 Z M 302.910156 1235.625 "/>
<path fill-rule="nonzero" fill="rgb(0%, 0%, 0%)" fill-opacity="1" d="M 1151.644531 640.367188 C 1220.761719 652.960938 1303.257812 755.945312 1295.457031 820.878906 C 1288.507812 799.300781 1278.804688 781.128906 1265.507812 764.980469 C 1263.890625 763.015625 1262.097656 761.195312 1259.53125 759.445312 C 1268.882812 793.183594 1264.617188 825.21875 1248.875 855.796875 C 1233.433594 885.792969 1210.265625 908.960938 1182.1875 928.035156 C 1183.734375 925.613281 1185.230469 923.160156 1186.839844 920.78125 C 1215.851562 878 1231.152344 831.546875 1224.167969 779.332031 C 1218.421875 736.371094 1199.777344 699.039062 1173.191406 665.375 C 1166.617188 657.054688 1159.351562 649.277344 1151.644531 640.367188 Z M 1151.644531 640.367188 "/>
<path fill-rule="nonzero" fill="rgb(0%, 0%, 0%)" fill-opacity="1" d="M 1270.59375 708.484375 C 1233.488281 665.117188 1192.554688 628.003906 1135.269531 610.792969 C 1138.101562 608.171875 1140.585938 606.160156 1142.734375 603.84375 C 1154.921875 590.722656 1167.085938 577.582031 1179.128906 564.332031 C 1184.695312 558.214844 1185.203125 551.402344 1182.890625 543.375 C 1171.558594 504.082031 1150.972656 470.152344 1124.132812 439.707031 C 1122.757812 438.148438 1121.375 436.59375 1120.074219 434.976562 C 1119.828125 434.671875 1119.953125 434.074219 1119.753906 432.105469 C 1182.753906 472.878906 1227.5625 525.425781 1243.273438 600.300781 C 1230.320312 604.777344 1217.902344 609.066406 1203.808594 613.933594 C 1231.382812 633.207031 1250.128906 657.648438 1262.703125 686.851562 C 1265.734375 693.890625 1267.984375 701.265625 1270.59375 708.484375 Z M 1270.59375 708.484375 "/>
<path fill-rule="nonzero" fill="rgb(0%, 0%, 0%)" fill-opacity="1" d="M 843.675781 663.992188 C 831.375 661.066406 819.066406 658.144531 806.765625 655.210938 C 806.261719 655.089844 805.777344 654.882812 805.289062 654.707031 C 795.328125 651.121094 786.675781 651.863281 776.691406 657.386719 C 743.460938 675.769531 707.714844 685.050781 669.375 680.953125 C 634.074219 677.183594 604.40625 661.527344 579.320312 636.863281 C 577.648438 635.214844 576.539062 630.953125 577.46875 629 C 597.714844 586.367188 627.28125 554.152344 676.578125 547.5625 C 715.816406 542.320312 750.109375 554.25 777.828125 583.210938 C 779.972656 585.453125 782.316406 587.839844 783.496094 590.617188 C 792.339844 611.386719 809.597656 625.289062 824.359375 641.21875 C 831.003906 648.386719 837.878906 655.34375 844.648438 662.394531 C 844.324219 662.925781 844 663.457031 843.675781 663.992188 Z M 696.160156 673.085938 C 701.519531 672.578125 709.617188 672.3125 717.53125 670.957031 C 734.523438 668.054688 750.519531 662.535156 761.253906 647.960938 C 767.121094 639.996094 772.746094 630.917969 768.355469 620.601562 C 764.636719 611.867188 760.25 602.84375 754.027344 595.847656 C 728.605469 567.265625 696.097656 561.003906 660.191406 569.382812 C 633.304688 575.660156 612.25 590.328125 600.308594 616.085938 C 591.433594 635.234375 593.839844 643.039062 612.417969 653.511719 C 637.523438 667.671875 665.066406 672.1875 696.160156 673.085938 Z M 696.160156 673.085938 "/>
<path fill-rule="nonzero" fill="rgb(0%, 0%, 0%)" fill-opacity="1" d="M 298.496094 1035.402344 C 343.273438 1086.914062 390.511719 1131.953125 465.75 1133.929688 C 455.160156 1140.234375 445.410156 1142.300781 435.5625 1143.277344 C 400.71875 1146.730469 367.265625 1139.171875 334.09375 1129.753906 C 330.90625 1128.847656 327.71875 1127.949219 322.957031 1126.601562 C 324.195312 1164.460938 330.972656 1199.214844 355.097656 1230.714844 C 339.847656 1226.371094 329.332031 1218.472656 320.796875 1207.714844 C 306.769531 1190.035156 300.527344 1169.121094 296.988281 1147.386719 C 291.207031 1111.898438 292.742188 1076.320312 297.136719 1040.796875 C 297.320312 1039.296875 297.871094 1037.839844 298.496094 1035.402344 Z M 298.496094 1035.402344 "/>
<path fill-rule="nonzero" fill="rgb(0%, 0%, 0%)" fill-opacity="1" d="M 259.023438 1181.414062 C 230.761719 1116.277344 238.324219 1050.019531 253.898438 981.859375 C 237.878906 990.742188 226.320312 1002.59375 214.769531 1014.710938 C 216.230469 1000.136719 222.875 987.898438 230.6875 976.261719 C 251.972656 944.5625 279.957031 919.292969 309.140625 895.226562 C 316.238281 889.375 323.601562 883.855469 332.039062 879.335938 C 325.15625 894.34375 318.007812 909.238281 311.441406 924.382812 C 287.347656 979.96875 268.066406 1037.039062 259.824219 1097.335938 C 256.003906 1125.292969 255.671875 1153.339844 259.023438 1181.414062 Z M 259.023438 1181.414062 "/>
<path fill-rule="nonzero" fill="rgb(0%, 0%, 0%)" fill-opacity="1" d="M 840.3125 328.632812 C 837.886719 346.140625 835.625 362.492188 833.265625 379.511719 C 742.867188 359.710938 653.480469 354.746094 565.253906 387.445312 C 648.960938 332.355469 741.832031 320.617188 840.3125 328.632812 Z M 840.3125 328.632812 "/>
<path fill-rule="nonzero" fill="rgb(0%, 0%, 0%)" fill-opacity="1" d="M 1061.796875 601.679688 C 1065.230469 604.914062 1067.910156 606.71875 1069.554688 609.207031 C 1070.945312 611.304688 1072.476562 615.570312 1071.578125 616.449219 C 1069.699219 618.28125 1065.855469 619.8125 1063.542969 619.101562 C 1059.476562 617.855469 1055.371094 615.441406 1052.289062 612.46875 C 1021.417969 582.730469 1004.078125 545.957031 997.539062 503.773438 C 999.167969 508.320312 1000.589844 512.957031 1002.476562 517.394531 C 1004.609375 522.410156 1006.757812 527.503906 1009.644531 532.09375 C 1012.277344 536.28125 1015.914062 539.835938 1018.570312 543.027344 C 1023.675781 529.0625 1026.925781 515.214844 1033.527344 503.210938 C 1045.027344 482.292969 1063.515625 470.265625 1087.964844 469.457031 C 1113.429688 468.609375 1131.289062 484.984375 1132.464844 510.496094 C 1132.789062 517.476562 1134.316406 523.050781 1139.511719 527.699219 C 1141.226562 529.230469 1142.480469 531.3125 1143.8125 533.234375 C 1156.484375 551.519531 1153.558594 569.628906 1135.785156 583.121094 C 1117.085938 597.3125 1091 604.058594 1061.796875 601.679688 Z M 1133.773438 544.863281 C 1134.367188 514.234375 1115.902344 497.21875 1093.734375 493.203125 C 1067.265625 488.40625 1039.207031 509.574219 1033.65625 538.214844 C 1031.292969 550.386719 1030.25 562.976562 1037.046875 573.871094 C 1048.925781 592.902344 1075.488281 601.582031 1097.75 594.863281 C 1119.871094 588.183594 1133.824219 568.816406 1133.773438 544.863281 Z M 1133.773438 544.863281 "/>
<path fill-rule="nonzero" fill="rgb(0%, 0%, 0%)" fill-opacity="1" d="M 399.480469 505.160156 C 345.769531 511.816406 293.304688 518.320312 239.292969 525.015625 C 277.179688 507.785156 314.246094 492.609375 357.335938 487.441406 C 351.546875 480.722656 347.488281 474.777344 342.257812 470.164062 C 324.089844 454.132812 302.453125 443.714844 280.585938 433.917969 C 265.007812 426.941406 249.085938 420.730469 233.554688 412.796875 C 242.933594 414.039062 252.375 414.945312 261.683594 416.582031 C 293.585938 422.1875 324.851562 429.992188 353.304688 446.1875 C 374.441406 458.21875 392.03125 473.539062 398.238281 498.492188 C 398.851562 500.949219 399.171875 503.476562 399.480469 505.160156 Z M 399.480469 505.160156 "/>
<path fill-rule="nonzero" fill="rgb(0%, 0%, 0%)" fill-opacity="1" d="M 832.222656 1088.78125 C 861.519531 1091.0625 890.792969 1093.820312 920.125 1095.511719 C 959.625 1097.785156 999.140625 1099.453125 1038.671875 1095.09375 C 1058.882812 1092.863281 1074.324219 1083.828125 1086.183594 1067.351562 C 1106.4375 1039.210938 1120.550781 1007.957031 1133.53125 976.125 C 1141.167969 957.394531 1147.996094 938.332031 1156.363281 919.582031 C 1154.585938 929.5625 1153.109375 939.609375 1150.980469 949.515625 C 1142.242188 990.109375 1131.0625 1029.878906 1109.074219 1065.664062 C 1104.597656 1072.949219 1099.082031 1079.601562 1093.9375 1086.464844 C 1079 1106.390625 1057.210938 1110.300781 1034.394531 1111.996094 C 993.878906 1115 953.765625 1110.707031 913.824219 1104.875 C 888.355469 1101.15625 863.113281 1095.914062 837.773438 1091.320312 C 835.78125 1090.957031 833.839844 1090.3125 831.871094 1089.796875 C 831.988281 1089.457031 832.105469 1089.121094 832.222656 1088.78125 Z M 832.222656 1088.78125 "/>
<path fill-rule="nonzero" fill="rgb(0%, 0%, 0%)" fill-opacity="1" d="M 1112.492188 453.722656 C 1080.710938 429.0625 1048.691406 405.113281 1010.859375 387.265625 C 1019.058594 414.828125 1013.816406 439.523438 1004.125 464.011719 C 1000.074219 437.050781 993.761719 411.035156 978.636719 387.960938 C 963.355469 364.648438 942.414062 348.8125 915.832031 338.894531 C 918.660156 338.695312 921.484375 338.347656 924.3125 338.320312 C 963.785156 337.917969 998.742188 351.667969 1031.058594 373.046875 C 1062.6875 393.96875 1088.527344 420.957031 1111.011719 451.300781 C 1111.574219 452.058594 1112 452.914062 1112.492188 453.722656 Z M 1112.492188 453.722656 "/>
<path fill-rule="nonzero" fill="rgb(0%, 0%, 0%)" fill-opacity="1" d="M 841.910156 985.402344 C 861.058594 980.867188 879.246094 976.78125 897.316406 972.21875 C 916.445312 967.386719 932.613281 957.394531 946.476562 943.347656 C 973.335938 916.125 999.957031 888.640625 1027.578125 862.207031 C 1039.683594 850.621094 1054.074219 841.433594 1067.230469 830.910156 C 1069.171875 829.355469 1070.832031 826.554688 1071.214844 824.109375 C 1073.066406 812.3125 1074.4375 800.445312 1077.476562 788.121094 C 1080.867188 796.277344 1084.582031 804.320312 1087.550781 812.625 C 1090.179688 819.972656 1094.464844 825.304688 1100.710938 830.230469 C 1109.628906 837.265625 1117.109375 846.109375 1125.351562 854.027344 C 1135.402344 863.6875 1145.605469 873.191406 1156.101562 883.097656 C 1152.078125 882.105469 1146.886719 881.972656 1143.011719 879.644531 C 1133.472656 873.914062 1124.125 867.695312 1115.441406 860.742188 C 1091.5625 841.617188 1083.972656 839.628906 1059.652344 857.835938 C 1035.382812 876.003906 1013.382812 897.214844 990.636719 917.378906 C 980.128906 926.691406 969.878906 936.34375 960.105469 946.417969 C 934.050781 973.273438 901.523438 983.976562 865.140625 985.359375 C 857.710938 985.644531 850.261719 985.402344 841.910156 985.402344 Z M 841.910156 985.402344 "/>
<path fill-rule="nonzero" fill="rgb(0%, 0%, 0%)" fill-opacity="1" d="M 823.328125 515.554688 C 831.097656 519.355469 838.804688 522.839844 846.246094 526.828125 C 870.707031 539.941406 893.472656 555.347656 911.277344 577.058594 C 925.257812 594.109375 933.660156 613.253906 932.011719 635.871094 C 930.394531 658.070312 912.332031 673.71875 892.363281 670.253906 C 877.527344 667.675781 873.527344 659.980469 880.007812 646.503906 C 882.933594 640.417969 886.667969 634.574219 888.589844 628.1875 C 894.140625 609.753906 893.203125 591.480469 880.09375 576.589844 C 863.480469 557.71875 845.441406 540.101562 827.988281 521.964844 C 826.390625 520.308594 824.601562 518.835938 822.929688 517.25 C 822.839844 517.167969 823.023438 516.804688 823.328125 515.554688 Z M 823.328125 515.554688 "/>
<path fill-rule="nonzero" fill="rgb(0%, 0%, 0%)" fill-opacity="1" d="M 226.527344 937.324219 C 236.847656 905.671875 248.125 874.589844 265.023438 847.234375 C 252.519531 843.621094 239.902344 840.957031 228.082031 836.277344 C 216.058594 831.515625 205.886719 823.367188 197.253906 813.210938 C 246.519531 825.394531 295.257812 824.753906 344.105469 810.417969 C 296.519531 845.042969 257.980469 887.800781 226.527344 937.324219 Z M 226.527344 937.324219 "/>
<path fill-rule="nonzero" fill="rgb(0%, 0%, 0%)" fill-opacity="1" d="M 362.722656 566.949219 C 332.035156 564.902344 302.628906 562.9375 273.21875 560.972656 C 273.21875 560.257812 273.21875 559.539062 273.214844 558.824219 C 312.820312 543.542969 353.273438 536.753906 396.542969 547.410156 C 391.09375 566.765625 382.984375 583.761719 367.160156 596.074219 C 361.847656 600.207031 356.0625 603.835938 350.15625 607.082031 C 334.960938 615.441406 321.265625 625.527344 310.945312 639.8125 C 310.234375 639.398438 309.523438 638.988281 308.808594 638.578125 C 313.070312 629.847656 316.660156 620.699219 321.773438 612.5 C 326.972656 604.167969 333.242188 596.378906 339.839844 589.074219 C 346.589844 581.601562 354.308594 575.003906 362.722656 566.949219 Z M 362.722656 566.949219 "/>
<path fill-rule="nonzero" fill="rgb(0%, 0%, 0%)" fill-opacity="1" d="M 980.402344 222.460938 C 974.996094 228.777344 968.089844 236.515625 961.5625 244.558594 C 952.019531 256.316406 945.863281 269.554688 944.246094 284.84375 C 943.574219 291.175781 945.125 293.519531 952 294.949219 C 966.390625 297.941406 980.589844 302.214844 994.472656 307.085938 C 999.28125 308.773438 1002.925781 313.785156 1006.484375 318.34375 C 975.480469 308.828125 944.339844 308.265625 913.015625 312.351562 C 908.113281 274.261719 929.410156 227.699219 980.402344 222.460938 Z M 980.402344 222.460938 "/>
<path fill-rule="nonzero" fill="rgb(0%, 0%, 0%)" fill-opacity="1" d="M 1111.25 667.796875 C 1096.25 658.40625 1080.277344 656.328125 1064.160156 659.246094 C 1041.335938 663.375 1019.226562 670.351562 999.351562 682.84375 C 995.246094 685.421875 991.511719 688.894531 988.355469 692.597656 C 985.433594 696.027344 981.992188 700.226562 986.445312 704.957031 C 990.070312 708.808594 1000.019531 709.824219 1003.761719 706.976562 C 1005.414062 705.71875 1006.828125 704.136719 1008.546875 702.992188 C 1012.90625 700.097656 1018.058594 697.988281 1021.996094 702.429688 C 1024.945312 705.757812 1028.515625 711.710938 1027.332031 714.757812 C 1025.726562 718.902344 1020.082031 723.722656 1015.761719 724.152344 C 1002.625 725.464844 989.964844 721.921875 978.46875 715.203125 C 970.617188 710.613281 968.042969 705.171875 972.90625 697.671875 C 977.960938 689.882812 985.027344 682.972656 992.4375 677.269531 C 998.25 672.804688 1005.6875 669.972656 1012.828125 667.816406 C 1030.464844 662.480469 1048.222656 657.429688 1066.164062 653.253906 C 1081.515625 649.683594 1096.710938 651.253906 1110.835938 658.976562 C 1121.226562 664.660156 1122.300781 667.953125 1116.671875 678.242188 C 1112.9375 685.074219 1109.566406 692.4375 1104.378906 698.03125 C 1101.027344 701.644531 1094.648438 704.105469 1089.707031 703.972656 C 1086.703125 703.894531 1082.652344 698.34375 1081.207031 694.457031 C 1078.609375 687.484375 1083.371094 680.996094 1090.597656 682.277344 C 1102.589844 684.402344 1106.785156 677.214844 1111.25 667.796875 Z M 1111.25 667.796875 "/>
<path fill-rule="nonzero" fill="rgb(0%, 0%, 0%)" fill-opacity="1" d="M 587.699219 406.925781 C 563.691406 417.246094 539.269531 425.394531 512.949219 425.988281 C 500.503906 426.269531 488.585938 423.847656 477.964844 417.019531 C 459.519531 405.160156 452.703125 386.378906 448.058594 365.910156 C 487.242188 405.207031 536.648438 408.472656 587.699219 406.925781 Z M 587.699219 406.925781 "/>
<path fill-rule="nonzero" fill="rgb(0%, 0%, 0%)" fill-opacity="1" d="M 1059.097656 699.140625 C 1070.117188 717.175781 1071.832031 736.003906 1076.589844 753.78125 C 1077.578125 753.996094 1078.566406 754.214844 1079.550781 754.429688 C 1084.191406 745.199219 1088.832031 735.964844 1093.472656 726.730469 C 1090.578125 743.109375 1087.519531 759.414062 1078.191406 773.644531 C 1075.195312 778.214844 1070.953125 778.566406 1066.613281 775.886719 C 1052.773438 767.339844 1042.699219 754.945312 1033.160156 741.820312 C 1040.597656 746.328125 1047.90625 751.078125 1055.550781 755.210938 C 1058.285156 756.691406 1061.824219 756.683594 1064.996094 757.355469 C 1064.984375 754.148438 1065.367188 750.882812 1064.886719 747.746094 C 1062.894531 734.675781 1060.558594 721.660156 1058.554688 708.59375 C 1058.195312 706.238281 1058.796875 703.734375 1059.097656 699.140625 Z M 1059.097656 699.140625 "/>
<path fill-rule="nonzero" fill="rgb(0%, 0%, 0%)" fill-opacity="1" d="M 743.613281 292.457031 C 770.308594 280.933594 813.125 291.882812 835.558594 316.289062 C 803.523438 311.574219 774.300781 302.4375 743.613281 292.457031 Z M 743.613281 292.457031 "/>
<path fill-rule="nonzero" fill="rgb(0%, 0%, 0%)" fill-opacity="1" d="M 720.179688 627.230469 C 720.179688 644.445312 712.898438 654.992188 700.589844 658.019531 C 688.242188 661.058594 675.519531 654.832031 669.183594 641.910156 C 662.109375 627.480469 661.851562 612.75 669.832031 598.550781 C 677.53125 584.855469 691.054688 582.492188 703.175781 592.574219 C 714.691406 602.152344 719.546875 614.984375 720.179688 627.230469 Z M 720.179688 627.230469 "/>
<path fill-rule="nonzero" fill="rgb(0%, 0%, 0%)" fill-opacity="1" d="M 1101.34375 556.828125 C 1101.304688 567.804688 1097.289062 574.976562 1089.648438 577.71875 C 1079.894531 581.222656 1069.320312 578.636719 1063.132812 570.054688 C 1053.308594 556.433594 1051.347656 541.429688 1058.078125 525.847656 C 1061.835938 517.152344 1068.921875 514.59375 1078.011719 517.800781 C 1091.453125 522.542969 1101.410156 539.191406 1101.34375 556.828125 Z M 1101.34375 556.828125 "/>
</svg>
