<?xml version="1.0" encoding="utf-8"?>
<svg xmlns="http://www.w3.org/2000/svg" xmlns:xlink="http://www.w3.org/1999/xlink" width="600" height="400" viewBox="0 0 2400 1600">
<defs>
  <clipPath id="clip5900">
    <rect x="0" y="0" width="2400" height="1600"/>
  </clipPath>
</defs>
<polygon clip-path="url(#clip5900)" points="
0,1600 2400,1600 2400,0 0,0 
  " fill="#ffffff" fill-rule="evenodd" fill-opacity="1"/>
<defs>
  <clipPath id="clip5901">
    <rect x="480" y="0" width="1681" height="1600"/>
  </clipPath>
</defs>
<polygon clip-path="url(#clip5900)" points="
180.66,1487.47 2352.76,1487.47 2352.76,47.2441 180.66,47.2441 
  " fill="#ffffff" fill-rule="evenodd" fill-opacity="1"/>
<defs>
  <clipPath id="clip5902">
    <rect x="180" y="47" width="2173" height="1441"/>
  </clipPath>
</defs>
<polyline clip-path="url(#clip5902)" style="stroke:#000000; stroke-width:2; stroke-opacity:0.1; fill:none" points="
  242.135,1487.47 242.135,47.2441 
  "/>
<polyline clip-path="url(#clip5902)" style="stroke:#000000; stroke-width:2; stroke-opacity:0.1; fill:none" points="
  754.421,1487.47 754.421,47.2441 
  "/>
<polyline clip-path="url(#clip5902)" style="stroke:#000000; stroke-width:2; stroke-opacity:0.1; fill:none" points="
  1266.71,1487.47 1266.71,47.2441 
  "/>
<polyline clip-path="url(#clip5902)" style="stroke:#000000; stroke-width:2; stroke-opacity:0.1; fill:none" points="
  1778.99,1487.47 1778.99,47.2441 
  "/>
<polyline clip-path="url(#clip5902)" style="stroke:#000000; stroke-width:2; stroke-opacity:0.1; fill:none" points="
  2291.28,1487.47 2291.28,47.2441 
  "/>
<polyline clip-path="url(#clip5902)" style="stroke:#000000; stroke-width:2; stroke-opacity:0.1; fill:none" points="
  180.66,1264.31 2352.76,1264.31 
  "/>
<polyline clip-path="url(#clip5902)" style="stroke:#000000; stroke-width:2; stroke-opacity:0.1; fill:none" points="
  180.66,970.234 2352.76,970.234 
  "/>
<polyline clip-path="url(#clip5902)" style="stroke:#000000; stroke-width:2; stroke-opacity:0.1; fill:none" points="
  180.66,676.158 2352.76,676.158 
  "/>
<polyline clip-path="url(#clip5902)" style="stroke:#000000; stroke-width:2; stroke-opacity:0.1; fill:none" points="
  180.66,382.082 2352.76,382.082 
  "/>
<polyline clip-path="url(#clip5902)" style="stroke:#000000; stroke-width:2; stroke-opacity:0.1; fill:none" points="
  180.66,88.0053 2352.76,88.0053 
  "/>
<polyline clip-path="url(#clip5900)" style="stroke:#000000; stroke-width:4; stroke-opacity:1; fill:none" points="
  180.66,1487.47 2352.76,1487.47 
  "/>
<polyline clip-path="url(#clip5900)" style="stroke:#000000; stroke-width:4; stroke-opacity:1; fill:none" points="
  180.66,1487.47 180.66,47.2441 
  "/>
<polyline clip-path="url(#clip5900)" style="stroke:#000000; stroke-width:4; stroke-opacity:1; fill:none" points="
  242.135,1487.47 242.135,1465.87 
  "/>
<polyline clip-path="url(#clip5900)" style="stroke:#000000; stroke-width:4; stroke-opacity:1; fill:none" points="
  754.421,1487.47 754.421,1465.87 
  "/>
<polyline clip-path="url(#clip5900)" style="stroke:#000000; stroke-width:4; stroke-opacity:1; fill:none" points="
  1266.71,1487.47 1266.71,1465.87 
  "/>
<polyline clip-path="url(#clip5900)" style="stroke:#000000; stroke-width:4; stroke-opacity:1; fill:none" points="
  1778.99,1487.47 1778.99,1465.87 
  "/>
<polyline clip-path="url(#clip5900)" style="stroke:#000000; stroke-width:4; stroke-opacity:1; fill:none" points="
  2291.28,1487.47 2291.28,1465.87 
  "/>
<polyline clip-path="url(#clip5900)" style="stroke:#000000; stroke-width:4; stroke-opacity:1; fill:none" points="
  180.66,1264.31 213.242,1264.31 
  "/>
<polyline clip-path="url(#clip5900)" style="stroke:#000000; stroke-width:4; stroke-opacity:1; fill:none" points="
  180.66,970.234 213.242,970.234 
  "/>
<polyline clip-path="url(#clip5900)" style="stroke:#000000; stroke-width:4; stroke-opacity:1; fill:none" points="
  180.66,676.158 213.242,676.158 
  "/>
<polyline clip-path="url(#clip5900)" style="stroke:#000000; stroke-width:4; stroke-opacity:1; fill:none" points="
  180.66,382.082 213.242,382.082 
  "/>
<polyline clip-path="url(#clip5900)" style="stroke:#000000; stroke-width:4; stroke-opacity:1; fill:none" points="
  180.66,88.0053 213.242,88.0053 
  "/>
<g clip-path="url(#clip5900)">
<text style="fill:#000000; fill-opacity:1; font-family:Arial,Helvetica Neue,Helvetica,sans-serif; font-size:48px; text-anchor:middle;" transform="rotate(0, 242.135, 1541.47)" x="242.135" y="1541.47">0.00</text>
</g>
<g clip-path="url(#clip5900)">
<text style="fill:#000000; fill-opacity:1; font-family:Arial,Helvetica Neue,Helvetica,sans-serif; font-size:48px; text-anchor:middle;" transform="rotate(0, 754.421, 1541.47)" x="754.421" y="1541.47">0.25</text>
</g>
<g clip-path="url(#clip5900)">
<text style="fill:#000000; fill-opacity:1; font-family:Arial,Helvetica Neue,Helvetica,sans-serif; font-size:48px; text-anchor:middle;" transform="rotate(0, 1266.71, 1541.47)" x="1266.71" y="1541.47">0.50</text>
</g>
<g clip-path="url(#clip5900)">
<text style="fill:#000000; fill-opacity:1; font-family:Arial,Helvetica Neue,Helvetica,sans-serif; font-size:48px; text-anchor:middle;" transform="rotate(0, 1778.99, 1541.47)" x="1778.99" y="1541.47">0.75</text>
</g>
<g clip-path="url(#clip5900)">
<text style="fill:#000000; fill-opacity:1; font-family:Arial,Helvetica Neue,Helvetica,sans-serif; font-size:48px; text-anchor:middle;" transform="rotate(0, 2291.28, 1541.47)" x="2291.28" y="1541.47">1.00</text>
</g>
<g clip-path="url(#clip5900)">
<text style="fill:#000000; fill-opacity:1; font-family:Arial,Helvetica Neue,Helvetica,sans-serif; font-size:48px; text-anchor:end;" transform="rotate(0, 156.66, 1281.81)" x="156.66" y="1281.81">0.00</text>
</g>
<g clip-path="url(#clip5900)">
<text style="fill:#000000; fill-opacity:1; font-family:Arial,Helvetica Neue,Helvetica,sans-serif; font-size:48px; text-anchor:end;" transform="rotate(0, 156.66, 987.734)" x="156.66" y="987.734">0.25</text>
</g>
<g clip-path="url(#clip5900)">
<text style="fill:#000000; fill-opacity:1; font-family:Arial,Helvetica Neue,Helvetica,sans-serif; font-size:48px; text-anchor:end;" transform="rotate(0, 156.66, 693.658)" x="156.66" y="693.658">0.50</text>
</g>
<g clip-path="url(#clip5900)">
<text style="fill:#000000; fill-opacity:1; font-family:Arial,Helvetica Neue,Helvetica,sans-serif; font-size:48px; text-anchor:end;" transform="rotate(0, 156.66, 399.582)" x="156.66" y="399.582">0.75</text>
</g>
<g clip-path="url(#clip5900)">
<text style="fill:#000000; fill-opacity:1; font-family:Arial,Helvetica Neue,Helvetica,sans-serif; font-size:48px; text-anchor:end;" transform="rotate(0, 156.66, 105.505)" x="156.66" y="105.505">1.00</text>
</g>
<polyline clip-path="url(#clip5902)" style="stroke:#009af9; stroke-width:4; stroke-opacity:1; fill:none" points="
  242.135,1264.31 252.38,1247.15 262.626,1230.59 272.872,1214.64 283.118,1199.27 293.363,1184.49 303.609,1170.29 313.855,1156.65 324.101,1143.58 334.346,1131.06 
  344.592,1119.09 354.838,1107.65 365.084,1096.75 375.329,1086.37 385.575,1076.51 395.821,1067.16 406.066,1058.32 416.312,1049.96 426.558,1042.09 436.804,1034.71 
  447.049,1027.79 457.295,1021.34 467.541,1015.35 477.787,1009.8 488.032,1004.7 498.278,1000.03 508.524,995.792 518.77,991.972 529.015,988.564 539.261,985.56 
  549.507,982.954 559.752,980.738 569.998,978.905 580.244,977.446 590.49,976.354 600.735,975.623 610.981,975.244 621.227,975.21 631.473,975.514 641.718,976.148 
  651.964,977.104 662.21,978.375 672.456,979.954 682.701,981.834 692.947,984.006 703.193,986.463 713.438,989.198 723.684,992.203 733.93,995.472 744.176,998.995 
  754.421,1002.77 764.667,1006.78 774.913,1011.02 785.159,1015.49 795.404,1020.18 805.65,1025.08 815.896,1030.18 826.142,1035.48 836.387,1040.96 846.633,1046.63 
  856.879,1052.47 867.124,1058.47 877.37,1064.64 887.616,1070.95 897.862,1077.41 908.107,1084 918.353,1090.72 928.599,1097.56 938.845,1104.52 949.09,1111.58 
  959.336,1118.74 969.582,1125.99 979.828,1133.33 990.073,1140.74 1000.32,1148.22 1010.56,1155.76 1020.81,1163.35 1031.06,1170.99 1041.3,1178.67 1051.55,1186.38 
  1061.79,1194.11 1072.04,1201.86 1082.28,1209.62 1092.53,1217.38 1102.78,1225.13 1113.02,1232.87 1123.27,1240.59 1133.51,1248.28 1143.76,1255.93 1154.01,1263.54 
  1164.25,1271.1 1174.5,1278.6 1184.74,1286.03 1194.99,1293.4 1205.23,1300.68 1215.48,1307.87 1225.73,1314.96 1235.97,1321.96 1246.22,1328.84 1256.46,1335.6 
  1266.71,1342.24 1276.95,1348.75 1287.2,1355.11 1297.45,1361.33 1307.69,1367.39 1317.94,1373.28 1328.18,1379.01 1338.43,1384.56 1348.67,1389.92 1358.92,1395.09 
  1369.17,1400.06 1379.41,1404.82 1389.66,1409.37 1399.9,1413.69 1410.15,1417.78 1420.39,1421.64 1430.64,1425.25 1440.89,1428.61 1451.13,1431.7 1461.38,1434.53 
  1471.62,1437.09 1481.87,1439.36 1492.11,1441.34 1502.36,1443.02 1512.61,1444.4 1522.85,1445.47 1533.1,1446.21 1543.34,1446.63 1553.59,1446.71 1563.83,1446.45 
  1574.08,1445.85 1584.33,1444.88 1594.57,1443.55 1604.82,1441.84 1615.06,1439.76 1625.31,1437.29 1635.55,1434.42 1645.8,1431.16 1656.05,1427.48 1666.29,1423.38 
  1676.54,1418.87 1686.78,1413.91 1697.03,1408.52 1707.27,1402.68 1717.52,1396.39 1727.77,1389.64 1738.01,1382.41 1748.26,1374.71 1758.5,1366.53 1768.75,1357.85 
  1778.99,1348.67 1789.24,1338.99 1799.49,1328.79 1809.73,1318.07 1819.98,1306.82 1830.22,1295.04 1840.47,1282.71 1850.71,1269.83 1860.96,1256.39 1871.21,1242.38 
  1881.45,1227.8 1891.7,1212.64 1901.94,1196.88 1912.19,1180.53 1922.44,1163.58 1932.68,1146.02 1942.93,1127.84 1953.17,1109.03 1963.42,1089.58 1973.66,1069.5 
  1983.91,1048.77 1994.16,1027.38 2004.4,1005.32 2014.65,982.599 2024.89,959.195 2035.14,935.106 2045.38,910.323 2055.63,884.839 2065.88,858.646 2076.12,831.737 
  2086.37,804.105 2096.61,775.741 2106.86,746.639 2117.1,716.791 2127.35,686.19 2137.6,654.828 2147.84,622.697 2158.09,589.791 2168.33,556.101 2178.58,521.621 
  2188.82,486.342 2199.07,450.257 2209.32,413.36 2219.56,375.641 2229.81,337.095 2240.05,297.712 2250.3,257.487 2260.54,216.411 2270.79,174.477 2281.04,131.678 
  2291.28,88.0053 
  "/>
<polygon clip-path="url(#clip5900)" points="
1989.93,251.724 2280.76,251.724 2280.76,130.764 1989.93,130.764 
  " fill="#ffffff" fill-rule="evenodd" fill-opacity="1"/>
<polyline clip-path="url(#clip5900)" style="stroke:#000000; stroke-width:4; stroke-opacity:1; fill:none" points="
  1989.93,251.724 2280.76,251.724 2280.76,130.764 1989.93,130.764 1989.93,251.724 
  "/>
<polyline clip-path="url(#clip5900)" style="stroke:#009af9; stroke-width:4; stroke-opacity:1; fill:none" points="
  2013.93,191.244 2157.93,191.244 
  "/>
<g clip-path="url(#clip5900)">
<text style="fill:#000000; fill-opacity:1; font-family:Arial,Helvetica Neue,Helvetica,sans-serif; font-size:48px; text-anchor:start;" transform="rotate(0, 2181.93, 208.744)" x="2181.93" y="208.744">y1</text>
</g>
</svg>
