<?xml version="1.0" encoding="UTF-8"?>
<svg xmlns="http://www.w3.org/2000/svg" xmlns:xlink="http://www.w3.org/1999/xlink" width="800pt" height="600pt" viewBox="0 0 800 600" version="1.1">
<g id="surface5401">
<rect x="0" y="0" width="800" height="600" style="fill:rgb(20%,20%,20%);fill-opacity:1;stroke:none;"/>
<path style=" stroke:none;fill-rule:nonzero;fill:rgb(100%,100%,94.117647%);fill-opacity:0.8;" d="M 619.289062 417.015625 C 616.714844 420.90625 543.589844 501.6875 539.941406 506.578125 "/>
<path style=" stroke:none;fill-rule:nonzero;fill:rgb(100%,100%,94.117647%);fill-opacity:0.9;" d="M 539.941406 506.578125 C 542.757812 502.417969 616.730469 420.480469 619.289062 417.015625 "/>
<path style=" stroke:none;fill-rule:nonzero;fill:rgb(100%,100%,94.117647%);fill-opacity:0.5;" d="M 620.855469 418.960938 C 610.769531 427.546875 438.339844 544 429.625 550.960938 "/>
<path style=" stroke:none;fill-rule:nonzero;fill:rgb(100%,100%,94.117647%);fill-opacity:0.8;" d="M 429.625 550.960938 C 440.242188 541.921875 612.347656 426.175781 620.855469 418.960938 "/>
<path style=" stroke:none;fill-rule:nonzero;fill:rgb(100%,100%,94.117647%);fill-opacity:0.7;" d="M 619.847656 417.824219 C 619.847656 417.824219 619.851562 417.832031 619.851562 417.832031 "/>
<path style=" stroke:none;fill-rule:nonzero;fill:rgb(100%,100%,94.117647%);fill-opacity:0.3;" d="M 619.851562 417.832031 C 603.070312 426.527344 327.035156 527.574219 309.835938 535.402344 "/>
<path style=" stroke:none;fill-rule:nonzero;fill:rgb(100%,100%,94.117647%);fill-opacity:0.8;" d="M 309.835938 535.402344 C 309.835938 535.402344 309.832031 535.398438 309.832031 535.398438 "/>
<path style=" stroke:none;fill-rule:nonzero;fill:rgb(100%,100%,94.117647%);fill-opacity:0.7;" d="M 309.832031 535.394531 C 319.59375 530.453125 601.820312 426.238281 619.847656 417.820312 "/>
<path style=" stroke:none;fill-rule:nonzero;fill:rgb(100%,100%,94.117647%);fill-opacity:0.5;" d="M 622.117188 414.089844 C 606.460938 417.621094 231.753906 459.917969 213.625 463.691406 "/>
<path style=" stroke:none;fill-rule:nonzero;fill:rgb(100%,100%,94.117647%);fill-opacity:0.9;" d="M 213.625 463.675781 C 213.625 463.675781 213.621094 463.660156 213.621094 463.660156 "/>
<path style=" stroke:none;fill-rule:nonzero;fill:rgb(100%,100%,94.117647%);fill-opacity:0.8;" d="M 213.621094 463.660156 C 232.679688 458.46875 609.96875 416.277344 622.113281 414.058594 "/>
<path style=" stroke:none;fill-rule:nonzero;fill:rgb(100%,100%,94.117647%);fill-opacity:0.6;" d="M 622.113281 414.058594 C 622.113281 414.058594 622.117188 414.074219 622.117188 414.074219 "/>
<path style=" stroke:none;fill-rule:nonzero;fill:rgb(100%,100%,94.117647%);fill-opacity:0.8;" d="M 620.25 417.054688 C 620.25 417.054688 620.246094 417.089844 620.246094 417.09375 "/>
<path style=" stroke:none;fill-rule:nonzero;fill:rgb(100%,100%,94.117647%);fill-opacity:0.7;" d="M 620.246094 417.09375 C 599.214844 417.601562 170.167969 361.046875 156.144531 360.742188 "/>
<path style=" stroke:none;fill-rule:nonzero;fill:rgb(100%,100%,94.117647%);fill-opacity:0.7;" d="M 156.144531 360.742188 C 156.144531 360.738281 156.152344 360.703125 156.152344 360.699219 "/>
<path style=" stroke:none;fill-rule:nonzero;fill:rgb(100%,100%,94.117647%);fill-opacity:0.3;" d="M 156.152344 360.699219 C 156.152344 360.699219 156.15625 360.664062 156.15625 360.660156 "/>
<path style=" stroke:none;fill-rule:nonzero;fill:rgb(100%,100%,94.117647%);fill-opacity:0.7;" d="M 156.15625 360.660156 C 174.386719 361.023438 593.636719 415.777344 620.253906 417.011719 "/>
<path style=" stroke:none;fill-rule:nonzero;fill:rgb(100%,100%,94.117647%);fill-opacity:0.8;" d="M 620.253906 417.011719 C 620.253906 417.015625 620.25 417.050781 620.25 417.054688 "/>
<path style=" stroke:none;fill-rule:nonzero;fill:rgb(100%,100%,94.117647%);fill-opacity:0.6;" d="M 620.203125 413.601562 C 595.597656 407.660156 178.878906 244.582031 156.105469 237.59375 "/>
<path style=" stroke:none;fill-rule:nonzero;fill:rgb(100%,100%,94.117647%);fill-opacity:0.4;" d="M 156.105469 237.59375 C 170.644531 240.804688 598.882812 406.945312 620.203125 413.601562 "/>
<path style=" stroke:none;fill-rule:nonzero;fill:rgb(100%,100%,94.117647%);fill-opacity:0.5;" d="M 620.542969 415.613281 C 620.539062 415.613281 620.53125 415.628906 620.53125 415.628906 "/>
<path style=" stroke:none;fill-rule:nonzero;fill:rgb(100%,100%,94.117647%);fill-opacity:0.8;" d="M 620.53125 415.628906 C 595.105469 403.21875 232.832031 145.300781 212.039062 133.667969 "/>
<path style=" stroke:none;fill-rule:nonzero;fill:rgb(100%,100%,94.117647%);fill-opacity:0.6;" d="M 212.039062 133.667969 C 212.039062 133.667969 212.046875 133.652344 212.050781 133.652344 "/>
<path style=" stroke:none;fill-rule:nonzero;fill:rgb(100%,100%,94.117647%);fill-opacity:0.9;" d="M 212.050781 133.652344 C 212.050781 133.648438 212.058594 133.636719 212.0625 133.632812 "/>
<path style=" stroke:none;fill-rule:nonzero;fill:rgb(100%,100%,94.117647%);fill-opacity:0.9;" d="M 212.0625 133.632812 C 237.484375 146.046875 594.492188 401.183594 620.550781 415.597656 "/>
<path style=" stroke:none;fill-rule:nonzero;fill:rgb(100%,100%,94.117647%);fill-opacity:0.8;" d="M 620.550781 415.597656 C 620.550781 415.597656 620.542969 415.613281 620.542969 415.613281 "/>
<path style=" stroke:none;fill-rule:nonzero;fill:rgb(100%,100%,94.117647%);fill-opacity:0.5;" d="M 621.535156 413.359375 C 604.003906 397.195312 328.855469 79.789062 311.519531 63.421875 "/>
<path style=" stroke:none;fill-rule:nonzero;fill:rgb(100%,100%,94.117647%);fill-opacity:0.3;" d="M 311.519531 63.421875 C 323.3125 73.371094 609.351562 401.746094 621.535156 413.359375 "/>
<path style=" stroke:none;fill-rule:nonzero;fill:rgb(100%,100%,94.117647%);fill-opacity:0.6;" d="M 620.941406 417.53125 C 609.109375 400.199219 438.074219 66.871094 429.714844 53.171875 "/>
<path style=" stroke:none;fill-rule:nonzero;fill:rgb(100%,100%,94.117647%);fill-opacity:0.5;" d="M 429.714844 53.171875 C 437.589844 64.234375 608.332031 397.753906 620.941406 417.53125 "/>
<path style=" stroke:none;fill-rule:nonzero;fill:rgb(100%,100%,94.117647%);fill-opacity:0.4;" d="M 619.660156 417.628906 C 619.660156 417.632812 619.617188 417.640625 619.613281 417.640625 "/>
<path style=" stroke:none;fill-rule:nonzero;fill:rgb(100%,100%,94.117647%);fill-opacity:0.3;" d="M 619.613281 417.640625 C 615.273438 406.523438 546.164062 112.621094 540.265625 95.714844 "/>
<path style=" stroke:none;fill-rule:nonzero;fill:rgb(100%,100%,94.117647%);fill-opacity:0.7;" d="M 540.265625 95.714844 C 540.265625 95.714844 540.3125 95.703125 540.3125 95.703125 "/>
<path style=" stroke:none;fill-rule:nonzero;fill:rgb(100%,100%,94.117647%);fill-opacity:0.5;" d="M 540.3125 95.703125 C 540.316406 95.703125 540.359375 95.691406 540.363281 95.691406 "/>
<path style=" stroke:none;fill-rule:nonzero;fill:rgb(100%,100%,94.117647%);fill-opacity:0.3;" d="M 540.363281 95.691406 C 546.074219 110.546875 615.121094 404.46875 619.710938 417.617188 "/>
<path style=" stroke:none;fill-rule:nonzero;fill:rgb(100%,100%,94.117647%);fill-opacity:0.8;" d="M 619.710938 417.617188 C 619.707031 417.621094 619.664062 417.628906 619.660156 417.628906 "/>
<path style=" stroke:none;fill-rule:nonzero;fill:rgb(100%,100%,94.117647%);fill-opacity:0.9;" d="M 621.332031 417.179688 C 620.449219 408.863281 621.875 193.167969 621.332031 184.820312 "/>
<path style=" stroke:none;fill-rule:nonzero;fill:rgb(100%,100%,94.117647%);fill-opacity:0.9;" d="M 621.394531 184.820312 C 622.5625 193.101562 620.152344 404.695312 621.394531 417.179688 "/>
<path style=" stroke:none;fill-rule:nonzero;fill:rgb(100%,100%,94.117647%);fill-opacity:0.5;" d="M 621.601562 415.210938 C 621.96875 411.636719 649.148438 306.125 650.238281 299.027344 "/>
<path style=" stroke:none;fill-rule:nonzero;fill:rgb(100%,100%,94.117647%);fill-opacity:0.5;" d="M 650.238281 299.027344 C 649.71875 303.304688 622.46875 410.625 621.601562 415.210938 "/>
<path style=" stroke:none;fill-rule:nonzero;fill:rgb(100%,100%,94.117647%);fill-opacity:0.9;" d="M 544.59375 506.90625 C 544.597656 506.910156 544.609375 506.949219 544.613281 506.949219 "/>
<path style=" stroke:none;fill-rule:nonzero;fill:rgb(100%,100%,94.117647%);fill-opacity:0.6;" d="M 544.613281 506.949219 C 541.402344 508.554688 435.988281 547.875 432.730469 549.378906 "/>
<path style=" stroke:none;fill-rule:nonzero;fill:rgb(100%,100%,94.117647%);fill-opacity:0.3;" d="M 432.730469 549.378906 C 432.726562 549.378906 432.714844 549.339844 432.714844 549.339844 "/>
<path style=" stroke:none;fill-rule:nonzero;fill:rgb(100%,100%,94.117647%);fill-opacity:0.9;" d="M 432.714844 549.339844 C 432.710938 549.335938 432.699219 549.296875 432.699219 549.296875 "/>
<path style=" stroke:none;fill-rule:nonzero;fill:rgb(100%,100%,94.117647%);fill-opacity:0.5;" d="M 432.699219 549.296875 C 435.902344 547.675781 540.359375 508.859375 544.578125 506.863281 "/>
<path style=" stroke:none;fill-rule:nonzero;fill:rgb(100%,100%,94.117647%);fill-opacity:0.3;" d="M 544.578125 506.863281 C 544.582031 506.867188 544.59375 506.90625 544.59375 506.90625 "/>
<path style=" stroke:none;fill-rule:nonzero;fill:rgb(100%,100%,94.117647%);fill-opacity:0.5;" d="M 543.25 507.609375 C 535.804688 509.445312 319.433594 534.332031 312.582031 535.617188 "/>
<path style=" stroke:none;fill-rule:nonzero;fill:rgb(100%,100%,94.117647%);fill-opacity:0.8;" d="M 312.582031 535.617188 C 323.386719 532.847656 533.667969 509.457031 543.25 507.609375 "/>
<path style=" stroke:none;fill-rule:nonzero;fill:rgb(100%,100%,94.117647%);fill-opacity:0.7;" d="M 540.273438 503.519531 C 540.273438 503.519531 540.265625 503.5625 540.265625 503.5625 "/>
<path style=" stroke:none;fill-rule:nonzero;fill:rgb(100%,100%,94.117647%);fill-opacity:0.7;" d="M 540.265625 503.5625 C 526.339844 503.699219 228 464.628906 211.121094 463.597656 "/>
<path style=" stroke:none;fill-rule:nonzero;fill:rgb(100%,100%,94.117647%);fill-opacity:0.4;" d="M 211.121094 463.597656 C 211.121094 463.597656 211.128906 463.554688 211.128906 463.554688 "/>
<path style=" stroke:none;fill-rule:nonzero;fill:rgb(100%,100%,94.117647%);fill-opacity:0.3;" d="M 211.128906 463.554688 C 211.128906 463.550781 211.132812 463.511719 211.132812 463.507812 "/>
<path style=" stroke:none;fill-rule:nonzero;fill:rgb(100%,100%,94.117647%);fill-opacity:0.8;" d="M 211.132812 463.507812 C 221.078125 463.707031 526.359375 502.964844 540.277344 503.476562 "/>
<path style=" stroke:none;fill-rule:nonzero;fill:rgb(100%,100%,94.117647%);fill-opacity:0.8;" d="M 540.277344 503.476562 C 540.277344 503.476562 540.273438 503.519531 540.273438 503.519531 "/>
<path style=" stroke:none;fill-rule:nonzero;fill:rgb(100%,100%,94.117647%);fill-opacity:0.5;" d="M 540.371094 507.261719 C 540.371094 507.261719 540.359375 507.296875 540.359375 507.300781 "/>
<path style=" stroke:none;fill-rule:nonzero;fill:rgb(100%,100%,94.117647%);fill-opacity:0.7;" d="M 540.359375 507.300781 C 527.222656 503.851562 168.546875 365.492188 155.605469 361.382812 "/>
<path style=" stroke:none;fill-rule:nonzero;fill:rgb(100%,100%,94.117647%);fill-opacity:0.9;" d="M 155.605469 361.382812 C 155.605469 361.378906 155.621094 361.347656 155.621094 361.34375 "/>
<path style=" stroke:none;fill-rule:nonzero;fill:rgb(100%,100%,94.117647%);fill-opacity:0.4;" d="M 155.621094 361.34375 C 155.621094 361.34375 155.632812 361.308594 155.632812 361.308594 "/>
<path style=" stroke:none;fill-rule:nonzero;fill:rgb(100%,100%,94.117647%);fill-opacity:0.6;" d="M 155.632812 361.308594 C 173.714844 365.300781 527.347656 503.429688 540.386719 507.222656 "/>
<path style=" stroke:none;fill-rule:nonzero;fill:rgb(100%,100%,94.117647%);fill-opacity:0.6;" d="M 540.386719 507.222656 C 540.386719 507.226562 540.371094 507.261719 540.371094 507.261719 "/>
<path style=" stroke:none;fill-rule:nonzero;fill:rgb(100%,100%,94.117647%);fill-opacity:0.3;" d="M 541.703125 507.960938 C 516.679688 495.285156 168.914062 249.707031 156.953125 242.386719 "/>
<path style=" stroke:none;fill-rule:nonzero;fill:rgb(100%,100%,94.117647%);fill-opacity:0.6;" d="M 156.953125 242.386719 C 173.175781 250.703125 528.464844 500.035156 541.703125 507.960938 "/>
<path style=" stroke:none;fill-rule:nonzero;fill:rgb(100%,100%,94.117647%);fill-opacity:0.3;" d="M 543.429688 505.832031 C 527.007812 490.691406 229.371094 148.6875 214.285156 134.304688 "/>
<path style=" stroke:none;fill-rule:nonzero;fill:rgb(100%,100%,94.117647%);fill-opacity:0.5;" d="M 214.285156 134.304688 C 233.988281 152.472656 530.925781 493.066406 543.429688 505.832031 "/>
<path style=" stroke:none;fill-rule:nonzero;fill:rgb(100%,100%,94.117647%);fill-opacity:0.5;" d="M 541.085938 503.976562 C 531.785156 490.492188 323.820312 85.953125 310.417969 64.476562 "/>
<path style=" stroke:none;fill-rule:nonzero;fill:rgb(100%,100%,94.117647%);fill-opacity:0.7;" d="M 310.417969 64.476562 C 325.402344 84.878906 530.050781 486.289062 541.085938 503.976562 "/>
<path style=" stroke:none;fill-rule:nonzero;fill:rgb(100%,100%,94.117647%);fill-opacity:0.8;" d="M 543.71875 504.296875 C 535.378906 481.960938 438.394531 71.835938 431.835938 50.375 "/>
<path style=" stroke:none;fill-rule:nonzero;fill:rgb(100%,100%,94.117647%);fill-opacity:0.5;" d="M 431.835938 50.375 C 439.375 71.507812 537.890625 485.546875 543.71875 504.296875 "/>
<path style=" stroke:none;fill-rule:nonzero;fill:rgb(100%,100%,94.117647%);fill-opacity:0.4;" d="M 542.015625 503.746094 C 539.421875 480.433594 542.976562 108.273438 542.015625 92.253906 "/>
<path style=" stroke:none;fill-rule:nonzero;fill:rgb(100%,100%,94.117647%);fill-opacity:0.6;" d="M 542.015625 92.253906 C 545.335938 114.226562 540.6875 481.566406 542.015625 503.746094 "/>
<path style=" stroke:none;fill-rule:nonzero;fill:rgb(100%,100%,94.117647%);fill-opacity:0.4;" d="M 540.800781 506.476562 C 542.015625 495.601562 616.730469 203.136719 620.148438 184.550781 "/>
<path style=" stroke:none;fill-rule:nonzero;fill:rgb(100%,100%,94.117647%);fill-opacity:0.8;" d="M 620.160156 184.550781 C 618.242188 204.351562 542.632812 495.691406 540.8125 506.480469 "/>
<path style=" stroke:none;fill-rule:nonzero;fill:rgb(100%,100%,94.117647%);fill-opacity:0.4;" d="M 540.8125 506.480469 C 540.8125 506.480469 540.804688 506.476562 540.804688 506.476562 "/>
<path style=" stroke:none;fill-rule:nonzero;fill:rgb(100%,100%,94.117647%);fill-opacity:0.9;" d="M 542.015625 505.746094 C 546.640625 492.59375 645.65625 309.511719 650 300 "/>
<path style=" stroke:none;fill-rule:nonzero;fill:rgb(100%,100%,94.117647%);fill-opacity:0.8;" d="M 650 300 C 647.496094 306.503906 547.242188 492.820312 542.015625 505.746094 "/>
<path style=" stroke:none;fill-rule:nonzero;fill:rgb(100%,100%,94.117647%);fill-opacity:0.4;" d="M 432.359375 546.433594 C 432.359375 546.433594 432.355469 546.472656 432.355469 546.472656 "/>
<path style=" stroke:none;fill-rule:nonzero;fill:rgb(100%,100%,94.117647%);fill-opacity:0.3;" d="M 432.355469 546.472656 C 425.535156 546.472656 319.660156 532.421875 313.570312 532.050781 "/>
<path style=" stroke:none;fill-rule:nonzero;fill:rgb(100%,100%,94.117647%);fill-opacity:0.4;" d="M 313.570312 532.050781 C 313.570312 532.046875 313.574219 532.011719 313.574219 532.007812 "/>
<path style=" stroke:none;fill-rule:nonzero;fill:rgb(100%,100%,94.117647%);fill-opacity:0.5;" d="M 313.574219 532.007812 C 313.574219 532.007812 313.578125 531.972656 313.582031 531.96875 "/>
<path style=" stroke:none;fill-rule:nonzero;fill:rgb(100%,100%,94.117647%);fill-opacity:0.8;" d="M 313.582031 531.96875 C 320.398438 531.835938 426.277344 545.992188 432.367188 546.394531 "/>
<path style=" stroke:none;fill-rule:nonzero;fill:rgb(100%,100%,94.117647%);fill-opacity:0.9;" d="M 432.367188 546.394531 C 432.367188 546.394531 432.359375 546.429688 432.359375 546.433594 "/>
<path style=" stroke:none;fill-rule:nonzero;fill:rgb(100%,100%,94.117647%);fill-opacity:0.6;" d="M 431.070312 548.53125 C 431.070312 548.535156 431.054688 548.570312 431.054688 548.574219 "/>
<path style=" stroke:none;fill-rule:nonzero;fill:rgb(100%,100%,94.117647%);fill-opacity:0.3;" d="M 431.054688 548.574219 C 423.625 546.664062 226.542969 469.753906 213.792969 466.175781 "/>
<path style=" stroke:none;fill-rule:nonzero;fill:rgb(100%,100%,94.117647%);fill-opacity:0.9;" d="M 213.792969 466.175781 C 213.792969 466.175781 213.808594 466.136719 213.808594 466.136719 "/>
<path style=" stroke:none;fill-rule:nonzero;fill:rgb(100%,100%,94.117647%);fill-opacity:0.8;" d="M 213.808594 466.136719 C 213.808594 466.132812 213.824219 466.09375 213.824219 466.09375 "/>
<path style=" stroke:none;fill-rule:nonzero;fill:rgb(100%,100%,94.117647%);fill-opacity:0.9;" d="M 213.824219 466.09375 C 225.382812 468.707031 421.6875 545.855469 431.085938 548.488281 "/>
<path style=" stroke:none;fill-rule:nonzero;fill:rgb(100%,100%,94.117647%);fill-opacity:0.8;" d="M 431.085938 548.488281 C 431.085938 548.492188 431.070312 548.53125 431.070312 548.53125 "/>
<path style=" stroke:none;fill-rule:nonzero;fill:rgb(100%,100%,94.117647%);fill-opacity:0.4;" d="M 430.449219 545.964844 C 430.445312 545.964844 430.429688 545.988281 430.429688 545.988281 "/>
<path style=" stroke:none;fill-rule:nonzero;fill:rgb(100%,100%,94.117647%);fill-opacity:0.3;" d="M 430.429688 545.988281 C 417.121094 539.246094 172.359375 365.824219 157.558594 357.640625 "/>
<path style=" stroke:none;fill-rule:nonzero;fill:rgb(100%,100%,94.117647%);fill-opacity:0.5;" d="M 157.558594 357.640625 C 157.5625 357.640625 157.578125 357.617188 157.578125 357.613281 "/>
<path style=" stroke:none;fill-rule:nonzero;fill:rgb(100%,100%,94.117647%);fill-opacity:0.8;" d="M 157.578125 357.613281 C 157.578125 357.613281 157.59375 357.589844 157.59375 357.589844 "/>
<path style=" stroke:none;fill-rule:nonzero;fill:rgb(100%,100%,94.117647%);fill-opacity:0.5;" d="M 157.59375 357.589844 C 170.078125 363.761719 416.539062 538.234375 430.464844 545.9375 "/>
<path style=" stroke:none;fill-rule:nonzero;fill:rgb(100%,100%,94.117647%);fill-opacity:0.9;" d="M 430.464844 545.9375 C 430.464844 545.941406 430.449219 545.960938 430.449219 545.964844 "/>
<path style=" stroke:none;fill-rule:nonzero;fill:rgb(100%,100%,94.117647%);fill-opacity:0.8;" d="M 431.546875 548.261719 C 431.542969 548.265625 431.511719 548.292969 431.507812 548.296875 "/>
<path style=" stroke:none;fill-rule:nonzero;fill:rgb(100%,100%,94.117647%);fill-opacity:0.5;" d="M 431.507812 548.296875 C 420.136719 538.800781 175.050781 257.046875 158.640625 240.289062 "/>
<path style=" stroke:none;fill-rule:nonzero;fill:rgb(100%,100%,94.117647%);fill-opacity:0.6;" d="M 158.640625 240.289062 C 158.640625 240.289062 158.675781 240.257812 158.675781 240.257812 "/>
<path style=" stroke:none;fill-rule:nonzero;fill:rgb(100%,100%,94.117647%);fill-opacity:0.4;" d="M 158.675781 240.257812 C 158.679688 240.253906 158.710938 240.226562 158.714844 240.222656 "/>
<path style=" stroke:none;fill-rule:nonzero;fill:rgb(100%,100%,94.117647%);fill-opacity:0.8;" d="M 158.714844 240.222656 C 172.570312 252.503906 419.371094 536 431.582031 548.230469 "/>
<path style=" stroke:none;fill-rule:nonzero;fill:rgb(100%,100%,94.117647%);fill-opacity:0.6;" d="M 431.582031 548.230469 C 431.582031 548.230469 431.546875 548.261719 431.546875 548.261719 "/>
<path style=" stroke:none;fill-rule:nonzero;fill:rgb(100%,100%,94.117647%);fill-opacity:0.6;" d="M 429.714844 549.527344 C 418.171875 533.644531 226.445312 158.246094 212.453125 135.570312 "/>
<path style=" stroke:none;fill-rule:nonzero;fill:rgb(100%,100%,94.117647%);fill-opacity:0.6;" d="M 212.453125 135.570312 C 227.796875 157.355469 421.738281 536.320312 429.714844 549.527344 "/>
<path style=" stroke:none;fill-rule:nonzero;fill:rgb(100%,100%,94.117647%);fill-opacity:0.3;" d="M 431.34375 548.910156 C 421.355469 524.035156 321.515625 92.242188 312.558594 66.976562 "/>
<path style=" stroke:none;fill-rule:nonzero;fill:rgb(100%,100%,94.117647%);fill-opacity:0.7;" d="M 312.558594 66.976562 C 318.589844 82.207031 425.253906 528.972656 431.34375 548.910156 "/>
<path style=" stroke:none;fill-rule:nonzero;fill:rgb(100%,100%,94.117647%);fill-opacity:0.9;" d="M 432.113281 549.175781 C 430.0625 532.925781 433.996094 78.066406 432.113281 52.824219 "/>
<path style=" stroke:none;fill-rule:nonzero;fill:rgb(100%,100%,94.117647%);fill-opacity:0.7;" d="M 432.15625 52.824219 C 433.945312 67.605469 430.421875 522.429688 432.15625 549.175781 "/>
<path style=" stroke:none;fill-rule:nonzero;fill:rgb(100%,100%,94.117647%);fill-opacity:0.8;" d="M 428.429688 546.726562 C 430.613281 522.984375 536.460938 116.335938 540.3125 92.804688 "/>
<path style=" stroke:none;fill-rule:nonzero;fill:rgb(100%,100%,94.117647%);fill-opacity:0.3;" d="M 540.3125 92.804688 C 538.28125 109.511719 432.691406 519.003906 428.429688 546.726562 "/>
<path style=" stroke:none;fill-rule:nonzero;fill:rgb(100%,100%,94.117647%);fill-opacity:0.7;" d="M 430.976562 550.878906 C 435.890625 536.902344 613.472656 206.953125 622.203125 186.519531 "/>
<path style=" stroke:none;fill-rule:nonzero;fill:rgb(100%,100%,94.117647%);fill-opacity:0.8;" d="M 622.207031 186.519531 C 614.925781 204.882812 439.710938 530.445312 430.976562 550.878906 "/>
<path style=" stroke:none;fill-rule:nonzero;fill:rgb(100%,100%,94.117647%);fill-opacity:0.5;" d="M 427.972656 547.597656 C 427.972656 547.597656 427.949219 547.578125 427.949219 547.574219 "/>
<path style=" stroke:none;fill-rule:nonzero;fill:rgb(100%,100%,94.117647%);fill-opacity:0.7;" d="M 427.949219 547.574219 C 438.839844 532.132812 638.835938 311.316406 647.8125 299.398438 "/>
<path style=" stroke:none;fill-rule:nonzero;fill:rgb(100%,100%,94.117647%);fill-opacity:0.3;" d="M 647.8125 299.398438 C 647.816406 299.398438 647.839844 299.421875 647.839844 299.421875 "/>
<path style=" stroke:none;fill-rule:nonzero;fill:rgb(100%,100%,94.117647%);fill-opacity:0.8;" d="M 647.839844 299.421875 C 647.839844 299.421875 647.863281 299.445312 647.867188 299.445312 "/>
<path style=" stroke:none;fill-rule:nonzero;fill:rgb(100%,100%,94.117647%);fill-opacity:0.3;" d="M 647.867188 299.445312 C 642.457031 307.792969 439.96875 531.734375 428 547.621094 "/>
<path style=" stroke:none;fill-rule:nonzero;fill:rgb(100%,100%,94.117647%);fill-opacity:0.5;" d="M 428 547.621094 C 428 547.621094 427.976562 547.601562 427.972656 547.597656 "/>
<path style=" stroke:none;fill-rule:nonzero;fill:rgb(100%,100%,94.117647%);fill-opacity:0.5;" d="M 312.738281 533.5 C 309.515625 531.925781 218.976562 468.132812 214.261719 465.527344 "/>
<path style=" stroke:none;fill-rule:nonzero;fill:rgb(100%,100%,94.117647%);fill-opacity:0.8;" d="M 214.261719 465.527344 C 220.390625 468.519531 309.640625 531.683594 312.738281 533.5 "/>
<path style=" stroke:none;fill-rule:nonzero;fill:rgb(100%,100%,94.117647%);fill-opacity:0.6;" d="M 312.183594 531.679688 C 306.347656 526.707031 162.976562 362.734375 158.097656 357.753906 "/>
<path style=" stroke:none;fill-rule:nonzero;fill:rgb(100%,100%,94.117647%);fill-opacity:0.8;" d="M 158.097656 357.753906 C 167.878906 366.683594 305.054688 525.015625 312.183594 531.679688 "/>
<path style=" stroke:none;fill-rule:nonzero;fill:rgb(100%,100%,94.117647%);fill-opacity:0.4;" d="M 311.347656 533.753906 C 300.3125 518.410156 167.460938 257.253906 157.265625 240.171875 "/>
<path style=" stroke:none;fill-rule:nonzero;fill:rgb(100%,100%,94.117647%);fill-opacity:0.3;" d="M 157.265625 240.171875 C 168.640625 256.492188 304.035156 521.902344 311.347656 533.753906 "/>
<path style=" stroke:none;fill-rule:nonzero;fill:rgb(100%,100%,94.117647%);fill-opacity:0.8;" d="M 310.855469 535.933594 C 304.550781 518.523438 220.214844 158.507812 212.378906 136.402344 "/>
<path style=" stroke:none;fill-rule:nonzero;fill:rgb(100%,100%,94.117647%);fill-opacity:0.6;" d="M 212.378906 136.402344 C 220.863281 156.9375 306.015625 520.632812 310.855469 535.933594 "/>
<path style=" stroke:none;fill-rule:nonzero;fill:rgb(100%,100%,94.117647%);fill-opacity:0.7;" d="M 310.34375 535.753906 C 307.589844 512.070312 311.792969 90.640625 310.34375 68.246094 "/>
<path style=" stroke:none;fill-rule:nonzero;fill:rgb(100%,100%,94.117647%);fill-opacity:0.3;" d="M 310.355469 68.246094 C 312.660156 83.5 308.480469 514.800781 310.355469 535.753906 "/>
<path style=" stroke:none;fill-rule:nonzero;fill:rgb(100%,100%,94.117647%);fill-opacity:0.3;" d="M 310.871094 535.695312 C 313.183594 514.976562 425.117188 77.152344 429.65625 53.765625 "/>
<path style=" stroke:none;fill-rule:nonzero;fill:rgb(100%,100%,94.117647%);fill-opacity:0.9;" d="M 429.65625 53.765625 C 427.710938 68.527344 316.542969 506.460938 310.871094 535.695312 "/>
<path style=" stroke:none;fill-rule:nonzero;fill:rgb(100%,100%,94.117647%);fill-opacity:0.3;" d="M 311.8125 532.867188 C 321.8125 508 536.339844 108.554688 542.480469 93.367188 "/>
<path style=" stroke:none;fill-rule:nonzero;fill:rgb(100%,100%,94.117647%);fill-opacity:0.4;" d="M 542.480469 93.367188 C 533.382812 116.992188 320.492188 512.289062 311.8125 532.867188 "/>
<path style=" stroke:none;fill-rule:nonzero;fill:rgb(100%,100%,94.117647%);fill-opacity:0.5;" d="M 310.6875 534.503906 C 324.136719 514.816406 605.910156 205.027344 620.699219 184.566406 "/>
<path style=" stroke:none;fill-rule:nonzero;fill:rgb(100%,100%,94.117647%);fill-opacity:0.7;" d="M 620.699219 184.566406 C 612.789062 196.148438 325.777344 514.261719 310.6875 534.503906 "/>
<path style=" stroke:none;fill-rule:nonzero;fill:rgb(100%,100%,94.117647%);fill-opacity:0.8;" d="M 313.308594 534.832031 C 331.300781 517.925781 639.417969 311.089844 651.957031 301.078125 "/>
<path style=" stroke:none;fill-rule:nonzero;fill:rgb(100%,100%,94.117647%);fill-opacity:0.5;" d="M 651.960938 301.078125 C 637.109375 314.101562 330.605469 520.882812 313.308594 534.832031 "/>
<path style=" stroke:none;fill-rule:nonzero;fill:rgb(100%,100%,94.117647%);fill-opacity:0.3;" d="M 212.828125 463.546875 C 212.828125 463.546875 212.8125 463.554688 212.808594 463.554688 "/>
<path style=" stroke:none;fill-rule:nonzero;fill:rgb(100%,100%,94.117647%);fill-opacity:0.7;" d="M 212.808594 463.554688 C 210.347656 460.019531 159.117188 360.640625 157.203125 357.601562 "/>
<path style=" stroke:none;fill-rule:nonzero;fill:rgb(100%,100%,94.117647%);fill-opacity:0.7;" d="M 157.203125 357.601562 C 157.203125 357.601562 157.21875 357.59375 157.21875 357.59375 "/>
<path style=" stroke:none;fill-rule:nonzero;fill:rgb(100%,100%,94.117647%);fill-opacity:0.3;" d="M 157.21875 357.59375 C 157.222656 357.59375 157.238281 357.585938 157.238281 357.582031 "/>
<path style=" stroke:none;fill-rule:nonzero;fill:rgb(100%,100%,94.117647%);fill-opacity:0.6;" d="M 157.238281 357.582031 C 161.0625 362.792969 209.832031 458.648438 212.847656 463.535156 "/>
<path style=" stroke:none;fill-rule:nonzero;fill:rgb(100%,100%,94.117647%);fill-opacity:0.5;" d="M 212.847656 463.535156 C 212.847656 463.535156 212.828125 463.542969 212.828125 463.546875 "/>
<path style=" stroke:none;fill-rule:nonzero;fill:rgb(100%,100%,94.117647%);fill-opacity:0.7;" d="M 212.871094 465.78125 C 212.871094 465.78125 212.824219 465.792969 212.824219 465.792969 "/>
<path style=" stroke:none;fill-rule:nonzero;fill:rgb(100%,100%,94.117647%);fill-opacity:0.9;" d="M 212.824219 465.792969 C 208.789062 454.652344 159.660156 248.183594 157.214844 240.183594 "/>
<path style=" stroke:none;fill-rule:nonzero;fill:rgb(100%,100%,94.117647%);fill-opacity:0.8;" d="M 157.214844 240.183594 C 157.21875 240.183594 157.261719 240.171875 157.265625 240.171875 "/>
<path style=" stroke:none;fill-rule:nonzero;fill:rgb(100%,100%,94.117647%);fill-opacity:0.7;" d="M 157.265625 240.171875 C 157.265625 240.171875 157.3125 240.160156 157.3125 240.160156 "/>
<path style=" stroke:none;fill-rule:nonzero;fill:rgb(100%,100%,94.117647%);fill-opacity:0.8;" d="M 157.3125 240.160156 C 162.367188 252.402344 209.863281 455.769531 212.921875 465.769531 "/>
<path style=" stroke:none;fill-rule:nonzero;fill:rgb(100%,100%,94.117647%);fill-opacity:0.8;" d="M 212.921875 465.769531 C 212.917969 465.769531 212.875 465.78125 212.871094 465.78125 "/>
<path style=" stroke:none;fill-rule:nonzero;fill:rgb(100%,100%,94.117647%);fill-opacity:0.7;" d="M 210.871094 463.78125 C 208.71875 446.007812 212.113281 146.089844 210.871094 132.21875 "/>
<path style=" stroke:none;fill-rule:nonzero;fill:rgb(100%,100%,94.117647%);fill-opacity:0.6;" d="M 210.871094 132.21875 C 212.367188 144.0625 210.054688 448.882812 210.871094 463.78125 "/>
<path style=" stroke:none;fill-rule:nonzero;fill:rgb(100%,100%,94.117647%);fill-opacity:0.8;" d="M 211.660156 466.511719 C 211.660156 466.511719 211.648438 466.507812 211.648438 466.507812 "/>
<path style=" stroke:none;fill-rule:nonzero;fill:rgb(100%,100%,94.117647%);fill-opacity:0.9;" d="M 211.648438 466.507812 C 214.222656 446.925781 306.964844 88.96875 310.125 66.972656 "/>
<path style=" stroke:none;fill-rule:nonzero;fill:rgb(100%,100%,94.117647%);fill-opacity:0.7;" d="M 310.125 66.972656 C 310.125 66.972656 310.136719 66.976562 310.136719 66.976562 "/>
<path style=" stroke:none;fill-rule:nonzero;fill:rgb(100%,100%,94.117647%);fill-opacity:0.4;" d="M 310.136719 66.976562 C 310.140625 66.976562 310.152344 66.980469 310.152344 66.980469 "/>
<path style=" stroke:none;fill-rule:nonzero;fill:rgb(100%,100%,94.117647%);fill-opacity:0.6;" d="M 310.152344 66.980469 C 307.253906 89.011719 215.375 444.605469 211.675781 466.515625 "/>
<path style=" stroke:none;fill-rule:nonzero;fill:rgb(100%,100%,94.117647%);fill-opacity:0.4;" d="M 211.675781 466.515625 C 211.675781 466.515625 211.664062 466.511719 211.660156 466.511719 "/>
<path style=" stroke:none;fill-rule:nonzero;fill:rgb(100%,100%,94.117647%);fill-opacity:0.6;" d="M 214.222656 465.359375 C 214.222656 465.359375 214.214844 465.355469 214.214844 465.355469 "/>
<path style=" stroke:none;fill-rule:nonzero;fill:rgb(100%,100%,94.117647%);fill-opacity:0.3;" d="M 214.214844 465.355469 C 220.683594 448.308594 426.214844 64.398438 431.476562 51.398438 "/>
<path style=" stroke:none;fill-rule:nonzero;fill:rgb(100%,100%,94.117647%);fill-opacity:0.8;" d="M 431.476562 51.398438 C 431.476562 51.398438 431.484375 51.402344 431.484375 51.402344 "/>
<path style=" stroke:none;fill-rule:nonzero;fill:rgb(100%,100%,94.117647%);fill-opacity:0.3;" d="M 431.484375 51.402344 C 431.484375 51.402344 431.492188 51.40625 431.492188 51.40625 "/>
<path style=" stroke:none;fill-rule:nonzero;fill:rgb(100%,100%,94.117647%);fill-opacity:0.7;" d="M 431.492188 51.40625 C 421.796875 77.730469 223.554688 444.953125 214.230469 465.363281 "/>
<path style=" stroke:none;fill-rule:nonzero;fill:rgb(100%,100%,94.117647%);fill-opacity:0.3;" d="M 214.230469 465.363281 C 214.230469 465.363281 214.222656 465.359375 214.222656 465.359375 "/>
<path style=" stroke:none;fill-rule:nonzero;fill:rgb(100%,100%,94.117647%);fill-opacity:0.8;" d="M 211.460938 465.867188 C 211.460938 465.867188 211.453125 465.859375 211.453125 465.859375 "/>
<path style=" stroke:none;fill-rule:nonzero;fill:rgb(100%,100%,94.117647%);fill-opacity:0.5;" d="M 211.453125 465.859375 C 226.027344 443.367188 523.796875 117.097656 540.597656 94.332031 "/>
<path style=" stroke:none;fill-rule:nonzero;fill:rgb(100%,100%,94.117647%);fill-opacity:0.3;" d="M 540.597656 94.332031 C 540.597656 94.332031 540.605469 94.339844 540.605469 94.339844 "/>
<path style=" stroke:none;fill-rule:nonzero;fill:rgb(100%,100%,94.117647%);fill-opacity:0.9;" d="M 540.605469 94.339844 C 540.605469 94.339844 540.613281 94.347656 540.613281 94.347656 "/>
<path style=" stroke:none;fill-rule:nonzero;fill:rgb(100%,100%,94.117647%);fill-opacity:0.7;" d="M 540.613281 94.347656 C 528.683594 111.441406 222.632812 451.921875 211.46875 465.875 "/>
<path style=" stroke:none;fill-rule:nonzero;fill:rgb(100%,100%,94.117647%);fill-opacity:0.3;" d="M 211.46875 465.875 C 211.46875 465.871094 211.460938 465.867188 211.460938 465.867188 "/>
<path style=" stroke:none;fill-rule:nonzero;fill:rgb(100%,100%,94.117647%);fill-opacity:0.7;" d="M 210.914062 464.703125 C 210.910156 464.703125 210.894531 464.675781 210.894531 464.671875 "/>
<path style=" stroke:none;fill-rule:nonzero;fill:rgb(100%,100%,94.117647%);fill-opacity:0.6;" d="M 210.894531 464.671875 C 231.304688 447.300781 606.890625 193.304688 619.386719 182.710938 "/>
<path style=" stroke:none;fill-rule:nonzero;fill:rgb(100%,100%,94.117647%);fill-opacity:0.5;" d="M 619.386719 182.710938 C 619.386719 182.714844 619.402344 182.738281 619.40625 182.742188 "/>
<path style=" stroke:none;fill-rule:nonzero;fill:rgb(100%,100%,94.117647%);fill-opacity:0.9;" d="M 619.40625 182.742188 C 619.40625 182.742188 619.425781 182.769531 619.425781 182.769531 "/>
<path style=" stroke:none;fill-rule:nonzero;fill:rgb(100%,100%,94.117647%);fill-opacity:0.3;" d="M 619.425781 182.769531 C 604.160156 196.96875 227.414062 451.964844 210.933594 464.730469 "/>
<path style=" stroke:none;fill-rule:nonzero;fill:rgb(100%,100%,94.117647%);fill-opacity:0.6;" d="M 210.933594 464.730469 C 210.933594 464.730469 210.914062 464.703125 210.914062 464.703125 "/>
<path style=" stroke:none;fill-rule:nonzero;fill:rgb(100%,100%,94.117647%);fill-opacity:0.9;" d="M 211.9375 466.136719 C 230.324219 455.910156 632.433594 307.828125 649.066406 300.355469 "/>
<path style=" stroke:none;fill-rule:nonzero;fill:rgb(100%,100%,94.117647%);fill-opacity:0.3;" d="M 649.066406 300.355469 C 630.246094 309.761719 237.234375 454.015625 211.9375 466.136719 "/>
<path style=" stroke:none;fill-rule:nonzero;fill:rgb(100%,100%,94.117647%);fill-opacity:0.6;" d="M 158.222656 358.828125 C 157.84375 355.257812 158.59375 243.824219 158.222656 239.171875 "/>
<path style=" stroke:none;fill-rule:nonzero;fill:rgb(100%,100%,94.117647%);fill-opacity:0.3;" d="M 158.304688 239.171875 C 158.957031 243.792969 158.019531 353.09375 158.304688 358.828125 "/>
<path style=" stroke:none;fill-rule:nonzero;fill:rgb(100%,100%,94.117647%);fill-opacity:0.7;" d="M 157.738281 357.886719 C 159.53125 344.761719 212.050781 139.125 213.34375 132.277344 "/>
<path style=" stroke:none;fill-rule:nonzero;fill:rgb(100%,100%,94.117647%);fill-opacity:0.9;" d="M 213.355469 132.277344 C 211.964844 144.75 158.949219 350.316406 157.75 357.886719 "/>
<path style=" stroke:none;fill-rule:nonzero;fill:rgb(100%,100%,94.117647%);fill-opacity:0.4;" d="M 159.964844 358.988281 C 166.234375 341.160156 309.898438 75.527344 314.050781 65.40625 "/>
<path style=" stroke:none;fill-rule:nonzero;fill:rgb(100%,100%,94.117647%);fill-opacity:0.8;" d="M 314.050781 65.40625 C 308.402344 80.285156 166.078125 344.292969 159.964844 358.988281 "/>
<path style=" stroke:none;fill-rule:nonzero;fill:rgb(100%,100%,94.117647%);fill-opacity:0.7;" d="M 154.441406 360 C 154.441406 360 154.410156 359.972656 154.40625 359.96875 "/>
<path style=" stroke:none;fill-rule:nonzero;fill:rgb(100%,100%,94.117647%);fill-opacity:0.5;" d="M 154.40625 359.96875 C 161.371094 349.777344 413.074219 70.628906 427.277344 51.964844 "/>
<path style=" stroke:none;fill-rule:nonzero;fill:rgb(100%,100%,94.117647%);fill-opacity:0.3;" d="M 427.277344 51.964844 C 427.277344 51.964844 427.308594 51.992188 427.3125 51.992188 "/>
<path style=" stroke:none;fill-rule:nonzero;fill:rgb(100%,100%,94.117647%);fill-opacity:0.5;" d="M 427.3125 51.992188 C 427.3125 51.996094 427.34375 52.023438 427.34375 52.023438 "/>
<path style=" stroke:none;fill-rule:nonzero;fill:rgb(100%,100%,94.117647%);fill-opacity:0.6;" d="M 427.34375 52.023438 C 417.273438 67.5625 162.539062 349.105469 154.476562 360.03125 "/>
<path style=" stroke:none;fill-rule:nonzero;fill:rgb(100%,100%,94.117647%);fill-opacity:0.6;" d="M 154.476562 360.03125 C 154.472656 360.027344 154.441406 360 154.441406 360 "/>
<path style=" stroke:none;fill-rule:nonzero;fill:rgb(100%,100%,94.117647%);fill-opacity:0.8;" d="M 158.910156 358.691406 C 158.910156 358.691406 158.898438 358.675781 158.898438 358.675781 "/>
<path style=" stroke:none;fill-rule:nonzero;fill:rgb(100%,100%,94.117647%);fill-opacity:0.3;" d="M 158.898438 358.675781 C 177.550781 341.664062 523.070312 110.03125 543.652344 93.101562 "/>
<path style=" stroke:none;fill-rule:nonzero;fill:rgb(100%,100%,94.117647%);fill-opacity:0.3;" d="M 543.652344 93.101562 C 543.652344 93.101562 543.660156 93.117188 543.664062 93.117188 "/>
<path style=" stroke:none;fill-rule:nonzero;fill:rgb(100%,100%,94.117647%);fill-opacity:0.8;" d="M 543.664062 93.117188 C 543.664062 93.117188 543.671875 93.132812 543.675781 93.136719 "/>
<path style=" stroke:none;fill-rule:nonzero;fill:rgb(100%,100%,94.117647%);fill-opacity:0.6;" d="M 543.675781 93.136719 C 525.824219 108.941406 173.335938 347.542969 158.921875 358.710938 "/>
<path style=" stroke:none;fill-rule:nonzero;fill:rgb(100%,100%,94.117647%);fill-opacity:0.6;" d="M 158.921875 358.710938 C 158.921875 358.710938 158.910156 358.691406 158.910156 358.691406 "/>
<path style=" stroke:none;fill-rule:nonzero;fill:rgb(100%,100%,94.117647%);fill-opacity:0.9;" d="M 158.910156 361.34375 C 185.417969 347.769531 605.59375 193.785156 623.007812 185.335938 "/>
<path style=" stroke:none;fill-rule:nonzero;fill:rgb(100%,100%,94.117647%);fill-opacity:0.7;" d="M 623.007812 185.335938 C 604.691406 195.289062 176.285156 352.808594 158.910156 361.34375 "/>
<path style=" stroke:none;fill-rule:nonzero;fill:rgb(100%,100%,94.117647%);fill-opacity:0.6;" d="M 159.492188 361.574219 C 159.492188 361.570312 159.488281 361.539062 159.488281 361.539062 "/>
<path style=" stroke:none;fill-rule:nonzero;fill:rgb(100%,100%,94.117647%);fill-opacity:0.4;" d="M 159.488281 361.539062 C 175.371094 357.542969 631.753906 305.65625 652.222656 301.710938 "/>
<path style=" stroke:none;fill-rule:nonzero;fill:rgb(100%,100%,94.117647%);fill-opacity:0.9;" d="M 652.222656 301.710938 C 652.222656 301.710938 652.226562 301.742188 652.226562 301.746094 "/>
<path style=" stroke:none;fill-rule:nonzero;fill:rgb(100%,100%,94.117647%);fill-opacity:0.5;" d="M 652.226562 301.746094 C 652.226562 301.746094 652.230469 301.777344 652.230469 301.78125 "/>
<path style=" stroke:none;fill-rule:nonzero;fill:rgb(100%,100%,94.117647%);fill-opacity:0.9;" d="M 652.230469 301.78125 C 626.335938 308.695312 180.039062 358.0625 159.496094 361.609375 "/>
<path style=" stroke:none;fill-rule:nonzero;fill:rgb(100%,100%,94.117647%);fill-opacity:0.8;" d="M 159.496094 361.609375 C 159.496094 361.605469 159.492188 361.574219 159.492188 361.574219 "/>
<path style=" stroke:none;fill-rule:nonzero;fill:rgb(100%,100%,94.117647%);fill-opacity:0.7;" d="M 155.027344 240.128906 C 157.445312 233.367188 208.15625 140.140625 210.636719 134.175781 "/>
<path style=" stroke:none;fill-rule:nonzero;fill:rgb(100%,100%,94.117647%);fill-opacity:0.5;" d="M 210.636719 134.175781 C 208.023438 140.863281 157.390625 234.890625 155.027344 240.128906 "/>
<path style=" stroke:none;fill-rule:nonzero;fill:rgb(100%,100%,94.117647%);fill-opacity:0.9;" d="M 158.589844 238.675781 C 163.476562 231.886719 305.792969 73.523438 312.675781 64.75 "/>
<path style=" stroke:none;fill-rule:nonzero;fill:rgb(100%,100%,94.117647%);fill-opacity:0.7;" d="M 312.675781 64.75 C 305.445312 75.003906 164.460938 230.878906 158.589844 238.675781 "/>
<path style=" stroke:none;fill-rule:nonzero;fill:rgb(100%,100%,94.117647%);fill-opacity:0.9;" d="M 157.519531 238.78125 C 172.605469 225.8125 418.867188 59.910156 430.390625 50.433594 "/>
<path style=" stroke:none;fill-rule:nonzero;fill:rgb(100%,100%,94.117647%);fill-opacity:0.6;" d="M 430.390625 50.433594 C 416.300781 63.03125 171.234375 227.269531 157.519531 238.78125 "/>
<path style=" stroke:none;fill-rule:nonzero;fill:rgb(100%,100%,94.117647%);fill-opacity:0.8;" d="M 155.976562 239.589844 C 155.976562 239.589844 155.972656 239.585938 155.972656 239.585938 "/>
<path style=" stroke:none;fill-rule:nonzero;fill:rgb(100%,100%,94.117647%);fill-opacity:0.6;" d="M 155.972656 239.585938 C 166.933594 233.90625 519.671875 104.007812 540.722656 93.667969 "/>
<path style=" stroke:none;fill-rule:nonzero;fill:rgb(100%,100%,94.117647%);fill-opacity:0.4;" d="M 540.722656 93.667969 C 540.722656 93.667969 540.726562 93.671875 540.726562 93.671875 "/>
<path style=" stroke:none;fill-rule:nonzero;fill:rgb(100%,100%,94.117647%);fill-opacity:0.9;" d="M 540.726562 93.671875 C 540.726562 93.675781 540.730469 93.679688 540.730469 93.679688 "/>
<path style=" stroke:none;fill-rule:nonzero;fill:rgb(100%,100%,94.117647%);fill-opacity:0.7;" d="M 540.730469 93.679688 C 525.667969 102.152344 175.96875 229.898438 155.976562 239.597656 "/>
<path style=" stroke:none;fill-rule:nonzero;fill:rgb(100%,100%,94.117647%);fill-opacity:0.7;" d="M 159.007812 237.925781 C 173.910156 233.941406 596.890625 186.359375 623.105469 181.574219 "/>
<path style=" stroke:none;fill-rule:nonzero;fill:rgb(100%,100%,94.117647%);fill-opacity:0.3;" d="M 623.105469 181.574219 C 623.105469 181.574219 623.109375 181.589844 623.109375 181.59375 "/>
<path style=" stroke:none;fill-rule:nonzero;fill:rgb(100%,100%,94.117647%);fill-opacity:0.3;" d="M 623.109375 181.613281 C 598.753906 188.246094 174.144531 234.96875 159.011719 237.964844 "/>
<path style=" stroke:none;fill-rule:nonzero;fill:rgb(100%,100%,94.117647%);fill-opacity:0.3;" d="M 159.011719 237.964844 C 159.011719 237.964844 159.007812 237.945312 159.007812 237.945312 "/>
<path style=" stroke:none;fill-rule:nonzero;fill:rgb(100%,100%,94.117647%);fill-opacity:0.7;" d="M 158.5 238.304688 C 176.367188 238.484375 631.890625 297.332031 651.234375 298.136719 "/>
<path style=" stroke:none;fill-rule:nonzero;fill:rgb(100%,100%,94.117647%);fill-opacity:0.7;" d="M 651.234375 298.136719 C 631.882812 298.605469 176.339844 239.308594 158.5 238.304688 "/>
<path style=" stroke:none;fill-rule:nonzero;fill:rgb(100%,100%,94.117647%);fill-opacity:0.9;" d="M 210.660156 134.53125 C 210.65625 134.53125 210.652344 134.523438 210.652344 134.523438 "/>
<path style=" stroke:none;fill-rule:nonzero;fill:rgb(100%,100%,94.117647%);fill-opacity:0.7;" d="M 210.652344 134.523438 C 214.332031 131.101562 304.324219 70.3125 309.128906 66.550781 "/>
<path style=" stroke:none;fill-rule:nonzero;fill:rgb(100%,100%,94.117647%);fill-opacity:0.5;" d="M 309.128906 66.550781 C 309.128906 66.550781 309.132812 66.558594 309.132812 66.558594 "/>
<path style=" stroke:none;fill-rule:nonzero;fill:rgb(100%,100%,94.117647%);fill-opacity:0.6;" d="M 309.132812 66.558594 C 309.136719 66.558594 309.140625 66.566406 309.140625 66.566406 "/>
<path style=" stroke:none;fill-rule:nonzero;fill:rgb(100%,100%,94.117647%);fill-opacity:0.6;" d="M 309.140625 66.566406 C 304.671875 70.722656 216.253906 130.035156 210.664062 134.542969 "/>
<path style=" stroke:none;fill-rule:nonzero;fill:rgb(100%,100%,94.117647%);fill-opacity:0.7;" d="M 210.664062 134.542969 C 210.664062 134.539062 210.660156 134.53125 210.660156 134.53125 "/>
<path style=" stroke:none;fill-rule:nonzero;fill:rgb(100%,100%,94.117647%);fill-opacity:0.8;" d="M 211.355469 135.863281 C 211.355469 135.863281 211.347656 135.835938 211.347656 135.835938 "/>
<path style=" stroke:none;fill-rule:nonzero;fill:rgb(100%,100%,94.117647%);fill-opacity:0.7;" d="M 211.347656 135.835938 C 219.875 131.089844 417.921875 58.558594 428.609375 53.4375 "/>
<path style=" stroke:none;fill-rule:nonzero;fill:rgb(100%,100%,94.117647%);fill-opacity:0.7;" d="M 428.609375 53.4375 C 428.609375 53.441406 428.617188 53.464844 428.617188 53.46875 "/>
<path style=" stroke:none;fill-rule:nonzero;fill:rgb(100%,100%,94.117647%);fill-opacity:0.7;" d="M 428.617188 53.46875 C 428.621094 53.46875 428.628906 53.492188 428.628906 53.496094 "/>
<path style=" stroke:none;fill-rule:nonzero;fill:rgb(100%,100%,94.117647%);fill-opacity:0.7;" d="M 428.628906 53.496094 C 421.183594 57.308594 223.96875 129.929688 211.367188 135.890625 "/>
<path style=" stroke:none;fill-rule:nonzero;fill:rgb(100%,100%,94.117647%);fill-opacity:0.4;" d="M 211.367188 135.890625 C 211.367188 135.890625 211.355469 135.863281 211.355469 135.863281 "/>
<path style=" stroke:none;fill-rule:nonzero;fill:rgb(100%,100%,94.117647%);fill-opacity:0.4;" d="M 212 135.332031 C 230.28125 130.542969 522.640625 99.21875 541.144531 95.367188 "/>
<path style=" stroke:none;fill-rule:nonzero;fill:rgb(100%,100%,94.117647%);fill-opacity:0.3;" d="M 541.144531 95.367188 C 523.890625 100.15625 224.699219 132.886719 212 135.332031 "/>
<path style=" stroke:none;fill-rule:nonzero;fill:rgb(100%,100%,94.117647%);fill-opacity:0.6;" d="M 212.75 135.210938 C 212.75 135.210938 212.757812 135.164062 212.757812 135.164062 "/>
<path style=" stroke:none;fill-rule:nonzero;fill:rgb(100%,100%,94.117647%);fill-opacity:0.6;" d="M 212.757812 135.164062 C 236.207031 135.628906 605.234375 183.703125 621.25 184.761719 "/>
<path style=" stroke:none;fill-rule:nonzero;fill:rgb(100%,100%,94.117647%);fill-opacity:0.9;" d="M 621.25 184.761719 C 621.25 184.765625 621.242188 184.808594 621.242188 184.8125 "/>
<path style=" stroke:none;fill-rule:nonzero;fill:rgb(100%,100%,94.117647%);fill-opacity:0.9;" d="M 621.242188 184.8125 C 621.242188 184.8125 621.238281 184.859375 621.238281 184.863281 "/>
<path style=" stroke:none;fill-rule:nonzero;fill:rgb(100%,100%,94.117647%);fill-opacity:0.9;" d="M 621.238281 184.863281 C 600.25 184.855469 225.085938 135.53125 212.746094 135.261719 "/>
<path style=" stroke:none;fill-rule:nonzero;fill:rgb(100%,100%,94.117647%);fill-opacity:0.8;" d="M 212.746094 135.261719 C 212.746094 135.257812 212.75 135.214844 212.75 135.210938 "/>
<path style=" stroke:none;fill-rule:nonzero;fill:rgb(100%,100%,94.117647%);fill-opacity:0.8;" d="M 212.871094 134.21875 C 229.230469 138.171875 628.453125 293.730469 650 300 "/>
<path style=" stroke:none;fill-rule:nonzero;fill:rgb(100%,100%,94.117647%);fill-opacity:0.6;" d="M 650 300 C 633.601562 296.210938 228.960938 139.15625 212.871094 134.21875 "/>
<path style=" stroke:none;fill-rule:nonzero;fill:rgb(100%,100%,94.117647%);fill-opacity:0.9;" d="M 309.363281 66.472656 C 314.925781 65.042969 423.921875 52.882812 428.148438 52.046875 "/>
<path style=" stroke:none;fill-rule:nonzero;fill:rgb(100%,100%,94.117647%);fill-opacity:0.6;" d="M 428.148438 52.0625 C 428.148438 52.066406 428.152344 52.078125 428.152344 52.078125 "/>
<path style=" stroke:none;fill-rule:nonzero;fill:rgb(100%,100%,94.117647%);fill-opacity:0.5;" d="M 428.152344 52.078125 C 422.898438 53.265625 316.371094 64.9375 309.367188 66.503906 "/>
<path style=" stroke:none;fill-rule:nonzero;fill:rgb(100%,100%,94.117647%);fill-opacity:0.3;" d="M 309.367188 66.503906 C 309.363281 66.5 309.363281 66.488281 309.363281 66.488281 "/>
<path style=" stroke:none;fill-rule:nonzero;fill:rgb(100%,100%,94.117647%);fill-opacity:0.9;" d="M 312.222656 67.359375 C 321.28125 67.316406 535.917969 95.214844 542.886719 95.367188 "/>
<path style=" stroke:none;fill-rule:nonzero;fill:rgb(100%,100%,94.117647%);fill-opacity:0.5;" d="M 542.886719 95.367188 C 530.347656 95.734375 324.75 68.0625 312.222656 67.359375 "/>
<path style=" stroke:none;fill-rule:nonzero;fill:rgb(100%,100%,94.117647%);fill-opacity:0.8;" d="M 310.414062 65.890625 C 310.414062 65.890625 310.417969 65.878906 310.417969 65.875 "/>
<path style=" stroke:none;fill-rule:nonzero;fill:rgb(100%,100%,94.117647%);fill-opacity:0.6;" d="M 310.417969 65.875 C 322.925781 69.160156 604.34375 178.25 620.433594 183.449219 "/>
<path style=" stroke:none;fill-rule:nonzero;fill:rgb(100%,100%,94.117647%);fill-opacity:0.4;" d="M 620.433594 183.449219 C 620.433594 183.449219 620.429688 183.464844 620.429688 183.464844 "/>
<path style=" stroke:none;fill-rule:nonzero;fill:rgb(100%,100%,94.117647%);fill-opacity:0.3;" d="M 620.429688 183.464844 C 620.429688 183.464844 620.421875 183.480469 620.421875 183.480469 "/>
<path style=" stroke:none;fill-rule:nonzero;fill:rgb(100%,100%,94.117647%);fill-opacity:0.5;" d="M 620.421875 183.480469 C 608.792969 180.789062 320.945312 68.859375 310.40625 65.90625 "/>
<path style=" stroke:none;fill-rule:nonzero;fill:rgb(100%,100%,94.117647%);fill-opacity:0.8;" d="M 310.40625 65.90625 C 310.410156 65.90625 310.414062 65.890625 310.414062 65.890625 "/>
<path style=" stroke:none;fill-rule:nonzero;fill:rgb(100%,100%,94.117647%);fill-opacity:0.9;" d="M 309.703125 65.109375 C 309.703125 65.109375 309.71875 65.085938 309.71875 65.085938 "/>
<path style=" stroke:none;fill-rule:nonzero;fill:rgb(100%,100%,94.117647%);fill-opacity:0.6;" d="M 309.71875 65.085938 C 329.34375 75.511719 632.167969 289.878906 648.371094 298.839844 "/>
<path style=" stroke:none;fill-rule:nonzero;fill:rgb(100%,100%,94.117647%);fill-opacity:0.5;" d="M 648.371094 298.839844 C 648.371094 298.839844 648.355469 298.863281 648.355469 298.863281 "/>
<path style=" stroke:none;fill-rule:nonzero;fill:rgb(100%,100%,94.117647%);fill-opacity:0.7;" d="M 648.355469 298.863281 C 648.351562 298.867188 648.335938 298.886719 648.335938 298.890625 "/>
<path style=" stroke:none;fill-rule:nonzero;fill:rgb(100%,100%,94.117647%);fill-opacity:0.9;" d="M 648.335938 298.890625 C 633.074219 290.777344 331.292969 77.082031 309.683594 65.136719 "/>
<path style=" stroke:none;fill-rule:nonzero;fill:rgb(100%,100%,94.117647%);fill-opacity:0.6;" d="M 309.683594 65.136719 C 309.6875 65.132812 309.703125 65.109375 309.703125 65.109375 "/>
<path style=" stroke:none;fill-rule:nonzero;fill:rgb(100%,100%,94.117647%);fill-opacity:0.4;" d="M 428.488281 53.339844 C 428.488281 53.339844 428.492188 53.332031 428.492188 53.332031 "/>
<path style=" stroke:none;fill-rule:nonzero;fill:rgb(100%,100%,94.117647%);fill-opacity:0.8;" d="M 428.492188 53.332031 C 433.382812 54.488281 534.136719 94.082031 540.375 95.765625 "/>
<path style=" stroke:none;fill-rule:nonzero;fill:rgb(100%,100%,94.117647%);fill-opacity:0.7;" d="M 540.375 95.765625 C 540.375 95.765625 540.371094 95.769531 540.371094 95.769531 "/>
<path style=" stroke:none;fill-rule:nonzero;fill:rgb(100%,100%,94.117647%);fill-opacity:0.8;" d="M 540.371094 95.773438 C 535.160156 94.410156 432.269531 54.484375 428.488281 53.34375 "/>
<path style=" stroke:none;fill-rule:nonzero;fill:rgb(100%,100%,94.117647%);fill-opacity:0.7;" d="M 430.957031 52.390625 C 439.082031 56.40625 615.050781 180.019531 622.1875 184.386719 "/>
<path style=" stroke:none;fill-rule:nonzero;fill:rgb(100%,100%,94.117647%);fill-opacity:0.8;" d="M 622.1875 184.386719 C 612.1875 179.445312 437.496094 56.394531 430.957031 52.390625 "/>
<path style=" stroke:none;fill-rule:nonzero;fill:rgb(100%,100%,94.117647%);fill-opacity:0.3;" d="M 427.3125 51.652344 C 427.3125 51.652344 427.316406 51.648438 427.316406 51.648438 "/>
<path style=" stroke:none;fill-rule:nonzero;fill:rgb(100%,100%,94.117647%);fill-opacity:0.9;" d="M 427.316406 51.648438 C 439.53125 61.851562 633.4375 286.851562 647.179688 299.824219 "/>
<path style=" stroke:none;fill-rule:nonzero;fill:rgb(100%,100%,94.117647%);fill-opacity:0.3;" d="M 647.179688 299.824219 C 647.179688 299.824219 647.175781 299.828125 647.175781 299.828125 "/>
<path style=" stroke:none;fill-rule:nonzero;fill:rgb(100%,100%,94.117647%);fill-opacity:0.5;" d="M 647.175781 299.828125 C 647.175781 299.828125 647.171875 299.832031 647.171875 299.832031 "/>
<path style=" stroke:none;fill-rule:nonzero;fill:rgb(100%,100%,94.117647%);fill-opacity:0.8;" d="M 647.171875 299.832031 C 632.726562 287.648438 438.207031 61.84375 427.304688 51.65625 "/>
<path style=" stroke:none;fill-rule:nonzero;fill:rgb(100%,100%,94.117647%);fill-opacity:0.8;" d="M 427.304688 51.65625 C 427.308594 51.65625 427.3125 51.652344 427.3125 51.652344 "/>
<path style=" stroke:none;fill-rule:nonzero;fill:rgb(100%,100%,94.117647%);fill-opacity:0.3;" d="M 542.59375 96.414062 C 546.453125 99.636719 619.136719 183.199219 621.941406 185.980469 "/>
<path style=" stroke:none;fill-rule:nonzero;fill:rgb(100%,100%,94.117647%);fill-opacity:0.3;" d="M 621.941406 185.980469 C 618.910156 183.449219 545.15625 98.929688 542.59375 96.414062 "/>
<path style=" stroke:none;fill-rule:nonzero;fill:rgb(100%,100%,94.117647%);fill-opacity:0.4;" d="M 540.203125 92.949219 C 540.203125 92.945312 540.238281 92.929688 540.242188 92.925781 "/>
<path style=" stroke:none;fill-rule:nonzero;fill:rgb(100%,100%,94.117647%);fill-opacity:0.3;" d="M 540.242188 92.925781 C 546.664062 102.042969 644.417969 292.832031 648.226562 298.671875 "/>
<path style=" stroke:none;fill-rule:nonzero;fill:rgb(100%,100%,94.117647%);fill-opacity:0.3;" d="M 648.226562 298.671875 C 648.222656 298.675781 648.1875 298.691406 648.183594 298.695312 "/>
<path style=" stroke:none;fill-rule:nonzero;fill:rgb(100%,100%,94.117647%);fill-opacity:0.9;" d="M 648.183594 298.695312 C 648.183594 298.695312 648.148438 298.714844 648.144531 298.714844 "/>
<path style=" stroke:none;fill-rule:nonzero;fill:rgb(100%,100%,94.117647%);fill-opacity:0.9;" d="M 648.144531 298.714844 C 643.496094 291.761719 544.996094 100.632812 540.160156 92.96875 "/>
<path style=" stroke:none;fill-rule:nonzero;fill:rgb(100%,100%,94.117647%);fill-opacity:0.9;" d="M 540.160156 92.96875 C 540.164062 92.96875 540.199219 92.949219 540.203125 92.949219 "/>
<path style=" stroke:none;fill-rule:nonzero;fill:rgb(100%,100%,94.117647%);fill-opacity:0.7;" d="M 623.546875 184.3125 C 624.832031 187.660156 650.394531 295.035156 652.179688 300.492188 "/>
<path style=" stroke:none;fill-rule:nonzero;fill:rgb(100%,100%,94.117647%);fill-opacity:0.3;" d="M 652.179688 300.492188 C 649.636719 293.777344 624.992188 189.125 623.546875 184.3125 "/>
</g>
</svg>
