<?xml version="1.0" encoding="UTF-8"?>
<svg xmlns="http://www.w3.org/2000/svg" xmlns:xlink="http://www.w3.org/1999/xlink" width="800pt" height="400pt" viewBox="0 0 800 400" version="1.1">
<g id="surface4840">
<rect x="0" y="0" width="800" height="400" style="fill:rgb(100%,100%,100%);fill-opacity:1;stroke:none;"/>
<path style=" stroke:none;fill-rule:nonzero;fill:rgb(0%,0%,0%);fill-opacity:0.6;" d="M 153 200 C 153 204 147 204 147 200 C 147 196 153 196 153 200 "/>
<path style=" stroke:none;fill-rule:nonzero;fill:rgb(0%,0%,0%);fill-opacity:0.6;" d="M 203 50 C 203 54 197 54 197 50 C 197 46 203 46 203 50 "/>
<path style=" stroke:none;fill-rule:nonzero;fill:rgb(0%,0%,0%);fill-opacity:0.6;" d="M 603 50 C 603 54 597 54 597 50 C 597 46 603 46 603 50 "/>
<path style=" stroke:none;fill-rule:nonzero;fill:rgb(0%,0%,0%);fill-opacity:0.6;" d="M 653 200 C 653 204 647 204 647 200 C 647 196 653 196 653 200 "/>
<path style=" stroke:none;fill-rule:nonzero;fill:rgb(100%,0%,0%);fill-opacity:0.6;" d="M 155 200 C 155 206.667969 145 206.667969 145 200 C 145 193.332031 155 193.332031 155 200 "/>
<path style=" stroke:none;fill-rule:nonzero;fill:rgb(100%,15%,0%);fill-opacity:0.6;" d="M 159.394531 189.03125 C 159.394531 195.699219 149.394531 195.699219 149.394531 189.03125 C 149.394531 182.363281 159.394531 182.363281 159.394531 189.03125 "/>
<path style=" stroke:none;fill-rule:nonzero;fill:rgb(100%,30%,0%);fill-opacity:0.6;" d="M 165.039062 178.625 C 165.039062 185.292969 155.039062 185.292969 155.039062 178.625 C 155.039062 171.957031 165.039062 171.957031 165.039062 178.625 "/>
<path style=" stroke:none;fill-rule:nonzero;fill:rgb(100%,45%,0%);fill-opacity:0.6;" d="M 171.859375 168.78125 C 171.859375 175.449219 161.859375 175.449219 161.859375 168.78125 C 161.859375 162.113281 171.859375 162.113281 171.859375 168.78125 "/>
<path style=" stroke:none;fill-rule:nonzero;fill:rgb(100%,60%,0%);fill-opacity:0.6;" d="M 179.800781 159.5 C 179.800781 166.167969 169.800781 166.167969 169.800781 159.5 C 169.800781 152.832031 179.800781 152.832031 179.800781 159.5 "/>
<path style=" stroke:none;fill-rule:nonzero;fill:rgb(100%,75%,0%);fill-opacity:0.6;" d="M 188.789062 150.78125 C 188.789062 157.449219 178.789062 157.449219 178.789062 150.78125 C 178.789062 144.113281 188.789062 144.113281 188.789062 150.78125 "/>
<path style=" stroke:none;fill-rule:nonzero;fill:rgb(100%,90%,0%);fill-opacity:0.6;" d="M 198.761719 142.625 C 198.761719 149.292969 188.761719 149.292969 188.761719 142.625 C 188.761719 135.957031 198.761719 135.957031 198.761719 142.625 "/>
<path style=" stroke:none;fill-rule:nonzero;fill:rgb(95%,100%,0%);fill-opacity:0.6;" d="M 209.65625 135.03125 C 209.65625 141.699219 199.65625 141.699219 199.65625 135.03125 C 199.65625 128.363281 209.65625 128.363281 209.65625 135.03125 "/>
<path style=" stroke:none;fill-rule:nonzero;fill:rgb(80%,100%,0%);fill-opacity:0.6;" d="M 221.398438 128 C 221.398438 134.667969 211.398438 134.667969 211.398438 128 C 211.398438 121.332031 221.398438 121.332031 221.398438 128 "/>
<path style=" stroke:none;fill-rule:nonzero;fill:rgb(65%,100%,0%);fill-opacity:0.6;" d="M 233.933594 121.53125 C 233.933594 128.199219 223.933594 128.199219 223.933594 121.53125 C 223.933594 114.863281 233.933594 114.863281 233.933594 121.53125 "/>
<path style=" stroke:none;fill-rule:nonzero;fill:rgb(50%,100%,0%);fill-opacity:0.6;" d="M 247.1875 115.625 C 247.1875 122.292969 237.1875 122.292969 237.1875 115.625 C 237.1875 108.957031 247.1875 108.957031 247.1875 115.625 "/>
<path style=" stroke:none;fill-rule:nonzero;fill:rgb(35%,100%,0%);fill-opacity:0.6;" d="M 261.097656 110.28125 C 261.097656 116.949219 251.097656 116.949219 251.097656 110.28125 C 251.097656 103.613281 261.097656 103.613281 261.097656 110.28125 "/>
<path style=" stroke:none;fill-rule:nonzero;fill:rgb(20%,100%,0%);fill-opacity:0.6;" d="M 275.601562 105.5 C 275.601562 112.167969 265.601562 112.167969 265.601562 105.5 C 265.601562 98.832031 275.601562 98.832031 275.601562 105.5 "/>
<path style=" stroke:none;fill-rule:nonzero;fill:rgb(5%,100%,0%);fill-opacity:0.6;" d="M 290.625 101.28125 C 290.625 107.949219 280.625 107.949219 280.625 101.28125 C 280.625 94.613281 290.625 94.613281 290.625 101.28125 "/>
<path style=" stroke:none;fill-rule:nonzero;fill:rgb(0%,100%,10%);fill-opacity:0.6;" d="M 306.113281 97.625 C 306.113281 104.292969 296.113281 104.292969 296.113281 97.625 C 296.113281 90.957031 306.113281 90.957031 306.113281 97.625 "/>
<path style=" stroke:none;fill-rule:nonzero;fill:rgb(0%,100%,25%);fill-opacity:0.6;" d="M 321.992188 94.53125 C 321.992188 101.199219 311.992188 101.199219 311.992188 94.53125 C 311.992188 87.863281 321.992188 87.863281 321.992188 94.53125 "/>
<path style=" stroke:none;fill-rule:nonzero;fill:rgb(0%,100%,40%);fill-opacity:0.6;" d="M 338.199219 92 C 338.199219 98.667969 328.199219 98.667969 328.199219 92 C 328.199219 85.332031 338.199219 85.332031 338.199219 92 "/>
<path style=" stroke:none;fill-rule:nonzero;fill:rgb(0%,100%,55%);fill-opacity:0.6;" d="M 354.671875 90.03125 C 354.671875 96.699219 344.671875 96.699219 344.671875 90.03125 C 344.671875 83.363281 354.671875 83.363281 354.671875 90.03125 "/>
<path style=" stroke:none;fill-rule:nonzero;fill:rgb(0%,100%,70%);fill-opacity:0.6;" d="M 371.335938 88.625 C 371.335938 95.292969 361.335938 95.292969 361.335938 88.625 C 361.335938 81.957031 371.335938 81.957031 371.335938 88.625 "/>
<path style=" stroke:none;fill-rule:nonzero;fill:rgb(0%,100%,85%);fill-opacity:0.6;" d="M 388.136719 87.78125 C 388.136719 94.449219 378.136719 94.449219 378.136719 87.78125 C 378.136719 81.113281 388.136719 81.113281 388.136719 87.78125 "/>
<path style=" stroke:none;fill-rule:nonzero;fill:rgb(0%,100%,100%);fill-opacity:0.6;" d="M 405 87.5 C 405 94.167969 395 94.167969 395 87.5 C 395 80.832031 405 80.832031 405 87.5 "/>
<path style=" stroke:none;fill-rule:nonzero;fill:rgb(0%,85%,100%);fill-opacity:0.6;" d="M 421.863281 87.78125 C 421.863281 94.449219 411.863281 94.449219 411.863281 87.78125 C 411.863281 81.113281 421.863281 81.113281 421.863281 87.78125 "/>
<path style=" stroke:none;fill-rule:nonzero;fill:rgb(0%,70%,100%);fill-opacity:0.6;" d="M 438.664062 88.625 C 438.664062 95.292969 428.664062 95.292969 428.664062 88.625 C 428.664062 81.957031 438.664062 81.957031 438.664062 88.625 "/>
<path style=" stroke:none;fill-rule:nonzero;fill:rgb(0%,55%,100%);fill-opacity:0.6;" d="M 455.328125 90.03125 C 455.328125 96.699219 445.328125 96.699219 445.328125 90.03125 C 445.328125 83.363281 455.328125 83.363281 455.328125 90.03125 "/>
<path style=" stroke:none;fill-rule:nonzero;fill:rgb(0%,40%,100%);fill-opacity:0.6;" d="M 471.800781 92 C 471.800781 98.667969 461.800781 98.667969 461.800781 92 C 461.800781 85.332031 471.800781 85.332031 471.800781 92 "/>
<path style=" stroke:none;fill-rule:nonzero;fill:rgb(0%,25%,100%);fill-opacity:0.6;" d="M 488.007812 94.53125 C 488.007812 101.199219 478.007812 101.199219 478.007812 94.53125 C 478.007812 87.863281 488.007812 87.863281 488.007812 94.53125 "/>
<path style=" stroke:none;fill-rule:nonzero;fill:rgb(0%,10%,100%);fill-opacity:0.6;" d="M 503.886719 97.625 C 503.886719 104.292969 493.886719 104.292969 493.886719 97.625 C 493.886719 90.957031 503.886719 90.957031 503.886719 97.625 "/>
<path style=" stroke:none;fill-rule:nonzero;fill:rgb(5%,0%,100%);fill-opacity:0.6;" d="M 519.375 101.28125 C 519.375 107.949219 509.375 107.949219 509.375 101.28125 C 509.375 94.613281 519.375 94.613281 519.375 101.28125 "/>
<path style=" stroke:none;fill-rule:nonzero;fill:rgb(20%,0%,100%);fill-opacity:0.6;" d="M 534.398438 105.5 C 534.398438 112.167969 524.398438 112.167969 524.398438 105.5 C 524.398438 98.832031 534.398438 98.832031 534.398438 105.5 "/>
<path style=" stroke:none;fill-rule:nonzero;fill:rgb(35%,0%,100%);fill-opacity:0.6;" d="M 548.902344 110.28125 C 548.902344 116.949219 538.902344 116.949219 538.902344 110.28125 C 538.902344 103.613281 548.902344 103.613281 548.902344 110.28125 "/>
<path style=" stroke:none;fill-rule:nonzero;fill:rgb(50%,0%,100%);fill-opacity:0.6;" d="M 562.8125 115.625 C 562.8125 122.292969 552.8125 122.292969 552.8125 115.625 C 552.8125 108.957031 562.8125 108.957031 562.8125 115.625 "/>
<path style=" stroke:none;fill-rule:nonzero;fill:rgb(65%,0%,100%);fill-opacity:0.6;" d="M 576.066406 121.53125 C 576.066406 128.199219 566.066406 128.199219 566.066406 121.53125 C 566.066406 114.863281 576.066406 114.863281 576.066406 121.53125 "/>
<path style=" stroke:none;fill-rule:nonzero;fill:rgb(80%,0%,100%);fill-opacity:0.6;" d="M 588.601562 128 C 588.601562 134.667969 578.601562 134.667969 578.601562 128 C 578.601562 121.332031 588.601562 121.332031 588.601562 128 "/>
<path style=" stroke:none;fill-rule:nonzero;fill:rgb(95%,0%,100%);fill-opacity:0.6;" d="M 600.34375 135.03125 C 600.34375 141.699219 590.34375 141.699219 590.34375 135.03125 C 590.34375 128.363281 600.34375 128.363281 600.34375 135.03125 "/>
<path style=" stroke:none;fill-rule:nonzero;fill:rgb(100%,0%,90%);fill-opacity:0.6;" d="M 611.238281 142.625 C 611.238281 149.292969 601.238281 149.292969 601.238281 142.625 C 601.238281 135.957031 611.238281 135.957031 611.238281 142.625 "/>
<path style=" stroke:none;fill-rule:nonzero;fill:rgb(100%,0%,75%);fill-opacity:0.6;" d="M 621.210938 150.78125 C 621.210938 157.449219 611.210938 157.449219 611.210938 150.78125 C 611.210938 144.113281 621.210938 144.113281 621.210938 150.78125 "/>
<path style=" stroke:none;fill-rule:nonzero;fill:rgb(100%,0%,60%);fill-opacity:0.6;" d="M 630.199219 159.5 C 630.199219 166.167969 620.199219 166.167969 620.199219 159.5 C 620.199219 152.832031 630.199219 152.832031 630.199219 159.5 "/>
<path style=" stroke:none;fill-rule:nonzero;fill:rgb(100%,0%,45%);fill-opacity:0.6;" d="M 638.140625 168.78125 C 638.140625 175.449219 628.140625 175.449219 628.140625 168.78125 C 628.140625 162.113281 638.140625 162.113281 638.140625 168.78125 "/>
<path style=" stroke:none;fill-rule:nonzero;fill:rgb(100%,0%,30%);fill-opacity:0.6;" d="M 644.960938 178.625 C 644.960938 185.292969 634.960938 185.292969 634.960938 178.625 C 634.960938 171.957031 644.960938 171.957031 644.960938 178.625 "/>
<path style=" stroke:none;fill-rule:nonzero;fill:rgb(100%,0%,15%);fill-opacity:0.6;" d="M 650.605469 189.03125 C 650.605469 195.699219 640.605469 195.699219 640.605469 189.03125 C 640.605469 182.363281 650.605469 182.363281 650.605469 189.03125 "/>
<path style=" stroke:none;fill-rule:nonzero;fill:rgb(100%,0%,0%);fill-opacity:0.6;" d="M 655 200 C 655 206.667969 645 206.667969 645 200 C 645 193.332031 655 193.332031 655 200 "/>
</g>
</svg>
