<?xml version="1.0" encoding="UTF-8"?>
<svg xmlns="http://www.w3.org/2000/svg" xmlns:xlink="http://www.w3.org/1999/xlink" width="600pt" height="600pt" viewBox="0 0 600 600" version="1.1">
<g id="surface42226">
<rect x="0" y="0" width="600" height="600" style="fill:rgb(0%,0%,0%);fill-opacity:1;stroke:none;"/>
<path style=" stroke:none;fill-rule:nonzero;fill:rgb(0%,63.921569%,100%);fill-opacity:1;" d="M 442.886719 488.894531 C 442.886719 514.652344 422.003906 535.535156 396.246094 535.535156 C 370.488281 535.535156 349.605469 514.652344 349.605469 488.894531 C 349.605469 463.136719 370.488281 442.253906 396.246094 442.253906 C 422.003906 442.253906 442.886719 463.136719 442.886719 488.894531 "/>
<path style=" stroke:none;fill-rule:nonzero;fill:rgb(58.431373%,0%,100%);fill-opacity:1;" d="M 196.734375 449.90625 C 196.734375 475.664062 175.851562 496.546875 150.09375 496.546875 C 124.335938 496.546875 103.453125 475.664062 103.453125 449.90625 C 103.453125 424.148438 124.335938 403.265625 150.09375 403.265625 C 175.851562 403.265625 196.734375 424.148438 196.734375 449.90625 "/>
<path style=" stroke:none;fill-rule:nonzero;fill:rgb(100%,0%,0%);fill-opacity:1;" d="M 157.746094 203.753906 C 157.746094 229.511719 136.863281 250.394531 111.105469 250.394531 C 85.347656 250.394531 64.464844 229.511719 64.464844 203.753906 C 64.464844 177.996094 85.347656 157.113281 111.105469 157.113281 C 136.863281 157.113281 157.746094 177.996094 157.746094 203.753906 "/>
<path style=" stroke:none;fill-rule:nonzero;fill:rgb(100%,79.215686%,0%);fill-opacity:1;" d="M 379.804688 90.609375 C 379.804688 116.367188 358.921875 137.25 333.164062 137.25 C 307.40625 137.25 286.523438 116.367188 286.523438 90.609375 C 286.523438 64.851562 307.40625 43.96875 333.164062 43.96875 C 358.921875 43.96875 379.804688 64.851562 379.804688 90.609375 "/>
<path style=" stroke:none;fill-rule:nonzero;fill:rgb(39.215686%,100%,0%);fill-opacity:1;" d="M 556.03125 266.835938 C 556.03125 292.59375 535.148438 313.476562 509.390625 313.476562 C 483.632812 313.476562 462.75 292.59375 462.75 266.835938 C 462.75 241.078125 483.632812 220.195312 509.390625 220.195312 C 535.148438 220.195312 556.03125 241.078125 556.03125 266.835938 "/>
</g>
</svg>
