<?xml version="1.0" encoding="UTF-8" standalone="no"?>
<!DOCTYPE svg PUBLIC "-//W3C//DTD SVG 1.1//EN" "http://www.w3.org/Graphics/SVG/1.1/DTD/svg11.dtd">
<svg width="100%" height="100%" viewBox="0 0 600 350" version="1.1" xmlns="http://www.w3.org/2000/svg" xmlns:xlink="http://www.w3.org/1999/xlink" xml:space="preserve" xmlns:serif="http://www.serif.com/" style="fill-rule:evenodd;clip-rule:evenodd;stroke-miterlimit:10;">
    <g transform="matrix(1.62196,0,0,2.14324,-0.29916,-0.644081)">
        <rect x="-0.442" y="-0.836" width="371.222" height="164.984"/>
    </g>
    <g transform="matrix(1.56884,0,0,1.56884,-133.636,-551.673)">
        <path d="M442.887,488.895C442.887,514.652 422.004,535.535 396.246,535.535C370.488,535.535 349.605,514.652 349.605,488.895C349.605,463.137 370.488,442.254 396.246,442.254C422.004,442.254 442.887,463.137 442.887,488.895" style="fill:#00a3fe;fill-opacity:0.4;fill-rule:nonzero;"/>
    </g>
    <g transform="matrix(1.56884,0,0,1.56884,-133.636,-551.673)">
        <path d="M350.344,465.504C345.406,475.199 343.664,486.207 345.363,496.953L195.996,473.293C200.934,463.602 202.676,452.594 200.977,441.848L350.344,465.504Z" style="fill:#5b36e8;fill-rule:nonzero;"/>
    </g>
    <g transform="matrix(0.391773,-1.51914,1.51914,0.391773,-405.817,621.207)">
        <path d="M393.382,490.751L372.859,442.992" style="fill:none;fill-rule:nonzero;stroke:#00fefe;stroke-width:0.67px;stroke-dasharray:0.33,1;"/>
    </g>
    <g transform="matrix(0.391773,-1.51914,1.51914,0.391773,-405.817,621.207)">
        <path d="M392.276,491.81L404.305,438.012" style="fill:none;fill-rule:nonzero;stroke:#00fefe;stroke-width:0.67px;stroke-dasharray:0.33,1;"/>
    </g>
    <g transform="matrix(1.56884,0,0,1.56884,-133.636,-551.673)">
        <path d="M150.094,449.906L195.996,473.293" style="fill:none;fill-rule:nonzero;stroke:#00fefe;stroke-width:0.67px;stroke-dasharray:0.33,1;"/>
    </g>
    <g transform="matrix(1.56884,0,0,1.56884,-133.636,-551.673)">
        <path d="M150.094,449.906L200.977,441.848" style="fill:none;fill-rule:nonzero;stroke:#00fefe;stroke-width:0.67px;stroke-dasharray:0.33,1;"/>
    </g>
    <g transform="matrix(1.56884,0,0,1.56884,-133.636,-551.673)">
        <path d="M447.762,488.895C447.762,517.344 424.699,540.41 396.246,540.41C367.793,540.41 344.73,517.344 344.73,488.895C344.73,460.441 367.793,437.379 396.246,437.379C424.699,437.379 447.762,460.441 447.762,488.895" style="fill:none;fill-rule:nonzero;stroke:#00fefe;stroke-width:0.67px;stroke-dasharray:0.33,1;"/>
    </g>
    <g transform="matrix(1.56884,0,0,1.56884,-133.636,-551.673)">
        <path d="M442.887,488.895C442.887,514.652 422.004,535.535 396.246,535.535C370.488,535.535 349.605,514.652 349.605,488.895C349.605,463.137 370.488,442.254 396.246,442.254C422.004,442.254 442.887,463.137 442.887,488.895" style="fill:none;fill-rule:nonzero;stroke:#00fefe;stroke-width:0.67px;stroke-dasharray:0.33,1;"/>
    </g>
    <g transform="matrix(1.56884,0,0,1.56884,-133.636,-551.673)">
        <path d="M201.609,449.906C201.609,478.359 178.543,501.422 150.094,501.422C121.641,501.422 98.578,478.359 98.578,449.906C98.578,421.457 121.641,398.391 150.094,398.391C178.543,398.391 201.609,421.457 201.609,449.906" style="fill:none;fill-rule:nonzero;stroke:#00fefe;stroke-width:0.67px;stroke-dasharray:0.33,1;"/>
    </g>
    <g transform="matrix(1.56884,0,0,1.56884,-133.636,-551.673)">
        <path d="M196.734,449.906C196.734,475.664 175.852,496.547 150.094,496.547C124.336,496.547 103.453,475.664 103.453,449.906C103.453,424.148 124.336,403.266 150.094,403.266C175.852,403.266 196.734,424.148 196.734,449.906" style="fill:none;fill-rule:nonzero;stroke:#00fefe;stroke-width:0.67px;stroke-dasharray:0.33,1;"/>
    </g>
    <g transform="matrix(1.56884,0,0,1.56884,-133.636,-551.673)">
        <path d="M196.734,449.906C196.734,475.664 175.852,496.547 150.094,496.547C124.336,496.547 103.453,475.664 103.453,449.906C103.453,424.148 124.336,403.266 150.094,403.266C175.852,403.266 196.734,424.148 196.734,449.906" style="fill:#9500fe;fill-opacity:0.4;fill-rule:nonzero;stroke:#000;stroke-width:0.42px;stroke-linejoin:round;stroke-miterlimit:2;"/>
    </g>
    <g transform="matrix(1.56884,0,0,1.56884,5.25073,55.0448)">
        <circle cx="112.58" cy="55.24" r="1.73" style="fill:#ffb900;"/>
    </g>
    <g transform="matrix(1.56884,0,0,1.56884,-2.57387,103.834)">
        <circle cx="112.58" cy="55.24" r="1.73" style="fill:#ffb900;"/>
    </g>
    <g transform="matrix(1.56884,0,0,1.56884,231.342,141.133)">
        <circle cx="112.58" cy="55.24" r="1.73" style="fill:#ffb900;"/>
    </g>
    <g transform="matrix(1.56884,0,0,1.56884,239.227,92.0221)">
        <circle cx="112.58" cy="55.24" r="1.73" style="fill:#ffb900;"/>
    </g>
</svg>
