<?xml version="1.0" encoding="UTF-8"?>
<svg xmlns="http://www.w3.org/2000/svg" xmlns:xlink="http://www.w3.org/1999/xlink" width="600pt" height="600pt" viewBox="0 0 600 600" version="1.1">
<g id="surface42221">
<rect x="0" y="0" width="600" height="600" style="fill:rgb(0%,0%,0%);fill-opacity:1;stroke:none;"/>
<path style=" stroke:none;fill-rule:nonzero;fill:rgb(0%,63.921569%,100%);fill-opacity:1;" d="M 442.886719 488.894531 C 442.886719 514.652344 422.003906 535.535156 396.246094 535.535156 C 370.488281 535.535156 349.605469 514.652344 349.605469 488.894531 C 349.605469 463.136719 370.488281 442.253906 396.246094 442.253906 C 422.003906 442.253906 442.886719 463.136719 442.886719 488.894531 "/>
<path style=" stroke:none;fill-rule:nonzero;fill:rgb(35.686275%,21.176471%,91.372549%);fill-opacity:1;" d="M 350.34375 465.503906 C 345.40625 475.199219 343.664062 486.207031 345.363281 496.953125 L 195.996094 473.292969 C 200.933594 463.601562 202.675781 452.59375 200.976562 441.847656 Z M 350.34375 465.503906 "/>
<path style=" stroke:none;fill-rule:nonzero;fill:rgb(58.431373%,0%,100%);fill-opacity:1;" d="M 196.734375 449.90625 C 196.734375 475.664062 175.851562 496.546875 150.09375 496.546875 C 124.335938 496.546875 103.453125 475.664062 103.453125 449.90625 C 103.453125 424.148438 124.335938 403.265625 150.09375 403.265625 C 175.851562 403.265625 196.734375 424.148438 196.734375 449.90625 "/>
<path style=" stroke:none;fill-rule:nonzero;fill:rgb(81.568627%,9.411765%,56.078431%);fill-opacity:1;" d="M 158.152344 399.023438 C 147.40625 397.324219 136.398438 399.066406 126.707031 404.003906 L 103.046875 254.636719 C 113.792969 256.335938 124.800781 254.59375 134.496094 249.65625 Z M 158.152344 399.023438 "/>
<path style=" stroke:none;fill-rule:nonzero;fill:rgb(100%,0%,0%);fill-opacity:1;" d="M 157.746094 203.753906 C 157.746094 229.511719 136.863281 250.394531 111.105469 250.394531 C 85.347656 250.394531 64.464844 229.511719 64.464844 203.753906 C 64.464844 177.996094 85.347656 157.113281 111.105469 157.113281 C 136.863281 157.113281 157.746094 177.996094 157.746094 203.753906 "/>
<path style=" stroke:none;fill-rule:nonzero;fill:rgb(95.686275%,46.27451%,0.392157%);fill-opacity:1;" d="M 161.988281 195.695312 C 160.285156 184.949219 155.226562 175.019531 147.535156 167.328125 L 282.28125 98.667969 C 283.984375 109.414062 289.042969 119.34375 296.738281 127.039062 Z M 161.988281 195.695312 "/>
<path style=" stroke:none;fill-rule:nonzero;fill:rgb(100%,79.215686%,0%);fill-opacity:1;" d="M 379.804688 90.609375 C 379.804688 116.367188 358.921875 137.25 333.164062 137.25 C 307.40625 137.25 286.523438 116.367188 286.523438 90.609375 C 286.523438 64.851562 307.40625 43.96875 333.164062 43.96875 C 358.921875 43.96875 379.804688 64.851562 379.804688 90.609375 "/>
<path style=" stroke:none;fill-rule:nonzero;fill:rgb(92.156863%,89.019608%,1.960784%);fill-opacity:1;" d="M 356.550781 136.511719 C 366.246094 131.570312 374.125 123.691406 379.066406 113.996094 L 486.003906 220.933594 C 476.308594 225.875 468.429688 233.753906 463.488281 243.449219 Z M 356.550781 136.511719 "/>
<path style=" stroke:none;fill-rule:nonzero;fill:rgb(39.215686%,100%,0%);fill-opacity:1;" d="M 556.03125 266.835938 C 556.03125 292.59375 535.148438 313.476562 509.390625 313.476562 C 483.632812 313.476562 462.75 292.59375 462.75 266.835938 C 462.75 241.078125 483.632812 220.195312 509.390625 220.195312 C 535.148438 220.195312 556.03125 241.078125 556.03125 266.835938 "/>
<path style=" stroke:none;fill-rule:nonzero;fill:rgb(18.823529%,72.156863%,45.098039%);fill-opacity:1;" d="M 472.960938 303.261719 C 480.65625 310.957031 490.585938 316.015625 501.332031 317.71875 L 432.671875 452.464844 C 424.980469 444.773438 415.050781 439.714844 404.304688 438.011719 Z M 472.960938 303.261719 "/>
</g>
</svg>
