<?xml version="1.0" encoding="UTF-8"?>
<svg xmlns="http://www.w3.org/2000/svg" xmlns:xlink="http://www.w3.org/1999/xlink" width="600pt" height="600pt" viewBox="0 0 600 600" version="1.1">
<g id="surface42182">
<path style=" stroke:none;fill-rule:nonzero;fill:rgb(0%,63.921569%,100%);fill-opacity:1;" d="M 442.886719 488.894531 C 442.886719 514.652344 422.003906 535.535156 396.246094 535.535156 C 370.488281 535.535156 349.605469 514.652344 349.605469 488.894531 C 349.605469 463.136719 370.488281 442.253906 396.246094 442.253906 C 422.003906 442.253906 442.886719 463.136719 442.886719 488.894531 "/>
<path style=" stroke:none;fill-rule:nonzero;fill:rgb(35.686275%,21.176471%,91.372549%);fill-opacity:1;" d="M 350.34375 465.503906 C 345.40625 475.199219 343.664062 486.207031 345.363281 496.953125 L 195.996094 473.292969 C 200.933594 463.601562 202.675781 452.59375 200.976562 441.847656 Z M 350.34375 465.503906 "/>
<path style=" stroke:none;fill-rule:nonzero;fill:rgb(34.117647%,75.686275%,8.235294%);fill-opacity:1;" d="M 404.304688 438.011719 C 393.558594 436.308594 382.550781 438.054688 372.859375 442.992188 L 343.902344 260.164062 L 376.964844 265.402344 L 404.304688 438.011719 "/>
<path style=" stroke:none;fill-rule:nonzero;fill:rgb(34.117647%,75.686275%,8.235294%);fill-opacity:1;" d="M 337.550781 220.082031 L 370.617188 225.316406 L 356.550781 136.511719 C 346.859375 141.449219 335.851562 143.195312 325.105469 141.492188 L 337.550781 220.082031 "/>
<path style=" stroke:none;fill-rule:nonzero;fill:rgb(58.431373%,0%,100%);fill-opacity:1;" d="M 196.734375 449.90625 C 196.734375 475.664062 175.851562 496.546875 150.09375 496.546875 C 124.335938 496.546875 103.453125 475.664062 103.453125 449.90625 C 103.453125 424.148438 124.335938 403.265625 150.09375 403.265625 C 175.851562 403.265625 196.734375 424.148438 196.734375 449.90625 "/>
<path style=" stroke:none;fill-rule:nonzero;fill:rgb(81.568627%,9.411765%,56.078431%);fill-opacity:1;" d="M 158.152344 399.023438 C 147.40625 397.324219 136.398438 399.066406 126.707031 404.003906 L 103.046875 254.636719 C 113.792969 256.335938 124.800781 254.59375 134.496094 249.65625 Z M 158.152344 399.023438 "/>
<path style=" stroke:none;fill-rule:nonzero;fill:rgb(32.941176%,58.823529%,74.509804%);fill-opacity:1;" d="M 200.976562 441.847656 C 199.273438 431.101562 194.214844 421.171875 186.519531 413.480469 L 351.453125 329.441406 L 356.691406 362.507812 L 200.976562 441.847656 "/>
<path style=" stroke:none;fill-rule:nonzero;fill:rgb(32.941176%,58.823529%,74.509804%);fill-opacity:1;" d="M 387.613281 311.019531 L 392.847656 344.082031 L 472.960938 303.261719 C 465.269531 295.570312 460.210938 285.640625 458.507812 274.894531 L 387.613281 311.019531 "/>
<path style=" stroke:none;fill-rule:nonzero;fill:rgb(100%,0%,0%);fill-opacity:1;" d="M 157.746094 203.753906 C 157.746094 229.511719 136.863281 250.394531 111.105469 250.394531 C 85.347656 250.394531 64.464844 229.511719 64.464844 203.753906 C 64.464844 177.996094 85.347656 157.113281 111.105469 157.113281 C 136.863281 157.113281 157.746094 177.996094 157.746094 203.753906 "/>
<path style=" stroke:none;fill-rule:nonzero;fill:rgb(95.686275%,46.27451%,0.392157%);fill-opacity:1;" d="M 161.988281 195.695312 C 160.285156 184.949219 155.226562 175.019531 147.535156 167.328125 L 282.28125 98.667969 C 283.984375 109.414062 289.042969 119.34375 296.738281 127.039062 Z M 161.988281 195.695312 "/>
<path style=" stroke:none;fill-rule:nonzero;fill:rgb(65.490196%,18.823529%,72.156863%);fill-opacity:1;" d="M 134.496094 249.65625 C 144.1875 244.714844 152.070312 236.835938 157.007812 227.140625 L 287.898438 358.03125 L 258.070312 373.230469 L 134.496094 249.65625 "/>
<path style=" stroke:none;fill-rule:nonzero;fill:rgb(65.490196%,18.823529%,72.156863%);fill-opacity:1;" d="M 316.59375 386.730469 L 286.765625 401.925781 L 350.34375 465.503906 C 355.285156 455.8125 363.164062 447.929688 372.859375 442.992188 L 316.59375 386.730469 "/>
<path style=" stroke:none;fill-rule:nonzero;fill:rgb(100%,79.215686%,0%);fill-opacity:1;" d="M 379.804688 90.609375 C 379.804688 116.367188 358.921875 137.25 333.164062 137.25 C 307.40625 137.25 286.523438 116.367188 286.523438 90.609375 C 286.523438 64.851562 307.40625 43.96875 333.164062 43.96875 C 358.921875 43.96875 379.804688 64.851562 379.804688 90.609375 "/>
<path style=" stroke:none;fill-rule:nonzero;fill:rgb(92.156863%,89.019608%,1.960784%);fill-opacity:1;" d="M 356.550781 136.511719 C 366.246094 131.570312 374.125 123.691406 379.066406 113.996094 L 486.003906 220.933594 C 476.308594 225.875 468.429688 233.753906 463.488281 243.449219 Z M 356.550781 136.511719 "/>
<path style=" stroke:none;fill-rule:nonzero;fill:rgb(80.784314%,23.921569%,10.196078%);fill-opacity:1;" d="M 296.738281 127.039062 C 304.429688 134.730469 314.359375 139.789062 325.105469 141.492188 L 241.066406 306.421875 L 217.394531 282.75 L 296.738281 127.039062 "/>
<path style=" stroke:none;fill-rule:nonzero;fill:rgb(80.784314%,23.921569%,10.196078%);fill-opacity:1;" d="M 222.644531 342.582031 L 198.972656 318.910156 L 158.152344 399.023438 C 168.898438 400.726562 178.828125 405.785156 186.519531 413.480469 L 222.644531 342.582031 "/>
<path style=" stroke:none;fill-rule:nonzero;fill:rgb(39.215686%,100%,0%);fill-opacity:1;" d="M 556.03125 266.835938 C 556.03125 292.59375 535.148438 313.476562 509.390625 313.476562 C 483.632812 313.476562 462.75 292.59375 462.75 266.835938 C 462.75 241.078125 483.632812 220.195312 509.390625 220.195312 C 535.148438 220.195312 556.03125 241.078125 556.03125 266.835938 "/>
<path style=" stroke:none;fill-rule:nonzero;fill:rgb(18.823529%,72.156863%,45.098039%);fill-opacity:1;" d="M 472.960938 303.261719 C 480.65625 310.957031 490.585938 316.015625 501.332031 317.71875 L 432.671875 452.464844 C 424.980469 444.773438 415.050781 439.714844 404.304688 438.011719 Z M 472.960938 303.261719 "/>
<path style=" stroke:none;fill-rule:nonzero;fill:rgb(85.882353%,69.803922%,6.27451%);fill-opacity:1;" d="M 463.488281 243.449219 C 458.550781 253.140625 456.804688 264.148438 458.507812 274.894531 L 275.679688 245.9375 L 290.878906 216.109375 L 463.488281 243.449219 "/>
<path style=" stroke:none;fill-rule:nonzero;fill:rgb(85.882353%,69.803922%,6.27451%);fill-opacity:1;" d="M 235.597656 239.589844 L 250.792969 209.761719 L 161.988281 195.695312 C 163.691406 206.441406 161.945312 217.449219 157.007812 227.140625 L 235.597656 239.589844 "/>
</g>
</svg>
