<?xml version="1.0" encoding="UTF-8"?>
<svg xmlns="http://www.w3.org/2000/svg" xmlns:xlink="http://www.w3.org/1999/xlink" width="600pt" height="120pt" viewBox="0 0 600 120" version="1.1">
<defs>
<g>
<symbol overflow="visible" id="glyph5605900-0">
<path style="stroke:none;" d="M 3.601562 17 L 3.601562 -72.5 L 56.398438 -72.5 L 56.398438 17 Z M 8.800781 11.800781 L 51.199219 11.800781 L 51.199219 -67.300781 L 8.800781 -67.300781 Z M 29.648438 -52.699219 C 27.515625 -52.699219 25.785156 -52.160156 24.449219 -51.074219 C 23.117188 -49.992188 22.484375 -48.316406 22.550781 -46.050781 L 16.800781 -46.050781 C 16.800781 -51.117188 18.140625 -54.417969 20.824219 -55.949219 C 23.507812 -57.484375 26.25 -58.25 29.050781 -58.25 C 33.71875 -58.25 37.242188 -57.292969 39.625 -55.375 C 42.007812 -53.457031 43.199219 -50.75 43.199219 -47.25 C 43.199219 -45.484375 42.917969 -43.910156 42.351562 -42.523438 C 41.785156 -41.140625 41.074219 -39.925781 40.226562 -38.875 C 39.375 -37.824219 38.183594 -36.515625 36.648438 -34.949219 L 34.648438 -32.898438 C 33.683594 -32.066406 33.035156 -31.390625 32.699219 -30.875 C 32.367188 -30.359375 32.199219 -29.617188 32.199219 -28.648438 L 32.199219 -24.550781 L 26.5 -24.550781 L 26.5 -28.648438 C 26.5 -29.882812 26.542969 -30.792969 26.625 -31.375 C 26.707031 -31.957031 26.949219 -32.582031 27.351562 -33.25 C 28.082031 -34.484375 29.464844 -35.984375 31.5 -37.75 C 32.734375 -38.851562 33.707031 -39.785156 34.425781 -40.550781 C 35.140625 -41.316406 35.75 -42.199219 36.25 -43.199219 C 36.75 -44.199219 37 -45.300781 37 -46.5 C 37 -48.464844 36.332031 -49.992188 35 -51.074219 C 33.667969 -52.15625 31.882812 -52.699219 29.648438 -52.699219 Z M 34.550781 -16.75 C 34.550781 -15.351562 34.050781 -14.148438 33.050781 -13.148438 C 32.050781 -12.148438 30.832031 -11.648438 29.398438 -11.648438 C 28 -11.648438 26.800781 -12.148438 25.800781 -13.148438 C 24.800781 -14.148438 24.300781 -15.351562 24.300781 -16.75 C 24.300781 -18.183594 24.800781 -19.398438 25.800781 -20.398438 C 26.800781 -21.398438 28 -21.898438 29.398438 -21.898438 C 30.832031 -21.898438 32.050781 -21.398438 33.050781 -20.398438 C 34.050781 -19.398438 34.550781 -18.183594 34.550781 -16.75 Z M 23.101562 -10.648438 C 24.5 -10.648438 25.707031 -10.140625 26.726562 -9.125 C 27.742188 -8.109375 28.25 -6.898438 28.25 -5.5 C 28.25 -4.101562 27.742188 -2.898438 26.726562 -1.898438 C 25.707031 -0.898438 24.5 -0.398438 23.101562 -0.398438 C 21.699219 -0.398438 20.5 -0.898438 19.5 -1.898438 C 18.5 -2.898438 18 -4.101562 18 -5.5 C 18 -6.898438 18.5 -8.109375 19.5 -9.125 C 20.5 -10.140625 21.699219 -10.648438 23.101562 -10.648438 Z M 35.75 -10.648438 C 37.148438 -10.648438 38.351562 -10.140625 39.351562 -9.125 C 40.351562 -8.109375 40.851562 -6.898438 40.851562 -5.5 C 40.851562 -4.101562 40.351562 -2.898438 39.351562 -1.898438 C 38.351562 -0.898438 37.148438 -0.398438 35.75 -0.398438 C 34.316406 -0.398438 33.101562 -0.898438 32.101562 -1.898438 C 31.101562 -2.898438 30.601562 -4.101562 30.601562 -5.5 C 30.601562 -6.898438 31.101562 -8.109375 32.101562 -9.125 C 33.101562 -10.140625 34.316406 -10.648438 35.75 -10.648438 Z M 35.75 -10.648438 "/>
</symbol>
<symbol overflow="visible" id="glyph5605900-1">
<path style="stroke:none;" d="M 47.199219 -39 C 48.765625 -39 50.183594 -38.574219 51.449219 -37.726562 C 52.714844 -36.875 53.707031 -35.757812 54.425781 -34.375 C 55.140625 -32.992188 55.5 -31.566406 55.5 -30.101562 C 55.5 -28.601562 55.140625 -27.175781 54.425781 -25.824219 C 53.707031 -24.476562 52.714844 -23.382812 51.449219 -22.550781 C 50.183594 -21.71875 48.765625 -21.300781 47.199219 -21.300781 C 45.964844 -21.300781 44.917969 -21.464844 44.050781 -21.800781 C 43.183594 -22.132812 42.484375 -22.550781 41.949219 -23.050781 C 41.417969 -23.550781 40.800781 -24.234375 40.101562 -25.101562 C 39.367188 -26 38.714844 -26.714844 38.148438 -27.25 C 37.582031 -27.785156 36.839844 -28.257812 35.925781 -28.675781 C 35.007812 -29.09375 33.882812 -29.367188 32.550781 -29.5 C 32.449219 -29 32.214844 -28.566406 31.851562 -28.199219 C 31.484375 -27.832031 31.050781 -27.582031 30.550781 -27.449219 C 30.785156 -25.550781 31.285156 -24.074219 32.050781 -23.023438 C 32.816406 -21.972656 33.851562 -20.949219 35.148438 -19.949219 C 36.015625 -19.25 36.707031 -18.632812 37.226562 -18.101562 C 37.742188 -17.566406 38.167969 -16.867188 38.5 -16 C 38.832031 -15.132812 39 -14.066406 39 -12.800781 C 39 -11.234375 38.574219 -9.816406 37.726562 -8.550781 C 36.875 -7.285156 35.757812 -6.292969 34.375 -5.574219 C 32.992188 -4.859375 31.566406 -4.5 30.101562 -4.5 C 28.601562 -4.5 27.175781 -4.859375 25.824219 -5.574219 C 24.476562 -6.292969 23.382812 -7.285156 22.550781 -8.550781 C 21.71875 -9.816406 21.300781 -11.234375 21.300781 -12.800781 C 21.300781 -14.035156 21.464844 -15.082031 21.800781 -15.949219 C 22.132812 -16.816406 22.550781 -17.515625 23.050781 -18.050781 C 23.550781 -18.582031 24.234375 -19.199219 25.101562 -19.898438 C 26 -20.632812 26.714844 -21.285156 27.25 -21.851562 C 27.785156 -22.417969 28.257812 -23.160156 28.675781 -24.074219 C 29.09375 -24.992188 29.367188 -26.117188 29.5 -27.449219 C 29 -27.550781 28.566406 -27.785156 28.199219 -28.148438 C 27.832031 -28.515625 27.582031 -28.949219 27.449219 -29.449219 C 25.550781 -29.214844 24.074219 -28.714844 23.023438 -27.949219 C 21.972656 -27.183594 20.949219 -26.148438 19.949219 -24.851562 C 19.25 -23.984375 18.632812 -23.292969 18.101562 -22.773438 C 17.566406 -22.257812 16.867188 -21.832031 16 -21.5 C 15.132812 -21.167969 14.066406 -21 12.800781 -21 C 11.234375 -21 9.816406 -21.425781 8.550781 -22.273438 C 7.285156 -23.125 6.292969 -24.242188 5.574219 -25.625 C 4.859375 -27.007812 4.5 -28.433594 4.5 -29.898438 C 4.5 -31.398438 4.859375 -32.824219 5.574219 -34.175781 C 6.292969 -35.523438 7.285156 -36.617188 8.550781 -37.449219 C 9.816406 -38.28125 11.234375 -38.699219 12.800781 -38.699219 C 14.035156 -38.699219 15.082031 -38.535156 15.949219 -38.199219 C 16.816406 -37.867188 17.515625 -37.449219 18.050781 -36.949219 C 18.582031 -36.449219 19.199219 -35.765625 19.898438 -34.898438 C 20.632812 -34 21.285156 -33.285156 21.851562 -32.75 C 22.417969 -32.214844 23.160156 -31.742188 24.074219 -31.324219 C 24.992188 -30.90625 26.117188 -30.632812 27.449219 -30.5 C 27.550781 -31 27.785156 -31.433594 28.148438 -31.800781 C 28.515625 -32.167969 28.949219 -32.417969 29.449219 -32.550781 C 29.214844 -34.449219 28.714844 -35.925781 27.949219 -36.976562 C 27.183594 -38.027344 26.148438 -39.050781 24.851562 -40.050781 C 23.984375 -40.75 23.292969 -41.367188 22.773438 -41.898438 C 22.257812 -42.433594 21.832031 -43.132812 21.5 -44 C 21.167969 -44.867188 21 -45.933594 21 -47.199219 C 21 -48.765625 21.425781 -50.183594 22.273438 -51.449219 C 23.125 -52.714844 24.242188 -53.707031 25.625 -54.425781 C 27.007812 -55.140625 28.433594 -55.5 29.898438 -55.5 C 31.398438 -55.5 32.824219 -55.140625 34.175781 -54.425781 C 35.523438 -53.707031 36.617188 -52.714844 37.449219 -51.449219 C 38.28125 -50.183594 38.699219 -48.765625 38.699219 -47.199219 C 38.699219 -45.964844 38.535156 -44.917969 38.199219 -44.050781 C 37.867188 -43.183594 37.449219 -42.484375 36.949219 -41.949219 C 36.449219 -41.417969 35.765625 -40.800781 34.898438 -40.101562 C 34 -39.367188 33.285156 -38.714844 32.75 -38.148438 C 32.214844 -37.582031 31.742188 -36.839844 31.324219 -35.925781 C 30.90625 -35.007812 30.632812 -33.882812 30.5 -32.550781 C 31 -32.449219 31.433594 -32.214844 31.800781 -31.851562 C 32.167969 -31.484375 32.417969 -31.050781 32.550781 -30.550781 C 34.449219 -30.785156 35.925781 -31.285156 36.976562 -32.050781 C 38.027344 -32.816406 39.050781 -33.851562 40.050781 -35.148438 C 40.75 -36.015625 41.367188 -36.707031 41.898438 -37.226562 C 42.433594 -37.742188 43.132812 -38.167969 44 -38.5 C 44.867188 -38.832031 45.933594 -39 47.199219 -39 Z M 47.199219 -39 "/>
</symbol>
<symbol overflow="visible" id="glyph5605900-2">
<path style="stroke:none;" d="M 47.199219 -40 C 48.867188 -40 50.417969 -39.542969 51.851562 -38.625 C 53.285156 -37.707031 54.417969 -36.492188 55.25 -34.976562 C 56.082031 -33.457031 56.5 -31.832031 56.5 -30.101562 C 56.5 -28.332031 56.082031 -26.699219 55.25 -25.199219 C 54.417969 -23.699219 53.285156 -22.507812 51.851562 -21.625 C 50.417969 -20.742188 48.867188 -20.300781 47.199219 -20.300781 C 45.601562 -20.300781 44.285156 -20.492188 43.25 -20.875 C 42.214844 -21.257812 41.390625 -21.734375 40.773438 -22.300781 C 40.15625 -22.867188 39.464844 -23.617188 38.699219 -24.550781 C 37.867188 -25.617188 37.066406 -26.457031 36.300781 -27.074219 C 35.535156 -27.691406 34.5 -28.132812 33.199219 -28.398438 C 32.898438 -27.832031 32.449219 -27.351562 31.851562 -26.949219 C 32.183594 -25.683594 32.667969 -24.648438 33.300781 -23.851562 C 33.933594 -23.050781 34.785156 -22.199219 35.851562 -21.300781 C 36.785156 -20.46875 37.523438 -19.734375 38.074219 -19.101562 C 38.625 -18.46875 39.082031 -17.640625 39.449219 -16.625 C 39.816406 -15.609375 40 -14.332031 40 -12.800781 C 40 -11.132812 39.542969 -9.582031 38.625 -8.148438 C 37.707031 -6.714844 36.492188 -5.582031 34.976562 -4.75 C 33.457031 -3.917969 31.832031 -3.5 30.101562 -3.5 C 28.332031 -3.5 26.699219 -3.917969 25.199219 -4.75 C 23.699219 -5.582031 22.507812 -6.714844 21.625 -8.148438 C 20.742188 -9.582031 20.300781 -11.132812 20.300781 -12.800781 C 20.300781 -14.398438 20.492188 -15.714844 20.875 -16.75 C 21.257812 -17.785156 21.734375 -18.609375 22.300781 -19.226562 C 22.867188 -19.84375 23.617188 -20.535156 24.550781 -21.300781 C 25.617188 -22.132812 26.457031 -22.933594 27.074219 -23.699219 C 27.691406 -24.464844 28.132812 -25.5 28.398438 -26.800781 C 27.832031 -27.101562 27.351562 -27.550781 26.949219 -28.148438 C 25.683594 -27.816406 24.648438 -27.332031 23.851562 -26.699219 C 23.050781 -26.066406 22.199219 -25.214844 21.300781 -24.148438 C 20.46875 -23.214844 19.734375 -22.476562 19.101562 -21.925781 C 18.46875 -21.375 17.640625 -20.917969 16.625 -20.550781 C 15.609375 -20.183594 14.332031 -20 12.800781 -20 C 11.132812 -20 9.582031 -20.457031 8.148438 -21.375 C 6.714844 -22.292969 5.582031 -23.507812 4.75 -25.023438 C 3.917969 -26.542969 3.5 -28.167969 3.5 -29.898438 C 3.5 -31.667969 3.917969 -33.300781 4.75 -34.800781 C 5.582031 -36.300781 6.714844 -37.492188 8.148438 -38.375 C 9.582031 -39.257812 11.132812 -39.699219 12.800781 -39.699219 C 14.398438 -39.699219 15.714844 -39.507812 16.75 -39.125 C 17.785156 -38.742188 18.609375 -38.265625 19.226562 -37.699219 C 19.84375 -37.132812 20.535156 -36.382812 21.300781 -35.449219 C 22.132812 -34.382812 22.933594 -33.542969 23.699219 -32.925781 C 24.464844 -32.308594 25.5 -31.867188 26.800781 -31.601562 C 27.167969 -32.265625 27.667969 -32.785156 28.300781 -33.148438 C 28 -34.417969 27.535156 -35.441406 26.898438 -36.226562 C 26.265625 -37.007812 25.398438 -37.832031 24.300781 -38.699219 C 23.332031 -39.464844 22.566406 -40.167969 22 -40.800781 C 21.433594 -41.433594 20.957031 -42.265625 20.574219 -43.300781 C 20.191406 -44.332031 20 -45.632812 20 -47.199219 C 20 -48.867188 20.457031 -50.417969 21.375 -51.851562 C 22.292969 -53.285156 23.507812 -54.417969 25.023438 -55.25 C 26.542969 -56.082031 28.167969 -56.5 29.898438 -56.5 C 31.667969 -56.5 33.300781 -56.082031 34.800781 -55.25 C 36.300781 -54.417969 37.492188 -53.285156 38.375 -51.851562 C 39.257812 -50.417969 39.699219 -48.867188 39.699219 -47.199219 C 39.699219 -45.667969 39.515625 -44.390625 39.148438 -43.375 C 38.78125 -42.359375 38.332031 -41.535156 37.800781 -40.898438 C 37.265625 -40.265625 36.550781 -39.550781 35.648438 -38.75 C 34.617188 -37.851562 33.785156 -37.007812 33.148438 -36.226562 C 32.515625 -35.441406 32.050781 -34.398438 31.75 -33.101562 C 32.25 -32.800781 32.683594 -32.382812 33.050781 -31.851562 C 34.316406 -32.183594 35.351562 -32.667969 36.148438 -33.300781 C 36.949219 -33.933594 37.800781 -34.785156 38.699219 -35.851562 C 39.53125 -36.785156 40.265625 -37.523438 40.898438 -38.074219 C 41.53125 -38.625 42.359375 -39.082031 43.375 -39.449219 C 44.390625 -39.816406 45.667969 -40 47.199219 -40 Z M 47.199219 -40 "/>
</symbol>
<symbol overflow="visible" id="glyph5605900-3">
<path style="stroke:none;" d="M 51.601562 -33.898438 C 52.667969 -33.898438 53.582031 -33.515625 54.351562 -32.75 C 55.117188 -31.984375 55.5 -31.066406 55.5 -30 C 55.5 -28.964844 55.117188 -28.058594 54.351562 -27.273438 C 53.582031 -26.492188 52.667969 -26.101562 51.601562 -26.101562 C 51.367188 -26.101562 51.050781 -26.132812 50.648438 -26.199219 C 50.484375 -25.300781 50.042969 -24.542969 49.324219 -23.925781 C 48.609375 -23.308594 47.765625 -23 46.800781 -23 C 45.765625 -23 44.859375 -23.390625 44.074219 -24.175781 C 43.292969 -24.957031 42.898438 -25.867188 42.898438 -26.898438 C 42.898438 -27.667969 43.117188 -28.367188 43.550781 -29 L 31 -29 L 31 -16.449219 C 31.667969 -16.882812 32.367188 -17.101562 33.101562 -17.101562 C 34.167969 -17.101562 35.082031 -16.714844 35.851562 -15.949219 C 36.617188 -15.183594 37 -14.265625 37 -13.199219 C 37 -12.234375 36.691406 -11.390625 36.074219 -10.675781 C 35.457031 -9.957031 34.699219 -9.515625 33.800781 -9.351562 C 33.867188 -8.949219 33.898438 -8.632812 33.898438 -8.398438 C 33.898438 -7.367188 33.515625 -6.457031 32.75 -5.675781 C 31.984375 -4.890625 31.066406 -4.5 30 -4.5 C 28.964844 -4.5 28.058594 -4.890625 27.273438 -5.675781 C 26.492188 -6.457031 26.101562 -7.367188 26.101562 -8.398438 C 26.101562 -8.632812 26.132812 -8.949219 26.199219 -9.351562 C 25.300781 -9.515625 24.542969 -9.957031 23.925781 -10.675781 C 23.308594 -11.390625 23 -12.234375 23 -13.199219 C 23 -14.265625 23.390625 -15.183594 24.175781 -15.949219 C 24.957031 -16.714844 25.867188 -17.101562 26.898438 -17.101562 C 27.667969 -17.101562 28.367188 -16.882812 29 -16.449219 L 29 -29 L 16.449219 -29 C 16.882812 -28.367188 17.101562 -27.667969 17.101562 -26.898438 C 17.101562 -25.867188 16.714844 -24.957031 15.949219 -24.175781 C 15.183594 -23.390625 14.265625 -23 13.199219 -23 C 12.234375 -23 11.390625 -23.308594 10.675781 -23.925781 C 9.957031 -24.542969 9.515625 -25.300781 9.351562 -26.199219 C 8.949219 -26.132812 8.632812 -26.101562 8.398438 -26.101562 C 7.367188 -26.101562 6.457031 -26.492188 5.675781 -27.273438 C 4.890625 -28.058594 4.5 -28.964844 4.5 -30 C 4.5 -31.066406 4.890625 -31.984375 5.675781 -32.75 C 6.457031 -33.515625 7.367188 -33.898438 8.398438 -33.898438 C 8.632812 -33.898438 8.949219 -33.867188 9.351562 -33.800781 C 9.515625 -34.699219 9.957031 -35.457031 10.675781 -36.074219 C 11.390625 -36.691406 12.234375 -37 13.199219 -37 C 14.265625 -37 15.183594 -36.617188 15.949219 -35.851562 C 16.714844 -35.082031 17.101562 -34.167969 17.101562 -33.101562 C 17.101562 -32.367188 16.882812 -31.667969 16.449219 -31 L 29 -31 L 29 -43.550781 C 28.367188 -43.117188 27.667969 -42.898438 26.898438 -42.898438 C 25.867188 -42.898438 24.957031 -43.292969 24.175781 -44.074219 C 23.390625 -44.859375 23 -45.765625 23 -46.800781 C 23 -47.765625 23.308594 -48.609375 23.925781 -49.324219 C 24.542969 -50.042969 25.300781 -50.484375 26.199219 -50.648438 C 26.132812 -51.050781 26.101562 -51.367188 26.101562 -51.601562 C 26.101562 -52.667969 26.492188 -53.582031 27.273438 -54.351562 C 28.058594 -55.117188 28.964844 -55.5 30 -55.5 C 31.066406 -55.5 31.984375 -55.117188 32.75 -54.351562 C 33.515625 -53.582031 33.898438 -52.667969 33.898438 -51.601562 C 33.898438 -51.367188 33.867188 -51.050781 33.800781 -50.648438 C 34.699219 -50.484375 35.457031 -50.042969 36.074219 -49.324219 C 36.691406 -48.609375 37 -47.765625 37 -46.800781 C 37 -45.765625 36.617188 -44.859375 35.851562 -44.074219 C 35.082031 -43.292969 34.167969 -42.898438 33.101562 -42.898438 C 32.332031 -42.898438 31.632812 -43.117188 31 -43.550781 L 31 -31 L 43.550781 -31 C 43.117188 -31.667969 42.898438 -32.367188 42.898438 -33.101562 C 42.898438 -34.167969 43.292969 -35.082031 44.074219 -35.851562 C 44.859375 -36.617188 45.765625 -37 46.800781 -37 C 47.765625 -37 48.609375 -36.691406 49.324219 -36.074219 C 50.042969 -35.457031 50.484375 -34.699219 50.648438 -33.800781 C 51.050781 -33.867188 51.367188 -33.898438 51.601562 -33.898438 Z M 51.601562 -33.898438 "/>
</symbol>
<symbol overflow="visible" id="glyph5605900-4">
<path style="stroke:none;" d="M 57.101562 -28.300781 L 55.800781 -27.101562 L 35 -30.101562 L 45.199219 -11.699219 L 45.199219 -10.300781 L 35 -6.300781 L 33.601562 -6.898438 L 30.800781 -28.300781 L 15 -15.101562 L 13.398438 -15.101562 L 8 -22.699219 L 8.800781 -24.101562 L 28.398438 -32.101562 L 8.800781 -41.699219 L 8.398438 -43.300781 L 15 -51.101562 L 16.398438 -51.101562 L 30.699219 -36.300781 L 34.601562 -57.800781 L 36 -58.398438 L 45.199219 -55.5 L 45.699219 -53.300781 L 35.398438 -34.5 L 56.199219 -38.101562 L 57.101562 -37.5 Z M 57.101562 -28.300781 "/>
</symbol>
<symbol overflow="visible" id="glyph5605901-0">
<path style="stroke:none;" d="M 0.359375 1.699219 L 0.359375 -7.25 L 5.640625 -7.25 L 5.640625 1.699219 Z M 0.878906 1.179688 L 5.121094 1.179688 L 5.121094 -6.730469 L 0.878906 -6.730469 Z M 2.964844 -5.269531 C 2.75 -5.269531 2.578125 -5.214844 2.445312 -5.109375 C 2.3125 -5 2.25 -4.832031 2.253906 -4.605469 L 1.679688 -4.605469 C 1.679688 -5.113281 1.8125 -5.441406 2.082031 -5.59375 C 2.351562 -5.746094 2.625 -5.824219 2.90625 -5.824219 C 3.371094 -5.824219 3.722656 -5.730469 3.960938 -5.539062 C 4.199219 -5.347656 4.320312 -5.074219 4.320312 -4.726562 C 4.320312 -4.550781 4.292969 -4.390625 4.234375 -4.253906 C 4.179688 -4.113281 4.109375 -3.992188 4.023438 -3.886719 C 3.9375 -3.78125 3.816406 -3.652344 3.664062 -3.496094 L 3.464844 -3.289062 C 3.367188 -3.207031 3.304688 -3.140625 3.269531 -3.085938 C 3.238281 -3.035156 3.21875 -2.960938 3.21875 -2.863281 L 3.21875 -2.453125 L 2.648438 -2.453125 L 2.648438 -2.863281 C 2.648438 -2.988281 2.652344 -3.078125 2.664062 -3.136719 C 2.671875 -3.195312 2.695312 -3.257812 2.734375 -3.324219 C 2.808594 -3.449219 2.945312 -3.597656 3.148438 -3.773438 C 3.273438 -3.882812 3.371094 -3.976562 3.441406 -4.054688 C 3.515625 -4.132812 3.574219 -4.21875 3.625 -4.320312 C 3.675781 -4.421875 3.699219 -4.53125 3.699219 -4.648438 C 3.699219 -4.847656 3.632812 -5 3.5 -5.109375 C 3.367188 -5.214844 3.1875 -5.269531 2.964844 -5.269531 Z M 3.453125 -1.675781 C 3.453125 -1.535156 3.40625 -1.414062 3.304688 -1.316406 C 3.203125 -1.214844 3.082031 -1.164062 2.941406 -1.164062 C 2.800781 -1.164062 2.679688 -1.214844 2.578125 -1.316406 C 2.480469 -1.414062 2.429688 -1.535156 2.429688 -1.675781 C 2.429688 -1.820312 2.480469 -1.941406 2.578125 -2.039062 C 2.679688 -2.140625 2.800781 -2.191406 2.941406 -2.191406 C 3.082031 -2.191406 3.203125 -2.140625 3.304688 -2.039062 C 3.40625 -1.941406 3.453125 -1.816406 3.453125 -1.675781 Z M 2.308594 -1.066406 C 2.449219 -1.066406 2.570312 -1.015625 2.671875 -0.914062 C 2.773438 -0.8125 2.824219 -0.691406 2.824219 -0.550781 C 2.824219 -0.410156 2.773438 -0.289062 2.671875 -0.191406 C 2.570312 -0.0898438 2.449219 -0.0390625 2.308594 -0.0390625 C 2.167969 -0.0390625 2.050781 -0.0898438 1.949219 -0.191406 C 1.851562 -0.289062 1.800781 -0.410156 1.800781 -0.550781 C 1.800781 -0.691406 1.851562 -0.8125 1.949219 -0.914062 C 2.050781 -1.015625 2.171875 -1.066406 2.308594 -1.066406 Z M 3.574219 -1.066406 C 3.714844 -1.066406 3.835938 -1.015625 3.933594 -0.914062 C 4.035156 -0.8125 4.085938 -0.691406 4.085938 -0.550781 C 4.085938 -0.410156 4.035156 -0.289062 3.933594 -0.191406 C 3.835938 -0.0898438 3.714844 -0.0390625 3.574219 -0.0390625 C 3.429688 -0.0390625 3.308594 -0.0898438 3.210938 -0.191406 C 3.109375 -0.289062 3.058594 -0.410156 3.058594 -0.550781 C 3.058594 -0.691406 3.109375 -0.8125 3.210938 -0.914062 C 3.308594 -1.015625 3.433594 -1.066406 3.574219 -1.066406 Z M 3.574219 -1.066406 "/>
</symbol>
<symbol overflow="visible" id="glyph5605901-1">
<path style="stroke:none;" d="M 5.078125 1.898438 L 4.160156 1.898438 L 0.851562 -7.878906 L 1.78125 -7.878906 Z M 5.078125 1.898438 "/>
</symbol>
<symbol overflow="visible" id="glyph5605901-2">
<path style="stroke:none;" d="M 2.585938 0.0703125 C 1.960938 0.0703125 1.515625 -0.0976562 1.242188 -0.429688 C 0.972656 -0.761719 0.835938 -1.253906 0.835938 -1.898438 L 0.835938 -5.5 L 1.675781 -5.5 L 1.675781 -2.238281 C 1.675781 -1.890625 1.699219 -1.601562 1.746094 -1.375 C 1.796875 -1.148438 1.902344 -0.964844 2.066406 -0.824219 C 2.230469 -0.679688 2.476562 -0.609375 2.804688 -0.609375 C 3.144531 -0.609375 3.425781 -0.699219 3.644531 -0.882812 C 3.863281 -1.0625 4.023438 -1.300781 4.125 -1.585938 C 4.226562 -1.875 4.273438 -2.1875 4.273438 -2.519531 L 4.273438 -5.5 L 5.136719 -5.5 L 5.136719 -1.191406 C 5.136719 -0.96875 5.140625 -0.699219 5.15625 -0.378906 C 5.15625 -0.304688 5.160156 -0.179688 5.164062 0 L 4.375 0 L 4.335938 -0.730469 C 4.144531 -0.453125 3.898438 -0.25 3.601562 -0.121094 C 3.300781 0.0078125 2.960938 0.0703125 2.585938 0.0703125 Z M 2.585938 0.0703125 "/>
</symbol>
<symbol overflow="visible" id="glyph5605901-3">
<path style="stroke:none;" d="M 0.769531 -0.839844 L 0.996094 -1.046875 C 1.554688 -1.550781 2.054688 -2.027344 2.496094 -2.472656 C 2.933594 -2.917969 3.328125 -3.398438 3.675781 -3.921875 C 4.023438 -4.441406 4.199219 -4.914062 4.199219 -5.339844 C 4.199219 -5.597656 4.148438 -5.820312 4.046875 -6.011719 C 3.945312 -6.203125 3.804688 -6.351562 3.625 -6.453125 C 3.445312 -6.558594 3.238281 -6.609375 3.011719 -6.609375 C 2.757812 -6.609375 2.53125 -6.550781 2.335938 -6.4375 C 2.136719 -6.324219 1.984375 -6.160156 1.875 -5.949219 C 1.765625 -5.738281 1.710938 -5.496094 1.710938 -5.21875 L 0.828125 -5.21875 C 0.839844 -5.671875 0.941406 -6.058594 1.140625 -6.378906 C 1.335938 -6.699219 1.601562 -6.941406 1.933594 -7.105469 C 2.265625 -7.269531 2.632812 -7.351562 3.039062 -7.351562 C 3.417969 -7.351562 3.761719 -7.277344 4.078125 -7.136719 C 4.394531 -6.992188 4.644531 -6.773438 4.835938 -6.484375 C 5.023438 -6.191406 5.121094 -5.832031 5.121094 -5.410156 C 5.121094 -4.964844 4.96875 -4.484375 4.664062 -3.972656 C 4.359375 -3.460938 4.003906 -2.988281 3.609375 -2.550781 C 3.210938 -2.113281 2.722656 -1.613281 2.144531 -1.046875 L 1.78125 -0.691406 L 5.179688 -0.691406 L 5.179688 0.0507812 L 0.769531 0.0507812 Z M 0.769531 -0.839844 "/>
</symbol>
<symbol overflow="visible" id="glyph5605901-4">
<path style="stroke:none;" d="M 2.339844 0 L 1.371094 0 L 4.300781 -6.429688 L 0.890625 -6.429688 L 0.890625 -7.25 L 5.269531 -7.25 L 5.269531 -6.441406 Z M 2.339844 0 "/>
</symbol>
<symbol overflow="visible" id="glyph5605901-5">
<path style="stroke:none;" d="M 3.210938 -4.441406 C 3.960938 -4.308594 4.503906 -4.019531 4.84375 -3.582031 C 5.179688 -3.144531 5.351562 -2.625 5.351562 -2.019531 C 5.351562 -1.574219 5.234375 -1.1875 4.996094 -0.867188 C 4.761719 -0.546875 4.457031 -0.300781 4.085938 -0.136719 C 3.710938 0.0273438 3.324219 0.109375 2.921875 0.109375 C 2.523438 0.109375 2.152344 0.03125 1.808594 -0.128906 C 1.464844 -0.285156 1.1875 -0.527344 0.976562 -0.847656 C 0.765625 -1.167969 0.660156 -1.558594 0.660156 -2.019531 L 1.539062 -2.019531 C 1.539062 -1.738281 1.609375 -1.488281 1.742188 -1.273438 C 1.878906 -1.0625 2.054688 -0.898438 2.273438 -0.789062 C 2.492188 -0.675781 2.722656 -0.621094 2.96875 -0.621094 C 3.230469 -0.621094 3.476562 -0.675781 3.703125 -0.792969 C 3.933594 -0.90625 4.121094 -1.070312 4.261719 -1.28125 C 4.402344 -1.492188 4.46875 -1.738281 4.46875 -2.019531 C 4.46875 -2.398438 4.371094 -2.722656 4.171875 -2.992188 C 3.972656 -3.265625 3.699219 -3.46875 3.347656 -3.609375 C 2.996094 -3.75 2.597656 -3.820312 2.148438 -3.820312 L 2.148438 -4.570312 L 4.160156 -6.5 L 0.828125 -6.5 L 0.828125 -7.25 L 5.210938 -7.25 L 5.210938 -6.398438 Z M 3.210938 -4.441406 "/>
</symbol>
<symbol overflow="visible" id="glyph5605901-6">
<path style="stroke:none;" d="M 4.441406 0 L 3.570312 0 L 3.570312 -1.558594 L 0.398438 -1.558594 L 0.398438 -2.359375 L 3.289062 -7.25 L 4.441406 -7.25 L 4.441406 -2.300781 L 5.46875 -2.300781 L 5.46875 -1.558594 L 4.441406 -1.558594 Z M 3.578125 -6.21875 L 1.320312 -2.300781 L 3.578125 -2.300781 Z M 3.578125 -6.21875 "/>
</symbol>
<symbol overflow="visible" id="glyph5605901-7">
<path style="stroke:none;" d="M 2.949219 0.0898438 C 2.554688 0.0898438 2.191406 0.0234375 1.871094 -0.109375 C 1.546875 -0.238281 1.289062 -0.445312 1.097656 -0.722656 C 0.90625 -1 0.808594 -1.351562 0.808594 -1.769531 L 1.691406 -1.769531 C 1.691406 -1.394531 1.808594 -1.109375 2.042969 -0.917969 C 2.277344 -0.726562 2.578125 -0.628906 2.941406 -0.628906 C 3.242188 -0.628906 3.5 -0.710938 3.710938 -0.871094 C 3.921875 -1.035156 4.082031 -1.25 4.183594 -1.523438 C 4.289062 -1.796875 4.339844 -2.101562 4.339844 -2.429688 C 4.339844 -2.738281 4.292969 -3.015625 4.195312 -3.273438 C 4.097656 -3.527344 3.953125 -3.730469 3.757812 -3.882812 C 3.5625 -4.035156 3.324219 -4.109375 3.039062 -4.109375 C 2.738281 -4.109375 2.46875 -4.015625 2.238281 -3.824219 C 2.007812 -3.632812 1.851562 -3.375 1.78125 -3.050781 L 0.898438 -3.050781 L 1.421875 -7.25 L 5.03125 -7.25 L 5.03125 -6.480469 L 2.21875 -6.480469 L 1.910156 -4.28125 C 2.078125 -4.496094 2.265625 -4.652344 2.46875 -4.746094 C 2.671875 -4.84375 2.917969 -4.890625 3.199219 -4.890625 C 3.621094 -4.890625 3.984375 -4.78125 4.289062 -4.5625 C 4.597656 -4.34375 4.828125 -4.046875 4.988281 -3.671875 C 5.148438 -3.292969 5.230469 -2.875 5.230469 -2.410156 C 5.230469 -1.921875 5.132812 -1.484375 4.941406 -1.109375 C 4.75 -0.730469 4.484375 -0.433594 4.136719 -0.226562 C 3.792969 -0.015625 3.398438 0.0898438 2.949219 0.0898438 Z M 2.949219 0.0898438 "/>
</symbol>
<symbol overflow="visible" id="glyph5605901-8">
<path style="stroke:none;" d="M 0.960938 0 L 0.960938 -0.738281 L 2.730469 -0.738281 L 2.730469 -5.949219 C 2.460938 -5.679688 2.140625 -5.414062 1.765625 -5.152344 C 1.394531 -4.890625 1.074219 -4.722656 0.800781 -4.648438 L 0.800781 -5.5 C 1.132812 -5.640625 1.496094 -5.886719 1.882812 -6.238281 C 2.269531 -6.59375 2.589844 -6.929688 2.839844 -7.25 L 3.570312 -7.25 L 3.570312 -0.738281 L 5.210938 -0.738281 L 5.210938 0 Z M 0.960938 0 "/>
</symbol>
</g>
</defs>
<g id="surface2131">
<g style="fill:rgb(0%,0%,0%);fill-opacity:1;">
  <use xlink:href="#glyph5605900-1" x="57" y="87.75"/>
</g>
<g style="fill:rgb(52.941176%,80.784314%,92.156863%);fill-opacity:1;">
  <use xlink:href="#glyph5605901-1" x="65.25" y="120"/>
  <use xlink:href="#glyph5605901-2" x="71.25" y="120"/>
  <use xlink:href="#glyph5605901-3" x="77.25" y="120"/>
  <use xlink:href="#glyph5605901-4" x="83.25" y="120"/>
  <use xlink:href="#glyph5605901-3" x="89.25" y="120"/>
  <use xlink:href="#glyph5605901-5" x="95.25" y="120"/>
</g>
<g style="fill:rgb(0%,0%,0%);fill-opacity:1;">
  <use xlink:href="#glyph5605900-2" x="201" y="88.25"/>
</g>
<g style="fill:rgb(52.941176%,80.784314%,92.156863%);fill-opacity:1;">
  <use xlink:href="#glyph5605901-1" x="210.19" y="120"/>
  <use xlink:href="#glyph5605901-2" x="216.19" y="120"/>
  <use xlink:href="#glyph5605901-3" x="222.19" y="120"/>
  <use xlink:href="#glyph5605901-4" x="228.19" y="120"/>
  <use xlink:href="#glyph5605901-3" x="234.19" y="120"/>
  <use xlink:href="#glyph5605901-6" x="240.19" y="120"/>
</g>
<g style="fill:rgb(0%,0%,0%);fill-opacity:1;">
  <use xlink:href="#glyph5605900-3" x="347" y="87.75"/>
</g>
<g style="fill:rgb(52.941176%,80.784314%,92.156863%);fill-opacity:1;">
  <use xlink:href="#glyph5605901-1" x="355.31" y="120"/>
  <use xlink:href="#glyph5605901-2" x="361.31" y="120"/>
  <use xlink:href="#glyph5605901-3" x="367.31" y="120"/>
  <use xlink:href="#glyph5605901-4" x="373.31" y="120"/>
  <use xlink:href="#glyph5605901-3" x="379.31" y="120"/>
  <use xlink:href="#glyph5605901-7" x="385.31" y="120"/>
</g>
<g style="fill:rgb(0%,0%,0%);fill-opacity:1;">
  <use xlink:href="#glyph5605900-4" x="492.95" y="89.2"/>
</g>
<g style="fill:rgb(52.941176%,80.784314%,92.156863%);fill-opacity:1;">
  <use xlink:href="#glyph5605901-1" x="500.32" y="120"/>
  <use xlink:href="#glyph5605901-2" x="506.32" y="120"/>
  <use xlink:href="#glyph5605901-3" x="512.32" y="120"/>
  <use xlink:href="#glyph5605901-4" x="518.32" y="120"/>
  <use xlink:href="#glyph5605901-5" x="524.32" y="120"/>
  <use xlink:href="#glyph5605901-8" x="530.32" y="120"/>
</g>
</g>
</svg>
