<?xml version="1.0" encoding="UTF-8"?>
<svg xmlns="http://www.w3.org/2000/svg" xmlns:xlink="http://www.w3.org/1999/xlink" width="600pt" height="120pt" viewBox="0 0 600 120" version="1.1">
<defs>
<g>
<symbol overflow="visible" id="glyph0-0">
<path style="stroke:none;" d="M 3.601562 17 L 3.601562 -72.5 L 56.398438 -72.5 L 56.398438 17 Z M 8.800781 11.800781 L 51.199219 11.800781 L 51.199219 -67.300781 L 8.800781 -67.300781 Z M 16.351562 -45 C 16.25 -50.066406 17.601562 -53.367188 20.398438 -54.898438 C 23.199219 -56.433594 26.167969 -57.199219 29.300781 -57.199219 C 33.601562 -57.199219 36.910156 -56.214844 39.226562 -54.25 C 41.542969 -52.285156 42.699219 -49.464844 42.699219 -45.800781 C 42.699219 -44.167969 42.382812 -42.648438 41.75 -41.25 C 41.117188 -39.851562 40.359375 -38.617188 39.476562 -37.550781 C 38.59375 -36.484375 37.382812 -35.167969 35.851562 -33.601562 L 34.199219 -31.898438 C 33.199219 -31.03125 32.535156 -30.351562 32.199219 -29.851562 C 31.867188 -29.351562 31.699219 -28.617188 31.699219 -27.648438 L 31.699219 -25 L 26 -25 L 26 -27.648438 C 26 -28.75 26.042969 -29.617188 26.125 -30.25 C 26.207031 -30.882812 26.449219 -31.535156 26.851562 -32.199219 C 27.351562 -33 27.949219 -33.75 28.648438 -34.449219 C 29.347656 -35.148438 30.199219 -35.949219 31.199219 -36.851562 C 32.433594 -37.949219 33.390625 -38.875 34.074219 -39.625 C 34.757812 -40.375 35.339844 -41.25 35.824219 -42.25 C 36.308594 -43.25 36.550781 -44.351562 36.550781 -45.550781 C 36.550781 -47.515625 35.867188 -49.035156 34.5 -50.101562 C 33.132812 -51.167969 31.183594 -51.699219 28.648438 -51.699219 C 27.617188 -51.699219 26.582031 -51.476562 25.550781 -51.023438 C 24.515625 -50.574219 23.667969 -49.851562 23 -48.851562 C 22.332031 -47.851562 22.035156 -46.566406 22.101562 -45 Z M 34.648438 -16.300781 C 34.648438 -14.898438 34.148438 -13.699219 33.148438 -12.699219 C 32.148438 -11.699219 30.933594 -11.199219 29.5 -11.199219 C 28.101562 -11.199219 26.898438 -11.699219 25.898438 -12.699219 C 24.898438 -13.699219 24.398438 -14.898438 24.398438 -16.300781 C 24.398438 -17.132812 24.582031 -17.917969 24.949219 -18.648438 C 25.148438 -19.417969 25.5 -20.007812 26 -20.425781 C 26.5 -20.84375 27.183594 -21.117188 28.050781 -21.25 C 28.648438 -21.382812 29.132812 -21.449219 29.5 -21.449219 C 30.933594 -21.449219 32.148438 -20.949219 33.148438 -19.949219 C 34.148438 -18.949219 34.648438 -17.734375 34.648438 -16.300781 Z M 23.199219 -10.199219 C 24.601562 -10.199219 25.808594 -9.691406 26.824219 -8.675781 C 27.839844 -7.660156 28.351562 -6.449219 28.351562 -5.050781 C 28.351562 -3.648438 27.839844 -2.449219 26.824219 -1.449219 C 25.808594 -0.449219 24.601562 0.0507812 23.199219 0.0507812 C 21.800781 0.0507812 20.601562 -0.449219 19.601562 -1.449219 C 18.601562 -2.449219 18.101562 -3.648438 18.101562 -5.050781 C 18.101562 -6.449219 18.601562 -7.660156 19.601562 -8.675781 C 20.601562 -9.691406 21.800781 -10.199219 23.199219 -10.199219 Z M 35.851562 -10.199219 C 37.25 -10.199219 38.449219 -9.691406 39.449219 -8.675781 C 40.449219 -7.660156 40.949219 -6.449219 40.949219 -5.050781 C 40.949219 -3.648438 40.449219 -2.449219 39.449219 -1.449219 C 38.449219 -0.449219 37.25 0.0507812 35.851562 0.0507812 C 34.417969 0.0507812 33.199219 -0.449219 32.199219 -1.449219 C 31.199219 -2.449219 30.699219 -3.648438 30.699219 -5.050781 C 30.699219 -6.449219 31.199219 -7.660156 32.199219 -8.675781 C 33.199219 -9.691406 34.417969 -10.199219 35.851562 -10.199219 Z M 35.851562 -10.199219 "/>
</symbol>
<symbol overflow="visible" id="glyph0-1">
<path style="stroke:none;" d="M 49.699219 -55.199219 L 57.5 -47.300781 L 37.800781 -27.601562 L 57.398438 -8 L 49.601562 -0.101562 L 29.949219 -19.75 L 10.199219 0 L 2.398438 -7.898438 L 22.101562 -27.601562 L 2.398438 -47.300781 L 10.199219 -55.199219 L 29.949219 -35.449219 Z M 49.699219 -55.199219 "/>
</symbol>
<symbol overflow="visible" id="glyph0-2">
<path style="stroke:none;" d="M 58.300781 0 L 58.300781 -56.699219 L 1.601562 -56.699219 L 1.601562 0 Z M 51 -53.699219 L 29.898438 -32.601562 L 8.898438 -53.699219 Z M 25.601562 -28.300781 L 4.601562 -7.300781 L 4.601562 -49.398438 Z M 55.300781 -7.300781 L 34.199219 -28.300781 L 55.300781 -49.398438 Z M 51 -3 L 8.898438 -3 L 29.898438 -24 Z M 51 -3 "/>
</symbol>
<symbol overflow="visible" id="glyph0-3">
<path style="stroke:none;" d="M 49.699219 -55.199219 L 57.5 -47.300781 L 37.800781 -27.601562 L 57.398438 -8 L 49.601562 -0.101562 L 29.949219 -19.75 L 10.199219 0 L 2.398438 -7.898438 L 22.101562 -27.601562 L 2.398438 -47.300781 L 10.199219 -55.199219 L 29.949219 -35.449219 Z M 49.699219 -55.199219 "/>
</symbol>
<symbol overflow="visible" id="glyph0-4">
<path style="stroke:none;" d="M 42.851562 -25.449219 L 55.898438 -12.351562 L 43.199219 0.398438 L 30.101562 -12.699219 L 16.949219 0.449219 L 4.199219 -12.300781 L 17.351562 -25.449219 L 4.199219 -38.601562 L 16.949219 -51.300781 L 30.101562 -38.148438 L 43.101562 -51.148438 L 55.851562 -38.449219 Z M 42.851562 -25.449219 "/>
</symbol>
<symbol overflow="visible" id="glyph1-0">
<path style="stroke:none;" d="M 0.359375 1.699219 L 0.359375 -7.25 L 5.640625 -7.25 L 5.640625 1.699219 Z M 0.878906 1.179688 L 5.121094 1.179688 L 5.121094 -6.730469 L 0.878906 -6.730469 Z M 1.636719 -4.5 C 1.625 -5.007812 1.761719 -5.335938 2.039062 -5.488281 C 2.320312 -5.644531 2.617188 -5.71875 2.929688 -5.71875 C 3.359375 -5.71875 3.691406 -5.621094 3.921875 -5.425781 C 4.152344 -5.230469 4.269531 -4.945312 4.269531 -4.578125 C 4.269531 -4.417969 4.238281 -4.265625 4.175781 -4.125 C 4.113281 -3.984375 4.035156 -3.863281 3.949219 -3.753906 C 3.859375 -3.648438 3.738281 -3.515625 3.585938 -3.359375 L 3.421875 -3.191406 C 3.320312 -3.105469 3.253906 -3.035156 3.21875 -2.984375 C 3.1875 -2.933594 3.171875 -2.863281 3.171875 -2.765625 L 3.171875 -2.5 L 2.601562 -2.5 L 2.601562 -2.765625 C 2.601562 -2.875 2.605469 -2.960938 2.613281 -3.023438 C 2.621094 -3.085938 2.644531 -3.152344 2.683594 -3.21875 C 2.734375 -3.300781 2.796875 -3.375 2.863281 -3.445312 C 2.933594 -3.515625 3.019531 -3.59375 3.121094 -3.683594 C 3.242188 -3.792969 3.339844 -3.886719 3.40625 -3.960938 C 3.476562 -4.035156 3.535156 -4.125 3.582031 -4.226562 C 3.628906 -4.324219 3.65625 -4.433594 3.65625 -4.554688 C 3.65625 -4.75 3.585938 -4.902344 3.449219 -5.011719 C 3.3125 -5.117188 3.117188 -5.171875 2.863281 -5.171875 C 2.761719 -5.171875 2.660156 -5.148438 2.554688 -5.101562 C 2.453125 -5.058594 2.367188 -4.984375 2.300781 -4.886719 C 2.234375 -4.785156 2.203125 -4.65625 2.210938 -4.5 Z M 3.464844 -1.628906 C 3.464844 -1.488281 3.414062 -1.371094 3.316406 -1.269531 C 3.214844 -1.167969 3.09375 -1.121094 2.949219 -1.121094 C 2.808594 -1.121094 2.691406 -1.171875 2.589844 -1.269531 C 2.488281 -1.371094 2.441406 -1.488281 2.441406 -1.628906 C 2.441406 -1.714844 2.457031 -1.792969 2.496094 -1.863281 C 2.515625 -1.941406 2.550781 -2 2.601562 -2.042969 C 2.652344 -2.085938 2.71875 -2.113281 2.804688 -2.125 C 2.863281 -2.136719 2.914062 -2.144531 2.949219 -2.144531 C 3.09375 -2.144531 3.214844 -2.09375 3.316406 -1.996094 C 3.414062 -1.894531 3.464844 -1.773438 3.464844 -1.628906 Z M 2.320312 -1.019531 C 2.460938 -1.019531 2.582031 -0.96875 2.683594 -0.867188 C 2.785156 -0.765625 2.835938 -0.644531 2.835938 -0.503906 C 2.835938 -0.363281 2.785156 -0.246094 2.683594 -0.144531 C 2.582031 -0.0429688 2.460938 0.00390625 2.320312 0.00390625 C 2.179688 0.00390625 2.058594 -0.046875 1.960938 -0.144531 C 1.859375 -0.246094 1.808594 -0.363281 1.808594 -0.503906 C 1.808594 -0.644531 1.859375 -0.765625 1.960938 -0.867188 C 2.058594 -0.96875 2.179688 -1.019531 2.320312 -1.019531 Z M 3.585938 -1.019531 C 3.726562 -1.019531 3.84375 -0.96875 3.945312 -0.867188 C 4.046875 -0.765625 4.09375 -0.644531 4.09375 -0.503906 C 4.09375 -0.363281 4.046875 -0.246094 3.945312 -0.144531 C 3.84375 -0.0429688 3.726562 0.00390625 3.585938 0.00390625 C 3.441406 0.00390625 3.320312 -0.046875 3.21875 -0.144531 C 3.121094 -0.246094 3.070312 -0.363281 3.070312 -0.503906 C 3.070312 -0.644531 3.121094 -0.765625 3.21875 -0.867188 C 3.320312 -0.96875 3.441406 -1.019531 3.585938 -1.019531 Z M 3.585938 -1.019531 "/>
</symbol>
<symbol overflow="visible" id="glyph1-1">
<path style="stroke:none;" d="M 5.078125 1.898438 L 4.160156 1.898438 L 0.851562 -7.878906 L 1.78125 -7.878906 Z M 5.078125 1.898438 "/>
</symbol>
<symbol overflow="visible" id="glyph1-2">
<path style="stroke:none;" d="M 2.578125 0.0703125 C 1.957031 0.0703125 1.507812 -0.0976562 1.238281 -0.429688 C 0.964844 -0.761719 0.828125 -1.253906 0.828125 -1.898438 L 0.828125 -5.5 L 1.671875 -5.5 L 1.671875 -2.238281 C 1.671875 -1.890625 1.695312 -1.601562 1.742188 -1.375 C 1.789062 -1.148438 1.898438 -0.964844 2.0625 -0.824219 C 2.226562 -0.679688 2.472656 -0.609375 2.800781 -0.609375 C 3.140625 -0.609375 3.421875 -0.699219 3.640625 -0.882812 C 3.859375 -1.0625 4.019531 -1.300781 4.121094 -1.585938 C 4.21875 -1.875 4.269531 -2.1875 4.269531 -2.519531 L 4.269531 -5.5 L 5.128906 -5.5 L 5.128906 -1.191406 C 5.128906 -0.96875 5.136719 -0.699219 5.148438 -0.378906 C 5.148438 -0.304688 5.152344 -0.179688 5.160156 0 L 4.371094 0 L 4.328125 -0.730469 C 4.140625 -0.453125 3.894531 -0.25 3.59375 -0.121094 C 3.292969 0.0078125 2.957031 0.0703125 2.578125 0.0703125 Z M 2.578125 0.0703125 "/>
</symbol>
<symbol overflow="visible" id="glyph1-3">
<path style="stroke:none;" d="M 0.769531 -0.839844 L 0.996094 -1.046875 C 1.554688 -1.550781 2.054688 -2.027344 2.496094 -2.472656 C 2.933594 -2.917969 3.328125 -3.398438 3.675781 -3.921875 C 4.023438 -4.441406 4.199219 -4.914062 4.199219 -5.339844 C 4.199219 -5.597656 4.148438 -5.820312 4.046875 -6.011719 C 3.945312 -6.203125 3.804688 -6.351562 3.625 -6.453125 C 3.445312 -6.558594 3.238281 -6.609375 3.011719 -6.609375 C 2.757812 -6.609375 2.53125 -6.550781 2.335938 -6.4375 C 2.136719 -6.324219 1.984375 -6.160156 1.875 -5.949219 C 1.765625 -5.738281 1.710938 -5.496094 1.710938 -5.21875 L 0.828125 -5.21875 C 0.839844 -5.671875 0.941406 -6.058594 1.140625 -6.378906 C 1.335938 -6.699219 1.601562 -6.941406 1.933594 -7.105469 C 2.265625 -7.269531 2.632812 -7.351562 3.039062 -7.351562 C 3.417969 -7.351562 3.761719 -7.277344 4.078125 -7.136719 C 4.394531 -6.992188 4.644531 -6.773438 4.835938 -6.484375 C 5.023438 -6.191406 5.121094 -5.832031 5.121094 -5.410156 C 5.121094 -4.964844 4.96875 -4.484375 4.664062 -3.972656 C 4.359375 -3.460938 4.003906 -2.988281 3.609375 -2.550781 C 3.210938 -2.113281 2.722656 -1.613281 2.144531 -1.046875 L 1.78125 -0.691406 L 5.179688 -0.691406 L 5.179688 0.0507812 L 0.769531 0.0507812 Z M 0.769531 -0.839844 "/>
</symbol>
<symbol overflow="visible" id="glyph1-4">
<path style="stroke:none;" d="M 3.101562 0.121094 C 2.199219 0.121094 1.574219 -0.203125 1.21875 -0.855469 C 0.867188 -1.503906 0.691406 -2.394531 0.691406 -3.519531 C 0.691406 -4.671875 0.867188 -5.601562 1.226562 -6.300781 C 1.582031 -7 2.214844 -7.351562 3.128906 -7.351562 C 3.488281 -7.351562 3.800781 -7.292969 4.066406 -7.175781 C 4.328125 -7.058594 4.558594 -6.902344 4.761719 -6.710938 L 4.179688 -6.179688 C 3.941406 -6.464844 3.582031 -6.609375 3.109375 -6.609375 C 2.679688 -6.609375 2.351562 -6.445312 2.125 -6.121094 C 1.898438 -5.792969 1.75 -5.410156 1.675781 -4.96875 C 1.601562 -4.527344 1.558594 -4.042969 1.550781 -3.519531 C 1.734375 -3.917969 1.960938 -4.222656 2.234375 -4.4375 C 2.503906 -4.652344 2.824219 -4.761719 3.191406 -4.761719 C 3.605469 -4.761719 3.972656 -4.644531 4.296875 -4.414062 C 4.621094 -4.179688 4.875 -3.871094 5.050781 -3.484375 C 5.230469 -3.09375 5.320312 -2.675781 5.320312 -2.230469 C 5.320312 -1.773438 5.226562 -1.367188 5.042969 -1.011719 C 4.859375 -0.652344 4.597656 -0.375 4.261719 -0.175781 C 3.925781 0.0195312 3.535156 0.121094 3.101562 0.121094 Z M 3.078125 -0.621094 C 3.519531 -0.621094 3.855469 -0.765625 4.089844 -1.050781 C 4.324219 -1.339844 4.441406 -1.726562 4.441406 -2.210938 C 4.441406 -2.523438 4.390625 -2.808594 4.296875 -3.070312 C 4.199219 -3.332031 4.050781 -3.535156 3.851562 -3.691406 C 3.652344 -3.84375 3.410156 -3.921875 3.121094 -3.921875 C 2.828125 -3.921875 2.570312 -3.84375 2.351562 -3.6875 C 2.132812 -3.53125 1.96875 -3.324219 1.851562 -3.058594 C 1.738281 -2.796875 1.679688 -2.507812 1.679688 -2.191406 C 1.679688 -1.886719 1.734375 -1.617188 1.847656 -1.378906 C 1.960938 -1.140625 2.121094 -0.953125 2.332031 -0.820312 C 2.542969 -0.6875 2.792969 -0.621094 3.078125 -0.621094 Z M 3.078125 -0.621094 "/>
</symbol>
<symbol overflow="visible" id="glyph1-5">
<path style="stroke:none;" d="M 0.960938 0 L 0.960938 -0.738281 L 2.730469 -0.738281 L 2.730469 -5.949219 C 2.460938 -5.679688 2.140625 -5.414062 1.765625 -5.152344 C 1.394531 -4.890625 1.074219 -4.722656 0.800781 -4.648438 L 0.800781 -5.5 C 1.132812 -5.640625 1.496094 -5.886719 1.882812 -6.238281 C 2.269531 -6.59375 2.589844 -6.929688 2.839844 -7.25 L 3.570312 -7.25 L 3.570312 -0.738281 L 5.210938 -0.738281 L 5.210938 0 Z M 0.960938 0 "/>
</symbol>
<symbol overflow="visible" id="glyph1-6">
<path style="stroke:none;" d="M 3.210938 -4.441406 C 3.960938 -4.308594 4.503906 -4.019531 4.84375 -3.582031 C 5.179688 -3.144531 5.351562 -2.625 5.351562 -2.019531 C 5.351562 -1.574219 5.234375 -1.1875 4.996094 -0.867188 C 4.761719 -0.546875 4.457031 -0.300781 4.085938 -0.136719 C 3.710938 0.0273438 3.324219 0.109375 2.921875 0.109375 C 2.523438 0.109375 2.152344 0.03125 1.808594 -0.128906 C 1.464844 -0.285156 1.1875 -0.527344 0.976562 -0.847656 C 0.765625 -1.167969 0.660156 -1.558594 0.660156 -2.019531 L 1.539062 -2.019531 C 1.539062 -1.738281 1.609375 -1.488281 1.742188 -1.273438 C 1.878906 -1.0625 2.054688 -0.898438 2.273438 -0.789062 C 2.492188 -0.675781 2.722656 -0.621094 2.96875 -0.621094 C 3.230469 -0.621094 3.476562 -0.675781 3.703125 -0.792969 C 3.933594 -0.90625 4.121094 -1.070312 4.261719 -1.28125 C 4.402344 -1.492188 4.46875 -1.738281 4.46875 -2.019531 C 4.46875 -2.398438 4.371094 -2.722656 4.171875 -2.992188 C 3.972656 -3.265625 3.699219 -3.46875 3.347656 -3.609375 C 2.996094 -3.75 2.597656 -3.820312 2.148438 -3.820312 L 2.148438 -4.570312 L 4.160156 -6.5 L 0.828125 -6.5 L 0.828125 -7.25 L 5.210938 -7.25 L 5.210938 -6.398438 Z M 3.210938 -4.441406 "/>
</symbol>
<symbol overflow="visible" id="glyph1-7">
<path style="stroke:none;" d="M 2.699219 0.0585938 C 2.234375 0.0585938 1.84375 -0.078125 1.527344 -0.359375 C 1.210938 -0.636719 0.980469 -0.996094 0.828125 -1.433594 C 0.675781 -1.871094 0.601562 -2.332031 0.601562 -2.820312 C 0.601562 -3.285156 0.675781 -3.726562 0.828125 -4.144531 C 0.980469 -4.566406 1.210938 -4.90625 1.523438 -5.171875 C 1.835938 -5.4375 2.214844 -5.570312 2.671875 -5.570312 C 3.054688 -5.570312 3.371094 -5.507812 3.617188 -5.386719 C 3.867188 -5.261719 4.078125 -5.046875 4.25 -4.738281 L 4.25 -7.898438 L 5.089844 -7.898438 L 5.089844 -1.199219 C 5.089844 -1.082031 5.089844 -0.949219 5.09375 -0.792969 C 5.097656 -0.636719 5.101562 -0.519531 5.105469 -0.433594 L 5.121094 0 L 4.351562 0 L 4.25 -0.738281 C 4.046875 -0.445312 3.828125 -0.238281 3.59375 -0.121094 C 3.359375 0 3.0625 0.0585938 2.699219 0.0585938 Z M 2.910156 -0.589844 C 3.238281 -0.589844 3.503906 -0.703125 3.703125 -0.925781 C 3.90625 -1.152344 4.046875 -1.429688 4.128906 -1.761719 C 4.210938 -2.089844 4.25 -2.429688 4.25 -2.78125 C 4.25 -3.128906 4.203125 -3.464844 4.105469 -3.785156 C 4.007812 -4.105469 3.851562 -4.371094 3.636719 -4.578125 C 3.417969 -4.785156 3.140625 -4.890625 2.800781 -4.890625 C 2.496094 -4.890625 2.242188 -4.785156 2.035156 -4.574219 C 1.828125 -4.363281 1.675781 -4.09375 1.578125 -3.773438 C 1.480469 -3.449219 1.429688 -3.125 1.429688 -2.800781 C 1.429688 -2.453125 1.484375 -2.109375 1.597656 -1.769531 C 1.710938 -1.429688 1.875 -1.148438 2.101562 -0.925781 C 2.324219 -0.703125 2.59375 -0.589844 2.910156 -0.589844 Z M 2.910156 -0.589844 "/>
</symbol>
<symbol overflow="visible" id="glyph1-8">
<path style="stroke:none;" d="M 2.441406 0 L 2.441406 -4.441406 L 0.988281 -4.441406 L 0.988281 -5.171875 L 2.441406 -5.171875 L 2.441406 -6.101562 C 2.441406 -6.558594 2.515625 -6.921875 2.667969 -7.1875 C 2.820312 -7.453125 3.03125 -7.636719 3.308594 -7.742188 C 3.582031 -7.847656 3.925781 -7.898438 4.339844 -7.898438 C 4.761719 -7.898438 5.117188 -7.886719 5.410156 -7.859375 L 5.410156 -7.078125 C 5.089844 -7.105469 4.785156 -7.121094 4.488281 -7.121094 C 4.226562 -7.121094 4.007812 -7.097656 3.835938 -7.050781 C 3.664062 -7.007812 3.53125 -6.917969 3.429688 -6.78125 C 3.328125 -6.648438 3.28125 -6.449219 3.28125 -6.191406 L 3.28125 -5.171875 L 4.929688 -5.171875 L 4.929688 -4.441406 L 3.28125 -4.441406 L 3.28125 0 Z M 2.441406 0 "/>
</symbol>
<symbol overflow="visible" id="glyph1-9">
<path style="stroke:none;" d="M 2.339844 0 L 1.371094 0 L 4.300781 -6.429688 L 0.890625 -6.429688 L 0.890625 -7.25 L 5.269531 -7.25 L 5.269531 -6.441406 Z M 2.339844 0 "/>
</symbol>
<symbol overflow="visible" id="glyph1-10">
<path style="stroke:none;" d="M 2.429688 0.101562 C 1.898438 0.101562 1.476562 -0.0273438 1.164062 -0.285156 C 0.855469 -0.542969 0.699219 -0.917969 0.699219 -1.410156 C 0.699219 -2.128906 0.996094 -2.625 1.582031 -2.890625 C 2.171875 -3.15625 2.871094 -3.289062 3.679688 -3.289062 L 4.261719 -3.289062 L 4.261719 -3.558594 C 4.261719 -3.757812 4.238281 -3.953125 4.195312 -4.136719 C 4.152344 -4.320312 4.035156 -4.488281 3.851562 -4.644531 C 3.664062 -4.800781 3.378906 -4.878906 3 -4.878906 C 2.828125 -4.878906 2.65625 -4.851562 2.484375 -4.800781 C 2.316406 -4.746094 2.160156 -4.683594 2.015625 -4.609375 C 1.875 -4.535156 1.703125 -4.441406 1.503906 -4.324219 C 1.480469 -4.308594 1.445312 -4.285156 1.398438 -4.261719 L 1.011719 -4.871094 C 1.226562 -5.007812 1.421875 -5.121094 1.59375 -5.214844 C 1.765625 -5.308594 1.976562 -5.390625 2.226562 -5.46875 C 2.476562 -5.542969 2.738281 -5.578125 3.019531 -5.578125 C 3.875 -5.578125 4.429688 -5.359375 4.691406 -4.914062 C 4.949219 -4.472656 5.078125 -3.988281 5.078125 -3.46875 L 5.078125 -1.550781 C 5.078125 -1.078125 5.109375 -0.558594 5.171875 0 L 4.371094 0 C 4.363281 -0.078125 4.355469 -0.1875 4.351562 -0.335938 L 4.320312 -0.75 C 4.144531 -0.453125 3.882812 -0.238281 3.539062 -0.101562 C 3.191406 0.03125 2.824219 0.101562 2.429688 0.101562 Z M 2.648438 -0.558594 C 3.210938 -0.558594 3.621094 -0.746094 3.878906 -1.113281 C 4.132812 -1.480469 4.261719 -1.976562 4.261719 -2.601562 C 4.027344 -2.613281 3.847656 -2.621094 3.71875 -2.621094 C 2.960938 -2.621094 2.40625 -2.527344 2.054688 -2.347656 C 1.703125 -2.164062 1.53125 -1.875 1.53125 -1.480469 C 1.53125 -1.167969 1.628906 -0.933594 1.828125 -0.785156 C 2.027344 -0.636719 2.300781 -0.558594 2.648438 -0.558594 Z M 2.648438 -0.558594 "/>
</symbol>
<symbol overflow="visible" id="glyph1-11">
<path style="stroke:none;" d="M 3.351562 0.101562 C 3.015625 0.101562 2.726562 0.0390625 2.492188 -0.0820312 C 2.257812 -0.203125 2.046875 -0.40625 1.859375 -0.691406 L 1.828125 0 L 1.011719 0 C 1.03125 -0.378906 1.039062 -0.777344 1.039062 -1.191406 L 1.039062 -7.898438 L 1.878906 -7.898438 L 1.878906 -4.519531 C 2.0625 -4.84375 2.289062 -5.09375 2.554688 -5.265625 C 2.820312 -5.441406 3.125 -5.53125 3.460938 -5.53125 C 3.898438 -5.53125 4.265625 -5.402344 4.558594 -5.148438 C 4.851562 -4.894531 5.070312 -4.546875 5.214844 -4.105469 C 5.359375 -3.660156 5.429688 -3.152344 5.429688 -2.578125 C 5.429688 -2.109375 5.351562 -1.671875 5.191406 -1.261719 C 5.035156 -0.855469 4.796875 -0.523438 4.484375 -0.273438 C 4.171875 -0.0234375 3.792969 0.101562 3.351562 0.101562 Z M 3.179688 -0.558594 C 3.511719 -0.558594 3.78125 -0.652344 3.988281 -0.835938 C 4.199219 -1.019531 4.351562 -1.257812 4.449219 -1.550781 C 4.542969 -1.847656 4.589844 -2.171875 4.589844 -2.519531 C 4.589844 -3.203125 4.488281 -3.753906 4.28125 -4.175781 C 4.074219 -4.597656 3.742188 -4.808594 3.289062 -4.808594 C 2.804688 -4.808594 2.445312 -4.597656 2.207031 -4.167969 C 1.96875 -3.738281 1.851562 -3.183594 1.851562 -2.5 C 1.851562 -2.171875 1.894531 -1.859375 1.984375 -1.566406 C 2.074219 -1.273438 2.21875 -1.03125 2.421875 -0.84375 C 2.621094 -0.65625 2.875 -0.558594 3.179688 -0.558594 Z M 3.179688 -0.558594 "/>
</symbol>
<symbol overflow="visible" id="glyph1-12">
<path style="stroke:none;" d="M 3.230469 0.078125 C 2.746094 0.078125 2.316406 -0.0351562 1.945312 -0.269531 C 1.570312 -0.503906 1.28125 -0.832031 1.078125 -1.253906 C 0.871094 -1.679688 0.769531 -2.164062 0.769531 -2.710938 C 0.769531 -3.265625 0.875 -3.765625 1.082031 -4.203125 C 1.289062 -4.640625 1.578125 -4.984375 1.941406 -5.230469 C 2.304688 -5.476562 2.707031 -5.601562 3.148438 -5.601562 C 3.574219 -5.601562 3.953125 -5.484375 4.273438 -5.246094 C 4.597656 -5.011719 4.851562 -4.664062 5.03125 -4.199219 C 5.210938 -3.738281 5.300781 -3.171875 5.300781 -2.511719 L 1.648438 -2.511719 C 1.648438 -1.921875 1.785156 -1.472656 2.050781 -1.171875 C 2.320312 -0.871094 2.710938 -0.71875 3.21875 -0.71875 C 3.554688 -0.71875 3.863281 -0.773438 4.144531 -0.886719 C 4.429688 -0.996094 4.648438 -1.113281 4.808594 -1.238281 L 5.230469 -0.578125 C 5.101562 -0.46875 4.933594 -0.363281 4.71875 -0.261719 C 4.507812 -0.160156 4.269531 -0.078125 4.007812 -0.015625 C 3.746094 0.046875 3.488281 0.078125 3.230469 0.078125 Z M 4.5 -3.269531 C 4.5 -3.574219 4.441406 -3.839844 4.324219 -4.074219 C 4.203125 -4.308594 4.039062 -4.488281 3.832031 -4.617188 C 3.625 -4.746094 3.390625 -4.808594 3.128906 -4.808594 C 2.867188 -4.808594 2.625 -4.746094 2.398438 -4.617188 C 2.175781 -4.488281 2 -4.308594 1.867188 -4.074219 C 1.734375 -3.839844 1.671875 -3.570312 1.671875 -3.269531 Z M 4.5 -3.269531 "/>
</symbol>
</g>
</defs>
<g id="surface537">
<g style="fill:rgb(0%,0%,0%);fill-opacity:1;">
  <use xlink:href="#glyph0-1" x="54.95" y="87.6"/>
</g>
<g style="fill:rgb(52.941176%,80.784314%,92.156863%);fill-opacity:1;">
  <use xlink:href="#glyph1-1" x="65.25" y="120"/>
  <use xlink:href="#glyph1-2" x="71.25" y="120"/>
  <use xlink:href="#glyph1-3" x="77.25" y="120"/>
  <use xlink:href="#glyph1-4" x="83.25" y="120"/>
  <use xlink:href="#glyph1-5" x="89.25" y="120"/>
  <use xlink:href="#glyph1-6" x="95.25" y="120"/>
</g>
<g style="fill:rgb(0%,0%,0%);fill-opacity:1;">
  <use xlink:href="#glyph0-2" x="199.15" y="88.35"/>
</g>
<g style="fill:rgb(52.941176%,80.784314%,92.156863%);fill-opacity:1;">
  <use xlink:href="#glyph1-1" x="210.365" y="120"/>
  <use xlink:href="#glyph1-2" x="216.365" y="120"/>
  <use xlink:href="#glyph1-3" x="222.365" y="120"/>
  <use xlink:href="#glyph1-4" x="228.365" y="120"/>
  <use xlink:href="#glyph1-7" x="234.365" y="120"/>
  <use xlink:href="#glyph1-7" x="240.365" y="120"/>
</g>
<g style="fill:rgb(0%,0%,0%);fill-opacity:1;">
  <use xlink:href="#glyph0-3" x="344.95" y="87.6"/>
</g>
<g style="fill:rgb(52.941176%,80.784314%,92.156863%);fill-opacity:1;">
  <use xlink:href="#glyph1-1" x="352.21" y="120"/>
  <use xlink:href="#glyph1-2" x="358.21" y="120"/>
  <use xlink:href="#glyph1-5" x="364.21" y="120"/>
  <use xlink:href="#glyph1-8" x="370.21" y="120"/>
  <use xlink:href="#glyph1-9" x="376.21" y="120"/>
  <use xlink:href="#glyph1-10" x="382.21" y="120"/>
  <use xlink:href="#glyph1-11" x="388.21" y="120"/>
</g>
<g style="fill:rgb(0%,0%,0%);fill-opacity:1;">
  <use xlink:href="#glyph0-4" x="491.65" y="85.65"/>
</g>
<g style="fill:rgb(52.941176%,80.784314%,92.156863%);fill-opacity:1;">
  <use xlink:href="#glyph1-1" x="497.275" y="120"/>
  <use xlink:href="#glyph1-2" x="503.275" y="120"/>
  <use xlink:href="#glyph1-5" x="509.275" y="120"/>
  <use xlink:href="#glyph1-8" x="515.275" y="120"/>
  <use xlink:href="#glyph1-9" x="521.275" y="120"/>
  <use xlink:href="#glyph1-10" x="527.275" y="120"/>
  <use xlink:href="#glyph1-12" x="533.275" y="120"/>
</g>
</g>
</svg>
