<?xml version="1.0" encoding="UTF-8"?>
<svg xmlns="http://www.w3.org/2000/svg" xmlns:xlink="http://www.w3.org/1999/xlink" width="600pt" height="120pt" viewBox="0 0 600 120" version="1.1">
<defs>
<g>
<symbol overflow="visible" id="glyph4293280-0">
<path style="stroke:none;" d="M 3.601562 17 L 3.601562 -72.5 L 56.398438 -72.5 L 56.398438 17 Z M 8.800781 11.800781 L 51.199219 11.800781 L 51.199219 -67.300781 L 8.800781 -67.300781 Z M 29.648438 -52.699219 C 27.515625 -52.699219 25.785156 -52.160156 24.449219 -51.074219 C 23.117188 -49.992188 22.484375 -48.316406 22.550781 -46.050781 L 16.800781 -46.050781 C 16.800781 -51.117188 18.140625 -54.417969 20.824219 -55.949219 C 23.507812 -57.484375 26.25 -58.25 29.050781 -58.25 C 33.71875 -58.25 37.242188 -57.292969 39.625 -55.375 C 42.007812 -53.457031 43.199219 -50.75 43.199219 -47.25 C 43.199219 -45.484375 42.917969 -43.910156 42.351562 -42.523438 C 41.785156 -41.140625 41.074219 -39.925781 40.226562 -38.875 C 39.375 -37.824219 38.183594 -36.515625 36.648438 -34.949219 L 34.648438 -32.898438 C 33.683594 -32.066406 33.035156 -31.390625 32.699219 -30.875 C 32.367188 -30.359375 32.199219 -29.617188 32.199219 -28.648438 L 32.199219 -24.550781 L 26.5 -24.550781 L 26.5 -28.648438 C 26.5 -29.882812 26.542969 -30.792969 26.625 -31.375 C 26.707031 -31.957031 26.949219 -32.582031 27.351562 -33.25 C 28.082031 -34.484375 29.464844 -35.984375 31.5 -37.75 C 32.734375 -38.851562 33.707031 -39.785156 34.425781 -40.550781 C 35.140625 -41.316406 35.75 -42.199219 36.25 -43.199219 C 36.75 -44.199219 37 -45.300781 37 -46.5 C 37 -48.464844 36.332031 -49.992188 35 -51.074219 C 33.667969 -52.15625 31.882812 -52.699219 29.648438 -52.699219 Z M 34.550781 -16.75 C 34.550781 -15.351562 34.050781 -14.148438 33.050781 -13.148438 C 32.050781 -12.148438 30.832031 -11.648438 29.398438 -11.648438 C 28 -11.648438 26.800781 -12.148438 25.800781 -13.148438 C 24.800781 -14.148438 24.300781 -15.351562 24.300781 -16.75 C 24.300781 -18.183594 24.800781 -19.398438 25.800781 -20.398438 C 26.800781 -21.398438 28 -21.898438 29.398438 -21.898438 C 30.832031 -21.898438 32.050781 -21.398438 33.050781 -20.398438 C 34.050781 -19.398438 34.550781 -18.183594 34.550781 -16.75 Z M 23.101562 -10.648438 C 24.5 -10.648438 25.707031 -10.140625 26.726562 -9.125 C 27.742188 -8.109375 28.25 -6.898438 28.25 -5.5 C 28.25 -4.101562 27.742188 -2.898438 26.726562 -1.898438 C 25.707031 -0.898438 24.5 -0.398438 23.101562 -0.398438 C 21.699219 -0.398438 20.5 -0.898438 19.5 -1.898438 C 18.5 -2.898438 18 -4.101562 18 -5.5 C 18 -6.898438 18.5 -8.109375 19.5 -9.125 C 20.5 -10.140625 21.699219 -10.648438 23.101562 -10.648438 Z M 35.75 -10.648438 C 37.148438 -10.648438 38.351562 -10.140625 39.351562 -9.125 C 40.351562 -8.109375 40.851562 -6.898438 40.851562 -5.5 C 40.851562 -4.101562 40.351562 -2.898438 39.351562 -1.898438 C 38.351562 -0.898438 37.148438 -0.398438 35.75 -0.398438 C 34.316406 -0.398438 33.101562 -0.898438 32.101562 -1.898438 C 31.101562 -2.898438 30.601562 -4.101562 30.601562 -5.5 C 30.601562 -6.898438 31.101562 -8.109375 32.101562 -9.125 C 33.101562 -10.140625 34.316406 -10.648438 35.75 -10.648438 Z M 35.75 -10.648438 "/>
</symbol>
<symbol overflow="visible" id="glyph4293280-1">
<path style="stroke:none;" d="M 30.398438 -5.398438 C 30.300781 -5.167969 30.167969 -5.050781 30 -5.050781 C 29.832031 -5.050781 29.699219 -5.167969 29.601562 -5.398438 L 26.601562 -20.699219 C 26.5 -21.132812 26.265625 -21.265625 25.898438 -21.101562 L 12.898438 -12.300781 C 12.765625 -12.234375 12.648438 -12.199219 12.550781 -12.199219 C 12.382812 -12.199219 12.265625 -12.265625 12.199219 -12.398438 C 12.132812 -12.53125 12.167969 -12.699219 12.300781 -12.898438 L 21 -25.898438 C 21.066406 -26.097656 21.101562 -26.214844 21.101562 -26.25 C 21.101562 -26.417969 20.964844 -26.535156 20.699219 -26.601562 L 5.398438 -29.601562 C 5.167969 -29.699219 5.050781 -29.832031 5.050781 -30 C 5.050781 -30.167969 5.167969 -30.300781 5.398438 -30.398438 L 20.699219 -33.398438 C 21.132812 -33.5 21.265625 -33.734375 21.101562 -34.101562 L 12.300781 -47.101562 C 12.234375 -47.234375 12.199219 -47.351562 12.199219 -47.449219 C 12.199219 -47.617188 12.265625 -47.734375 12.398438 -47.800781 C 12.53125 -47.867188 12.699219 -47.832031 12.898438 -47.699219 L 25.898438 -39 C 26.097656 -38.933594 26.214844 -38.898438 26.25 -38.898438 C 26.417969 -38.898438 26.535156 -39.035156 26.601562 -39.300781 L 29.601562 -54.601562 C 29.699219 -54.867188 29.832031 -55 30 -55 C 30.167969 -55 30.300781 -54.867188 30.398438 -54.601562 L 33.398438 -39.300781 C 33.5 -38.867188 33.734375 -38.734375 34.101562 -38.898438 L 47.101562 -47.699219 C 47.234375 -47.765625 47.351562 -47.800781 47.449219 -47.800781 C 47.617188 -47.800781 47.734375 -47.734375 47.800781 -47.601562 C 47.867188 -47.46875 47.832031 -47.300781 47.699219 -47.101562 L 39 -34.101562 C 38.933594 -33.902344 38.898438 -33.785156 38.898438 -33.75 C 38.898438 -33.582031 39.035156 -33.464844 39.300781 -33.398438 L 54.601562 -30.398438 C 54.867188 -30.300781 55 -30.167969 55 -30 C 55 -29.832031 54.867188 -29.699219 54.601562 -29.601562 L 39.300781 -26.601562 C 38.867188 -26.5 38.734375 -26.265625 38.898438 -25.898438 L 47.699219 -12.898438 C 47.765625 -12.765625 47.800781 -12.648438 47.800781 -12.550781 C 47.800781 -12.382812 47.734375 -12.265625 47.601562 -12.199219 C 47.46875 -12.132812 47.300781 -12.167969 47.101562 -12.300781 L 34.101562 -21 C 33.902344 -21.066406 33.785156 -21.101562 33.75 -21.101562 C 33.582031 -21.101562 33.464844 -20.964844 33.398438 -20.699219 Z M 27.398438 -38 L 30 -31.800781 L 30 -52 Z M 22.5 -33.699219 L 28.699219 -31.300781 L 14.398438 -45.601562 Z M 33.699219 -37.5 L 31.300781 -31.300781 L 45.601562 -45.601562 Z M 38 -32.699219 L 31.800781 -30 L 52 -30 Z M 8.101562 -30 L 22.199219 -27.398438 L 28.199219 -30 Z M 28.699219 -28.699219 L 14.398438 -14.398438 L 26.300781 -22.5 Z M 31.300781 -28.699219 L 45.601562 -14.398438 L 37.5 -26.300781 Z M 30 -28.199219 L 30 -8 L 32.699219 -22.199219 Z M 30 -28.199219 "/>
</symbol>
<symbol overflow="visible" id="glyph4293280-2">
<path style="stroke:none;" d="M 31.101562 -14.101562 L 20.699219 -6.5 L 12.898438 -7.898438 L 18 -23.699219 L 3.5 -34.199219 L 21.398438 -34.199219 L 27 -51.300781 L 34.800781 -50.199219 L 40.101562 -34.199219 L 51.398438 -34.199219 L 57.199219 -33.101562 L 43.5 -23.699219 L 48.800781 -7.300781 L 39.898438 -7.699219 Z M 19.601562 -24.101562 L 15 -10.101562 L 27 -18.800781 L 38.898438 -10.101562 L 34.398438 -24.101562 L 46.199219 -32.800781 L 31.5 -32.800781 L 27.601562 -48.601562 L 22.398438 -32.800781 L 7.699219 -32.800781 Z M 19.601562 -24.101562 "/>
</symbol>
<symbol overflow="visible" id="glyph4293280-3">
<path style="stroke:none;" d="M 37.300781 -9.5 L 30 2.699219 L 22.699219 -9.5 L 3.800781 -9.5 L 13.25 -25.351562 L 3.800781 -41.199219 L 22.699219 -41.199219 L 30 -53.398438 L 37.300781 -41.199219 L 56.199219 -41.199219 L 46.75 -25.351562 L 56.199219 -9.5 Z M 30 -47.601562 L 26.148438 -41.199219 L 33.851562 -41.199219 Z M 9 -38.199219 L 14.949219 -28.199219 L 20.949219 -38.199219 Z M 16.699219 -25.351562 L 24.398438 -12.5 L 35.601562 -12.5 L 43.300781 -25.351562 L 35.601562 -38.199219 L 24.398438 -38.199219 Z M 39.050781 -38.199219 L 45.050781 -28.199219 L 51 -38.199219 Z M 14.949219 -22.5 L 9 -12.5 L 20.949219 -12.5 Z M 45.050781 -22.5 L 39.050781 -12.5 L 51 -12.5 Z M 26.148438 -9.5 L 30 -3.101562 L 33.851562 -9.5 Z M 26.148438 -9.5 "/>
</symbol>
<symbol overflow="visible" id="glyph4293280-4">
<path style="stroke:none;" d="M 30.101562 -1.101562 C 25.300781 -1.101562 20.882812 -2.285156 16.851562 -4.648438 C 12.816406 -7.015625 9.617188 -10.214844 7.25 -14.25 C 4.882812 -18.285156 3.699219 -22.699219 3.699219 -27.5 C 3.699219 -32.300781 4.882812 -36.714844 7.25 -40.75 C 9.617188 -44.785156 12.816406 -47.984375 16.851562 -50.351562 C 20.882812 -52.71875 25.300781 -53.898438 30.101562 -53.898438 C 34.902344 -53.898438 39.316406 -52.714844 43.351562 -50.351562 C 47.382812 -47.984375 50.582031 -44.785156 52.949219 -40.75 C 55.316406 -36.714844 56.5 -32.300781 56.5 -27.5 C 56.5 -22.699219 55.316406 -18.285156 52.949219 -14.25 C 50.582031 -10.214844 47.382812 -7.015625 43.351562 -4.648438 C 39.316406 -2.28125 34.898438 -1.101562 30.101562 -1.101562 Z M 30.101562 -50.800781 L 24.800781 -41.699219 L 35.398438 -41.699219 Z M 13.601562 -44 L 16.398438 -33.800781 L 23.800781 -41.199219 Z M 36.398438 -41.199219 L 43.800781 -33.800781 L 46.601562 -44 Z M 30.101562 -14.800781 C 32.402344 -14.800781 34.523438 -15.367188 36.476562 -16.5 C 38.425781 -17.632812 39.964844 -19.175781 41.101562 -21.125 C 42.234375 -23.074219 42.800781 -25.199219 42.800781 -27.5 C 42.800781 -29.800781 42.234375 -31.925781 41.101562 -33.875 C 39.96875 -35.824219 38.425781 -37.367188 36.476562 -38.5 C 34.527344 -39.632812 32.398438 -40.199219 30.101562 -40.199219 C 27.800781 -40.199219 25.675781 -39.632812 23.726562 -38.5 C 21.777344 -37.367188 20.234375 -35.824219 19.101562 -33.875 C 17.96875 -31.925781 17.398438 -29.800781 17.398438 -27.5 C 17.398438 -25.199219 17.964844 -23.074219 19.101562 -21.125 C 20.234375 -19.175781 21.773438 -17.632812 23.726562 -16.5 C 25.675781 -15.367188 27.800781 -14.800781 30.101562 -14.800781 Z M 6.800781 -27.5 L 15.898438 -22.199219 L 15.898438 -32.800781 Z M 44.300781 -32.800781 L 44.300781 -22.199219 L 53.398438 -27.5 Z M 16.398438 -21.199219 L 13.601562 -11 L 23.800781 -13.800781 Z M 36.398438 -13.800781 L 46.601562 -11 L 43.800781 -21.199219 Z M 24.800781 -13.300781 L 30.101562 -4.199219 L 35.398438 -13.300781 Z M 24.800781 -13.300781 "/>
</symbol>
<symbol overflow="visible" id="glyph4293281-0">
<path style="stroke:none;" d="M 0.359375 1.699219 L 0.359375 -7.25 L 5.640625 -7.25 L 5.640625 1.699219 Z M 0.878906 1.179688 L 5.121094 1.179688 L 5.121094 -6.730469 L 0.878906 -6.730469 Z M 2.964844 -5.269531 C 2.75 -5.269531 2.578125 -5.214844 2.445312 -5.109375 C 2.3125 -5 2.25 -4.832031 2.253906 -4.605469 L 1.679688 -4.605469 C 1.679688 -5.113281 1.8125 -5.441406 2.082031 -5.59375 C 2.351562 -5.746094 2.625 -5.824219 2.90625 -5.824219 C 3.371094 -5.824219 3.722656 -5.730469 3.960938 -5.539062 C 4.199219 -5.347656 4.320312 -5.074219 4.320312 -4.726562 C 4.320312 -4.550781 4.292969 -4.390625 4.234375 -4.253906 C 4.179688 -4.113281 4.109375 -3.992188 4.023438 -3.886719 C 3.9375 -3.78125 3.816406 -3.652344 3.664062 -3.496094 L 3.464844 -3.289062 C 3.367188 -3.207031 3.304688 -3.140625 3.269531 -3.085938 C 3.238281 -3.035156 3.21875 -2.960938 3.21875 -2.863281 L 3.21875 -2.453125 L 2.648438 -2.453125 L 2.648438 -2.863281 C 2.648438 -2.988281 2.652344 -3.078125 2.664062 -3.136719 C 2.671875 -3.195312 2.695312 -3.257812 2.734375 -3.324219 C 2.808594 -3.449219 2.945312 -3.597656 3.148438 -3.773438 C 3.273438 -3.882812 3.371094 -3.976562 3.441406 -4.054688 C 3.515625 -4.132812 3.574219 -4.21875 3.625 -4.320312 C 3.675781 -4.421875 3.699219 -4.53125 3.699219 -4.648438 C 3.699219 -4.847656 3.632812 -5 3.5 -5.109375 C 3.367188 -5.214844 3.1875 -5.269531 2.964844 -5.269531 Z M 3.453125 -1.675781 C 3.453125 -1.535156 3.40625 -1.414062 3.304688 -1.316406 C 3.203125 -1.214844 3.082031 -1.164062 2.941406 -1.164062 C 2.800781 -1.164062 2.679688 -1.214844 2.578125 -1.316406 C 2.480469 -1.414062 2.429688 -1.535156 2.429688 -1.675781 C 2.429688 -1.820312 2.480469 -1.941406 2.578125 -2.039062 C 2.679688 -2.140625 2.800781 -2.191406 2.941406 -2.191406 C 3.082031 -2.191406 3.203125 -2.140625 3.304688 -2.039062 C 3.40625 -1.941406 3.453125 -1.816406 3.453125 -1.675781 Z M 2.308594 -1.066406 C 2.449219 -1.066406 2.570312 -1.015625 2.671875 -0.914062 C 2.773438 -0.8125 2.824219 -0.691406 2.824219 -0.550781 C 2.824219 -0.410156 2.773438 -0.289062 2.671875 -0.191406 C 2.570312 -0.0898438 2.449219 -0.0390625 2.308594 -0.0390625 C 2.167969 -0.0390625 2.050781 -0.0898438 1.949219 -0.191406 C 1.851562 -0.289062 1.800781 -0.410156 1.800781 -0.550781 C 1.800781 -0.691406 1.851562 -0.8125 1.949219 -0.914062 C 2.050781 -1.015625 2.171875 -1.066406 2.308594 -1.066406 Z M 3.574219 -1.066406 C 3.714844 -1.066406 3.835938 -1.015625 3.933594 -0.914062 C 4.035156 -0.8125 4.085938 -0.691406 4.085938 -0.550781 C 4.085938 -0.410156 4.035156 -0.289062 3.933594 -0.191406 C 3.835938 -0.0898438 3.714844 -0.0390625 3.574219 -0.0390625 C 3.429688 -0.0390625 3.308594 -0.0898438 3.210938 -0.191406 C 3.109375 -0.289062 3.058594 -0.410156 3.058594 -0.550781 C 3.058594 -0.691406 3.109375 -0.8125 3.210938 -0.914062 C 3.308594 -1.015625 3.433594 -1.066406 3.574219 -1.066406 Z M 3.574219 -1.066406 "/>
</symbol>
<symbol overflow="visible" id="glyph4293281-1">
<path style="stroke:none;" d="M 5.078125 1.898438 L 4.160156 1.898438 L 0.851562 -7.878906 L 1.78125 -7.878906 Z M 5.078125 1.898438 "/>
</symbol>
<symbol overflow="visible" id="glyph4293281-2">
<path style="stroke:none;" d="M 2.585938 0.0703125 C 1.960938 0.0703125 1.515625 -0.0976562 1.242188 -0.429688 C 0.972656 -0.761719 0.835938 -1.253906 0.835938 -1.898438 L 0.835938 -5.5 L 1.675781 -5.5 L 1.675781 -2.238281 C 1.675781 -1.890625 1.699219 -1.601562 1.746094 -1.375 C 1.796875 -1.148438 1.902344 -0.964844 2.066406 -0.824219 C 2.230469 -0.679688 2.476562 -0.609375 2.804688 -0.609375 C 3.144531 -0.609375 3.425781 -0.699219 3.644531 -0.882812 C 3.863281 -1.0625 4.023438 -1.300781 4.125 -1.585938 C 4.226562 -1.875 4.273438 -2.1875 4.273438 -2.519531 L 4.273438 -5.5 L 5.136719 -5.5 L 5.136719 -1.191406 C 5.136719 -0.96875 5.140625 -0.699219 5.15625 -0.378906 C 5.15625 -0.304688 5.160156 -0.179688 5.164062 0 L 4.375 0 L 4.335938 -0.730469 C 4.144531 -0.453125 3.898438 -0.25 3.601562 -0.121094 C 3.300781 0.0078125 2.960938 0.0703125 2.585938 0.0703125 Z M 2.585938 0.0703125 "/>
</symbol>
<symbol overflow="visible" id="glyph4293281-3">
<path style="stroke:none;" d="M 0.769531 -0.839844 L 0.996094 -1.046875 C 1.554688 -1.550781 2.054688 -2.027344 2.496094 -2.472656 C 2.933594 -2.917969 3.328125 -3.398438 3.675781 -3.921875 C 4.023438 -4.441406 4.199219 -4.914062 4.199219 -5.339844 C 4.199219 -5.597656 4.148438 -5.820312 4.046875 -6.011719 C 3.945312 -6.203125 3.804688 -6.351562 3.625 -6.453125 C 3.445312 -6.558594 3.238281 -6.609375 3.011719 -6.609375 C 2.757812 -6.609375 2.53125 -6.550781 2.335938 -6.4375 C 2.136719 -6.324219 1.984375 -6.160156 1.875 -5.949219 C 1.765625 -5.738281 1.710938 -5.496094 1.710938 -5.21875 L 0.828125 -5.21875 C 0.839844 -5.671875 0.941406 -6.058594 1.140625 -6.378906 C 1.335938 -6.699219 1.601562 -6.941406 1.933594 -7.105469 C 2.265625 -7.269531 2.632812 -7.351562 3.039062 -7.351562 C 3.417969 -7.351562 3.761719 -7.277344 4.078125 -7.136719 C 4.394531 -6.992188 4.644531 -6.773438 4.835938 -6.484375 C 5.023438 -6.191406 5.121094 -5.832031 5.121094 -5.410156 C 5.121094 -4.964844 4.96875 -4.484375 4.664062 -3.972656 C 4.359375 -3.460938 4.003906 -2.988281 3.609375 -2.550781 C 3.210938 -2.113281 2.722656 -1.613281 2.144531 -1.046875 L 1.78125 -0.691406 L 5.179688 -0.691406 L 5.179688 0.0507812 L 0.769531 0.0507812 Z M 0.769531 -0.839844 "/>
</symbol>
<symbol overflow="visible" id="glyph4293281-4">
<path style="stroke:none;" d="M 2.339844 0 L 1.371094 0 L 4.300781 -6.429688 L 0.890625 -6.429688 L 0.890625 -7.25 L 5.269531 -7.25 L 5.269531 -6.441406 Z M 2.339844 0 "/>
</symbol>
<symbol overflow="visible" id="glyph4293281-5">
<path style="stroke:none;" d="M 3.210938 -4.441406 C 3.960938 -4.308594 4.503906 -4.019531 4.84375 -3.582031 C 5.179688 -3.144531 5.351562 -2.625 5.351562 -2.019531 C 5.351562 -1.574219 5.234375 -1.1875 4.996094 -0.867188 C 4.761719 -0.546875 4.457031 -0.300781 4.085938 -0.136719 C 3.710938 0.0273438 3.324219 0.109375 2.921875 0.109375 C 2.523438 0.109375 2.152344 0.03125 1.808594 -0.128906 C 1.464844 -0.285156 1.1875 -0.527344 0.976562 -0.847656 C 0.765625 -1.167969 0.660156 -1.558594 0.660156 -2.019531 L 1.539062 -2.019531 C 1.539062 -1.738281 1.609375 -1.488281 1.742188 -1.273438 C 1.878906 -1.0625 2.054688 -0.898438 2.273438 -0.789062 C 2.492188 -0.675781 2.722656 -0.621094 2.96875 -0.621094 C 3.230469 -0.621094 3.476562 -0.675781 3.703125 -0.792969 C 3.933594 -0.90625 4.121094 -1.070312 4.261719 -1.28125 C 4.402344 -1.492188 4.46875 -1.738281 4.46875 -2.019531 C 4.46875 -2.398438 4.371094 -2.722656 4.171875 -2.992188 C 3.972656 -3.265625 3.699219 -3.46875 3.347656 -3.609375 C 2.996094 -3.75 2.597656 -3.820312 2.148438 -3.820312 L 2.148438 -4.570312 L 4.160156 -6.5 L 0.828125 -6.5 L 0.828125 -7.25 L 5.210938 -7.25 L 5.210938 -6.398438 Z M 3.210938 -4.441406 "/>
</symbol>
<symbol overflow="visible" id="glyph4293281-6">
<path style="stroke:none;" d="M 2.949219 0.0898438 C 2.554688 0.0898438 2.191406 0.0234375 1.871094 -0.109375 C 1.546875 -0.238281 1.289062 -0.445312 1.097656 -0.722656 C 0.90625 -1 0.808594 -1.351562 0.808594 -1.769531 L 1.691406 -1.769531 C 1.691406 -1.394531 1.808594 -1.109375 2.042969 -0.917969 C 2.277344 -0.726562 2.578125 -0.628906 2.941406 -0.628906 C 3.242188 -0.628906 3.5 -0.710938 3.710938 -0.871094 C 3.921875 -1.035156 4.082031 -1.25 4.183594 -1.523438 C 4.289062 -1.796875 4.339844 -2.101562 4.339844 -2.429688 C 4.339844 -2.738281 4.292969 -3.015625 4.195312 -3.273438 C 4.097656 -3.527344 3.953125 -3.730469 3.757812 -3.882812 C 3.5625 -4.035156 3.324219 -4.109375 3.039062 -4.109375 C 2.738281 -4.109375 2.46875 -4.015625 2.238281 -3.824219 C 2.007812 -3.632812 1.851562 -3.375 1.78125 -3.050781 L 0.898438 -3.050781 L 1.421875 -7.25 L 5.03125 -7.25 L 5.03125 -6.480469 L 2.21875 -6.480469 L 1.910156 -4.28125 C 2.078125 -4.496094 2.265625 -4.652344 2.46875 -4.746094 C 2.671875 -4.84375 2.917969 -4.890625 3.199219 -4.890625 C 3.621094 -4.890625 3.984375 -4.78125 4.289062 -4.5625 C 4.597656 -4.34375 4.828125 -4.046875 4.988281 -3.671875 C 5.148438 -3.292969 5.230469 -2.875 5.230469 -2.410156 C 5.230469 -1.921875 5.132812 -1.484375 4.941406 -1.109375 C 4.75 -0.730469 4.484375 -0.433594 4.136719 -0.226562 C 3.792969 -0.015625 3.398438 0.0898438 2.949219 0.0898438 Z M 2.949219 0.0898438 "/>
</symbol>
<symbol overflow="visible" id="glyph4293281-7">
<path style="stroke:none;" d="M 3.011719 0.101562 C 2.328125 0.101562 1.8125 -0.046875 1.464844 -0.34375 C 1.117188 -0.640625 0.890625 -1.050781 0.777344 -1.578125 C 0.664062 -2.101562 0.609375 -2.796875 0.609375 -3.660156 C 0.609375 -4.476562 0.667969 -5.148438 0.789062 -5.671875 C 0.90625 -6.195312 1.140625 -6.605469 1.488281 -6.902344 C 1.835938 -7.199219 2.34375 -7.351562 3.011719 -7.351562 C 3.675781 -7.351562 4.183594 -7.199219 4.53125 -6.902344 C 4.878906 -6.605469 5.113281 -6.195312 5.234375 -5.671875 C 5.351562 -5.152344 5.410156 -4.480469 5.410156 -3.660156 C 5.410156 -2.796875 5.355469 -2.101562 5.242188 -1.578125 C 5.128906 -1.050781 4.902344 -0.640625 4.554688 -0.34375 C 4.207031 -0.046875 3.691406 0.101562 3.011719 0.101562 Z M 3.011719 -0.621094 C 3.449219 -0.621094 3.785156 -0.746094 4.011719 -0.992188 C 4.238281 -1.242188 4.386719 -1.578125 4.460938 -2.007812 C 4.535156 -2.4375 4.570312 -2.988281 4.570312 -3.660156 C 4.570312 -4.339844 4.535156 -4.886719 4.46875 -5.296875 C 4.398438 -5.707031 4.25 -6.035156 4.023438 -6.273438 C 3.796875 -6.511719 3.460938 -6.628906 3.011719 -6.628906 C 2.5625 -6.628906 2.222656 -6.511719 1.996094 -6.273438 C 1.769531 -6.035156 1.621094 -5.710938 1.550781 -5.296875 C 1.484375 -4.886719 1.449219 -4.339844 1.449219 -3.660156 C 1.449219 -2.988281 1.488281 -2.4375 1.558594 -2.007812 C 1.632812 -1.578125 1.785156 -1.242188 2.011719 -0.992188 C 2.238281 -0.742188 2.570312 -0.621094 3.011719 -0.621094 Z M 3.628906 -3.660156 L 3.011719 -3.019531 L 2.390625 -3.660156 L 3.011719 -4.371094 Z M 3.628906 -3.660156 "/>
</symbol>
<symbol overflow="visible" id="glyph4293281-8">
<path style="stroke:none;" d="M 0.960938 0 L 0.960938 -0.738281 L 2.730469 -0.738281 L 2.730469 -5.949219 C 2.460938 -5.679688 2.140625 -5.414062 1.765625 -5.152344 C 1.394531 -4.890625 1.074219 -4.722656 0.800781 -4.648438 L 0.800781 -5.5 C 1.132812 -5.640625 1.496094 -5.886719 1.882812 -6.238281 C 2.269531 -6.59375 2.589844 -6.929688 2.839844 -7.25 L 3.570312 -7.25 L 3.570312 -0.738281 L 5.210938 -0.738281 L 5.210938 0 Z M 0.960938 0 "/>
</symbol>
<symbol overflow="visible" id="glyph4293281-9">
<path style="stroke:none;" d="M 4.441406 0 L 3.570312 0 L 3.570312 -1.558594 L 0.398438 -1.558594 L 0.398438 -2.359375 L 3.289062 -7.25 L 4.441406 -7.25 L 4.441406 -2.300781 L 5.46875 -2.300781 L 5.46875 -1.558594 L 4.441406 -1.558594 Z M 3.578125 -6.21875 L 1.320312 -2.300781 L 3.578125 -2.300781 Z M 3.578125 -6.21875 "/>
</symbol>
</g>
</defs>
<g id="surface96">
<g style="fill:rgb(0%,0%,0%);fill-opacity:1;">
  <use xlink:href="#glyph4293280-1" x="57.525" y="87.5"/>
</g>
<g style="fill:rgb(52.941176%,80.784314%,92.156863%);fill-opacity:1;">
  <use xlink:href="#glyph4293281-1" x="65.31" y="120"/>
  <use xlink:href="#glyph4293281-2" x="71.31" y="120"/>
  <use xlink:href="#glyph4293281-3" x="77.31" y="120"/>
  <use xlink:href="#glyph4293281-4" x="83.31" y="120"/>
  <use xlink:href="#glyph4293281-5" x="89.31" y="120"/>
  <use xlink:href="#glyph4293281-6" x="95.31" y="120"/>
</g>
<g style="fill:rgb(0%,0%,0%);fill-opacity:1;">
  <use xlink:href="#glyph4293280-2" x="200.65" y="85.65"/>
</g>
<g style="fill:rgb(52.941176%,80.784314%,92.156863%);fill-opacity:1;">
  <use xlink:href="#glyph4293281-1" x="210.22" y="120"/>
  <use xlink:href="#glyph4293281-2" x="216.22" y="120"/>
  <use xlink:href="#glyph4293281-3" x="222.22" y="120"/>
  <use xlink:href="#glyph4293281-4" x="228.22" y="120"/>
  <use xlink:href="#glyph4293281-5" x="234.22" y="120"/>
  <use xlink:href="#glyph4293281-7" x="240.22" y="120"/>
</g>
<g style="fill:rgb(0%,0%,0%);fill-opacity:1;">
  <use xlink:href="#glyph4293280-3" x="346.3" y="86.7"/>
</g>
<g style="fill:rgb(52.941176%,80.784314%,92.156863%);fill-opacity:1;">
  <use xlink:href="#glyph4293281-1" x="355.32" y="120"/>
  <use xlink:href="#glyph4293281-2" x="361.32" y="120"/>
  <use xlink:href="#glyph4293281-3" x="367.32" y="120"/>
  <use xlink:href="#glyph4293281-4" x="373.32" y="120"/>
  <use xlink:href="#glyph4293281-3" x="379.32" y="120"/>
  <use xlink:href="#glyph4293281-8" x="385.32" y="120"/>
</g>
<g style="fill:rgb(0%,0%,0%);fill-opacity:1;">
  <use xlink:href="#glyph4293280-4" x="491.1" y="86.95"/>
</g>
<g style="fill:rgb(52.941176%,80.784314%,92.156863%);fill-opacity:1;">
  <use xlink:href="#glyph4293281-1" x="500.335" y="120"/>
  <use xlink:href="#glyph4293281-2" x="506.335" y="120"/>
  <use xlink:href="#glyph4293281-3" x="512.335" y="120"/>
  <use xlink:href="#glyph4293281-4" x="518.335" y="120"/>
  <use xlink:href="#glyph4293281-9" x="524.335" y="120"/>
  <use xlink:href="#glyph4293281-3" x="530.335" y="120"/>
</g>
</g>
</svg>
