<?xml version="1.0" encoding="UTF-8"?>
<svg xmlns="http://www.w3.org/2000/svg" xmlns:xlink="http://www.w3.org/1999/xlink" width="600pt" height="120pt" viewBox="0 0 600 120" version="1.1">
<defs>
<g>
<symbol overflow="visible" id="glyph8196710-0">
<path style="stroke:none;" d="M 3.601562 17 L 3.601562 -72.5 L 56.398438 -72.5 L 56.398438 17 Z M 8.800781 11.800781 L 51.199219 11.800781 L 51.199219 -67.300781 L 8.800781 -67.300781 Z M 29.648438 -52.699219 C 27.515625 -52.699219 25.785156 -52.160156 24.449219 -51.074219 C 23.117188 -49.992188 22.484375 -48.316406 22.550781 -46.050781 L 16.800781 -46.050781 C 16.800781 -51.117188 18.140625 -54.417969 20.824219 -55.949219 C 23.507812 -57.484375 26.25 -58.25 29.050781 -58.25 C 33.71875 -58.25 37.242188 -57.292969 39.625 -55.375 C 42.007812 -53.457031 43.199219 -50.75 43.199219 -47.25 C 43.199219 -45.484375 42.917969 -43.910156 42.351562 -42.523438 C 41.785156 -41.140625 41.074219 -39.925781 40.226562 -38.875 C 39.375 -37.824219 38.183594 -36.515625 36.648438 -34.949219 L 34.648438 -32.898438 C 33.683594 -32.066406 33.035156 -31.390625 32.699219 -30.875 C 32.367188 -30.359375 32.199219 -29.617188 32.199219 -28.648438 L 32.199219 -24.550781 L 26.5 -24.550781 L 26.5 -28.648438 C 26.5 -29.882812 26.542969 -30.792969 26.625 -31.375 C 26.707031 -31.957031 26.949219 -32.582031 27.351562 -33.25 C 28.082031 -34.484375 29.464844 -35.984375 31.5 -37.75 C 32.734375 -38.851562 33.707031 -39.785156 34.425781 -40.550781 C 35.140625 -41.316406 35.75 -42.199219 36.25 -43.199219 C 36.75 -44.199219 37 -45.300781 37 -46.5 C 37 -48.464844 36.332031 -49.992188 35 -51.074219 C 33.667969 -52.15625 31.882812 -52.699219 29.648438 -52.699219 Z M 34.550781 -16.75 C 34.550781 -15.351562 34.050781 -14.148438 33.050781 -13.148438 C 32.050781 -12.148438 30.832031 -11.648438 29.398438 -11.648438 C 28 -11.648438 26.800781 -12.148438 25.800781 -13.148438 C 24.800781 -14.148438 24.300781 -15.351562 24.300781 -16.75 C 24.300781 -18.183594 24.800781 -19.398438 25.800781 -20.398438 C 26.800781 -21.398438 28 -21.898438 29.398438 -21.898438 C 30.832031 -21.898438 32.050781 -21.398438 33.050781 -20.398438 C 34.050781 -19.398438 34.550781 -18.183594 34.550781 -16.75 Z M 23.101562 -10.648438 C 24.5 -10.648438 25.707031 -10.140625 26.726562 -9.125 C 27.742188 -8.109375 28.25 -6.898438 28.25 -5.5 C 28.25 -4.101562 27.742188 -2.898438 26.726562 -1.898438 C 25.707031 -0.898438 24.5 -0.398438 23.101562 -0.398438 C 21.699219 -0.398438 20.5 -0.898438 19.5 -1.898438 C 18.5 -2.898438 18 -4.101562 18 -5.5 C 18 -6.898438 18.5 -8.109375 19.5 -9.125 C 20.5 -10.140625 21.699219 -10.648438 23.101562 -10.648438 Z M 35.75 -10.648438 C 37.148438 -10.648438 38.351562 -10.140625 39.351562 -9.125 C 40.351562 -8.109375 40.851562 -6.898438 40.851562 -5.5 C 40.851562 -4.101562 40.351562 -2.898438 39.351562 -1.898438 C 38.351562 -0.898438 37.148438 -0.398438 35.75 -0.398438 C 34.316406 -0.398438 33.101562 -0.898438 32.101562 -1.898438 C 31.101562 -2.898438 30.601562 -4.101562 30.601562 -5.5 C 30.601562 -6.898438 31.101562 -8.109375 32.101562 -9.125 C 33.101562 -10.140625 34.316406 -10.648438 35.75 -10.648438 Z M 35.75 -10.648438 "/>
</symbol>
<symbol overflow="visible" id="glyph8196710-1">
<path style="stroke:none;" d="M 57.5 -26.398438 C 57.5 -21.398438 56.265625 -16.800781 53.800781 -12.601562 C 51.332031 -8.402344 48 -5.066406 43.800781 -2.601562 C 39.601562 -0.132812 35 1.101562 30 1.101562 C 25 1.101562 20.398438 -0.132812 16.199219 -2.601562 C 12 -5.066406 8.667969 -8.398438 6.199219 -12.601562 C 3.734375 -16.800781 2.5 -21.398438 2.5 -26.398438 C 2.5 -31.398438 3.734375 -36 6.199219 -40.199219 C 8.667969 -44.398438 12 -47.734375 16.199219 -50.199219 C 20.398438 -52.667969 25 -53.898438 30 -53.898438 C 35 -53.898438 39.601562 -52.667969 43.800781 -50.199219 C 48 -47.734375 51.332031 -44.398438 53.800781 -40.199219 C 56.265625 -36 57.5 -31.398438 57.5 -26.398438 Z M 52.601562 -26.398438 C 52.601562 -30.464844 51.582031 -34.234375 49.550781 -37.699219 C 47.515625 -41.167969 44.765625 -43.917969 41.300781 -45.949219 C 37.832031 -47.984375 34.066406 -49 30 -49 C 25.933594 -49 22.167969 -47.984375 18.699219 -45.949219 C 15.234375 -43.917969 12.484375 -41.167969 10.449219 -37.699219 C 8.417969 -34.234375 7.398438 -30.464844 7.398438 -26.398438 C 7.398438 -22.332031 8.417969 -18.566406 10.449219 -15.101562 C 12.484375 -11.632812 15.234375 -8.882812 18.699219 -6.851562 C 22.167969 -4.816406 25.933594 -3.800781 30 -3.800781 C 34.066406 -3.800781 37.832031 -4.816406 41.300781 -6.851562 C 44.765625 -8.882812 47.515625 -11.632812 49.550781 -15.101562 C 51.582031 -18.566406 52.601562 -22.332031 52.601562 -26.398438 Z M 44.101562 -19.898438 C 44.101562 -17.765625 43.066406 -16.699219 41 -16.699219 C 40.265625 -16.699219 39.625 -16.933594 39.074219 -17.398438 C 38.523438 -17.867188 37.832031 -18.632812 37 -19.699219 C 36.035156 -20.898438 35.101562 -21.949219 34.199219 -22.851562 C 33.300781 -23.75 32.167969 -24.601562 30.800781 -25.398438 C 30.800781 -23.933594 30.933594 -22.601562 31.199219 -21.398438 C 31.464844 -20.199219 31.832031 -18.832031 32.300781 -17.300781 C 32.832031 -15.632812 33.101562 -14.433594 33.101562 -13.699219 C 33.101562 -12.867188 32.773438 -12.089844 32.125 -11.375 C 31.476562 -10.660156 30.765625 -10.300781 30 -10.300781 C 29.234375 -10.300781 28.523438 -10.660156 27.875 -11.375 C 27.226562 -12.089844 26.898438 -12.867188 26.898438 -13.699219 C 26.898438 -14.433594 27.167969 -15.632812 27.699219 -17.300781 C 28.167969 -18.832031 28.535156 -20.199219 28.800781 -21.398438 C 29.066406 -22.597656 29.199219 -23.933594 29.199219 -25.398438 C 28.132812 -24.765625 27.183594 -24.035156 26.351562 -23.199219 C 25.515625 -22.367188 24.515625 -21.300781 23.351562 -20 C 22.851562 -19.433594 22.367188 -18.898438 21.898438 -18.398438 C 21.433594 -17.898438 21.035156 -17.566406 20.699219 -17.398438 C 20.464844 -17.300781 20.140625 -17.160156 19.726562 -16.976562 C 19.308594 -16.792969 18.898438 -16.699219 18.5 -16.699219 C 17.601562 -16.699219 16.875 -16.976562 16.324219 -17.523438 C 15.773438 -18.074219 15.5 -18.699219 15.5 -19.398438 C 15.5 -20 15.648438 -20.582031 15.949219 -21.148438 C 16.25 -21.714844 16.699219 -22.167969 17.300781 -22.5 C 17.699219 -22.734375 18.25 -22.957031 18.949219 -23.175781 C 19.648438 -23.390625 20.382812 -23.601562 21.148438 -23.800781 C 22.582031 -24.132812 23.875 -24.492188 25.023438 -24.875 C 26.175781 -25.257812 27.300781 -25.765625 28.398438 -26.398438 C 27.300781 -27.03125 26.199219 -27.523438 25.101562 -27.875 C 24 -28.226562 22.699219 -28.566406 21.199219 -28.898438 C 19.199219 -29.332031 17.832031 -29.765625 17.101562 -30.199219 C 16.035156 -30.832031 15.5 -31.667969 15.5 -32.699219 C 15.5 -33.699219 15.734375 -34.515625 16.199219 -35.148438 C 16.667969 -35.78125 17.398438 -36.101562 18.398438 -36.101562 C 19.097656 -36.101562 19.699219 -35.898438 20.199219 -35.5 C 20.667969 -35.265625 21.125 -34.925781 21.574219 -34.476562 C 22.023438 -34.027344 22.582031 -33.417969 23.25 -32.648438 C 24.417969 -31.417969 25.417969 -30.417969 26.25 -29.648438 C 27.082031 -28.882812 28.066406 -28.199219 29.199219 -27.601562 C 29.199219 -29.066406 29.074219 -30.390625 28.824219 -31.574219 C 28.574219 -32.757812 28.199219 -34.183594 27.699219 -35.851562 C 27.167969 -37.582031 26.898438 -38.800781 26.898438 -39.5 C 26.898438 -40.332031 27.226562 -41.042969 27.875 -41.625 C 28.523438 -42.207031 29.234375 -42.5 30 -42.5 C 30.765625 -42.5 31.476562 -42.207031 32.125 -41.625 C 32.773438 -41.042969 33.101562 -40.332031 33.101562 -39.5 C 33.101562 -38.800781 32.832031 -37.582031 32.300781 -35.851562 C 31.832031 -34.316406 31.464844 -32.941406 31.199219 -31.726562 C 30.933594 -30.507812 30.800781 -29.167969 30.800781 -27.699219 C 32.398438 -28.53125 33.648438 -29.390625 34.550781 -30.273438 C 35.449219 -31.15625 36.332031 -32.167969 37.199219 -33.300781 C 37.699219 -33.933594 38.101562 -34.410156 38.398438 -34.726562 C 38.699219 -35.042969 39.035156 -35.300781 39.398438 -35.5 C 40.097656 -35.898438 40.699219 -36.101562 41.199219 -36.101562 C 42.132812 -36.101562 42.851562 -35.792969 43.351562 -35.175781 C 43.851562 -34.558594 44.101562 -33.734375 44.101562 -32.699219 C 44.101562 -31.601562 43.5 -30.699219 42.300781 -30 C 41.96875 -29.832031 41.566406 -29.691406 41.101562 -29.574219 C 40.632812 -29.457031 40.132812 -29.351562 39.601562 -29.25 C 38.234375 -29.050781 36.925781 -28.757812 35.675781 -28.375 C 34.425781 -27.992188 32.964844 -27.332031 31.300781 -26.398438 C 32.632812 -25.597656 33.898438 -25 35.101562 -24.601562 C 36.300781 -24.199219 37.617188 -23.851562 39.050781 -23.550781 C 39.71875 -23.417969 40.351562 -23.265625 40.949219 -23.101562 C 41.550781 -22.933594 42.035156 -22.734375 42.398438 -22.5 C 43.53125 -21.832031 44.101562 -20.964844 44.101562 -19.898438 Z M 44.101562 -19.898438 "/>
</symbol>
<symbol overflow="visible" id="glyph8196710-2">
<path style="stroke:none;" d="M 5.398438 -31.5 L 5.398438 -28.5 L 24.699219 -29 L 6.699219 -22.101562 L 7.898438 -19.300781 L 25.5 -27.101562 L 11.601562 -13.800781 L 13.699219 -11.699219 L 27 -25.601562 L 19.199219 -8 L 22 -6.800781 L 28.898438 -24.800781 L 28.398438 -5.5 L 31.398438 -5.5 L 30.898438 -24.800781 L 37.800781 -6.800781 L 40.601562 -8 L 32.800781 -25.601562 L 46.101562 -11.699219 L 48.199219 -13.800781 L 34.300781 -27.101562 L 51.898438 -19.300781 L 53.101562 -22.101562 L 35.101562 -29 L 54.398438 -28.5 L 54.398438 -31.5 L 35.101562 -31 L 53.101562 -37.898438 L 51.898438 -40.699219 L 34.300781 -32.898438 L 48.199219 -46.199219 L 46.101562 -48.300781 L 32.800781 -34.398438 L 40.601562 -52 L 37.800781 -53.199219 L 30.898438 -35.199219 L 31.398438 -54.5 L 28.398438 -54.5 L 28.898438 -35.199219 L 22 -53.199219 L 19.199219 -52 L 27 -34.398438 L 13.699219 -48.300781 L 11.601562 -46.199219 L 25.5 -32.898438 L 7.898438 -40.699219 L 6.699219 -37.898438 L 24.699219 -31 Z M 5.398438 -31.5 "/>
</symbol>
<symbol overflow="visible" id="glyph8196710-3">
<path style="stroke:none;" d="M 25.101562 -52.199219 C 25.101562 -53.433594 25.582031 -54.390625 26.550781 -55.074219 C 27.515625 -55.757812 28.667969 -56.101562 30 -56.101562 C 31.332031 -56.101562 32.484375 -55.757812 33.449219 -55.074219 C 34.417969 -54.390625 34.898438 -53.433594 34.898438 -52.199219 C 34.898438 -51.066406 34.765625 -50.089844 34.5 -49.273438 C 34.234375 -48.457031 33.816406 -47.464844 33.25 -46.300781 C 32.417969 -44.601562 31.757812 -42.890625 31.273438 -41.175781 C 30.792969 -39.457031 30.5 -37.167969 30.398438 -34.300781 L 29.601562 -34.300781 C 29.5 -37.167969 29.207031 -39.457031 28.726562 -41.175781 C 28.242188 -42.890625 27.582031 -44.601562 26.75 -46.300781 C 26.183594 -47.46875 25.765625 -48.457031 25.5 -49.273438 C 25.234375 -50.089844 25.101562 -51.066406 25.101562 -52.199219 Z M 8.300781 -36.898438 C 7.101562 -37.597656 6.5 -38.683594 6.5 -40.148438 C 6.5 -41.015625 6.726562 -41.890625 7.175781 -42.773438 C 7.625 -43.65625 8.226562 -44.382812 8.976562 -44.949219 C 9.726562 -45.515625 10.515625 -45.800781 11.351562 -45.800781 C 11.949219 -45.800781 12.535156 -45.632812 13.101562 -45.300781 C 14.066406 -44.734375 14.824219 -44.140625 15.375 -43.523438 C 15.925781 -42.90625 16.601562 -42.050781 17.398438 -40.949219 C 18.464844 -39.382812 19.625 -37.964844 20.875 -36.699219 C 22.125 -35.433594 23.964844 -34.035156 26.398438 -32.5 C 26.332031 -32.433594 26.199219 -32.199219 26 -31.800781 C 23.464844 -33.132812 21.359375 -34.015625 19.675781 -34.449219 C 17.992188 -34.882812 16.167969 -35.183594 14.199219 -35.351562 C 12.933594 -35.449219 11.875 -35.589844 11.023438 -35.773438 C 10.175781 -35.957031 9.265625 -36.332031 8.300781 -36.898438 Z M 46.601562 -45.300781 C 47.167969 -45.632812 47.75 -45.800781 48.351562 -45.800781 C 49.21875 -45.800781 50.023438 -45.515625 50.773438 -44.949219 C 51.523438 -44.382812 52.132812 -43.648438 52.601562 -42.75 C 53.066406 -41.851562 53.300781 -40.964844 53.300781 -40.101562 C 53.300781 -38.699219 52.699219 -37.632812 51.5 -36.898438 C 50.535156 -36.332031 49.625 -35.957031 48.773438 -35.773438 C 47.925781 -35.589844 46.867188 -35.449219 45.601562 -35.351562 C 43.601562 -35.183594 41.757812 -34.882812 40.074219 -34.449219 C 38.390625 -34.015625 36.300781 -33.132812 33.800781 -31.800781 L 33.398438 -32.5 C 35.800781 -34.035156 37.609375 -35.433594 38.824219 -36.699219 C 40.042969 -37.964844 41.199219 -39.382812 42.300781 -40.949219 C 43 -41.984375 43.648438 -42.824219 44.25 -43.476562 C 44.851562 -44.125 45.632812 -44.734375 46.601562 -45.300781 Z M 30 -26.199219 C 28.964844 -26.199219 28.074219 -26.574219 27.324219 -27.324219 C 26.574219 -28.074219 26.199219 -28.964844 26.199219 -30 C 26.199219 -31.066406 26.574219 -31.964844 27.324219 -32.699219 C 28.074219 -33.433594 28.964844 -33.800781 30 -33.800781 C 31.066406 -33.800781 31.964844 -33.433594 32.699219 -32.699219 C 33.433594 -31.964844 33.800781 -31.066406 33.800781 -30 C 33.800781 -28.964844 33.433594 -28.074219 32.699219 -27.324219 C 31.964844 -26.574219 31.066406 -26.199219 30 -26.199219 Z M 13.199219 -14.601562 C 12.632812 -14.265625 12.050781 -14.101562 11.449219 -14.101562 C 10.582031 -14.101562 9.773438 -14.382812 9.023438 -14.949219 C 8.273438 -15.515625 7.667969 -16.25 7.199219 -17.148438 C 6.734375 -18.050781 6.5 -18.933594 6.5 -19.800781 C 6.5 -21.199219 7.101562 -22.265625 8.300781 -23 C 9.265625 -23.566406 10.175781 -23.941406 11.023438 -24.125 C 11.875 -24.308594 12.933594 -24.449219 14.199219 -24.550781 C 16.199219 -24.71875 18.042969 -25.015625 19.726562 -25.449219 C 21.410156 -25.882812 23.5 -26.765625 26 -28.101562 L 26.398438 -27.398438 C 24 -25.867188 22.191406 -24.464844 20.976562 -23.199219 C 19.757812 -21.933594 18.601562 -20.515625 17.5 -18.949219 C 16.800781 -17.917969 16.148438 -17.074219 15.550781 -16.425781 C 14.949219 -15.773438 14.167969 -15.167969 13.199219 -14.601562 Z M 51.5 -23 C 52.699219 -22.300781 53.300781 -21.214844 53.300781 -19.75 C 53.300781 -18.882812 53.074219 -18.007812 52.625 -17.125 C 52.175781 -16.242188 51.574219 -15.515625 50.824219 -14.949219 C 50.074219 -14.382812 49.285156 -14.101562 48.449219 -14.101562 C 47.851562 -14.101562 47.265625 -14.265625 46.699219 -14.601562 C 45.734375 -15.167969 44.976562 -15.757812 44.425781 -16.375 C 43.875 -16.992188 43.199219 -17.851562 42.398438 -18.949219 C 41.332031 -20.515625 40.175781 -21.933594 38.925781 -23.199219 C 37.675781 -24.464844 35.832031 -25.867188 33.398438 -27.398438 C 33.464844 -27.464844 33.601562 -27.699219 33.800781 -28.101562 C 36.332031 -26.765625 38.441406 -25.882812 40.125 -25.449219 C 41.808594 -25.015625 43.632812 -24.714844 45.601562 -24.550781 C 46.867188 -24.449219 47.925781 -24.308594 48.773438 -24.125 C 49.625 -23.941406 50.535156 -23.566406 51.5 -23 Z M 34.898438 -7.5 C 34.898438 -6.265625 34.417969 -5.308594 33.449219 -4.625 C 32.484375 -3.941406 31.332031 -3.601562 30 -3.601562 C 28.667969 -3.601562 27.515625 -3.941406 26.550781 -4.625 C 25.582031 -5.308594 25.101562 -6.265625 25.101562 -7.5 C 25.101562 -8.632812 25.234375 -9.609375 25.5 -10.425781 C 25.765625 -11.242188 26.183594 -12.234375 26.75 -13.398438 C 27.582031 -15.097656 28.242188 -16.808594 28.726562 -18.523438 C 29.207031 -20.242188 29.5 -22.535156 29.601562 -25.398438 L 30.398438 -25.398438 C 30.5 -22.53125 30.792969 -20.242188 31.273438 -18.523438 C 31.757812 -16.808594 32.417969 -15.101562 33.25 -13.398438 C 33.816406 -12.234375 34.234375 -11.242188 34.5 -10.425781 C 34.765625 -9.609375 34.898438 -8.632812 34.898438 -7.5 Z M 34.898438 -7.5 "/>
</symbol>
<symbol overflow="visible" id="glyph8196710-4">
<path style="stroke:none;" d="M 51.5 -23 C 52.699219 -22.300781 53.300781 -21.214844 53.300781 -19.75 C 53.300781 -18.882812 53.074219 -18.007812 52.625 -17.125 C 52.175781 -16.242188 51.574219 -15.515625 50.824219 -14.949219 C 50.074219 -14.382812 49.285156 -14.101562 48.449219 -14.101562 C 47.851562 -14.101562 47.265625 -14.265625 46.699219 -14.601562 C 45.667969 -15.199219 44.867188 -15.832031 44.300781 -16.5 C 43.734375 -17.167969 43.101562 -18.050781 42.398438 -19.148438 C 41.699219 -20.347656 40.976562 -21.382812 40.226562 -22.25 C 39.476562 -23.117188 38.398438 -23.964844 37 -24.800781 C 36.265625 -23.832031 35.375 -23.050781 34.324219 -22.449219 C 33.273438 -21.851562 32.132812 -21.484375 30.898438 -21.351562 C 30.933594 -19.785156 31.125 -18.484375 31.476562 -17.449219 C 31.824219 -16.417969 32.351562 -15.285156 33.050781 -14.050781 C 33.683594 -12.917969 34.148438 -11.933594 34.449219 -11.101562 C 34.75 -10.265625 34.898438 -9.234375 34.898438 -8 C 34.898438 -6.765625 34.417969 -5.808594 33.449219 -5.125 C 32.484375 -4.441406 31.332031 -4.101562 30 -4.101562 C 28.667969 -4.101562 27.515625 -4.441406 26.550781 -5.125 C 25.582031 -5.808594 25.101562 -6.765625 25.101562 -8 C 25.101562 -9.234375 25.257812 -10.292969 25.574219 -11.175781 C 25.890625 -12.058594 26.367188 -13.035156 27 -14.101562 C 27.699219 -15.367188 28.242188 -16.5 28.625 -17.5 C 29.007812 -18.5 29.234375 -19.785156 29.300781 -21.351562 C 28 -21.449219 26.800781 -21.816406 25.699219 -22.449219 C 24.601562 -23.082031 23.683594 -23.917969 22.949219 -24.949219 C 21.582031 -24.117188 20.523438 -23.265625 19.773438 -22.398438 C 19.023438 -21.53125 18.285156 -20.484375 17.550781 -19.25 C 16.917969 -18.183594 16.300781 -17.292969 15.699219 -16.574219 C 15.101562 -15.859375 14.265625 -15.199219 13.199219 -14.601562 C 12.632812 -14.265625 12.050781 -14.101562 11.449219 -14.101562 C 10.582031 -14.101562 9.773438 -14.382812 9.023438 -14.949219 C 8.273438 -15.515625 7.667969 -16.25 7.199219 -17.148438 C 6.734375 -18.050781 6.5 -18.933594 6.5 -19.800781 C 6.5 -21.199219 7.101562 -22.265625 8.300781 -23 C 9.332031 -23.601562 10.308594 -23.984375 11.226562 -24.148438 C 12.140625 -24.316406 13.25 -24.417969 14.550781 -24.449219 C 15.949219 -24.449219 17.207031 -24.550781 18.324219 -24.75 C 19.441406 -24.949219 20.714844 -25.433594 22.148438 -26.199219 C 21.582031 -27.398438 21.300781 -28.667969 21.300781 -30 C 21.300781 -31.199219 21.566406 -32.417969 22.101562 -33.648438 C 20.699219 -34.417969 19.441406 -34.898438 18.324219 -35.101562 C 17.207031 -35.300781 15.933594 -35.417969 14.5 -35.449219 C 13.199219 -35.484375 12.101562 -35.582031 11.199219 -35.75 C 10.300781 -35.917969 9.332031 -36.300781 8.300781 -36.898438 C 7.101562 -37.597656 6.5 -38.683594 6.5 -40.148438 C 6.5 -41.015625 6.726562 -41.890625 7.175781 -42.773438 C 7.625 -43.65625 8.226562 -44.382812 8.976562 -44.949219 C 9.726562 -45.515625 10.515625 -45.800781 11.351562 -45.800781 C 11.949219 -45.800781 12.535156 -45.632812 13.101562 -45.300781 C 14.132812 -44.699219 14.941406 -44.058594 15.523438 -43.375 C 16.109375 -42.691406 16.734375 -41.800781 17.398438 -40.699219 C 18.167969 -39.433594 18.925781 -38.375 19.675781 -37.523438 C 20.425781 -36.675781 21.5 -35.832031 22.898438 -35 C 23.597656 -36.035156 24.515625 -36.875 25.648438 -37.523438 C 26.78125 -38.175781 28 -38.550781 29.300781 -38.648438 C 29.234375 -40.25 29.007812 -41.582031 28.625 -42.648438 C 28.242188 -43.714844 27.699219 -44.867188 27 -46.101562 C 26.367188 -47.234375 25.890625 -48.226562 25.574219 -49.074219 C 25.257812 -49.925781 25.101562 -50.964844 25.101562 -52.199219 C 25.101562 -53.433594 25.582031 -54.390625 26.550781 -55.074219 C 27.515625 -55.757812 28.667969 -56.101562 30 -56.101562 C 31.332031 -56.101562 32.484375 -55.757812 33.449219 -55.074219 C 34.417969 -54.390625 34.898438 -53.433594 34.898438 -52.199219 C 34.898438 -51 34.75 -49.964844 34.449219 -49.101562 C 34.148438 -48.234375 33.683594 -47.25 33.050781 -46.148438 C 32.382812 -44.949219 31.867188 -43.808594 31.5 -42.726562 C 31.132812 -41.640625 30.933594 -40.285156 30.898438 -38.648438 C 32.132812 -38.515625 33.285156 -38.140625 34.351562 -37.523438 C 35.417969 -36.90625 36.316406 -36.101562 37.050781 -35.101562 C 38.382812 -35.933594 39.398438 -36.757812 40.101562 -37.574219 C 40.800781 -38.390625 41.535156 -39.433594 42.300781 -40.699219 C 42.96875 -41.800781 43.589844 -42.691406 44.175781 -43.375 C 44.757812 -44.058594 45.566406 -44.699219 46.601562 -45.300781 C 47.167969 -45.632812 47.75 -45.800781 48.351562 -45.800781 C 49.21875 -45.800781 50.023438 -45.515625 50.773438 -44.949219 C 51.523438 -44.382812 52.132812 -43.648438 52.601562 -42.75 C 53.066406 -41.851562 53.300781 -40.964844 53.300781 -40.101562 C 53.300781 -38.699219 52.699219 -37.632812 51.5 -36.898438 C 50.464844 -36.300781 49.5 -35.917969 48.601562 -35.75 C 47.699219 -35.582031 46.582031 -35.484375 45.25 -35.449219 C 43.851562 -35.417969 42.609375 -35.308594 41.523438 -35.125 C 40.441406 -34.941406 39.214844 -34.5 37.851562 -33.800781 C 38.417969 -32.601562 38.699219 -31.332031 38.699219 -30 C 38.699219 -28.632812 38.382812 -27.316406 37.75 -26.050781 C 39.183594 -25.351562 40.449219 -24.910156 41.550781 -24.726562 C 42.648438 -24.542969 43.882812 -24.449219 45.25 -24.449219 C 46.582031 -24.417969 47.691406 -24.316406 48.574219 -24.148438 C 49.457031 -23.984375 50.433594 -23.601562 51.5 -23 Z M 30 -24 C 31.035156 -24 32.023438 -24.273438 32.976562 -24.824219 C 33.925781 -25.375 34.683594 -26.117188 35.25 -27.050781 C 35.816406 -27.984375 36.101562 -28.964844 36.101562 -30 C 36.101562 -31.035156 35.816406 -32.023438 35.25 -32.976562 C 34.683594 -33.925781 33.925781 -34.683594 32.976562 -35.25 C 32.027344 -35.816406 31.035156 -36.101562 30 -36.101562 C 28.964844 -36.101562 27.984375 -35.816406 27.050781 -35.25 C 26.117188 -34.683594 25.375 -33.925781 24.824219 -32.976562 C 24.273438 -32.027344 24 -31.035156 24 -30 C 24 -28.964844 24.273438 -27.984375 24.824219 -27.050781 C 25.375 -26.117188 26.117188 -25.375 27.050781 -24.824219 C 27.984375 -24.273438 28.964844 -24 30 -24 Z M 30 -24 "/>
</symbol>
<symbol overflow="visible" id="glyph8196711-0">
<path style="stroke:none;" d="M 0.359375 1.699219 L 0.359375 -7.25 L 5.640625 -7.25 L 5.640625 1.699219 Z M 0.878906 1.179688 L 5.121094 1.179688 L 5.121094 -6.730469 L 0.878906 -6.730469 Z M 2.964844 -5.269531 C 2.75 -5.269531 2.578125 -5.214844 2.445312 -5.109375 C 2.3125 -5 2.25 -4.832031 2.253906 -4.605469 L 1.679688 -4.605469 C 1.679688 -5.113281 1.8125 -5.441406 2.082031 -5.59375 C 2.351562 -5.746094 2.625 -5.824219 2.90625 -5.824219 C 3.371094 -5.824219 3.722656 -5.730469 3.960938 -5.539062 C 4.199219 -5.347656 4.320312 -5.074219 4.320312 -4.726562 C 4.320312 -4.550781 4.292969 -4.390625 4.234375 -4.253906 C 4.179688 -4.113281 4.109375 -3.992188 4.023438 -3.886719 C 3.9375 -3.78125 3.816406 -3.652344 3.664062 -3.496094 L 3.464844 -3.289062 C 3.367188 -3.207031 3.304688 -3.140625 3.269531 -3.085938 C 3.238281 -3.035156 3.21875 -2.960938 3.21875 -2.863281 L 3.21875 -2.453125 L 2.648438 -2.453125 L 2.648438 -2.863281 C 2.648438 -2.988281 2.652344 -3.078125 2.664062 -3.136719 C 2.671875 -3.195312 2.695312 -3.257812 2.734375 -3.324219 C 2.808594 -3.449219 2.945312 -3.597656 3.148438 -3.773438 C 3.273438 -3.882812 3.371094 -3.976562 3.441406 -4.054688 C 3.515625 -4.132812 3.574219 -4.21875 3.625 -4.320312 C 3.675781 -4.421875 3.699219 -4.53125 3.699219 -4.648438 C 3.699219 -4.847656 3.632812 -5 3.5 -5.109375 C 3.367188 -5.214844 3.1875 -5.269531 2.964844 -5.269531 Z M 3.453125 -1.675781 C 3.453125 -1.535156 3.40625 -1.414062 3.304688 -1.316406 C 3.203125 -1.214844 3.082031 -1.164062 2.941406 -1.164062 C 2.800781 -1.164062 2.679688 -1.214844 2.578125 -1.316406 C 2.480469 -1.414062 2.429688 -1.535156 2.429688 -1.675781 C 2.429688 -1.820312 2.480469 -1.941406 2.578125 -2.039062 C 2.679688 -2.140625 2.800781 -2.191406 2.941406 -2.191406 C 3.082031 -2.191406 3.203125 -2.140625 3.304688 -2.039062 C 3.40625 -1.941406 3.453125 -1.816406 3.453125 -1.675781 Z M 2.308594 -1.066406 C 2.449219 -1.066406 2.570312 -1.015625 2.671875 -0.914062 C 2.773438 -0.8125 2.824219 -0.691406 2.824219 -0.550781 C 2.824219 -0.410156 2.773438 -0.289062 2.671875 -0.191406 C 2.570312 -0.0898438 2.449219 -0.0390625 2.308594 -0.0390625 C 2.167969 -0.0390625 2.050781 -0.0898438 1.949219 -0.191406 C 1.851562 -0.289062 1.800781 -0.410156 1.800781 -0.550781 C 1.800781 -0.691406 1.851562 -0.8125 1.949219 -0.914062 C 2.050781 -1.015625 2.171875 -1.066406 2.308594 -1.066406 Z M 3.574219 -1.066406 C 3.714844 -1.066406 3.835938 -1.015625 3.933594 -0.914062 C 4.035156 -0.8125 4.085938 -0.691406 4.085938 -0.550781 C 4.085938 -0.410156 4.035156 -0.289062 3.933594 -0.191406 C 3.835938 -0.0898438 3.714844 -0.0390625 3.574219 -0.0390625 C 3.429688 -0.0390625 3.308594 -0.0898438 3.210938 -0.191406 C 3.109375 -0.289062 3.058594 -0.410156 3.058594 -0.550781 C 3.058594 -0.691406 3.109375 -0.8125 3.210938 -0.914062 C 3.308594 -1.015625 3.433594 -1.066406 3.574219 -1.066406 Z M 3.574219 -1.066406 "/>
</symbol>
<symbol overflow="visible" id="glyph8196711-1">
<path style="stroke:none;" d="M 5.078125 1.898438 L 4.160156 1.898438 L 0.851562 -7.878906 L 1.78125 -7.878906 Z M 5.078125 1.898438 "/>
</symbol>
<symbol overflow="visible" id="glyph8196711-2">
<path style="stroke:none;" d="M 2.585938 0.0703125 C 1.960938 0.0703125 1.515625 -0.0976562 1.242188 -0.429688 C 0.972656 -0.761719 0.835938 -1.253906 0.835938 -1.898438 L 0.835938 -5.5 L 1.675781 -5.5 L 1.675781 -2.238281 C 1.675781 -1.890625 1.699219 -1.601562 1.746094 -1.375 C 1.796875 -1.148438 1.902344 -0.964844 2.066406 -0.824219 C 2.230469 -0.679688 2.476562 -0.609375 2.804688 -0.609375 C 3.144531 -0.609375 3.425781 -0.699219 3.644531 -0.882812 C 3.863281 -1.0625 4.023438 -1.300781 4.125 -1.585938 C 4.226562 -1.875 4.273438 -2.1875 4.273438 -2.519531 L 4.273438 -5.5 L 5.136719 -5.5 L 5.136719 -1.191406 C 5.136719 -0.96875 5.140625 -0.699219 5.15625 -0.378906 C 5.15625 -0.304688 5.160156 -0.179688 5.164062 0 L 4.375 0 L 4.335938 -0.730469 C 4.144531 -0.453125 3.898438 -0.25 3.601562 -0.121094 C 3.300781 0.0078125 2.960938 0.0703125 2.585938 0.0703125 Z M 2.585938 0.0703125 "/>
</symbol>
<symbol overflow="visible" id="glyph8196711-3">
<path style="stroke:none;" d="M 0.769531 -0.839844 L 0.996094 -1.046875 C 1.554688 -1.550781 2.054688 -2.027344 2.496094 -2.472656 C 2.933594 -2.917969 3.328125 -3.398438 3.675781 -3.921875 C 4.023438 -4.441406 4.199219 -4.914062 4.199219 -5.339844 C 4.199219 -5.597656 4.148438 -5.820312 4.046875 -6.011719 C 3.945312 -6.203125 3.804688 -6.351562 3.625 -6.453125 C 3.445312 -6.558594 3.238281 -6.609375 3.011719 -6.609375 C 2.757812 -6.609375 2.53125 -6.550781 2.335938 -6.4375 C 2.136719 -6.324219 1.984375 -6.160156 1.875 -5.949219 C 1.765625 -5.738281 1.710938 -5.496094 1.710938 -5.21875 L 0.828125 -5.21875 C 0.839844 -5.671875 0.941406 -6.058594 1.140625 -6.378906 C 1.335938 -6.699219 1.601562 -6.941406 1.933594 -7.105469 C 2.265625 -7.269531 2.632812 -7.351562 3.039062 -7.351562 C 3.417969 -7.351562 3.761719 -7.277344 4.078125 -7.136719 C 4.394531 -6.992188 4.644531 -6.773438 4.835938 -6.484375 C 5.023438 -6.191406 5.121094 -5.832031 5.121094 -5.410156 C 5.121094 -4.964844 4.96875 -4.484375 4.664062 -3.972656 C 4.359375 -3.460938 4.003906 -2.988281 3.609375 -2.550781 C 3.210938 -2.113281 2.722656 -1.613281 2.144531 -1.046875 L 1.78125 -0.691406 L 5.179688 -0.691406 L 5.179688 0.0507812 L 0.769531 0.0507812 Z M 0.769531 -0.839844 "/>
</symbol>
<symbol overflow="visible" id="glyph8196711-4">
<path style="stroke:none;" d="M 2.878906 0.0898438 C 2.519531 0.0898438 2.191406 0.0351562 1.898438 -0.078125 C 1.601562 -0.1875 1.359375 -0.351562 1.167969 -0.5625 C 0.976562 -0.773438 0.851562 -1.027344 0.800781 -1.320312 L 1.519531 -1.589844 C 1.628906 -1.253906 1.796875 -1.007812 2.015625 -0.859375 C 2.234375 -0.707031 2.523438 -0.628906 2.878906 -0.628906 C 3.355469 -0.628906 3.710938 -0.800781 3.949219 -1.140625 C 4.183594 -1.480469 4.332031 -1.863281 4.390625 -2.296875 C 4.453125 -2.726562 4.492188 -3.234375 4.511719 -3.820312 C 4.335938 -3.480469 4.101562 -3.222656 3.800781 -3.046875 C 3.5 -2.867188 3.160156 -2.78125 2.78125 -2.78125 C 2.378906 -2.78125 2.011719 -2.878906 1.691406 -3.078125 C 1.367188 -3.28125 1.113281 -3.554688 0.933594 -3.90625 C 0.75 -4.257812 0.660156 -4.652344 0.660156 -5.089844 C 0.660156 -5.535156 0.761719 -5.925781 0.96875 -6.269531 C 1.171875 -6.613281 1.453125 -6.878906 1.804688 -7.066406 C 2.160156 -7.253906 2.554688 -7.351562 2.988281 -7.351562 C 3.601562 -7.351562 4.082031 -7.207031 4.425781 -6.921875 C 4.769531 -6.632812 5.003906 -6.242188 5.136719 -5.75 C 5.265625 -5.257812 5.328125 -4.65625 5.328125 -3.949219 C 5.328125 -3.199219 5.265625 -2.53125 5.136719 -1.941406 C 5.007812 -1.355469 4.765625 -0.867188 4.40625 -0.484375 C 4.046875 -0.101562 3.535156 0.0898438 2.878906 0.0898438 Z M 2.910156 -3.46875 C 3.21875 -3.46875 3.484375 -3.539062 3.703125 -3.675781 C 3.921875 -3.8125 4.085938 -4 4.199219 -4.242188 C 4.3125 -4.484375 4.371094 -4.761719 4.371094 -5.078125 C 4.371094 -5.382812 4.3125 -5.652344 4.199219 -5.886719 C 4.082031 -6.121094 3.917969 -6.308594 3.707031 -6.441406 C 3.496094 -6.574219 3.25 -6.640625 2.96875 -6.640625 C 2.683594 -6.640625 2.433594 -6.574219 2.21875 -6.441406 C 2.003906 -6.308594 1.835938 -6.121094 1.71875 -5.878906 C 1.597656 -5.640625 1.539062 -5.367188 1.539062 -5.058594 C 1.539062 -4.757812 1.59375 -4.488281 1.703125 -4.246094 C 1.8125 -4.003906 1.96875 -3.816406 2.171875 -3.675781 C 2.378906 -3.539062 2.625 -3.46875 2.910156 -3.46875 Z M 2.910156 -3.46875 "/>
</symbol>
<symbol overflow="visible" id="glyph8196711-5">
<path style="stroke:none;" d="M 3.128906 0.101562 C 2.792969 0.101562 2.507812 0.0390625 2.273438 -0.0820312 C 2.039062 -0.203125 1.828125 -0.40625 1.640625 -0.691406 L 1.609375 0 L 0.789062 0 C 0.808594 -0.378906 0.820312 -0.777344 0.820312 -1.191406 L 0.820312 -7.898438 L 1.660156 -7.898438 L 1.660156 -4.519531 C 1.84375 -4.84375 2.066406 -5.09375 2.335938 -5.265625 C 2.601562 -5.441406 2.902344 -5.53125 3.238281 -5.53125 C 3.679688 -5.53125 4.046875 -5.402344 4.339844 -5.148438 C 4.632812 -4.894531 4.851562 -4.546875 4.996094 -4.105469 C 5.140625 -3.660156 5.210938 -3.152344 5.210938 -2.578125 C 5.210938 -2.109375 5.128906 -1.671875 4.972656 -1.261719 C 4.8125 -0.855469 4.578125 -0.523438 4.265625 -0.273438 C 3.953125 -0.0234375 3.574219 0.101562 3.128906 0.101562 Z M 2.960938 -0.558594 C 3.289062 -0.558594 3.558594 -0.652344 3.769531 -0.835938 C 3.980469 -1.019531 4.132812 -1.257812 4.226562 -1.550781 C 4.320312 -1.847656 4.371094 -2.171875 4.371094 -2.519531 C 4.371094 -3.203125 4.265625 -3.753906 4.058594 -4.175781 C 3.851562 -4.597656 3.523438 -4.808594 3.070312 -4.808594 C 2.585938 -4.808594 2.226562 -4.597656 1.988281 -4.167969 C 1.75 -3.738281 1.628906 -3.183594 1.628906 -2.5 C 1.628906 -2.171875 1.675781 -1.859375 1.765625 -1.566406 C 1.855469 -1.273438 2 -1.03125 2.199219 -0.84375 C 2.398438 -0.65625 2.652344 -0.558594 2.960938 -0.558594 Z M 2.960938 -0.558594 "/>
</symbol>
<symbol overflow="visible" id="glyph8196711-6">
<path style="stroke:none;" d="M 2.339844 0 L 1.371094 0 L 4.300781 -6.429688 L 0.890625 -6.429688 L 0.890625 -7.25 L 5.269531 -7.25 L 5.269531 -6.441406 Z M 2.339844 0 "/>
</symbol>
<symbol overflow="visible" id="glyph8196711-7">
<path style="stroke:none;" d="M 3.210938 -4.441406 C 3.960938 -4.308594 4.503906 -4.019531 4.84375 -3.582031 C 5.179688 -3.144531 5.351562 -2.625 5.351562 -2.019531 C 5.351562 -1.574219 5.234375 -1.1875 4.996094 -0.867188 C 4.761719 -0.546875 4.457031 -0.300781 4.085938 -0.136719 C 3.710938 0.0273438 3.324219 0.109375 2.921875 0.109375 C 2.523438 0.109375 2.152344 0.03125 1.808594 -0.128906 C 1.464844 -0.285156 1.1875 -0.527344 0.976562 -0.847656 C 0.765625 -1.167969 0.660156 -1.558594 0.660156 -2.019531 L 1.539062 -2.019531 C 1.539062 -1.738281 1.609375 -1.488281 1.742188 -1.273438 C 1.878906 -1.0625 2.054688 -0.898438 2.273438 -0.789062 C 2.492188 -0.675781 2.722656 -0.621094 2.96875 -0.621094 C 3.230469 -0.621094 3.476562 -0.675781 3.703125 -0.792969 C 3.933594 -0.90625 4.121094 -1.070312 4.261719 -1.28125 C 4.402344 -1.492188 4.46875 -1.738281 4.46875 -2.019531 C 4.46875 -2.398438 4.371094 -2.722656 4.171875 -2.992188 C 3.972656 -3.265625 3.699219 -3.46875 3.347656 -3.609375 C 2.996094 -3.75 2.597656 -3.820312 2.148438 -3.820312 L 2.148438 -4.570312 L 4.160156 -6.5 L 0.828125 -6.5 L 0.828125 -7.25 L 5.210938 -7.25 L 5.210938 -6.398438 Z M 3.210938 -4.441406 "/>
</symbol>
<symbol overflow="visible" id="glyph8196711-8">
<path style="stroke:none;" d="M 2.496094 0.101562 C 1.960938 0.101562 1.539062 -0.0273438 1.230469 -0.285156 C 0.921875 -0.542969 0.765625 -0.917969 0.765625 -1.410156 C 0.765625 -2.128906 1.058594 -2.625 1.648438 -2.890625 C 2.234375 -3.15625 2.933594 -3.289062 3.746094 -3.289062 L 4.324219 -3.289062 L 4.324219 -3.558594 C 4.324219 -3.773438 4.304688 -3.972656 4.261719 -4.152344 C 4.21875 -4.335938 4.101562 -4.5 3.917969 -4.652344 C 3.734375 -4.804688 3.449219 -4.878906 3.066406 -4.878906 C 2.878906 -4.878906 2.703125 -4.859375 2.542969 -4.8125 C 2.382812 -4.765625 2.238281 -4.710938 2.113281 -4.644531 C 1.988281 -4.578125 1.839844 -4.492188 1.671875 -4.386719 L 1.464844 -4.261719 L 1.074219 -4.871094 C 1.28125 -5.003906 1.472656 -5.117188 1.648438 -5.210938 C 1.824219 -5.308594 2.039062 -5.390625 2.289062 -5.46875 C 2.539062 -5.542969 2.804688 -5.578125 3.085938 -5.578125 C 3.6875 -5.578125 4.140625 -5.472656 4.445312 -5.257812 C 4.75 -5.042969 4.941406 -4.796875 5.023438 -4.523438 C 5.105469 -4.246094 5.144531 -3.949219 5.144531 -3.628906 L 5.144531 -1.550781 C 5.144531 -1.078125 5.175781 -0.558594 5.234375 0 L 4.433594 0 C 4.429688 -0.078125 4.421875 -0.1875 4.414062 -0.335938 L 4.386719 -0.75 C 4.207031 -0.453125 3.949219 -0.238281 3.601562 -0.101562 C 3.257812 0.03125 2.886719 0.101562 2.496094 0.101562 Z M 2.714844 -0.558594 C 3.277344 -0.558594 3.6875 -0.746094 3.941406 -1.113281 C 4.195312 -1.480469 4.324219 -1.976562 4.324219 -2.601562 C 4.089844 -2.613281 3.910156 -2.621094 3.785156 -2.621094 C 3.023438 -2.621094 2.46875 -2.527344 2.121094 -2.347656 C 1.769531 -2.164062 1.59375 -1.875 1.59375 -1.480469 C 1.59375 -1.167969 1.695312 -0.933594 1.890625 -0.785156 C 2.089844 -0.636719 2.363281 -0.558594 2.714844 -0.558594 Z M 2.714844 -0.558594 "/>
</symbol>
<symbol overflow="visible" id="glyph8196711-9">
<path style="stroke:none;" d="M 3.339844 0.0507812 C 2.84375 0.0507812 2.402344 -0.0585938 2.023438 -0.28125 C 1.640625 -0.5 1.34375 -0.820312 1.128906 -1.242188 C 0.917969 -1.664062 0.808594 -2.164062 0.808594 -2.738281 C 0.808594 -3.3125 0.921875 -3.8125 1.144531 -4.238281 C 1.367188 -4.667969 1.675781 -4.996094 2.074219 -5.226562 C 2.46875 -5.457031 2.917969 -5.570312 3.421875 -5.570312 C 3.789062 -5.570312 4.125 -5.492188 4.425781 -5.335938 C 4.726562 -5.183594 4.957031 -4.996094 5.121094 -4.78125 L 4.589844 -4.21875 C 4.429688 -4.394531 4.261719 -4.53125 4.085938 -4.636719 C 3.910156 -4.738281 3.691406 -4.789062 3.429688 -4.789062 C 3.089844 -4.789062 2.789062 -4.703125 2.523438 -4.53125 C 2.257812 -4.359375 2.050781 -4.121094 1.902344 -3.816406 C 1.753906 -3.511719 1.679688 -3.164062 1.679688 -2.769531 C 1.679688 -2.382812 1.75 -2.035156 1.890625 -1.722656 C 2.03125 -1.410156 2.226562 -1.164062 2.480469 -0.988281 C 2.734375 -0.808594 3.023438 -0.71875 3.351562 -0.71875 C 3.613281 -0.71875 3.851562 -0.789062 4.070312 -0.921875 C 4.285156 -1.058594 4.488281 -1.230469 4.679688 -1.441406 L 5.191406 -0.871094 C 5.039062 -0.699219 4.878906 -0.550781 4.722656 -0.421875 C 4.5625 -0.289062 4.367188 -0.179688 4.136719 -0.0859375 C 3.902344 0.00390625 3.636719 0.0507812 3.339844 0.0507812 Z M 3.339844 0.0507812 "/>
</symbol>
</g>
</defs>
<g id="surface2115">
<g style="fill:rgb(0%,0%,0%);fill-opacity:1;">
  <use xlink:href="#glyph8196710-1" x="55" y="86.95"/>
</g>
<g style="fill:rgb(52.941176%,80.784314%,92.156863%);fill-opacity:1;">
  <use xlink:href="#glyph8196711-1" x="65.32" y="120"/>
  <use xlink:href="#glyph8196711-2" x="71.32" y="120"/>
  <use xlink:href="#glyph8196711-3" x="77.32" y="120"/>
  <use xlink:href="#glyph8196711-3" x="83.32" y="120"/>
  <use xlink:href="#glyph8196711-4" x="89.32" y="120"/>
  <use xlink:href="#glyph8196711-5" x="95.32" y="120"/>
</g>
<g style="fill:rgb(0%,0%,0%);fill-opacity:1;">
  <use xlink:href="#glyph8196710-2" x="203" y="87.25"/>
</g>
<g style="fill:rgb(52.941176%,80.784314%,92.156863%);fill-opacity:1;">
  <use xlink:href="#glyph8196711-1" x="210.3075" y="120"/>
  <use xlink:href="#glyph8196711-2" x="216.3075" y="120"/>
  <use xlink:href="#glyph8196711-3" x="222.3075" y="120"/>
  <use xlink:href="#glyph8196711-6" x="228.3075" y="120"/>
  <use xlink:href="#glyph8196711-7" x="234.3075" y="120"/>
  <use xlink:href="#glyph8196711-8" x="240.3075" y="120"/>
</g>
<g style="fill:rgb(0%,0%,0%);fill-opacity:1;">
  <use xlink:href="#glyph8196710-3" x="349.1" y="88.05"/>
</g>
<g style="fill:rgb(52.941176%,80.784314%,92.156863%);fill-opacity:1;">
  <use xlink:href="#glyph8196711-1" x="355.32" y="120"/>
  <use xlink:href="#glyph8196711-2" x="361.32" y="120"/>
  <use xlink:href="#glyph8196711-3" x="367.32" y="120"/>
  <use xlink:href="#glyph8196711-6" x="373.32" y="120"/>
  <use xlink:href="#glyph8196711-7" x="379.32" y="120"/>
  <use xlink:href="#glyph8196711-5" x="385.32" y="120"/>
</g>
<g style="fill:rgb(0%,0%,0%);fill-opacity:1;">
  <use xlink:href="#glyph8196710-4" x="494.1" y="88.05"/>
</g>
<g style="fill:rgb(52.941176%,80.784314%,92.156863%);fill-opacity:1;">
  <use xlink:href="#glyph8196711-1" x="500.33" y="120"/>
  <use xlink:href="#glyph8196711-2" x="506.33" y="120"/>
  <use xlink:href="#glyph8196711-3" x="512.33" y="120"/>
  <use xlink:href="#glyph8196711-6" x="518.33" y="120"/>
  <use xlink:href="#glyph8196711-7" x="524.33" y="120"/>
  <use xlink:href="#glyph8196711-9" x="530.33" y="120"/>
</g>
</g>
</svg>
