<?xml version="1.0" encoding="UTF-8"?>
<svg xmlns="http://www.w3.org/2000/svg" xmlns:xlink="http://www.w3.org/1999/xlink" width="300pt" height="300pt" viewBox="0 0 300 300" version="1.1">
<g id="surface5169">
<rect x="0" y="0" width="300" height="300" style="fill:rgb(100%,100%,100%);fill-opacity:1;stroke:none;"/>
<path style=" stroke:none;fill-rule:nonzero;fill:rgb(89.803922%,89.803922%,89.803922%);fill-opacity:1;" d="M 0.5 0 C 0.5 0.667969 -0.5 0.667969 -0.5 0 C -0.5 -0.667969 0.5 -0.667969 0.5 0 "/>
<path style=" stroke:none;fill-rule:nonzero;fill:rgb(89.803922%,89.803922%,89.803922%);fill-opacity:1;" d="M 15.5 0 C 15.5 0.667969 14.5 0.667969 14.5 0 C 14.5 -0.667969 15.5 -0.667969 15.5 0 "/>
<path style=" stroke:none;fill-rule:nonzero;fill:rgb(89.803922%,89.803922%,89.803922%);fill-opacity:1;" d="M 30.5 0 C 30.5 0.667969 29.5 0.667969 29.5 0 C 29.5 -0.667969 30.5 -0.667969 30.5 0 "/>
<path style=" stroke:none;fill-rule:nonzero;fill:rgb(89.803922%,89.803922%,89.803922%);fill-opacity:1;" d="M 45.5 0 C 45.5 0.667969 44.5 0.667969 44.5 0 C 44.5 -0.667969 45.5 -0.667969 45.5 0 "/>
<path style=" stroke:none;fill-rule:nonzero;fill:rgb(89.803922%,89.803922%,89.803922%);fill-opacity:1;" d="M 60.5 0 C 60.5 0.667969 59.5 0.667969 59.5 0 C 59.5 -0.667969 60.5 -0.667969 60.5 0 "/>
<path style=" stroke:none;fill-rule:nonzero;fill:rgb(89.803922%,89.803922%,89.803922%);fill-opacity:1;" d="M 75.5 0 C 75.5 0.667969 74.5 0.667969 74.5 0 C 74.5 -0.667969 75.5 -0.667969 75.5 0 "/>
<path style=" stroke:none;fill-rule:nonzero;fill:rgb(89.803922%,89.803922%,89.803922%);fill-opacity:1;" d="M 90.5 0 C 90.5 0.667969 89.5 0.667969 89.5 0 C 89.5 -0.667969 90.5 -0.667969 90.5 0 "/>
<path style=" stroke:none;fill-rule:nonzero;fill:rgb(89.803922%,89.803922%,89.803922%);fill-opacity:1;" d="M 105.5 0 C 105.5 0.667969 104.5 0.667969 104.5 0 C 104.5 -0.667969 105.5 -0.667969 105.5 0 "/>
<path style=" stroke:none;fill-rule:nonzero;fill:rgb(89.803922%,89.803922%,89.803922%);fill-opacity:1;" d="M 120.5 0 C 120.5 0.667969 119.5 0.667969 119.5 0 C 119.5 -0.667969 120.5 -0.667969 120.5 0 "/>
<path style=" stroke:none;fill-rule:nonzero;fill:rgb(89.803922%,89.803922%,89.803922%);fill-opacity:1;" d="M 135.5 0 C 135.5 0.667969 134.5 0.667969 134.5 0 C 134.5 -0.667969 135.5 -0.667969 135.5 0 "/>
<path style=" stroke:none;fill-rule:nonzero;fill:rgb(89.803922%,89.803922%,89.803922%);fill-opacity:1;" d="M 150.5 0 C 150.5 0.667969 149.5 0.667969 149.5 0 C 149.5 -0.667969 150.5 -0.667969 150.5 0 "/>
<path style=" stroke:none;fill-rule:nonzero;fill:rgb(89.803922%,89.803922%,89.803922%);fill-opacity:1;" d="M 165.5 0 C 165.5 0.667969 164.5 0.667969 164.5 0 C 164.5 -0.667969 165.5 -0.667969 165.5 0 "/>
<path style=" stroke:none;fill-rule:nonzero;fill:rgb(89.803922%,89.803922%,89.803922%);fill-opacity:1;" d="M 180.5 0 C 180.5 0.667969 179.5 0.667969 179.5 0 C 179.5 -0.667969 180.5 -0.667969 180.5 0 "/>
<path style=" stroke:none;fill-rule:nonzero;fill:rgb(89.803922%,89.803922%,89.803922%);fill-opacity:1;" d="M 195.5 0 C 195.5 0.667969 194.5 0.667969 194.5 0 C 194.5 -0.667969 195.5 -0.667969 195.5 0 "/>
<path style=" stroke:none;fill-rule:nonzero;fill:rgb(89.803922%,89.803922%,89.803922%);fill-opacity:1;" d="M 210.5 0 C 210.5 0.667969 209.5 0.667969 209.5 0 C 209.5 -0.667969 210.5 -0.667969 210.5 0 "/>
<path style=" stroke:none;fill-rule:nonzero;fill:rgb(89.803922%,89.803922%,89.803922%);fill-opacity:1;" d="M 225.5 0 C 225.5 0.667969 224.5 0.667969 224.5 0 C 224.5 -0.667969 225.5 -0.667969 225.5 0 "/>
<path style=" stroke:none;fill-rule:nonzero;fill:rgb(89.803922%,89.803922%,89.803922%);fill-opacity:1;" d="M 240.5 0 C 240.5 0.667969 239.5 0.667969 239.5 0 C 239.5 -0.667969 240.5 -0.667969 240.5 0 "/>
<path style=" stroke:none;fill-rule:nonzero;fill:rgb(89.803922%,89.803922%,89.803922%);fill-opacity:1;" d="M 255.5 0 C 255.5 0.667969 254.5 0.667969 254.5 0 C 254.5 -0.667969 255.5 -0.667969 255.5 0 "/>
<path style=" stroke:none;fill-rule:nonzero;fill:rgb(89.803922%,89.803922%,89.803922%);fill-opacity:1;" d="M 270.5 0 C 270.5 0.667969 269.5 0.667969 269.5 0 C 269.5 -0.667969 270.5 -0.667969 270.5 0 "/>
<path style=" stroke:none;fill-rule:nonzero;fill:rgb(89.803922%,89.803922%,89.803922%);fill-opacity:1;" d="M 285.5 0 C 285.5 0.667969 284.5 0.667969 284.5 0 C 284.5 -0.667969 285.5 -0.667969 285.5 0 "/>
<path style=" stroke:none;fill-rule:nonzero;fill:rgb(89.803922%,89.803922%,89.803922%);fill-opacity:1;" d="M 300.5 0 C 300.5 0.667969 299.5 0.667969 299.5 0 C 299.5 -0.667969 300.5 -0.667969 300.5 0 "/>
<path style=" stroke:none;fill-rule:nonzero;fill:rgb(89.803922%,89.803922%,89.803922%);fill-opacity:1;" d="M 0.5 15 C 0.5 15.667969 -0.5 15.667969 -0.5 15 C -0.5 14.332031 0.5 14.332031 0.5 15 "/>
<path style=" stroke:none;fill-rule:nonzero;fill:rgb(89.803922%,89.803922%,89.803922%);fill-opacity:1;" d="M 15.5 15 C 15.5 15.667969 14.5 15.667969 14.5 15 C 14.5 14.332031 15.5 14.332031 15.5 15 "/>
<path style=" stroke:none;fill-rule:nonzero;fill:rgb(89.803922%,89.803922%,89.803922%);fill-opacity:1;" d="M 30.5 15 C 30.5 15.667969 29.5 15.667969 29.5 15 C 29.5 14.332031 30.5 14.332031 30.5 15 "/>
<path style=" stroke:none;fill-rule:nonzero;fill:rgb(89.803922%,89.803922%,89.803922%);fill-opacity:1;" d="M 45.5 15 C 45.5 15.667969 44.5 15.667969 44.5 15 C 44.5 14.332031 45.5 14.332031 45.5 15 "/>
<path style=" stroke:none;fill-rule:nonzero;fill:rgb(89.803922%,89.803922%,89.803922%);fill-opacity:1;" d="M 60.5 15 C 60.5 15.667969 59.5 15.667969 59.5 15 C 59.5 14.332031 60.5 14.332031 60.5 15 "/>
<path style=" stroke:none;fill-rule:nonzero;fill:rgb(89.803922%,89.803922%,89.803922%);fill-opacity:1;" d="M 75.5 15 C 75.5 15.667969 74.5 15.667969 74.5 15 C 74.5 14.332031 75.5 14.332031 75.5 15 "/>
<path style=" stroke:none;fill-rule:nonzero;fill:rgb(89.803922%,89.803922%,89.803922%);fill-opacity:1;" d="M 90.5 15 C 90.5 15.667969 89.5 15.667969 89.5 15 C 89.5 14.332031 90.5 14.332031 90.5 15 "/>
<path style=" stroke:none;fill-rule:nonzero;fill:rgb(89.803922%,89.803922%,89.803922%);fill-opacity:1;" d="M 105.5 15 C 105.5 15.667969 104.5 15.667969 104.5 15 C 104.5 14.332031 105.5 14.332031 105.5 15 "/>
<path style=" stroke:none;fill-rule:nonzero;fill:rgb(89.803922%,89.803922%,89.803922%);fill-opacity:1;" d="M 120.5 15 C 120.5 15.667969 119.5 15.667969 119.5 15 C 119.5 14.332031 120.5 14.332031 120.5 15 "/>
<path style=" stroke:none;fill-rule:nonzero;fill:rgb(89.803922%,89.803922%,89.803922%);fill-opacity:1;" d="M 135.5 15 C 135.5 15.667969 134.5 15.667969 134.5 15 C 134.5 14.332031 135.5 14.332031 135.5 15 "/>
<path style=" stroke:none;fill-rule:nonzero;fill:rgb(89.803922%,89.803922%,89.803922%);fill-opacity:1;" d="M 150.5 15 C 150.5 15.667969 149.5 15.667969 149.5 15 C 149.5 14.332031 150.5 14.332031 150.5 15 "/>
<path style=" stroke:none;fill-rule:nonzero;fill:rgb(89.803922%,89.803922%,89.803922%);fill-opacity:1;" d="M 165.5 15 C 165.5 15.667969 164.5 15.667969 164.5 15 C 164.5 14.332031 165.5 14.332031 165.5 15 "/>
<path style=" stroke:none;fill-rule:nonzero;fill:rgb(89.803922%,89.803922%,89.803922%);fill-opacity:1;" d="M 180.5 15 C 180.5 15.667969 179.5 15.667969 179.5 15 C 179.5 14.332031 180.5 14.332031 180.5 15 "/>
<path style=" stroke:none;fill-rule:nonzero;fill:rgb(89.803922%,89.803922%,89.803922%);fill-opacity:1;" d="M 195.5 15 C 195.5 15.667969 194.5 15.667969 194.5 15 C 194.5 14.332031 195.5 14.332031 195.5 15 "/>
<path style=" stroke:none;fill-rule:nonzero;fill:rgb(89.803922%,89.803922%,89.803922%);fill-opacity:1;" d="M 210.5 15 C 210.5 15.667969 209.5 15.667969 209.5 15 C 209.5 14.332031 210.5 14.332031 210.5 15 "/>
<path style=" stroke:none;fill-rule:nonzero;fill:rgb(89.803922%,89.803922%,89.803922%);fill-opacity:1;" d="M 225.5 15 C 225.5 15.667969 224.5 15.667969 224.5 15 C 224.5 14.332031 225.5 14.332031 225.5 15 "/>
<path style=" stroke:none;fill-rule:nonzero;fill:rgb(89.803922%,89.803922%,89.803922%);fill-opacity:1;" d="M 240.5 15 C 240.5 15.667969 239.5 15.667969 239.5 15 C 239.5 14.332031 240.5 14.332031 240.5 15 "/>
<path style=" stroke:none;fill-rule:nonzero;fill:rgb(89.803922%,89.803922%,89.803922%);fill-opacity:1;" d="M 255.5 15 C 255.5 15.667969 254.5 15.667969 254.5 15 C 254.5 14.332031 255.5 14.332031 255.5 15 "/>
<path style=" stroke:none;fill-rule:nonzero;fill:rgb(89.803922%,89.803922%,89.803922%);fill-opacity:1;" d="M 270.5 15 C 270.5 15.667969 269.5 15.667969 269.5 15 C 269.5 14.332031 270.5 14.332031 270.5 15 "/>
<path style=" stroke:none;fill-rule:nonzero;fill:rgb(89.803922%,89.803922%,89.803922%);fill-opacity:1;" d="M 285.5 15 C 285.5 15.667969 284.5 15.667969 284.5 15 C 284.5 14.332031 285.5 14.332031 285.5 15 "/>
<path style=" stroke:none;fill-rule:nonzero;fill:rgb(89.803922%,89.803922%,89.803922%);fill-opacity:1;" d="M 300.5 15 C 300.5 15.667969 299.5 15.667969 299.5 15 C 299.5 14.332031 300.5 14.332031 300.5 15 "/>
<path style=" stroke:none;fill-rule:nonzero;fill:rgb(89.803922%,89.803922%,89.803922%);fill-opacity:1;" d="M 0.5 30 C 0.5 30.667969 -0.5 30.667969 -0.5 30 C -0.5 29.332031 0.5 29.332031 0.5 30 "/>
<path style=" stroke:none;fill-rule:nonzero;fill:rgb(89.803922%,89.803922%,89.803922%);fill-opacity:1;" d="M 15.5 30 C 15.5 30.667969 14.5 30.667969 14.5 30 C 14.5 29.332031 15.5 29.332031 15.5 30 "/>
<path style=" stroke:none;fill-rule:nonzero;fill:rgb(89.803922%,89.803922%,89.803922%);fill-opacity:1;" d="M 30.5 30 C 30.5 30.667969 29.5 30.667969 29.5 30 C 29.5 29.332031 30.5 29.332031 30.5 30 "/>
<path style=" stroke:none;fill-rule:nonzero;fill:rgb(89.803922%,89.803922%,89.803922%);fill-opacity:1;" d="M 45.5 30 C 45.5 30.667969 44.5 30.667969 44.5 30 C 44.5 29.332031 45.5 29.332031 45.5 30 "/>
<path style=" stroke:none;fill-rule:nonzero;fill:rgb(89.803922%,89.803922%,89.803922%);fill-opacity:1;" d="M 60.5 30 C 60.5 30.667969 59.5 30.667969 59.5 30 C 59.5 29.332031 60.5 29.332031 60.5 30 "/>
<path style=" stroke:none;fill-rule:nonzero;fill:rgb(89.803922%,89.803922%,89.803922%);fill-opacity:1;" d="M 75.5 30 C 75.5 30.667969 74.5 30.667969 74.5 30 C 74.5 29.332031 75.5 29.332031 75.5 30 "/>
<path style=" stroke:none;fill-rule:nonzero;fill:rgb(89.803922%,89.803922%,89.803922%);fill-opacity:1;" d="M 90.5 30 C 90.5 30.667969 89.5 30.667969 89.5 30 C 89.5 29.332031 90.5 29.332031 90.5 30 "/>
<path style=" stroke:none;fill-rule:nonzero;fill:rgb(89.803922%,89.803922%,89.803922%);fill-opacity:1;" d="M 105.5 30 C 105.5 30.667969 104.5 30.667969 104.5 30 C 104.5 29.332031 105.5 29.332031 105.5 30 "/>
<path style=" stroke:none;fill-rule:nonzero;fill:rgb(89.803922%,89.803922%,89.803922%);fill-opacity:1;" d="M 120.5 30 C 120.5 30.667969 119.5 30.667969 119.5 30 C 119.5 29.332031 120.5 29.332031 120.5 30 "/>
<path style=" stroke:none;fill-rule:nonzero;fill:rgb(89.803922%,89.803922%,89.803922%);fill-opacity:1;" d="M 135.5 30 C 135.5 30.667969 134.5 30.667969 134.5 30 C 134.5 29.332031 135.5 29.332031 135.5 30 "/>
<path style=" stroke:none;fill-rule:nonzero;fill:rgb(89.803922%,89.803922%,89.803922%);fill-opacity:1;" d="M 150.5 30 C 150.5 30.667969 149.5 30.667969 149.5 30 C 149.5 29.332031 150.5 29.332031 150.5 30 "/>
<path style=" stroke:none;fill-rule:nonzero;fill:rgb(89.803922%,89.803922%,89.803922%);fill-opacity:1;" d="M 165.5 30 C 165.5 30.667969 164.5 30.667969 164.5 30 C 164.5 29.332031 165.5 29.332031 165.5 30 "/>
<path style=" stroke:none;fill-rule:nonzero;fill:rgb(89.803922%,89.803922%,89.803922%);fill-opacity:1;" d="M 180.5 30 C 180.5 30.667969 179.5 30.667969 179.5 30 C 179.5 29.332031 180.5 29.332031 180.5 30 "/>
<path style=" stroke:none;fill-rule:nonzero;fill:rgb(89.803922%,89.803922%,89.803922%);fill-opacity:1;" d="M 195.5 30 C 195.5 30.667969 194.5 30.667969 194.5 30 C 194.5 29.332031 195.5 29.332031 195.5 30 "/>
<path style=" stroke:none;fill-rule:nonzero;fill:rgb(89.803922%,89.803922%,89.803922%);fill-opacity:1;" d="M 210.5 30 C 210.5 30.667969 209.5 30.667969 209.5 30 C 209.5 29.332031 210.5 29.332031 210.5 30 "/>
<path style=" stroke:none;fill-rule:nonzero;fill:rgb(89.803922%,89.803922%,89.803922%);fill-opacity:1;" d="M 225.5 30 C 225.5 30.667969 224.5 30.667969 224.5 30 C 224.5 29.332031 225.5 29.332031 225.5 30 "/>
<path style=" stroke:none;fill-rule:nonzero;fill:rgb(89.803922%,89.803922%,89.803922%);fill-opacity:1;" d="M 240.5 30 C 240.5 30.667969 239.5 30.667969 239.5 30 C 239.5 29.332031 240.5 29.332031 240.5 30 "/>
<path style=" stroke:none;fill-rule:nonzero;fill:rgb(89.803922%,89.803922%,89.803922%);fill-opacity:1;" d="M 255.5 30 C 255.5 30.667969 254.5 30.667969 254.5 30 C 254.5 29.332031 255.5 29.332031 255.5 30 "/>
<path style=" stroke:none;fill-rule:nonzero;fill:rgb(89.803922%,89.803922%,89.803922%);fill-opacity:1;" d="M 270.5 30 C 270.5 30.667969 269.5 30.667969 269.5 30 C 269.5 29.332031 270.5 29.332031 270.5 30 "/>
<path style=" stroke:none;fill-rule:nonzero;fill:rgb(89.803922%,89.803922%,89.803922%);fill-opacity:1;" d="M 285.5 30 C 285.5 30.667969 284.5 30.667969 284.5 30 C 284.5 29.332031 285.5 29.332031 285.5 30 "/>
<path style=" stroke:none;fill-rule:nonzero;fill:rgb(89.803922%,89.803922%,89.803922%);fill-opacity:1;" d="M 300.5 30 C 300.5 30.667969 299.5 30.667969 299.5 30 C 299.5 29.332031 300.5 29.332031 300.5 30 "/>
<path style=" stroke:none;fill-rule:nonzero;fill:rgb(89.803922%,89.803922%,89.803922%);fill-opacity:1;" d="M 0.5 45 C 0.5 45.667969 -0.5 45.667969 -0.5 45 C -0.5 44.332031 0.5 44.332031 0.5 45 "/>
<path style=" stroke:none;fill-rule:nonzero;fill:rgb(89.803922%,89.803922%,89.803922%);fill-opacity:1;" d="M 15.5 45 C 15.5 45.667969 14.5 45.667969 14.5 45 C 14.5 44.332031 15.5 44.332031 15.5 45 "/>
<path style=" stroke:none;fill-rule:nonzero;fill:rgb(89.803922%,89.803922%,89.803922%);fill-opacity:1;" d="M 30.5 45 C 30.5 45.667969 29.5 45.667969 29.5 45 C 29.5 44.332031 30.5 44.332031 30.5 45 "/>
<path style=" stroke:none;fill-rule:nonzero;fill:rgb(89.803922%,89.803922%,89.803922%);fill-opacity:1;" d="M 45.5 45 C 45.5 45.667969 44.5 45.667969 44.5 45 C 44.5 44.332031 45.5 44.332031 45.5 45 "/>
<path style=" stroke:none;fill-rule:nonzero;fill:rgb(89.803922%,89.803922%,89.803922%);fill-opacity:1;" d="M 60.5 45 C 60.5 45.667969 59.5 45.667969 59.5 45 C 59.5 44.332031 60.5 44.332031 60.5 45 "/>
<path style=" stroke:none;fill-rule:nonzero;fill:rgb(89.803922%,89.803922%,89.803922%);fill-opacity:1;" d="M 75.5 45 C 75.5 45.667969 74.5 45.667969 74.5 45 C 74.5 44.332031 75.5 44.332031 75.5 45 "/>
<path style=" stroke:none;fill-rule:nonzero;fill:rgb(89.803922%,89.803922%,89.803922%);fill-opacity:1;" d="M 90.5 45 C 90.5 45.667969 89.5 45.667969 89.5 45 C 89.5 44.332031 90.5 44.332031 90.5 45 "/>
<path style=" stroke:none;fill-rule:nonzero;fill:rgb(89.803922%,89.803922%,89.803922%);fill-opacity:1;" d="M 105.5 45 C 105.5 45.667969 104.5 45.667969 104.5 45 C 104.5 44.332031 105.5 44.332031 105.5 45 "/>
<path style=" stroke:none;fill-rule:nonzero;fill:rgb(89.803922%,89.803922%,89.803922%);fill-opacity:1;" d="M 120.5 45 C 120.5 45.667969 119.5 45.667969 119.5 45 C 119.5 44.332031 120.5 44.332031 120.5 45 "/>
<path style=" stroke:none;fill-rule:nonzero;fill:rgb(89.803922%,89.803922%,89.803922%);fill-opacity:1;" d="M 135.5 45 C 135.5 45.667969 134.5 45.667969 134.5 45 C 134.5 44.332031 135.5 44.332031 135.5 45 "/>
<path style=" stroke:none;fill-rule:nonzero;fill:rgb(89.803922%,89.803922%,89.803922%);fill-opacity:1;" d="M 150.5 45 C 150.5 45.667969 149.5 45.667969 149.5 45 C 149.5 44.332031 150.5 44.332031 150.5 45 "/>
<path style=" stroke:none;fill-rule:nonzero;fill:rgb(89.803922%,89.803922%,89.803922%);fill-opacity:1;" d="M 165.5 45 C 165.5 45.667969 164.5 45.667969 164.5 45 C 164.5 44.332031 165.5 44.332031 165.5 45 "/>
<path style=" stroke:none;fill-rule:nonzero;fill:rgb(89.803922%,89.803922%,89.803922%);fill-opacity:1;" d="M 180.5 45 C 180.5 45.667969 179.5 45.667969 179.5 45 C 179.5 44.332031 180.5 44.332031 180.5 45 "/>
<path style=" stroke:none;fill-rule:nonzero;fill:rgb(89.803922%,89.803922%,89.803922%);fill-opacity:1;" d="M 195.5 45 C 195.5 45.667969 194.5 45.667969 194.5 45 C 194.5 44.332031 195.5 44.332031 195.5 45 "/>
<path style=" stroke:none;fill-rule:nonzero;fill:rgb(89.803922%,89.803922%,89.803922%);fill-opacity:1;" d="M 210.5 45 C 210.5 45.667969 209.5 45.667969 209.5 45 C 209.5 44.332031 210.5 44.332031 210.5 45 "/>
<path style=" stroke:none;fill-rule:nonzero;fill:rgb(89.803922%,89.803922%,89.803922%);fill-opacity:1;" d="M 225.5 45 C 225.5 45.667969 224.5 45.667969 224.5 45 C 224.5 44.332031 225.5 44.332031 225.5 45 "/>
<path style=" stroke:none;fill-rule:nonzero;fill:rgb(89.803922%,89.803922%,89.803922%);fill-opacity:1;" d="M 240.5 45 C 240.5 45.667969 239.5 45.667969 239.5 45 C 239.5 44.332031 240.5 44.332031 240.5 45 "/>
<path style=" stroke:none;fill-rule:nonzero;fill:rgb(89.803922%,89.803922%,89.803922%);fill-opacity:1;" d="M 255.5 45 C 255.5 45.667969 254.5 45.667969 254.5 45 C 254.5 44.332031 255.5 44.332031 255.5 45 "/>
<path style=" stroke:none;fill-rule:nonzero;fill:rgb(89.803922%,89.803922%,89.803922%);fill-opacity:1;" d="M 270.5 45 C 270.5 45.667969 269.5 45.667969 269.5 45 C 269.5 44.332031 270.5 44.332031 270.5 45 "/>
<path style=" stroke:none;fill-rule:nonzero;fill:rgb(89.803922%,89.803922%,89.803922%);fill-opacity:1;" d="M 285.5 45 C 285.5 45.667969 284.5 45.667969 284.5 45 C 284.5 44.332031 285.5 44.332031 285.5 45 "/>
<path style=" stroke:none;fill-rule:nonzero;fill:rgb(89.803922%,89.803922%,89.803922%);fill-opacity:1;" d="M 300.5 45 C 300.5 45.667969 299.5 45.667969 299.5 45 C 299.5 44.332031 300.5 44.332031 300.5 45 "/>
<path style=" stroke:none;fill-rule:nonzero;fill:rgb(89.803922%,89.803922%,89.803922%);fill-opacity:1;" d="M 0.5 60 C 0.5 60.667969 -0.5 60.667969 -0.5 60 C -0.5 59.332031 0.5 59.332031 0.5 60 "/>
<path style=" stroke:none;fill-rule:nonzero;fill:rgb(89.803922%,89.803922%,89.803922%);fill-opacity:1;" d="M 15.5 60 C 15.5 60.667969 14.5 60.667969 14.5 60 C 14.5 59.332031 15.5 59.332031 15.5 60 "/>
<path style=" stroke:none;fill-rule:nonzero;fill:rgb(89.803922%,89.803922%,89.803922%);fill-opacity:1;" d="M 30.5 60 C 30.5 60.667969 29.5 60.667969 29.5 60 C 29.5 59.332031 30.5 59.332031 30.5 60 "/>
<path style=" stroke:none;fill-rule:nonzero;fill:rgb(89.803922%,89.803922%,89.803922%);fill-opacity:1;" d="M 45.5 60 C 45.5 60.667969 44.5 60.667969 44.5 60 C 44.5 59.332031 45.5 59.332031 45.5 60 "/>
<path style=" stroke:none;fill-rule:nonzero;fill:rgb(89.803922%,89.803922%,89.803922%);fill-opacity:1;" d="M 60.5 60 C 60.5 60.667969 59.5 60.667969 59.5 60 C 59.5 59.332031 60.5 59.332031 60.5 60 "/>
<path style=" stroke:none;fill-rule:nonzero;fill:rgb(89.803922%,89.803922%,89.803922%);fill-opacity:1;" d="M 75.5 60 C 75.5 60.667969 74.5 60.667969 74.5 60 C 74.5 59.332031 75.5 59.332031 75.5 60 "/>
<path style=" stroke:none;fill-rule:nonzero;fill:rgb(89.803922%,89.803922%,89.803922%);fill-opacity:1;" d="M 90.5 60 C 90.5 60.667969 89.5 60.667969 89.5 60 C 89.5 59.332031 90.5 59.332031 90.5 60 "/>
<path style=" stroke:none;fill-rule:nonzero;fill:rgb(89.803922%,89.803922%,89.803922%);fill-opacity:1;" d="M 105.5 60 C 105.5 60.667969 104.5 60.667969 104.5 60 C 104.5 59.332031 105.5 59.332031 105.5 60 "/>
<path style=" stroke:none;fill-rule:nonzero;fill:rgb(89.803922%,89.803922%,89.803922%);fill-opacity:1;" d="M 120.5 60 C 120.5 60.667969 119.5 60.667969 119.5 60 C 119.5 59.332031 120.5 59.332031 120.5 60 "/>
<path style=" stroke:none;fill-rule:nonzero;fill:rgb(89.803922%,89.803922%,89.803922%);fill-opacity:1;" d="M 135.5 60 C 135.5 60.667969 134.5 60.667969 134.5 60 C 134.5 59.332031 135.5 59.332031 135.5 60 "/>
<path style=" stroke:none;fill-rule:nonzero;fill:rgb(89.803922%,89.803922%,89.803922%);fill-opacity:1;" d="M 150.5 60 C 150.5 60.667969 149.5 60.667969 149.5 60 C 149.5 59.332031 150.5 59.332031 150.5 60 "/>
<path style=" stroke:none;fill-rule:nonzero;fill:rgb(89.803922%,89.803922%,89.803922%);fill-opacity:1;" d="M 165.5 60 C 165.5 60.667969 164.5 60.667969 164.5 60 C 164.5 59.332031 165.5 59.332031 165.5 60 "/>
<path style=" stroke:none;fill-rule:nonzero;fill:rgb(89.803922%,89.803922%,89.803922%);fill-opacity:1;" d="M 180.5 60 C 180.5 60.667969 179.5 60.667969 179.5 60 C 179.5 59.332031 180.5 59.332031 180.5 60 "/>
<path style=" stroke:none;fill-rule:nonzero;fill:rgb(89.803922%,89.803922%,89.803922%);fill-opacity:1;" d="M 195.5 60 C 195.5 60.667969 194.5 60.667969 194.5 60 C 194.5 59.332031 195.5 59.332031 195.5 60 "/>
<path style=" stroke:none;fill-rule:nonzero;fill:rgb(89.803922%,89.803922%,89.803922%);fill-opacity:1;" d="M 210.5 60 C 210.5 60.667969 209.5 60.667969 209.5 60 C 209.5 59.332031 210.5 59.332031 210.5 60 "/>
<path style=" stroke:none;fill-rule:nonzero;fill:rgb(89.803922%,89.803922%,89.803922%);fill-opacity:1;" d="M 225.5 60 C 225.5 60.667969 224.5 60.667969 224.5 60 C 224.5 59.332031 225.5 59.332031 225.5 60 "/>
<path style=" stroke:none;fill-rule:nonzero;fill:rgb(89.803922%,89.803922%,89.803922%);fill-opacity:1;" d="M 240.5 60 C 240.5 60.667969 239.5 60.667969 239.5 60 C 239.5 59.332031 240.5 59.332031 240.5 60 "/>
<path style=" stroke:none;fill-rule:nonzero;fill:rgb(89.803922%,89.803922%,89.803922%);fill-opacity:1;" d="M 255.5 60 C 255.5 60.667969 254.5 60.667969 254.5 60 C 254.5 59.332031 255.5 59.332031 255.5 60 "/>
<path style=" stroke:none;fill-rule:nonzero;fill:rgb(89.803922%,89.803922%,89.803922%);fill-opacity:1;" d="M 270.5 60 C 270.5 60.667969 269.5 60.667969 269.5 60 C 269.5 59.332031 270.5 59.332031 270.5 60 "/>
<path style=" stroke:none;fill-rule:nonzero;fill:rgb(89.803922%,89.803922%,89.803922%);fill-opacity:1;" d="M 285.5 60 C 285.5 60.667969 284.5 60.667969 284.5 60 C 284.5 59.332031 285.5 59.332031 285.5 60 "/>
<path style=" stroke:none;fill-rule:nonzero;fill:rgb(89.803922%,89.803922%,89.803922%);fill-opacity:1;" d="M 300.5 60 C 300.5 60.667969 299.5 60.667969 299.5 60 C 299.5 59.332031 300.5 59.332031 300.5 60 "/>
<path style=" stroke:none;fill-rule:nonzero;fill:rgb(89.803922%,89.803922%,89.803922%);fill-opacity:1;" d="M 0.5 75 C 0.5 75.667969 -0.5 75.667969 -0.5 75 C -0.5 74.332031 0.5 74.332031 0.5 75 "/>
<path style=" stroke:none;fill-rule:nonzero;fill:rgb(89.803922%,89.803922%,89.803922%);fill-opacity:1;" d="M 15.5 75 C 15.5 75.667969 14.5 75.667969 14.5 75 C 14.5 74.332031 15.5 74.332031 15.5 75 "/>
<path style=" stroke:none;fill-rule:nonzero;fill:rgb(89.803922%,89.803922%,89.803922%);fill-opacity:1;" d="M 30.5 75 C 30.5 75.667969 29.5 75.667969 29.5 75 C 29.5 74.332031 30.5 74.332031 30.5 75 "/>
<path style=" stroke:none;fill-rule:nonzero;fill:rgb(89.803922%,89.803922%,89.803922%);fill-opacity:1;" d="M 45.5 75 C 45.5 75.667969 44.5 75.667969 44.5 75 C 44.5 74.332031 45.5 74.332031 45.5 75 "/>
<path style=" stroke:none;fill-rule:nonzero;fill:rgb(89.803922%,89.803922%,89.803922%);fill-opacity:1;" d="M 60.5 75 C 60.5 75.667969 59.5 75.667969 59.5 75 C 59.5 74.332031 60.5 74.332031 60.5 75 "/>
<path style=" stroke:none;fill-rule:nonzero;fill:rgb(89.803922%,89.803922%,89.803922%);fill-opacity:1;" d="M 75.5 75 C 75.5 75.667969 74.5 75.667969 74.5 75 C 74.5 74.332031 75.5 74.332031 75.5 75 "/>
<path style=" stroke:none;fill-rule:nonzero;fill:rgb(89.803922%,89.803922%,89.803922%);fill-opacity:1;" d="M 90.5 75 C 90.5 75.667969 89.5 75.667969 89.5 75 C 89.5 74.332031 90.5 74.332031 90.5 75 "/>
<path style=" stroke:none;fill-rule:nonzero;fill:rgb(89.803922%,89.803922%,89.803922%);fill-opacity:1;" d="M 105.5 75 C 105.5 75.667969 104.5 75.667969 104.5 75 C 104.5 74.332031 105.5 74.332031 105.5 75 "/>
<path style=" stroke:none;fill-rule:nonzero;fill:rgb(89.803922%,89.803922%,89.803922%);fill-opacity:1;" d="M 120.5 75 C 120.5 75.667969 119.5 75.667969 119.5 75 C 119.5 74.332031 120.5 74.332031 120.5 75 "/>
<path style=" stroke:none;fill-rule:nonzero;fill:rgb(89.803922%,89.803922%,89.803922%);fill-opacity:1;" d="M 135.5 75 C 135.5 75.667969 134.5 75.667969 134.5 75 C 134.5 74.332031 135.5 74.332031 135.5 75 "/>
<path style=" stroke:none;fill-rule:nonzero;fill:rgb(89.803922%,89.803922%,89.803922%);fill-opacity:1;" d="M 150.5 75 C 150.5 75.667969 149.5 75.667969 149.5 75 C 149.5 74.332031 150.5 74.332031 150.5 75 "/>
<path style=" stroke:none;fill-rule:nonzero;fill:rgb(89.803922%,89.803922%,89.803922%);fill-opacity:1;" d="M 165.5 75 C 165.5 75.667969 164.5 75.667969 164.5 75 C 164.5 74.332031 165.5 74.332031 165.5 75 "/>
<path style=" stroke:none;fill-rule:nonzero;fill:rgb(89.803922%,89.803922%,89.803922%);fill-opacity:1;" d="M 180.5 75 C 180.5 75.667969 179.5 75.667969 179.5 75 C 179.5 74.332031 180.5 74.332031 180.5 75 "/>
<path style=" stroke:none;fill-rule:nonzero;fill:rgb(89.803922%,89.803922%,89.803922%);fill-opacity:1;" d="M 195.5 75 C 195.5 75.667969 194.5 75.667969 194.5 75 C 194.5 74.332031 195.5 74.332031 195.5 75 "/>
<path style=" stroke:none;fill-rule:nonzero;fill:rgb(89.803922%,89.803922%,89.803922%);fill-opacity:1;" d="M 210.5 75 C 210.5 75.667969 209.5 75.667969 209.5 75 C 209.5 74.332031 210.5 74.332031 210.5 75 "/>
<path style=" stroke:none;fill-rule:nonzero;fill:rgb(89.803922%,89.803922%,89.803922%);fill-opacity:1;" d="M 225.5 75 C 225.5 75.667969 224.5 75.667969 224.5 75 C 224.5 74.332031 225.5 74.332031 225.5 75 "/>
<path style=" stroke:none;fill-rule:nonzero;fill:rgb(89.803922%,89.803922%,89.803922%);fill-opacity:1;" d="M 240.5 75 C 240.5 75.667969 239.5 75.667969 239.5 75 C 239.5 74.332031 240.5 74.332031 240.5 75 "/>
<path style=" stroke:none;fill-rule:nonzero;fill:rgb(89.803922%,89.803922%,89.803922%);fill-opacity:1;" d="M 255.5 75 C 255.5 75.667969 254.5 75.667969 254.5 75 C 254.5 74.332031 255.5 74.332031 255.5 75 "/>
<path style=" stroke:none;fill-rule:nonzero;fill:rgb(89.803922%,89.803922%,89.803922%);fill-opacity:1;" d="M 270.5 75 C 270.5 75.667969 269.5 75.667969 269.5 75 C 269.5 74.332031 270.5 74.332031 270.5 75 "/>
<path style=" stroke:none;fill-rule:nonzero;fill:rgb(89.803922%,89.803922%,89.803922%);fill-opacity:1;" d="M 285.5 75 C 285.5 75.667969 284.5 75.667969 284.5 75 C 284.5 74.332031 285.5 74.332031 285.5 75 "/>
<path style=" stroke:none;fill-rule:nonzero;fill:rgb(89.803922%,89.803922%,89.803922%);fill-opacity:1;" d="M 300.5 75 C 300.5 75.667969 299.5 75.667969 299.5 75 C 299.5 74.332031 300.5 74.332031 300.5 75 "/>
<path style=" stroke:none;fill-rule:nonzero;fill:rgb(89.803922%,89.803922%,89.803922%);fill-opacity:1;" d="M 0.5 90 C 0.5 90.667969 -0.5 90.667969 -0.5 90 C -0.5 89.332031 0.5 89.332031 0.5 90 "/>
<path style=" stroke:none;fill-rule:nonzero;fill:rgb(89.803922%,89.803922%,89.803922%);fill-opacity:1;" d="M 15.5 90 C 15.5 90.667969 14.5 90.667969 14.5 90 C 14.5 89.332031 15.5 89.332031 15.5 90 "/>
<path style=" stroke:none;fill-rule:nonzero;fill:rgb(89.803922%,89.803922%,89.803922%);fill-opacity:1;" d="M 30.5 90 C 30.5 90.667969 29.5 90.667969 29.5 90 C 29.5 89.332031 30.5 89.332031 30.5 90 "/>
<path style=" stroke:none;fill-rule:nonzero;fill:rgb(89.803922%,89.803922%,89.803922%);fill-opacity:1;" d="M 45.5 90 C 45.5 90.667969 44.5 90.667969 44.5 90 C 44.5 89.332031 45.5 89.332031 45.5 90 "/>
<path style=" stroke:none;fill-rule:nonzero;fill:rgb(89.803922%,89.803922%,89.803922%);fill-opacity:1;" d="M 60.5 90 C 60.5 90.667969 59.5 90.667969 59.5 90 C 59.5 89.332031 60.5 89.332031 60.5 90 "/>
<path style=" stroke:none;fill-rule:nonzero;fill:rgb(89.803922%,89.803922%,89.803922%);fill-opacity:1;" d="M 75.5 90 C 75.5 90.667969 74.5 90.667969 74.5 90 C 74.5 89.332031 75.5 89.332031 75.5 90 "/>
<path style=" stroke:none;fill-rule:nonzero;fill:rgb(89.803922%,89.803922%,89.803922%);fill-opacity:1;" d="M 90.5 90 C 90.5 90.667969 89.5 90.667969 89.5 90 C 89.5 89.332031 90.5 89.332031 90.5 90 "/>
<path style=" stroke:none;fill-rule:nonzero;fill:rgb(89.803922%,89.803922%,89.803922%);fill-opacity:1;" d="M 105.5 90 C 105.5 90.667969 104.5 90.667969 104.5 90 C 104.5 89.332031 105.5 89.332031 105.5 90 "/>
<path style=" stroke:none;fill-rule:nonzero;fill:rgb(89.803922%,89.803922%,89.803922%);fill-opacity:1;" d="M 120.5 90 C 120.5 90.667969 119.5 90.667969 119.5 90 C 119.5 89.332031 120.5 89.332031 120.5 90 "/>
<path style=" stroke:none;fill-rule:nonzero;fill:rgb(89.803922%,89.803922%,89.803922%);fill-opacity:1;" d="M 135.5 90 C 135.5 90.667969 134.5 90.667969 134.5 90 C 134.5 89.332031 135.5 89.332031 135.5 90 "/>
<path style=" stroke:none;fill-rule:nonzero;fill:rgb(89.803922%,89.803922%,89.803922%);fill-opacity:1;" d="M 150.5 90 C 150.5 90.667969 149.5 90.667969 149.5 90 C 149.5 89.332031 150.5 89.332031 150.5 90 "/>
<path style=" stroke:none;fill-rule:nonzero;fill:rgb(89.803922%,89.803922%,89.803922%);fill-opacity:1;" d="M 165.5 90 C 165.5 90.667969 164.5 90.667969 164.5 90 C 164.5 89.332031 165.5 89.332031 165.5 90 "/>
<path style=" stroke:none;fill-rule:nonzero;fill:rgb(89.803922%,89.803922%,89.803922%);fill-opacity:1;" d="M 180.5 90 C 180.5 90.667969 179.5 90.667969 179.5 90 C 179.5 89.332031 180.5 89.332031 180.5 90 "/>
<path style=" stroke:none;fill-rule:nonzero;fill:rgb(89.803922%,89.803922%,89.803922%);fill-opacity:1;" d="M 195.5 90 C 195.5 90.667969 194.5 90.667969 194.5 90 C 194.5 89.332031 195.5 89.332031 195.5 90 "/>
<path style=" stroke:none;fill-rule:nonzero;fill:rgb(89.803922%,89.803922%,89.803922%);fill-opacity:1;" d="M 210.5 90 C 210.5 90.667969 209.5 90.667969 209.5 90 C 209.5 89.332031 210.5 89.332031 210.5 90 "/>
<path style=" stroke:none;fill-rule:nonzero;fill:rgb(89.803922%,89.803922%,89.803922%);fill-opacity:1;" d="M 225.5 90 C 225.5 90.667969 224.5 90.667969 224.5 90 C 224.5 89.332031 225.5 89.332031 225.5 90 "/>
<path style=" stroke:none;fill-rule:nonzero;fill:rgb(89.803922%,89.803922%,89.803922%);fill-opacity:1;" d="M 240.5 90 C 240.5 90.667969 239.5 90.667969 239.5 90 C 239.5 89.332031 240.5 89.332031 240.5 90 "/>
<path style=" stroke:none;fill-rule:nonzero;fill:rgb(89.803922%,89.803922%,89.803922%);fill-opacity:1;" d="M 255.5 90 C 255.5 90.667969 254.5 90.667969 254.5 90 C 254.5 89.332031 255.5 89.332031 255.5 90 "/>
<path style=" stroke:none;fill-rule:nonzero;fill:rgb(89.803922%,89.803922%,89.803922%);fill-opacity:1;" d="M 270.5 90 C 270.5 90.667969 269.5 90.667969 269.5 90 C 269.5 89.332031 270.5 89.332031 270.5 90 "/>
<path style=" stroke:none;fill-rule:nonzero;fill:rgb(89.803922%,89.803922%,89.803922%);fill-opacity:1;" d="M 285.5 90 C 285.5 90.667969 284.5 90.667969 284.5 90 C 284.5 89.332031 285.5 89.332031 285.5 90 "/>
<path style=" stroke:none;fill-rule:nonzero;fill:rgb(89.803922%,89.803922%,89.803922%);fill-opacity:1;" d="M 300.5 90 C 300.5 90.667969 299.5 90.667969 299.5 90 C 299.5 89.332031 300.5 89.332031 300.5 90 "/>
<path style=" stroke:none;fill-rule:nonzero;fill:rgb(89.803922%,89.803922%,89.803922%);fill-opacity:1;" d="M 0.5 105 C 0.5 105.667969 -0.5 105.667969 -0.5 105 C -0.5 104.332031 0.5 104.332031 0.5 105 "/>
<path style=" stroke:none;fill-rule:nonzero;fill:rgb(89.803922%,89.803922%,89.803922%);fill-opacity:1;" d="M 15.5 105 C 15.5 105.667969 14.5 105.667969 14.5 105 C 14.5 104.332031 15.5 104.332031 15.5 105 "/>
<path style=" stroke:none;fill-rule:nonzero;fill:rgb(89.803922%,89.803922%,89.803922%);fill-opacity:1;" d="M 30.5 105 C 30.5 105.667969 29.5 105.667969 29.5 105 C 29.5 104.332031 30.5 104.332031 30.5 105 "/>
<path style=" stroke:none;fill-rule:nonzero;fill:rgb(89.803922%,89.803922%,89.803922%);fill-opacity:1;" d="M 45.5 105 C 45.5 105.667969 44.5 105.667969 44.5 105 C 44.5 104.332031 45.5 104.332031 45.5 105 "/>
<path style=" stroke:none;fill-rule:nonzero;fill:rgb(89.803922%,89.803922%,89.803922%);fill-opacity:1;" d="M 60.5 105 C 60.5 105.667969 59.5 105.667969 59.5 105 C 59.5 104.332031 60.5 104.332031 60.5 105 "/>
<path style=" stroke:none;fill-rule:nonzero;fill:rgb(89.803922%,89.803922%,89.803922%);fill-opacity:1;" d="M 75.5 105 C 75.5 105.667969 74.5 105.667969 74.5 105 C 74.5 104.332031 75.5 104.332031 75.5 105 "/>
<path style=" stroke:none;fill-rule:nonzero;fill:rgb(89.803922%,89.803922%,89.803922%);fill-opacity:1;" d="M 90.5 105 C 90.5 105.667969 89.5 105.667969 89.5 105 C 89.5 104.332031 90.5 104.332031 90.5 105 "/>
<path style=" stroke:none;fill-rule:nonzero;fill:rgb(89.803922%,89.803922%,89.803922%);fill-opacity:1;" d="M 105.5 105 C 105.5 105.667969 104.5 105.667969 104.5 105 C 104.5 104.332031 105.5 104.332031 105.5 105 "/>
<path style=" stroke:none;fill-rule:nonzero;fill:rgb(89.803922%,89.803922%,89.803922%);fill-opacity:1;" d="M 120.5 105 C 120.5 105.667969 119.5 105.667969 119.5 105 C 119.5 104.332031 120.5 104.332031 120.5 105 "/>
<path style=" stroke:none;fill-rule:nonzero;fill:rgb(89.803922%,89.803922%,89.803922%);fill-opacity:1;" d="M 135.5 105 C 135.5 105.667969 134.5 105.667969 134.5 105 C 134.5 104.332031 135.5 104.332031 135.5 105 "/>
<path style=" stroke:none;fill-rule:nonzero;fill:rgb(89.803922%,89.803922%,89.803922%);fill-opacity:1;" d="M 150.5 105 C 150.5 105.667969 149.5 105.667969 149.5 105 C 149.5 104.332031 150.5 104.332031 150.5 105 "/>
<path style=" stroke:none;fill-rule:nonzero;fill:rgb(89.803922%,89.803922%,89.803922%);fill-opacity:1;" d="M 165.5 105 C 165.5 105.667969 164.5 105.667969 164.5 105 C 164.5 104.332031 165.5 104.332031 165.5 105 "/>
<path style=" stroke:none;fill-rule:nonzero;fill:rgb(89.803922%,89.803922%,89.803922%);fill-opacity:1;" d="M 180.5 105 C 180.5 105.667969 179.5 105.667969 179.5 105 C 179.5 104.332031 180.5 104.332031 180.5 105 "/>
<path style=" stroke:none;fill-rule:nonzero;fill:rgb(89.803922%,89.803922%,89.803922%);fill-opacity:1;" d="M 195.5 105 C 195.5 105.667969 194.5 105.667969 194.5 105 C 194.5 104.332031 195.5 104.332031 195.5 105 "/>
<path style=" stroke:none;fill-rule:nonzero;fill:rgb(89.803922%,89.803922%,89.803922%);fill-opacity:1;" d="M 210.5 105 C 210.5 105.667969 209.5 105.667969 209.5 105 C 209.5 104.332031 210.5 104.332031 210.5 105 "/>
<path style=" stroke:none;fill-rule:nonzero;fill:rgb(89.803922%,89.803922%,89.803922%);fill-opacity:1;" d="M 225.5 105 C 225.5 105.667969 224.5 105.667969 224.5 105 C 224.5 104.332031 225.5 104.332031 225.5 105 "/>
<path style=" stroke:none;fill-rule:nonzero;fill:rgb(89.803922%,89.803922%,89.803922%);fill-opacity:1;" d="M 240.5 105 C 240.5 105.667969 239.5 105.667969 239.5 105 C 239.5 104.332031 240.5 104.332031 240.5 105 "/>
<path style=" stroke:none;fill-rule:nonzero;fill:rgb(89.803922%,89.803922%,89.803922%);fill-opacity:1;" d="M 255.5 105 C 255.5 105.667969 254.5 105.667969 254.5 105 C 254.5 104.332031 255.5 104.332031 255.5 105 "/>
<path style=" stroke:none;fill-rule:nonzero;fill:rgb(89.803922%,89.803922%,89.803922%);fill-opacity:1;" d="M 270.5 105 C 270.5 105.667969 269.5 105.667969 269.5 105 C 269.5 104.332031 270.5 104.332031 270.5 105 "/>
<path style=" stroke:none;fill-rule:nonzero;fill:rgb(89.803922%,89.803922%,89.803922%);fill-opacity:1;" d="M 285.5 105 C 285.5 105.667969 284.5 105.667969 284.5 105 C 284.5 104.332031 285.5 104.332031 285.5 105 "/>
<path style=" stroke:none;fill-rule:nonzero;fill:rgb(89.803922%,89.803922%,89.803922%);fill-opacity:1;" d="M 300.5 105 C 300.5 105.667969 299.5 105.667969 299.5 105 C 299.5 104.332031 300.5 104.332031 300.5 105 "/>
<path style=" stroke:none;fill-rule:nonzero;fill:rgb(89.803922%,89.803922%,89.803922%);fill-opacity:1;" d="M 0.5 120 C 0.5 120.667969 -0.5 120.667969 -0.5 120 C -0.5 119.332031 0.5 119.332031 0.5 120 "/>
<path style=" stroke:none;fill-rule:nonzero;fill:rgb(89.803922%,89.803922%,89.803922%);fill-opacity:1;" d="M 15.5 120 C 15.5 120.667969 14.5 120.667969 14.5 120 C 14.5 119.332031 15.5 119.332031 15.5 120 "/>
<path style=" stroke:none;fill-rule:nonzero;fill:rgb(89.803922%,89.803922%,89.803922%);fill-opacity:1;" d="M 30.5 120 C 30.5 120.667969 29.5 120.667969 29.5 120 C 29.5 119.332031 30.5 119.332031 30.5 120 "/>
<path style=" stroke:none;fill-rule:nonzero;fill:rgb(89.803922%,89.803922%,89.803922%);fill-opacity:1;" d="M 45.5 120 C 45.5 120.667969 44.5 120.667969 44.5 120 C 44.5 119.332031 45.5 119.332031 45.5 120 "/>
<path style=" stroke:none;fill-rule:nonzero;fill:rgb(89.803922%,89.803922%,89.803922%);fill-opacity:1;" d="M 60.5 120 C 60.5 120.667969 59.5 120.667969 59.5 120 C 59.5 119.332031 60.5 119.332031 60.5 120 "/>
<path style=" stroke:none;fill-rule:nonzero;fill:rgb(89.803922%,89.803922%,89.803922%);fill-opacity:1;" d="M 75.5 120 C 75.5 120.667969 74.5 120.667969 74.5 120 C 74.5 119.332031 75.5 119.332031 75.5 120 "/>
<path style=" stroke:none;fill-rule:nonzero;fill:rgb(89.803922%,89.803922%,89.803922%);fill-opacity:1;" d="M 90.5 120 C 90.5 120.667969 89.5 120.667969 89.5 120 C 89.5 119.332031 90.5 119.332031 90.5 120 "/>
<path style=" stroke:none;fill-rule:nonzero;fill:rgb(89.803922%,89.803922%,89.803922%);fill-opacity:1;" d="M 105.5 120 C 105.5 120.667969 104.5 120.667969 104.5 120 C 104.5 119.332031 105.5 119.332031 105.5 120 "/>
<path style=" stroke:none;fill-rule:nonzero;fill:rgb(89.803922%,89.803922%,89.803922%);fill-opacity:1;" d="M 120.5 120 C 120.5 120.667969 119.5 120.667969 119.5 120 C 119.5 119.332031 120.5 119.332031 120.5 120 "/>
<path style=" stroke:none;fill-rule:nonzero;fill:rgb(89.803922%,89.803922%,89.803922%);fill-opacity:1;" d="M 135.5 120 C 135.5 120.667969 134.5 120.667969 134.5 120 C 134.5 119.332031 135.5 119.332031 135.5 120 "/>
<path style=" stroke:none;fill-rule:nonzero;fill:rgb(89.803922%,89.803922%,89.803922%);fill-opacity:1;" d="M 150.5 120 C 150.5 120.667969 149.5 120.667969 149.5 120 C 149.5 119.332031 150.5 119.332031 150.5 120 "/>
<path style=" stroke:none;fill-rule:nonzero;fill:rgb(89.803922%,89.803922%,89.803922%);fill-opacity:1;" d="M 165.5 120 C 165.5 120.667969 164.5 120.667969 164.5 120 C 164.5 119.332031 165.5 119.332031 165.5 120 "/>
<path style=" stroke:none;fill-rule:nonzero;fill:rgb(89.803922%,89.803922%,89.803922%);fill-opacity:1;" d="M 180.5 120 C 180.5 120.667969 179.5 120.667969 179.5 120 C 179.5 119.332031 180.5 119.332031 180.5 120 "/>
<path style=" stroke:none;fill-rule:nonzero;fill:rgb(89.803922%,89.803922%,89.803922%);fill-opacity:1;" d="M 195.5 120 C 195.5 120.667969 194.5 120.667969 194.5 120 C 194.5 119.332031 195.5 119.332031 195.5 120 "/>
<path style=" stroke:none;fill-rule:nonzero;fill:rgb(89.803922%,89.803922%,89.803922%);fill-opacity:1;" d="M 210.5 120 C 210.5 120.667969 209.5 120.667969 209.5 120 C 209.5 119.332031 210.5 119.332031 210.5 120 "/>
<path style=" stroke:none;fill-rule:nonzero;fill:rgb(89.803922%,89.803922%,89.803922%);fill-opacity:1;" d="M 225.5 120 C 225.5 120.667969 224.5 120.667969 224.5 120 C 224.5 119.332031 225.5 119.332031 225.5 120 "/>
<path style=" stroke:none;fill-rule:nonzero;fill:rgb(89.803922%,89.803922%,89.803922%);fill-opacity:1;" d="M 240.5 120 C 240.5 120.667969 239.5 120.667969 239.5 120 C 239.5 119.332031 240.5 119.332031 240.5 120 "/>
<path style=" stroke:none;fill-rule:nonzero;fill:rgb(89.803922%,89.803922%,89.803922%);fill-opacity:1;" d="M 255.5 120 C 255.5 120.667969 254.5 120.667969 254.5 120 C 254.5 119.332031 255.5 119.332031 255.5 120 "/>
<path style=" stroke:none;fill-rule:nonzero;fill:rgb(89.803922%,89.803922%,89.803922%);fill-opacity:1;" d="M 270.5 120 C 270.5 120.667969 269.5 120.667969 269.5 120 C 269.5 119.332031 270.5 119.332031 270.5 120 "/>
<path style=" stroke:none;fill-rule:nonzero;fill:rgb(89.803922%,89.803922%,89.803922%);fill-opacity:1;" d="M 285.5 120 C 285.5 120.667969 284.5 120.667969 284.5 120 C 284.5 119.332031 285.5 119.332031 285.5 120 "/>
<path style=" stroke:none;fill-rule:nonzero;fill:rgb(89.803922%,89.803922%,89.803922%);fill-opacity:1;" d="M 300.5 120 C 300.5 120.667969 299.5 120.667969 299.5 120 C 299.5 119.332031 300.5 119.332031 300.5 120 "/>
<path style=" stroke:none;fill-rule:nonzero;fill:rgb(89.803922%,89.803922%,89.803922%);fill-opacity:1;" d="M 0.5 135 C 0.5 135.667969 -0.5 135.667969 -0.5 135 C -0.5 134.332031 0.5 134.332031 0.5 135 "/>
<path style=" stroke:none;fill-rule:nonzero;fill:rgb(89.803922%,89.803922%,89.803922%);fill-opacity:1;" d="M 15.5 135 C 15.5 135.667969 14.5 135.667969 14.5 135 C 14.5 134.332031 15.5 134.332031 15.5 135 "/>
<path style=" stroke:none;fill-rule:nonzero;fill:rgb(89.803922%,89.803922%,89.803922%);fill-opacity:1;" d="M 30.5 135 C 30.5 135.667969 29.5 135.667969 29.5 135 C 29.5 134.332031 30.5 134.332031 30.5 135 "/>
<path style=" stroke:none;fill-rule:nonzero;fill:rgb(89.803922%,89.803922%,89.803922%);fill-opacity:1;" d="M 45.5 135 C 45.5 135.667969 44.5 135.667969 44.5 135 C 44.5 134.332031 45.5 134.332031 45.5 135 "/>
<path style=" stroke:none;fill-rule:nonzero;fill:rgb(89.803922%,89.803922%,89.803922%);fill-opacity:1;" d="M 60.5 135 C 60.5 135.667969 59.5 135.667969 59.5 135 C 59.5 134.332031 60.5 134.332031 60.5 135 "/>
<path style=" stroke:none;fill-rule:nonzero;fill:rgb(89.803922%,89.803922%,89.803922%);fill-opacity:1;" d="M 75.5 135 C 75.5 135.667969 74.5 135.667969 74.5 135 C 74.5 134.332031 75.5 134.332031 75.5 135 "/>
<path style=" stroke:none;fill-rule:nonzero;fill:rgb(89.803922%,89.803922%,89.803922%);fill-opacity:1;" d="M 90.5 135 C 90.5 135.667969 89.5 135.667969 89.5 135 C 89.5 134.332031 90.5 134.332031 90.5 135 "/>
<path style=" stroke:none;fill-rule:nonzero;fill:rgb(89.803922%,89.803922%,89.803922%);fill-opacity:1;" d="M 105.5 135 C 105.5 135.667969 104.5 135.667969 104.5 135 C 104.5 134.332031 105.5 134.332031 105.5 135 "/>
<path style=" stroke:none;fill-rule:nonzero;fill:rgb(89.803922%,89.803922%,89.803922%);fill-opacity:1;" d="M 120.5 135 C 120.5 135.667969 119.5 135.667969 119.5 135 C 119.5 134.332031 120.5 134.332031 120.5 135 "/>
<path style=" stroke:none;fill-rule:nonzero;fill:rgb(89.803922%,89.803922%,89.803922%);fill-opacity:1;" d="M 135.5 135 C 135.5 135.667969 134.5 135.667969 134.5 135 C 134.5 134.332031 135.5 134.332031 135.5 135 "/>
<path style=" stroke:none;fill-rule:nonzero;fill:rgb(89.803922%,89.803922%,89.803922%);fill-opacity:1;" d="M 150.5 135 C 150.5 135.667969 149.5 135.667969 149.5 135 C 149.5 134.332031 150.5 134.332031 150.5 135 "/>
<path style=" stroke:none;fill-rule:nonzero;fill:rgb(89.803922%,89.803922%,89.803922%);fill-opacity:1;" d="M 165.5 135 C 165.5 135.667969 164.5 135.667969 164.5 135 C 164.5 134.332031 165.5 134.332031 165.5 135 "/>
<path style=" stroke:none;fill-rule:nonzero;fill:rgb(89.803922%,89.803922%,89.803922%);fill-opacity:1;" d="M 180.5 135 C 180.5 135.667969 179.5 135.667969 179.5 135 C 179.5 134.332031 180.5 134.332031 180.5 135 "/>
<path style=" stroke:none;fill-rule:nonzero;fill:rgb(89.803922%,89.803922%,89.803922%);fill-opacity:1;" d="M 195.5 135 C 195.5 135.667969 194.5 135.667969 194.5 135 C 194.5 134.332031 195.5 134.332031 195.5 135 "/>
<path style=" stroke:none;fill-rule:nonzero;fill:rgb(89.803922%,89.803922%,89.803922%);fill-opacity:1;" d="M 210.5 135 C 210.5 135.667969 209.5 135.667969 209.5 135 C 209.5 134.332031 210.5 134.332031 210.5 135 "/>
<path style=" stroke:none;fill-rule:nonzero;fill:rgb(89.803922%,89.803922%,89.803922%);fill-opacity:1;" d="M 225.5 135 C 225.5 135.667969 224.5 135.667969 224.5 135 C 224.5 134.332031 225.5 134.332031 225.5 135 "/>
<path style=" stroke:none;fill-rule:nonzero;fill:rgb(89.803922%,89.803922%,89.803922%);fill-opacity:1;" d="M 240.5 135 C 240.5 135.667969 239.5 135.667969 239.5 135 C 239.5 134.332031 240.5 134.332031 240.5 135 "/>
<path style=" stroke:none;fill-rule:nonzero;fill:rgb(89.803922%,89.803922%,89.803922%);fill-opacity:1;" d="M 255.5 135 C 255.5 135.667969 254.5 135.667969 254.5 135 C 254.5 134.332031 255.5 134.332031 255.5 135 "/>
<path style=" stroke:none;fill-rule:nonzero;fill:rgb(89.803922%,89.803922%,89.803922%);fill-opacity:1;" d="M 270.5 135 C 270.5 135.667969 269.5 135.667969 269.5 135 C 269.5 134.332031 270.5 134.332031 270.5 135 "/>
<path style=" stroke:none;fill-rule:nonzero;fill:rgb(89.803922%,89.803922%,89.803922%);fill-opacity:1;" d="M 285.5 135 C 285.5 135.667969 284.5 135.667969 284.5 135 C 284.5 134.332031 285.5 134.332031 285.5 135 "/>
<path style=" stroke:none;fill-rule:nonzero;fill:rgb(89.803922%,89.803922%,89.803922%);fill-opacity:1;" d="M 300.5 135 C 300.5 135.667969 299.5 135.667969 299.5 135 C 299.5 134.332031 300.5 134.332031 300.5 135 "/>
<path style=" stroke:none;fill-rule:nonzero;fill:rgb(89.803922%,89.803922%,89.803922%);fill-opacity:1;" d="M 0.5 150 C 0.5 150.667969 -0.5 150.667969 -0.5 150 C -0.5 149.332031 0.5 149.332031 0.5 150 "/>
<path style=" stroke:none;fill-rule:nonzero;fill:rgb(89.803922%,89.803922%,89.803922%);fill-opacity:1;" d="M 15.5 150 C 15.5 150.667969 14.5 150.667969 14.5 150 C 14.5 149.332031 15.5 149.332031 15.5 150 "/>
<path style=" stroke:none;fill-rule:nonzero;fill:rgb(89.803922%,89.803922%,89.803922%);fill-opacity:1;" d="M 30.5 150 C 30.5 150.667969 29.5 150.667969 29.5 150 C 29.5 149.332031 30.5 149.332031 30.5 150 "/>
<path style=" stroke:none;fill-rule:nonzero;fill:rgb(89.803922%,89.803922%,89.803922%);fill-opacity:1;" d="M 45.5 150 C 45.5 150.667969 44.5 150.667969 44.5 150 C 44.5 149.332031 45.5 149.332031 45.5 150 "/>
<path style=" stroke:none;fill-rule:nonzero;fill:rgb(89.803922%,89.803922%,89.803922%);fill-opacity:1;" d="M 60.5 150 C 60.5 150.667969 59.5 150.667969 59.5 150 C 59.5 149.332031 60.5 149.332031 60.5 150 "/>
<path style=" stroke:none;fill-rule:nonzero;fill:rgb(89.803922%,89.803922%,89.803922%);fill-opacity:1;" d="M 75.5 150 C 75.5 150.667969 74.5 150.667969 74.5 150 C 74.5 149.332031 75.5 149.332031 75.5 150 "/>
<path style=" stroke:none;fill-rule:nonzero;fill:rgb(89.803922%,89.803922%,89.803922%);fill-opacity:1;" d="M 90.5 150 C 90.5 150.667969 89.5 150.667969 89.5 150 C 89.5 149.332031 90.5 149.332031 90.5 150 "/>
<path style=" stroke:none;fill-rule:nonzero;fill:rgb(89.803922%,89.803922%,89.803922%);fill-opacity:1;" d="M 105.5 150 C 105.5 150.667969 104.5 150.667969 104.5 150 C 104.5 149.332031 105.5 149.332031 105.5 150 "/>
<path style=" stroke:none;fill-rule:nonzero;fill:rgb(89.803922%,89.803922%,89.803922%);fill-opacity:1;" d="M 120.5 150 C 120.5 150.667969 119.5 150.667969 119.5 150 C 119.5 149.332031 120.5 149.332031 120.5 150 "/>
<path style=" stroke:none;fill-rule:nonzero;fill:rgb(89.803922%,89.803922%,89.803922%);fill-opacity:1;" d="M 135.5 150 C 135.5 150.667969 134.5 150.667969 134.5 150 C 134.5 149.332031 135.5 149.332031 135.5 150 "/>
<path style=" stroke:none;fill-rule:nonzero;fill:rgb(89.803922%,89.803922%,89.803922%);fill-opacity:1;" d="M 150.5 150 C 150.5 150.667969 149.5 150.667969 149.5 150 C 149.5 149.332031 150.5 149.332031 150.5 150 "/>
<path style=" stroke:none;fill-rule:nonzero;fill:rgb(89.803922%,89.803922%,89.803922%);fill-opacity:1;" d="M 165.5 150 C 165.5 150.667969 164.5 150.667969 164.5 150 C 164.5 149.332031 165.5 149.332031 165.5 150 "/>
<path style=" stroke:none;fill-rule:nonzero;fill:rgb(89.803922%,89.803922%,89.803922%);fill-opacity:1;" d="M 180.5 150 C 180.5 150.667969 179.5 150.667969 179.5 150 C 179.5 149.332031 180.5 149.332031 180.5 150 "/>
<path style=" stroke:none;fill-rule:nonzero;fill:rgb(89.803922%,89.803922%,89.803922%);fill-opacity:1;" d="M 195.5 150 C 195.5 150.667969 194.5 150.667969 194.5 150 C 194.5 149.332031 195.5 149.332031 195.5 150 "/>
<path style=" stroke:none;fill-rule:nonzero;fill:rgb(89.803922%,89.803922%,89.803922%);fill-opacity:1;" d="M 210.5 150 C 210.5 150.667969 209.5 150.667969 209.5 150 C 209.5 149.332031 210.5 149.332031 210.5 150 "/>
<path style=" stroke:none;fill-rule:nonzero;fill:rgb(89.803922%,89.803922%,89.803922%);fill-opacity:1;" d="M 225.5 150 C 225.5 150.667969 224.5 150.667969 224.5 150 C 224.5 149.332031 225.5 149.332031 225.5 150 "/>
<path style=" stroke:none;fill-rule:nonzero;fill:rgb(89.803922%,89.803922%,89.803922%);fill-opacity:1;" d="M 240.5 150 C 240.5 150.667969 239.5 150.667969 239.5 150 C 239.5 149.332031 240.5 149.332031 240.5 150 "/>
<path style=" stroke:none;fill-rule:nonzero;fill:rgb(89.803922%,89.803922%,89.803922%);fill-opacity:1;" d="M 255.5 150 C 255.5 150.667969 254.5 150.667969 254.5 150 C 254.5 149.332031 255.5 149.332031 255.5 150 "/>
<path style=" stroke:none;fill-rule:nonzero;fill:rgb(89.803922%,89.803922%,89.803922%);fill-opacity:1;" d="M 270.5 150 C 270.5 150.667969 269.5 150.667969 269.5 150 C 269.5 149.332031 270.5 149.332031 270.5 150 "/>
<path style=" stroke:none;fill-rule:nonzero;fill:rgb(89.803922%,89.803922%,89.803922%);fill-opacity:1;" d="M 285.5 150 C 285.5 150.667969 284.5 150.667969 284.5 150 C 284.5 149.332031 285.5 149.332031 285.5 150 "/>
<path style=" stroke:none;fill-rule:nonzero;fill:rgb(89.803922%,89.803922%,89.803922%);fill-opacity:1;" d="M 300.5 150 C 300.5 150.667969 299.5 150.667969 299.5 150 C 299.5 149.332031 300.5 149.332031 300.5 150 "/>
<path style=" stroke:none;fill-rule:nonzero;fill:rgb(89.803922%,89.803922%,89.803922%);fill-opacity:1;" d="M 0.5 165 C 0.5 165.667969 -0.5 165.667969 -0.5 165 C -0.5 164.332031 0.5 164.332031 0.5 165 "/>
<path style=" stroke:none;fill-rule:nonzero;fill:rgb(89.803922%,89.803922%,89.803922%);fill-opacity:1;" d="M 15.5 165 C 15.5 165.667969 14.5 165.667969 14.5 165 C 14.5 164.332031 15.5 164.332031 15.5 165 "/>
<path style=" stroke:none;fill-rule:nonzero;fill:rgb(89.803922%,89.803922%,89.803922%);fill-opacity:1;" d="M 30.5 165 C 30.5 165.667969 29.5 165.667969 29.5 165 C 29.5 164.332031 30.5 164.332031 30.5 165 "/>
<path style=" stroke:none;fill-rule:nonzero;fill:rgb(89.803922%,89.803922%,89.803922%);fill-opacity:1;" d="M 45.5 165 C 45.5 165.667969 44.5 165.667969 44.5 165 C 44.5 164.332031 45.5 164.332031 45.5 165 "/>
<path style=" stroke:none;fill-rule:nonzero;fill:rgb(89.803922%,89.803922%,89.803922%);fill-opacity:1;" d="M 60.5 165 C 60.5 165.667969 59.5 165.667969 59.5 165 C 59.5 164.332031 60.5 164.332031 60.5 165 "/>
<path style=" stroke:none;fill-rule:nonzero;fill:rgb(89.803922%,89.803922%,89.803922%);fill-opacity:1;" d="M 75.5 165 C 75.5 165.667969 74.5 165.667969 74.5 165 C 74.5 164.332031 75.5 164.332031 75.5 165 "/>
<path style=" stroke:none;fill-rule:nonzero;fill:rgb(89.803922%,89.803922%,89.803922%);fill-opacity:1;" d="M 90.5 165 C 90.5 165.667969 89.5 165.667969 89.5 165 C 89.5 164.332031 90.5 164.332031 90.5 165 "/>
<path style=" stroke:none;fill-rule:nonzero;fill:rgb(89.803922%,89.803922%,89.803922%);fill-opacity:1;" d="M 105.5 165 C 105.5 165.667969 104.5 165.667969 104.5 165 C 104.5 164.332031 105.5 164.332031 105.5 165 "/>
<path style=" stroke:none;fill-rule:nonzero;fill:rgb(89.803922%,89.803922%,89.803922%);fill-opacity:1;" d="M 120.5 165 C 120.5 165.667969 119.5 165.667969 119.5 165 C 119.5 164.332031 120.5 164.332031 120.5 165 "/>
<path style=" stroke:none;fill-rule:nonzero;fill:rgb(89.803922%,89.803922%,89.803922%);fill-opacity:1;" d="M 135.5 165 C 135.5 165.667969 134.5 165.667969 134.5 165 C 134.5 164.332031 135.5 164.332031 135.5 165 "/>
<path style=" stroke:none;fill-rule:nonzero;fill:rgb(89.803922%,89.803922%,89.803922%);fill-opacity:1;" d="M 150.5 165 C 150.5 165.667969 149.5 165.667969 149.5 165 C 149.5 164.332031 150.5 164.332031 150.5 165 "/>
<path style=" stroke:none;fill-rule:nonzero;fill:rgb(89.803922%,89.803922%,89.803922%);fill-opacity:1;" d="M 165.5 165 C 165.5 165.667969 164.5 165.667969 164.5 165 C 164.5 164.332031 165.5 164.332031 165.5 165 "/>
<path style=" stroke:none;fill-rule:nonzero;fill:rgb(89.803922%,89.803922%,89.803922%);fill-opacity:1;" d="M 180.5 165 C 180.5 165.667969 179.5 165.667969 179.5 165 C 179.5 164.332031 180.5 164.332031 180.5 165 "/>
<path style=" stroke:none;fill-rule:nonzero;fill:rgb(89.803922%,89.803922%,89.803922%);fill-opacity:1;" d="M 195.5 165 C 195.5 165.667969 194.5 165.667969 194.5 165 C 194.5 164.332031 195.5 164.332031 195.5 165 "/>
<path style=" stroke:none;fill-rule:nonzero;fill:rgb(89.803922%,89.803922%,89.803922%);fill-opacity:1;" d="M 210.5 165 C 210.5 165.667969 209.5 165.667969 209.5 165 C 209.5 164.332031 210.5 164.332031 210.5 165 "/>
<path style=" stroke:none;fill-rule:nonzero;fill:rgb(89.803922%,89.803922%,89.803922%);fill-opacity:1;" d="M 225.5 165 C 225.5 165.667969 224.5 165.667969 224.5 165 C 224.5 164.332031 225.5 164.332031 225.5 165 "/>
<path style=" stroke:none;fill-rule:nonzero;fill:rgb(89.803922%,89.803922%,89.803922%);fill-opacity:1;" d="M 240.5 165 C 240.5 165.667969 239.5 165.667969 239.5 165 C 239.5 164.332031 240.5 164.332031 240.5 165 "/>
<path style=" stroke:none;fill-rule:nonzero;fill:rgb(89.803922%,89.803922%,89.803922%);fill-opacity:1;" d="M 255.5 165 C 255.5 165.667969 254.5 165.667969 254.5 165 C 254.5 164.332031 255.5 164.332031 255.5 165 "/>
<path style=" stroke:none;fill-rule:nonzero;fill:rgb(89.803922%,89.803922%,89.803922%);fill-opacity:1;" d="M 270.5 165 C 270.5 165.667969 269.5 165.667969 269.5 165 C 269.5 164.332031 270.5 164.332031 270.5 165 "/>
<path style=" stroke:none;fill-rule:nonzero;fill:rgb(89.803922%,89.803922%,89.803922%);fill-opacity:1;" d="M 285.5 165 C 285.5 165.667969 284.5 165.667969 284.5 165 C 284.5 164.332031 285.5 164.332031 285.5 165 "/>
<path style=" stroke:none;fill-rule:nonzero;fill:rgb(89.803922%,89.803922%,89.803922%);fill-opacity:1;" d="M 300.5 165 C 300.5 165.667969 299.5 165.667969 299.5 165 C 299.5 164.332031 300.5 164.332031 300.5 165 "/>
<path style=" stroke:none;fill-rule:nonzero;fill:rgb(89.803922%,89.803922%,89.803922%);fill-opacity:1;" d="M 0.5 180 C 0.5 180.667969 -0.5 180.667969 -0.5 180 C -0.5 179.332031 0.5 179.332031 0.5 180 "/>
<path style=" stroke:none;fill-rule:nonzero;fill:rgb(89.803922%,89.803922%,89.803922%);fill-opacity:1;" d="M 15.5 180 C 15.5 180.667969 14.5 180.667969 14.5 180 C 14.5 179.332031 15.5 179.332031 15.5 180 "/>
<path style=" stroke:none;fill-rule:nonzero;fill:rgb(89.803922%,89.803922%,89.803922%);fill-opacity:1;" d="M 30.5 180 C 30.5 180.667969 29.5 180.667969 29.5 180 C 29.5 179.332031 30.5 179.332031 30.5 180 "/>
<path style=" stroke:none;fill-rule:nonzero;fill:rgb(89.803922%,89.803922%,89.803922%);fill-opacity:1;" d="M 45.5 180 C 45.5 180.667969 44.5 180.667969 44.5 180 C 44.5 179.332031 45.5 179.332031 45.5 180 "/>
<path style=" stroke:none;fill-rule:nonzero;fill:rgb(89.803922%,89.803922%,89.803922%);fill-opacity:1;" d="M 60.5 180 C 60.5 180.667969 59.5 180.667969 59.5 180 C 59.5 179.332031 60.5 179.332031 60.5 180 "/>
<path style=" stroke:none;fill-rule:nonzero;fill:rgb(89.803922%,89.803922%,89.803922%);fill-opacity:1;" d="M 75.5 180 C 75.5 180.667969 74.5 180.667969 74.5 180 C 74.5 179.332031 75.5 179.332031 75.5 180 "/>
<path style=" stroke:none;fill-rule:nonzero;fill:rgb(89.803922%,89.803922%,89.803922%);fill-opacity:1;" d="M 90.5 180 C 90.5 180.667969 89.5 180.667969 89.5 180 C 89.5 179.332031 90.5 179.332031 90.5 180 "/>
<path style=" stroke:none;fill-rule:nonzero;fill:rgb(89.803922%,89.803922%,89.803922%);fill-opacity:1;" d="M 105.5 180 C 105.5 180.667969 104.5 180.667969 104.5 180 C 104.5 179.332031 105.5 179.332031 105.5 180 "/>
<path style=" stroke:none;fill-rule:nonzero;fill:rgb(89.803922%,89.803922%,89.803922%);fill-opacity:1;" d="M 120.5 180 C 120.5 180.667969 119.5 180.667969 119.5 180 C 119.5 179.332031 120.5 179.332031 120.5 180 "/>
<path style=" stroke:none;fill-rule:nonzero;fill:rgb(89.803922%,89.803922%,89.803922%);fill-opacity:1;" d="M 135.5 180 C 135.5 180.667969 134.5 180.667969 134.5 180 C 134.5 179.332031 135.5 179.332031 135.5 180 "/>
<path style=" stroke:none;fill-rule:nonzero;fill:rgb(89.803922%,89.803922%,89.803922%);fill-opacity:1;" d="M 150.5 180 C 150.5 180.667969 149.5 180.667969 149.5 180 C 149.5 179.332031 150.5 179.332031 150.5 180 "/>
<path style=" stroke:none;fill-rule:nonzero;fill:rgb(89.803922%,89.803922%,89.803922%);fill-opacity:1;" d="M 165.5 180 C 165.5 180.667969 164.5 180.667969 164.5 180 C 164.5 179.332031 165.5 179.332031 165.5 180 "/>
<path style=" stroke:none;fill-rule:nonzero;fill:rgb(89.803922%,89.803922%,89.803922%);fill-opacity:1;" d="M 180.5 180 C 180.5 180.667969 179.5 180.667969 179.5 180 C 179.5 179.332031 180.5 179.332031 180.5 180 "/>
<path style=" stroke:none;fill-rule:nonzero;fill:rgb(89.803922%,89.803922%,89.803922%);fill-opacity:1;" d="M 195.5 180 C 195.5 180.667969 194.5 180.667969 194.5 180 C 194.5 179.332031 195.5 179.332031 195.5 180 "/>
<path style=" stroke:none;fill-rule:nonzero;fill:rgb(89.803922%,89.803922%,89.803922%);fill-opacity:1;" d="M 210.5 180 C 210.5 180.667969 209.5 180.667969 209.5 180 C 209.5 179.332031 210.5 179.332031 210.5 180 "/>
<path style=" stroke:none;fill-rule:nonzero;fill:rgb(89.803922%,89.803922%,89.803922%);fill-opacity:1;" d="M 225.5 180 C 225.5 180.667969 224.5 180.667969 224.5 180 C 224.5 179.332031 225.5 179.332031 225.5 180 "/>
<path style=" stroke:none;fill-rule:nonzero;fill:rgb(89.803922%,89.803922%,89.803922%);fill-opacity:1;" d="M 240.5 180 C 240.5 180.667969 239.5 180.667969 239.5 180 C 239.5 179.332031 240.5 179.332031 240.5 180 "/>
<path style=" stroke:none;fill-rule:nonzero;fill:rgb(89.803922%,89.803922%,89.803922%);fill-opacity:1;" d="M 255.5 180 C 255.5 180.667969 254.5 180.667969 254.5 180 C 254.5 179.332031 255.5 179.332031 255.5 180 "/>
<path style=" stroke:none;fill-rule:nonzero;fill:rgb(89.803922%,89.803922%,89.803922%);fill-opacity:1;" d="M 270.5 180 C 270.5 180.667969 269.5 180.667969 269.5 180 C 269.5 179.332031 270.5 179.332031 270.5 180 "/>
<path style=" stroke:none;fill-rule:nonzero;fill:rgb(89.803922%,89.803922%,89.803922%);fill-opacity:1;" d="M 285.5 180 C 285.5 180.667969 284.5 180.667969 284.5 180 C 284.5 179.332031 285.5 179.332031 285.5 180 "/>
<path style=" stroke:none;fill-rule:nonzero;fill:rgb(89.803922%,89.803922%,89.803922%);fill-opacity:1;" d="M 300.5 180 C 300.5 180.667969 299.5 180.667969 299.5 180 C 299.5 179.332031 300.5 179.332031 300.5 180 "/>
<path style=" stroke:none;fill-rule:nonzero;fill:rgb(89.803922%,89.803922%,89.803922%);fill-opacity:1;" d="M 0.5 195 C 0.5 195.667969 -0.5 195.667969 -0.5 195 C -0.5 194.332031 0.5 194.332031 0.5 195 "/>
<path style=" stroke:none;fill-rule:nonzero;fill:rgb(89.803922%,89.803922%,89.803922%);fill-opacity:1;" d="M 15.5 195 C 15.5 195.667969 14.5 195.667969 14.5 195 C 14.5 194.332031 15.5 194.332031 15.5 195 "/>
<path style=" stroke:none;fill-rule:nonzero;fill:rgb(89.803922%,89.803922%,89.803922%);fill-opacity:1;" d="M 30.5 195 C 30.5 195.667969 29.5 195.667969 29.5 195 C 29.5 194.332031 30.5 194.332031 30.5 195 "/>
<path style=" stroke:none;fill-rule:nonzero;fill:rgb(89.803922%,89.803922%,89.803922%);fill-opacity:1;" d="M 45.5 195 C 45.5 195.667969 44.5 195.667969 44.5 195 C 44.5 194.332031 45.5 194.332031 45.5 195 "/>
<path style=" stroke:none;fill-rule:nonzero;fill:rgb(89.803922%,89.803922%,89.803922%);fill-opacity:1;" d="M 60.5 195 C 60.5 195.667969 59.5 195.667969 59.5 195 C 59.5 194.332031 60.5 194.332031 60.5 195 "/>
<path style=" stroke:none;fill-rule:nonzero;fill:rgb(89.803922%,89.803922%,89.803922%);fill-opacity:1;" d="M 75.5 195 C 75.5 195.667969 74.5 195.667969 74.5 195 C 74.5 194.332031 75.5 194.332031 75.5 195 "/>
<path style=" stroke:none;fill-rule:nonzero;fill:rgb(89.803922%,89.803922%,89.803922%);fill-opacity:1;" d="M 90.5 195 C 90.5 195.667969 89.5 195.667969 89.5 195 C 89.5 194.332031 90.5 194.332031 90.5 195 "/>
<path style=" stroke:none;fill-rule:nonzero;fill:rgb(89.803922%,89.803922%,89.803922%);fill-opacity:1;" d="M 105.5 195 C 105.5 195.667969 104.5 195.667969 104.5 195 C 104.5 194.332031 105.5 194.332031 105.5 195 "/>
<path style=" stroke:none;fill-rule:nonzero;fill:rgb(89.803922%,89.803922%,89.803922%);fill-opacity:1;" d="M 120.5 195 C 120.5 195.667969 119.5 195.667969 119.5 195 C 119.5 194.332031 120.5 194.332031 120.5 195 "/>
<path style=" stroke:none;fill-rule:nonzero;fill:rgb(89.803922%,89.803922%,89.803922%);fill-opacity:1;" d="M 135.5 195 C 135.5 195.667969 134.5 195.667969 134.5 195 C 134.5 194.332031 135.5 194.332031 135.5 195 "/>
<path style=" stroke:none;fill-rule:nonzero;fill:rgb(89.803922%,89.803922%,89.803922%);fill-opacity:1;" d="M 150.5 195 C 150.5 195.667969 149.5 195.667969 149.5 195 C 149.5 194.332031 150.5 194.332031 150.5 195 "/>
<path style=" stroke:none;fill-rule:nonzero;fill:rgb(89.803922%,89.803922%,89.803922%);fill-opacity:1;" d="M 165.5 195 C 165.5 195.667969 164.5 195.667969 164.5 195 C 164.5 194.332031 165.5 194.332031 165.5 195 "/>
<path style=" stroke:none;fill-rule:nonzero;fill:rgb(89.803922%,89.803922%,89.803922%);fill-opacity:1;" d="M 180.5 195 C 180.5 195.667969 179.5 195.667969 179.5 195 C 179.5 194.332031 180.5 194.332031 180.5 195 "/>
<path style=" stroke:none;fill-rule:nonzero;fill:rgb(89.803922%,89.803922%,89.803922%);fill-opacity:1;" d="M 195.5 195 C 195.5 195.667969 194.5 195.667969 194.5 195 C 194.5 194.332031 195.5 194.332031 195.5 195 "/>
<path style=" stroke:none;fill-rule:nonzero;fill:rgb(89.803922%,89.803922%,89.803922%);fill-opacity:1;" d="M 210.5 195 C 210.5 195.667969 209.5 195.667969 209.5 195 C 209.5 194.332031 210.5 194.332031 210.5 195 "/>
<path style=" stroke:none;fill-rule:nonzero;fill:rgb(89.803922%,89.803922%,89.803922%);fill-opacity:1;" d="M 225.5 195 C 225.5 195.667969 224.5 195.667969 224.5 195 C 224.5 194.332031 225.5 194.332031 225.5 195 "/>
<path style=" stroke:none;fill-rule:nonzero;fill:rgb(89.803922%,89.803922%,89.803922%);fill-opacity:1;" d="M 240.5 195 C 240.5 195.667969 239.5 195.667969 239.5 195 C 239.5 194.332031 240.5 194.332031 240.5 195 "/>
<path style=" stroke:none;fill-rule:nonzero;fill:rgb(89.803922%,89.803922%,89.803922%);fill-opacity:1;" d="M 255.5 195 C 255.5 195.667969 254.5 195.667969 254.5 195 C 254.5 194.332031 255.5 194.332031 255.5 195 "/>
<path style=" stroke:none;fill-rule:nonzero;fill:rgb(89.803922%,89.803922%,89.803922%);fill-opacity:1;" d="M 270.5 195 C 270.5 195.667969 269.5 195.667969 269.5 195 C 269.5 194.332031 270.5 194.332031 270.5 195 "/>
<path style=" stroke:none;fill-rule:nonzero;fill:rgb(89.803922%,89.803922%,89.803922%);fill-opacity:1;" d="M 285.5 195 C 285.5 195.667969 284.5 195.667969 284.5 195 C 284.5 194.332031 285.5 194.332031 285.5 195 "/>
<path style=" stroke:none;fill-rule:nonzero;fill:rgb(89.803922%,89.803922%,89.803922%);fill-opacity:1;" d="M 300.5 195 C 300.5 195.667969 299.5 195.667969 299.5 195 C 299.5 194.332031 300.5 194.332031 300.5 195 "/>
<path style=" stroke:none;fill-rule:nonzero;fill:rgb(89.803922%,89.803922%,89.803922%);fill-opacity:1;" d="M 0.5 210 C 0.5 210.667969 -0.5 210.667969 -0.5 210 C -0.5 209.332031 0.5 209.332031 0.5 210 "/>
<path style=" stroke:none;fill-rule:nonzero;fill:rgb(89.803922%,89.803922%,89.803922%);fill-opacity:1;" d="M 15.5 210 C 15.5 210.667969 14.5 210.667969 14.5 210 C 14.5 209.332031 15.5 209.332031 15.5 210 "/>
<path style=" stroke:none;fill-rule:nonzero;fill:rgb(89.803922%,89.803922%,89.803922%);fill-opacity:1;" d="M 30.5 210 C 30.5 210.667969 29.5 210.667969 29.5 210 C 29.5 209.332031 30.5 209.332031 30.5 210 "/>
<path style=" stroke:none;fill-rule:nonzero;fill:rgb(89.803922%,89.803922%,89.803922%);fill-opacity:1;" d="M 45.5 210 C 45.5 210.667969 44.5 210.667969 44.5 210 C 44.5 209.332031 45.5 209.332031 45.5 210 "/>
<path style=" stroke:none;fill-rule:nonzero;fill:rgb(89.803922%,89.803922%,89.803922%);fill-opacity:1;" d="M 60.5 210 C 60.5 210.667969 59.5 210.667969 59.5 210 C 59.5 209.332031 60.5 209.332031 60.5 210 "/>
<path style=" stroke:none;fill-rule:nonzero;fill:rgb(89.803922%,89.803922%,89.803922%);fill-opacity:1;" d="M 75.5 210 C 75.5 210.667969 74.5 210.667969 74.5 210 C 74.5 209.332031 75.5 209.332031 75.5 210 "/>
<path style=" stroke:none;fill-rule:nonzero;fill:rgb(89.803922%,89.803922%,89.803922%);fill-opacity:1;" d="M 90.5 210 C 90.5 210.667969 89.5 210.667969 89.5 210 C 89.5 209.332031 90.5 209.332031 90.5 210 "/>
<path style=" stroke:none;fill-rule:nonzero;fill:rgb(89.803922%,89.803922%,89.803922%);fill-opacity:1;" d="M 105.5 210 C 105.5 210.667969 104.5 210.667969 104.5 210 C 104.5 209.332031 105.5 209.332031 105.5 210 "/>
<path style=" stroke:none;fill-rule:nonzero;fill:rgb(89.803922%,89.803922%,89.803922%);fill-opacity:1;" d="M 120.5 210 C 120.5 210.667969 119.5 210.667969 119.5 210 C 119.5 209.332031 120.5 209.332031 120.5 210 "/>
<path style=" stroke:none;fill-rule:nonzero;fill:rgb(89.803922%,89.803922%,89.803922%);fill-opacity:1;" d="M 135.5 210 C 135.5 210.667969 134.5 210.667969 134.5 210 C 134.5 209.332031 135.5 209.332031 135.5 210 "/>
<path style=" stroke:none;fill-rule:nonzero;fill:rgb(89.803922%,89.803922%,89.803922%);fill-opacity:1;" d="M 150.5 210 C 150.5 210.667969 149.5 210.667969 149.5 210 C 149.5 209.332031 150.5 209.332031 150.5 210 "/>
<path style=" stroke:none;fill-rule:nonzero;fill:rgb(89.803922%,89.803922%,89.803922%);fill-opacity:1;" d="M 165.5 210 C 165.5 210.667969 164.5 210.667969 164.5 210 C 164.5 209.332031 165.5 209.332031 165.5 210 "/>
<path style=" stroke:none;fill-rule:nonzero;fill:rgb(89.803922%,89.803922%,89.803922%);fill-opacity:1;" d="M 180.5 210 C 180.5 210.667969 179.5 210.667969 179.5 210 C 179.5 209.332031 180.5 209.332031 180.5 210 "/>
<path style=" stroke:none;fill-rule:nonzero;fill:rgb(89.803922%,89.803922%,89.803922%);fill-opacity:1;" d="M 195.5 210 C 195.5 210.667969 194.5 210.667969 194.5 210 C 194.5 209.332031 195.5 209.332031 195.5 210 "/>
<path style=" stroke:none;fill-rule:nonzero;fill:rgb(89.803922%,89.803922%,89.803922%);fill-opacity:1;" d="M 210.5 210 C 210.5 210.667969 209.5 210.667969 209.5 210 C 209.5 209.332031 210.5 209.332031 210.5 210 "/>
<path style=" stroke:none;fill-rule:nonzero;fill:rgb(89.803922%,89.803922%,89.803922%);fill-opacity:1;" d="M 225.5 210 C 225.5 210.667969 224.5 210.667969 224.5 210 C 224.5 209.332031 225.5 209.332031 225.5 210 "/>
<path style=" stroke:none;fill-rule:nonzero;fill:rgb(89.803922%,89.803922%,89.803922%);fill-opacity:1;" d="M 240.5 210 C 240.5 210.667969 239.5 210.667969 239.5 210 C 239.5 209.332031 240.5 209.332031 240.5 210 "/>
<path style=" stroke:none;fill-rule:nonzero;fill:rgb(89.803922%,89.803922%,89.803922%);fill-opacity:1;" d="M 255.5 210 C 255.5 210.667969 254.5 210.667969 254.5 210 C 254.5 209.332031 255.5 209.332031 255.5 210 "/>
<path style=" stroke:none;fill-rule:nonzero;fill:rgb(89.803922%,89.803922%,89.803922%);fill-opacity:1;" d="M 270.5 210 C 270.5 210.667969 269.5 210.667969 269.5 210 C 269.5 209.332031 270.5 209.332031 270.5 210 "/>
<path style=" stroke:none;fill-rule:nonzero;fill:rgb(89.803922%,89.803922%,89.803922%);fill-opacity:1;" d="M 285.5 210 C 285.5 210.667969 284.5 210.667969 284.5 210 C 284.5 209.332031 285.5 209.332031 285.5 210 "/>
<path style=" stroke:none;fill-rule:nonzero;fill:rgb(89.803922%,89.803922%,89.803922%);fill-opacity:1;" d="M 300.5 210 C 300.5 210.667969 299.5 210.667969 299.5 210 C 299.5 209.332031 300.5 209.332031 300.5 210 "/>
<path style=" stroke:none;fill-rule:nonzero;fill:rgb(89.803922%,89.803922%,89.803922%);fill-opacity:1;" d="M 0.5 225 C 0.5 225.667969 -0.5 225.667969 -0.5 225 C -0.5 224.332031 0.5 224.332031 0.5 225 "/>
<path style=" stroke:none;fill-rule:nonzero;fill:rgb(89.803922%,89.803922%,89.803922%);fill-opacity:1;" d="M 15.5 225 C 15.5 225.667969 14.5 225.667969 14.5 225 C 14.5 224.332031 15.5 224.332031 15.5 225 "/>
<path style=" stroke:none;fill-rule:nonzero;fill:rgb(89.803922%,89.803922%,89.803922%);fill-opacity:1;" d="M 30.5 225 C 30.5 225.667969 29.5 225.667969 29.5 225 C 29.5 224.332031 30.5 224.332031 30.5 225 "/>
<path style=" stroke:none;fill-rule:nonzero;fill:rgb(89.803922%,89.803922%,89.803922%);fill-opacity:1;" d="M 45.5 225 C 45.5 225.667969 44.5 225.667969 44.5 225 C 44.5 224.332031 45.5 224.332031 45.5 225 "/>
<path style=" stroke:none;fill-rule:nonzero;fill:rgb(89.803922%,89.803922%,89.803922%);fill-opacity:1;" d="M 60.5 225 C 60.5 225.667969 59.5 225.667969 59.5 225 C 59.5 224.332031 60.5 224.332031 60.5 225 "/>
<path style=" stroke:none;fill-rule:nonzero;fill:rgb(89.803922%,89.803922%,89.803922%);fill-opacity:1;" d="M 75.5 225 C 75.5 225.667969 74.5 225.667969 74.5 225 C 74.5 224.332031 75.5 224.332031 75.5 225 "/>
<path style=" stroke:none;fill-rule:nonzero;fill:rgb(89.803922%,89.803922%,89.803922%);fill-opacity:1;" d="M 90.5 225 C 90.5 225.667969 89.5 225.667969 89.5 225 C 89.5 224.332031 90.5 224.332031 90.5 225 "/>
<path style=" stroke:none;fill-rule:nonzero;fill:rgb(89.803922%,89.803922%,89.803922%);fill-opacity:1;" d="M 105.5 225 C 105.5 225.667969 104.5 225.667969 104.5 225 C 104.5 224.332031 105.5 224.332031 105.5 225 "/>
<path style=" stroke:none;fill-rule:nonzero;fill:rgb(89.803922%,89.803922%,89.803922%);fill-opacity:1;" d="M 120.5 225 C 120.5 225.667969 119.5 225.667969 119.5 225 C 119.5 224.332031 120.5 224.332031 120.5 225 "/>
<path style=" stroke:none;fill-rule:nonzero;fill:rgb(89.803922%,89.803922%,89.803922%);fill-opacity:1;" d="M 135.5 225 C 135.5 225.667969 134.5 225.667969 134.5 225 C 134.5 224.332031 135.5 224.332031 135.5 225 "/>
<path style=" stroke:none;fill-rule:nonzero;fill:rgb(89.803922%,89.803922%,89.803922%);fill-opacity:1;" d="M 150.5 225 C 150.5 225.667969 149.5 225.667969 149.5 225 C 149.5 224.332031 150.5 224.332031 150.5 225 "/>
<path style=" stroke:none;fill-rule:nonzero;fill:rgb(89.803922%,89.803922%,89.803922%);fill-opacity:1;" d="M 165.5 225 C 165.5 225.667969 164.5 225.667969 164.5 225 C 164.5 224.332031 165.5 224.332031 165.5 225 "/>
<path style=" stroke:none;fill-rule:nonzero;fill:rgb(89.803922%,89.803922%,89.803922%);fill-opacity:1;" d="M 180.5 225 C 180.5 225.667969 179.5 225.667969 179.5 225 C 179.5 224.332031 180.5 224.332031 180.5 225 "/>
<path style=" stroke:none;fill-rule:nonzero;fill:rgb(89.803922%,89.803922%,89.803922%);fill-opacity:1;" d="M 195.5 225 C 195.5 225.667969 194.5 225.667969 194.5 225 C 194.5 224.332031 195.5 224.332031 195.5 225 "/>
<path style=" stroke:none;fill-rule:nonzero;fill:rgb(89.803922%,89.803922%,89.803922%);fill-opacity:1;" d="M 210.5 225 C 210.5 225.667969 209.5 225.667969 209.5 225 C 209.5 224.332031 210.5 224.332031 210.5 225 "/>
<path style=" stroke:none;fill-rule:nonzero;fill:rgb(89.803922%,89.803922%,89.803922%);fill-opacity:1;" d="M 225.5 225 C 225.5 225.667969 224.5 225.667969 224.5 225 C 224.5 224.332031 225.5 224.332031 225.5 225 "/>
<path style=" stroke:none;fill-rule:nonzero;fill:rgb(89.803922%,89.803922%,89.803922%);fill-opacity:1;" d="M 240.5 225 C 240.5 225.667969 239.5 225.667969 239.5 225 C 239.5 224.332031 240.5 224.332031 240.5 225 "/>
<path style=" stroke:none;fill-rule:nonzero;fill:rgb(89.803922%,89.803922%,89.803922%);fill-opacity:1;" d="M 255.5 225 C 255.5 225.667969 254.5 225.667969 254.5 225 C 254.5 224.332031 255.5 224.332031 255.5 225 "/>
<path style=" stroke:none;fill-rule:nonzero;fill:rgb(89.803922%,89.803922%,89.803922%);fill-opacity:1;" d="M 270.5 225 C 270.5 225.667969 269.5 225.667969 269.5 225 C 269.5 224.332031 270.5 224.332031 270.5 225 "/>
<path style=" stroke:none;fill-rule:nonzero;fill:rgb(89.803922%,89.803922%,89.803922%);fill-opacity:1;" d="M 285.5 225 C 285.5 225.667969 284.5 225.667969 284.5 225 C 284.5 224.332031 285.5 224.332031 285.5 225 "/>
<path style=" stroke:none;fill-rule:nonzero;fill:rgb(89.803922%,89.803922%,89.803922%);fill-opacity:1;" d="M 300.5 225 C 300.5 225.667969 299.5 225.667969 299.5 225 C 299.5 224.332031 300.5 224.332031 300.5 225 "/>
<path style=" stroke:none;fill-rule:nonzero;fill:rgb(89.803922%,89.803922%,89.803922%);fill-opacity:1;" d="M 0.5 240 C 0.5 240.667969 -0.5 240.667969 -0.5 240 C -0.5 239.332031 0.5 239.332031 0.5 240 "/>
<path style=" stroke:none;fill-rule:nonzero;fill:rgb(89.803922%,89.803922%,89.803922%);fill-opacity:1;" d="M 15.5 240 C 15.5 240.667969 14.5 240.667969 14.5 240 C 14.5 239.332031 15.5 239.332031 15.5 240 "/>
<path style=" stroke:none;fill-rule:nonzero;fill:rgb(89.803922%,89.803922%,89.803922%);fill-opacity:1;" d="M 30.5 240 C 30.5 240.667969 29.5 240.667969 29.5 240 C 29.5 239.332031 30.5 239.332031 30.5 240 "/>
<path style=" stroke:none;fill-rule:nonzero;fill:rgb(89.803922%,89.803922%,89.803922%);fill-opacity:1;" d="M 45.5 240 C 45.5 240.667969 44.5 240.667969 44.5 240 C 44.5 239.332031 45.5 239.332031 45.5 240 "/>
<path style=" stroke:none;fill-rule:nonzero;fill:rgb(89.803922%,89.803922%,89.803922%);fill-opacity:1;" d="M 60.5 240 C 60.5 240.667969 59.5 240.667969 59.5 240 C 59.5 239.332031 60.5 239.332031 60.5 240 "/>
<path style=" stroke:none;fill-rule:nonzero;fill:rgb(89.803922%,89.803922%,89.803922%);fill-opacity:1;" d="M 75.5 240 C 75.5 240.667969 74.5 240.667969 74.5 240 C 74.5 239.332031 75.5 239.332031 75.5 240 "/>
<path style=" stroke:none;fill-rule:nonzero;fill:rgb(89.803922%,89.803922%,89.803922%);fill-opacity:1;" d="M 90.5 240 C 90.5 240.667969 89.5 240.667969 89.5 240 C 89.5 239.332031 90.5 239.332031 90.5 240 "/>
<path style=" stroke:none;fill-rule:nonzero;fill:rgb(89.803922%,89.803922%,89.803922%);fill-opacity:1;" d="M 105.5 240 C 105.5 240.667969 104.5 240.667969 104.5 240 C 104.5 239.332031 105.5 239.332031 105.5 240 "/>
<path style=" stroke:none;fill-rule:nonzero;fill:rgb(89.803922%,89.803922%,89.803922%);fill-opacity:1;" d="M 120.5 240 C 120.5 240.667969 119.5 240.667969 119.5 240 C 119.5 239.332031 120.5 239.332031 120.5 240 "/>
<path style=" stroke:none;fill-rule:nonzero;fill:rgb(89.803922%,89.803922%,89.803922%);fill-opacity:1;" d="M 135.5 240 C 135.5 240.667969 134.5 240.667969 134.5 240 C 134.5 239.332031 135.5 239.332031 135.5 240 "/>
<path style=" stroke:none;fill-rule:nonzero;fill:rgb(89.803922%,89.803922%,89.803922%);fill-opacity:1;" d="M 150.5 240 C 150.5 240.667969 149.5 240.667969 149.5 240 C 149.5 239.332031 150.5 239.332031 150.5 240 "/>
<path style=" stroke:none;fill-rule:nonzero;fill:rgb(89.803922%,89.803922%,89.803922%);fill-opacity:1;" d="M 165.5 240 C 165.5 240.667969 164.5 240.667969 164.5 240 C 164.5 239.332031 165.5 239.332031 165.5 240 "/>
<path style=" stroke:none;fill-rule:nonzero;fill:rgb(89.803922%,89.803922%,89.803922%);fill-opacity:1;" d="M 180.5 240 C 180.5 240.667969 179.5 240.667969 179.5 240 C 179.5 239.332031 180.5 239.332031 180.5 240 "/>
<path style=" stroke:none;fill-rule:nonzero;fill:rgb(89.803922%,89.803922%,89.803922%);fill-opacity:1;" d="M 195.5 240 C 195.5 240.667969 194.5 240.667969 194.5 240 C 194.5 239.332031 195.5 239.332031 195.5 240 "/>
<path style=" stroke:none;fill-rule:nonzero;fill:rgb(89.803922%,89.803922%,89.803922%);fill-opacity:1;" d="M 210.5 240 C 210.5 240.667969 209.5 240.667969 209.5 240 C 209.5 239.332031 210.5 239.332031 210.5 240 "/>
<path style=" stroke:none;fill-rule:nonzero;fill:rgb(89.803922%,89.803922%,89.803922%);fill-opacity:1;" d="M 225.5 240 C 225.5 240.667969 224.5 240.667969 224.5 240 C 224.5 239.332031 225.5 239.332031 225.5 240 "/>
<path style=" stroke:none;fill-rule:nonzero;fill:rgb(89.803922%,89.803922%,89.803922%);fill-opacity:1;" d="M 240.5 240 C 240.5 240.667969 239.5 240.667969 239.5 240 C 239.5 239.332031 240.5 239.332031 240.5 240 "/>
<path style=" stroke:none;fill-rule:nonzero;fill:rgb(89.803922%,89.803922%,89.803922%);fill-opacity:1;" d="M 255.5 240 C 255.5 240.667969 254.5 240.667969 254.5 240 C 254.5 239.332031 255.5 239.332031 255.5 240 "/>
<path style=" stroke:none;fill-rule:nonzero;fill:rgb(89.803922%,89.803922%,89.803922%);fill-opacity:1;" d="M 270.5 240 C 270.5 240.667969 269.5 240.667969 269.5 240 C 269.5 239.332031 270.5 239.332031 270.5 240 "/>
<path style=" stroke:none;fill-rule:nonzero;fill:rgb(89.803922%,89.803922%,89.803922%);fill-opacity:1;" d="M 285.5 240 C 285.5 240.667969 284.5 240.667969 284.5 240 C 284.5 239.332031 285.5 239.332031 285.5 240 "/>
<path style=" stroke:none;fill-rule:nonzero;fill:rgb(89.803922%,89.803922%,89.803922%);fill-opacity:1;" d="M 300.5 240 C 300.5 240.667969 299.5 240.667969 299.5 240 C 299.5 239.332031 300.5 239.332031 300.5 240 "/>
<path style=" stroke:none;fill-rule:nonzero;fill:rgb(89.803922%,89.803922%,89.803922%);fill-opacity:1;" d="M 0.5 255 C 0.5 255.667969 -0.5 255.667969 -0.5 255 C -0.5 254.332031 0.5 254.332031 0.5 255 "/>
<path style=" stroke:none;fill-rule:nonzero;fill:rgb(89.803922%,89.803922%,89.803922%);fill-opacity:1;" d="M 15.5 255 C 15.5 255.667969 14.5 255.667969 14.5 255 C 14.5 254.332031 15.5 254.332031 15.5 255 "/>
<path style=" stroke:none;fill-rule:nonzero;fill:rgb(89.803922%,89.803922%,89.803922%);fill-opacity:1;" d="M 30.5 255 C 30.5 255.667969 29.5 255.667969 29.5 255 C 29.5 254.332031 30.5 254.332031 30.5 255 "/>
<path style=" stroke:none;fill-rule:nonzero;fill:rgb(89.803922%,89.803922%,89.803922%);fill-opacity:1;" d="M 45.5 255 C 45.5 255.667969 44.5 255.667969 44.5 255 C 44.5 254.332031 45.5 254.332031 45.5 255 "/>
<path style=" stroke:none;fill-rule:nonzero;fill:rgb(89.803922%,89.803922%,89.803922%);fill-opacity:1;" d="M 60.5 255 C 60.5 255.667969 59.5 255.667969 59.5 255 C 59.5 254.332031 60.5 254.332031 60.5 255 "/>
<path style=" stroke:none;fill-rule:nonzero;fill:rgb(89.803922%,89.803922%,89.803922%);fill-opacity:1;" d="M 75.5 255 C 75.5 255.667969 74.5 255.667969 74.5 255 C 74.5 254.332031 75.5 254.332031 75.5 255 "/>
<path style=" stroke:none;fill-rule:nonzero;fill:rgb(89.803922%,89.803922%,89.803922%);fill-opacity:1;" d="M 90.5 255 C 90.5 255.667969 89.5 255.667969 89.5 255 C 89.5 254.332031 90.5 254.332031 90.5 255 "/>
<path style=" stroke:none;fill-rule:nonzero;fill:rgb(89.803922%,89.803922%,89.803922%);fill-opacity:1;" d="M 105.5 255 C 105.5 255.667969 104.5 255.667969 104.5 255 C 104.5 254.332031 105.5 254.332031 105.5 255 "/>
<path style=" stroke:none;fill-rule:nonzero;fill:rgb(89.803922%,89.803922%,89.803922%);fill-opacity:1;" d="M 120.5 255 C 120.5 255.667969 119.5 255.667969 119.5 255 C 119.5 254.332031 120.5 254.332031 120.5 255 "/>
<path style=" stroke:none;fill-rule:nonzero;fill:rgb(89.803922%,89.803922%,89.803922%);fill-opacity:1;" d="M 135.5 255 C 135.5 255.667969 134.5 255.667969 134.5 255 C 134.5 254.332031 135.5 254.332031 135.5 255 "/>
<path style=" stroke:none;fill-rule:nonzero;fill:rgb(89.803922%,89.803922%,89.803922%);fill-opacity:1;" d="M 150.5 255 C 150.5 255.667969 149.5 255.667969 149.5 255 C 149.5 254.332031 150.5 254.332031 150.5 255 "/>
<path style=" stroke:none;fill-rule:nonzero;fill:rgb(89.803922%,89.803922%,89.803922%);fill-opacity:1;" d="M 165.5 255 C 165.5 255.667969 164.5 255.667969 164.5 255 C 164.5 254.332031 165.5 254.332031 165.5 255 "/>
<path style=" stroke:none;fill-rule:nonzero;fill:rgb(89.803922%,89.803922%,89.803922%);fill-opacity:1;" d="M 180.5 255 C 180.5 255.667969 179.5 255.667969 179.5 255 C 179.5 254.332031 180.5 254.332031 180.5 255 "/>
<path style=" stroke:none;fill-rule:nonzero;fill:rgb(89.803922%,89.803922%,89.803922%);fill-opacity:1;" d="M 195.5 255 C 195.5 255.667969 194.5 255.667969 194.5 255 C 194.5 254.332031 195.5 254.332031 195.5 255 "/>
<path style=" stroke:none;fill-rule:nonzero;fill:rgb(89.803922%,89.803922%,89.803922%);fill-opacity:1;" d="M 210.5 255 C 210.5 255.667969 209.5 255.667969 209.5 255 C 209.5 254.332031 210.5 254.332031 210.5 255 "/>
<path style=" stroke:none;fill-rule:nonzero;fill:rgb(89.803922%,89.803922%,89.803922%);fill-opacity:1;" d="M 225.5 255 C 225.5 255.667969 224.5 255.667969 224.5 255 C 224.5 254.332031 225.5 254.332031 225.5 255 "/>
<path style=" stroke:none;fill-rule:nonzero;fill:rgb(89.803922%,89.803922%,89.803922%);fill-opacity:1;" d="M 240.5 255 C 240.5 255.667969 239.5 255.667969 239.5 255 C 239.5 254.332031 240.5 254.332031 240.5 255 "/>
<path style=" stroke:none;fill-rule:nonzero;fill:rgb(89.803922%,89.803922%,89.803922%);fill-opacity:1;" d="M 255.5 255 C 255.5 255.667969 254.5 255.667969 254.5 255 C 254.5 254.332031 255.5 254.332031 255.5 255 "/>
<path style=" stroke:none;fill-rule:nonzero;fill:rgb(89.803922%,89.803922%,89.803922%);fill-opacity:1;" d="M 270.5 255 C 270.5 255.667969 269.5 255.667969 269.5 255 C 269.5 254.332031 270.5 254.332031 270.5 255 "/>
<path style=" stroke:none;fill-rule:nonzero;fill:rgb(89.803922%,89.803922%,89.803922%);fill-opacity:1;" d="M 285.5 255 C 285.5 255.667969 284.5 255.667969 284.5 255 C 284.5 254.332031 285.5 254.332031 285.5 255 "/>
<path style=" stroke:none;fill-rule:nonzero;fill:rgb(89.803922%,89.803922%,89.803922%);fill-opacity:1;" d="M 300.5 255 C 300.5 255.667969 299.5 255.667969 299.5 255 C 299.5 254.332031 300.5 254.332031 300.5 255 "/>
<path style=" stroke:none;fill-rule:nonzero;fill:rgb(89.803922%,89.803922%,89.803922%);fill-opacity:1;" d="M 0.5 270 C 0.5 270.667969 -0.5 270.667969 -0.5 270 C -0.5 269.332031 0.5 269.332031 0.5 270 "/>
<path style=" stroke:none;fill-rule:nonzero;fill:rgb(89.803922%,89.803922%,89.803922%);fill-opacity:1;" d="M 15.5 270 C 15.5 270.667969 14.5 270.667969 14.5 270 C 14.5 269.332031 15.5 269.332031 15.5 270 "/>
<path style=" stroke:none;fill-rule:nonzero;fill:rgb(89.803922%,89.803922%,89.803922%);fill-opacity:1;" d="M 30.5 270 C 30.5 270.667969 29.5 270.667969 29.5 270 C 29.5 269.332031 30.5 269.332031 30.5 270 "/>
<path style=" stroke:none;fill-rule:nonzero;fill:rgb(89.803922%,89.803922%,89.803922%);fill-opacity:1;" d="M 45.5 270 C 45.5 270.667969 44.5 270.667969 44.5 270 C 44.5 269.332031 45.5 269.332031 45.5 270 "/>
<path style=" stroke:none;fill-rule:nonzero;fill:rgb(89.803922%,89.803922%,89.803922%);fill-opacity:1;" d="M 60.5 270 C 60.5 270.667969 59.5 270.667969 59.5 270 C 59.5 269.332031 60.5 269.332031 60.5 270 "/>
<path style=" stroke:none;fill-rule:nonzero;fill:rgb(89.803922%,89.803922%,89.803922%);fill-opacity:1;" d="M 75.5 270 C 75.5 270.667969 74.5 270.667969 74.5 270 C 74.5 269.332031 75.5 269.332031 75.5 270 "/>
<path style=" stroke:none;fill-rule:nonzero;fill:rgb(89.803922%,89.803922%,89.803922%);fill-opacity:1;" d="M 90.5 270 C 90.5 270.667969 89.5 270.667969 89.5 270 C 89.5 269.332031 90.5 269.332031 90.5 270 "/>
<path style=" stroke:none;fill-rule:nonzero;fill:rgb(89.803922%,89.803922%,89.803922%);fill-opacity:1;" d="M 105.5 270 C 105.5 270.667969 104.5 270.667969 104.5 270 C 104.5 269.332031 105.5 269.332031 105.5 270 "/>
<path style=" stroke:none;fill-rule:nonzero;fill:rgb(89.803922%,89.803922%,89.803922%);fill-opacity:1;" d="M 120.5 270 C 120.5 270.667969 119.5 270.667969 119.5 270 C 119.5 269.332031 120.5 269.332031 120.5 270 "/>
<path style=" stroke:none;fill-rule:nonzero;fill:rgb(89.803922%,89.803922%,89.803922%);fill-opacity:1;" d="M 135.5 270 C 135.5 270.667969 134.5 270.667969 134.5 270 C 134.5 269.332031 135.5 269.332031 135.5 270 "/>
<path style=" stroke:none;fill-rule:nonzero;fill:rgb(89.803922%,89.803922%,89.803922%);fill-opacity:1;" d="M 150.5 270 C 150.5 270.667969 149.5 270.667969 149.5 270 C 149.5 269.332031 150.5 269.332031 150.5 270 "/>
<path style=" stroke:none;fill-rule:nonzero;fill:rgb(89.803922%,89.803922%,89.803922%);fill-opacity:1;" d="M 165.5 270 C 165.5 270.667969 164.5 270.667969 164.5 270 C 164.5 269.332031 165.5 269.332031 165.5 270 "/>
<path style=" stroke:none;fill-rule:nonzero;fill:rgb(89.803922%,89.803922%,89.803922%);fill-opacity:1;" d="M 180.5 270 C 180.5 270.667969 179.5 270.667969 179.5 270 C 179.5 269.332031 180.5 269.332031 180.5 270 "/>
<path style=" stroke:none;fill-rule:nonzero;fill:rgb(89.803922%,89.803922%,89.803922%);fill-opacity:1;" d="M 195.5 270 C 195.5 270.667969 194.5 270.667969 194.5 270 C 194.5 269.332031 195.5 269.332031 195.5 270 "/>
<path style=" stroke:none;fill-rule:nonzero;fill:rgb(89.803922%,89.803922%,89.803922%);fill-opacity:1;" d="M 210.5 270 C 210.5 270.667969 209.5 270.667969 209.5 270 C 209.5 269.332031 210.5 269.332031 210.5 270 "/>
<path style=" stroke:none;fill-rule:nonzero;fill:rgb(89.803922%,89.803922%,89.803922%);fill-opacity:1;" d="M 225.5 270 C 225.5 270.667969 224.5 270.667969 224.5 270 C 224.5 269.332031 225.5 269.332031 225.5 270 "/>
<path style=" stroke:none;fill-rule:nonzero;fill:rgb(89.803922%,89.803922%,89.803922%);fill-opacity:1;" d="M 240.5 270 C 240.5 270.667969 239.5 270.667969 239.5 270 C 239.5 269.332031 240.5 269.332031 240.5 270 "/>
<path style=" stroke:none;fill-rule:nonzero;fill:rgb(89.803922%,89.803922%,89.803922%);fill-opacity:1;" d="M 255.5 270 C 255.5 270.667969 254.5 270.667969 254.5 270 C 254.5 269.332031 255.5 269.332031 255.5 270 "/>
<path style=" stroke:none;fill-rule:nonzero;fill:rgb(89.803922%,89.803922%,89.803922%);fill-opacity:1;" d="M 270.5 270 C 270.5 270.667969 269.5 270.667969 269.5 270 C 269.5 269.332031 270.5 269.332031 270.5 270 "/>
<path style=" stroke:none;fill-rule:nonzero;fill:rgb(89.803922%,89.803922%,89.803922%);fill-opacity:1;" d="M 285.5 270 C 285.5 270.667969 284.5 270.667969 284.5 270 C 284.5 269.332031 285.5 269.332031 285.5 270 "/>
<path style=" stroke:none;fill-rule:nonzero;fill:rgb(89.803922%,89.803922%,89.803922%);fill-opacity:1;" d="M 300.5 270 C 300.5 270.667969 299.5 270.667969 299.5 270 C 299.5 269.332031 300.5 269.332031 300.5 270 "/>
<path style=" stroke:none;fill-rule:nonzero;fill:rgb(89.803922%,89.803922%,89.803922%);fill-opacity:1;" d="M 0.5 285 C 0.5 285.667969 -0.5 285.667969 -0.5 285 C -0.5 284.332031 0.5 284.332031 0.5 285 "/>
<path style=" stroke:none;fill-rule:nonzero;fill:rgb(89.803922%,89.803922%,89.803922%);fill-opacity:1;" d="M 15.5 285 C 15.5 285.667969 14.5 285.667969 14.5 285 C 14.5 284.332031 15.5 284.332031 15.5 285 "/>
<path style=" stroke:none;fill-rule:nonzero;fill:rgb(89.803922%,89.803922%,89.803922%);fill-opacity:1;" d="M 30.5 285 C 30.5 285.667969 29.5 285.667969 29.5 285 C 29.5 284.332031 30.5 284.332031 30.5 285 "/>
<path style=" stroke:none;fill-rule:nonzero;fill:rgb(89.803922%,89.803922%,89.803922%);fill-opacity:1;" d="M 45.5 285 C 45.5 285.667969 44.5 285.667969 44.5 285 C 44.5 284.332031 45.5 284.332031 45.5 285 "/>
<path style=" stroke:none;fill-rule:nonzero;fill:rgb(89.803922%,89.803922%,89.803922%);fill-opacity:1;" d="M 60.5 285 C 60.5 285.667969 59.5 285.667969 59.5 285 C 59.5 284.332031 60.5 284.332031 60.5 285 "/>
<path style=" stroke:none;fill-rule:nonzero;fill:rgb(89.803922%,89.803922%,89.803922%);fill-opacity:1;" d="M 75.5 285 C 75.5 285.667969 74.5 285.667969 74.5 285 C 74.5 284.332031 75.5 284.332031 75.5 285 "/>
<path style=" stroke:none;fill-rule:nonzero;fill:rgb(89.803922%,89.803922%,89.803922%);fill-opacity:1;" d="M 90.5 285 C 90.5 285.667969 89.5 285.667969 89.5 285 C 89.5 284.332031 90.5 284.332031 90.5 285 "/>
<path style=" stroke:none;fill-rule:nonzero;fill:rgb(89.803922%,89.803922%,89.803922%);fill-opacity:1;" d="M 105.5 285 C 105.5 285.667969 104.5 285.667969 104.5 285 C 104.5 284.332031 105.5 284.332031 105.5 285 "/>
<path style=" stroke:none;fill-rule:nonzero;fill:rgb(89.803922%,89.803922%,89.803922%);fill-opacity:1;" d="M 120.5 285 C 120.5 285.667969 119.5 285.667969 119.5 285 C 119.5 284.332031 120.5 284.332031 120.5 285 "/>
<path style=" stroke:none;fill-rule:nonzero;fill:rgb(89.803922%,89.803922%,89.803922%);fill-opacity:1;" d="M 135.5 285 C 135.5 285.667969 134.5 285.667969 134.5 285 C 134.5 284.332031 135.5 284.332031 135.5 285 "/>
<path style=" stroke:none;fill-rule:nonzero;fill:rgb(89.803922%,89.803922%,89.803922%);fill-opacity:1;" d="M 150.5 285 C 150.5 285.667969 149.5 285.667969 149.5 285 C 149.5 284.332031 150.5 284.332031 150.5 285 "/>
<path style=" stroke:none;fill-rule:nonzero;fill:rgb(89.803922%,89.803922%,89.803922%);fill-opacity:1;" d="M 165.5 285 C 165.5 285.667969 164.5 285.667969 164.5 285 C 164.5 284.332031 165.5 284.332031 165.5 285 "/>
<path style=" stroke:none;fill-rule:nonzero;fill:rgb(89.803922%,89.803922%,89.803922%);fill-opacity:1;" d="M 180.5 285 C 180.5 285.667969 179.5 285.667969 179.5 285 C 179.5 284.332031 180.5 284.332031 180.5 285 "/>
<path style=" stroke:none;fill-rule:nonzero;fill:rgb(89.803922%,89.803922%,89.803922%);fill-opacity:1;" d="M 195.5 285 C 195.5 285.667969 194.5 285.667969 194.5 285 C 194.5 284.332031 195.5 284.332031 195.5 285 "/>
<path style=" stroke:none;fill-rule:nonzero;fill:rgb(89.803922%,89.803922%,89.803922%);fill-opacity:1;" d="M 210.5 285 C 210.5 285.667969 209.5 285.667969 209.5 285 C 209.5 284.332031 210.5 284.332031 210.5 285 "/>
<path style=" stroke:none;fill-rule:nonzero;fill:rgb(89.803922%,89.803922%,89.803922%);fill-opacity:1;" d="M 225.5 285 C 225.5 285.667969 224.5 285.667969 224.5 285 C 224.5 284.332031 225.5 284.332031 225.5 285 "/>
<path style=" stroke:none;fill-rule:nonzero;fill:rgb(89.803922%,89.803922%,89.803922%);fill-opacity:1;" d="M 240.5 285 C 240.5 285.667969 239.5 285.667969 239.5 285 C 239.5 284.332031 240.5 284.332031 240.5 285 "/>
<path style=" stroke:none;fill-rule:nonzero;fill:rgb(89.803922%,89.803922%,89.803922%);fill-opacity:1;" d="M 255.5 285 C 255.5 285.667969 254.5 285.667969 254.5 285 C 254.5 284.332031 255.5 284.332031 255.5 285 "/>
<path style=" stroke:none;fill-rule:nonzero;fill:rgb(89.803922%,89.803922%,89.803922%);fill-opacity:1;" d="M 270.5 285 C 270.5 285.667969 269.5 285.667969 269.5 285 C 269.5 284.332031 270.5 284.332031 270.5 285 "/>
<path style=" stroke:none;fill-rule:nonzero;fill:rgb(89.803922%,89.803922%,89.803922%);fill-opacity:1;" d="M 285.5 285 C 285.5 285.667969 284.5 285.667969 284.5 285 C 284.5 284.332031 285.5 284.332031 285.5 285 "/>
<path style=" stroke:none;fill-rule:nonzero;fill:rgb(89.803922%,89.803922%,89.803922%);fill-opacity:1;" d="M 300.5 285 C 300.5 285.667969 299.5 285.667969 299.5 285 C 299.5 284.332031 300.5 284.332031 300.5 285 "/>
<path style=" stroke:none;fill-rule:nonzero;fill:rgb(89.803922%,89.803922%,89.803922%);fill-opacity:1;" d="M 0.5 300 C 0.5 300.667969 -0.5 300.667969 -0.5 300 C -0.5 299.332031 0.5 299.332031 0.5 300 "/>
<path style=" stroke:none;fill-rule:nonzero;fill:rgb(89.803922%,89.803922%,89.803922%);fill-opacity:1;" d="M 15.5 300 C 15.5 300.667969 14.5 300.667969 14.5 300 C 14.5 299.332031 15.5 299.332031 15.5 300 "/>
<path style=" stroke:none;fill-rule:nonzero;fill:rgb(89.803922%,89.803922%,89.803922%);fill-opacity:1;" d="M 30.5 300 C 30.5 300.667969 29.5 300.667969 29.5 300 C 29.5 299.332031 30.5 299.332031 30.5 300 "/>
<path style=" stroke:none;fill-rule:nonzero;fill:rgb(89.803922%,89.803922%,89.803922%);fill-opacity:1;" d="M 45.5 300 C 45.5 300.667969 44.5 300.667969 44.5 300 C 44.5 299.332031 45.5 299.332031 45.5 300 "/>
<path style=" stroke:none;fill-rule:nonzero;fill:rgb(89.803922%,89.803922%,89.803922%);fill-opacity:1;" d="M 60.5 300 C 60.5 300.667969 59.5 300.667969 59.5 300 C 59.5 299.332031 60.5 299.332031 60.5 300 "/>
<path style=" stroke:none;fill-rule:nonzero;fill:rgb(89.803922%,89.803922%,89.803922%);fill-opacity:1;" d="M 75.5 300 C 75.5 300.667969 74.5 300.667969 74.5 300 C 74.5 299.332031 75.5 299.332031 75.5 300 "/>
<path style=" stroke:none;fill-rule:nonzero;fill:rgb(89.803922%,89.803922%,89.803922%);fill-opacity:1;" d="M 90.5 300 C 90.5 300.667969 89.5 300.667969 89.5 300 C 89.5 299.332031 90.5 299.332031 90.5 300 "/>
<path style=" stroke:none;fill-rule:nonzero;fill:rgb(89.803922%,89.803922%,89.803922%);fill-opacity:1;" d="M 105.5 300 C 105.5 300.667969 104.5 300.667969 104.5 300 C 104.5 299.332031 105.5 299.332031 105.5 300 "/>
<path style=" stroke:none;fill-rule:nonzero;fill:rgb(89.803922%,89.803922%,89.803922%);fill-opacity:1;" d="M 120.5 300 C 120.5 300.667969 119.5 300.667969 119.5 300 C 119.5 299.332031 120.5 299.332031 120.5 300 "/>
<path style=" stroke:none;fill-rule:nonzero;fill:rgb(89.803922%,89.803922%,89.803922%);fill-opacity:1;" d="M 135.5 300 C 135.5 300.667969 134.5 300.667969 134.5 300 C 134.5 299.332031 135.5 299.332031 135.5 300 "/>
<path style=" stroke:none;fill-rule:nonzero;fill:rgb(89.803922%,89.803922%,89.803922%);fill-opacity:1;" d="M 150.5 300 C 150.5 300.667969 149.5 300.667969 149.5 300 C 149.5 299.332031 150.5 299.332031 150.5 300 "/>
<path style=" stroke:none;fill-rule:nonzero;fill:rgb(89.803922%,89.803922%,89.803922%);fill-opacity:1;" d="M 165.5 300 C 165.5 300.667969 164.5 300.667969 164.5 300 C 164.5 299.332031 165.5 299.332031 165.5 300 "/>
<path style=" stroke:none;fill-rule:nonzero;fill:rgb(89.803922%,89.803922%,89.803922%);fill-opacity:1;" d="M 180.5 300 C 180.5 300.667969 179.5 300.667969 179.5 300 C 179.5 299.332031 180.5 299.332031 180.5 300 "/>
<path style=" stroke:none;fill-rule:nonzero;fill:rgb(89.803922%,89.803922%,89.803922%);fill-opacity:1;" d="M 195.5 300 C 195.5 300.667969 194.5 300.667969 194.5 300 C 194.5 299.332031 195.5 299.332031 195.5 300 "/>
<path style=" stroke:none;fill-rule:nonzero;fill:rgb(89.803922%,89.803922%,89.803922%);fill-opacity:1;" d="M 210.5 300 C 210.5 300.667969 209.5 300.667969 209.5 300 C 209.5 299.332031 210.5 299.332031 210.5 300 "/>
<path style=" stroke:none;fill-rule:nonzero;fill:rgb(89.803922%,89.803922%,89.803922%);fill-opacity:1;" d="M 225.5 300 C 225.5 300.667969 224.5 300.667969 224.5 300 C 224.5 299.332031 225.5 299.332031 225.5 300 "/>
<path style=" stroke:none;fill-rule:nonzero;fill:rgb(89.803922%,89.803922%,89.803922%);fill-opacity:1;" d="M 240.5 300 C 240.5 300.667969 239.5 300.667969 239.5 300 C 239.5 299.332031 240.5 299.332031 240.5 300 "/>
<path style=" stroke:none;fill-rule:nonzero;fill:rgb(89.803922%,89.803922%,89.803922%);fill-opacity:1;" d="M 255.5 300 C 255.5 300.667969 254.5 300.667969 254.5 300 C 254.5 299.332031 255.5 299.332031 255.5 300 "/>
<path style=" stroke:none;fill-rule:nonzero;fill:rgb(89.803922%,89.803922%,89.803922%);fill-opacity:1;" d="M 270.5 300 C 270.5 300.667969 269.5 300.667969 269.5 300 C 269.5 299.332031 270.5 299.332031 270.5 300 "/>
<path style=" stroke:none;fill-rule:nonzero;fill:rgb(89.803922%,89.803922%,89.803922%);fill-opacity:1;" d="M 285.5 300 C 285.5 300.667969 284.5 300.667969 284.5 300 C 284.5 299.332031 285.5 299.332031 285.5 300 "/>
<path style=" stroke:none;fill-rule:nonzero;fill:rgb(89.803922%,89.803922%,89.803922%);fill-opacity:1;" d="M 300.5 300 C 300.5 300.667969 299.5 300.667969 299.5 300 C 299.5 299.332031 300.5 299.332031 300.5 300 "/>
<path style=" stroke:none;fill-rule:nonzero;fill:rgb(0%,0%,0%);fill-opacity:1;" d="M 135 210 L 165 210 L 165 90 L 135 90 "/>
<path style=" stroke:none;fill-rule:nonzero;fill:rgb(0%,0%,0%);fill-opacity:1;" d="M 90 45 L 90 75 L 210 75 L 210 45 "/>
</g>
</svg>
