<?xml version="1.0" encoding="UTF-8"?>
<svg xmlns="http://www.w3.org/2000/svg" xmlns:xlink="http://www.w3.org/1999/xlink" width="600pt" height="200pt" viewBox="0 0 600 200" version="1.1">
<defs>
<g>
<symbol overflow="visible" id="glyph6221730-0">
<path style="stroke:none;" d="M 3.78125 17.851562 L 3.78125 -76.125 L 59.21875 -76.125 L 59.21875 17.851562 Z M 9.238281 12.390625 L 53.761719 12.390625 L 53.761719 -70.664062 L 9.238281 -70.664062 Z M 17.167969 -47.25 C 17.0625 -52.570312 18.480469 -56.035156 21.421875 -57.644531 C 24.359375 -59.253906 27.476562 -60.058594 30.765625 -60.058594 C 35.28125 -60.058594 38.753906 -59.027344 41.1875 -56.960938 C 43.621094 -54.898438 44.835938 -51.941406 44.835938 -48.089844 C 44.835938 -46.375 44.503906 -44.78125 43.835938 -43.3125 C 43.171875 -41.84375 42.375 -40.546875 41.449219 -39.425781 C 40.519531 -38.308594 39.253906 -36.925781 37.640625 -35.28125 L 35.910156 -33.496094 C 34.859375 -32.585938 34.160156 -31.867188 33.808594 -31.34375 C 33.460938 -30.816406 33.285156 -30.046875 33.285156 -29.03125 L 33.285156 -26.25 L 27.300781 -26.25 L 27.300781 -29.03125 C 27.300781 -30.1875 27.34375 -31.097656 27.429688 -31.761719 C 27.519531 -32.425781 27.773438 -33.109375 28.191406 -33.808594 C 28.71875 -34.648438 29.347656 -35.4375 30.082031 -36.171875 C 30.816406 -36.90625 31.710938 -37.746094 32.761719 -38.691406 C 34.054688 -39.847656 35.0625 -40.820312 35.777344 -41.605469 C 36.496094 -42.394531 37.109375 -43.3125 37.617188 -44.363281 C 38.125 -45.414062 38.378906 -46.566406 38.378906 -47.828125 C 38.378906 -49.894531 37.660156 -51.484375 36.226562 -52.605469 C 34.789062 -53.726562 32.742188 -54.285156 30.082031 -54.285156 C 28.996094 -54.285156 27.914062 -54.046875 26.828125 -53.578125 C 25.742188 -53.105469 24.851562 -52.34375 24.148438 -51.292969 C 23.449219 -50.242188 23.136719 -48.894531 23.203125 -47.25 Z M 36.382812 -17.113281 C 36.382812 -15.644531 35.859375 -14.386719 34.808594 -13.335938 C 33.757812 -12.285156 32.480469 -11.761719 30.976562 -11.761719 C 29.503906 -11.761719 28.246094 -12.285156 27.195312 -13.335938 C 26.144531 -14.386719 25.621094 -15.644531 25.621094 -17.113281 C 25.621094 -17.988281 25.8125 -18.8125 26.199219 -19.582031 C 26.40625 -20.386719 26.773438 -21.007812 27.300781 -21.445312 C 27.824219 -21.882812 28.542969 -22.171875 29.453125 -22.3125 C 30.082031 -22.453125 30.589844 -22.523438 30.976562 -22.523438 C 32.480469 -22.523438 33.757812 -21.996094 34.808594 -20.949219 C 35.859375 -19.898438 36.382812 -18.621094 36.382812 -17.113281 Z M 24.359375 -10.710938 C 25.828125 -10.710938 27.097656 -10.175781 28.167969 -9.109375 C 29.234375 -8.042969 29.765625 -6.773438 29.765625 -5.300781 C 29.765625 -3.832031 29.234375 -2.574219 28.167969 -1.523438 C 27.097656 -0.472656 25.828125 0.0507812 24.359375 0.0507812 C 22.890625 0.0507812 21.628906 -0.472656 20.578125 -1.523438 C 19.53125 -2.574219 19.003906 -3.832031 19.003906 -5.300781 C 19.003906 -6.773438 19.53125 -8.042969 20.578125 -9.109375 C 21.628906 -10.175781 22.890625 -10.710938 24.359375 -10.710938 Z M 37.640625 -10.710938 C 39.113281 -10.710938 40.371094 -10.175781 41.421875 -9.109375 C 42.472656 -8.042969 42.996094 -6.773438 42.996094 -5.300781 C 42.996094 -3.832031 42.472656 -2.574219 41.421875 -1.523438 C 40.371094 -0.472656 39.113281 0.0507812 37.640625 0.0507812 C 36.136719 0.0507812 34.859375 -0.472656 33.808594 -1.523438 C 32.757812 -2.574219 32.234375 -3.832031 32.234375 -5.300781 C 32.234375 -6.773438 32.761719 -8.042969 33.808594 -9.109375 C 34.859375 -10.175781 36.136719 -10.710938 37.640625 -10.710938 Z M 37.640625 -10.710938 "/>
</symbol>
<symbol overflow="visible" id="glyph6221730-1">
<path style="stroke:none;" d="M 17.429688 0 L 8.085938 0 L 26.566406 -28.875 L 9.136719 -57.75 L 19.003906 -57.75 L 31.5 -36.328125 L 44.941406 -57.75 L 54.074219 -57.75 L 36.644531 -29.503906 L 54.914062 0 L 44.835938 0 L 31.5 -22.363281 Z M 17.429688 0 "/>
</symbol>
<symbol overflow="visible" id="glyph6221730-2">
<g>
</g>
</symbol>
<symbol overflow="visible" id="glyph6221730-3">
<path style="stroke:none;" d="M 49.558594 -43.785156 L 53.65625 -36.644531 L 39.796875 -28.769531 L 53.65625 -20.894531 L 49.558594 -13.753906 L 35.59375 -21.683594 L 35.59375 -5.878906 L 27.40625 -5.878906 L 27.40625 -21.683594 L 13.441406 -13.753906 L 9.34375 -20.894531 L 23.203125 -28.769531 L 9.34375 -36.644531 L 13.441406 -43.785156 L 27.40625 -35.859375 L 27.40625 -51.660156 L 35.59375 -51.660156 L 35.59375 -35.859375 Z M 49.558594 -43.785156 "/>
</symbol>
<symbol overflow="visible" id="glyph6221730-4">
<path style="stroke:none;" d="M 55.648438 -34.546875 L 7.453125 -34.546875 L 7.453125 -44.519531 L 55.648438 -44.519531 Z M 55.648438 -13.441406 L 7.453125 -13.441406 L 7.453125 -23.414062 L 55.648438 -23.414062 Z M 55.648438 -13.441406 "/>
</symbol>
<symbol overflow="visible" id="glyph6221730-5">
<path style="stroke:none;" d="M 46.515625 -57.75 L 54.914062 -57.75 L 47.933594 -35.648438 L 44.730469 -25.621094 C 43.75 -22.574219 42.402344 -17.953125 40.6875 -11.761719 C 38.378906 -3.464844 36.820312 1.75 36.015625 3.886719 C 34.195312 8.75 32.191406 12.417969 30.003906 14.882812 C 27.816406 17.351562 25.8125 18.925781 23.992188 19.609375 C 22.171875 20.292969 20.265625 20.71875 18.269531 20.894531 C 17.640625 20.929688 15.996094 20.878906 13.335938 20.738281 C 10.675781 20.597656 8.785156 20.476562 7.664062 20.371094 L 7.664062 11.761719 C 8.644531 11.9375 10.34375 12.066406 12.757812 12.152344 C 15.171875 12.242188 16.941406 12.285156 18.058594 12.285156 C 20.230469 12.285156 22.015625 11.679688 23.414062 10.472656 C 24.816406 9.265625 25.828125 7.824219 26.460938 6.140625 C 27.089844 4.460938 27.40625 2.90625 27.40625 1.46875 C 27.40625 -0.0351562 26.855469 -2.6875 25.75 -6.484375 C 24.648438 -10.28125 23.238281 -14.558594 21.523438 -19.320312 C 21.59375 -19.144531 20.210938 -23.117188 17.378906 -31.238281 C 16.992188 -32.394531 15.757812 -35.953125 13.675781 -41.921875 C 11.59375 -47.890625 9.695312 -53.164062 7.980469 -57.75 L 17.21875 -57.75 L 32.445312 -12.390625 Z M 46.515625 -57.75 "/>
</symbol>
</g>
</defs>
<g id="surface460">
<g style="fill:rgb(0%,0%,0%);fill-opacity:1;">
  <use xlink:href="#glyph6221730-1" x="119.085" y="128.875"/>
  <use xlink:href="#glyph6221730-2" x="182.085" y="128.875"/>
  <use xlink:href="#glyph6221730-3" x="245.085" y="128.875"/>
  <use xlink:href="#glyph6221730-4" x="308.085" y="128.875"/>
  <use xlink:href="#glyph6221730-2" x="371.085" y="128.875"/>
  <use xlink:href="#glyph6221730-5" x="434.085" y="128.875"/>
</g>
</g>
</svg>
