<?xml version="1.0" encoding="UTF-8"?>
<svg xmlns="http://www.w3.org/2000/svg" xmlns:xlink="http://www.w3.org/1999/xlink" width="600pt" height="200pt" viewBox="0 0 600 200" version="1.1">
<defs>
<g>
<symbol overflow="visible" id="glyph5123000-0">
<path style="stroke:none;" d="M 1.078125 5.101562 L 1.078125 -21.75 L 16.921875 -21.75 L 16.921875 5.101562 Z M 2.640625 3.539062 L 15.359375 3.539062 L 15.359375 -20.191406 L 2.640625 -20.191406 Z M 4.890625 -13.5 C 4.871094 -15.019531 5.28125 -16.011719 6.121094 -16.46875 C 6.960938 -16.929688 7.851562 -17.160156 8.789062 -17.160156 C 10.070312 -17.160156 11.058594 -16.863281 11.761719 -16.273438 C 12.460938 -15.683594 12.808594 -14.839844 12.808594 -13.738281 C 12.808594 -13.058594 12.636719 -12.453125 12.285156 -11.925781 C 11.933594 -11.394531 11.429688 -10.789062 10.769531 -10.109375 L 10.261719 -9.570312 C 9.960938 -9.332031 9.761719 -9.128906 9.660156 -8.96875 C 9.558594 -8.808594 9.511719 -8.578125 9.511719 -8.28125 L 9.511719 -7.5 L 7.800781 -7.5 L 7.800781 -8.28125 C 7.800781 -8.640625 7.808594 -8.910156 7.828125 -9.089844 C 7.847656 -9.269531 7.929688 -9.460938 8.070312 -9.660156 C 8.210938 -9.898438 8.40625 -10.144531 8.65625 -10.394531 C 8.90625 -10.644531 9.148438 -10.878906 9.390625 -11.101562 C 9.929688 -11.582031 10.324219 -12 10.574219 -12.359375 C 10.824219 -12.71875 10.949219 -13.148438 10.949219 -13.648438 C 10.949219 -14.25 10.75 -14.710938 10.351562 -15.03125 C 9.949219 -15.351562 9.371094 -15.511719 8.609375 -15.511719 C 8.089844 -15.511719 7.625 -15.351562 7.214844 -15.03125 C 6.804688 -14.710938 6.609375 -14.199219 6.628906 -13.5 Z M 10.410156 -4.890625 C 10.410156 -4.46875 10.253906 -4.109375 9.945312 -3.808594 C 9.636719 -3.507812 9.269531 -3.359375 8.851562 -3.359375 C 8.429688 -3.359375 8.070312 -3.511719 7.769531 -3.808594 C 7.46875 -4.109375 7.320312 -4.46875 7.320312 -4.890625 C 7.320312 -5.148438 7.378906 -5.378906 7.5 -5.578125 C 7.558594 -5.839844 7.671875 -6.03125 7.828125 -6.148438 C 7.988281 -6.269531 8.210938 -6.351562 8.488281 -6.390625 C 8.570312 -6.410156 8.691406 -6.421875 8.851562 -6.421875 C 9.269531 -6.421875 9.636719 -6.269531 9.945312 -5.96875 C 10.253906 -5.667969 10.410156 -5.308594 10.410156 -4.890625 Z M 6.960938 -3.058594 C 7.378906 -3.058594 7.738281 -2.910156 8.039062 -2.609375 C 8.339844 -2.308594 8.488281 -1.949219 8.488281 -1.53125 C 8.488281 -1.089844 8.339844 -0.71875 8.039062 -0.421875 C 7.738281 -0.121094 7.378906 0.03125 6.960938 0.03125 C 6.539062 0.03125 6.179688 -0.121094 5.878906 -0.421875 C 5.578125 -0.71875 5.429688 -1.089844 5.429688 -1.53125 C 5.429688 -1.949219 5.578125 -2.308594 5.878906 -2.609375 C 6.179688 -2.910156 6.539062 -3.058594 6.960938 -3.058594 Z M 10.738281 -3.058594 C 11.160156 -3.058594 11.523438 -2.910156 11.835938 -2.609375 C 12.144531 -2.308594 12.300781 -1.949219 12.300781 -1.53125 C 12.300781 -1.089844 12.144531 -0.71875 11.835938 -0.421875 C 11.523438 -0.121094 11.160156 0.03125 10.738281 0.03125 C 10.320312 0.03125 9.960938 -0.121094 9.660156 -0.421875 C 9.359375 -0.71875 9.210938 -1.089844 9.210938 -1.53125 C 9.210938 -1.949219 9.359375 -2.308594 9.660156 -2.609375 C 9.960938 -2.910156 10.320312 -3.058594 10.738281 -3.058594 Z M 10.738281 -3.058594 "/>
</symbol>
<symbol overflow="visible" id="glyph5123000-1">
<path style="stroke:none;" d="M 11.671875 -9.628906 L 16.621094 -9.628906 L 16.621094 -6.839844 L 11.550781 -6.839844 L 14.308594 -2.609375 L 11.910156 -1.078125 L 9 -5.550781 L 6.089844 -1.078125 L 3.691406 -2.609375 L 6.480469 -6.839844 L 1.378906 -6.839844 L 1.378906 -9.628906 L 6.359375 -9.628906 L 3.601562 -13.890625 L 5.910156 -15.421875 L 9 -10.679688 L 12.121094 -15.421875 L 14.429688 -13.890625 Z M 11.671875 -9.628906 "/>
</symbol>
<symbol overflow="visible" id="glyph5123000-2">
<g>
</g>
</symbol>
<symbol overflow="visible" id="glyph5123000-3">
<path style="stroke:none;" d="M 13.738281 -16.769531 C 14.199219 -16.769531 14.628906 -16.609375 15.03125 -16.289062 L 15.03125 -14.398438 C 14.589844 -14.078125 14.160156 -13.921875 13.738281 -13.921875 C 13.339844 -13.921875 12.898438 -14.078125 12.421875 -14.398438 L 10.078125 -14.398438 L 9.480469 0 L 8.519531 0 L 7.921875 -14.398438 L 5.578125 -14.398438 C 5.140625 -14.078125 4.710938 -13.921875 4.289062 -13.921875 C 3.890625 -13.921875 3.449219 -14.078125 2.96875 -14.398438 L 2.96875 -16.289062 C 3.410156 -16.609375 3.851562 -16.769531 4.289062 -16.769531 C 4.75 -16.769531 5.179688 -16.609375 5.578125 -16.289062 L 8.25 -16.289062 L 7.921875 -21.570312 L 8.609375 -21.570312 C 8.328125 -21.671875 8.101562 -21.835938 7.921875 -22.066406 C 7.742188 -22.296875 7.648438 -22.558594 7.648438 -22.859375 C 7.648438 -23.21875 7.78125 -23.53125 8.039062 -23.789062 C 8.300781 -24.050781 8.621094 -24.179688 9 -24.179688 C 9.359375 -24.179688 9.671875 -24.050781 9.929688 -23.789062 C 10.191406 -23.53125 10.320312 -23.21875 10.320312 -22.859375 C 10.320312 -22.558594 10.234375 -22.296875 10.066406 -22.066406 C 9.894531 -21.835938 9.671875 -21.671875 9.390625 -21.570312 L 10.078125 -21.570312 L 9.75 -16.289062 L 12.421875 -16.289062 C 12.859375 -16.609375 13.300781 -16.769531 13.738281 -16.769531 Z M 13.738281 -16.769531 "/>
</symbol>
<symbol overflow="visible" id="glyph5123000-4">
<path style="stroke:none;" d="M 13.738281 -17.070312 C 14.199219 -17.070312 14.628906 -16.910156 15.03125 -16.589844 L 15.03125 -14.699219 C 14.589844 -14.378906 14.160156 -14.21875 13.738281 -14.21875 C 13.339844 -14.21875 12.898438 -14.378906 12.421875 -14.699219 L 10.050781 -14.699219 L 9.808594 -11.550781 L 12.210938 -11.550781 L 12.210938 -10.140625 L 9.808594 -10.140625 L 9.480469 0 L 8.519531 0 L 8.128906 -10.140625 L 5.609375 -10.140625 L 5.609375 -11.550781 L 8.191406 -11.550781 L 7.949219 -14.699219 L 5.578125 -14.699219 C 5.140625 -14.378906 4.710938 -14.21875 4.289062 -14.21875 C 3.890625 -14.21875 3.449219 -14.378906 2.96875 -14.699219 L 2.96875 -16.589844 C 3.410156 -16.910156 3.851562 -17.070312 4.289062 -17.070312 C 4.75 -17.070312 5.179688 -16.910156 5.578125 -16.589844 L 8.308594 -16.589844 L 7.921875 -21.570312 L 8.371094 -21.570312 C 8.070312 -21.691406 7.828125 -21.886719 7.648438 -22.15625 C 7.46875 -22.425781 7.378906 -22.730469 7.378906 -23.070312 C 7.378906 -23.511719 7.539062 -23.886719 7.859375 -24.195312 C 8.179688 -24.503906 8.558594 -24.660156 9 -24.660156 C 9.441406 -24.660156 9.816406 -24.503906 10.125 -24.195312 C 10.433594 -23.886719 10.589844 -23.511719 10.589844 -23.070312 C 10.589844 -22.730469 10.5 -22.425781 10.320312 -22.15625 C 10.140625 -21.886719 9.898438 -21.691406 9.601562 -21.570312 L 10.078125 -21.570312 L 9.691406 -16.589844 L 12.421875 -16.589844 C 12.859375 -16.910156 13.300781 -17.070312 13.738281 -17.070312 Z M 13.738281 -17.070312 "/>
</symbol>
<symbol overflow="visible" id="glyph5123000-5">
<path style="stroke:none;" d="M 8.429688 0.300781 C 7.011719 0.300781 5.621094 0.0703125 4.261719 -0.390625 L 4.261719 -2.339844 C 4.859375 -2.101562 5.433594 -1.929688 5.984375 -1.828125 C 6.535156 -1.730469 7.148438 -1.679688 7.828125 -1.679688 C 8.789062 -1.679688 9.628906 -1.863281 10.351562 -2.234375 C 11.070312 -2.605469 11.429688 -3.230469 11.429688 -4.109375 C 11.429688 -4.75 11.136719 -5.253906 10.546875 -5.625 C 9.957031 -5.996094 9.363281 -6.28125 8.773438 -6.480469 C 8.183594 -6.679688 7.808594 -6.808594 7.648438 -6.871094 C 6.449219 -7.289062 5.515625 -7.769531 4.84375 -8.308594 C 4.175781 -8.847656 3.839844 -9.621094 3.839844 -10.621094 C 3.839844 -11.539062 4.109375 -12.304688 4.648438 -12.914062 C 5.191406 -13.523438 5.929688 -14.070312 6.871094 -14.550781 C 5.128906 -15.371094 4.261719 -16.570312 4.261719 -18.148438 C 4.261719 -19.507812 4.753906 -20.511719 5.746094 -21.148438 C 6.734375 -21.789062 7.921875 -22.109375 9.300781 -22.109375 C 10.300781 -22.109375 11.511719 -21.949219 12.929688 -21.628906 L 12.929688 -19.648438 C 11.910156 -19.988281 10.828125 -20.160156 9.691406 -20.160156 C 8.96875 -20.160156 8.324219 -19.996094 7.753906 -19.664062 C 7.183594 -19.335938 6.898438 -18.820312 6.898438 -18.121094 C 6.898438 -17.679688 7.09375 -17.285156 7.484375 -16.933594 C 7.875 -16.585938 8.238281 -16.328125 8.578125 -16.171875 C 8.917969 -16.011719 9.539062 -15.75 10.441406 -15.390625 C 11.601562 -14.910156 12.496094 -14.40625 13.125 -13.875 C 13.753906 -13.34375 14.070312 -12.621094 14.070312 -11.699219 C 14.070312 -10.839844 13.800781 -10.089844 13.261719 -9.449219 C 12.71875 -8.808594 12.039062 -8.300781 11.21875 -7.921875 C 12.160156 -7.5 12.886719 -7.015625 13.394531 -6.464844 C 13.90625 -5.914062 14.160156 -5.160156 14.160156 -4.199219 C 14.160156 -3.179688 13.875 -2.328125 13.304688 -1.648438 C 12.734375 -0.96875 12.015625 -0.476562 11.144531 -0.164062 C 10.273438 0.144531 9.371094 0.300781 8.429688 0.300781 Z M 9.210938 -8.578125 C 9.871094 -8.917969 10.421875 -9.300781 10.859375 -9.71875 C 11.300781 -10.140625 11.519531 -10.628906 11.519531 -11.191406 C 11.519531 -11.789062 11.238281 -12.296875 10.679688 -12.703125 C 10.121094 -13.113281 9.429688 -13.488281 8.609375 -13.828125 C 7.089844 -13.070312 6.328125 -12.191406 6.328125 -11.191406 C 6.328125 -10.710938 6.480469 -10.304688 6.78125 -9.976562 C 7.082031 -9.644531 7.398438 -9.394531 7.738281 -9.226562 C 8.078125 -9.054688 8.570312 -8.839844 9.210938 -8.578125 Z M 9.210938 -8.578125 "/>
</symbol>
<symbol overflow="visible" id="glyph5123000-6">
<path style="stroke:none;" d="M 7.351562 6 L 7.351562 -24.601562 L 10.5 -24.601562 L 10.5 6 Z M 7.351562 6 "/>
</symbol>
<symbol overflow="visible" id="glyph5123000-7">
<path style="stroke:none;" d="M 16.828125 -15.539062 L 16.289062 -13.46875 L 13.46875 -13.46875 L 12.539062 -8.460938 L 15.421875 -8.460938 L 15.03125 -6.390625 L 12.148438 -6.390625 L 10.921875 0 L 8.699219 0 L 9.929688 -6.390625 L 6.480469 -6.390625 L 5.25 0 L 3.03125 0 L 4.261719 -6.390625 L 1.140625 -6.390625 L 1.53125 -8.460938 L 4.648438 -8.460938 L 5.578125 -13.46875 L 2.488281 -13.46875 L 2.851562 -15.539062 L 6 -15.539062 L 7.171875 -21.75 L 9.390625 -21.75 L 8.21875 -15.539062 L 11.671875 -15.539062 L 12.839844 -21.75 L 15.058594 -21.75 L 13.890625 -15.539062 Z M 6.871094 -8.460938 L 10.320312 -8.460938 L 11.25 -13.46875 L 7.800781 -13.46875 Z M 6.871094 -8.460938 "/>
</symbol>
</g>
</defs>
<g id="surface3313">
<g style="fill:rgb(0%,0%,0%);fill-opacity:1;">
  <use xlink:href="#glyph5123000-1" x="-102.824219" y="112.328125"/>
  <use xlink:href="#glyph5123000-2" x="-84.824219" y="112.328125"/>
  <use xlink:href="#glyph5123000-3" x="-66.824219" y="112.328125"/>
  <use xlink:href="#glyph5123000-2" x="-48.824219" y="112.328125"/>
  <use xlink:href="#glyph5123000-4" x="-30.824219" y="112.328125"/>
  <use xlink:href="#glyph5123000-2" x="-12.824219" y="112.328125"/>
  <use xlink:href="#glyph5123000-5" x="5.175781" y="112.328125"/>
  <use xlink:href="#glyph5123000-2" x="23.175781" y="112.328125"/>
  <use xlink:href="#glyph5123000-6" x="41.175781" y="112.328125"/>
  <use xlink:href="#glyph5123000-6" x="59.175781" y="112.328125"/>
  <use xlink:href="#glyph5123000-2" x="77.175781" y="112.328125"/>
  <use xlink:href="#glyph5123000-7" x="95.175781" y="112.328125"/>
  <use xlink:href="#glyph5123000-2" x="113.175781" y="112.328125"/>
  <use xlink:href="#glyph5123000-1" x="131.175781" y="112.328125"/>
  <use xlink:href="#glyph5123000-1" x="149.175781" y="112.328125"/>
  <use xlink:href="#glyph5123000-2" x="167.175781" y="112.328125"/>
  <use xlink:href="#glyph5123000-3" x="185.175781" y="112.328125"/>
  <use xlink:href="#glyph5123000-3" x="203.175781" y="112.328125"/>
  <use xlink:href="#glyph5123000-2" x="221.175781" y="112.328125"/>
  <use xlink:href="#glyph5123000-4" x="239.175781" y="112.328125"/>
  <use xlink:href="#glyph5123000-4" x="257.175781" y="112.328125"/>
  <use xlink:href="#glyph5123000-2" x="275.175781" y="112.328125"/>
  <use xlink:href="#glyph5123000-5" x="293.175781" y="112.328125"/>
  <use xlink:href="#glyph5123000-5" x="311.175781" y="112.328125"/>
  <use xlink:href="#glyph5123000-2" x="329.175781" y="112.328125"/>
  <use xlink:href="#glyph5123000-6" x="347.175781" y="112.328125"/>
  <use xlink:href="#glyph5123000-6" x="365.175781" y="112.328125"/>
  <use xlink:href="#glyph5123000-6" x="383.175781" y="112.328125"/>
  <use xlink:href="#glyph5123000-6" x="401.175781" y="112.328125"/>
  <use xlink:href="#glyph5123000-2" x="419.175781" y="112.328125"/>
  <use xlink:href="#glyph5123000-7" x="437.175781" y="112.328125"/>
  <use xlink:href="#glyph5123000-7" x="455.175781" y="112.328125"/>
  <use xlink:href="#glyph5123000-7" x="473.175781" y="112.328125"/>
  <use xlink:href="#glyph5123000-2" x="491.175781" y="112.328125"/>
  <use xlink:href="#glyph5123000-1" x="509.175781" y="112.328125"/>
  <use xlink:href="#glyph5123000-1" x="527.175781" y="112.328125"/>
  <use xlink:href="#glyph5123000-1" x="545.175781" y="112.328125"/>
  <use xlink:href="#glyph5123000-2" x="563.175781" y="112.328125"/>
  <use xlink:href="#glyph5123000-3" x="581.175781" y="112.328125"/>
  <use xlink:href="#glyph5123000-3" x="599.175781" y="112.328125"/>
  <use xlink:href="#glyph5123000-3" x="617.175781" y="112.328125"/>
  <use xlink:href="#glyph5123000-2" x="635.175781" y="112.328125"/>
  <use xlink:href="#glyph5123000-4" x="653.175781" y="112.328125"/>
  <use xlink:href="#glyph5123000-4" x="671.175781" y="112.328125"/>
  <use xlink:href="#glyph5123000-4" x="689.175781" y="112.328125"/>
  <use xlink:href="#glyph5123000-2" x="707.175781" y="112.328125"/>
</g>
</g>
</svg>
