<?xml version="1.0" encoding="UTF-8"?>
<svg xmlns="http://www.w3.org/2000/svg" xmlns:xlink="http://www.w3.org/1999/xlink" width="600pt" height="120pt" viewBox="0 0 600 120" version="1.1">
<defs>
<g>
<symbol overflow="visible" id="glyph0-0">
<path style="stroke:none;" d="M 3.601562 17 L 3.601562 -72.5 L 56.398438 -72.5 L 56.398438 17 Z M 8.800781 11.800781 L 51.199219 11.800781 L 51.199219 -67.300781 L 8.800781 -67.300781 Z M 16.300781 -45 C 16.234375 -50.066406 17.601562 -53.367188 20.398438 -54.898438 C 23.199219 -56.433594 26.167969 -57.199219 29.300781 -57.199219 C 33.566406 -57.199219 36.867188 -56.214844 39.199219 -54.25 C 41.53125 -52.285156 42.699219 -49.464844 42.699219 -45.800781 C 42.699219 -43.535156 42.117188 -41.515625 40.949219 -39.75 C 39.78125 -37.984375 38.101562 -35.964844 35.898438 -33.699219 L 34.199219 -31.898438 C 33.199219 -31.097656 32.535156 -30.433594 32.199219 -29.898438 C 31.867188 -29.367188 31.699219 -28.601562 31.699219 -27.601562 L 31.699219 -25 L 26 -25 L 26 -27.601562 C 26 -28.800781 26.035156 -29.699219 26.101562 -30.300781 C 26.167969 -30.898438 26.433594 -31.535156 26.898438 -32.199219 C 27.367188 -33 28.015625 -33.816406 28.851562 -34.648438 C 29.683594 -35.484375 30.5 -36.265625 31.300781 -37 C 33.101562 -38.601562 34.417969 -40 35.25 -41.199219 C 36.082031 -42.398438 36.5 -43.832031 36.5 -45.5 C 36.5 -47.5 35.832031 -49.035156 34.5 -50.101562 C 33.167969 -51.167969 31.234375 -51.699219 28.699219 -51.699219 C 26.964844 -51.699219 25.417969 -51.167969 24.050781 -50.101562 C 22.683594 -49.035156 22.035156 -47.332031 22.101562 -45 Z M 34.699219 -16.300781 C 34.699219 -14.898438 34.183594 -13.699219 33.148438 -12.699219 C 32.117188 -11.699219 30.898438 -11.199219 29.5 -11.199219 C 28.101562 -11.199219 26.898438 -11.699219 25.898438 -12.699219 C 24.898438 -13.699219 24.398438 -14.898438 24.398438 -16.300781 C 24.398438 -17.167969 24.601562 -17.933594 25 -18.601562 C 25.199219 -19.46875 25.566406 -20.101562 26.101562 -20.5 C 26.632812 -20.898438 27.367188 -21.167969 28.300781 -21.300781 C 28.566406 -21.367188 28.964844 -21.398438 29.5 -21.398438 C 30.898438 -21.398438 32.117188 -20.898438 33.148438 -19.898438 C 34.183594 -18.898438 34.699219 -17.699219 34.699219 -16.300781 Z M 23.199219 -10.199219 C 24.601562 -10.199219 25.800781 -9.699219 26.800781 -8.699219 C 27.800781 -7.699219 28.300781 -6.5 28.300781 -5.101562 C 28.300781 -3.632812 27.800781 -2.398438 26.800781 -1.398438 C 25.800781 -0.398438 24.601562 0.101562 23.199219 0.101562 C 21.800781 0.101562 20.601562 -0.398438 19.601562 -1.398438 C 18.601562 -2.398438 18.101562 -3.632812 18.101562 -5.101562 C 18.101562 -6.5 18.601562 -7.699219 19.601562 -8.699219 C 20.601562 -9.699219 21.800781 -10.199219 23.199219 -10.199219 Z M 35.800781 -10.199219 C 37.199219 -10.199219 38.417969 -9.699219 39.449219 -8.699219 C 40.484375 -7.699219 41 -6.5 41 -5.101562 C 41 -3.632812 40.484375 -2.398438 39.449219 -1.398438 C 38.417969 -0.398438 37.199219 0.101562 35.800781 0.101562 C 34.398438 0.101562 33.199219 -0.398438 32.199219 -1.398438 C 31.199219 -2.398438 30.699219 -3.632812 30.699219 -5.101562 C 30.699219 -6.5 31.199219 -7.699219 32.199219 -8.699219 C 33.199219 -9.699219 34.398438 -10.199219 35.800781 -10.199219 Z M 35.800781 -10.199219 "/>
</symbol>
<symbol overflow="visible" id="glyph0-1">
<path style="stroke:none;" d="M 48.300781 -46.199219 L 50.699219 -43.699219 L 32.5 -25.5 L 50.699219 -7.199219 L 48.300781 -4.699219 L 30 -23 L 11.800781 -4.699219 L 9.300781 -7.199219 L 27.601562 -25.5 L 9.300781 -43.699219 L 11.800781 -46.199219 L 30 -27.898438 Z M 48.300781 -46.199219 "/>
</symbol>
<symbol overflow="visible" id="glyph0-2">
<path style="stroke:none;" d="M 44.199219 -50.101562 L 54.800781 -39.5 L 40.699219 -25.398438 L 54.800781 -11.300781 L 44.199219 -0.699219 L 30.101562 -14.800781 L 15.898438 -0.601562 L 5.300781 -11.199219 L 19.5 -25.398438 L 5.300781 -39.601562 L 15.898438 -50.300781 L 30.101562 -36 Z M 44.199219 -50.101562 "/>
</symbol>
<symbol overflow="visible" id="glyph1-0">
<path style="stroke:none;" d="M 0.359375 1.699219 L 0.359375 -7.25 L 5.640625 -7.25 L 5.640625 1.699219 Z M 0.878906 1.179688 L 5.121094 1.179688 L 5.121094 -6.730469 L 0.878906 -6.730469 Z M 1.628906 -4.5 C 1.621094 -5.007812 1.761719 -5.335938 2.039062 -5.488281 C 2.320312 -5.644531 2.617188 -5.71875 2.929688 -5.71875 C 3.355469 -5.71875 3.6875 -5.621094 3.921875 -5.425781 C 4.152344 -5.230469 4.269531 -4.945312 4.269531 -4.578125 C 4.269531 -4.351562 4.210938 -4.152344 4.09375 -3.976562 C 3.976562 -3.800781 3.808594 -3.597656 3.589844 -3.371094 L 3.421875 -3.191406 C 3.320312 -3.109375 3.253906 -3.042969 3.21875 -2.988281 C 3.1875 -2.9375 3.171875 -2.859375 3.171875 -2.761719 L 3.171875 -2.5 L 2.601562 -2.5 L 2.601562 -2.761719 C 2.601562 -2.878906 2.601562 -2.96875 2.609375 -3.03125 C 2.617188 -3.089844 2.644531 -3.152344 2.691406 -3.21875 C 2.738281 -3.300781 2.800781 -3.382812 2.886719 -3.464844 C 2.96875 -3.546875 3.050781 -3.625 3.128906 -3.699219 C 3.308594 -3.859375 3.441406 -4 3.523438 -4.121094 C 3.609375 -4.242188 3.648438 -4.382812 3.648438 -4.550781 C 3.648438 -4.75 3.582031 -4.902344 3.449219 -5.011719 C 3.316406 -5.117188 3.125 -5.171875 2.871094 -5.171875 C 2.695312 -5.171875 2.542969 -5.117188 2.40625 -5.011719 C 2.269531 -4.902344 2.203125 -4.734375 2.210938 -4.5 Z M 3.46875 -1.628906 C 3.46875 -1.488281 3.417969 -1.371094 3.316406 -1.269531 C 3.210938 -1.167969 3.089844 -1.121094 2.949219 -1.121094 C 2.808594 -1.121094 2.691406 -1.171875 2.589844 -1.269531 C 2.488281 -1.371094 2.441406 -1.488281 2.441406 -1.628906 C 2.441406 -1.714844 2.460938 -1.792969 2.5 -1.859375 C 2.519531 -1.945312 2.558594 -2.011719 2.609375 -2.050781 C 2.664062 -2.089844 2.738281 -2.117188 2.828125 -2.128906 C 2.855469 -2.136719 2.898438 -2.140625 2.949219 -2.140625 C 3.089844 -2.140625 3.210938 -2.089844 3.316406 -1.988281 C 3.417969 -1.890625 3.46875 -1.769531 3.46875 -1.628906 Z M 2.320312 -1.019531 C 2.460938 -1.019531 2.578125 -0.96875 2.679688 -0.871094 C 2.78125 -0.769531 2.828125 -0.648438 2.828125 -0.511719 C 2.828125 -0.363281 2.78125 -0.238281 2.679688 -0.140625 C 2.578125 -0.0390625 2.460938 0.0117188 2.320312 0.0117188 C 2.179688 0.0117188 2.058594 -0.0390625 1.960938 -0.140625 C 1.859375 -0.238281 1.808594 -0.363281 1.808594 -0.511719 C 1.808594 -0.652344 1.859375 -0.769531 1.960938 -0.871094 C 2.058594 -0.96875 2.179688 -1.019531 2.320312 -1.019531 Z M 3.578125 -1.019531 C 3.71875 -1.019531 3.839844 -0.96875 3.945312 -0.871094 C 4.046875 -0.769531 4.101562 -0.648438 4.101562 -0.511719 C 4.101562 -0.363281 4.046875 -0.238281 3.945312 -0.140625 C 3.839844 -0.0390625 3.71875 0.0117188 3.578125 0.0117188 C 3.4375 0.0117188 3.320312 -0.0390625 3.21875 -0.140625 C 3.121094 -0.238281 3.070312 -0.363281 3.070312 -0.511719 C 3.070312 -0.652344 3.121094 -0.769531 3.21875 -0.871094 C 3.320312 -0.96875 3.441406 -1.019531 3.578125 -1.019531 Z M 3.578125 -1.019531 "/>
</symbol>
<symbol overflow="visible" id="glyph1-1">
<path style="stroke:none;" d="M 5.078125 1.898438 L 4.160156 1.898438 L 0.851562 -7.878906 L 1.78125 -7.878906 Z M 5.078125 1.898438 "/>
</symbol>
<symbol overflow="visible" id="glyph1-2">
<path style="stroke:none;" d="M 2.578125 0.0703125 C 1.960938 0.0703125 1.511719 -0.0976562 1.238281 -0.429688 C 0.964844 -0.761719 0.828125 -1.253906 0.828125 -1.898438 L 0.828125 -5.5 L 1.671875 -5.5 L 1.671875 -2.238281 C 1.671875 -1.886719 1.695312 -1.597656 1.746094 -1.371094 C 1.796875 -1.144531 1.902344 -0.960938 2.066406 -0.820312 C 2.230469 -0.679688 2.472656 -0.609375 2.800781 -0.609375 C 3.300781 -0.609375 3.671875 -0.796875 3.910156 -1.171875 C 4.148438 -1.542969 4.269531 -1.992188 4.269531 -2.519531 L 4.269531 -5.5 L 5.128906 -5.5 L 5.128906 -1.191406 C 5.128906 -0.96875 5.136719 -0.699219 5.148438 -0.378906 L 5.160156 0 L 4.371094 0 L 4.328125 -0.730469 C 3.960938 -0.195312 3.378906 0.0703125 2.578125 0.0703125 Z M 2.578125 0.0703125 "/>
</symbol>
<symbol overflow="visible" id="glyph1-3">
<path style="stroke:none;" d="M 0.960938 0 L 0.960938 -0.738281 L 2.730469 -0.738281 L 2.730469 -5.949219 C 2.457031 -5.675781 2.136719 -5.410156 1.765625 -5.148438 C 1.394531 -4.890625 1.074219 -4.722656 0.800781 -4.648438 L 0.800781 -5.5 C 1.132812 -5.640625 1.492188 -5.886719 1.878906 -6.238281 C 2.265625 -6.59375 2.585938 -6.929688 2.839844 -7.25 L 3.570312 -7.25 L 3.570312 -0.738281 L 5.210938 -0.738281 L 5.210938 0 Z M 0.960938 0 "/>
</symbol>
<symbol overflow="visible" id="glyph1-4">
<path style="stroke:none;" d="M 2.441406 0 L 2.441406 -4.441406 L 0.988281 -4.441406 L 0.988281 -5.171875 L 2.441406 -5.171875 L 2.441406 -6.101562 C 2.441406 -6.773438 2.601562 -7.242188 2.921875 -7.503906 C 3.242188 -7.769531 3.714844 -7.898438 4.339844 -7.898438 C 4.761719 -7.898438 5.117188 -7.886719 5.410156 -7.859375 L 5.410156 -7.078125 C 5.089844 -7.105469 4.785156 -7.121094 4.488281 -7.121094 C 4.089844 -7.121094 3.789062 -7.058594 3.585938 -6.933594 C 3.382812 -6.8125 3.28125 -6.5625 3.28125 -6.191406 L 3.28125 -5.171875 L 4.929688 -5.171875 L 4.929688 -4.441406 L 3.28125 -4.441406 L 3.28125 0 Z M 2.441406 0 "/>
</symbol>
<symbol overflow="visible" id="glyph1-5">
<path style="stroke:none;" d="M 2.339844 0 L 1.371094 0 L 4.300781 -6.429688 L 0.890625 -6.429688 L 0.890625 -7.25 L 5.269531 -7.25 L 5.269531 -6.441406 Z M 2.339844 0 "/>
</symbol>
<symbol overflow="visible" id="glyph1-6">
<path style="stroke:none;" d="M 2.429688 0.101562 C 1.898438 0.101562 1.476562 -0.0273438 1.164062 -0.285156 C 0.855469 -0.542969 0.699219 -0.917969 0.699219 -1.410156 C 0.699219 -2.128906 0.992188 -2.625 1.578125 -2.890625 C 2.167969 -3.15625 2.867188 -3.289062 3.679688 -3.289062 L 4.261719 -3.289062 L 4.261719 -3.558594 C 4.261719 -3.898438 4.183594 -4.203125 4.035156 -4.476562 C 3.886719 -4.746094 3.539062 -4.878906 3 -4.878906 C 2.734375 -4.878906 2.488281 -4.828125 2.265625 -4.726562 C 2.042969 -4.621094 1.753906 -4.464844 1.398438 -4.261719 L 1.011719 -4.871094 C 1.34375 -5.082031 1.660156 -5.253906 1.964844 -5.386719 C 2.269531 -5.515625 2.621094 -5.578125 3.019531 -5.578125 C 3.875 -5.578125 4.429688 -5.359375 4.691406 -4.914062 C 4.949219 -4.472656 5.078125 -3.988281 5.078125 -3.46875 L 5.078125 -1.550781 C 5.078125 -1.078125 5.109375 -0.558594 5.171875 0 L 4.371094 0 L 4.320312 -0.75 C 4.148438 -0.457031 3.886719 -0.242188 3.539062 -0.105469 C 3.191406 0.03125 2.824219 0.101562 2.429688 0.101562 Z M 2.648438 -0.558594 C 3.210938 -0.558594 3.617188 -0.746094 3.875 -1.113281 C 4.132812 -1.484375 4.261719 -1.980469 4.261719 -2.601562 C 4.027344 -2.613281 3.847656 -2.621094 3.71875 -2.621094 C 2.960938 -2.621094 2.40625 -2.53125 2.054688 -2.351562 C 1.703125 -2.171875 1.53125 -1.878906 1.53125 -1.480469 C 1.53125 -1.167969 1.628906 -0.933594 1.824219 -0.785156 C 2.019531 -0.636719 2.296875 -0.558594 2.648438 -0.558594 Z M 2.648438 -0.558594 "/>
</symbol>
<symbol overflow="visible" id="glyph1-7">
<path style="stroke:none;" d="M 4.140625 -3.839844 C 4.507812 -3.679688 4.804688 -3.445312 5.035156 -3.140625 C 5.265625 -2.832031 5.378906 -2.476562 5.378906 -2.070312 C 5.378906 -1.578125 5.269531 -1.171875 5.050781 -0.851562 C 4.832031 -0.53125 4.539062 -0.296875 4.179688 -0.148438 C 3.820312 -0.00390625 3.429688 0.0703125 3.011719 0.0703125 C 2.582031 0.0703125 2.191406 0 1.828125 -0.144531 C 1.46875 -0.289062 1.179688 -0.511719 0.960938 -0.820312 C 0.742188 -1.125 0.628906 -1.511719 0.628906 -1.980469 C 0.628906 -2.425781 0.742188 -2.8125 0.96875 -3.136719 C 1.195312 -3.457031 1.488281 -3.691406 1.851562 -3.828125 C 1.25 -4.15625 0.949219 -4.699219 0.949219 -5.460938 C 0.949219 -5.875 1.050781 -6.222656 1.25 -6.503906 C 1.449219 -6.789062 1.707031 -7 2.019531 -7.140625 C 2.332031 -7.28125 2.664062 -7.351562 3.011719 -7.351562 C 3.378906 -7.351562 3.71875 -7.285156 4.035156 -7.148438 C 4.351562 -7.015625 4.605469 -6.8125 4.796875 -6.539062 C 4.984375 -6.265625 5.078125 -5.929688 5.078125 -5.53125 C 5.078125 -5.136719 4.996094 -4.792969 4.828125 -4.5 C 4.664062 -4.207031 4.433594 -3.988281 4.140625 -3.839844 Z M 3.011719 -6.671875 C 2.609375 -6.671875 2.300781 -6.558594 2.078125 -6.339844 C 1.859375 -6.121094 1.75 -5.816406 1.75 -5.429688 C 1.75 -5.082031 1.859375 -4.8125 2.074219 -4.621094 C 2.292969 -4.425781 2.601562 -4.328125 3.011719 -4.328125 C 3.402344 -4.328125 3.714844 -4.429688 3.941406 -4.628906 C 4.167969 -4.828125 4.28125 -5.101562 4.28125 -5.449219 C 4.28125 -5.828125 4.171875 -6.128906 3.949219 -6.34375 C 3.730469 -6.5625 3.417969 -6.671875 3.011719 -6.671875 Z M 3.011719 -0.648438 C 3.425781 -0.648438 3.773438 -0.773438 4.066406 -1.023438 C 4.355469 -1.273438 4.5 -1.625 4.5 -2.070312 C 4.5 -2.523438 4.359375 -2.867188 4.074219 -3.105469 C 3.792969 -3.34375 3.4375 -3.460938 3.011719 -3.460938 C 2.582031 -3.460938 2.226562 -3.335938 1.941406 -3.089844 C 1.652344 -2.84375 1.511719 -2.496094 1.511719 -2.050781 C 1.511719 -1.609375 1.652344 -1.265625 1.941406 -1.019531 C 2.226562 -0.773438 2.582031 -0.648438 3.011719 -0.648438 Z M 3.011719 -0.648438 "/>
</symbol>
<symbol overflow="visible" id="glyph1-8">
<path style="stroke:none;" d="M 2.699219 0.0585938 C 2.234375 0.0585938 1.839844 -0.078125 1.523438 -0.355469 C 1.207031 -0.632812 0.976562 -0.988281 0.824219 -1.429688 C 0.675781 -1.871094 0.601562 -2.332031 0.601562 -2.820312 C 0.601562 -3.285156 0.675781 -3.730469 0.828125 -4.148438 C 0.984375 -4.570312 1.214844 -4.910156 1.523438 -5.175781 C 1.835938 -5.4375 2.214844 -5.570312 2.671875 -5.570312 C 3.050781 -5.570312 3.363281 -5.507812 3.613281 -5.386719 C 3.863281 -5.261719 4.078125 -5.046875 4.25 -4.738281 L 4.25 -7.898438 L 5.089844 -7.898438 L 5.089844 -1.199219 C 5.089844 -1.03125 5.097656 -0.777344 5.109375 -0.429688 L 5.121094 0 L 4.351562 0 L 4.25 -0.738281 C 4.042969 -0.445312 3.824219 -0.238281 3.589844 -0.121094 C 3.355469 0 3.058594 0.0585938 2.699219 0.0585938 Z M 2.910156 -0.589844 C 3.390625 -0.589844 3.734375 -0.8125 3.941406 -1.261719 C 4.148438 -1.707031 4.25 -2.214844 4.25 -2.78125 C 4.25 -3.339844 4.132812 -3.832031 3.894531 -4.253906 C 3.65625 -4.679688 3.292969 -4.890625 2.800781 -4.890625 C 2.492188 -4.890625 2.238281 -4.785156 2.035156 -4.570312 C 1.832031 -4.355469 1.679688 -4.089844 1.578125 -3.769531 C 1.480469 -3.449219 1.429688 -3.125 1.429688 -2.800781 C 1.429688 -2.453125 1.484375 -2.109375 1.59375 -1.769531 C 1.703125 -1.429688 1.871094 -1.148438 2.09375 -0.925781 C 2.316406 -0.703125 2.589844 -0.589844 2.910156 -0.589844 Z M 2.910156 -0.589844 "/>
</symbol>
</g>
</defs>
<g id="surface6027">
<g style="fill:rgb(0%,0%,0%);fill-opacity:1;">
  <use xlink:href="#glyph0-1" x="134.300781" y="83.101562"/>
</g>
<g style="fill:rgb(52.941176%,80.784314%,92.156863%);fill-opacity:1;">
  <use xlink:href="#glyph1-1" x="134.734375" y="120"/>
  <use xlink:href="#glyph1-2" x="140.734375" y="120"/>
  <use xlink:href="#glyph1-3" x="146.734375" y="120"/>
  <use xlink:href="#glyph1-4" x="152.734375" y="120"/>
  <use xlink:href="#glyph1-5" x="158.734375" y="120"/>
  <use xlink:href="#glyph1-6" x="164.734375" y="120"/>
  <use xlink:href="#glyph1-7" x="170.734375" y="120"/>
</g>
<g style="fill:rgb(0%,0%,0%);fill-opacity:1;">
  <use xlink:href="#glyph0-2" x="420.25" y="85.148438"/>
</g>
<g style="fill:rgb(52.941176%,80.784314%,92.156863%);fill-opacity:1;">
  <use xlink:href="#glyph1-1" x="424.863281" y="120"/>
  <use xlink:href="#glyph1-2" x="430.863281" y="120"/>
  <use xlink:href="#glyph1-3" x="436.863281" y="120"/>
  <use xlink:href="#glyph1-4" x="442.863281" y="120"/>
  <use xlink:href="#glyph1-5" x="448.863281" y="120"/>
  <use xlink:href="#glyph1-6" x="454.863281" y="120"/>
  <use xlink:href="#glyph1-8" x="460.863281" y="120"/>
</g>
</g>
</svg>
