<?xml version="1.0" encoding="UTF-8"?>
<svg xmlns="http://www.w3.org/2000/svg" xmlns:xlink="http://www.w3.org/1999/xlink" width="600pt" height="120pt" viewBox="0 0 600 120" version="1.1">
<defs>
<g>
<symbol overflow="visible" id="glyph1994100-0">
<path style="stroke:none;" d="M 3.601562 17 L 3.601562 -72.5 L 56.398438 -72.5 L 56.398438 17 Z M 8.800781 11.800781 L 51.199219 11.800781 L 51.199219 -67.300781 L 8.800781 -67.300781 Z M 16.300781 -45 C 16.234375 -50.066406 17.601562 -53.367188 20.398438 -54.898438 C 23.199219 -56.433594 26.167969 -57.199219 29.300781 -57.199219 C 33.566406 -57.199219 36.867188 -56.214844 39.199219 -54.25 C 41.53125 -52.285156 42.699219 -49.464844 42.699219 -45.800781 C 42.699219 -43.535156 42.117188 -41.515625 40.949219 -39.75 C 39.78125 -37.984375 38.101562 -35.964844 35.898438 -33.699219 L 34.199219 -31.898438 C 33.199219 -31.097656 32.535156 -30.433594 32.199219 -29.898438 C 31.867188 -29.367188 31.699219 -28.601562 31.699219 -27.601562 L 31.699219 -25 L 26 -25 L 26 -27.601562 C 26 -28.800781 26.035156 -29.699219 26.101562 -30.300781 C 26.167969 -30.898438 26.433594 -31.535156 26.898438 -32.199219 C 27.367188 -33 28.015625 -33.816406 28.851562 -34.648438 C 29.683594 -35.484375 30.5 -36.265625 31.300781 -37 C 33.101562 -38.601562 34.417969 -40 35.25 -41.199219 C 36.082031 -42.398438 36.5 -43.832031 36.5 -45.5 C 36.5 -47.5 35.832031 -49.035156 34.5 -50.101562 C 33.167969 -51.167969 31.234375 -51.699219 28.699219 -51.699219 C 26.964844 -51.699219 25.417969 -51.167969 24.050781 -50.101562 C 22.683594 -49.035156 22.035156 -47.332031 22.101562 -45 Z M 34.699219 -16.300781 C 34.699219 -14.898438 34.183594 -13.699219 33.148438 -12.699219 C 32.117188 -11.699219 30.898438 -11.199219 29.5 -11.199219 C 28.101562 -11.199219 26.898438 -11.699219 25.898438 -12.699219 C 24.898438 -13.699219 24.398438 -14.898438 24.398438 -16.300781 C 24.398438 -17.167969 24.601562 -17.933594 25 -18.601562 C 25.199219 -19.46875 25.566406 -20.101562 26.101562 -20.5 C 26.632812 -20.898438 27.367188 -21.167969 28.300781 -21.300781 C 28.566406 -21.367188 28.964844 -21.398438 29.5 -21.398438 C 30.898438 -21.398438 32.117188 -20.898438 33.148438 -19.898438 C 34.183594 -18.898438 34.699219 -17.699219 34.699219 -16.300781 Z M 23.199219 -10.199219 C 24.601562 -10.199219 25.800781 -9.699219 26.800781 -8.699219 C 27.800781 -7.699219 28.300781 -6.5 28.300781 -5.101562 C 28.300781 -3.632812 27.800781 -2.398438 26.800781 -1.398438 C 25.800781 -0.398438 24.601562 0.101562 23.199219 0.101562 C 21.800781 0.101562 20.601562 -0.398438 19.601562 -1.398438 C 18.601562 -2.398438 18.101562 -3.632812 18.101562 -5.101562 C 18.101562 -6.5 18.601562 -7.699219 19.601562 -8.699219 C 20.601562 -9.699219 21.800781 -10.199219 23.199219 -10.199219 Z M 35.800781 -10.199219 C 37.199219 -10.199219 38.417969 -9.699219 39.449219 -8.699219 C 40.484375 -7.699219 41 -6.5 41 -5.101562 C 41 -3.632812 40.484375 -2.398438 39.449219 -1.398438 C 38.417969 -0.398438 37.199219 0.101562 35.800781 0.101562 C 34.398438 0.101562 33.199219 -0.398438 32.199219 -1.398438 C 31.199219 -2.398438 30.699219 -3.632812 30.699219 -5.101562 C 30.699219 -6.5 31.199219 -7.699219 32.199219 -8.699219 C 33.199219 -9.699219 34.398438 -10.199219 35.800781 -10.199219 Z M 35.800781 -10.199219 "/>
</symbol>
<symbol overflow="visible" id="glyph1994100-1">
<path style="stroke:none;" d="M 47.199219 -39 C 49.53125 -39 51.5 -38.101562 53.101562 -36.300781 C 54.699219 -34.5 55.5 -32.433594 55.5 -30.101562 C 55.5 -27.765625 54.714844 -25.714844 53.148438 -23.949219 C 51.582031 -22.183594 49.601562 -21.300781 47.199219 -21.300781 C 45.398438 -21.300781 44.035156 -21.617188 43.101562 -22.25 C 42.167969 -22.882812 41.167969 -23.832031 40.101562 -25.101562 C 38.96875 -26.433594 37.898438 -27.449219 36.898438 -28.148438 C 35.898438 -28.847656 34.464844 -29.300781 32.601562 -29.5 C 32.535156 -29.035156 32.300781 -28.617188 31.898438 -28.25 C 31.5 -27.882812 31.035156 -27.632812 30.5 -27.5 C 30.765625 -25.632812 31.265625 -24.199219 32 -23.199219 C 32.734375 -22.199219 33.765625 -21.132812 35.101562 -20 C 36.367188 -18.933594 37.332031 -17.917969 38 -16.949219 C 38.667969 -15.984375 39 -14.601562 39 -12.800781 C 39 -10.46875 38.101562 -8.5 36.300781 -6.898438 C 34.5 -5.300781 32.433594 -4.5 30.101562 -4.5 C 27.765625 -4.5 25.714844 -5.285156 23.949219 -6.851562 C 22.183594 -8.417969 21.300781 -10.398438 21.300781 -12.800781 C 21.300781 -14.601562 21.617188 -15.964844 22.25 -16.898438 C 22.882812 -17.832031 23.832031 -18.832031 25.101562 -19.898438 C 26.433594 -21.03125 27.449219 -22.101562 28.148438 -23.101562 C 28.847656 -24.101562 29.300781 -25.535156 29.5 -27.398438 C 29.035156 -27.464844 28.617188 -27.699219 28.25 -28.101562 C 27.882812 -28.5 27.632812 -28.964844 27.5 -29.5 C 25.632812 -29.234375 24.199219 -28.734375 23.199219 -28 C 22.199219 -27.265625 21.132812 -26.234375 20 -24.898438 C 18.933594 -23.632812 17.917969 -22.667969 16.949219 -22 C 15.984375 -21.332031 14.601562 -21 12.800781 -21 C 10.46875 -21 8.5 -21.898438 6.898438 -23.699219 C 5.300781 -25.5 4.5 -27.566406 4.5 -29.898438 C 4.5 -32.234375 5.285156 -34.285156 6.851562 -36.050781 C 8.417969 -37.816406 10.398438 -38.699219 12.800781 -38.699219 C 14.601562 -38.699219 15.964844 -38.382812 16.898438 -37.75 C 17.832031 -37.117188 18.832031 -36.167969 19.898438 -34.898438 C 21.03125 -33.566406 22.101562 -32.550781 23.101562 -31.851562 C 24.101562 -31.152344 25.535156 -30.699219 27.398438 -30.5 C 27.464844 -30.964844 27.699219 -31.382812 28.101562 -31.75 C 28.5 -32.117188 28.964844 -32.367188 29.5 -32.5 C 29.234375 -34.367188 28.734375 -35.800781 28 -36.800781 C 27.265625 -37.800781 26.234375 -38.867188 24.898438 -40 C 23.632812 -41.066406 22.667969 -42.082031 22 -43.050781 C 21.332031 -44.015625 21 -45.398438 21 -47.199219 C 21 -49.53125 21.898438 -51.5 23.699219 -53.101562 C 25.5 -54.699219 27.566406 -55.5 29.898438 -55.5 C 32.234375 -55.5 34.285156 -54.714844 36.050781 -53.148438 C 37.816406 -51.582031 38.699219 -49.601562 38.699219 -47.199219 C 38.699219 -45.398438 38.382812 -44.035156 37.75 -43.101562 C 37.117188 -42.167969 36.167969 -41.167969 34.898438 -40.101562 C 33.566406 -38.96875 32.550781 -37.898438 31.851562 -36.898438 C 31.152344 -35.898438 30.699219 -34.464844 30.5 -32.601562 C 30.964844 -32.535156 31.382812 -32.300781 31.75 -31.898438 C 32.117188 -31.5 32.367188 -31.035156 32.5 -30.5 C 34.367188 -30.765625 35.800781 -31.265625 36.800781 -32 C 37.800781 -32.734375 38.867188 -33.765625 40 -35.101562 C 41.066406 -36.367188 42.082031 -37.332031 43.050781 -38 C 44.015625 -38.667969 45.398438 -39 47.199219 -39 Z M 47.199219 -39 "/>
</symbol>
<symbol overflow="visible" id="glyph1994100-2">
<path style="stroke:none;" d="M 47.199219 -40 C 49.734375 -40 51.917969 -39.015625 53.75 -37.050781 C 55.582031 -35.082031 56.5 -32.765625 56.5 -30.101562 C 56.5 -27.433594 55.582031 -25.132812 53.75 -23.199219 C 51.917969 -21.265625 49.734375 -20.300781 47.199219 -20.300781 C 44.933594 -20.300781 43.234375 -20.648438 42.101562 -21.351562 C 40.96875 -22.050781 39.832031 -23.101562 38.699219 -24.5 C 37.898438 -25.566406 37.101562 -26.417969 36.300781 -27.050781 C 35.5 -27.683594 34.464844 -28.132812 33.199219 -28.398438 C 32.867188 -27.800781 32.398438 -27.332031 31.800781 -27 C 32.132812 -25.734375 32.617188 -24.699219 33.25 -23.898438 C 33.882812 -23.097656 34.734375 -22.234375 35.800781 -21.300781 C 37.199219 -20.101562 38.25 -18.933594 38.949219 -17.800781 C 39.648438 -16.667969 40 -15 40 -12.800781 C 40 -10.265625 39.015625 -8.082031 37.050781 -6.25 C 35.082031 -4.417969 32.765625 -3.5 30.101562 -3.5 C 27.433594 -3.5 25.132812 -4.417969 23.199219 -6.25 C 21.265625 -8.082031 20.300781 -10.265625 20.300781 -12.800781 C 20.300781 -15.066406 20.648438 -16.765625 21.351562 -17.898438 C 22.050781 -19.03125 23.101562 -20.167969 24.5 -21.300781 C 25.566406 -22.101562 26.417969 -22.898438 27.050781 -23.699219 C 27.683594 -24.5 28.132812 -25.535156 28.398438 -26.800781 C 27.800781 -27.132812 27.332031 -27.601562 27 -28.199219 C 25.734375 -27.867188 24.699219 -27.382812 23.898438 -26.75 C 23.097656 -26.117188 22.234375 -25.265625 21.300781 -24.199219 C 20.101562 -22.800781 18.933594 -21.75 17.800781 -21.050781 C 16.667969 -20.351562 15 -20 12.800781 -20 C 10.265625 -20 8.082031 -20.984375 6.25 -22.949219 C 4.417969 -24.917969 3.5 -27.234375 3.5 -29.898438 C 3.5 -32.566406 4.417969 -34.867188 6.25 -36.800781 C 8.082031 -38.734375 10.265625 -39.699219 12.800781 -39.699219 C 15.066406 -39.699219 16.765625 -39.351562 17.898438 -38.648438 C 19.03125 -37.949219 20.167969 -36.898438 21.300781 -35.5 C 22.101562 -34.433594 22.898438 -33.582031 23.699219 -32.949219 C 24.5 -32.316406 25.535156 -31.867188 26.800781 -31.601562 C 27.332031 -32.332031 27.832031 -32.832031 28.300781 -33.101562 C 27.96875 -34.367188 27.5 -35.382812 26.898438 -36.148438 C 26.300781 -36.917969 25.433594 -37.765625 24.300781 -38.699219 C 22.898438 -39.832031 21.832031 -40.984375 21.101562 -42.148438 C 20.367188 -43.316406 20 -45 20 -47.199219 C 20 -49.734375 20.984375 -51.917969 22.949219 -53.75 C 24.917969 -55.582031 27.234375 -56.5 29.898438 -56.5 C 32.566406 -56.5 34.867188 -55.582031 36.800781 -53.75 C 38.734375 -51.917969 39.699219 -49.734375 39.699219 -47.199219 C 39.699219 -45 39.351562 -43.316406 38.648438 -42.148438 C 37.949219 -40.984375 36.933594 -39.867188 35.601562 -38.800781 C 34.535156 -37.867188 33.699219 -37 33.101562 -36.199219 C 32.5 -35.398438 32.035156 -34.367188 31.699219 -33.101562 C 32.300781 -32.832031 32.734375 -32.398438 33 -31.800781 C 34.265625 -32.132812 35.300781 -32.617188 36.101562 -33.25 C 36.902344 -33.882812 37.765625 -34.734375 38.699219 -35.800781 C 39.898438 -37.199219 41.066406 -38.25 42.199219 -38.949219 C 43.332031 -39.648438 45 -40 47.199219 -40 Z M 47.199219 -40 "/>
</symbol>
<symbol overflow="visible" id="glyph1994100-3">
<path style="stroke:none;" d="M 51.601562 -33.898438 C 52.667969 -33.898438 53.582031 -33.515625 54.351562 -32.75 C 55.117188 -31.984375 55.5 -31.066406 55.5 -30 C 55.5 -28.933594 55.117188 -28.015625 54.351562 -27.25 C 53.582031 -26.484375 52.667969 -26.101562 51.601562 -26.101562 C 51.132812 -26.101562 50.800781 -26.132812 50.601562 -26.199219 C 50.46875 -25.265625 50.050781 -24.5 49.351562 -23.898438 C 48.652344 -23.300781 47.800781 -23 46.800781 -23 C 45.734375 -23 44.816406 -23.382812 44.050781 -24.148438 C 43.285156 -24.917969 42.898438 -25.832031 42.898438 -26.898438 C 42.898438 -27.699219 43.101562 -28.398438 43.5 -29 L 31 -29 L 31 -16.5 C 31.601562 -16.898438 32.300781 -17.101562 33.101562 -17.101562 C 34.167969 -17.101562 35.082031 -16.714844 35.851562 -15.949219 C 36.617188 -15.183594 37 -14.265625 37 -13.199219 C 37 -12.199219 36.699219 -11.351562 36.101562 -10.648438 C 35.5 -9.949219 34.734375 -9.535156 33.800781 -9.398438 C 33.867188 -9.199219 33.898438 -8.867188 33.898438 -8.398438 C 33.898438 -7.332031 33.515625 -6.417969 32.75 -5.648438 C 31.984375 -4.882812 31.066406 -4.5 30 -4.5 C 28.933594 -4.5 28.015625 -4.882812 27.25 -5.648438 C 26.484375 -6.417969 26.101562 -7.332031 26.101562 -8.398438 C 26.101562 -8.867188 26.132812 -9.199219 26.199219 -9.398438 C 25.265625 -9.53125 24.5 -9.949219 23.898438 -10.648438 C 23.300781 -11.347656 23 -12.199219 23 -13.199219 C 23 -14.265625 23.382812 -15.183594 24.148438 -15.949219 C 24.917969 -16.714844 25.832031 -17.101562 26.898438 -17.101562 C 27.699219 -17.101562 28.398438 -16.898438 29 -16.5 L 29 -29 L 16.5 -29 C 16.898438 -28.398438 17.101562 -27.699219 17.101562 -26.898438 C 17.101562 -25.832031 16.714844 -24.917969 15.949219 -24.148438 C 15.183594 -23.382812 14.265625 -23 13.199219 -23 C 12.199219 -23 11.351562 -23.300781 10.648438 -23.898438 C 9.949219 -24.5 9.535156 -25.265625 9.398438 -26.199219 C 9.199219 -26.132812 8.867188 -26.101562 8.398438 -26.101562 C 7.332031 -26.101562 6.417969 -26.484375 5.648438 -27.25 C 4.882812 -28.015625 4.5 -28.933594 4.5 -30 C 4.5 -31.066406 4.882812 -31.984375 5.648438 -32.75 C 6.417969 -33.515625 7.332031 -33.898438 8.398438 -33.898438 C 8.867188 -33.898438 9.199219 -33.867188 9.398438 -33.800781 C 9.53125 -34.734375 9.949219 -35.5 10.648438 -36.101562 C 11.347656 -36.699219 12.199219 -37 13.199219 -37 C 14.265625 -37 15.183594 -36.617188 15.949219 -35.851562 C 16.714844 -35.082031 17.101562 -34.167969 17.101562 -33.101562 C 17.101562 -32.300781 16.898438 -31.601562 16.5 -31 L 29 -31 L 29 -43.5 C 28.398438 -43.101562 27.699219 -42.898438 26.898438 -42.898438 C 25.832031 -42.898438 24.917969 -43.285156 24.148438 -44.050781 C 23.382812 -44.816406 23 -45.734375 23 -46.800781 C 23 -47.800781 23.300781 -48.648438 23.898438 -49.351562 C 24.5 -50.050781 25.265625 -50.464844 26.199219 -50.601562 C 26.132812 -50.800781 26.101562 -51.132812 26.101562 -51.601562 C 26.101562 -52.667969 26.484375 -53.582031 27.25 -54.351562 C 28.015625 -55.117188 28.933594 -55.5 30 -55.5 C 31.066406 -55.5 31.984375 -55.117188 32.75 -54.351562 C 33.515625 -53.582031 33.898438 -52.667969 33.898438 -51.601562 C 33.898438 -51.132812 33.867188 -50.800781 33.800781 -50.601562 C 34.734375 -50.46875 35.5 -50.050781 36.101562 -49.351562 C 36.699219 -48.652344 37 -47.800781 37 -46.800781 C 37 -45.734375 36.617188 -44.816406 35.851562 -44.050781 C 35.082031 -43.285156 34.167969 -42.898438 33.101562 -42.898438 C 32.300781 -42.898438 31.601562 -43.101562 31 -43.5 L 31 -31 L 43.5 -31 C 43.101562 -31.601562 42.898438 -32.300781 42.898438 -33.101562 C 42.898438 -34.167969 43.285156 -35.082031 44.050781 -35.851562 C 44.816406 -36.617188 45.734375 -37 46.800781 -37 C 47.800781 -37 48.648438 -36.699219 49.351562 -36.101562 C 50.050781 -35.5 50.464844 -34.734375 50.601562 -33.800781 C 50.800781 -33.867188 51.132812 -33.898438 51.601562 -33.898438 Z M 51.601562 -33.898438 "/>
</symbol>
<symbol overflow="visible" id="glyph1994100-4">
<path style="stroke:none;" d="M 57.101562 -28.300781 L 55.800781 -27.101562 L 35 -30.101562 L 45.199219 -11.699219 L 45.199219 -10.300781 L 35 -6.300781 L 33.601562 -6.898438 L 30.800781 -28.300781 L 15 -15.101562 L 13.398438 -15.101562 L 8 -22.699219 L 8.800781 -24.101562 L 28.398438 -32.101562 L 8.800781 -41.699219 L 8.398438 -43.300781 L 15 -51.101562 L 16.398438 -51.101562 L 30.699219 -36.300781 L 34.601562 -57.800781 L 36 -58.398438 L 45.199219 -55.5 L 45.699219 -53.300781 L 35.398438 -34.5 L 56.199219 -38.101562 L 57.101562 -37.5 Z M 57.101562 -28.300781 "/>
</symbol>
<symbol overflow="visible" id="glyph1994101-0">
<path style="stroke:none;" d="M 0.359375 1.699219 L 0.359375 -7.25 L 5.640625 -7.25 L 5.640625 1.699219 Z M 0.878906 1.179688 L 5.121094 1.179688 L 5.121094 -6.730469 L 0.878906 -6.730469 Z M 1.628906 -4.5 C 1.621094 -5.007812 1.761719 -5.335938 2.039062 -5.488281 C 2.320312 -5.644531 2.617188 -5.71875 2.929688 -5.71875 C 3.355469 -5.71875 3.6875 -5.621094 3.921875 -5.425781 C 4.152344 -5.230469 4.269531 -4.945312 4.269531 -4.578125 C 4.269531 -4.351562 4.210938 -4.152344 4.09375 -3.976562 C 3.976562 -3.800781 3.808594 -3.597656 3.589844 -3.371094 L 3.421875 -3.191406 C 3.320312 -3.109375 3.253906 -3.042969 3.21875 -2.988281 C 3.1875 -2.9375 3.171875 -2.859375 3.171875 -2.761719 L 3.171875 -2.5 L 2.601562 -2.5 L 2.601562 -2.761719 C 2.601562 -2.878906 2.601562 -2.96875 2.609375 -3.03125 C 2.617188 -3.089844 2.644531 -3.152344 2.691406 -3.21875 C 2.738281 -3.300781 2.800781 -3.382812 2.886719 -3.464844 C 2.96875 -3.546875 3.050781 -3.625 3.128906 -3.699219 C 3.308594 -3.859375 3.441406 -4 3.523438 -4.121094 C 3.609375 -4.242188 3.648438 -4.382812 3.648438 -4.550781 C 3.648438 -4.75 3.582031 -4.902344 3.449219 -5.011719 C 3.316406 -5.117188 3.125 -5.171875 2.871094 -5.171875 C 2.695312 -5.171875 2.542969 -5.117188 2.40625 -5.011719 C 2.269531 -4.902344 2.203125 -4.734375 2.210938 -4.5 Z M 3.46875 -1.628906 C 3.46875 -1.488281 3.417969 -1.371094 3.316406 -1.269531 C 3.210938 -1.167969 3.089844 -1.121094 2.949219 -1.121094 C 2.808594 -1.121094 2.691406 -1.171875 2.589844 -1.269531 C 2.488281 -1.371094 2.441406 -1.488281 2.441406 -1.628906 C 2.441406 -1.714844 2.460938 -1.792969 2.5 -1.859375 C 2.519531 -1.945312 2.558594 -2.011719 2.609375 -2.050781 C 2.664062 -2.089844 2.738281 -2.117188 2.828125 -2.128906 C 2.855469 -2.136719 2.898438 -2.140625 2.949219 -2.140625 C 3.089844 -2.140625 3.210938 -2.089844 3.316406 -1.988281 C 3.417969 -1.890625 3.46875 -1.769531 3.46875 -1.628906 Z M 2.320312 -1.019531 C 2.460938 -1.019531 2.578125 -0.96875 2.679688 -0.871094 C 2.78125 -0.769531 2.828125 -0.648438 2.828125 -0.511719 C 2.828125 -0.363281 2.78125 -0.238281 2.679688 -0.140625 C 2.578125 -0.0390625 2.460938 0.0117188 2.320312 0.0117188 C 2.179688 0.0117188 2.058594 -0.0390625 1.960938 -0.140625 C 1.859375 -0.238281 1.808594 -0.363281 1.808594 -0.511719 C 1.808594 -0.652344 1.859375 -0.769531 1.960938 -0.871094 C 2.058594 -0.96875 2.179688 -1.019531 2.320312 -1.019531 Z M 3.578125 -1.019531 C 3.71875 -1.019531 3.839844 -0.96875 3.945312 -0.871094 C 4.046875 -0.769531 4.101562 -0.648438 4.101562 -0.511719 C 4.101562 -0.363281 4.046875 -0.238281 3.945312 -0.140625 C 3.839844 -0.0390625 3.71875 0.0117188 3.578125 0.0117188 C 3.4375 0.0117188 3.320312 -0.0390625 3.21875 -0.140625 C 3.121094 -0.238281 3.070312 -0.363281 3.070312 -0.511719 C 3.070312 -0.652344 3.121094 -0.769531 3.21875 -0.871094 C 3.320312 -0.96875 3.441406 -1.019531 3.578125 -1.019531 Z M 3.578125 -1.019531 "/>
</symbol>
<symbol overflow="visible" id="glyph1994101-1">
<path style="stroke:none;" d="M 5.078125 1.898438 L 4.160156 1.898438 L 0.851562 -7.878906 L 1.78125 -7.878906 Z M 5.078125 1.898438 "/>
</symbol>
<symbol overflow="visible" id="glyph1994101-2">
<path style="stroke:none;" d="M 2.578125 0.0703125 C 1.960938 0.0703125 1.511719 -0.0976562 1.238281 -0.429688 C 0.964844 -0.761719 0.828125 -1.253906 0.828125 -1.898438 L 0.828125 -5.5 L 1.671875 -5.5 L 1.671875 -2.238281 C 1.671875 -1.886719 1.695312 -1.597656 1.746094 -1.371094 C 1.796875 -1.144531 1.902344 -0.960938 2.066406 -0.820312 C 2.230469 -0.679688 2.472656 -0.609375 2.800781 -0.609375 C 3.300781 -0.609375 3.671875 -0.796875 3.910156 -1.171875 C 4.148438 -1.542969 4.269531 -1.992188 4.269531 -2.519531 L 4.269531 -5.5 L 5.128906 -5.5 L 5.128906 -1.191406 C 5.128906 -0.96875 5.136719 -0.699219 5.148438 -0.378906 L 5.160156 0 L 4.371094 0 L 4.328125 -0.730469 C 3.960938 -0.195312 3.378906 0.0703125 2.578125 0.0703125 Z M 2.578125 0.0703125 "/>
</symbol>
<symbol overflow="visible" id="glyph1994101-3">
<path style="stroke:none;" d="M 0.769531 -0.839844 L 0.988281 -1.039062 C 1.570312 -1.566406 2.074219 -2.046875 2.503906 -2.484375 C 2.933594 -2.921875 3.324219 -3.398438 3.675781 -3.921875 C 4.023438 -4.441406 4.199219 -4.914062 4.199219 -5.339844 C 4.199219 -5.726562 4.089844 -6.035156 3.863281 -6.265625 C 3.640625 -6.496094 3.355469 -6.609375 3.011719 -6.609375 C 2.628906 -6.609375 2.316406 -6.484375 2.074219 -6.230469 C 1.832031 -5.976562 1.710938 -5.640625 1.710938 -5.21875 L 0.828125 -5.21875 C 0.835938 -5.671875 0.941406 -6.058594 1.140625 -6.378906 C 1.339844 -6.699219 1.605469 -6.941406 1.933594 -7.105469 C 2.265625 -7.269531 2.632812 -7.351562 3.039062 -7.351562 C 3.414062 -7.351562 3.757812 -7.277344 4.074219 -7.136719 C 4.390625 -6.992188 4.644531 -6.773438 4.835938 -6.480469 C 5.023438 -6.1875 5.121094 -5.828125 5.121094 -5.410156 C 5.121094 -4.964844 4.96875 -4.484375 4.664062 -3.976562 C 4.363281 -3.464844 4.007812 -2.988281 3.601562 -2.539062 C 3.195312 -2.09375 2.707031 -1.597656 2.140625 -1.050781 L 1.78125 -0.691406 L 5.179688 -0.691406 L 5.179688 0.0507812 L 0.769531 0.0507812 Z M 0.769531 -0.839844 "/>
</symbol>
<symbol overflow="visible" id="glyph1994101-4">
<path style="stroke:none;" d="M 2.339844 0 L 1.371094 0 L 4.300781 -6.429688 L 0.890625 -6.429688 L 0.890625 -7.25 L 5.269531 -7.25 L 5.269531 -6.441406 Z M 2.339844 0 "/>
</symbol>
<symbol overflow="visible" id="glyph1994101-5">
<path style="stroke:none;" d="M 3.210938 -4.441406 C 3.957031 -4.308594 4.5 -4.019531 4.839844 -3.578125 C 5.179688 -3.140625 5.351562 -2.621094 5.351562 -2.019531 C 5.351562 -1.574219 5.230469 -1.1875 4.996094 -0.863281 C 4.757812 -0.542969 4.453125 -0.296875 4.078125 -0.136719 C 3.707031 0.0273438 3.320312 0.109375 2.921875 0.109375 C 2.527344 0.109375 2.15625 0.03125 1.808594 -0.128906 C 1.460938 -0.289062 1.183594 -0.53125 0.976562 -0.851562 C 0.765625 -1.171875 0.660156 -1.558594 0.660156 -2.019531 L 1.539062 -2.019531 C 1.539062 -1.734375 1.605469 -1.484375 1.738281 -1.273438 C 1.871094 -1.066406 2.050781 -0.902344 2.269531 -0.789062 C 2.488281 -0.675781 2.722656 -0.621094 2.96875 -0.621094 C 3.230469 -0.621094 3.476562 -0.675781 3.703125 -0.789062 C 3.933594 -0.902344 4.121094 -1.066406 4.261719 -1.28125 C 4.402344 -1.492188 4.46875 -1.738281 4.46875 -2.019531 C 4.46875 -2.585938 4.253906 -3.027344 3.824219 -3.34375 C 3.394531 -3.660156 2.835938 -3.820312 2.148438 -3.820312 L 2.148438 -4.570312 L 4.160156 -6.5 L 0.828125 -6.5 L 0.828125 -7.25 L 5.210938 -7.25 L 5.210938 -6.398438 Z M 3.210938 -4.441406 "/>
</symbol>
<symbol overflow="visible" id="glyph1994101-6">
<path style="stroke:none;" d="M 4.441406 0 L 3.570312 0 L 3.570312 -1.558594 L 0.398438 -1.558594 L 0.398438 -2.359375 L 3.289062 -7.25 L 4.441406 -7.25 L 4.441406 -2.300781 L 5.46875 -2.300781 L 5.46875 -1.558594 L 4.441406 -1.558594 Z M 3.578125 -6.21875 L 1.320312 -2.300781 L 3.578125 -2.300781 Z M 3.578125 -6.21875 "/>
</symbol>
<symbol overflow="visible" id="glyph1994101-7">
<path style="stroke:none;" d="M 2.949219 0.0898438 C 2.328125 0.0898438 1.816406 -0.0664062 1.414062 -0.375 C 1.011719 -0.683594 0.808594 -1.148438 0.808594 -1.769531 L 1.691406 -1.769531 C 1.691406 -1.398438 1.808594 -1.113281 2.039062 -0.921875 C 2.273438 -0.726562 2.574219 -0.628906 2.941406 -0.628906 C 3.394531 -0.628906 3.738281 -0.800781 3.980469 -1.144531 C 4.21875 -1.488281 4.339844 -1.917969 4.339844 -2.429688 C 4.339844 -2.902344 4.226562 -3.300781 4.003906 -3.625 C 3.78125 -3.949219 3.460938 -4.109375 3.039062 -4.109375 C 2.734375 -4.109375 2.464844 -4.015625 2.234375 -3.824219 C 2.003906 -3.632812 1.851562 -3.375 1.78125 -3.050781 L 0.898438 -3.050781 L 1.421875 -7.25 L 5.03125 -7.25 L 5.03125 -6.480469 L 2.21875 -6.480469 L 1.910156 -4.28125 C 2.082031 -4.492188 2.269531 -4.648438 2.46875 -4.746094 C 2.667969 -4.84375 2.914062 -4.890625 3.199219 -4.890625 C 3.621094 -4.890625 3.984375 -4.78125 4.289062 -4.558594 C 4.597656 -4.339844 4.828125 -4.042969 4.988281 -3.664062 C 5.148438 -3.289062 5.230469 -2.871094 5.230469 -2.410156 C 5.230469 -1.917969 5.132812 -1.480469 4.941406 -1.105469 C 4.746094 -0.726562 4.476562 -0.433594 4.136719 -0.226562 C 3.792969 -0.015625 3.398438 0.0898438 2.949219 0.0898438 Z M 2.949219 0.0898438 "/>
</symbol>
<symbol overflow="visible" id="glyph1994101-8">
<path style="stroke:none;" d="M 0.960938 0 L 0.960938 -0.738281 L 2.730469 -0.738281 L 2.730469 -5.949219 C 2.457031 -5.675781 2.136719 -5.410156 1.765625 -5.148438 C 1.394531 -4.890625 1.074219 -4.722656 0.800781 -4.648438 L 0.800781 -5.5 C 1.132812 -5.640625 1.492188 -5.886719 1.878906 -6.238281 C 2.265625 -6.59375 2.585938 -6.929688 2.839844 -7.25 L 3.570312 -7.25 L 3.570312 -0.738281 L 5.210938 -0.738281 L 5.210938 0 Z M 0.960938 0 "/>
</symbol>
</g>
</defs>
<g id="surface3364">
<g style="fill:rgb(0%,0%,0%);fill-opacity:1;">
  <use xlink:href="#glyph1994100-1" x="57" y="87.75"/>
</g>
<g style="fill:rgb(52.941176%,80.784314%,92.156863%);fill-opacity:1;">
  <use xlink:href="#glyph1994101-1" x="65.25" y="120"/>
  <use xlink:href="#glyph1994101-2" x="71.25" y="120"/>
  <use xlink:href="#glyph1994101-3" x="77.25" y="120"/>
  <use xlink:href="#glyph1994101-4" x="83.25" y="120"/>
  <use xlink:href="#glyph1994101-3" x="89.25" y="120"/>
  <use xlink:href="#glyph1994101-5" x="95.25" y="120"/>
</g>
<g style="fill:rgb(0%,0%,0%);fill-opacity:1;">
  <use xlink:href="#glyph1994100-2" x="201" y="88.25"/>
</g>
<g style="fill:rgb(52.941176%,80.784314%,92.156863%);fill-opacity:1;">
  <use xlink:href="#glyph1994101-1" x="210.191406" y="120"/>
  <use xlink:href="#glyph1994101-2" x="216.191406" y="120"/>
  <use xlink:href="#glyph1994101-3" x="222.191406" y="120"/>
  <use xlink:href="#glyph1994101-4" x="228.191406" y="120"/>
  <use xlink:href="#glyph1994101-3" x="234.191406" y="120"/>
  <use xlink:href="#glyph1994101-6" x="240.191406" y="120"/>
</g>
<g style="fill:rgb(0%,0%,0%);fill-opacity:1;">
  <use xlink:href="#glyph1994100-3" x="347" y="87.75"/>
</g>
<g style="fill:rgb(52.941176%,80.784314%,92.156863%);fill-opacity:1;">
  <use xlink:href="#glyph1994101-1" x="355.308594" y="120"/>
  <use xlink:href="#glyph1994101-2" x="361.308594" y="120"/>
  <use xlink:href="#glyph1994101-3" x="367.308594" y="120"/>
  <use xlink:href="#glyph1994101-4" x="373.308594" y="120"/>
  <use xlink:href="#glyph1994101-3" x="379.308594" y="120"/>
  <use xlink:href="#glyph1994101-7" x="385.308594" y="120"/>
</g>
<g style="fill:rgb(0%,0%,0%);fill-opacity:1;">
  <use xlink:href="#glyph1994100-4" x="492.949219" y="89.199219"/>
</g>
<g style="fill:rgb(52.941176%,80.784314%,92.156863%);fill-opacity:1;">
  <use xlink:href="#glyph1994101-1" x="500.320312" y="120"/>
  <use xlink:href="#glyph1994101-2" x="506.320312" y="120"/>
  <use xlink:href="#glyph1994101-3" x="512.320312" y="120"/>
  <use xlink:href="#glyph1994101-4" x="518.320312" y="120"/>
  <use xlink:href="#glyph1994101-5" x="524.320312" y="120"/>
  <use xlink:href="#glyph1994101-8" x="530.320312" y="120"/>
</g>
</g>
</svg>
