<?xml version="1.0" encoding="UTF-8" standalone="no"?>
<!DOCTYPE svg PUBLIC "-//W3C//DTD SVG 1.1//EN" "http://www.w3.org/Graphics/SVG/1.1/DTD/svg11.dtd">
<svg width="100%" height="100%" viewBox="0 0 600 600" version="1.1" xmlns="http://www.w3.org/2000/svg" xmlns:xlink="http://www.w3.org/1999/xlink" xml:space="preserve" xmlns:serif="http://www.serif.com/" style="fill-rule:evenodd;clip-rule:evenodd;stroke-linecap:round;stroke-linejoin:round;stroke-miterlimit:1.5;">
    <g id="surface42208">
        <rect x="-1.904" y="1.009" width="605.779" height="603.359" style="stroke:#ebebeb;stroke-width:0.5px;"/>
        <path d="M442.887,488.895C442.887,514.652 422.004,535.535 396.246,535.535C370.488,535.535 349.605,514.652 349.605,488.895C349.605,463.137 370.488,442.254 396.246,442.254C422.004,442.254 442.887,463.137 442.887,488.895" style="fill:#00a3fe;fill-opacity:0.4;fill-rule:nonzero;stroke:#ebebeb;stroke-width:0.5px;stroke-linecap:butt;stroke-miterlimit:2;"/>
        <path d="M404.305,438.012C393.559,436.309 382.551,438.055 372.859,442.992L343.902,260.164L376.965,265.402L404.305,438.012" style="fill:#56c114;fill-opacity:0.4;fill-rule:nonzero;stroke:#ebebeb;stroke-width:0.5px;stroke-linecap:butt;stroke-miterlimit:2;"/>
        <path d="M337.551,220.082L370.617,225.316L356.551,136.512C346.859,141.449 335.852,143.195 325.105,141.492L337.551,220.082" style="fill:#56c114;fill-opacity:0.4;fill-rule:nonzero;stroke:#ebebeb;stroke-width:0.5px;stroke-linecap:butt;stroke-miterlimit:2;"/>
        <path d="M396.246,488.895L333.164,90.609" style="fill:none;fill-rule:nonzero;stroke:#00fefe;stroke-width:0.5px;stroke-linecap:butt;stroke-linejoin:miter;stroke-miterlimit:10;stroke-dasharray:0.25,0.75;"/>
        <path d="M509.391,266.836L111.105,203.754" style="fill:none;fill-rule:nonzero;stroke:#00fefe;stroke-width:0.5px;stroke-linecap:butt;stroke-linejoin:miter;stroke-miterlimit:10;stroke-dasharray:0.25,0.75;"/>
        <path d="M459.195,278.426L224.051,241.18" style="fill:none;fill-rule:nonzero;stroke:#00fefe;stroke-width:0.5px;stroke-linecap:butt;stroke-linejoin:miter;stroke-miterlimit:10;stroke-dasharray:0.25,0.75;"/>
        <path d="M465.23,240.305L230.086,203.059" style="fill:none;fill-rule:nonzero;stroke:#00fefe;stroke-width:0.5px;stroke-linecap:butt;stroke-linejoin:miter;stroke-miterlimit:10;stroke-dasharray:0.25,0.75;"/>
        <path d="M396.246,488.895L372.859,442.992" style="fill:none;fill-rule:nonzero;stroke:#00fefe;stroke-width:0.5px;stroke-linecap:butt;stroke-linejoin:miter;stroke-miterlimit:10;stroke-dasharray:0.25,0.75;"/>
        <path d="M396.246,488.895L404.305,438.012" style="fill:none;fill-rule:nonzero;stroke:#00fefe;stroke-width:0.5px;stroke-linecap:butt;stroke-linejoin:miter;stroke-miterlimit:10;stroke-dasharray:0.25,0.75;"/>
        <path d="M333.164,90.609L356.551,136.512" style="fill:none;fill-rule:nonzero;stroke:#00fefe;stroke-width:0.5px;stroke-linecap:butt;stroke-linejoin:miter;stroke-miterlimit:10;stroke-dasharray:0.25,0.75;"/>
        <path d="M333.164,90.609L325.105,141.492" style="fill:none;fill-rule:nonzero;stroke:#00fefe;stroke-width:0.5px;stroke-linecap:butt;stroke-linejoin:miter;stroke-miterlimit:10;stroke-dasharray:0.25,0.75;"/>
        <path d="M509.391,266.836L459.195,278.426" style="fill:none;fill-rule:nonzero;stroke:#00fefe;stroke-width:0.5px;stroke-linecap:butt;stroke-linejoin:miter;stroke-miterlimit:10;stroke-dasharray:0.25,0.75;"/>
        <path d="M509.391,266.836L465.23,240.305" style="fill:none;fill-rule:nonzero;stroke:#00fefe;stroke-width:0.5px;stroke-linecap:butt;stroke-linejoin:miter;stroke-miterlimit:10;stroke-dasharray:0.25,0.75;"/>
        <path d="M447.762,488.895C447.762,517.344 424.699,540.41 396.246,540.41C367.793,540.41 344.73,517.344 344.73,488.895C344.73,460.441 367.793,437.379 396.246,437.379C424.699,437.379 447.762,460.441 447.762,488.895" style="fill:none;fill-rule:nonzero;stroke:#00fefe;stroke-width:0.5px;stroke-linecap:butt;stroke-linejoin:miter;stroke-miterlimit:10;stroke-dasharray:0.25,0.75;"/>
        <path d="M442.887,488.895C442.887,514.652 422.004,535.535 396.246,535.535C370.488,535.535 349.605,514.652 349.605,488.895C349.605,463.137 370.488,442.254 396.246,442.254C422.004,442.254 442.887,463.137 442.887,488.895" style="fill:none;fill-rule:nonzero;stroke:#00fefe;stroke-width:0.5px;stroke-linecap:butt;stroke-linejoin:miter;stroke-miterlimit:10;stroke-dasharray:0.25,0.75;"/>
        <path d="M196.734,449.906C196.734,475.664 175.852,496.547 150.094,496.547C124.336,496.547 103.453,475.664 103.453,449.906C103.453,424.148 124.336,403.266 150.094,403.266C175.852,403.266 196.734,424.148 196.734,449.906" style="fill:none;fill-rule:nonzero;stroke:#00fefe;stroke-width:0.5px;stroke-linecap:butt;stroke-linejoin:miter;stroke-miterlimit:10;stroke-dasharray:0.25,0.75;"/>
        <path d="M560.906,266.836C560.906,295.289 537.84,318.352 509.391,318.352C480.938,318.352 457.875,295.289 457.875,266.836C457.875,238.383 480.938,215.32 509.391,215.32C537.84,215.32 560.906,238.383 560.906,266.836" style="fill:none;fill-rule:nonzero;stroke:#00fefe;stroke-width:0.5px;stroke-linecap:butt;stroke-linejoin:miter;stroke-miterlimit:10;stroke-dasharray:0.25,0.75;"/>
        <path d="M556.031,266.836C556.031,292.594 535.148,313.477 509.391,313.477C483.633,313.477 462.75,292.594 462.75,266.836C462.75,241.078 483.633,220.195 509.391,220.195C535.148,220.195 556.031,241.078 556.031,266.836" style="fill:none;fill-rule:nonzero;stroke:#00fefe;stroke-width:0.5px;stroke-linecap:butt;stroke-linejoin:miter;stroke-miterlimit:10;stroke-dasharray:0.25,0.75;"/>
        <path d="M379.805,90.609C379.805,116.367 358.922,137.25 333.164,137.25C307.406,137.25 286.523,116.367 286.523,90.609C286.523,64.852 307.406,43.969 333.164,43.969C358.922,43.969 379.805,64.852 379.805,90.609" style="fill:none;fill-rule:nonzero;stroke:#00fefe;stroke-width:0.5px;stroke-linecap:butt;stroke-linejoin:miter;stroke-miterlimit:10;stroke-dasharray:0.25,0.75;"/>
        <path d="M157.746,203.754C157.746,229.512 136.863,250.395 111.105,250.395C85.348,250.395 64.465,229.512 64.465,203.754C64.465,177.996 85.348,157.113 111.105,157.113C136.863,157.113 157.746,177.996 157.746,203.754" style="fill:none;fill-rule:nonzero;stroke:#00fefe;stroke-width:0.5px;stroke-linecap:butt;stroke-linejoin:miter;stroke-miterlimit:10;stroke-dasharray:0.25,0.75;"/>
        <path d="M379.805,90.609C379.805,116.367 358.922,137.25 333.164,137.25C307.406,137.25 286.523,116.367 286.523,90.609C286.523,64.852 307.406,43.969 333.164,43.969C358.922,43.969 379.805,64.852 379.805,90.609" style="fill:none;fill-rule:nonzero;stroke:#00fefe;stroke-width:0.5px;stroke-linecap:butt;stroke-linejoin:miter;stroke-miterlimit:10;stroke-dasharray:0.25,0.75;"/>
        <path d="M384.68,90.609C384.68,119.063 361.617,142.125 333.164,142.125C304.711,142.125 281.648,119.063 281.648,90.609C281.648,62.16 304.711,39.094 333.164,39.094C361.617,39.094 384.68,62.16 384.68,90.609" style="fill:none;fill-rule:nonzero;stroke:#00fefe;stroke-width:0.5px;stroke-linecap:butt;stroke-linejoin:miter;stroke-miterlimit:10;stroke-dasharray:0.25,0.75;"/>
        <path d="M408.305,438.012C408.305,443.344 400.305,443.344 400.305,438.012C400.305,432.68 408.305,432.68 408.305,438.012" style="fill:#fed600;fill-rule:nonzero;stroke:#ebebeb;stroke-width:0.5px;stroke-linecap:butt;stroke-miterlimit:2;"/>
        <path d="M376.859,442.992C376.859,448.324 368.859,448.324 368.859,442.992C368.859,437.66 376.859,437.66 376.859,442.992" style="fill:#fed600;fill-rule:nonzero;stroke:#ebebeb;stroke-width:0.5px;stroke-linecap:butt;stroke-miterlimit:2;"/>
        <path d="M329.105,141.492C329.105,146.824 321.105,146.824 321.105,141.492C321.105,136.16 329.105,136.16 329.105,141.492" style="fill:#fed600;fill-rule:nonzero;stroke:#ebebeb;stroke-width:0.5px;stroke-linecap:butt;stroke-miterlimit:2;"/>
        <path d="M360.551,136.512C360.551,141.844 352.551,141.844 352.551,136.512C352.551,131.18 360.551,131.18 360.551,136.512" style="fill:#fed600;fill-rule:nonzero;stroke:#ebebeb;stroke-width:0.5px;stroke-linecap:butt;stroke-miterlimit:2;"/>
        <path d="M463.195,278.426C463.195,283.758 455.195,283.758 455.195,278.426C455.195,273.09 463.195,273.09 463.195,278.426" style="fill:#fed600;fill-rule:nonzero;stroke:#ebebeb;stroke-width:0.5px;stroke-linecap:butt;stroke-miterlimit:2;"/>
        <path d="M228.051,241.18C228.051,246.516 220.051,246.516 220.051,241.18C220.051,235.848 228.051,235.848 228.051,241.18" style="fill:#fed600;fill-rule:nonzero;stroke:#ebebeb;stroke-width:0.5px;stroke-linecap:butt;stroke-miterlimit:2;"/>
        <path d="M469.23,240.305C469.23,245.637 461.23,245.637 461.23,240.305C461.23,234.969 469.23,234.969 469.23,240.305" style="fill:#fed600;fill-rule:nonzero;stroke:#ebebeb;stroke-width:0.5px;stroke-linecap:butt;stroke-miterlimit:2;"/>
        <path d="M234.086,203.059C234.086,208.395 226.086,208.395 226.086,203.059C226.086,197.727 234.086,197.727 234.086,203.059" style="fill:#fed600;fill-rule:nonzero;stroke:#ebebeb;stroke-width:0.5px;stroke-linecap:butt;stroke-miterlimit:2;"/>
        <path d="M380.965,265.402C380.965,270.734 372.965,270.734 372.965,265.402C372.965,260.066 380.965,260.066 380.965,265.402" style="fill:#fed600;fill-rule:nonzero;stroke:#ebebeb;stroke-width:0.5px;stroke-linecap:butt;stroke-miterlimit:2;"/>
        <path d="M347.902,260.164C347.902,265.496 339.902,265.496 339.902,260.164C339.902,254.832 347.902,254.832 347.902,260.164" style="fill:#fed600;fill-rule:nonzero;stroke:#ebebeb;stroke-width:0.5px;stroke-linecap:butt;stroke-miterlimit:2;"/>
        <path d="M341.551,220.082C341.551,225.414 333.551,225.414 333.551,220.082C333.551,214.746 341.551,214.746 341.551,220.082" style="fill:#fed600;fill-rule:nonzero;stroke:#ebebeb;stroke-width:0.5px;stroke-linecap:butt;stroke-miterlimit:2;"/>
        <path d="M374.617,225.316C374.617,230.652 366.617,230.652 366.617,225.316C366.617,219.984 374.617,219.984 374.617,225.316" style="fill:#fed600;fill-rule:nonzero;stroke:#ebebeb;stroke-width:0.5px;stroke-linecap:butt;stroke-miterlimit:2;"/>
        <path d="M361.258,242.742C361.258,248.074 353.258,248.074 353.258,242.742C353.258,237.406 361.258,237.406 361.258,242.742" style="fill:#fed600;fill-rule:nonzero;stroke:#ebebeb;stroke-width:0.5px;stroke-linecap:butt;stroke-miterlimit:2;"/>
        <path d="M379.805,90.609C379.805,116.367 358.922,137.25 333.164,137.25C307.406,137.25 286.523,116.367 286.523,90.609C286.523,64.852 307.406,43.969 333.164,43.969C358.922,43.969 379.805,64.852 379.805,90.609" style="fill:#fec900;fill-opacity:0.4;fill-rule:nonzero;stroke:#ebebeb;stroke-width:0.5px;stroke-linecap:butt;stroke-miterlimit:2;"/>
    </g>
</svg>
