<?xml version="1.0" encoding="UTF-8"?>
<svg xmlns="http://www.w3.org/2000/svg" xmlns:xlink="http://www.w3.org/1999/xlink" width="800pt" height="250pt" viewBox="0 0 800 250" version="1.1">
<g id="surface801">
<rect x="0" y="0" width="800" height="250" style="fill:rgb(100%,100%,100%);fill-opacity:1;stroke:none;"/>
<path style=" stroke:none;fill-rule:nonzero;fill:rgb(86%,16%,100%);fill-opacity:0.13;" d="M 61 116 C 61 116 61 115.976562 61 115.980469 M 61 115.980469 C 397.6875 216.453125 592.796875 165.605469 701 115.980469 "/>
<path style=" stroke:none;fill-rule:nonzero;fill:rgb(86.983333%,29%,100%);fill-opacity:0.03;" d="M 61 115.980469 C 397.6875 216.453125 592.796875 165.605469 701 115.980469 "/>
<path style=" stroke:none;fill-rule:nonzero;fill:rgb(82.8%,14%,100%);fill-opacity:0.16;" d="M 61 115.980469 C 397.6875 216.453125 592.796875 165.605469 701 115.980469 "/>
<path style=" stroke:none;fill-rule:nonzero;fill:rgb(58.933333%,12%,100%);fill-opacity:0.05;" d="M 61 115.980469 C 397.6875 216.453125 592.796875 165.605469 701 115.980469 "/>
<path style=" stroke:none;fill-rule:nonzero;fill:rgb(82.266667%,24%,100%);fill-opacity:0.08;" d="M 61 115.980469 C 397.6875 216.453125 592.796875 165.605469 701 115.980469 "/>
<path style=" stroke:none;fill-rule:nonzero;fill:rgb(69.2%,12%,100%);fill-opacity:0.09;" d="M 61 115.980469 C 397.6875 216.453125 592.796875 165.605469 701 115.980469 "/>
<path style=" stroke:none;fill-rule:nonzero;fill:rgb(64.8%,12%,100%);fill-opacity:0.04;" d="M 61 115.980469 C 397.6875 216.453125 592.796875 165.605469 701 115.980469 "/>
<path style=" stroke:none;fill-rule:nonzero;fill:rgb(82.266667%,24%,100%);fill-opacity:0.03;" d="M 61 115.980469 C 397.6875 216.453125 592.796875 165.605469 701 115.980469 "/>
<path style=" stroke:none;fill-rule:nonzero;fill:rgb(72.783333%,29%,100%);fill-opacity:0.01;" d="M 61 115.980469 C 397.6875 216.453125 592.796875 165.605469 701 115.980469 "/>
<path style=" stroke:none;fill-rule:nonzero;fill:rgb(79.033333%,26%,100%);fill-opacity:0.15;" d="M 61 115.980469 C 397.6875 216.453125 592.796875 165.605469 701 115.980469 "/>
<path style=" stroke:none;fill-rule:nonzero;fill:rgb(81.333333%,30%,100%);fill-opacity:0.02;" d="M 61 115.980469 C 397.6875 216.453125 592.796875 165.605469 701 115.980469 "/>
<path style=" stroke:none;fill-rule:nonzero;fill:rgb(86.8%,28%,100%);fill-opacity:0.16;" d="M 61 115.980469 C 397.6875 216.453125 592.796875 165.605469 701 115.980469 "/>
<path style=" stroke:none;fill-rule:nonzero;fill:rgb(67.6%,19%,100%);fill-opacity:0.14;" d="M 61 115.980469 C 397.6875 216.453125 592.796875 165.605469 701 115.980469 "/>
<path style=" stroke:none;fill-rule:nonzero;fill:rgb(72%,16%,100%);fill-opacity:0.09;" d="M 61 115.980469 C 397.6875 216.453125 592.796875 165.605469 701 115.980469 "/>
<path style=" stroke:none;fill-rule:nonzero;fill:rgb(78.4%,19%,100%);fill-opacity:0.12;" d="M 61 115.980469 C 397.6875 216.453125 592.796875 165.605469 701 115.980469 "/>
<path style=" stroke:none;fill-rule:nonzero;fill:rgb(83.5%,10%,100%);fill-opacity:0.19;" d="M 61 115.980469 C 397.6875 216.453125 592.796875 165.605469 701 115.980469 "/>
<path style=" stroke:none;fill-rule:nonzero;fill:rgb(85.4%,27%,100%);fill-opacity:0.09;" d="M 61 115.980469 C 397.6875 216.453125 592.796875 165.605469 701 115.980469 "/>
<path style=" stroke:none;fill-rule:nonzero;fill:rgb(80.533333%,27%,100%);fill-opacity:0.01;" d="M 61 115.980469 C 397.6875 216.453125 592.796875 165.605469 701 115.980469 M 701 115.980469 C 701 115.976562 701 115.996094 701 116 "/>
<path style=" stroke:none;fill-rule:nonzero;fill:rgb(67.416667%,15%,100%);fill-opacity:0.11;" d="M 701 116 C 701 115.996094 700.996094 116.011719 701 116.019531 M 701 116.019531 C 598.179688 91.945312 167.050781 82.046875 61 116.019531 "/>
<path style=" stroke:none;fill-rule:nonzero;fill:rgb(76%,10%,100%);fill-opacity:0.02;" d="M 701 116.019531 C 598.179688 91.945312 167.050781 82.046875 61 116.019531 "/>
<path style=" stroke:none;fill-rule:nonzero;fill:rgb(87%,22%,100%);fill-opacity:0.04;" d="M 701 116.019531 C 598.179688 91.945312 167.050781 82.046875 61 116.019531 "/>
<path style=" stroke:none;fill-rule:nonzero;fill:rgb(86%,16%,100%);fill-opacity:0.09;" d="M 701 116.019531 C 598.179688 91.945312 167.050781 82.046875 61 116.019531 "/>
<path style=" stroke:none;fill-rule:nonzero;fill:rgb(63.6%,22%,100%);fill-opacity:0.11;" d="M 701 116.019531 C 598.179688 91.945312 167.050781 82.046875 61 116.019531 "/>
<path style=" stroke:none;fill-rule:nonzero;fill:rgb(83.666667%,30%,100%);fill-opacity:0.04;" d="M 701 116.019531 C 598.179688 91.945312 167.050781 82.046875 61 116.019531 "/>
<path style=" stroke:none;fill-rule:nonzero;fill:rgb(87.333333%,24%,100%);fill-opacity:0.02;" d="M 701 116.019531 C 598.179688 91.945312 167.050781 82.046875 61 116.019531 "/>
<path style=" stroke:none;fill-rule:nonzero;fill:rgb(67.933333%,26%,100%);fill-opacity:0.13;" d="M 701 116.019531 C 598.179688 91.945312 167.050781 82.046875 61 116.019531 "/>
<path style=" stroke:none;fill-rule:nonzero;fill:rgb(62.3%,22%,100%);fill-opacity:0.04;" d="M 701 116.019531 C 598.179688 91.945312 167.050781 82.046875 61 116.019531 "/>
<path style=" stroke:none;fill-rule:nonzero;fill:rgb(73%,19%,100%);fill-opacity:0.18;" d="M 701 116.019531 C 598.179688 91.945312 167.050781 82.046875 61 116.019531 "/>
<path style=" stroke:none;fill-rule:nonzero;fill:rgb(57%,14%,100%);fill-opacity:0.17;" d="M 701 116.019531 C 598.179688 91.945312 167.050781 82.046875 61 116.019531 "/>
<path style=" stroke:none;fill-rule:nonzero;fill:rgb(72.133333%,12%,100%);fill-opacity:0.09;" d="M 701 116.019531 C 598.179688 91.945312 167.050781 82.046875 61 116.019531 "/>
<path style=" stroke:none;fill-rule:nonzero;fill:rgb(67.6%,28%,100%);fill-opacity:0.07;" d="M 701 116.019531 C 598.179688 91.945312 167.050781 82.046875 61 116.019531 "/>
<path style=" stroke:none;fill-rule:nonzero;fill:rgb(64.033333%,17%,100%);fill-opacity:0.11;" d="M 701 116.019531 C 598.179688 91.945312 167.050781 82.046875 61 116.019531 "/>
<path style=" stroke:none;fill-rule:nonzero;fill:rgb(70.95%,17%,100%);fill-opacity:0.15;" d="M 701 116.019531 C 598.179688 91.945312 167.050781 82.046875 61 116.019531 "/>
<path style=" stroke:none;fill-rule:nonzero;fill:rgb(70.866667%,24%,100%);fill-opacity:0.06;" d="M 701 116.019531 C 598.179688 91.945312 167.050781 82.046875 61 116.019531 "/>
<path style=" stroke:none;fill-rule:nonzero;fill:rgb(78.7%,29%,100%);fill-opacity:0.15;" d="M 701 116.019531 C 598.179688 91.945312 167.050781 82.046875 61 116.019531 "/>
<path style=" stroke:none;fill-rule:nonzero;fill:rgb(60.5%,21%,100%);fill-opacity:0.15;" d="M 701 116.019531 C 598.179688 91.945312 167.050781 82.046875 61 116.019531 "/>
<path style=" stroke:none;fill-rule:nonzero;fill:rgb(79.316667%,27%,100%);fill-opacity:0.18;" d="M 701 116.019531 C 598.179688 91.945312 167.050781 82.046875 61 116.019531 "/>
<path style=" stroke:none;fill-rule:nonzero;fill:rgb(77.2%,28%,100%);fill-opacity:0.01;" d="M 701 116.019531 C 598.179688 91.945312 167.050781 82.046875 61 116.019531 "/>
<path style=" stroke:none;fill-rule:nonzero;fill:rgb(63.75%,13%,100%);fill-opacity:0.15;" d="M 701 116.019531 C 598.179688 91.945312 167.050781 82.046875 61 116.019531 M 61 116.019531 C 61 116.015625 61.003906 116.007812 61 116 "/>
<path style=" stroke:none;fill-rule:nonzero;fill:rgb(60.8%,16%,100%);fill-opacity:0.07;" d="M 61 116.019531 C 61 116.015625 61.003906 116.007812 61 116 M 55 144 C 402.726562 247.765625 405.386719 246.445312 695 144 "/>
<path style=" stroke:none;fill-rule:nonzero;fill:rgb(85.666667%,14%,100%);fill-opacity:0.05;" d="M 55 144 C 402.726562 247.765625 405.386719 246.445312 695 144 "/>
<path style=" stroke:none;fill-rule:nonzero;fill:rgb(62.2%,16%,100%);fill-opacity:0.07;" d="M 55 144 C 402.726562 247.765625 405.386719 246.445312 695 144 "/>
<path style=" stroke:none;fill-rule:nonzero;fill:rgb(74.666667%,24%,100%);fill-opacity:0.06;" d="M 55 144 C 402.726562 247.765625 405.386719 246.445312 695 144 "/>
<path style=" stroke:none;fill-rule:nonzero;fill:rgb(87%,22%,100%);fill-opacity:0.01;" d="M 55 144 C 402.726562 247.765625 405.386719 246.445312 695 144 "/>
<path style=" stroke:none;fill-rule:nonzero;fill:rgb(71.5%,10%,100%);fill-opacity:0.11;" d="M 55 144 C 402.726562 247.765625 405.386719 246.445312 695 144 "/>
<path style=" stroke:none;fill-rule:nonzero;fill:rgb(80.266667%,26%,100%);fill-opacity:0.16;" d="M 55 144 C 402.726562 247.765625 405.386719 246.445312 695 144 "/>
<path style=" stroke:none;fill-rule:nonzero;fill:rgb(68.566667%,18%,100%);fill-opacity:0.14;" d="M 55 144 C 402.726562 247.765625 405.386719 246.445312 695 144 "/>
<path style=" stroke:none;fill-rule:nonzero;fill:rgb(62.65%,17%,100%);fill-opacity:0.19;" d="M 55 144 C 402.726562 247.765625 405.386719 246.445312 695 144 "/>
<path style=" stroke:none;fill-rule:nonzero;fill:rgb(65.416667%,17%,100%);fill-opacity:0.14;" d="M 55 144 C 402.726562 247.765625 405.386719 246.445312 695 144 "/>
<path style=" stroke:none;fill-rule:nonzero;fill:rgb(71.816667%,11%,100%);fill-opacity:0.02;" d="M 55 144 C 402.726562 247.765625 405.386719 246.445312 695 144 "/>
<path style=" stroke:none;fill-rule:nonzero;fill:rgb(66.25%,25%,100%);fill-opacity:0.2;" d="M 55 144 C 402.726562 247.765625 405.386719 246.445312 695 144 "/>
<path style=" stroke:none;fill-rule:nonzero;fill:rgb(84.233333%,14%,100%);fill-opacity:0.06;" d="M 55 144 C 402.726562 247.765625 405.386719 246.445312 695 144 "/>
<path style=" stroke:none;fill-rule:nonzero;fill:rgb(77.6%,16%,100%);fill-opacity:0.08;" d="M 55 144 C 402.726562 247.765625 405.386719 246.445312 695 144 "/>
<path style=" stroke:none;fill-rule:nonzero;fill:rgb(70.666667%,12%,100%);fill-opacity:0.16;" d="M 55 144 C 402.726562 247.765625 405.386719 246.445312 695 144 "/>
<path style=" stroke:none;fill-rule:nonzero;fill:rgb(77.066667%,14%,100%);fill-opacity:0.07;" d="M 55 144 C 402.726562 247.765625 405.386719 246.445312 695 144 "/>
<path style=" stroke:none;fill-rule:nonzero;fill:rgb(57.5%,15%,100%);fill-opacity:0.1;" d="M 55 144 C 402.726562 247.765625 405.386719 246.445312 695 144 "/>
<path style=" stroke:none;fill-rule:nonzero;fill:rgb(63.266667%,24%,100%);fill-opacity:0.05;" d="M 55 144 C 402.726562 247.765625 405.386719 246.445312 695 144 "/>
<path style=" stroke:none;fill-rule:nonzero;fill:rgb(74.783333%,11%,100%);fill-opacity:0.06;" d="M 55 144 C 402.726562 247.765625 405.386719 246.445312 695 144 "/>
<path style=" stroke:none;fill-rule:nonzero;fill:rgb(82.266667%,24%,100%);fill-opacity:0.12;" d="M 55 144 C 402.726562 247.765625 405.386719 246.445312 695 144 M 695 144 C 620.359375 138.015625 199.960938 61 55 144 "/>
<path style=" stroke:none;fill-rule:nonzero;fill:rgb(70.6%,16%,100%);fill-opacity:0.11;" d="M 695 144 C 620.359375 138.015625 199.960938 61 55 144 "/>
<path style=" stroke:none;fill-rule:nonzero;fill:rgb(82.2%,11%,100%);fill-opacity:0.09;" d="M 695 144 C 620.359375 138.015625 199.960938 61 55 144 "/>
<path style=" stroke:none;fill-rule:nonzero;fill:rgb(85.166667%,11%,100%);fill-opacity:0.14;" d="M 695 144 C 620.359375 138.015625 199.960938 61 55 144 "/>
<path style=" stroke:none;fill-rule:nonzero;fill:rgb(85.883333%,23%,100%);fill-opacity:0.08;" d="M 695 144 C 620.359375 138.015625 199.960938 61 55 144 "/>
<path style=" stroke:none;fill-rule:nonzero;fill:rgb(87.333333%,24%,100%);fill-opacity:0.18;" d="M 695 144 C 620.359375 138.015625 199.960938 61 55 144 "/>
<path style=" stroke:none;fill-rule:nonzero;fill:rgb(80.266667%,26%,100%);fill-opacity:0.09;" d="M 695 144 C 620.359375 138.015625 199.960938 61 55 144 "/>
<path style=" stroke:none;fill-rule:nonzero;fill:rgb(76%,28%,100%);fill-opacity:0.13;" d="M 695 144 C 620.359375 138.015625 199.960938 61 55 144 "/>
<path style=" stroke:none;fill-rule:nonzero;fill:rgb(72.666667%,18%,100%);fill-opacity:0.01;" d="M 695 144 C 620.359375 138.015625 199.960938 61 55 144 "/>
<path style=" stroke:none;fill-rule:nonzero;fill:rgb(86.8%,28%,100%);fill-opacity:0.01;" d="M 695 144 C 620.359375 138.015625 199.960938 61 55 144 "/>
<path style=" stroke:none;fill-rule:nonzero;fill:rgb(73.9%,13%,100%);fill-opacity:0.11;" d="M 695 144 C 620.359375 138.015625 199.960938 61 55 144 "/>
<path style=" stroke:none;fill-rule:nonzero;fill:rgb(79%,16%,100%);fill-opacity:0.1;" d="M 695 144 C 620.359375 138.015625 199.960938 61 55 144 "/>
<path style=" stroke:none;fill-rule:nonzero;fill:rgb(85.333333%,12%,100%);fill-opacity:0.06;" d="M 695 144 C 620.359375 138.015625 199.960938 61 55 144 "/>
<path style=" stroke:none;fill-rule:nonzero;fill:rgb(65.35%,23%,100%);fill-opacity:0.09;" d="M 695 144 C 620.359375 138.015625 199.960938 61 55 144 "/>
<path style=" stroke:none;fill-rule:nonzero;fill:rgb(81.583333%,15%,100%);fill-opacity:0.15;" d="M 695 144 C 620.359375 138.015625 199.960938 61 55 144 "/>
<path style=" stroke:none;fill-rule:nonzero;fill:rgb(72.333333%,17%,100%);fill-opacity:0.02;" d="M 695 144 C 620.359375 138.015625 199.960938 61 55 144 "/>
<path style=" stroke:none;fill-rule:nonzero;fill:rgb(80.25%,21%,100%);fill-opacity:0.06;" d="M 695 144 C 620.359375 138.015625 199.960938 61 55 144 "/>
<path style=" stroke:none;fill-rule:nonzero;fill:rgb(68.4%,21%,100%);fill-opacity:0.18;" d="M 695 144 C 620.359375 138.015625 199.960938 61 55 144 "/>
<path style=" stroke:none;fill-rule:nonzero;fill:rgb(70.6%,16%,100%);fill-opacity:0.2;" d="M 695 144 C 620.359375 138.015625 199.960938 61 55 144 M 77 143 C 135.660156 153.070312 589.597656 201.429688 717 143 "/>
<path style=" stroke:none;fill-rule:nonzero;fill:rgb(68.5%,10%,100%);fill-opacity:0.1;" d="M 77 143 C 135.660156 153.070312 589.597656 201.429688 717 143 "/>
<path style=" stroke:none;fill-rule:nonzero;fill:rgb(74.333333%,23%,100%);fill-opacity:0.17;" d="M 77 143 C 135.660156 153.070312 589.597656 201.429688 717 143 "/>
<path style=" stroke:none;fill-rule:nonzero;fill:rgb(66.266667%,12%,100%);fill-opacity:0.2;" d="M 77 143 C 135.660156 153.070312 589.597656 201.429688 717 143 "/>
<path style=" stroke:none;fill-rule:nonzero;fill:rgb(83.2%,28%,100%);fill-opacity:0.03;" d="M 77 143 C 135.660156 153.070312 589.597656 201.429688 717 143 "/>
<path style=" stroke:none;fill-rule:nonzero;fill:rgb(84.183333%,27%,100%);fill-opacity:0.17;" d="M 77 143 C 135.660156 153.070312 589.597656 201.429688 717 143 "/>
<path style=" stroke:none;fill-rule:nonzero;fill:rgb(75%,25%,100%);fill-opacity:0.04;" d="M 77 143 C 135.660156 153.070312 589.597656 201.429688 717 143 "/>
<path style=" stroke:none;fill-rule:nonzero;fill:rgb(70.416667%,29%,100%);fill-opacity:0.12;" d="M 77 143 C 135.660156 153.070312 589.597656 201.429688 717 143 "/>
<path style=" stroke:none;fill-rule:nonzero;fill:rgb(77.333333%,20%,100%);fill-opacity:0.1;" d="M 77 143 C 135.660156 153.070312 589.597656 201.429688 717 143 "/>
<path style=" stroke:none;fill-rule:nonzero;fill:rgb(66.25%,19%,100%);fill-opacity:0.11;" d="M 77 143 C 135.660156 153.070312 589.597656 201.429688 717 143 "/>
<path style=" stroke:none;fill-rule:nonzero;fill:rgb(80.716667%,11%,100%);fill-opacity:0.09;" d="M 77 143 C 135.660156 153.070312 589.597656 201.429688 717 143 "/>
<path style=" stroke:none;fill-rule:nonzero;fill:rgb(62.3%,13%,100%);fill-opacity:0.13;" d="M 77 143 C 135.660156 153.070312 589.597656 201.429688 717 143 "/>
<path style=" stroke:none;fill-rule:nonzero;fill:rgb(59.866667%,14%,100%);fill-opacity:0.01;" d="M 77 143 C 135.660156 153.070312 589.597656 201.429688 717 143 "/>
<path style=" stroke:none;fill-rule:nonzero;fill:rgb(88.333333%,30%,100%);fill-opacity:0.11;" d="M 77 143 C 135.660156 153.070312 589.597656 201.429688 717 143 "/>
<path style=" stroke:none;fill-rule:nonzero;fill:rgb(71.5%,10%,100%);fill-opacity:0.14;" d="M 77 143 C 135.660156 153.070312 589.597656 201.429688 717 143 "/>
<path style=" stroke:none;fill-rule:nonzero;fill:rgb(86.066667%,24%,100%);fill-opacity:0.06;" d="M 77 143 C 135.660156 153.070312 589.597656 201.429688 717 143 "/>
<path style=" stroke:none;fill-rule:nonzero;fill:rgb(72.766667%,14%,100%);fill-opacity:0.09;" d="M 77 143 C 135.660156 153.070312 589.597656 201.429688 717 143 "/>
<path style=" stroke:none;fill-rule:nonzero;fill:rgb(64.166667%,14%,100%);fill-opacity:0.14;" d="M 77 143 C 135.660156 153.070312 589.597656 201.429688 717 143 "/>
<path style=" stroke:none;fill-rule:nonzero;fill:rgb(79.25%,17%,100%);fill-opacity:0.19;" d="M 77 143 C 135.660156 153.070312 589.597656 201.429688 717 143 "/>
<path style=" stroke:none;fill-rule:nonzero;fill:rgb(82.5%,30%,100%);fill-opacity:0.01;" d="M 77 143 C 135.660156 153.070312 589.597656 201.429688 717 143 "/>
<path style=" stroke:none;fill-rule:nonzero;fill:rgb(80.716667%,11%,100%);fill-opacity:0.01;" d="M 77 143 C 135.660156 153.070312 589.597656 201.429688 717 143 M 717 143 C 442.191406 112.648438 421.085938 -27.476562 77 143 "/>
<path style=" stroke:none;fill-rule:nonzero;fill:rgb(67.8%,16%,100%);fill-opacity:0.01;" d="M 717 143 C 442.191406 112.648438 421.085938 -27.476562 77 143 "/>
<path style=" stroke:none;fill-rule:nonzero;fill:rgb(87.5%,25%,100%);fill-opacity:0.12;" d="M 717 143 C 442.191406 112.648438 421.085938 -27.476562 77 143 "/>
<path style=" stroke:none;fill-rule:nonzero;fill:rgb(70.8%,27%,100%);fill-opacity:0.1;" d="M 717 143 C 442.191406 112.648438 421.085938 -27.476562 77 143 "/>
<path style=" stroke:none;fill-rule:nonzero;fill:rgb(67.5%,22%,100%);fill-opacity:0.14;" d="M 717 143 C 442.191406 112.648438 421.085938 -27.476562 77 143 "/>
<path style=" stroke:none;fill-rule:nonzero;fill:rgb(67.6%,19%,100%);fill-opacity:0.16;" d="M 717 143 C 442.191406 112.648438 421.085938 -27.476562 77 143 "/>
<path style=" stroke:none;fill-rule:nonzero;fill:rgb(79.316667%,27%,100%);fill-opacity:0.05;" d="M 717 143 C 442.191406 112.648438 421.085938 -27.476562 77 143 "/>
<path style=" stroke:none;fill-rule:nonzero;fill:rgb(86.666667%,20%,100%);fill-opacity:0.18;" d="M 717 143 C 442.191406 112.648438 421.085938 -27.476562 77 143 "/>
<path style=" stroke:none;fill-rule:nonzero;fill:rgb(73%,19%,100%);fill-opacity:0.14;" d="M 717 143 C 442.191406 112.648438 421.085938 -27.476562 77 143 "/>
<path style=" stroke:none;fill-rule:nonzero;fill:rgb(66.7%,26%,100%);fill-opacity:0.16;" d="M 717 143 C 442.191406 112.648438 421.085938 -27.476562 77 143 "/>
<path style=" stroke:none;fill-rule:nonzero;fill:rgb(76.3%,21%,100%);fill-opacity:0.11;" d="M 717 143 C 442.191406 112.648438 421.085938 -27.476562 77 143 "/>
<path style=" stroke:none;fill-rule:nonzero;fill:rgb(73.75%,25%,100%);fill-opacity:0.13;" d="M 717 143 C 442.191406 112.648438 421.085938 -27.476562 77 143 "/>
<path style=" stroke:none;fill-rule:nonzero;fill:rgb(72.133333%,12%,100%);fill-opacity:0.15;" d="M 717 143 C 442.191406 112.648438 421.085938 -27.476562 77 143 "/>
<path style=" stroke:none;fill-rule:nonzero;fill:rgb(76.566667%,26%,100%);fill-opacity:0.01;" d="M 717 143 C 442.191406 112.648438 421.085938 -27.476562 77 143 "/>
<path style=" stroke:none;fill-rule:nonzero;fill:rgb(75.7%,19%,100%);fill-opacity:0.06;" d="M 717 143 C 442.191406 112.648438 421.085938 -27.476562 77 143 "/>
<path style=" stroke:none;fill-rule:nonzero;fill:rgb(75.7%,19%,100%);fill-opacity:0.15;" d="M 717 143 C 442.191406 112.648438 421.085938 -27.476562 77 143 "/>
<path style=" stroke:none;fill-rule:nonzero;fill:rgb(70.1%,22%,100%);fill-opacity:0.05;" d="M 717 143 C 442.191406 112.648438 421.085938 -27.476562 77 143 "/>
<path style=" stroke:none;fill-rule:nonzero;fill:rgb(68.8%,22%,100%);fill-opacity:0.19;" d="M 717 143 C 442.191406 112.648438 421.085938 -27.476562 77 143 "/>
<path style=" stroke:none;fill-rule:nonzero;fill:rgb(63%,26%,100%);fill-opacity:0.05;" d="M 717 143 C 442.191406 112.648438 421.085938 -27.476562 77 143 "/>
<path style=" stroke:none;fill-rule:nonzero;fill:rgb(87%,22%,100%);fill-opacity:0.13;" d="M 717 143 C 442.191406 112.648438 421.085938 -27.476562 77 143 "/>
<path style=" stroke:none;fill-rule:nonzero;fill:rgb(85.2%,26%,100%);fill-opacity:0.11;" d="M 717 143 C 442.191406 112.648438 421.085938 -27.476562 77 143 M 99 143 C -81.304688 89.195312 411.417969 270.058594 739 143 "/>
<path style=" stroke:none;fill-rule:nonzero;fill:rgb(72.35%,21%,100%);fill-opacity:0.03;" d="M 99 143 C -81.304688 89.195312 411.417969 270.058594 739 143 "/>
<path style=" stroke:none;fill-rule:nonzero;fill:rgb(77.516667%,29%,100%);fill-opacity:0.13;" d="M 99 143 C -81.304688 89.195312 411.417969 270.058594 739 143 "/>
<path style=" stroke:none;fill-rule:nonzero;fill:rgb(71.3%,18%,100%);fill-opacity:0.16;" d="M 99 143 C -81.304688 89.195312 411.417969 270.058594 739 143 "/>
<path style=" stroke:none;fill-rule:nonzero;fill:rgb(72.766667%,14%,100%);fill-opacity:0.03;" d="M 99 143 C -81.304688 89.195312 411.417969 270.058594 739 143 "/>
<path style=" stroke:none;fill-rule:nonzero;fill:rgb(87.833333%,27%,100%);fill-opacity:0.06;" d="M 99 143 C -81.304688 89.195312 411.417969 270.058594 739 143 "/>
<path style=" stroke:none;fill-rule:nonzero;fill:rgb(65.8%,24%,100%);fill-opacity:0.08;" d="M 99 143 C -81.304688 89.195312 411.417969 270.058594 739 143 "/>
<path style=" stroke:none;fill-rule:nonzero;fill:rgb(55.5%,11%,100%);fill-opacity:0.16;" d="M 99 143 C -81.304688 89.195312 411.417969 270.058594 739 143 "/>
<path style=" stroke:none;fill-rule:nonzero;fill:rgb(65.35%,23%,100%);fill-opacity:0.17;" d="M 99 143 C -81.304688 89.195312 411.417969 270.058594 739 143 "/>
<path style=" stroke:none;fill-rule:nonzero;fill:rgb(80%,25%,100%);fill-opacity:0.01;" d="M 99 143 C -81.304688 89.195312 411.417969 270.058594 739 143 "/>
<path style=" stroke:none;fill-rule:nonzero;fill:rgb(61.75%,15%,100%);fill-opacity:0.13;" d="M 99 143 C -81.304688 89.195312 411.417969 270.058594 739 143 "/>
<path style=" stroke:none;fill-rule:nonzero;fill:rgb(68.4%,21%,100%);fill-opacity:0.06;" d="M 99 143 C -81.304688 89.195312 411.417969 270.058594 739 143 "/>
<path style=" stroke:none;fill-rule:nonzero;fill:rgb(70.866667%,24%,100%);fill-opacity:0.11;" d="M 99 143 C -81.304688 89.195312 411.417969 270.058594 739 143 "/>
<path style=" stroke:none;fill-rule:nonzero;fill:rgb(80%,20%,100%);fill-opacity:0.04;" d="M 99 143 C -81.304688 89.195312 411.417969 270.058594 739 143 "/>
<path style=" stroke:none;fill-rule:nonzero;fill:rgb(82.45%,19%,100%);fill-opacity:0.03;" d="M 99 143 C -81.304688 89.195312 411.417969 270.058594 739 143 "/>
<path style=" stroke:none;fill-rule:nonzero;fill:rgb(75.1%,17%,100%);fill-opacity:0.08;" d="M 99 143 C -81.304688 89.195312 411.417969 270.058594 739 143 "/>
<path style=" stroke:none;fill-rule:nonzero;fill:rgb(63.75%,13%,100%);fill-opacity:0.17;" d="M 99 143 C -81.304688 89.195312 411.417969 270.058594 739 143 "/>
<path style=" stroke:none;fill-rule:nonzero;fill:rgb(81.583333%,15%,100%);fill-opacity:0.13;" d="M 99 143 C -81.304688 89.195312 411.417969 270.058594 739 143 "/>
<path style=" stroke:none;fill-rule:nonzero;fill:rgb(58.433333%,14%,100%);fill-opacity:0.18;" d="M 99 143 C -81.304688 89.195312 411.417969 270.058594 739 143 "/>
<path style=" stroke:none;fill-rule:nonzero;fill:rgb(81.333333%,20%,100%);fill-opacity:0.04;" d="M 99 143 C -81.304688 89.195312 411.417969 270.058594 739 143 M 739 143 C 613.746094 113.671875 312.019531 60.378906 99 143 "/>
<path style=" stroke:none;fill-rule:nonzero;fill:rgb(83.683333%,11%,100%);fill-opacity:0.17;" d="M 739 143 C 613.746094 113.671875 312.019531 60.378906 99 143 "/>
<path style=" stroke:none;fill-rule:nonzero;fill:rgb(85.6%,28%,100%);fill-opacity:0.13;" d="M 739 143 C 613.746094 113.671875 312.019531 60.378906 99 143 "/>
<path style=" stroke:none;fill-rule:nonzero;fill:rgb(66.4%,28%,100%);fill-opacity:0.19;" d="M 739 143 C 613.746094 113.671875 312.019531 60.378906 99 143 "/>
<path style=" stroke:none;fill-rule:nonzero;fill:rgb(73.966667%,29%,100%);fill-opacity:0.18;" d="M 739 143 C 613.746094 113.671875 312.019531 60.378906 99 143 "/>
<path style=" stroke:none;fill-rule:nonzero;fill:rgb(76.566667%,26%,100%);fill-opacity:0.15;" d="M 739 143 C 613.746094 113.671875 312.019531 60.378906 99 143 "/>
<path style=" stroke:none;fill-rule:nonzero;fill:rgb(68.75%,25%,100%);fill-opacity:0.2;" d="M 739 143 C 613.746094 113.671875 312.019531 60.378906 99 143 "/>
<path style=" stroke:none;fill-rule:nonzero;fill:rgb(56.5%,10%,100%);fill-opacity:0.04;" d="M 739 143 C 613.746094 113.671875 312.019531 60.378906 99 143 "/>
<path style=" stroke:none;fill-rule:nonzero;fill:rgb(82.883333%,21%,100%);fill-opacity:0.1;" d="M 739 143 C 613.746094 113.671875 312.019531 60.378906 99 143 "/>
<path style=" stroke:none;fill-rule:nonzero;fill:rgb(70.666667%,12%,100%);fill-opacity:0.02;" d="M 739 143 C 613.746094 113.671875 312.019531 60.378906 99 143 "/>
<path style=" stroke:none;fill-rule:nonzero;fill:rgb(73.6%,28%,100%);fill-opacity:0.16;" d="M 739 143 C 613.746094 113.671875 312.019531 60.378906 99 143 "/>
<path style=" stroke:none;fill-rule:nonzero;fill:rgb(66.65%,13%,100%);fill-opacity:0.1;" d="M 739 143 C 613.746094 113.671875 312.019531 60.378906 99 143 "/>
<path style=" stroke:none;fill-rule:nonzero;fill:rgb(82.8%,14%,100%);fill-opacity:0.08;" d="M 739 143 C 613.746094 113.671875 312.019531 60.378906 99 143 "/>
<path style=" stroke:none;fill-rule:nonzero;fill:rgb(61.333333%,20%,100%);fill-opacity:0.04;" d="M 739 143 C 613.746094 113.671875 312.019531 60.378906 99 143 "/>
<path style=" stroke:none;fill-rule:nonzero;fill:rgb(70.4%,26%,100%);fill-opacity:0.07;" d="M 739 143 C 613.746094 113.671875 312.019531 60.378906 99 143 "/>
<path style=" stroke:none;fill-rule:nonzero;fill:rgb(82.966667%,27%,100%);fill-opacity:0.11;" d="M 739 143 C 613.746094 113.671875 312.019531 60.378906 99 143 "/>
<path style=" stroke:none;fill-rule:nonzero;fill:rgb(70.8%,27%,100%);fill-opacity:0.2;" d="M 739 143 C 613.746094 113.671875 312.019531 60.378906 99 143 "/>
<path style=" stroke:none;fill-rule:nonzero;fill:rgb(87.333333%,24%,100%);fill-opacity:0.14;" d="M 739 143 C 613.746094 113.671875 312.019531 60.378906 99 143 "/>
<path style=" stroke:none;fill-rule:nonzero;fill:rgb(61.816667%,21%,100%);fill-opacity:0.18;" d="M 739 143 C 613.746094 113.671875 312.019531 60.378906 99 143 "/>
<path style=" stroke:none;fill-rule:nonzero;fill:rgb(88.166667%,29%,100%);fill-opacity:0.05;" d="M 739 143 C 613.746094 113.671875 312.019531 60.378906 99 143 "/>
<path style=" stroke:none;fill-rule:nonzero;fill:rgb(83.966667%,26%,100%);fill-opacity:0.17;" d="M 739 143 C 613.746094 113.671875 312.019531 60.378906 99 143 M 63 147 C 352.785156 205.742188 377.183594 262.253906 703 147 "/>
<path style=" stroke:none;fill-rule:nonzero;fill:rgb(61.433333%,11%,100%);fill-opacity:0.14;" d="M 63 147 C 352.785156 205.742188 377.183594 262.253906 703 147 "/>
<path style=" stroke:none;fill-rule:nonzero;fill:rgb(86.433333%,26%,100%);fill-opacity:0.18;" d="M 63 147 C 352.785156 205.742188 377.183594 262.253906 703 147 "/>
<path style=" stroke:none;fill-rule:nonzero;fill:rgb(72.4%,28%,100%);fill-opacity:0.17;" d="M 63 147 C 352.785156 205.742188 377.183594 262.253906 703 147 "/>
<path style=" stroke:none;fill-rule:nonzero;fill:rgb(76.533333%,12%,100%);fill-opacity:0.04;" d="M 63 147 C 352.785156 205.742188 377.183594 262.253906 703 147 "/>
<path style=" stroke:none;fill-rule:nonzero;fill:rgb(86.333333%,18%,100%);fill-opacity:0.15;" d="M 63 147 C 352.785156 205.742188 377.183594 262.253906 703 147 "/>
<path style=" stroke:none;fill-rule:nonzero;fill:rgb(85.7%,22%,100%);fill-opacity:0.11;" d="M 63 147 C 352.785156 205.742188 377.183594 262.253906 703 147 "/>
<path style=" stroke:none;fill-rule:nonzero;fill:rgb(67.2%,18%,100%);fill-opacity:0.06;" d="M 63 147 C 352.785156 205.742188 377.183594 262.253906 703 147 "/>
<path style=" stroke:none;fill-rule:nonzero;fill:rgb(71.4%,22%,100%);fill-opacity:0.09;" d="M 63 147 C 352.785156 205.742188 377.183594 262.253906 703 147 "/>
<path style=" stroke:none;fill-rule:nonzero;fill:rgb(68.05%,29%,100%);fill-opacity:0.19;" d="M 63 147 C 352.785156 205.742188 377.183594 262.253906 703 147 "/>
<path style=" stroke:none;fill-rule:nonzero;fill:rgb(72.133333%,24%,100%);fill-opacity:0.11;" d="M 63 147 C 352.785156 205.742188 377.183594 262.253906 703 147 "/>
<path style=" stroke:none;fill-rule:nonzero;fill:rgb(84.6%,16%,100%);fill-opacity:0.13;" d="M 63 147 C 352.785156 205.742188 377.183594 262.253906 703 147 "/>
<path style=" stroke:none;fill-rule:nonzero;fill:rgb(78.1%,27%,100%);fill-opacity:0.15;" d="M 63 147 C 352.785156 205.742188 377.183594 262.253906 703 147 "/>
<path style=" stroke:none;fill-rule:nonzero;fill:rgb(57.95%,13%,100%);fill-opacity:0.14;" d="M 63 147 C 352.785156 205.742188 377.183594 262.253906 703 147 "/>
<path style=" stroke:none;fill-rule:nonzero;fill:rgb(65.8%,24%,100%);fill-opacity:0.2;" d="M 63 147 C 352.785156 205.742188 377.183594 262.253906 703 147 "/>
<path style=" stroke:none;fill-rule:nonzero;fill:rgb(66%,15%,100%);fill-opacity:0.08;" d="M 63 147 C 352.785156 205.742188 377.183594 262.253906 703 147 "/>
<path style=" stroke:none;fill-rule:nonzero;fill:rgb(60%,20%,100%);fill-opacity:0.18;" d="M 63 147 C 352.785156 205.742188 377.183594 262.253906 703 147 "/>
<path style=" stroke:none;fill-rule:nonzero;fill:rgb(84.05%,13%,100%);fill-opacity:0.06;" d="M 63 147 C 352.785156 205.742188 377.183594 262.253906 703 147 "/>
<path style=" stroke:none;fill-rule:nonzero;fill:rgb(73%,19%,100%);fill-opacity:0.07;" d="M 63 147 C 352.785156 205.742188 377.183594 262.253906 703 147 "/>
<path style=" stroke:none;fill-rule:nonzero;fill:rgb(81.15%,13%,100%);fill-opacity:0.17;" d="M 63 147 C 352.785156 205.742188 377.183594 262.253906 703 147 "/>
<path style=" stroke:none;fill-rule:nonzero;fill:rgb(65.466667%,26%,100%);fill-opacity:0.05;" d="M 63 147 C 352.785156 205.742188 377.183594 262.253906 703 147 M 703 147 C 703 147 -78.414062 201.851562 63 147 "/>
<path style=" stroke:none;fill-rule:nonzero;fill:rgb(71.25%,25%,100%);fill-opacity:0.11;" d="M 703 147 C 703 147 -78.414062 201.851562 63 147 "/>
<path style=" stroke:none;fill-rule:nonzero;fill:rgb(75.5%,30%,100%);fill-opacity:0.08;" d="M 703 147 C 703 147 -78.414062 201.851562 63 147 "/>
<path style=" stroke:none;fill-rule:nonzero;fill:rgb(76.333333%,29%,100%);fill-opacity:0.05;" d="M 703 147 C 703 147 -78.414062 201.851562 63 147 "/>
<path style=" stroke:none;fill-rule:nonzero;fill:rgb(83.2%,28%,100%);fill-opacity:0.16;" d="M 703 147 C 703 147 -78.414062 201.851562 63 147 "/>
<path style=" stroke:none;fill-rule:nonzero;fill:rgb(77.9%,22%,100%);fill-opacity:0.15;" d="M 703 147 C 703 147 -78.414062 201.851562 63 147 "/>
<path style=" stroke:none;fill-rule:nonzero;fill:rgb(79.5%,18%,100%);fill-opacity:0.16;" d="M 703 147 C 703 147 -78.414062 201.851562 63 147 "/>
<path style=" stroke:none;fill-rule:nonzero;fill:rgb(85.2%,26%,100%);fill-opacity:0.08;" d="M 703 147 C 703 147 -78.414062 201.851562 63 147 "/>
<path style=" stroke:none;fill-rule:nonzero;fill:rgb(60.333333%,15%,100%);fill-opacity:0.08;" d="M 703 147 C 703 147 -78.414062 201.851562 63 147 "/>
<path style=" stroke:none;fill-rule:nonzero;fill:rgb(68.183333%,17%,100%);fill-opacity:0.14;" d="M 703 147 C 703 147 -78.414062 201.851562 63 147 "/>
<path style=" stroke:none;fill-rule:nonzero;fill:rgb(63.6%,16%,100%);fill-opacity:0.16;" d="M 703 147 C 703 147 -78.414062 201.851562 63 147 "/>
<path style=" stroke:none;fill-rule:nonzero;fill:rgb(73.9%,13%,100%);fill-opacity:0.11;" d="M 703 147 C 703 147 -78.414062 201.851562 63 147 "/>
<path style=" stroke:none;fill-rule:nonzero;fill:rgb(86.333333%,18%,100%);fill-opacity:0.04;" d="M 703 147 C 703 147 -78.414062 201.851562 63 147 "/>
<path style=" stroke:none;fill-rule:nonzero;fill:rgb(81.333333%,30%,100%);fill-opacity:0.15;" d="M 703 147 C 703 147 -78.414062 201.851562 63 147 "/>
<path style=" stroke:none;fill-rule:nonzero;fill:rgb(58.433333%,14%,100%);fill-opacity:0.18;" d="M 703 147 C 703 147 -78.414062 201.851562 63 147 "/>
<path style=" stroke:none;fill-rule:nonzero;fill:rgb(85.883333%,23%,100%);fill-opacity:0.05;" d="M 703 147 C 703 147 -78.414062 201.851562 63 147 "/>
<path style=" stroke:none;fill-rule:nonzero;fill:rgb(63.1%,18%,100%);fill-opacity:0.15;" d="M 703 147 C 703 147 -78.414062 201.851562 63 147 "/>
<path style=" stroke:none;fill-rule:nonzero;fill:rgb(78.4%,28%,100%);fill-opacity:0.05;" d="M 703 147 C 703 147 -78.414062 201.851562 63 147 "/>
<path style=" stroke:none;fill-rule:nonzero;fill:rgb(68.5%,30%,100%);fill-opacity:0.08;" d="M 703 147 C 703 147 -78.414062 201.851562 63 147 "/>
<path style=" stroke:none;fill-rule:nonzero;fill:rgb(78.183333%,23%,100%);fill-opacity:0.12;" d="M 61 122 C 61 121.988281 61 121.980469 61 121.976562 M 61 121.976562 C 371.339844 175.25 785.109375 95.035156 701 121.976562 "/>
<path style=" stroke:none;fill-rule:nonzero;fill:rgb(77.516667%,29%,100%);fill-opacity:0.18;" d="M 61 121.976562 C 371.339844 175.25 785.109375 95.035156 701 121.976562 "/>
<path style=" stroke:none;fill-rule:nonzero;fill:rgb(71.65%,19%,100%);fill-opacity:0.14;" d="M 61 121.976562 C 371.339844 175.25 785.109375 95.035156 701 121.976562 "/>
<path style=" stroke:none;fill-rule:nonzero;fill:rgb(76.766667%,18%,100%);fill-opacity:0.12;" d="M 61 121.976562 C 371.339844 175.25 785.109375 95.035156 701 121.976562 "/>
<path style=" stroke:none;fill-rule:nonzero;fill:rgb(68%,20%,100%);fill-opacity:0.15;" d="M 61 121.976562 C 371.339844 175.25 785.109375 95.035156 701 121.976562 "/>
<path style=" stroke:none;fill-rule:nonzero;fill:rgb(83%,15%,100%);fill-opacity:0.07;" d="M 61 121.976562 C 371.339844 175.25 785.109375 95.035156 701 121.976562 "/>
<path style=" stroke:none;fill-rule:nonzero;fill:rgb(67.733333%,12%,100%);fill-opacity:0.16;" d="M 61 121.976562 C 371.339844 175.25 785.109375 95.035156 701 121.976562 "/>
<path style=" stroke:none;fill-rule:nonzero;fill:rgb(80.266667%,26%,100%);fill-opacity:0.08;" d="M 61 121.976562 C 371.339844 175.25 785.109375 95.035156 701 121.976562 "/>
<path style=" stroke:none;fill-rule:nonzero;fill:rgb(68.833333%,15%,100%);fill-opacity:0.06;" d="M 61 121.976562 C 371.339844 175.25 785.109375 95.035156 701 121.976562 "/>
<path style=" stroke:none;fill-rule:nonzero;fill:rgb(84.783333%,17%,100%);fill-opacity:0.03;" d="M 61 121.976562 C 371.339844 175.25 785.109375 95.035156 701 121.976562 "/>
<path style=" stroke:none;fill-rule:nonzero;fill:rgb(77.5%,10%,100%);fill-opacity:0.09;" d="M 61 121.976562 C 371.339844 175.25 785.109375 95.035156 701 121.976562 "/>
<path style=" stroke:none;fill-rule:nonzero;fill:rgb(63.75%,25%,100%);fill-opacity:0.11;" d="M 61 121.976562 C 371.339844 175.25 785.109375 95.035156 701 121.976562 "/>
<path style=" stroke:none;fill-rule:nonzero;fill:rgb(65%,25%,100%);fill-opacity:0.09;" d="M 61 121.976562 C 371.339844 175.25 785.109375 95.035156 701 121.976562 "/>
<path style=" stroke:none;fill-rule:nonzero;fill:rgb(71.2%,28%,100%);fill-opacity:0.09;" d="M 61 121.976562 C 371.339844 175.25 785.109375 95.035156 701 121.976562 "/>
<path style=" stroke:none;fill-rule:nonzero;fill:rgb(57.466667%,12%,100%);fill-opacity:0.07;" d="M 61 121.976562 C 371.339844 175.25 785.109375 95.035156 701 121.976562 "/>
<path style=" stroke:none;fill-rule:nonzero;fill:rgb(78.933333%,21%,100%);fill-opacity:0.13;" d="M 61 121.976562 C 371.339844 175.25 785.109375 95.035156 701 121.976562 "/>
<path style=" stroke:none;fill-rule:nonzero;fill:rgb(69.933333%,18%,100%);fill-opacity:0.11;" d="M 61 121.976562 C 371.339844 175.25 785.109375 95.035156 701 121.976562 "/>
<path style=" stroke:none;fill-rule:nonzero;fill:rgb(71.633333%,26%,100%);fill-opacity:0.04;" d="M 61 121.976562 C 371.339844 175.25 785.109375 95.035156 701 121.976562 "/>
<path style=" stroke:none;fill-rule:nonzero;fill:rgb(64.45%,21%,100%);fill-opacity:0.06;" d="M 61 121.976562 C 371.339844 175.25 785.109375 95.035156 701 121.976562 "/>
<path style=" stroke:none;fill-rule:nonzero;fill:rgb(67.066667%,24%,100%);fill-opacity:0.01;" d="M 61 121.976562 C 371.339844 175.25 785.109375 95.035156 701 121.976562 "/>
<path style=" stroke:none;fill-rule:nonzero;fill:rgb(77.333333%,20%,100%);fill-opacity:0.04;" d="M 61 121.976562 C 371.339844 175.25 785.109375 95.035156 701 121.976562 M 701 121.976562 C 701 121.984375 700.996094 121.988281 701 122 "/>
<path style=" stroke:none;fill-rule:nonzero;fill:rgb(77.5%,25%,100%);fill-opacity:0.16;" d="M 701 122 C 701 122.003906 701 122.027344 701 122.023438 M 701 122.023438 C 578.511719 112.203125 22.988281 135.46875 61 122.023438 "/>
<path style=" stroke:none;fill-rule:nonzero;fill:rgb(77.333333%,20%,100%);fill-opacity:0.14;" d="M 701 122.023438 C 578.511719 112.203125 22.988281 135.46875 61 122.023438 "/>
<path style=" stroke:none;fill-rule:nonzero;fill:rgb(59.5%,10%,100%);fill-opacity:0.1;" d="M 701 122.023438 C 578.511719 112.203125 22.988281 135.46875 61 122.023438 "/>
<path style=" stroke:none;fill-rule:nonzero;fill:rgb(72.866667%,26%,100%);fill-opacity:0.19;" d="M 701 122.023438 C 578.511719 112.203125 22.988281 135.46875 61 122.023438 "/>
<path style=" stroke:none;fill-rule:nonzero;fill:rgb(65%,25%,100%);fill-opacity:0.18;" d="M 701 122.023438 C 578.511719 112.203125 22.988281 135.46875 61 122.023438 "/>
<path style=" stroke:none;fill-rule:nonzero;fill:rgb(86.333333%,18%,100%);fill-opacity:0.15;" d="M 701 122.023438 C 578.511719 112.203125 22.988281 135.46875 61 122.023438 "/>
<path style=" stroke:none;fill-rule:nonzero;fill:rgb(56.983333%,11%,100%);fill-opacity:0.07;" d="M 701 122.023438 C 578.511719 112.203125 22.988281 135.46875 61 122.023438 "/>
<path style=" stroke:none;fill-rule:nonzero;fill:rgb(86%,30%,100%);fill-opacity:0.11;" d="M 701 122.023438 C 578.511719 112.203125 22.988281 135.46875 61 122.023438 "/>
<path style=" stroke:none;fill-rule:nonzero;fill:rgb(65.766667%,21%,100%);fill-opacity:0.14;" d="M 701 122.023438 C 578.511719 112.203125 22.988281 135.46875 61 122.023438 "/>
<path style=" stroke:none;fill-rule:nonzero;fill:rgb(72.016667%,27%,100%);fill-opacity:0.13;" d="M 701 122.023438 C 578.511719 112.203125 22.988281 135.46875 61 122.023438 "/>
<path style=" stroke:none;fill-rule:nonzero;fill:rgb(66.266667%,12%,100%);fill-opacity:0.13;" d="M 701 122.023438 C 578.511719 112.203125 22.988281 135.46875 61 122.023438 "/>
<path style=" stroke:none;fill-rule:nonzero;fill:rgb(81.333333%,30%,100%);fill-opacity:0.01;" d="M 701 122.023438 C 578.511719 112.203125 22.988281 135.46875 61 122.023438 "/>
<path style=" stroke:none;fill-rule:nonzero;fill:rgb(73.166667%,30%,100%);fill-opacity:0.1;" d="M 701 122.023438 C 578.511719 112.203125 22.988281 135.46875 61 122.023438 "/>
<path style=" stroke:none;fill-rule:nonzero;fill:rgb(55.5%,11%,100%);fill-opacity:0.17;" d="M 701 122.023438 C 578.511719 112.203125 22.988281 135.46875 61 122.023438 "/>
<path style=" stroke:none;fill-rule:nonzero;fill:rgb(66.2%,22%,100%);fill-opacity:0.14;" d="M 701 122.023438 C 578.511719 112.203125 22.988281 135.46875 61 122.023438 "/>
<path style=" stroke:none;fill-rule:nonzero;fill:rgb(59.5%,19%,100%);fill-opacity:0.05;" d="M 701 122.023438 C 578.511719 112.203125 22.988281 135.46875 61 122.023438 "/>
<path style=" stroke:none;fill-rule:nonzero;fill:rgb(77.75%,11%,100%);fill-opacity:0.15;" d="M 701 122.023438 C 578.511719 112.203125 22.988281 135.46875 61 122.023438 "/>
<path style=" stroke:none;fill-rule:nonzero;fill:rgb(76.533333%,12%,100%);fill-opacity:0.01;" d="M 701 122.023438 C 578.511719 112.203125 22.988281 135.46875 61 122.023438 "/>
<path style=" stroke:none;fill-rule:nonzero;fill:rgb(68.5%,30%,100%);fill-opacity:0.11;" d="M 701 122.023438 C 578.511719 112.203125 22.988281 135.46875 61 122.023438 M 61 122.023438 C 61 122.011719 61 122.003906 61 122 "/>
<path style=" stroke:none;fill-rule:nonzero;fill:rgb(65.833333%,18%,100%);fill-opacity:0.17;" d="M 61 122.023438 C 61 122.011719 61 122.003906 61 122 M 77 110 C 77 109.996094 77 109.992188 77 109.988281 "/>
<path style=" stroke:none;fill-rule:nonzero;fill:rgb(66.25%,19%,100%);fill-opacity:0.14;" d="M 77 110 C 77 109.996094 77 109.992188 77 109.988281 M 77 109.988281 C 218.015625 147.503906 846.164062 72.847656 717 109.988281 "/>
<path style=" stroke:none;fill-rule:nonzero;fill:rgb(56.983333%,11%,100%);fill-opacity:0.16;" d="M 77 109.988281 C 218.015625 147.503906 846.164062 72.847656 717 109.988281 "/>
<path style=" stroke:none;fill-rule:nonzero;fill:rgb(73.233333%,27%,100%);fill-opacity:0.13;" d="M 77 109.988281 C 218.015625 147.503906 846.164062 72.847656 717 109.988281 "/>
<path style=" stroke:none;fill-rule:nonzero;fill:rgb(58%,16%,100%);fill-opacity:0.08;" d="M 77 109.988281 C 218.015625 147.503906 846.164062 72.847656 717 109.988281 "/>
<path style=" stroke:none;fill-rule:nonzero;fill:rgb(85.516667%,21%,100%);fill-opacity:0.19;" d="M 77 109.988281 C 218.015625 147.503906 846.164062 72.847656 717 109.988281 "/>
<path style=" stroke:none;fill-rule:nonzero;fill:rgb(72.666667%,18%,100%);fill-opacity:0.02;" d="M 77 109.988281 C 218.015625 147.503906 846.164062 72.847656 717 109.988281 "/>
<path style=" stroke:none;fill-rule:nonzero;fill:rgb(83.75%,25%,100%);fill-opacity:0.05;" d="M 77 109.988281 C 218.015625 147.503906 846.164062 72.847656 717 109.988281 "/>
<path style=" stroke:none;fill-rule:nonzero;fill:rgb(69.9%,14%,100%);fill-opacity:0.05;" d="M 77 109.988281 C 218.015625 147.503906 846.164062 72.847656 717 109.988281 "/>
<path style=" stroke:none;fill-rule:nonzero;fill:rgb(63.133333%,21%,100%);fill-opacity:0.05;" d="M 77 109.988281 C 218.015625 147.503906 846.164062 72.847656 717 109.988281 "/>
<path style=" stroke:none;fill-rule:nonzero;fill:rgb(85.333333%,20%,100%);fill-opacity:0.08;" d="M 77 109.988281 C 218.015625 147.503906 846.164062 72.847656 717 109.988281 "/>
<path style=" stroke:none;fill-rule:nonzero;fill:rgb(61%,10%,100%);fill-opacity:0.07;" d="M 77 109.988281 C 218.015625 147.503906 846.164062 72.847656 717 109.988281 "/>
<path style=" stroke:none;fill-rule:nonzero;fill:rgb(78.133333%,18%,100%);fill-opacity:0.13;" d="M 77 109.988281 C 218.015625 147.503906 846.164062 72.847656 717 109.988281 "/>
<path style=" stroke:none;fill-rule:nonzero;fill:rgb(81.1%,19%,100%);fill-opacity:0.07;" d="M 77 109.988281 C 218.015625 147.503906 846.164062 72.847656 717 109.988281 "/>
<path style=" stroke:none;fill-rule:nonzero;fill:rgb(64.166667%,14%,100%);fill-opacity:0.07;" d="M 77 109.988281 C 218.015625 147.503906 846.164062 72.847656 717 109.988281 "/>
<path style=" stroke:none;fill-rule:nonzero;fill:rgb(81.5%,26%,100%);fill-opacity:0.05;" d="M 77 109.988281 C 218.015625 147.503906 846.164062 72.847656 717 109.988281 "/>
<path style=" stroke:none;fill-rule:nonzero;fill:rgb(81.366667%,14%,100%);fill-opacity:0.06;" d="M 77 109.988281 C 218.015625 147.503906 846.164062 72.847656 717 109.988281 "/>
<path style=" stroke:none;fill-rule:nonzero;fill:rgb(68.833333%,15%,100%);fill-opacity:0.09;" d="M 77 109.988281 C 218.015625 147.503906 846.164062 72.847656 717 109.988281 "/>
<path style=" stroke:none;fill-rule:nonzero;fill:rgb(85.6%,28%,100%);fill-opacity:0.09;" d="M 77 109.988281 C 218.015625 147.503906 846.164062 72.847656 717 109.988281 "/>
<path style=" stroke:none;fill-rule:nonzero;fill:rgb(83.966667%,26%,100%);fill-opacity:0.17;" d="M 77 109.988281 C 218.015625 147.503906 846.164062 72.847656 717 109.988281 "/>
<path style=" stroke:none;fill-rule:nonzero;fill:rgb(76.883333%,27%,100%);fill-opacity:0.05;" d="M 77 109.988281 C 218.015625 147.503906 846.164062 72.847656 717 109.988281 M 717 109.988281 C 717 109.992188 717 110 717 110 "/>
<path style=" stroke:none;fill-rule:nonzero;fill:rgb(82.25%,29%,100%);fill-opacity:0.16;" d="M 717 110 C 717 110 717 110.007812 717 110.011719 M 717 110.011719 C 828.222656 115.574219 56.703125 115.847656 77 110.011719 "/>
<path style=" stroke:none;fill-rule:nonzero;fill:rgb(60.333333%,15%,100%);fill-opacity:0.11;" d="M 717 110.011719 C 828.222656 115.574219 56.703125 115.847656 77 110.011719 "/>
<path style=" stroke:none;fill-rule:nonzero;fill:rgb(69.716667%,21%,100%);fill-opacity:0.03;" d="M 717 110.011719 C 828.222656 115.574219 56.703125 115.847656 77 110.011719 "/>
<path style=" stroke:none;fill-rule:nonzero;fill:rgb(72%,30%,100%);fill-opacity:0.05;" d="M 717 110.011719 C 828.222656 115.574219 56.703125 115.847656 77 110.011719 "/>
<path style=" stroke:none;fill-rule:nonzero;fill:rgb(62.3%,22%,100%);fill-opacity:0.04;" d="M 717 110.011719 C 828.222656 115.574219 56.703125 115.847656 77 110.011719 "/>
<path style=" stroke:none;fill-rule:nonzero;fill:rgb(75.333333%,26%,100%);fill-opacity:0.13;" d="M 717 110.011719 C 828.222656 115.574219 56.703125 115.847656 77 110.011719 "/>
<path style=" stroke:none;fill-rule:nonzero;fill:rgb(69.9%,14%,100%);fill-opacity:0.07;" d="M 717 110.011719 C 828.222656 115.574219 56.703125 115.847656 77 110.011719 "/>
<path style=" stroke:none;fill-rule:nonzero;fill:rgb(80%,25%,100%);fill-opacity:0.15;" d="M 717 110.011719 C 828.222656 115.574219 56.703125 115.847656 77 110.011719 "/>
<path style=" stroke:none;fill-rule:nonzero;fill:rgb(60.8%,16%,100%);fill-opacity:0.2;" d="M 717 110.011719 C 828.222656 115.574219 56.703125 115.847656 77 110.011719 "/>
<path style=" stroke:none;fill-rule:nonzero;fill:rgb(62.2%,19%,100%);fill-opacity:0.1;" d="M 717 110.011719 C 828.222656 115.574219 56.703125 115.847656 77 110.011719 "/>
<path style=" stroke:none;fill-rule:nonzero;fill:rgb(71.25%,25%,100%);fill-opacity:0.15;" d="M 717 110.011719 C 828.222656 115.574219 56.703125 115.847656 77 110.011719 "/>
<path style=" stroke:none;fill-rule:nonzero;fill:rgb(71.766667%,23%,100%);fill-opacity:0.03;" d="M 717 110.011719 C 828.222656 115.574219 56.703125 115.847656 77 110.011719 "/>
<path style=" stroke:none;fill-rule:nonzero;fill:rgb(77.75%,11%,100%);fill-opacity:0.04;" d="M 717 110.011719 C 828.222656 115.574219 56.703125 115.847656 77 110.011719 "/>
<path style=" stroke:none;fill-rule:nonzero;fill:rgb(71.333333%,14%,100%);fill-opacity:0.01;" d="M 717 110.011719 C 828.222656 115.574219 56.703125 115.847656 77 110.011719 "/>
<path style=" stroke:none;fill-rule:nonzero;fill:rgb(84.6%,16%,100%);fill-opacity:0.19;" d="M 717 110.011719 C 828.222656 115.574219 56.703125 115.847656 77 110.011719 "/>
<path style=" stroke:none;fill-rule:nonzero;fill:rgb(77.833333%,30%,100%);fill-opacity:0.07;" d="M 717 110.011719 C 828.222656 115.574219 56.703125 115.847656 77 110.011719 "/>
<path style=" stroke:none;fill-rule:nonzero;fill:rgb(62.3%,13%,100%);fill-opacity:0.1;" d="M 717 110.011719 C 828.222656 115.574219 56.703125 115.847656 77 110.011719 "/>
<path style=" stroke:none;fill-rule:nonzero;fill:rgb(78.1%,27%,100%);fill-opacity:0.19;" d="M 717 110.011719 C 828.222656 115.574219 56.703125 115.847656 77 110.011719 "/>
<path style=" stroke:none;fill-rule:nonzero;fill:rgb(68.333333%,24%,100%);fill-opacity:0.06;" d="M 717 110.011719 C 828.222656 115.574219 56.703125 115.847656 77 110.011719 "/>
<path style=" stroke:none;fill-rule:nonzero;fill:rgb(78.75%,25%,100%);fill-opacity:0.1;" d="M 717 110.011719 C 828.222656 115.574219 56.703125 115.847656 77 110.011719 M 77 110.011719 C 77 110.011719 77 110 77 110 "/>
<path style=" stroke:none;fill-rule:nonzero;fill:rgb(69.333333%,20%,100%);fill-opacity:0.05;" d="M 77 110.011719 C 77 110.011719 77 110 77 110 M 100 132 C -34.984375 112.976562 618.027344 197.058594 740 132 "/>
<path style=" stroke:none;fill-rule:nonzero;fill:rgb(83%,15%,100%);fill-opacity:0.1;" d="M 100 132 C -34.984375 112.976562 618.027344 197.058594 740 132 "/>
<path style=" stroke:none;fill-rule:nonzero;fill:rgb(58.466667%,11%,100%);fill-opacity:0.06;" d="M 100 132 C -34.984375 112.976562 618.027344 197.058594 740 132 "/>
<path style=" stroke:none;fill-rule:nonzero;fill:rgb(83.4%,17%,100%);fill-opacity:0.03;" d="M 100 132 C -34.984375 112.976562 618.027344 197.058594 740 132 "/>
<path style=" stroke:none;fill-rule:nonzero;fill:rgb(74.033333%,18%,100%);fill-opacity:0.06;" d="M 100 132 C -34.984375 112.976562 618.027344 197.058594 740 132 "/>
<path style=" stroke:none;fill-rule:nonzero;fill:rgb(61%,22%,100%);fill-opacity:0.02;" d="M 100 132 C -34.984375 112.976562 618.027344 197.058594 740 132 "/>
<path style=" stroke:none;fill-rule:nonzero;fill:rgb(66.666667%,20%,100%);fill-opacity:0.13;" d="M 100 132 C -34.984375 112.976562 618.027344 197.058594 740 132 "/>
<path style=" stroke:none;fill-rule:nonzero;fill:rgb(83.433333%,29%,100%);fill-opacity:0.01;" d="M 100 132 C -34.984375 112.976562 618.027344 197.058594 740 132 "/>
<path style=" stroke:none;fill-rule:nonzero;fill:rgb(85.5%,13%,100%);fill-opacity:0.1;" d="M 100 132 C -34.984375 112.976562 618.027344 197.058594 740 132 "/>
<path style=" stroke:none;fill-rule:nonzero;fill:rgb(83.2%,28%,100%);fill-opacity:0.05;" d="M 100 132 C -34.984375 112.976562 618.027344 197.058594 740 132 "/>
<path style=" stroke:none;fill-rule:nonzero;fill:rgb(64.9%,19%,100%);fill-opacity:0.03;" d="M 100 132 C -34.984375 112.976562 618.027344 197.058594 740 132 "/>
<path style=" stroke:none;fill-rule:nonzero;fill:rgb(71.633333%,26%,100%);fill-opacity:0.06;" d="M 100 132 C -34.984375 112.976562 618.027344 197.058594 740 132 "/>
<path style=" stroke:none;fill-rule:nonzero;fill:rgb(67.083333%,21%,100%);fill-opacity:0.12;" d="M 100 132 C -34.984375 112.976562 618.027344 197.058594 740 132 "/>
<path style=" stroke:none;fill-rule:nonzero;fill:rgb(71.4%,22%,100%);fill-opacity:0.05;" d="M 100 132 C -34.984375 112.976562 618.027344 197.058594 740 132 "/>
<path style=" stroke:none;fill-rule:nonzero;fill:rgb(82.266667%,24%,100%);fill-opacity:0.11;" d="M 100 132 C -34.984375 112.976562 618.027344 197.058594 740 132 "/>
<path style=" stroke:none;fill-rule:nonzero;fill:rgb(63.75%,25%,100%);fill-opacity:0.03;" d="M 100 132 C -34.984375 112.976562 618.027344 197.058594 740 132 "/>
<path style=" stroke:none;fill-rule:nonzero;fill:rgb(78.75%,15%,100%);fill-opacity:0.18;" d="M 100 132 C -34.984375 112.976562 618.027344 197.058594 740 132 "/>
<path style=" stroke:none;fill-rule:nonzero;fill:rgb(63.333333%,12%,100%);fill-opacity:0.19;" d="M 100 132 C -34.984375 112.976562 618.027344 197.058594 740 132 "/>
<path style=" stroke:none;fill-rule:nonzero;fill:rgb(74.35%,19%,100%);fill-opacity:0.15;" d="M 100 132 C -34.984375 112.976562 618.027344 197.058594 740 132 M 740 132 C 738.160156 131.449219 419.222656 40.207031 100 132 "/>
<path style=" stroke:none;fill-rule:nonzero;fill:rgb(79.466667%,12%,100%);fill-opacity:0.07;" d="M 740 132 C 738.160156 131.449219 419.222656 40.207031 100 132 "/>
<path style=" stroke:none;fill-rule:nonzero;fill:rgb(67.933333%,26%,100%);fill-opacity:0.07;" d="M 740 132 C 738.160156 131.449219 419.222656 40.207031 100 132 "/>
<path style=" stroke:none;fill-rule:nonzero;fill:rgb(87.833333%,27%,100%);fill-opacity:0.05;" d="M 740 132 C 738.160156 131.449219 419.222656 40.207031 100 132 "/>
<path style=" stroke:none;fill-rule:nonzero;fill:rgb(58%,10%,100%);fill-opacity:0.15;" d="M 740 132 C 738.160156 131.449219 419.222656 40.207031 100 132 "/>
<path style=" stroke:none;fill-rule:nonzero;fill:rgb(78.7%,29%,100%);fill-opacity:0.19;" d="M 740 132 C 738.160156 131.449219 419.222656 40.207031 100 132 "/>
<path style=" stroke:none;fill-rule:nonzero;fill:rgb(62.2%,19%,100%);fill-opacity:0.15;" d="M 740 132 C 738.160156 131.449219 419.222656 40.207031 100 132 "/>
<path style=" stroke:none;fill-rule:nonzero;fill:rgb(73.3%,11%,100%);fill-opacity:0.16;" d="M 740 132 C 738.160156 131.449219 419.222656 40.207031 100 132 "/>
<path style=" stroke:none;fill-rule:nonzero;fill:rgb(59.5%,10%,100%);fill-opacity:0.08;" d="M 740 132 C 738.160156 131.449219 419.222656 40.207031 100 132 "/>
<path style=" stroke:none;fill-rule:nonzero;fill:rgb(86.616667%,27%,100%);fill-opacity:0.19;" d="M 740 132 C 738.160156 131.449219 419.222656 40.207031 100 132 "/>
<path style=" stroke:none;fill-rule:nonzero;fill:rgb(62.783333%,23%,100%);fill-opacity:0.16;" d="M 740 132 C 738.160156 131.449219 419.222656 40.207031 100 132 "/>
<path style=" stroke:none;fill-rule:nonzero;fill:rgb(67.15%,27%,100%);fill-opacity:0.18;" d="M 740 132 C 738.160156 131.449219 419.222656 40.207031 100 132 "/>
<path style=" stroke:none;fill-rule:nonzero;fill:rgb(62.5%,25%,100%);fill-opacity:0.02;" d="M 740 132 C 738.160156 131.449219 419.222656 40.207031 100 132 "/>
<path style=" stroke:none;fill-rule:nonzero;fill:rgb(79.233333%,11%,100%);fill-opacity:0.06;" d="M 740 132 C 738.160156 131.449219 419.222656 40.207031 100 132 "/>
<path style=" stroke:none;fill-rule:nonzero;fill:rgb(82.233333%,18%,100%);fill-opacity:0.2;" d="M 740 132 C 738.160156 131.449219 419.222656 40.207031 100 132 "/>
<path style=" stroke:none;fill-rule:nonzero;fill:rgb(62.5%,25%,100%);fill-opacity:0.01;" d="M 740 132 C 738.160156 131.449219 419.222656 40.207031 100 132 "/>
<path style=" stroke:none;fill-rule:nonzero;fill:rgb(70.1%,22%,100%);fill-opacity:0.1;" d="M 740 132 C 738.160156 131.449219 419.222656 40.207031 100 132 "/>
<path style=" stroke:none;fill-rule:nonzero;fill:rgb(72.4%,28%,100%);fill-opacity:0.16;" d="M 740 132 C 738.160156 131.449219 419.222656 40.207031 100 132 "/>
<path style=" stroke:none;fill-rule:nonzero;fill:rgb(63.75%,25%,100%);fill-opacity:0.03;" d="M 740 132 C 738.160156 131.449219 419.222656 40.207031 100 132 "/>
<path style=" stroke:none;fill-rule:nonzero;fill:rgb(66.633333%,23%,100%);fill-opacity:0.1;" d="M 740 132 C 738.160156 131.449219 419.222656 40.207031 100 132 M 59 139 C 371.023438 252.898438 705.980469 135.796875 699 139 "/>
<path style=" stroke:none;fill-rule:nonzero;fill:rgb(61.266667%,17%,100%);fill-opacity:0.02;" d="M 59 139 C 371.023438 252.898438 705.980469 135.796875 699 139 "/>
<path style=" stroke:none;fill-rule:nonzero;fill:rgb(66.25%,25%,100%);fill-opacity:0.08;" d="M 59 139 C 371.023438 252.898438 705.980469 135.796875 699 139 "/>
<path style=" stroke:none;fill-rule:nonzero;fill:rgb(83.75%,25%,100%);fill-opacity:0.15;" d="M 59 139 C 371.023438 252.898438 705.980469 135.796875 699 139 "/>
<path style=" stroke:none;fill-rule:nonzero;fill:rgb(85.883333%,23%,100%);fill-opacity:0.16;" d="M 59 139 C 371.023438 252.898438 705.980469 135.796875 699 139 "/>
<path style=" stroke:none;fill-rule:nonzero;fill:rgb(73.083333%,15%,100%);fill-opacity:0.03;" d="M 59 139 C 371.023438 252.898438 705.980469 135.796875 699 139 "/>
<path style=" stroke:none;fill-rule:nonzero;fill:rgb(63.1%,18%,100%);fill-opacity:0.15;" d="M 59 139 C 371.023438 252.898438 705.980469 135.796875 699 139 "/>
<path style=" stroke:none;fill-rule:nonzero;fill:rgb(75.333333%,26%,100%);fill-opacity:0.16;" d="M 59 139 C 371.023438 252.898438 705.980469 135.796875 699 139 "/>
<path style=" stroke:none;fill-rule:nonzero;fill:rgb(81.75%,27%,100%);fill-opacity:0.13;" d="M 59 139 C 371.023438 252.898438 705.980469 135.796875 699 139 "/>
<path style=" stroke:none;fill-rule:nonzero;fill:rgb(61%,10%,100%);fill-opacity:0.02;" d="M 59 139 C 371.023438 252.898438 705.980469 135.796875 699 139 "/>
<path style=" stroke:none;fill-rule:nonzero;fill:rgb(58.433333%,14%,100%);fill-opacity:0.02;" d="M 59 139 C 371.023438 252.898438 705.980469 135.796875 699 139 "/>
<path style=" stroke:none;fill-rule:nonzero;fill:rgb(87.333333%,24%,100%);fill-opacity:0.01;" d="M 59 139 C 371.023438 252.898438 705.980469 135.796875 699 139 "/>
<path style=" stroke:none;fill-rule:nonzero;fill:rgb(72.766667%,14%,100%);fill-opacity:0.07;" d="M 59 139 C 371.023438 252.898438 705.980469 135.796875 699 139 "/>
<path style=" stroke:none;fill-rule:nonzero;fill:rgb(84.616667%,29%,100%);fill-opacity:0.18;" d="M 59 139 C 371.023438 252.898438 705.980469 135.796875 699 139 "/>
<path style=" stroke:none;fill-rule:nonzero;fill:rgb(67.15%,27%,100%);fill-opacity:0.08;" d="M 59 139 C 371.023438 252.898438 705.980469 135.796875 699 139 "/>
<path style=" stroke:none;fill-rule:nonzero;fill:rgb(86.166667%,17%,100%);fill-opacity:0.07;" d="M 59 139 C 371.023438 252.898438 705.980469 135.796875 699 139 "/>
<path style=" stroke:none;fill-rule:nonzero;fill:rgb(79.233333%,11%,100%);fill-opacity:0.16;" d="M 59 139 C 371.023438 252.898438 705.980469 135.796875 699 139 "/>
<path style=" stroke:none;fill-rule:nonzero;fill:rgb(79.316667%,27%,100%);fill-opacity:0.12;" d="M 59 139 C 371.023438 252.898438 705.980469 135.796875 699 139 "/>
<path style=" stroke:none;fill-rule:nonzero;fill:rgb(78.75%,25%,100%);fill-opacity:0.17;" d="M 59 139 C 371.023438 252.898438 705.980469 135.796875 699 139 "/>
<path style=" stroke:none;fill-rule:nonzero;fill:rgb(85.8%,29%,100%);fill-opacity:0.18;" d="M 59 139 C 371.023438 252.898438 705.980469 135.796875 699 139 M 699 139 C 581.25 103.863281 391.953125 9.859375 59 139 "/>
<path style=" stroke:none;fill-rule:nonzero;fill:rgb(74.1%,26%,100%);fill-opacity:0.19;" d="M 699 139 C 581.25 103.863281 391.953125 9.859375 59 139 "/>
<path style=" stroke:none;fill-rule:nonzero;fill:rgb(62.65%,17%,100%);fill-opacity:0.2;" d="M 699 139 C 581.25 103.863281 391.953125 9.859375 59 139 "/>
<path style=" stroke:none;fill-rule:nonzero;fill:rgb(74%,22%,100%);fill-opacity:0.19;" d="M 699 139 C 581.25 103.863281 391.953125 9.859375 59 139 "/>
<path style=" stroke:none;fill-rule:nonzero;fill:rgb(77.333333%,15%,100%);fill-opacity:0.03;" d="M 699 139 C 581.25 103.863281 391.953125 9.859375 59 139 "/>
<path style=" stroke:none;fill-rule:nonzero;fill:rgb(66.2%,22%,100%);fill-opacity:0.2;" d="M 699 139 C 581.25 103.863281 391.953125 9.859375 59 139 "/>
<path style=" stroke:none;fill-rule:nonzero;fill:rgb(72%,20%,100%);fill-opacity:0.13;" d="M 699 139 C 581.25 103.863281 391.953125 9.859375 59 139 "/>
<path style=" stroke:none;fill-rule:nonzero;fill:rgb(79.733333%,24%,100%);fill-opacity:0.11;" d="M 699 139 C 581.25 103.863281 391.953125 9.859375 59 139 "/>
<path style=" stroke:none;fill-rule:nonzero;fill:rgb(71.2%,28%,100%);fill-opacity:0.14;" d="M 699 139 C 581.25 103.863281 391.953125 9.859375 59 139 "/>
<path style=" stroke:none;fill-rule:nonzero;fill:rgb(65%,25%,100%);fill-opacity:0.11;" d="M 699 139 C 581.25 103.863281 391.953125 9.859375 59 139 "/>
<path style=" stroke:none;fill-rule:nonzero;fill:rgb(77.066667%,14%,100%);fill-opacity:0.17;" d="M 699 139 C 581.25 103.863281 391.953125 9.859375 59 139 "/>
<path style=" stroke:none;fill-rule:nonzero;fill:rgb(80.633333%,17%,100%);fill-opacity:0.03;" d="M 699 139 C 581.25 103.863281 391.953125 9.859375 59 139 "/>
<path style=" stroke:none;fill-rule:nonzero;fill:rgb(71.3%,18%,100%);fill-opacity:0.09;" d="M 699 139 C 581.25 103.863281 391.953125 9.859375 59 139 "/>
<path style=" stroke:none;fill-rule:nonzero;fill:rgb(80%,20%,100%);fill-opacity:0.03;" d="M 699 139 C 581.25 103.863281 391.953125 9.859375 59 139 "/>
<path style=" stroke:none;fill-rule:nonzero;fill:rgb(73.6%,28%,100%);fill-opacity:0.04;" d="M 699 139 C 581.25 103.863281 391.953125 9.859375 59 139 "/>
<path style=" stroke:none;fill-rule:nonzero;fill:rgb(68%,20%,100%);fill-opacity:0.19;" d="M 699 139 C 581.25 103.863281 391.953125 9.859375 59 139 "/>
<path style=" stroke:none;fill-rule:nonzero;fill:rgb(68.5%,10%,100%);fill-opacity:0.12;" d="M 699 139 C 581.25 103.863281 391.953125 9.859375 59 139 "/>
<path style=" stroke:none;fill-rule:nonzero;fill:rgb(73.666667%,21%,100%);fill-opacity:0.17;" d="M 699 139 C 581.25 103.863281 391.953125 9.859375 59 139 "/>
<path style=" stroke:none;fill-rule:nonzero;fill:rgb(65.466667%,26%,100%);fill-opacity:0.15;" d="M 699 139 C 581.25 103.863281 391.953125 9.859375 59 139 "/>
<path style=" stroke:none;fill-rule:nonzero;fill:rgb(78.75%,25%,100%);fill-opacity:0.15;" d="M 699 139 C 581.25 103.863281 391.953125 9.859375 59 139 "/>
<path style=" stroke:none;fill-rule:nonzero;fill:rgb(77.2%,28%,100%);fill-opacity:0.2;" d="M 699 139 C 581.25 103.863281 391.953125 9.859375 59 139 M 94 150 C 94.003906 149.992188 94 149.988281 94 149.984375 "/>
<path style=" stroke:none;fill-rule:nonzero;fill:rgb(81.583333%,15%,100%);fill-opacity:0.03;" d="M 94 150 C 94.003906 149.992188 94 149.988281 94 149.984375 M 94 149.984375 C 353.25 194.488281 893.160156 82.695312 734 149.984375 "/>
<path style=" stroke:none;fill-rule:nonzero;fill:rgb(85.833333%,15%,100%);fill-opacity:0.05;" d="M 94 149.984375 C 353.25 194.488281 893.160156 82.695312 734 149.984375 "/>
<path style=" stroke:none;fill-rule:nonzero;fill:rgb(81.8%,16%,100%);fill-opacity:0.2;" d="M 94 149.984375 C 353.25 194.488281 893.160156 82.695312 734 149.984375 "/>
<path style=" stroke:none;fill-rule:nonzero;fill:rgb(88%,28%,100%);fill-opacity:0.07;" d="M 94 149.984375 C 353.25 194.488281 893.160156 82.695312 734 149.984375 "/>
<path style=" stroke:none;fill-rule:nonzero;fill:rgb(66.666667%,20%,100%);fill-opacity:0.06;" d="M 94 149.984375 C 353.25 194.488281 893.160156 82.695312 734 149.984375 "/>
<path style=" stroke:none;fill-rule:nonzero;fill:rgb(82%,10%,100%);fill-opacity:0.12;" d="M 94 149.984375 C 353.25 194.488281 893.160156 82.695312 734 149.984375 "/>
<path style=" stroke:none;fill-rule:nonzero;fill:rgb(81.583333%,15%,100%);fill-opacity:0.13;" d="M 94 149.984375 C 353.25 194.488281 893.160156 82.695312 734 149.984375 "/>
<path style=" stroke:none;fill-rule:nonzero;fill:rgb(73.233333%,27%,100%);fill-opacity:0.2;" d="M 94 149.984375 C 353.25 194.488281 893.160156 82.695312 734 149.984375 "/>
<path style=" stroke:none;fill-rule:nonzero;fill:rgb(63.5%,27%,100%);fill-opacity:0.06;" d="M 94 149.984375 C 353.25 194.488281 893.160156 82.695312 734 149.984375 "/>
<path style=" stroke:none;fill-rule:nonzero;fill:rgb(85.666667%,14%,100%);fill-opacity:0.19;" d="M 94 149.984375 C 353.25 194.488281 893.160156 82.695312 734 149.984375 "/>
<path style=" stroke:none;fill-rule:nonzero;fill:rgb(80%,20%,100%);fill-opacity:0.17;" d="M 94 149.984375 C 353.25 194.488281 893.160156 82.695312 734 149.984375 "/>
<path style=" stroke:none;fill-rule:nonzero;fill:rgb(78.75%,15%,100%);fill-opacity:0.14;" d="M 94 149.984375 C 353.25 194.488281 893.160156 82.695312 734 149.984375 "/>
<path style=" stroke:none;fill-rule:nonzero;fill:rgb(72.866667%,26%,100%);fill-opacity:0.11;" d="M 94 149.984375 C 353.25 194.488281 893.160156 82.695312 734 149.984375 "/>
<path style=" stroke:none;fill-rule:nonzero;fill:rgb(77.6%,16%,100%);fill-opacity:0.05;" d="M 94 149.984375 C 353.25 194.488281 893.160156 82.695312 734 149.984375 "/>
<path style=" stroke:none;fill-rule:nonzero;fill:rgb(62.666667%,20%,100%);fill-opacity:0.08;" d="M 94 149.984375 C 353.25 194.488281 893.160156 82.695312 734 149.984375 "/>
<path style=" stroke:none;fill-rule:nonzero;fill:rgb(60.5%,21%,100%);fill-opacity:0.12;" d="M 94 149.984375 C 353.25 194.488281 893.160156 82.695312 734 149.984375 "/>
<path style=" stroke:none;fill-rule:nonzero;fill:rgb(83.316667%,23%,100%);fill-opacity:0.13;" d="M 94 149.984375 C 353.25 194.488281 893.160156 82.695312 734 149.984375 "/>
<path style=" stroke:none;fill-rule:nonzero;fill:rgb(59.883333%,17%,100%);fill-opacity:0.03;" d="M 94 149.984375 C 353.25 194.488281 893.160156 82.695312 734 149.984375 M 734 149.984375 C 734 149.992188 734 150 734 150 "/>
<path style=" stroke:none;fill-rule:nonzero;fill:rgb(84%,20%,100%);fill-opacity:0.07;" d="M 734 150 C 734 150.003906 734 150.011719 734 150.015625 M 734 150.015625 C 551.746094 89.617188 145.667969 135.15625 94 150.015625 "/>
<path style=" stroke:none;fill-rule:nonzero;fill:rgb(63.333333%,12%,100%);fill-opacity:0.05;" d="M 734 150.015625 C 551.746094 89.617188 145.667969 135.15625 94 150.015625 "/>
<path style=" stroke:none;fill-rule:nonzero;fill:rgb(82.8%,14%,100%);fill-opacity:0.01;" d="M 734 150.015625 C 551.746094 89.617188 145.667969 135.15625 94 150.015625 "/>
<path style=" stroke:none;fill-rule:nonzero;fill:rgb(61%,10%,100%);fill-opacity:0.17;" d="M 734 150.015625 C 551.746094 89.617188 145.667969 135.15625 94 150.015625 "/>
<path style=" stroke:none;fill-rule:nonzero;fill:rgb(82.666667%,20%,100%);fill-opacity:0.03;" d="M 734 150.015625 C 551.746094 89.617188 145.667969 135.15625 94 150.015625 "/>
<path style=" stroke:none;fill-rule:nonzero;fill:rgb(81.066667%,29%,100%);fill-opacity:0.03;" d="M 734 150.015625 C 551.746094 89.617188 145.667969 135.15625 94 150.015625 "/>
<path style=" stroke:none;fill-rule:nonzero;fill:rgb(82.4%,12%,100%);fill-opacity:0.03;" d="M 734 150.015625 C 551.746094 89.617188 145.667969 135.15625 94 150.015625 "/>
<path style=" stroke:none;fill-rule:nonzero;fill:rgb(64.533333%,24%,100%);fill-opacity:0.19;" d="M 734 150.015625 C 551.746094 89.617188 145.667969 135.15625 94 150.015625 "/>
<path style=" stroke:none;fill-rule:nonzero;fill:rgb(76.333333%,29%,100%);fill-opacity:0.02;" d="M 734 150.015625 C 551.746094 89.617188 145.667969 135.15625 94 150.015625 "/>
<path style=" stroke:none;fill-rule:nonzero;fill:rgb(80.75%,23%,100%);fill-opacity:0.05;" d="M 734 150.015625 C 551.746094 89.617188 145.667969 135.15625 94 150.015625 "/>
<path style=" stroke:none;fill-rule:nonzero;fill:rgb(76.483333%,17%,100%);fill-opacity:0.13;" d="M 734 150.015625 C 551.746094 89.617188 145.667969 135.15625 94 150.015625 "/>
<path style=" stroke:none;fill-rule:nonzero;fill:rgb(72%,30%,100%);fill-opacity:0.09;" d="M 734 150.015625 C 551.746094 89.617188 145.667969 135.15625 94 150.015625 "/>
<path style=" stroke:none;fill-rule:nonzero;fill:rgb(64.45%,21%,100%);fill-opacity:0.15;" d="M 734 150.015625 C 551.746094 89.617188 145.667969 135.15625 94 150.015625 "/>
<path style=" stroke:none;fill-rule:nonzero;fill:rgb(72.7%,22%,100%);fill-opacity:0.12;" d="M 734 150.015625 C 551.746094 89.617188 145.667969 135.15625 94 150.015625 "/>
<path style=" stroke:none;fill-rule:nonzero;fill:rgb(77.6%,16%,100%);fill-opacity:0.05;" d="M 734 150.015625 C 551.746094 89.617188 145.667969 135.15625 94 150.015625 "/>
<path style=" stroke:none;fill-rule:nonzero;fill:rgb(67.2%,18%,100%);fill-opacity:0.08;" d="M 734 150.015625 C 551.746094 89.617188 145.667969 135.15625 94 150.015625 "/>
<path style=" stroke:none;fill-rule:nonzero;fill:rgb(73%,10%,100%);fill-opacity:0.04;" d="M 734 150.015625 C 551.746094 89.617188 145.667969 135.15625 94 150.015625 "/>
<path style=" stroke:none;fill-rule:nonzero;fill:rgb(65.683333%,29%,100%);fill-opacity:0.18;" d="M 734 150.015625 C 551.746094 89.617188 145.667969 135.15625 94 150.015625 "/>
<path style=" stroke:none;fill-rule:nonzero;fill:rgb(72.666667%,18%,100%);fill-opacity:0.19;" d="M 734 150.015625 C 551.746094 89.617188 145.667969 135.15625 94 150.015625 "/>
<path style=" stroke:none;fill-rule:nonzero;fill:rgb(74.5%,15%,100%);fill-opacity:0.04;" d="M 734 150.015625 C 551.746094 89.617188 145.667969 135.15625 94 150.015625 "/>
<path style=" stroke:none;fill-rule:nonzero;fill:rgb(88.166667%,29%,100%);fill-opacity:0.12;" d="M 734 150.015625 C 551.746094 89.617188 145.667969 135.15625 94 150.015625 M 94 150.015625 C 94 150.015625 94 149.996094 94 150 "/>
</g>
</svg>
