<?xml version="1.0" encoding="UTF-8"?>
<svg xmlns="http://www.w3.org/2000/svg" xmlns:xlink="http://www.w3.org/1999/xlink" width="1000" height="600" viewBox="0 0 1000 600">
<path fill-rule="nonzero" fill="rgb(100%, 0%, 0%)" fill-opacity="1" stroke-width="2" stroke-linecap="butt" stroke-linejoin="miter" stroke="rgb(100%, 0%, 0%)" stroke-opacity="1" stroke-miterlimit="10" d="M 0 100 L 0 0 L 1000 0 L 1000 100 Z M 0 100 "/>
<path fill-rule="nonzero" fill="rgb(100%, 64.705882%, 0%)" fill-opacity="1" stroke-width="2" stroke-linecap="butt" stroke-linejoin="miter" stroke="rgb(100%, 64.705882%, 0%)" stroke-opacity="1" stroke-miterlimit="10" d="M 0 200 L 0 100 L 1000 100 L 1000 200 Z M 0 200 "/>
<path fill-rule="nonzero" fill="rgb(100%, 100%, 0%)" fill-opacity="1" stroke-width="2" stroke-linecap="butt" stroke-linejoin="miter" stroke="rgb(100%, 100%, 0%)" stroke-opacity="1" stroke-miterlimit="10" d="M 0 300 L 0 200 L 1000 200 L 1000 300 Z M 0 300 "/>
<path fill-rule="nonzero" fill="rgb(0%, 50.196078%, 0%)" fill-opacity="1" stroke-width="2" stroke-linecap="butt" stroke-linejoin="miter" stroke="rgb(0%, 50.196078%, 0%)" stroke-opacity="1" stroke-miterlimit="10" d="M 0 400 L 0 300 L 1000 300 L 1000 400 Z M 0 400 "/>
<path fill-rule="nonzero" fill="rgb(0%, 0%, 100%)" fill-opacity="1" stroke-width="2" stroke-linecap="butt" stroke-linejoin="miter" stroke="rgb(0%, 0%, 100%)" stroke-opacity="1" stroke-miterlimit="10" d="M 0 500 L 0 400 L 1000 400 L 1000 500 Z M 0 500 "/>
<path fill-rule="nonzero" fill="rgb(50.196078%, 0%, 50.196078%)" fill-opacity="1" stroke-width="2" stroke-linecap="butt" stroke-linejoin="miter" stroke="rgb(50.196078%, 0%, 50.196078%)" stroke-opacity="1" stroke-miterlimit="10" d="M 0 600 L 0 500 L 1000 500 L 1000 600 Z M 0 600 "/>
</svg>
