<?xml version="1.0" encoding="UTF-8"?>
<svg xmlns="http://www.w3.org/2000/svg" xmlns:xlink="http://www.w3.org/1999/xlink" width="800" height="600" viewBox="0 0 800 600">
<rect x="-80" y="-60" width="960" height="720" fill="rgb(52.941176%, 80.784314%, 92.156863%)" fill-opacity="1"/>
<path fill-rule="nonzero" fill="rgb(100%, 0%, 0%)" fill-opacity="1" d="M 220 300 L 150 300 C 150 161.929688 261.929688 50 400 50 C 538.070312 50 650 161.929688 650 300 L 580 300 C 580 200.589844 499.410156 120 400 120 C 300.589844 120 220 200.589844 220 300 Z M 220 300 "/>
<path fill-rule="nonzero" fill="rgb(100%, 64.705882%, 0%)" fill-opacity="1" d="M 220 300 L 160 300 C 160 167.453125 267.453125 60 400 60 C 532.546875 60 640 167.453125 640 300 L 580 300 C 580 200.589844 499.410156 120 400 120 C 300.589844 120 220 200.589844 220 300 Z M 220 300 "/>
<path fill-rule="nonzero" fill="rgb(100%, 100%, 0%)" fill-opacity="1" d="M 220 300 L 170 300 C 170 172.972656 272.972656 70 400 70 C 527.027344 70 630 172.972656 630 300 L 580 300 C 580 200.589844 499.410156 120 400 120 C 300.589844 120 220 200.589844 220 300 Z M 220 300 "/>
<path fill-rule="nonzero" fill="rgb(0%, 50.196078%, 0%)" fill-opacity="1" d="M 220 300 L 180 300 C 180 178.496094 278.496094 80 400 80 C 521.503906 80 620 178.496094 620 300 L 580 300 C 580 200.589844 499.410156 120 400 120 C 300.589844 120 220 200.589844 220 300 Z M 220 300 "/>
<path fill-rule="nonzero" fill="rgb(0%, 0%, 100%)" fill-opacity="1" d="M 220 300 L 190 300 C 190 184.019531 284.019531 90 400 90 C 515.980469 90 610 184.019531 610 300 L 580 300 C 580 200.589844 499.410156 120 400 120 C 300.589844 120 220 200.589844 220 300 Z M 220 300 "/>
<path fill-rule="nonzero" fill="rgb(29.411765%, 0%, 50.980392%)" fill-opacity="1" d="M 220 300 L 200 300 C 200 189.542969 289.542969 100 400 100 C 510.457031 100 600 189.542969 600 300 L 580 300 C 580 200.589844 499.410156 120 400 120 C 300.589844 120 220 200.589844 220 300 Z M 220 300 "/>
<path fill-rule="nonzero" fill="rgb(93.333333%, 50.980392%, 93.333333%)" fill-opacity="1" d="M 220 300 L 210 300 C 210 195.066406 295.066406 110 400 110 C 504.933594 110 590 195.066406 590 300 L 580 300 C 580 200.589844 499.410156 120 400 120 C 300.589844 120 220 200.589844 220 300 Z M 220 300 "/>
</svg>
