<?xml version="1.0" encoding="UTF-8"?>
<svg xmlns="http://www.w3.org/2000/svg" xmlns:xlink="http://www.w3.org/1999/xlink" width="900" height="500" viewBox="0 0 900 500">
<rect x="-90" y="-50" width="1080" height="600" fill="rgb(52.941176%, 80.784314%, 92.156863%)" fill-opacity="1"/>
<path fill-rule="nonzero" fill="rgb(100%, 0%, 0%)" fill-opacity="1" d="M 260 250 L 250 250 C 250 139.542969 339.542969 50 450 50 C 560.457031 50 650 139.542969 650 250 L 640 250 C 640 145.066406 554.933594 60 450 60 C 345.066406 60 260 145.066406 260 250 Z M 260 250 "/>
<path fill-rule="nonzero" fill="rgb(100%, 58.333331%, 0%)" fill-opacity="1" d="M 270 250 L 260 250 C 260 145.066406 345.066406 60 450 60 C 554.933594 60 640 145.066406 640 250 L 630 250 C 630 150.589844 549.410156 70 450 70 C 350.589844 70 270 150.589844 270 250 Z M 270 250 "/>
<path fill-rule="nonzero" fill="rgb(100%, 100%, 0%)" fill-opacity="1" d="M 280 250 L 270 250 C 270 150.589844 350.589844 70 450 70 C 549.410156 70 630 150.589844 630 250 L 620 250 C 620 156.113281 543.886719 80 450 80 C 356.113281 80 280 156.113281 280 250 Z M 280 250 "/>
<path fill-rule="nonzero" fill="rgb(0%, 100%, 8.333325%)" fill-opacity="1" d="M 290 250 L 280 250 C 280 156.113281 356.113281 80 450 80 C 543.886719 80 620 156.113281 620 250 L 610 250 C 610 161.632812 538.367188 90 450 90 C 361.632812 90 290 161.632812 290 250 Z M 290 250 "/>
<path fill-rule="nonzero" fill="rgb(0%, 66.666675%, 100%)" fill-opacity="1" d="M 300 250 L 290 250 C 290 161.632812 361.632812 90 450 90 C 538.367188 90 610 161.632812 610 250 L 600 250 C 600 167.15625 532.84375 100 450 100 C 367.15625 100 300 167.15625 300 250 Z M 300 250 "/>
<path fill-rule="nonzero" fill="rgb(25%, 0%, 100%)" fill-opacity="1" d="M 310 250 L 300 250 C 300 167.15625 367.15625 100 450 100 C 532.84375 100 600 167.15625 600 250 L 590 250 C 590 172.679688 527.320312 110 450 110 C 372.679688 110 310 172.679688 310 250 Z M 310 250 "/>
<path fill-rule="nonzero" fill="rgb(58.333349%, 0%, 100%)" fill-opacity="1" d="M 320 250 L 310 250 C 310 172.679688 372.679688 110 450 110 C 527.320312 110 590 172.679688 590 250 L 580 250 C 580 178.203125 521.796875 120 450 120 C 378.203125 120 320 178.203125 320 250 Z M 320 250 "/>
</svg>
