<?xml version="1.0" encoding="UTF-8"?>
<svg xmlns="http://www.w3.org/2000/svg" xmlns:xlink="http://www.w3.org/1999/xlink" width="800" height="600" viewBox="0 0 800 600">
<rect x="-80" y="-60" width="960" height="720" fill="rgb(52.941176%, 80.784314%, 92.156863%)" fill-opacity="1"/>
<path fill-rule="nonzero" fill="rgb(100%, 0%, 0%)" fill-opacity="1" d="M 491.421875 441.421875 L 456.421875 441.421875 C 456.421875 394.476562 494.476562 356.421875 541.421875 356.421875 C 588.367188 356.421875 626.421875 394.476562 626.421875 441.421875 L 591.421875 441.421875 C 591.421875 413.808594 569.035156 391.421875 541.421875 391.421875 C 513.808594 391.421875 491.421875 413.808594 491.421875 441.421875 Z M 491.421875 441.421875 "/>
<path fill-rule="nonzero" fill="rgb(100%, 64.705882%, 0%)" fill-opacity="1" d="M 491.421875 441.421875 L 461.421875 441.421875 C 461.421875 397.238281 497.238281 361.421875 541.421875 361.421875 C 585.605469 361.421875 621.421875 397.238281 621.421875 441.421875 L 591.421875 441.421875 C 591.421875 413.808594 569.035156 391.421875 541.421875 391.421875 C 513.808594 391.421875 491.421875 413.808594 491.421875 441.421875 Z M 491.421875 441.421875 "/>
<path fill-rule="nonzero" fill="rgb(100%, 100%, 0%)" fill-opacity="1" d="M 491.421875 441.421875 L 466.421875 441.421875 C 466.421875 400 500 366.421875 541.421875 366.421875 C 582.84375 366.421875 616.421875 400 616.421875 441.421875 L 591.421875 441.421875 C 591.421875 413.808594 569.035156 391.421875 541.421875 391.421875 C 513.808594 391.421875 491.421875 413.808594 491.421875 441.421875 Z M 491.421875 441.421875 "/>
<path fill-rule="nonzero" fill="rgb(0%, 50.196078%, 0%)" fill-opacity="1" d="M 491.421875 441.421875 L 471.421875 441.421875 C 471.421875 402.761719 502.761719 371.421875 541.421875 371.421875 C 580.082031 371.421875 611.421875 402.761719 611.421875 441.421875 L 591.421875 441.421875 C 591.421875 413.808594 569.035156 391.421875 541.421875 391.421875 C 513.808594 391.421875 491.421875 413.808594 491.421875 441.421875 Z M 491.421875 441.421875 "/>
<path fill-rule="nonzero" fill="rgb(0%, 0%, 100%)" fill-opacity="1" d="M 491.421875 441.421875 L 476.421875 441.421875 C 476.421875 405.523438 505.523438 376.421875 541.421875 376.421875 C 577.320312 376.421875 606.421875 405.523438 606.421875 441.421875 L 591.421875 441.421875 C 591.421875 413.808594 569.035156 391.421875 541.421875 391.421875 C 513.808594 391.421875 491.421875 413.808594 491.421875 441.421875 Z M 491.421875 441.421875 "/>
<path fill-rule="nonzero" fill="rgb(29.411765%, 0%, 50.980392%)" fill-opacity="1" d="M 491.421875 441.421875 L 481.421875 441.421875 C 481.421875 408.285156 508.285156 381.421875 541.421875 381.421875 C 574.558594 381.421875 601.421875 408.285156 601.421875 441.421875 L 591.421875 441.421875 C 591.421875 413.808594 569.035156 391.421875 541.421875 391.421875 C 513.808594 391.421875 491.421875 413.808594 491.421875 441.421875 Z M 491.421875 441.421875 "/>
<path fill-rule="nonzero" fill="rgb(93.333333%, 50.980392%, 93.333333%)" fill-opacity="1" d="M 491.421875 441.421875 L 486.421875 441.421875 C 486.421875 411.046875 511.046875 386.421875 541.421875 386.421875 C 571.796875 386.421875 596.421875 411.046875 596.421875 441.421875 L 591.421875 441.421875 C 591.421875 413.808594 569.035156 391.421875 541.421875 391.421875 C 513.808594 391.421875 491.421875 413.808594 491.421875 441.421875 Z M 491.421875 441.421875 "/>
<path fill-rule="nonzero" fill="rgb(100%, 0%, 0%)" fill-opacity="1" d="M 350 500 L 315 500 C 315 453.054688 353.054688 415 400 415 C 446.945312 415 485 453.054688 485 500 L 450 500 C 450 472.386719 427.613281 450 400 450 C 372.386719 450 350 472.386719 350 500 Z M 350 500 "/>
<path fill-rule="nonzero" fill="rgb(100%, 64.705882%, 0%)" fill-opacity="1" d="M 350 500 L 320 500 C 320 455.816406 355.816406 420 400 420 C 444.183594 420 480 455.816406 480 500 L 450 500 C 450 472.386719 427.613281 450 400 450 C 372.386719 450 350 472.386719 350 500 Z M 350 500 "/>
<path fill-rule="nonzero" fill="rgb(100%, 100%, 0%)" fill-opacity="1" d="M 350 500 L 325 500 C 325 458.578125 358.578125 425 400 425 C 441.421875 425 475 458.578125 475 500 L 450 500 C 450 472.386719 427.613281 450 400 450 C 372.386719 450 350 472.386719 350 500 Z M 350 500 "/>
<path fill-rule="nonzero" fill="rgb(0%, 50.196078%, 0%)" fill-opacity="1" d="M 350 500 L 330 500 C 330 461.339844 361.339844 430 400 430 C 438.660156 430 470 461.339844 470 500 L 450 500 C 450 472.386719 427.613281 450 400 450 C 372.386719 450 350 472.386719 350 500 Z M 350 500 "/>
<path fill-rule="nonzero" fill="rgb(0%, 0%, 100%)" fill-opacity="1" d="M 350 500 L 335 500 C 335 464.101562 364.101562 435 400 435 C 435.898438 435 465 464.101562 465 500 L 450 500 C 450 472.386719 427.613281 450 400 450 C 372.386719 450 350 472.386719 350 500 Z M 350 500 "/>
<path fill-rule="nonzero" fill="rgb(29.411765%, 0%, 50.980392%)" fill-opacity="1" d="M 350 500 L 340 500 C 340 466.863281 366.863281 440 400 440 C 433.136719 440 460 466.863281 460 500 L 450 500 C 450 472.386719 427.613281 450 400 450 C 372.386719 450 350 472.386719 350 500 Z M 350 500 "/>
<path fill-rule="nonzero" fill="rgb(93.333333%, 50.980392%, 93.333333%)" fill-opacity="1" d="M 350 500 L 345 500 C 345 469.625 369.625 445 400 445 C 430.375 445 455 469.625 455 500 L 450 500 C 450 472.386719 427.613281 450 400 450 C 372.386719 450 350 472.386719 350 500 Z M 350 500 "/>
<path fill-rule="nonzero" fill="rgb(100%, 0%, 0%)" fill-opacity="1" d="M 208.578125 441.421875 L 173.578125 441.421875 C 173.578125 394.476562 211.632812 356.421875 258.578125 356.421875 C 305.523438 356.421875 343.578125 394.476562 343.578125 441.421875 L 308.578125 441.421875 C 308.578125 413.808594 286.191406 391.421875 258.578125 391.421875 C 230.964844 391.421875 208.578125 413.808594 208.578125 441.421875 Z M 208.578125 441.421875 "/>
<path fill-rule="nonzero" fill="rgb(100%, 64.705882%, 0%)" fill-opacity="1" d="M 208.578125 441.421875 L 178.578125 441.421875 C 178.578125 397.238281 214.394531 361.421875 258.578125 361.421875 C 302.761719 361.421875 338.578125 397.238281 338.578125 441.421875 L 308.578125 441.421875 C 308.578125 413.808594 286.191406 391.421875 258.578125 391.421875 C 230.964844 391.421875 208.578125 413.808594 208.578125 441.421875 Z M 208.578125 441.421875 "/>
<path fill-rule="nonzero" fill="rgb(100%, 100%, 0%)" fill-opacity="1" d="M 208.578125 441.421875 L 183.578125 441.421875 C 183.578125 400 217.15625 366.421875 258.578125 366.421875 C 300 366.421875 333.578125 400 333.578125 441.421875 L 308.578125 441.421875 C 308.578125 413.808594 286.191406 391.421875 258.578125 391.421875 C 230.964844 391.421875 208.578125 413.808594 208.578125 441.421875 Z M 208.578125 441.421875 "/>
<path fill-rule="nonzero" fill="rgb(0%, 50.196078%, 0%)" fill-opacity="1" d="M 208.578125 441.421875 L 188.578125 441.421875 C 188.578125 402.761719 219.917969 371.421875 258.578125 371.421875 C 297.238281 371.421875 328.578125 402.761719 328.578125 441.421875 L 308.578125 441.421875 C 308.578125 413.808594 286.191406 391.421875 258.578125 391.421875 C 230.964844 391.421875 208.578125 413.808594 208.578125 441.421875 Z M 208.578125 441.421875 "/>
<path fill-rule="nonzero" fill="rgb(0%, 0%, 100%)" fill-opacity="1" d="M 208.578125 441.421875 L 193.578125 441.421875 C 193.578125 405.523438 222.679688 376.421875 258.578125 376.421875 C 294.476562 376.421875 323.578125 405.523438 323.578125 441.421875 L 308.578125 441.421875 C 308.578125 413.808594 286.191406 391.421875 258.578125 391.421875 C 230.964844 391.421875 208.578125 413.808594 208.578125 441.421875 Z M 208.578125 441.421875 "/>
<path fill-rule="nonzero" fill="rgb(29.411765%, 0%, 50.980392%)" fill-opacity="1" d="M 208.578125 441.421875 L 198.578125 441.421875 C 198.578125 408.285156 225.441406 381.421875 258.578125 381.421875 C 291.714844 381.421875 318.578125 408.285156 318.578125 441.421875 L 308.578125 441.421875 C 308.578125 413.808594 286.191406 391.421875 258.578125 391.421875 C 230.964844 391.421875 208.578125 413.808594 208.578125 441.421875 Z M 208.578125 441.421875 "/>
<path fill-rule="nonzero" fill="rgb(93.333333%, 50.980392%, 93.333333%)" fill-opacity="1" d="M 208.578125 441.421875 L 203.578125 441.421875 C 203.578125 411.046875 228.203125 386.421875 258.578125 386.421875 C 288.953125 386.421875 313.578125 411.046875 313.578125 441.421875 L 308.578125 441.421875 C 308.578125 413.808594 286.191406 391.421875 258.578125 391.421875 C 230.964844 391.421875 208.578125 413.808594 208.578125 441.421875 Z M 208.578125 441.421875 "/>
<path fill-rule="nonzero" fill="rgb(100%, 0%, 0%)" fill-opacity="1" d="M 150 300 L 115 300 C 115 253.054688 153.054688 215 200 215 C 246.945312 215 285 253.054688 285 300 L 250 300 C 250 272.386719 227.613281 250 200 250 C 172.386719 250 150 272.386719 150 300 Z M 150 300 "/>
<path fill-rule="nonzero" fill="rgb(100%, 64.705882%, 0%)" fill-opacity="1" d="M 150 300 L 120 300 C 120 255.816406 155.816406 220 200 220 C 244.183594 220 280 255.816406 280 300 L 250 300 C 250 272.386719 227.613281 250 200 250 C 172.386719 250 150 272.386719 150 300 Z M 150 300 "/>
<path fill-rule="nonzero" fill="rgb(100%, 100%, 0%)" fill-opacity="1" d="M 150 300 L 125 300 C 125 258.578125 158.578125 225 200 225 C 241.421875 225 275 258.578125 275 300 L 250 300 C 250 272.386719 227.613281 250 200 250 C 172.386719 250 150 272.386719 150 300 Z M 150 300 "/>
<path fill-rule="nonzero" fill="rgb(0%, 50.196078%, 0%)" fill-opacity="1" d="M 150 300 L 130 300 C 130 261.339844 161.339844 230 200 230 C 238.660156 230 270 261.339844 270 300 L 250 300 C 250 272.386719 227.613281 250 200 250 C 172.386719 250 150 272.386719 150 300 Z M 150 300 "/>
<path fill-rule="nonzero" fill="rgb(0%, 0%, 100%)" fill-opacity="1" d="M 150 300 L 135 300 C 135 264.101562 164.101562 235 200 235 C 235.898438 235 265 264.101562 265 300 L 250 300 C 250 272.386719 227.613281 250 200 250 C 172.386719 250 150 272.386719 150 300 Z M 150 300 "/>
<path fill-rule="nonzero" fill="rgb(29.411765%, 0%, 50.980392%)" fill-opacity="1" d="M 150 300 L 140 300 C 140 266.863281 166.863281 240 200 240 C 233.136719 240 260 266.863281 260 300 L 250 300 C 250 272.386719 227.613281 250 200 250 C 172.386719 250 150 272.386719 150 300 Z M 150 300 "/>
<path fill-rule="nonzero" fill="rgb(93.333333%, 50.980392%, 93.333333%)" fill-opacity="1" d="M 150 300 L 145 300 C 145 269.625 169.625 245 200 245 C 230.375 245 255 269.625 255 300 L 250 300 C 250 272.386719 227.613281 250 200 250 C 172.386719 250 150 272.386719 150 300 Z M 150 300 "/>
<path fill-rule="nonzero" fill="rgb(100%, 0%, 0%)" fill-opacity="1" d="M 208.578125 158.578125 L 173.578125 158.578125 C 173.578125 111.632812 211.632812 73.578125 258.578125 73.578125 C 305.523438 73.578125 343.578125 111.632812 343.578125 158.578125 L 308.578125 158.578125 C 308.578125 130.964844 286.191406 108.578125 258.578125 108.578125 C 230.964844 108.578125 208.578125 130.964844 208.578125 158.578125 Z M 208.578125 158.578125 "/>
<path fill-rule="nonzero" fill="rgb(100%, 64.705882%, 0%)" fill-opacity="1" d="M 208.578125 158.578125 L 178.578125 158.578125 C 178.578125 114.394531 214.394531 78.578125 258.578125 78.578125 C 302.761719 78.578125 338.578125 114.394531 338.578125 158.578125 L 308.578125 158.578125 C 308.578125 130.964844 286.191406 108.578125 258.578125 108.578125 C 230.964844 108.578125 208.578125 130.964844 208.578125 158.578125 Z M 208.578125 158.578125 "/>
<path fill-rule="nonzero" fill="rgb(100%, 100%, 0%)" fill-opacity="1" d="M 208.578125 158.578125 L 183.578125 158.578125 C 183.578125 117.15625 217.15625 83.578125 258.578125 83.578125 C 300 83.578125 333.578125 117.15625 333.578125 158.578125 L 308.578125 158.578125 C 308.578125 130.964844 286.191406 108.578125 258.578125 108.578125 C 230.964844 108.578125 208.578125 130.964844 208.578125 158.578125 Z M 208.578125 158.578125 "/>
<path fill-rule="nonzero" fill="rgb(0%, 50.196078%, 0%)" fill-opacity="1" d="M 208.578125 158.578125 L 188.578125 158.578125 C 188.578125 119.917969 219.917969 88.578125 258.578125 88.578125 C 297.238281 88.578125 328.578125 119.917969 328.578125 158.578125 L 308.578125 158.578125 C 308.578125 130.964844 286.191406 108.578125 258.578125 108.578125 C 230.964844 108.578125 208.578125 130.964844 208.578125 158.578125 Z M 208.578125 158.578125 "/>
<path fill-rule="nonzero" fill="rgb(0%, 0%, 100%)" fill-opacity="1" d="M 208.578125 158.578125 L 193.578125 158.578125 C 193.578125 122.679688 222.679688 93.578125 258.578125 93.578125 C 294.476562 93.578125 323.578125 122.679688 323.578125 158.578125 L 308.578125 158.578125 C 308.578125 130.964844 286.191406 108.578125 258.578125 108.578125 C 230.964844 108.578125 208.578125 130.964844 208.578125 158.578125 Z M 208.578125 158.578125 "/>
<path fill-rule="nonzero" fill="rgb(29.411765%, 0%, 50.980392%)" fill-opacity="1" d="M 208.578125 158.578125 L 198.578125 158.578125 C 198.578125 125.441406 225.441406 98.578125 258.578125 98.578125 C 291.714844 98.578125 318.578125 125.441406 318.578125 158.578125 L 308.578125 158.578125 C 308.578125 130.964844 286.191406 108.578125 258.578125 108.578125 C 230.964844 108.578125 208.578125 130.964844 208.578125 158.578125 Z M 208.578125 158.578125 "/>
<path fill-rule="nonzero" fill="rgb(93.333333%, 50.980392%, 93.333333%)" fill-opacity="1" d="M 208.578125 158.578125 L 203.578125 158.578125 C 203.578125 128.203125 228.203125 103.578125 258.578125 103.578125 C 288.953125 103.578125 313.578125 128.203125 313.578125 158.578125 L 308.578125 158.578125 C 308.578125 130.964844 286.191406 108.578125 258.578125 108.578125 C 230.964844 108.578125 208.578125 130.964844 208.578125 158.578125 Z M 208.578125 158.578125 "/>
<path fill-rule="nonzero" fill="rgb(100%, 0%, 0%)" fill-opacity="1" d="M 350 100 L 315 100 C 315 53.054688 353.054688 15 400 15 C 446.945312 15 485 53.054688 485 100 L 450 100 C 450 72.386719 427.613281 50 400 50 C 372.386719 50 350 72.386719 350 100 Z M 350 100 "/>
<path fill-rule="nonzero" fill="rgb(100%, 64.705882%, 0%)" fill-opacity="1" d="M 350 100 L 320 100 C 320 55.816406 355.816406 20 400 20 C 444.183594 20 480 55.816406 480 100 L 450 100 C 450 72.386719 427.613281 50 400 50 C 372.386719 50 350 72.386719 350 100 Z M 350 100 "/>
<path fill-rule="nonzero" fill="rgb(100%, 100%, 0%)" fill-opacity="1" d="M 350 100 L 325 100 C 325 58.578125 358.578125 25 400 25 C 441.421875 25 475 58.578125 475 100 L 450 100 C 450 72.386719 427.613281 50 400 50 C 372.386719 50 350 72.386719 350 100 Z M 350 100 "/>
<path fill-rule="nonzero" fill="rgb(0%, 50.196078%, 0%)" fill-opacity="1" d="M 350 100 L 330 100 C 330 61.339844 361.339844 30 400 30 C 438.660156 30 470 61.339844 470 100 L 450 100 C 450 72.386719 427.613281 50 400 50 C 372.386719 50 350 72.386719 350 100 Z M 350 100 "/>
<path fill-rule="nonzero" fill="rgb(0%, 0%, 100%)" fill-opacity="1" d="M 350 100 L 335 100 C 335 64.101562 364.101562 35 400 35 C 435.898438 35 465 64.101562 465 100 L 450 100 C 450 72.386719 427.613281 50 400 50 C 372.386719 50 350 72.386719 350 100 Z M 350 100 "/>
<path fill-rule="nonzero" fill="rgb(29.411765%, 0%, 50.980392%)" fill-opacity="1" d="M 350 100 L 340 100 C 340 66.863281 366.863281 40 400 40 C 433.136719 40 460 66.863281 460 100 L 450 100 C 450 72.386719 427.613281 50 400 50 C 372.386719 50 350 72.386719 350 100 Z M 350 100 "/>
<path fill-rule="nonzero" fill="rgb(93.333333%, 50.980392%, 93.333333%)" fill-opacity="1" d="M 350 100 L 345 100 C 345 69.625 369.625 45 400 45 C 430.375 45 455 69.625 455 100 L 450 100 C 450 72.386719 427.613281 50 400 50 C 372.386719 50 350 72.386719 350 100 Z M 350 100 "/>
<path fill-rule="nonzero" fill="rgb(100%, 0%, 0%)" fill-opacity="1" d="M 491.421875 158.578125 L 456.421875 158.578125 C 456.421875 111.632812 494.476562 73.578125 541.421875 73.578125 C 588.367188 73.578125 626.421875 111.632812 626.421875 158.578125 L 591.421875 158.578125 C 591.421875 130.964844 569.035156 108.578125 541.421875 108.578125 C 513.808594 108.578125 491.421875 130.964844 491.421875 158.578125 Z M 491.421875 158.578125 "/>
<path fill-rule="nonzero" fill="rgb(100%, 64.705882%, 0%)" fill-opacity="1" d="M 491.421875 158.578125 L 461.421875 158.578125 C 461.421875 114.394531 497.238281 78.578125 541.421875 78.578125 C 585.605469 78.578125 621.421875 114.394531 621.421875 158.578125 L 591.421875 158.578125 C 591.421875 130.964844 569.035156 108.578125 541.421875 108.578125 C 513.808594 108.578125 491.421875 130.964844 491.421875 158.578125 Z M 491.421875 158.578125 "/>
<path fill-rule="nonzero" fill="rgb(100%, 100%, 0%)" fill-opacity="1" d="M 491.421875 158.578125 L 466.421875 158.578125 C 466.421875 117.15625 500 83.578125 541.421875 83.578125 C 582.84375 83.578125 616.421875 117.15625 616.421875 158.578125 L 591.421875 158.578125 C 591.421875 130.964844 569.035156 108.578125 541.421875 108.578125 C 513.808594 108.578125 491.421875 130.964844 491.421875 158.578125 Z M 491.421875 158.578125 "/>
<path fill-rule="nonzero" fill="rgb(0%, 50.196078%, 0%)" fill-opacity="1" d="M 491.421875 158.578125 L 471.421875 158.578125 C 471.421875 119.917969 502.761719 88.578125 541.421875 88.578125 C 580.082031 88.578125 611.421875 119.917969 611.421875 158.578125 L 591.421875 158.578125 C 591.421875 130.964844 569.035156 108.578125 541.421875 108.578125 C 513.808594 108.578125 491.421875 130.964844 491.421875 158.578125 Z M 491.421875 158.578125 "/>
<path fill-rule="nonzero" fill="rgb(0%, 0%, 100%)" fill-opacity="1" d="M 491.421875 158.578125 L 476.421875 158.578125 C 476.421875 122.679688 505.523438 93.578125 541.421875 93.578125 C 577.320312 93.578125 606.421875 122.679688 606.421875 158.578125 L 591.421875 158.578125 C 591.421875 130.964844 569.035156 108.578125 541.421875 108.578125 C 513.808594 108.578125 491.421875 130.964844 491.421875 158.578125 Z M 491.421875 158.578125 "/>
<path fill-rule="nonzero" fill="rgb(29.411765%, 0%, 50.980392%)" fill-opacity="1" d="M 491.421875 158.578125 L 481.421875 158.578125 C 481.421875 125.441406 508.285156 98.578125 541.421875 98.578125 C 574.558594 98.578125 601.421875 125.441406 601.421875 158.578125 L 591.421875 158.578125 C 591.421875 130.964844 569.035156 108.578125 541.421875 108.578125 C 513.808594 108.578125 491.421875 130.964844 491.421875 158.578125 Z M 491.421875 158.578125 "/>
<path fill-rule="nonzero" fill="rgb(93.333333%, 50.980392%, 93.333333%)" fill-opacity="1" d="M 491.421875 158.578125 L 486.421875 158.578125 C 486.421875 128.203125 511.046875 103.578125 541.421875 103.578125 C 571.796875 103.578125 596.421875 128.203125 596.421875 158.578125 L 591.421875 158.578125 C 591.421875 130.964844 569.035156 108.578125 541.421875 108.578125 C 513.808594 108.578125 491.421875 130.964844 491.421875 158.578125 Z M 491.421875 158.578125 "/>
<path fill-rule="nonzero" fill="rgb(100%, 0%, 0%)" fill-opacity="1" d="M 550 300 L 515 300 C 515 253.054688 553.054688 215 600 215 C 646.945312 215 685 253.054688 685 300 L 650 300 C 650 272.386719 627.613281 250 600 250 C 572.386719 250 550 272.386719 550 300 Z M 550 300 "/>
<path fill-rule="nonzero" fill="rgb(100%, 64.705882%, 0%)" fill-opacity="1" d="M 550 300 L 520 300 C 520 255.816406 555.816406 220 600 220 C 644.183594 220 680 255.816406 680 300 L 650 300 C 650 272.386719 627.613281 250 600 250 C 572.386719 250 550 272.386719 550 300 Z M 550 300 "/>
<path fill-rule="nonzero" fill="rgb(100%, 100%, 0%)" fill-opacity="1" d="M 550 300 L 525 300 C 525 258.578125 558.578125 225 600 225 C 641.421875 225 675 258.578125 675 300 L 650 300 C 650 272.386719 627.613281 250 600 250 C 572.386719 250 550 272.386719 550 300 Z M 550 300 "/>
<path fill-rule="nonzero" fill="rgb(0%, 50.196078%, 0%)" fill-opacity="1" d="M 550 300 L 530 300 C 530 261.339844 561.339844 230 600 230 C 638.660156 230 670 261.339844 670 300 L 650 300 C 650 272.386719 627.613281 250 600 250 C 572.386719 250 550 272.386719 550 300 Z M 550 300 "/>
<path fill-rule="nonzero" fill="rgb(0%, 0%, 100%)" fill-opacity="1" d="M 550 300 L 535 300 C 535 264.101562 564.101562 235 600 235 C 635.898438 235 665 264.101562 665 300 L 650 300 C 650 272.386719 627.613281 250 600 250 C 572.386719 250 550 272.386719 550 300 Z M 550 300 "/>
<path fill-rule="nonzero" fill="rgb(29.411765%, 0%, 50.980392%)" fill-opacity="1" d="M 550 300 L 540 300 C 540 266.863281 566.863281 240 600 240 C 633.136719 240 660 266.863281 660 300 L 650 300 C 650 272.386719 627.613281 250 600 250 C 572.386719 250 550 272.386719 550 300 Z M 550 300 "/>
<path fill-rule="nonzero" fill="rgb(93.333333%, 50.980392%, 93.333333%)" fill-opacity="1" d="M 550 300 L 545 300 C 545 269.625 569.625 245 600 245 C 630.375 245 655 269.625 655 300 L 650 300 C 650 272.386719 627.613281 250 600 250 C 572.386719 250 550 272.386719 550 300 Z M 550 300 "/>
</svg>
